<?xml version="1.0" encoding="UTF-8" standalone="no"?>
<svg
   xmlns:dc="http://purl.org/dc/elements/1.1/"
   xmlns:cc="http://creativecommons.org/ns#"
   xmlns:rdf="http://www.w3.org/1999/02/22-rdf-syntax-ns#"
   xmlns:svg="http://www.w3.org/2000/svg"
   xmlns="http://www.w3.org/2000/svg"
   xmlns:sodipodi="http://sodipodi.sourceforge.net/DTD/sodipodi-0.dtd"
   xmlns:inkscape="http://www.inkscape.org/namespaces/inkscape"
   clip-rule="evenodd"
   fill-rule="evenodd"
   stroke-linejoin="round"
   stroke-miterlimit="1.414"
   width="1054.264"
   height="338.504"
   version="1.1"
   id="svg198"
   sodipodi:docname="acend-v2.svg"
   inkscape:version="0.92.5 (2060ec1f9f, 2020-04-08)">
  <metadata
     id="metadata8">
    <rdf:RDF>
      <cc:Work
         rdf:about="">
        <dc:format>image/svg+xml</dc:format>
        <dc:type
           rdf:resource="http://purl.org/dc/dcmitype/StillImage" />
        <dc:title></dc:title>
      </cc:Work>
    </rdf:RDF>
  </metadata>
  <sodipodi:namedview
     id="namedview200"
     pagecolor="#ffffff"
     bordercolor="#000000"
     borderopacity="0.25"
     inkscape:showpageshadow="2"
     inkscape:pageopacity="0.0"
     inkscape:pagecheckerboard="0"
     inkscape:deskcolor="#d1d1d1"
     showgrid="false"
     inkscape:zoom="0.82548295"
     inkscape:cx="541.50119"
     inkscape:cy="244.70523"
     inkscape:window-width="1684"
     inkscape:window-height="1376"
     inkscape:window-x="1756"
     inkscape:window-y="27"
     inkscape:window-maximized="0"
     inkscape:current-layer="svg198" />
  <defs
     id="defs184" />
  <g
     style="fill:none;fill-rule:evenodd;stroke:none;stroke-width:1"
     id="RT-tk-–-UI-Design-Desktop-RZ"
     transform="matrix(6.0123881,0,0,6.0123881,4.738493,57.744848)">
    <g
       style="fill:#ffffff;fill-rule:nonzero"
       id="RT_Website-UI-1600px"
       transform="translate(-160,-6589)">
      <g
         id="Group-"
         transform="translate(160,6524.3928)">
        <g
           id="AC-logo-rgb-white--Copy-4"
           transform="translate(0,64.607223)">
          <path
             inkscape:connector-curvature="0"
             d="m 110.19868,12.941697 c -0.88613,-0.985318 -1.98135,-1.739969 -3.19765,-2.203319 -1.32664,-0.501062 -2.7286,-0.7498111 -4.13936,-0.73444 -1.31375,-0.03711 -2.62217,0.188352 -3.854774,0.664236 -0.922457,0.368973 -1.792744,0.86673 -2.587098,1.47968 -0.762156,0.644236 -1.428288,1.403176 -1.976543,2.251922 H 94.339771 V 10.538567 H 89 V 37 h 5.324248 V 22.916037 c -0.01926,-1.119878 0.156043,-2.234133 0.51742,-3.288778 0.332743,-0.93128 0.841237,-1.783361 1.495343,-2.505736 0.641368,-0.693584 1.410487,-1.244656 2.261123,-1.620087 0.889316,-0.388826 1.845456,-0.583632 2.809586,-0.572431 1.67013,-0.08788 3.30499,0.522343 4.54295,1.695691 1.12797,1.130462 1.69368,2.878356 1.69713,5.243684 v 15.120819 h 5.35012 V 21.258147 c 0.0277,-1.627651 -0.22109,-3.247553 -0.73473,-4.784659 -0.45553,-1.310441 -1.15944,-2.511619 -2.06968,-3.531791"
             id="Path" />
          <path
             inkscape:connector-curvature="0"
             d="m 139.64557,27.052282 c -0.38513,1.004149 -0.95319,1.926438 -1.67473,2.719063 -0.70003,0.76167 -1.55532,1.360774 -2.50682,1.755951 -1.00157,0.417515 -2.07648,0.625676 -3.15987,0.611922 -1.05581,0.01051 -2.10255,-0.197746 -3.07559,-0.611922 -0.93977,-0.399908 -1.7838,-0.998671 -2.47523,-1.755951 -0.72215,-0.78818 -1.28401,-1.712028 -1.65366,-2.719063 -0.78646,-2.312148 -0.78646,-4.823396 0,-7.135545 0.37088,-1.008019 0.93256,-1.933383 1.65366,-2.724384 1.42875,-1.562358 3.44563,-2.440123 5.55082,-2.415762 1.0853,-0.012 2.16125,0.203613 3.15987,0.633206 0.94314,0.410547 1.79547,1.007579 2.50682,1.755951 0.72847,0.791322 1.29732,1.718508 1.67473,2.729705 0.42593,1.146056 0.63668,2.362298 0.62143,3.586396 0.0171,1.219057 -0.1937,2.430422 -0.62143,3.570433 M 151,5.4381259 V 0 h -10.733 v 14.409437 h -0.15272 c -0.55565,-0.862011 -1.24569,-1.627495 -2.04338,-2.266772 -0.85355,-0.615771 -1.78079,-1.119954 -2.75961,-1.50054 -1.28429,-0.499559 -2.65302,-0.7399893 -4.02882,-0.7077012 -1.6302,-0.010937 -3.24466,0.3225532 -4.73979,0.9790752 -1.47827,0.649501 -2.81246,1.592214 -3.9235,2.772274 -1.16082,1.236011 -2.06509,2.694234 -2.65955,4.288776 -0.64969,1.737197 -0.97469,3.581118 -0.95849,5.438126 -0.0229,1.893456 0.30023,3.774926 0.95322,5.549869 0.59055,1.587039 1.49555,3.035563 2.65955,4.25685 1.11935,1.171624 2.4514,2.114639 3.9235,2.777594 1.49212,0.668408 3.10762,1.009367 4.73979,1.00036 2.43139,0.05315 4.81397,-0.693876 6.78843,-2.128425 0.79769,-0.639277 1.48773,-1.404761 2.04338,-2.266773 h 0.15273 v 3.857771 h 10.73299 V 31.032437 H 145.6335 V 5.4381259 Z"
             id="Shape" />
          <path
             inkscape:connector-curvature="0"
             d="m 36.854331,17.199907 c 0.714065,-0.742179 1.56455,-1.33761 2.504183,-1.7532 2.129803,-0.881989 4.527075,-0.837897 6.62346,0.121824 0.823003,0.421206 1.572756,0.97393 2.220095,1.636672 0.404975,0.45489 0.757914,0.954142 1.052178,1.488366 L 53,14.91704 C 52.96317,14.86407 52.93161,14.80581 52.889521,14.752843 52.377488,14.129271 51.818154,13.546653 51.216558,13.010237 50.534045,12.41023 49.781452,11.896195 48.97542,11.479498 48.054387,11.02032 47.085762,10.665051 46.087192,10.420163 44.882391,10.123175 43.644809,9.9825554 42.404569,10.001726 c -1.803125,-0.00858 -3.59044,0.338722 -5.260889,1.022258 -1.600019,0.648672 -3.054443,1.614077 -4.277103,2.839018 -1.218419,1.228684 -2.182277,2.688808 -2.835619,4.295603 -1.374611,3.426669 -1.374611,7.256724 0,10.683393 0.6547,1.606069 1.618391,3.065939 2.835619,4.295603 1.22266,1.22494 2.677084,2.190346 4.277103,2.839018 1.670449,0.683536 3.457764,1.030834 5.260889,1.022258 1.250465,0.01527 2.498003,-0.125276 3.714188,-0.418437 1.028499,-0.248279 2.023121,-0.621798 2.961881,-1.112302 0.820399,-0.43221 1.583891,-0.966019 2.272704,-1.589002 0.592055,-0.548026 1.121429,-1.160947 1.578266,-1.827353 l -3.682622,-3.707672 c -0.260405,0.461546 -0.565249,0.896198 -0.910134,1.297685 -0.668672,0.69024 -1.443117,1.267871 -2.293748,1.710826 -1.127561,0.562849 -2.377793,0.830627 -3.635274,0.778611 -1.03792,0.0081 -2.065623,-0.206736 -3.01449,-0.630304 -0.936957,-0.418039 -1.786691,-1.011148 -2.504183,-1.747903 -0.740442,-0.77784 -1.326169,-1.691174 -1.725572,-2.690711 -0.446898,-1.128135 -0.666848,-2.334384 -0.647089,-3.548772 -0.01254,-1.202756 0.197995,-2.397304 0.620785,-3.522289 0.385096,-1.014894 0.96219,-1.944885 1.699267,-2.738381"
             id="path6" />
          <path
             inkscape:connector-curvature="0"
             d="m 63.647467,20.946779 c 0.765932,-3.500639 3.421161,-6.11685 7.026144,-6.11685 3.604984,0 5.902778,2.616211 6.668709,6.11685 z M 70.79616,10 C 63.295139,10 58,15.905011 58,23.239936 c 0,0.09003 0,0.174767 0,0.259503 0,0.428974 0,0.847356 0.05106,1.265738 0,0.04237 0,0.09003 0,0.137695 0.02553,0.307166 0.06638,0.614333 0.112337,0.916203 0,0.07414 0.02553,0.148288 0.03574,0.217135 0.102757,0.594864 0.242621,1.182186 0.418709,1.758264 0.02553,0.06885 0.04596,0.137695 0.06638,0.211839 0.09702,0.280686 0.194036,0.561373 0.306373,0.836764 1.273441,3.250355 3.765009,5.824962 6.903594,7.133677 1.621336,0.683446 3.3561,1.030698 5.10621,1.022123 1.213698,0.01527 2.424556,-0.125259 3.604983,-0.418382 0.99826,-0.248245 1.963638,-0.621715 2.874796,-1.112154 0.797351,-0.430313 1.538609,-0.964207 2.205882,-1.588793 0.573065,-0.549547 1.086715,-1.162197 1.531863,-1.827111 l -3.574346,-3.707182 c -0.252213,0.460189 -0.548142,0.89308 -0.883375,1.292218 -0.650277,0.688644 -1.401706,1.26601 -2.226307,1.7106 -1.095273,0.560195 -2.308105,0.827796 -3.52839,0.778508 -1.007403,0.0081 -2.00489,-0.206708 -2.925858,-0.630221 -0.909409,-0.417984 -1.73416,-1.011014 -2.430556,-1.747672 -0.717535,-0.776652 -1.285935,-1.687897 -1.674836,-2.685059 -0.08681,-0.217135 -0.158293,-0.439565 -0.224674,-0.667292 -0.03064,-0.100624 -0.06127,-0.206543 -0.08681,-0.312463 l -0.06127,-0.259502 c -0.06127,-0.296575 -0.117442,-0.598446 -0.158292,-0.910908 H 83 V 23.377631 C 83,15.375414 77.893791,10.015888 70.79616,10.015888"
             id="path8" />
          <path
             inkscape:connector-curvature="0"
             d="m 17.632459,23.494602 c 0,5.316873 -3.960176,8.512395 -7.580759,8.512395 -2.3771507,0 -4.2527486,-1.344062 -4.2527486,-3.778488 0,-3.443823 5.1409146,-5.495002 11.8335076,-5.495002 z m 5.376018,7.470612 V 10 H 1.7029381 v 5.505798 H 17.632459 v 2.806877 c -12.538816,0 -17.43417889,3.729908 -17.62748564,10.077769 C -0.16221086,33.734306 3.9076799,37 8.8866349,37 12.094482,37 15.568779,35.693722 17.491398,32.562975 h 0.167184 v 3.918832 H 27 V 30.97601 Z"
             id="path10" />
        </g>
      </g>
    </g>
  </g>
</svg>
