<?xml version="1.0" encoding="UTF-8"?>
<svg width="202px" height="21px" viewBox="0 0 202 21" version="1.1" xmlns="http://www.w3.org/2000/svg" xmlns:xlink="http://www.w3.org/1999/xlink">
    <title>Group 2</title>
    <g id="RT-rokt-–-UI-Design-Desktop-RZ" stroke="none" stroke-width="1" fill="none" fill-rule="evenodd">
        <g id="RT_Website-UI-1600px" transform="translate(-451.000000, -6597.000000)" fill="#FFFFFF">
            <g id="Group-" transform="translate(451.000000, 6524.392777)">
                <g id="Group-2" transform="translate(0.000000, 72.607223)">
                    <path d="M60.7465975,17.577 C61.4404331,16.48325 61.8168389,15.225 61.8827532,13.804 L57.0484541,13.804 C57.0120278,14.9625 56.6980672,15.8095 56.1065724,16.3415 C55.5168122,16.87525 54.6616599,17.143 53.5445847,17.143 C52.2245625,17.143 51.2913537,16.674 50.7466928,15.7395 C50.2107049,14.805 49.9435782,13.2475 49.9435782,11.067 L49.9435782,9.625 C49.9713316,7.61425 50.2662117,6.15125 50.8282185,5.23425 C51.3936945,4.31725 52.2800694,3.85875 53.4890778,3.85875 C54.6807403,3.85875 55.5671152,4.13 56.1482025,4.6725 C56.7292898,5.215 57.0397812,6.1075 57.0762075,7.35175 L61.9243834,7.35175 C61.7214365,5.061 60.8749571,3.2655 59.3884145,1.96525 C57.9036064,0.6545 55.9365827,0 53.4890778,0 C51.7891807,0 50.2939652,0.41125 49.0016965,1.23375 C47.7094278,2.0475 46.7155084,3.20775 46.0234074,4.71275 C45.3399794,6.209 45,7.959 45,9.95925 L45,10.97075 C45,14.15925 45.7597499,16.6285 47.2844535,18.37675 C48.8074225,20.12675 50.8941329,21 53.5445847,21 C55.1508139,21 56.5783805,20.70075 57.8238153,20.10225 C59.0796577,19.50375 60.0544966,18.662 60.7465975,17.577 L60.7465975,17.577 Z M79.0395715,20.72 L83.8738706,20.72 L83.8738706,0.294 L79.0395715,0.294 L79.0395715,8.4035 L71.8791887,8.4035 L71.8791887,0.294 L67.0188708,0.294 L67.0188708,20.72 L71.8791887,20.72 L71.8791887,12.1905 L79.0413061,12.1905 L79.0413061,20.72 L79.0395715,20.72 Z M92.4739621,16.1315 C93.2111624,16.1315 93.8269414,16.35725 94.3143609,16.80525 C94.8035149,17.2445 95.048092,17.8115 95.048092,18.50275 C95.048092,19.19575 94.8052495,19.76625 94.3143609,20.21425 C93.8252068,20.6535 93.2111624,20.874 92.4722275,20.874 C91.7246197,20.874 91.1053715,20.65 90.6162175,20.20025 C90.1428657,19.7670518 89.8800512,19.1473047 89.8963631,18.50275 C89.8963631,17.82025 90.1357363,17.255 90.6162175,16.80525 C91.1053715,16.35725 91.7246197,16.1315 92.4722275,16.1315 L92.4739621,16.1315 Z M116.40435,17.577 C117.096451,16.48325 117.474591,15.225 117.538771,13.804 L112.706206,13.804 C112.668045,14.9625 112.354085,15.8095 111.764325,16.3415 C111.17283,16.87525 110.319412,17.143 109.200602,17.143 C107.882315,17.143 106.947371,16.674 106.402711,15.7395 C105.868457,14.805 105.599596,13.2475 105.599596,11.067 L105.599596,9.625 C105.627349,7.61425 105.923964,6.15125 106.485971,5.23425 C107.049712,4.31725 107.936087,3.85875 109.145095,3.85875 C110.336758,3.85875 111.223133,4.13 111.80422,4.6725 C112.387042,5.215 112.695799,6.1075 112.732225,7.35175 L117.580401,7.35175 C117.377454,5.061 116.532709,3.2655 115.046167,1.96525 C113.559624,0.6545 111.594335,0 109.145095,0 C107.446933,0 105.951717,0.41125 104.657714,1.23375 C103.365445,2.0475 102.373261,3.20775 101.68116,4.71275 C100.997732,6.209 100.656018,7.959 100.656018,9.95925 L100.656018,10.97075 C100.656018,14.15925 101.417502,16.6285 102.940471,18.37675 C104.465175,20.12675 106.551885,21 109.202337,21 C110.808566,21 112.234398,20.70075 113.481568,20.10225 C114.73741,19.50375 115.710514,18.662 116.402615,17.577 L116.40435,17.577 Z M127.536941,16.93125 L136,16.93125 L136,20.72 L122.673154,20.72 L122.673154,0.294 L127.535206,0.294 L127.535206,16.93125 L127.536941,16.93125 Z" id="Shape" fill-rule="nonzero"></path>
                    <path d="M157.883515,16.2140594 C158.626659,14.6782855 159,12.9148599 159,10.9202802 L159,9.97990327 C158.991153,8.0150934 158.603657,6.27443296 157.84105,4.75792195 C157.08729,3.23440627 156.027426,2.05937292 154.663226,1.23457305 C153.297257,0.41152435 151.743733,0 150.000885,0 C148.238573,0 146.665585,0.416777852 145.281923,1.24858239 C143.905338,2.08213809 142.847243,3.26592728 142.10233,4.80170113 C141.368033,6.32521681 141,8.0903936 141,10.0937292 L141,11.2442462 C141.038927,13.1705304 141.4335,14.8796698 142.185491,16.3681621 C142.949867,17.8566544 144.009732,19.0019179 145.365084,19.807455 C146.722206,20.602485 148.27573,21 150.029195,21 C151.780891,21 153.337953,20.5884757 154.705692,19.765427 C156.080507,18.9318712 157.140372,17.7480821 157.883515,16.2140594 L157.883515,16.2140594 Z M152.925686,5.44613075 C153.612209,6.49508005 153.95547,8.03435624 153.95547,10.0657105 L153.95547,11.0060874 C153.946623,12.9901601 153.601592,14.5084223 152.925686,15.5678786 C152.24624,16.6255837 151.280153,17.1544363 150.029195,17.1544363 C148.70923,17.1544363 147.716603,16.6150767 147.047774,15.5398599 C146.378944,14.4628919 146.04453,12.9236157 146.04453,10.9202802 L146.058685,9.41952969 C146.200236,5.71405937 147.513123,3.85957305 150.000885,3.85957305 C151.271306,3.85957305 152.248009,4.38842562 152.925686,5.44613075 Z" id="Shape"></path>
                    <path d="M180,0 L180,13.5598377 C180,15.0950811 179.68028,16.4279919 179.037344,17.5567951 C178.39545,18.6768328 177.431582,19.5705372 176.275169,20.1179006 C175.076654,20.7053753 173.658004,21 172.020965,21 C169.547063,21 167.599039,20.3450811 166.175147,19.0370183 C164.753003,17.7271805 164.026207,15.9345842 164,13.6592292 L164,0 L168.923346,0 L168.923346,13.7586207 C168.979253,16.0251014 170.011793,17.1592292 172.020965,17.1592292 C173.034287,17.1592292 173.803014,16.8752535 174.321904,16.3055274 C174.844289,15.7375761 175.104608,14.8111055 175.104608,13.5314402 L175.104608,0 L180,0 L180,0 Z" id="Path" fill-rule="nonzero"></path>
                    <path d="M185.954174,1 L185.954174,21 L192.67287,21 C194.43993,20.989719 196.038365,20.5784784 197.46993,19.7628513 C198.890599,18.9585471 200.047946,17.7772541 200.807322,16.3564085 C201.603026,14.8999315 202,13.2566827 202,11.4266621 L202,10.5047978 C201.991217,8.69191227 201.578435,7.05723098 200.765165,5.60246744 C200.002733,4.1782407 198.833823,2.99986973 197.39967,2.20973269 C195.959322,1.40438657 194.338052,1 192.532348,1 L185.954174,1 L185.954174,1 Z M190.877704,17.2902673 L190.877704,4.72344071 L192.532348,4.72344071 C193.981478,4.72344071 195.084574,5.2135024 195.843391,6.19191227 C196.600452,7.17203564 196.978104,8.62851268 196.978104,10.5613434 L196.978104,11.4266621 C196.978104,13.3663468 196.600452,14.8313914 195.843391,15.8217958 C195.084574,16.8002056 194.0008,17.2902673 192.588557,17.2902673 L190.877704,17.2902673 Z M0,21 L5.29064348,21 C5.8825913,19.3978753 7.11566957,17.8694311 8.96704348,16.5757368 C10.0318268,15.8424009 11.1851836,15.2398485 12.4010435,14.7816998 C12.7365391,14.6531871 13.0808174,14.5315284 13.4338783,14.4201508 C15.5232205,13.7687918 17.7044542,13.441525 19.8978783,13.4503084 C21.3417391,13.4503084 22.7293913,13.5856751 24.038,13.834133 L24.038,21 L28.9597739,21 L28.9597739,15.4688143 C29.6307652,15.8046607 30.256087,16.1764907 30.828713,16.5757368 C32.6818435,17.8694311 33.9131652,19.3978753 34.5068696,21 L39.5867304,21 C38.8876348,17.6244003 36.6498261,14.7457162 33.6725217,12.6689513 C32.6501544,11.9595534 31.5622659,11.344605 30.4229565,10.8320768 C29.6328428,10.4745805 28.8223378,10.1616368 27.9954435,9.89479095 C26.7050447,9.47806941 25.3813269,9.16685104 24.038,8.96435915 C22.6683456,8.75576509 21.2841235,8.65149764 19.8978783,8.65250171 C18.2730957,8.65250171 16.6852,8.79300891 15.1605391,9.06374229 L12.1182435,1 L7.4898087,1 L0,21 Z M10.9431304,10.1912269 L9.8013913,6.60486635 L8.30307826,11.351268 C9.13918261,10.9143249 10.0209565,10.5270733 10.9413739,10.1912269 L10.9431304,10.1912269 Z" id="Shape"></path>
                    <path d="M20.5220857,21 L18.4409305,15.2991775 C16.8184788,15.4945168 15.3217459,15.8869088 14,16.4215216 L15.4066911,21 L20.5203868,21 L20.5220857,21 Z M24.7523523,7.23200822 L24.7523523,1 L32.5248301,1 C34.8676163,1 36.6990329,1.52775874 38.01908,2.57984921 C39.339127,3.63365319 40,5.12097327 40,7.04352296 C40,8.43660041 39.7196811,9.58978753 39.1590434,10.5047978 C38.6357815,11.3735435 37.827104,12.0863605 36.7347099,12.6415353 C36.2007248,12.1533654 35.6391461,11.6968088 35.0527967,11.2741604 C34.4972556,10.8732008 33.9145321,10.4962303 33.3097229,10.1466758 C33.8329848,10.0438657 34.2492159,9.82967786 34.560115,9.5023989 C35.0205175,9.01747772 35.2515682,8.34407128 35.2515682,7.48389308 C35.2515682,6.62371487 35.0205175,5.95030843 34.560115,5.46538725 C34.0980136,4.97018506 33.4201516,4.72344071 32.5248301,4.72344071 L29.5126764,4.72344071 L29.5126764,8.40747087 C27.9666605,7.86356507 26.3726366,7.46995415 24.7523523,7.23200822 L24.7523523,7.23200822 Z" id="Shape" fill-rule="nonzero"></path>
                </g>
            </g>
        </g>
    </g>
</svg>