<?xml version="1.0" encoding="UTF-8" standalone="no"?>
<svg
   xmlns:dc="http://purl.org/dc/elements/1.1/"
   xmlns:cc="http://creativecommons.org/ns#"
   xmlns:rdf="http://www.w3.org/1999/02/22-rdf-syntax-ns#"
   xmlns:svg="http://www.w3.org/2000/svg"
   xmlns="http://www.w3.org/2000/svg"
   xmlns:sodipodi="http://sodipodi.sourceforge.net/DTD/sodipodi-0.dtd"
   xmlns:inkscape="http://www.inkscape.org/namespaces/inkscape"
   clip-rule="evenodd"
   fill-rule="evenodd"
   stroke-linejoin="round"
   stroke-miterlimit="1.414"
   width="1054.264"
   height="338.504"
   version="1.1"
   id="svg198"
   sodipodi:docname="begasoft.svg"
   inkscape:version="0.92.5 (2060ec1f9f, 2020-04-08)">
  <metadata
     id="metadata3950">
    <rdf:RDF>
      <cc:Work
         rdf:about="">
        <dc:format>image/svg+xml</dc:format>
        <dc:type
           rdf:resource="http://purl.org/dc/dcmitype/StillImage" />
        <dc:title />
      </cc:Work>
    </rdf:RDF>
  </metadata>
  <sodipodi:namedview
     id="namedview200"
     pagecolor="#ffffff"
     bordercolor="#000000"
     borderopacity="0.25"
     inkscape:showpageshadow="2"
     inkscape:pageopacity="0.0"
     inkscape:pagecheckerboard="0"
     inkscape:deskcolor="#d1d1d1"
     showgrid="false"
     inkscape:zoom="0.82548295"
     inkscape:cx="541.50119"
     inkscape:cy="244.70523"
     inkscape:window-width="1684"
     inkscape:window-height="1376"
     inkscape:window-x="1756"
     inkscape:window-y="27"
     inkscape:window-maximized="0"
     inkscape:current-layer="svg198" />
  <defs
     id="defs184" />
  <g
     transform="matrix(2.1200863,0,0,2.1200863,1.03176,16.616275)"
     style="clip-rule:evenodd;fill-rule:evenodd;stroke-linejoin:round;stroke-miterlimit:2"
     id="g3934">
    <path
       inkscape:connector-curvature="0"
       d="m 5.289,92.796 h 7.474 c 5.635,0 7.647,-4.025 7.647,-7.073 0,-6.611 -4.082,-7.761 -9.486,-7.761 H 5.289 Z m 0,-19.434 h 7.704 c 4.14,-0.058 6.152,-2.587 6.152,-6.611 0,-3.45 -1.954,-6.268 -6.382,-6.268 H 5.289 Z M 0,97.395 V 55.884 h 13.511 c 5.75,0 7.704,1.955 9.256,4.254 1.438,2.243 1.668,4.715 1.668,5.52 0,5.175 -1.782,8.624 -7.13,9.832 v 0.287 c 5.922,0.691 8.51,4.255 8.51,9.946 0,10.637 -7.762,11.672 -12.476,11.672 z"
       style="fill:#ffffff;fill-rule:nonzero"
       id="path3866" />
    <path
       inkscape:connector-curvature="0"
       d="M 40.077,97.395 V 55.884 h 21.388 v 4.599 H 45.366 v 13.339 h 14.949 v 4.6 H 45.366 V 92.796 H 61.81 v 4.599 z"
       style="fill:#ffffff;fill-rule:nonzero"
       id="path3868" />
    <path
       inkscape:connector-curvature="0"
       d="m 94.182,66.98 c 0,-4.886 -2.012,-7.532 -7.359,-7.532 -1.667,0 -7.646,0.288 -7.646,8.97 v 14.028 c 0,9.085 2.644,11.385 7.646,11.385 3.795,0 6.325,-1.035 7.417,-1.84 V 79.572 h -7.647 v -4.6 H 99.53 v 20.181 c -3.393,1.84 -7.36,3.105 -12.707,3.105 -8.797,0 -13.051,-4.542 -13.051,-16.041 V 68.591 c 0,-8.28 4.254,-13.57 13.051,-13.57 8.969,0 13.225,3.278 12.879,11.959 z"
       style="fill:#ffffff;fill-rule:nonzero"
       id="path3870" />
    <path
       inkscape:connector-curvature="0"
       d="m 126.038,60.771 h -0.115 l -6.496,22.136 h 13.281 z m -3.219,-4.887 h 6.727 l 13.511,41.511 h -5.922 l -2.99,-9.888 h -16.041 l -3.105,9.888 h -5.347 z"
       style="fill:#ffffff;fill-rule:nonzero"
       id="path3872" />
    <path
       inkscape:connector-curvature="0"
       d="m 156.973,85.034 v 1.207 c 0,5.635 3.565,7.417 6.957,7.417 4.197,0 7.417,-1.782 7.417,-6.727 0,-9.199 -18.628,-8.165 -18.628,-20.64 0,-7.36 5.232,-11.27 12.188,-11.27 7.59,0 11.845,3.68 11.499,12.132 h -5.519 c 0.058,-4.542 -1.38,-7.532 -6.382,-7.532 -3.162,0 -6.382,1.61 -6.382,6.095 0,9.141 18.629,7.819 18.629,20.985 0,8.739 -6.037,11.557 -12.879,11.557 -12.247,0.115 -12.247,-9.257 -12.132,-13.224 z"
       style="fill:#ffffff;fill-rule:nonzero"
       id="path3874" />
    <path
       inkscape:connector-curvature="0"
       d="M 209.41,82.446 V 68.418 c 0,-8.682 -5.978,-8.97 -7.646,-8.97 -1.668,0 -7.647,0.288 -7.647,8.97 v 14.028 c 0,9.085 2.645,11.385 7.647,11.385 5.002,0 7.646,-2.3 7.646,-11.385 z M 188.713,82.217 V 68.591 c 0,-8.28 4.254,-13.57 13.051,-13.57 8.797,0 13.051,5.29 13.051,13.57 v 13.626 c 0,11.499 -4.254,16.041 -13.051,16.041 -8.797,0 -13.051,-4.542 -13.051,-16.041 z"
       style="fill:#ffffff;fill-rule:nonzero"
       id="path3876" />
    <path
       inkscape:connector-curvature="0"
       d="M 227.928,97.395 V 55.884 h 20.584 v 4.599 h -15.295 v 13.339 h 14.49 v 4.6 h -14.49 v 18.973 z"
       style="fill:#ffffff;fill-rule:nonzero"
       id="path3878" />
    <path
       inkscape:connector-curvature="0"
       d="m 284.619,55.884 v 4.599 h -10.923 v 36.912 h -5.29 V 60.483 h -10.923 v -4.599 z"
       style="fill:#ffffff;fill-rule:nonzero"
       id="path3880" />
    <path
       inkscape:connector-curvature="0"
       d="m 113.012,131.089 h 2.861 c 4.209,0 5.755,-1.58 5.755,-7.104 v -4.802 c 0,-4.802 -1.48,-6.577 -4.637,-6.577 h -3.979 z m -3.026,-21.114 h 7.301 c 3.026,0 5.197,1.085 6.38,3.617 0.954,2.006 1.052,6.741 1.052,7.498 0,5.066 -0.459,7.992 -1.446,9.57 -1.283,2.04 -3.683,3.059 -7.828,3.059 h -5.459 z"
       style="fill:#ffffff;fill-rule:nonzero"
       id="path3882" />
    <path
       inkscape:connector-curvature="0"
       d="m 133.941,133.719 h -2.697 v -16.607 h 2.697 z m -2.861,-23.744 h 3.026 v 2.893 h -3.026 z"
       style="fill:#ffffff;fill-rule:nonzero"
       id="path3884" />
    <path
       inkscape:connector-curvature="0"
       d="m 145.933,119.019 c -3.059,0 -3.157,3.683 -3.157,5.887 0,5.327 1.217,6.577 3.223,6.577 3.256,0 3.157,-3.848 3.157,-6.15 0,-2.466 0.165,-6.314 -3.223,-6.314 z m 3.157,-1.907 h 2.697 v 18.285 c 0,3.716 -2.466,4.603 -6.117,4.603 -2.763,0 -5.262,-1.382 -5.032,-4.439 h 3.026 c 0.033,1.546 1.052,2.401 2.532,2.401 1.875,0 2.894,-1.151 2.894,-2.861 v -3.452 h -0.099 c -0.69,1.313 -2.203,2.07 -3.65,2.07 -4.505,0 -5.393,-3.88 -5.393,-8.813 0,-7.631 3.848,-8.123 5.196,-8.123 1.743,0 3.124,0.755 3.88,2.367 h 0.066 z"
       style="fill:#ffffff;fill-rule:nonzero"
       id="path3886" />
    <path
       inkscape:connector-curvature="0"
       d="m 160.976,133.719 h -2.697 v -16.607 h 2.697 z m -2.861,-23.744 h 3.025 v 2.893 h -3.025 z"
       style="fill:#ffffff;fill-rule:nonzero"
       id="path3888" />
    <path
       inkscape:connector-curvature="0"
       d="m 168.051,117.112 v -3.191 l 2.696,-1.217 v 4.408 h 3.618 v 2.038 h -3.618 v 10.163 c 0,1.052 0,2.401 2.467,2.401 0.198,0 0.625,-0.065 1.217,-0.133 v 2.073 c -0.888,0.065 -1.776,0.262 -2.664,0.262 -2.565,0 -3.716,-1.052 -3.716,-2.96 V 119.15 h -2.73 v -2.038 z"
       style="fill:#ffffff;fill-rule:nonzero"
       id="path3890" />
    <path
       inkscape:connector-curvature="0"
       d="m 181.134,128.786 c 0,1.613 0.789,3.059 2.598,3.059 1.645,0 3.684,-1.019 3.421,-6.381 -2.566,0.033 -6.019,-0.197 -6.019,3.322 z m 6.084,2.533 h -0.065 c -0.823,1.907 -2.105,2.729 -4.178,2.729 -3.518,0 -4.538,-2.269 -4.538,-5.459 0,-5.032 4.933,-5.263 8.716,-5.164 0.065,-2.203 0.098,-4.603 -2.796,-4.603 -1.809,0 -2.763,1.216 -2.598,2.959 h -2.927 c 0.131,-3.716 2.105,-4.998 5.623,-4.998 4.276,0 5.394,2.203 5.394,4.998 v 7.991 c 0,1.317 0.132,2.664 0.329,3.947 h -2.96 z"
       style="fill:#ffffff;fill-rule:nonzero"
       id="path3892" />
    <rect
       x="196.463"
       y="109.975"
       width="2.697"
       height="23.743999"
       style="fill:#ffffff"
       id="rect3894" />
    <path
       inkscape:connector-curvature="0"
       d="m 214.439,124.247 c 0,-4.834 -1.349,-5.425 -3.323,-5.425 -1.71,0 -3.124,0.822 -3.157,5.425 z m -6.48,2.04 c 0,4.638 1.25,5.558 3.356,5.558 1.841,0 2.795,-1.48 2.893,-3.157 h 2.96 c -0.033,3.683 -2.302,5.36 -5.788,5.36 -3.519,0 -6.314,-1.053 -6.314,-8.386 0,-4.868 0.559,-8.879 6.314,-8.879 4.735,0 5.92,2.597 5.92,8.089 v 1.415 z"
       style="fill:#ffffff;fill-rule:nonzero"
       id="path3896" />
    <path
       inkscape:connector-curvature="0"
       d="m 232.643,133.719 v -23.744 h 3.025 v 21.114 h 8.715 v 2.63 z"
       style="fill:#ffffff;fill-rule:nonzero"
       id="path3898" />
    <path
       inkscape:connector-curvature="0"
       d="m 258.742,114.315 h -3.091 v -3.419 h 3.091 z m -0.954,10.195 c 0,-4.537 -1.414,-5.524 -3.485,-5.524 -2.072,0 -3.486,0.987 -3.486,5.524 0,5.394 0.69,7.335 3.486,7.335 2.794,0 3.485,-1.941 3.485,-7.335 z m -4.834,-10.195 h -3.091 v -3.419 h 3.091 z m -4.965,11.347 c 0,-4.868 0.559,-8.879 6.314,-8.879 5.755,0 6.314,4.011 6.314,8.879 0,7.333 -2.796,8.386 -6.314,8.386 -3.52,0 -6.314,-1.053 -6.314,-8.386 z"
       style="fill:#ffffff;fill-rule:nonzero"
       id="path3900" />
    <path
       inkscape:connector-curvature="0"
       d="m 271.438,134.048 c -3.585,0 -5.822,-1.579 -5.723,-5.393 h 3.059 c 0,0.953 0.033,3.19 2.762,3.19 1.612,0 2.862,-0.821 2.862,-2.532 0,-2.961 -8.287,-3.026 -8.287,-7.992 0,-1.744 1.051,-4.538 5.721,-4.538 2.96,0 5.492,1.413 5.262,4.702 h -2.992 c 0.032,-1.742 -0.889,-2.663 -2.599,-2.663 -1.447,0 -2.564,0.789 -2.564,2.235 0,2.928 8.287,2.861 8.287,7.927 0,3.649 -2.499,5.064 -5.788,5.064 z"
       style="fill:#ffffff;fill-rule:nonzero"
       id="path3902" />
    <path
       inkscape:connector-curvature="0"
       d="m 291.664,117.112 h 2.698 v 13.154 c 0,1.151 0.065,2.302 0.164,3.453 h -2.862 v -2.005 h -0.098 c -0.888,1.512 -2.466,2.334 -4.209,2.334 -2.894,0 -4.473,-1.447 -4.473,-4.276 v -12.66 h 2.696 v 11.509 c 0,2.006 0.921,3.356 2.828,3.356 1.448,0 3.256,-1.086 3.256,-3.849 z"
       style="fill:#ffffff;fill-rule:nonzero"
       id="path3904" />
    <path
       inkscape:connector-curvature="0"
       d="m 309.885,133.719 v -11.511 c 0,-1.776 -0.624,-3.222 -2.927,-3.222 -2.96,0 -3.387,2.631 -3.387,4.899 v 9.834 h -2.698 v -13.155 c 0,-1.151 -0.065,-2.302 -0.164,-3.452 h 2.862 v 2.136 h 0.131 c 1.053,-1.875 2.303,-2.465 4.44,-2.465 3.553,0 4.439,2.137 4.439,5.425 v 11.511 z"
       style="fill:#ffffff;fill-rule:nonzero"
       id="path3906" />
    <path
       inkscape:connector-curvature="0"
       d="m 324.588,119.019 c -3.058,0 -3.157,3.683 -3.157,5.887 0,5.327 1.217,6.577 3.223,6.577 3.255,0 3.156,-3.848 3.156,-6.15 0,-2.466 0.165,-6.314 -3.222,-6.314 z m 3.157,-1.907 h 2.697 v 18.285 c 0,3.716 -2.467,4.603 -6.117,4.603 -2.762,0 -5.262,-1.382 -5.033,-4.439 h 3.027 c 0.032,1.546 1.052,2.401 2.532,2.401 1.875,0 2.894,-1.151 2.894,-2.861 v -3.452 h -0.098 c -0.691,1.313 -2.204,2.07 -3.651,2.07 -4.506,0 -5.393,-3.88 -5.393,-8.813 0,-7.631 3.846,-8.123 5.196,-8.123 1.742,0 3.124,0.755 3.881,2.367 h 0.065 z"
       style="fill:#ffffff;fill-rule:nonzero"
       id="path3908" />
    <path
       inkscape:connector-curvature="0"
       d="m 346.162,124.247 c 0,-4.834 -1.347,-5.425 -3.321,-5.425 -1.71,0 -3.124,0.822 -3.157,5.425 z m -6.478,2.04 c 0,4.638 1.25,5.558 3.354,5.558 1.842,0 2.796,-1.48 2.895,-3.157 h 2.96 c -0.033,3.683 -2.303,5.36 -5.789,5.36 -3.519,0 -6.314,-1.053 -6.314,-8.386 0,-4.868 0.559,-8.879 6.314,-8.879 4.736,0 5.921,2.597 5.921,8.089 v 1.415 z"
       style="fill:#ffffff;fill-rule:nonzero"
       id="path3910" />
    <path
       inkscape:connector-curvature="0"
       d="m 364.155,133.719 v -11.511 c 0,-1.776 -0.625,-3.222 -2.927,-3.222 -2.961,0 -3.388,2.631 -3.388,4.899 v 9.834 h -2.696 v -13.155 c 0,-1.151 -0.067,-2.302 -0.165,-3.452 h 2.861 v 2.136 h 0.132 c 1.052,-1.875 2.302,-2.465 4.438,-2.465 3.553,0 4.441,2.137 4.441,5.425 v 11.511 z"
       style="fill:#ffffff;fill-rule:nonzero"
       id="path3912" />
    <rect
       x="382.57599"
       y="16.566999"
       width="7.8579998"
       height="7.8590002"
       style="fill:#ffffff"
       id="rect3914" />
    <rect
       x="366.862"
       y="55.855"
       width="7.8569999"
       height="7.8590002"
       style="fill:#ffffff"
       id="rect3916" />
    <rect
       x="359.00201"
       y="24.426001"
       width="7.8600001"
       height="7.8569999"
       style="fill:#ffffff"
       id="rect3918" />
    <rect
       x="351.147"
       y="16.566999"
       width="7.8569999"
       height="7.8590002"
       style="fill:#ffffff"
       id="rect3920" />
    <rect
       x="343.289"
       y="0.85000002"
       width="7.8579998"
       height="7.8590002"
       style="fill:#ffffff"
       id="rect3922" />
    <rect
       x="327.573"
       y="32.282001"
       width="7.8569999"
       height="7.8579998"
       style="fill:#ffffff"
       id="rect3924" />
    <rect
       x="335.42999"
       y="47.998001"
       width="7.8590002"
       height="7.8579998"
       style="fill:#ffffff"
       id="rect3926" />
    <rect
       x="319.715"
       y="79.428001"
       width="7.8579998"
       height="7.8579998"
       style="fill:#ffffff"
       id="rect3928" />
    <rect
       x="311.858"
       y="55.855"
       width="7.8569999"
       height="7.8590002"
       style="fill:#ffffff"
       id="rect3930" />
    <rect
       x="304"
       y="8.7089996"
       width="7.8579998"
       height="7.8579998"
       style="fill:#ffffff"
       id="rect3932" />
  </g>
</svg>
