<?xml version="1.0" encoding="UTF-8" standalone="no"?>
<svg
   xmlns:dc="http://purl.org/dc/elements/1.1/"
   xmlns:cc="http://creativecommons.org/ns#"
   xmlns:rdf="http://www.w3.org/1999/02/22-rdf-syntax-ns#"
   xmlns:svg="http://www.w3.org/2000/svg"
   xmlns="http://www.w3.org/2000/svg"
   xmlns:sodipodi="http://sodipodi.sourceforge.net/DTD/sodipodi-0.dtd"
   xmlns:inkscape="http://www.inkscape.org/namespaces/inkscape"
   clip-rule="evenodd"
   fill-rule="evenodd"
   stroke-linejoin="round"
   stroke-miterlimit="1.414"
   width="1054.264"
   height="338.504"
   version="1.1"
   id="svg198"
   sodipodi:docname="bespinian.svg"
   inkscape:version="0.92.5 (2060ec1f9f, 2020-04-08)">
  <metadata
     id="metadata8">
    <rdf:RDF>
      <cc:Work
         rdf:about="">
        <dc:format>image/svg+xml</dc:format>
        <dc:type
           rdf:resource="http://purl.org/dc/dcmitype/StillImage" />
      </cc:Work>
    </rdf:RDF>
  </metadata>
  <sodipodi:namedview
     id="namedview200"
     pagecolor="#ffffff"
     bordercolor="#000000"
     borderopacity="0.25"
     inkscape:showpageshadow="2"
     inkscape:pageopacity="0.0"
     inkscape:pagecheckerboard="0"
     inkscape:deskcolor="#d1d1d1"
     showgrid="false"
     inkscape:zoom="0.82548295"
     inkscape:cx="541.50119"
     inkscape:cy="244.70523"
     inkscape:window-width="3368"
     inkscape:window-height="1376"
     inkscape:window-x="72"
     inkscape:window-y="27"
     inkscape:window-maximized="1"
     inkscape:current-layer="svg198" />
  <defs
     id="defs184" />
  <path
     d="M 284.60658,39.230585 H 269.81562 C 241.28416,17.452556 93.66786,18.234264 67.57287,39.223559 H 52.51401 l -29.4414,14.836639 291.45406,-0.04479 z m 35.40786,21.505749 -303.25785,0.05446 -16.47735,22.151316 0.18621,8.35285 131.05727,22.44292 -0.0659,7.70466 c 6.8035,10.25267 15.98812,15.91083 27.32201,17.41979 l -0.1581,6.93612 5.4175,-0.0676 1.97447,145.36517 -7.28393,9.65277 -0.009,13.45767 8.59967,6.29055 2.76408,0.007 8.21408,-6.43635 0.0351,-13.35403 -7.16448,-9.69669 1.17168,-145.38888 6.11313,-0.0764 -0.14316,-6.87025 c 18.49837,-4.01921 20.18211,-9.13895 27.40632,-17.30736 l -0.21958,-7.69851 131.07396,-23.47407 v -7.01429 z"
     style="fill:#ffffff;fill-opacity:1;stroke-width:0.87832344"
     id="path186"
     inkscape:connector-curvature="0" />
  <g
     style="font-size:170.07899475px;line-height:1.25;letter-spacing:0;fill:#ffffff;fill-opacity:1"
     id="g196"
     transform="matrix(0.87832342,0,0,0.87832342,284.29741,-5.282845)">
    <path
       style="font-family:Lato;-inkscape-font-specification:Lato;fill:#ffffff;fill-opacity:1"
       d="m 44.037,182.852 v 125.263 h 9.78 c 2.154,0 3.458,-1.078 3.912,-3.232 l 0.765,-7.824 c 2.891,3.911 6.264,6.945 10.12,9.1 3.911,2.097 8.701,3.146 14.37,3.146 5.726,0 10.885,-1.106 15.477,-3.317 a 33.618,33.618 0 0 0 11.65,-9.44 c 3.232,-4.081 5.698,-8.984 7.399,-14.71 1.7,-5.726 2.552,-12.076 2.552,-19.049 0,-6.52 -0.766,-12.388 -2.296,-17.603 -1.474,-5.216 -3.629,-9.64 -6.463,-13.268 -2.835,-3.685 -6.293,-6.49 -10.375,-8.418 -4.025,-1.928 -8.56,-2.89 -13.606,-2.89 -5.953,0 -11.226,1.245 -15.818,3.74 -4.536,2.494 -8.618,5.84 -12.246,10.035 v -51.533 z m 362.268,1.189 c -1.474,0 -2.864,0.285 -4.168,0.852 a 10.508,10.508 0 0 0 -3.317,2.38 c -0.963,0.964 -1.728,2.126 -2.295,3.487 a 10.333,10.333 0 0 0 -0.851,4.166 c 0,1.474 0.284,2.864 0.851,4.168 a 12.402,12.402 0 0 0 2.295,3.402 11.21,11.21 0 0 0 3.317,2.295 c 1.304,0.567 2.694,0.852 4.168,0.852 1.474,0 2.862,-0.285 4.166,-0.852 1.36,-0.567 2.522,-1.331 3.486,-2.295 a 11.558,11.558 0 0 0 2.383,-3.402 9.538,9.538 0 0 0 0.933,-4.168 9.53,9.53 0 0 0 -0.933,-4.166 10.044,10.044 0 0 0 -2.383,-3.487 c -0.964,-1.02 -2.126,-1.813 -3.486,-2.38 a 10.333,10.333 0 0 0 -4.166,-0.852 z m 135.722,0 c -1.474,0 -2.864,0.285 -4.168,0.852 a 10.508,10.508 0 0 0 -3.316,2.38 c -0.964,0.964 -1.728,2.126 -2.295,3.487 a 10.333,10.333 0 0 0 -0.852,4.166 c 0,1.474 0.285,2.864 0.852,4.168 a 12.401,12.401 0 0 0 2.295,3.402 11.21,11.21 0 0 0 3.316,2.295 c 1.304,0.567 2.694,0.852 4.168,0.852 1.474,0 2.862,-0.285 4.166,-0.852 1.361,-0.567 2.523,-1.331 3.487,-2.295 a 11.558,11.558 0 0 0 2.382,-3.402 9.54,9.54 0 0 0 0.936,-4.168 9.532,9.532 0 0 0 -0.936,-4.166 10.044,10.044 0 0 0 -2.382,-3.487 c -0.964,-1.02 -2.126,-1.813 -3.487,-2.38 a 10.333,10.333 0 0 0 -4.166,-0.852 z m -195.931,36.398 c -6.123,0 -11.564,1.36 -16.326,4.08 -4.763,2.722 -8.958,6.323 -12.586,10.801 l -1.362,-10.205 c -0.51,-2.097 -1.841,-3.146 -3.996,-3.146 h -9.1 v 115.314 h 15.223 v -38.097 c 2.892,3.174 6.208,5.668 9.95,7.482 3.798,1.757 8.332,2.637 13.605,2.637 5.783,0 10.97,-1.135 15.562,-3.403 4.65,-2.324 8.562,-5.469 11.737,-9.437 3.231,-4.025 5.697,-8.76 7.398,-14.203 1.701,-5.5 2.551,-11.424 2.551,-17.774 0,-7.143 -0.766,-13.463 -2.297,-18.963 -1.53,-5.499 -3.712,-10.092 -6.547,-13.777 -2.834,-3.742 -6.266,-6.547 -10.29,-8.418 -4.026,-1.927 -8.533,-2.89 -13.522,-2.89 z m 259.966,0 c -6.69,0 -12.785,1.133 -18.285,3.4 -5.499,2.269 -10.628,5.7 -15.39,10.292 l 2.72,4.846 a 8.036,8.036 0 0 0 1.872,2.04 c 0.737,0.51 1.616,0.766 2.636,0.766 1.304,0 2.606,-0.454 3.91,-1.361 1.361,-0.964 2.95,-2.01 4.764,-3.145 1.87,-1.19 4.052,-2.24 6.547,-3.146 2.551,-0.964 5.698,-1.447 9.44,-1.447 5.555,0 9.78,1.729 12.671,5.187 2.892,3.402 4.336,8.447 4.336,15.137 v 6.719 c -9.808,0.226 -18.083,1.133 -24.83,2.72 -6.746,1.531 -12.219,3.516 -16.414,5.953 -4.195,2.438 -7.227,5.246 -9.098,8.42 -1.87,3.118 -2.806,6.378 -2.806,9.78 0,3.911 0.624,7.313 1.87,10.205 1.305,2.834 3.034,5.187 5.188,7.058 2.211,1.871 4.79,3.288 7.739,4.252 2.948,0.907 6.094,1.36 9.44,1.36 3.287,0 6.262,-0.312 8.927,-0.936 2.721,-0.567 5.273,-1.388 7.654,-2.465 a 41.591,41.591 0 0 0 6.803,-4.082 c 2.154,-1.644 4.365,-3.515 6.633,-5.613 l 1.7,8.164 c 0.454,1.417 1.078,2.38 1.872,2.89 0.794,0.454 1.928,0.682 3.402,0.682 h 6.717 v -55.107 c 0,-4.82 -0.651,-9.24 -1.955,-13.266 -1.304,-4.025 -3.232,-7.454 -5.783,-10.289 -2.551,-2.835 -5.698,-5.045 -9.44,-6.633 -3.741,-1.587 -8.02,-2.38 -12.84,-2.38 z m -431.49,0.17 c -6.236,0 -11.849,1.106 -16.838,3.317 -4.989,2.154 -9.213,5.158 -12.672,9.013 -3.458,3.799 -6.12,8.306 -7.992,13.522 -1.814,5.216 -2.722,10.828 -2.722,16.838 0,7.427 1.021,14.002 3.062,19.728 2.041,5.726 4.876,10.546 8.504,14.457 3.685,3.856 8.02,6.803 13.01,8.844 5.046,1.984 10.545,2.977 16.498,2.977 a 53.61,53.61 0 0 0 9.44,-0.85 49.666,49.666 0 0 0 9.185,-2.38 42.824,42.824 0 0 0 8.418,-4.083 c 2.608,-1.7 4.848,-3.685 6.719,-5.953 l -4.252,-5.527 c -0.68,-0.964 -1.646,-1.446 -2.893,-1.446 -0.964,0 -2.126,0.453 -3.486,1.36 -1.304,0.85 -2.948,1.786 -4.932,2.806 -1.984,1.02 -4.365,1.984 -7.142,2.891 -2.722,0.85 -5.983,1.275 -9.782,1.275 -4.082,0 -7.766,-0.65 -11.054,-1.955 a 23.123,23.123 0 0 1 -8.504,-6.037 c -2.381,-2.721 -4.253,-6.096 -5.614,-10.12 -1.304,-4.026 -2.04,-8.76 -2.21,-14.202 h 57.572 c 1.417,0 2.382,-0.396 2.892,-1.19 0.51,-0.793 0.764,-2.382 0.764,-4.763 0,-6.123 -0.907,-11.564 -2.72,-16.326 -1.815,-4.82 -4.338,-8.845 -7.57,-12.076 -3.174,-3.289 -6.972,-5.784 -11.394,-7.485 -4.365,-1.757 -9.128,-2.635 -14.287,-2.635 z m 81.127,0 c -4.875,0 -9.211,0.68 -13.01,2.041 -3.798,1.361 -7.001,3.203 -9.609,5.528 -2.608,2.267 -4.592,4.93 -5.953,7.992 a 22.63,22.63 0 0 0 -2.041,9.44 c 0,3.684 0.624,6.83 1.871,9.439 1.304,2.551 3.004,4.705 5.102,6.463 2.097,1.757 4.478,3.233 7.142,4.424 a 111.129,111.129 0 0 0 8.25,3.06 l 8.248,2.637 c 2.721,0.794 5.131,1.757 7.229,2.89 2.097,1.078 3.77,2.411 5.017,3.998 1.304,1.531 1.955,3.487 1.955,5.868 0,1.927 -0.368,3.74 -1.105,5.441 -0.68,1.7 -1.757,3.204 -3.23,4.508 -1.475,1.304 -3.317,2.353 -5.528,3.146 -2.21,0.737 -4.79,1.106 -7.738,1.106 -3.458,0 -6.35,-0.398 -8.674,-1.192 -2.324,-0.793 -4.309,-1.67 -5.953,-2.634 a 75.868,75.868 0 0 1 -4.082,-2.637 c -1.134,-0.794 -2.212,-1.191 -3.233,-1.191 -0.963,0 -1.757,0.198 -2.38,0.595 -0.624,0.397 -1.162,0.964 -1.616,1.701 l -3.572,5.784 c 3.402,3.061 7.54,5.584 12.416,7.568 4.876,1.928 10.319,2.89 16.328,2.89 5.273,0 9.92,-0.707 13.946,-2.124 4.025,-1.418 7.427,-3.346 10.205,-5.784 2.778,-2.494 4.875,-5.414 6.293,-8.76 1.417,-3.4 2.127,-7.086 2.127,-11.054 0,-3.458 -0.654,-6.406 -1.958,-8.844 -1.247,-2.494 -2.92,-4.592 -5.017,-6.293 -2.098,-1.7 -4.478,-3.118 -7.143,-4.252 a 94.985,94.985 0 0 0 -8.248,-3.062 c -2.778,-0.964 -5.5,-1.841 -8.164,-2.635 -2.664,-0.85 -5.047,-1.815 -7.144,-2.893 -2.098,-1.077 -3.798,-2.352 -5.102,-3.826 -1.247,-1.474 -1.871,-3.316 -1.871,-5.527 0,-1.758 0.368,-3.374 1.105,-4.848 0.794,-1.53 1.9,-2.862 3.317,-3.996 1.474,-1.134 3.232,-2.013 5.273,-2.637 2.041,-0.68 4.336,-1.021 6.887,-1.021 2.948,0 5.5,0.341 7.654,1.021 2.155,0.624 3.997,1.332 5.528,2.125 1.587,0.737 2.92,1.418 3.998,2.041 1.077,0.624 2.04,0.936 2.89,0.936 1.418,0 2.467,-0.624 3.147,-1.871 l 3.4,-5.527 c -3.288,-3.119 -7.199,-5.555 -11.734,-7.313 -4.479,-1.814 -9.553,-2.72 -15.223,-2.72 z m 226.12,0 c -3.062,0 -5.924,0.34 -8.589,1.02 a 32.221,32.221 0 0 0 -7.484,2.807 38.078,38.078 0 0 0 -6.633,4.335 51.128,51.128 0 0 0 -5.953,5.7 l -1.19,-9.356 c -0.51,-2.097 -1.843,-3.146 -3.997,-3.146 h -9.098 v 86.146 h 15.22 v -63.44 c 3.289,-3.684 6.86,-6.605 10.716,-8.759 3.911,-2.154 8.107,-3.232 12.585,-3.232 6.067,0 10.574,1.815 13.522,5.443 3.005,3.572 4.508,8.617 4.508,15.137 v 54.851 h 15.222 v -54.851 c 0,-4.876 -0.623,-9.327 -1.87,-13.352 -1.248,-4.025 -3.09,-7.454 -5.528,-10.289 -2.381,-2.891 -5.387,-5.102 -9.016,-6.633 -3.571,-1.587 -7.71,-2.38 -12.416,-2.38 z m 220.251,0 c -3.061,0 -5.923,0.34 -8.588,1.02 a 32.22,32.22 0 0 0 -7.484,2.807 38.078,38.078 0 0 0 -6.633,4.335 51.13,51.13 0 0 0 -5.953,5.7 l -1.19,-9.356 c -0.51,-2.097 -1.843,-3.146 -3.997,-3.146 h -9.098 v 86.146 h 15.22 v -63.44 c 3.289,-3.684 6.86,-6.605 10.715,-8.759 3.912,-2.154 8.108,-3.232 12.586,-3.232 6.067,0 10.574,1.815 13.522,5.443 3.005,3.572 4.508,8.617 4.508,15.137 v 54.851 H 730.9 v -54.851 c 0,-4.876 -0.623,-9.327 -1.87,-13.352 -1.248,-4.025 -3.09,-7.454 -5.528,-10.289 -2.381,-2.891 -5.387,-5.102 -9.016,-6.633 -3.571,-1.587 -7.71,-2.38 -12.416,-2.38 z m -303.164,1.36 v 86.146 h 15.137 V 221.97 Z m 135.723,0 v 86.146 h 15.137 V 221.97 Z m -359.717,9.78 c 3.458,0 6.548,0.596 9.27,1.786 2.72,1.134 5.017,2.777 6.888,4.932 1.928,2.097 3.372,4.62 4.336,7.568 1.02,2.892 1.531,6.095 1.531,9.61 h -47.11 c 1.02,-7.484 3.626,-13.323 7.821,-17.518 4.252,-4.252 10.007,-6.379 17.264,-6.379 z m -92.607,0.935 c 7.086,0 12.53,2.495 16.328,7.484 3.855,4.932 5.781,12.67 5.781,23.215 0,11.338 -2.154,19.871 -6.463,25.597 -4.308,5.726 -10.516,8.59 -18.623,8.59 -3.968,0 -7.626,-0.766 -10.97,-2.297 -3.289,-1.53 -6.322,-4.166 -9.1,-7.908 v -41.67 c 3.118,-4.138 6.493,-7.341 10.12,-9.61 3.686,-2.267 7.994,-3.401 12.927,-3.401 z m 258.86,0 c 3.457,0 6.547,0.596 9.269,1.787 2.72,1.19 5.017,3.09 6.888,5.697 1.871,2.551 3.288,5.84 4.252,9.865 1.02,4.025 1.53,8.843 1.53,14.455 0,10.602 -2.155,18.766 -6.463,24.492 -4.309,5.726 -10.487,8.59 -18.537,8.59 -4.082,0 -7.769,-0.766 -11.057,-2.297 -3.288,-1.53 -6.32,-4.166 -9.098,-7.908 v -41.67 c 3.118,-4.138 6.518,-7.341 10.203,-9.61 3.742,-2.267 8.08,-3.401 13.012,-3.401 z m 280.118,36.652 v 17.86 a 46.376,46.376 0 0 1 -5.271,4.845 32.88,32.88 0 0 1 -5.614,3.658 28.158,28.158 0 0 1 -6.207,2.381 c -2.21,0.51 -4.65,0.766 -7.314,0.766 -1.984,0 -3.854,-0.228 -5.611,-0.682 -1.701,-0.51 -3.204,-1.274 -4.508,-2.295 -1.247,-1.077 -2.24,-2.438 -2.977,-4.082 -0.737,-1.644 -1.105,-3.6 -1.105,-5.867 0,-2.381 0.68,-4.537 2.04,-6.465 1.418,-1.927 3.658,-3.598 6.72,-5.016 3.118,-1.417 7.114,-2.551 11.99,-3.402 4.932,-0.907 10.884,-1.474 17.857,-1.701 z"
       aria-label="bespinian"
       id="path194"
       inkscape:connector-curvature="0" />
  </g>
</svg>
