<?xml version="1.0" encoding="UTF-8"?>
<svg width="208px" height="54px" viewBox="0 0 208 54" version="1.1" xmlns="http://www.w3.org/2000/svg" xmlns:xlink="http://www.w3.org/1999/xlink">
    <title>puzzle-itc</title>
    <g id="RT-rokt-–-UI-Design-Desktop-RZ" stroke="none" stroke-width="1" fill="none" fill-rule="evenodd">
        <g id="RT_Website-UI-1600px" transform="translate(-793.000000, -6580.000000)" fill="#FFFFFF" fill-rule="nonzero">
            <g id="Group-" transform="translate(793.000000, 6524.392777)">
                <g id="puzzle-itc" transform="translate(0.000000, 55.607223)">
                    <path d="M69.2078992,28.7785885 L72.6166819,28.7785885 C73.6078714,28.7785885 74.3636952,28.5052206 74.8813107,27.9561033 C75.3998742,27.4074624 75.6589188,26.7026111 75.6589188,25.8410733 C75.6589188,24.9609618 75.3998742,24.2403942 74.8813107,23.6784182 C74.3636952,23.115966 73.6078714,22.834978 72.6166819,22.834978 L69.2078992,22.834978 L69.2078992,28.7785885 Z M69.2078992,32.3152273 L69.2078992,39.1018019 L64.6232338,39.1018019 L64.6232338,19.2983392 L72.6166819,19.2983392 C74.9513995,19.2983392 76.804493,19.899844 78.1745414,21.1004724 C79.5460107,22.3030057 80.2312714,23.8736811 80.2312714,25.813927 C80.2312714,27.763698 79.5460107,29.3348496 78.1745414,30.5273816 C76.804493,31.7189613 74.9513995,32.3152273 72.6166819,32.3152273 L69.2078992,32.3152273 Z M98.3142045,19.2984344 L98.3142045,32.274365 C98.3142045,34.5327466 97.5678525,36.2824922 96.0756223,37.5250306 C94.5838656,38.7666166 92.6294279,39.3871714 90.2137286,39.3871714 C87.7700895,39.3871714 85.800023,38.7666166 84.3030568,37.5250306 C82.8065643,36.2824922 82.057371,34.5327466 82.057371,32.274365 L82.057371,19.2984344 L86.6425104,19.2984344 L86.6425104,32.274365 C86.6425104,33.4897572 86.9541217,34.389395 87.5759242,34.9747073 C88.1977259,35.5585908 89.077152,35.8514852 90.2137286,35.8514852 C91.3403605,35.8514852 92.2074734,35.5614483 92.816489,34.9808986 C93.425031,34.4003488 93.7290652,33.4983297 93.7290652,32.274365 L93.7290652,19.2984344 L98.3142045,19.2984344 Z M105.742017,35.566068 L114.709606,35.566068 L114.709606,39.1017543 L100.115962,39.1017543 L100.115962,37.0348256 L108.920643,22.8349303 L100.075709,22.8349303 L100.075709,19.2982915 L114.588371,19.2982915 L114.588371,21.2842576 L105.742017,35.566068 Z M121.766278,35.566068 L130.733394,35.566068 L130.733394,39.1017543 L116.140698,39.1017543 L116.140698,37.0348256 L124.945378,22.8349303 L116.099497,22.8349303 L116.099497,19.2982915 L130.612159,19.2982915 L130.612159,21.2842576 L121.766278,35.566068 Z M137.033011,35.566068 L145.51282,35.566068 L145.51282,39.1017543 L132.447398,39.1017543 L132.447398,19.2982915 L137.033011,19.2982915 L137.033011,35.566068 Z M159.408416,30.6287279 L151.685378,30.6287279 L151.685378,35.5660204 L160.787462,35.5660204 L160.787462,39.1017066 L147.101186,39.1017066 L147.101186,19.298244 L160.814455,19.298244 L160.814455,22.8348827 L151.685378,22.8348827 L151.685378,27.092089 L159.408416,27.092089 L159.408416,30.6287279 Z M174.62225,39.1018019 L170.064579,39.1018019 L170.064579,19.2983392 L174.62225,19.2983392 L174.62225,39.1018019 Z M191.260879,22.834978 L186.067198,22.834978 L186.067198,39.1018019 L181.482058,39.1018019 L181.482058,22.834978 L176.329578,22.834978 L176.329578,19.2983392 L191.260879,19.2983392 L191.260879,22.834978 Z M207.94696,32.1523496 L207.973953,32.2333122 C207.883501,34.5550351 207.199661,36.3271644 205.924801,37.5520816 C204.647573,38.7760463 202.797794,39.3870762 200.372624,39.3870762 C197.938456,39.3870762 195.959392,38.6345998 194.435432,37.1296472 C192.911472,35.6246945 192.149493,33.6706373 192.149493,31.2679517 L192.149493,27.1331419 C192.149493,24.7390288 192.881637,22.7873529 194.347822,21.278114 C195.813058,19.7683988 197.71635,19.0130649 200.06196,19.0130649 C202.550115,19.0130649 204.451987,19.6436211 205.767574,20.9033045 C207.085529,22.1644168 207.828566,23.9546437 208,26.2763666 L207.973953,26.3578055 L203.523783,26.3578055 C203.460324,25.0700232 203.174285,24.1137115 202.66472,23.4879179 C202.155628,22.8621243 201.287095,22.5492275 200.06196,22.5492275 C199.02436,22.5492275 198.208393,22.9688045 197.613111,23.8079585 C197.018776,24.6471124 196.720898,25.7458232 196.720898,27.1059956 L196.720898,31.2679517 C196.720898,32.6371729 197.04577,33.7439799 197.695039,34.5864677 C198.343835,35.4303841 199.236048,35.8518662 200.372624,35.8518662 C201.472735,35.8518662 202.252711,35.5565906 202.712551,34.966992 C203.171918,34.378346 203.433804,33.4396556 203.496315,32.1523496 L207.94696,32.1523496 Z" id="Fill-1"></path>
                    <path d="M45.8331605,7.90760954 C56.3185529,18.4527558 56.3176058,35.5463512 45.8331605,46.0910212 C35.3482416,56.6356912 18.3497919,56.6366438 7.86439947,46.0919737 C-2.62146649,35.5473037 -2.62146649,18.4518033 7.86439947,7.90760954 C18.3483712,-2.63610797 35.3487152,-2.63563172 45.8331605,7.90760954 Z M29.860639,15 L16.6451625,15 L10.1222665,33.4908805 C10.1222665,33.4908805 8.03818182,40 21.0787601,40 C21.6848341,38.2282061 22.6857958,35.3620946 23.7174156,32.4230501 L23.9558601,31.7439793 C23.9956363,31.63074 24.0354165,31.5175091 24.0751797,31.4043446 L24.3133919,30.7266199 C25.9375303,26.1073035 27.4637283,21.7950609 27.4637283,21.7950609 C27.5155031,21.6222428 28.3755212,19.1588595 35.5739792,19.1593226 C35.5739792,19.1593226 33.9273769,24.686566 32.5291395,27.4133075 C31.4978068,29.4273166 28.5928564,30.3310593 27.1419591,30.6662992 L26.8801906,30.7242309 C26.5174538,30.8009166 26.2953705,30.8326309 26.2953705,30.8326309 C33.7804435,30.8101195 39.2932907,30.8326309 40.2355606,28.2486206 C40.2355606,28.2486206 40.2445857,28.2232169 40.2617732,28.1748062 L40.3067756,28.0480186 C40.519043,27.4498517 41.1772612,25.5932889 41.8925981,23.5582967 L42.0802478,23.0240917 L42.2689549,22.4860522 C42.8665824,20.7806865 43.4570417,19.0817293 43.8211333,17.9979991 L43.9283292,17.6769293 C44.754056,15.1885709 38.1882067,15.0129221 37.4128967,15.0008678 L37.3386022,15 C30.0549703,15 28.9780905,17.6630393 28.9780905,17.6630393 L29.860639,15 Z" id="Combined-Shape"></path>
                </g>
            </g>
        </g>
    </g>
</svg>