<?xml version="1.0" encoding="UTF-8"?>
<svg width="241px" height="26px" viewBox="0 0 241 26" version="1.1" xmlns="http://www.w3.org/2000/svg" xmlns:xlink="http://www.w3.org/1999/xlink">
    <title>Shape 2</title>
    <g id="RT-rokt-–-UI-Design-Desktop-RZ" stroke="none" stroke-width="1" fill="none" fill-rule="evenodd">
        <g id="RT_Website-UI-1600px" transform="translate(-1141.000000, -6594.000000)" fill="#FFFFFF" fill-rule="nonzero">
            <g id="Group-" transform="translate(1141.000000, 6524.392777)">
                <g id="Shape-2" transform="translate(0.000000, 69.607223)">
                    <path d="M238.296338,25.6386499 C239.750194,25.6386499 241,24.3739246 241,22.8596956 C241,21.3454666 239.750194,20.1237591 238.296338,20.1237591 C236.842482,20.1237591 235.550166,21.3884844 235.550166,22.8596956 C235.550166,24.3309067 236.799972,25.6386499 238.296338,25.6386499 M225.245643,25.6386499 L229.199111,25.6386499 L229.199111,14.5056254 C230.278875,12.3633355 231.979292,11.2362674 233.883758,11.2362674 C234.436393,11.2362674 234.75097,11.2706817 235.031539,11.3395103 L235.167572,11.2362674 L235.686199,8.00132363 C235.337614,7.82925215 234.818987,7.71740569 234.189833,7.71740569 C232.038806,7.71740569 230.372398,8.87888815 229.190609,10.2468564 L229.190609,8.07015222 L225.237141,8.07015222 L225.237141,25.6386499 L225.245643,25.6386499 Z M208.692091,15.0304434 C209.176709,12.4665784 211.089678,10.9953673 213.444754,10.9953673 C215.944366,10.9953673 217.925351,12.4321641 218.163409,15.0304434 L208.683589,15.0304434 L208.692091,15.0304434 Z M213.444754,25.9913964 C217.678791,25.9913964 220.526988,23.8146923 221.632259,19.882859 L221.530234,19.7107876 L218.061384,19.5043018 C217.440732,21.3626737 215.978374,22.5929848 213.512771,22.5929848 C210.73259,22.5929848 208.794116,20.8378557 208.615572,17.9556585 L221.912827,17.9556585 L221.912827,16.7253475 C221.912827,11.0727995 218.375961,7.73461284 213.444754,7.73461284 C208.828124,7.73461284 204.764129,11.3911317 204.764129,16.8630046 C204.764129,22.3348776 208.232978,25.9913964 213.444754,25.9913964 M185.60894,25.6386499 L189.562407,25.6386499 L189.562407,14.1872932 C190.642172,12.5698213 192.342588,11.2362674 194.213046,11.2362674 C196.296056,11.2362674 197.409829,12.4321641 197.409829,14.574454 L197.409829,25.6386499 L201.363296,25.6386499 L201.363296,13.5592323 C201.363296,10.1178028 199.280286,7.72600927 195.49686,7.72600927 C192.96324,7.72600927 190.846222,8.99073461 189.562407,10.3587028 L189.562407,8.07875579 L185.60894,8.07875579 L185.60894,25.6386499 Z M165.544027,25.6386499 L169.497495,25.6386499 L169.497495,14.1872932 C170.57726,12.5698213 172.277676,11.2362674 174.148134,11.2362674 C176.231144,11.2362674 177.344916,12.4321641 177.344916,14.574454 L177.344916,25.6386499 L181.298384,25.6386499 L181.298384,13.5592323 C181.298384,10.1178028 179.215374,7.72600927 175.431948,7.72600927 C172.898328,7.72600927 170.78131,8.99073461 169.497495,10.3587028 L169.497495,8.07875579 L165.544027,8.07875579 L165.544027,25.6386499 Z M151.447576,22.7220384 C150.061737,22.7220384 148.981973,21.982131 148.981973,20.5453342 C148.981973,19.2806089 149.883193,18.2653872 151.728145,18.0158835 L156.24275,17.4910655 L156.24275,20.0549305 C154.856911,21.6724024 153.394553,22.7220384 151.456078,22.7220384 M150.724899,25.9913964 C153.122486,25.9913964 155.026953,24.7610854 156.378784,23.2898743 L156.480809,23.2898743 C157.143971,25.2256784 158.631835,25.8537392 160.16221,25.8537392 C160.825372,25.8537392 161.480032,25.7849107 162.347245,25.5009927 L162.347245,22.6187955 L162.24522,22.5499669 C161.930643,22.6187955 161.726593,22.6532098 161.480032,22.6532098 C160.544803,22.6532098 160.094193,22.0251489 160.094193,20.8980807 L160.094193,13.6968895 C160.094193,9.93712773 157.177979,7.72600927 153.045968,7.72600927 C149.645135,7.72600927 146.660905,9.51555261 145.997742,13.2409001 L146.167784,13.3785572 L149.602625,13.5506287 C149.917202,11.7954997 151.132999,10.9179351 152.901432,10.9179351 C154.882417,10.9179351 156.234248,11.829914 156.234248,13.7313038 L156.234248,14.6776969 L151.201016,15.2025149 C147.732167,15.5552614 145.198547,17.4136334 145.198547,20.75182 C145.198547,24.0900066 147.630142,25.9827929 150.716397,25.9827929 M118.714563,25.6300463 L123.331193,25.6300463 L128.330417,6.97749835 L133.329641,25.6300463 L137.946271,25.6300463 L144.994497,1.049636 L140.377866,1.049636 L136.109821,17.3448048 L135.591195,20.5023163 L135.48917,20.5023163 L134.970543,17.3448048 L130.489946,1.049636 L126.187892,1.049636 L121.673287,17.3448048 L121.188669,20.5023163 L121.086644,20.5023163 L120.534008,17.3448048 L116.299972,1.049636 L111.683342,1.049636 L118.731567,25.6386499 L118.714563,25.6300463 Z M92.5621604,22.4295169 C89.6119382,22.4295169 87.3248783,20.4248842 87.3248783,16.8457975 C87.3248783,13.2667108 89.6119382,11.2620781 92.5621604,11.2620781 C95.5123827,11.2620781 97.7654343,13.2667108 97.7654343,16.8457975 C97.7654343,20.4248842 95.5123827,22.4295169 92.5621604,22.4295169 M92.5621604,25.9741893 C97.9779863,25.9741893 101.727404,22.0767704 101.727404,16.8457975 C101.727404,11.6148246 97.9779863,7.71740569 92.5621604,7.71740569 C87.1463346,7.71740569 83.3629083,11.6148246 83.3629083,16.8457975 C83.3629083,22.0767704 87.1123263,25.9741893 92.5621604,25.9741893 M79.8940591,25.6214428 L79.8940591,8.07875579 L75.9405913,8.07875579 L75.9405913,25.6386499 L79.8940591,25.6386499 L79.8940591,25.6214428 Z M77.9130742,5.77299801 C79.2649051,5.77299801 80.3786778,4.64592985 80.3786778,3.27796161 C80.3786778,1.90999338 79.2649051,0.782925215 77.9130742,0.782925215 C76.5612432,0.782925215 75.4474705,1.90999338 75.4474705,3.27796161 C75.4474705,4.64592985 76.5612432,5.77299801 77.9130742,5.77299801 M62.9579129,22.5241562 C60.2117406,22.5241562 57.9926974,20.7001985 57.9926974,16.8371939 C57.9926974,12.9741893 60.2117406,11.1502316 62.9239046,11.1502316 C65.6360686,11.1502316 67.6085515,13.0430179 67.6085515,15.5724686 L67.6085515,18.1363336 C67.6085515,20.6657842 65.4915332,22.5241562 62.9579129,22.5241562 M62.1587173,25.9655857 C64.7603542,25.9655857 66.4947788,24.9159497 67.6085515,23.7200529 L67.6085515,25.6128392 L71.5620193,25.6128392 L71.5620193,0 L67.6085515,0 L67.6085515,9.73064196 C66.2907289,8.50033091 64.4457772,7.72600927 62.2607423,7.72600927 C57.8141537,7.72600927 53.9967191,10.960953 53.9967191,16.8544011 C53.9967191,22.7478491 58.0947224,25.9827929 62.1502152,25.9827929 M40.5974388,25.9827929 C43.1310591,25.9827929 45.214069,24.7868961 46.4978833,23.3845136 L46.4978833,25.6300463 L50.4513512,25.6300463 L50.4513512,8.07875579 L46.4978833,8.07875579 L46.4978833,19.5301125 C45.418119,21.216413 43.7942214,22.4811383 41.9152614,22.4811383 C39.8322515,22.4811383 38.6504621,21.2852416 38.6504621,19.1429517 L38.6504621,8.07875579 L34.6969943,8.07875579 L34.6969943,19.9172733 C34.6969943,23.6082065 36.8140126,25.9913964 40.5974388,25.9913964 M28.2439145,25.9913964 C29.4257038,25.9913964 30.1568828,25.8881535 31.1601284,25.6386499 L31.1601284,22.4381205 L31.0581034,22.3692919 C30.5054681,22.506949 30.0888662,22.5757776 29.4257038,22.5757776 C28.1078812,22.5757776 27.4447188,21.9046989 27.4447188,20.75182 L27.4447188,11.5201853 L31.33017,11.5201853 L31.33017,8.07875579 L27.4447188,8.07875579 L27.4447188,4.21575116 L23.7633176,2.91661152 L23.4487406,2.91661152 L23.4487406,8.07875579 L20.2179496,8.07875579 L20.2179496,11.5201853 L23.4487406,11.5201853 L23.4487406,21.1131701 C23.4487406,24.4169424 25.3957172,25.9913964 28.2354124,25.9913964 M9.35228956,25.9913964 C14.4195301,25.9913964 18.372998,22.9371277 18.372998,17.9814692 C18.372998,13.4473858 15.1762153,11.4513567 10.8741621,10.4275314 C7.09073591,9.51555261 5.04173428,8.77564527 5.04173428,6.73659828 C5.04173428,5.22236929 6.57210894,4.20714758 8.79115219,4.20714758 C11.4267974,4.20714758 12.9911804,5.54070152 13.3057574,8.00132363 L17.123192,7.79483786 L17.2932336,7.58835208 C16.8681295,3.44142952 13.883899,0.705493051 8.85066676,0.705493051 C4.33606153,0.705493051 0.901220631,3.08868299 0.901220631,6.98610192 C0.901220631,10.8835208 3.98747619,12.6042356 8.15349608,13.5936466 C12.004939,14.4712111 14.0879489,15.4176042 14.0879489,18.2309729 C14.0879489,20.8636664 12.0729556,22.1972204 9.50532703,22.1972204 C6.72514641,22.1972204 4.47209483,20.5797485 4.19152614,17.5254798 L0.127531221,17.9126406 L0,18.0933157 C0.382593664,22.9027134 4.40407818,26 9.36929373,26" id="Shape"></path>
                </g>
            </g>
        </g>
    </g>
</svg>