<?xml version="1.0" encoding="UTF-8"?>
<svg width="59px" height="76px" viewBox="0 0 59 76" version="1.1" xmlns="http://www.w3.org/2000/svg" xmlns:xlink="http://www.w3.org/1999/xlink">
    <title>argo-horizontal-white</title>
    <g id="RT-rokt-–-UI-Design-Desktop-RZ" stroke="none" stroke-width="1" fill="none" fill-rule="evenodd">
        <g id="RT_Website-UI-1600px" transform="translate(-671.000000, -2447.000000)" fill="#FDFEFE" fill-rule="nonzero">
            <g id="Group-" transform="translate(175.000000, 2339.392777)">
                <g id="Group-3" transform="translate(0.000000, 103.000000)">
                    <g id="argo-horizontal-white" transform="translate(496.000000, 5.000000)">
                        <path d="M31.2685499,0 C32.6319813,0.116289747 33.9876368,0.310543069 35.3288619,0.581806452 C40.5760668,1.78029974 45.0781213,4.37100388 49.0206478,7.97075859 C52.5648907,11.2311701 55.0978001,15.4412004 56.3179641,20.0998634 C56.5957136,21.102038 56.9920323,21.84991 58.1489593,22.0498404 C58.7901315,22.1606528 58.8934281,22.8140978 58.8960431,23.3936694 C58.9051677,25.4146267 58.9026249,27.4356349 58.9026249,29.4566292 C58.9020087,30.7174293 58.9000181,31.9782279 58.8960987,33.2390249 C58.8908317,34.3497678 58.5340855,34.7342077 57.4413879,34.7181933 C56.7807841,34.7085123 56.5240148,35.0918673 56.362762,35.6295853 C55.909264,37.1584117 55.3330849,38.6481325 54.6398389,40.0842316 C52.0844,45.341136 48.1274123,49.263489 43.1143692,52.178711 C42.8740641,52.3184551 42.630889,52.4534004 42.3869442,52.5867229 C41.5995508,53.0170874 41.5810836,53.0443454 41.9029957,53.8829258 C42.259159,54.8175625 43.0232997,55.5379252 43.9773005,55.8383925 C44.8183614,56.1397649 45.7046051,56.2574068 46.5609201,56.4952314 C46.8236208,56.5451568 47.0746238,56.6439224 47.3009053,56.7864035 C47.0942056,57.0441929 46.8123621,56.9975914 46.5763179,57.0450321 C45.4531677,57.27076 44.3499313,57.6183213 43.1819369,57.5739778 C42.7183184,57.5876213 42.2558568,57.5205701 41.8152036,57.3758185 C41.4597279,57.2333481 41.3383582,57.3554967 41.2655513,57.7173337 C41.0943416,58.6655622 41.0062029,59.6269223 41.0021379,60.5904749 C40.9550588,62.5172833 40.7824188,64.4350228 40.6503342,66.3549461 C40.5220006,68.2204971 40.5952387,68.3889458 42.3955403,68.9859136 C43.2747689,69.2774566 44.1539279,69.5697137 45.0271337,69.8785648 C45.2423461,69.9546961 45.4958838,69.9990814 45.6271987,70.2435871 C45.5027783,70.4205901 45.3210553,70.3544644 45.1693491,70.3550347 C43.630495,70.3608627 42.0914787,70.3687726 40.5526849,70.355795 C38.9132188,70.341969 38.031774,69.4750642 37.912361,67.8466377 C37.737704,65.4648681 37.5363409,63.0850829 37.3441997,60.7046301 C37.3233855,60.5776575 37.2959792,60.4518538 37.262092,60.3277291 C37.0846367,61.6733571 36.9971419,63.029324 37.00019,64.3865992 C36.9266783,66.0335857 36.975394,67.6861731 36.977499,69.3363309 C36.8833168,70.0333195 37.3373175,70.6867403 38.0233773,70.8416121 C39.1477283,71.26817 40.246472,71.7652027 41.5059538,71.661614 C41.9547678,71.6757521 42.3905177,71.8160577 42.763261,72.0664499 C42.8598718,72.1176786 42.9911264,72.1674607 42.9788582,72.2924422 C42.9654541,72.4290195 42.8235355,72.4397994 42.7162933,72.4364843 C40.6617493,72.3729643 38.6005519,72.6360809 36.5523877,72.3474218 C35.5981745,72.2427897 34.8103278,71.5544581 34.5785697,70.6229223 C34.3262187,69.6733964 34.1834731,68.6980873 34.1531246,67.7160692 C34.0089944,65.7588499 33.9072,63.798501 33.7891594,61.8393762 C33.8049147,61.6432344 33.7365414,61.449643 33.6010984,61.3069021 C33.4977907,61.4897771 33.4625524,61.7033178 33.5016269,61.9096887 C33.4978374,64.8948491 33.4971681,67.880005 33.4996193,70.8651562 C33.5004029,72.0797335 33.8833638,72.6641178 35.0442597,73.0793488 C36.5455581,73.616311 38.0909033,74.0107102 39.6360212,74.4008252 C39.9807681,74.4878709 40.3406068,74.5475055 40.3931615,75 L34.6068292,75 C34.4448346,74.9689355 34.2837904,74.9312083 34.1206876,74.9078774 C31.928268,74.5943156 30.9930259,73.7427252 30.5490672,71.6497631 C30.4762324,71.306384 30.4105703,70.961498 30.340332,70.6175672 C30.1055675,69.4681048 29.870497,68.3187059 29.6351205,67.1693703 C29.4171929,67.5431643 29.264186,67.9511864 29.1825982,68.3761073 C28.9230052,69.6238634 28.7102688,70.8820145 28.4245955,72.1235391 C28.07001,73.6645816 27.0344525,74.5103069 25.5113487,74.8037648 C25.167951,74.8699323 24.8242659,74.93463 24.4807106,75 L18.6943643,75 C18.8741075,74.4640439 19.3694386,74.4226631 19.8057749,74.3069222 C21.3075585,73.9757721 22.7869693,73.5502649 24.2352033,73.0329328 C24.9326648,72.7798655 25.4173852,72.1419234 25.4742984,71.4021555 C25.6567354,70.0457292 25.4802099,68.7006205 25.4331077,67.3519232 C25.3869695,67.0161465 25.3053017,66.6862192 25.1894783,66.3676918 C25.0581659,66.5598718 24.9813715,66.7840367 24.9672555,67.0163659 C24.8842343,67.9384913 24.8131475,68.8616925 24.7324075,69.7840405 C24.713084,71.0230105 23.8280199,72.0788454 22.6114596,72.3142198 C22.2328454,72.4038383 21.8455487,72.4516867 21.4565077,72.4569081 C19.7136477,72.4659956 17.9706532,72.452967 16.2277515,72.4414963 C16.0758412,72.4404949 15.8865608,72.5023087 15.7655991,72.2400173 C16.3221896,71.9145884 16.9430105,71.7143571 17.5848547,71.653259 C18.5779629,71.5354138 19.5593573,71.3339853 20.5185949,71.0511169 C21.8299359,70.6946304 22.1493026,70.2727368 22.1160126,68.903574 C22.0453199,65.995877 21.8333484,63.0917873 21.9030072,60.1803672 C21.9167173,59.607384 21.9049823,59.0337935 21.9049823,58.4604811 C21.820604,58.8565085 21.7681175,59.2586644 21.7480275,59.6630823 C21.653021,62.4031698 21.4408456,65.1346612 21.1662396,67.8618036 C21.0049776,69.463371 20.2417634,70.1971665 18.6554131,70.3771554 C17.268745,70.4688632 15.8768964,70.4469009 14.4938121,70.3114887 C14.1286131,70.3543589 13.7590437,70.2843811 13.4347986,70.1109647 C13.5676714,69.906662 13.7646252,69.8959332 13.9340058,69.8419968 C15.0639206,69.4821627 16.1999325,69.1408839 17.3252803,68.7674093 C18.0237773,68.5960631 18.4948272,67.9433174 18.4373307,67.2264132 C18.4419672,66.9855841 18.4441186,66.7434476 18.4254427,66.5036154 C18.2513608,64.2684334 18.1685807,62.0290553 18.0996267,59.7887592 C18.0842613,59.2894686 18.0484351,58.7890559 17.9876877,58.2933724 C17.9156597,57.7056915 17.5809323,57.3952408 17.0678434,57.4879244 C15.4891154,57.7730691 13.9728458,57.4692903 12.4652649,57.0537904 C12.2792949,57.0025339 12.047317,57.0288924 11.9098679,56.7809046 C12.1890286,56.640468 12.4883959,56.5444577 12.797164,56.4963395 C13.5964964,56.3351407 14.3836175,56.1184091 15.1528023,55.8477211 C16.1269756,55.4990657 16.913143,54.7623538 17.3242696,53.8128544 C17.6022555,53.1781872 17.4974521,52.8217842 16.9723593,52.5687519 C12.5429077,50.4343905 9.12303525,47.1649632 6.37852453,43.140431 C4.79231157,40.8036781 3.60577441,38.2193873 2.86747532,35.4933278 C2.65584232,34.7252176 2.37953943,34.555633 1.67116119,34.6804614 C0.71300083,34.8493088 0.418379132,34.6990074 0,33.8278927 L0,22.9228515 C0.448228913,21.9746874 0.640407164,21.8562156 1.66687706,21.8954033 C2.40068186,21.923417 2.43869652,21.8790318 2.63398122,21.135546 C3.87115682,16.4254147 6.01334922,12.1972242 9.41794441,8.67578 C13.5148756,4.43821921 18.5883693,1.97130959 24.2650623,0.63322059 C25.6954384,0.335975413 27.1423083,0.12452455 28.5979264,0 L31.2685499,0 Z M56.1879289,27.9625405 C56.2001499,26.9832347 56.1501155,26.004142 56.0381282,25.0311835 C55.955988,24.3516351 55.8605874,23.6715163 55.7253593,23.0008606 C53.8579119,13.7396159 48.4025746,7.31297846 39.9422527,3.41403974 C35.0891828,1.17751776 29.9111174,0.802197799 24.6999752,1.81695126 C14.5475537,3.79390811 7.83577155,9.8875105 4.26565798,19.4801257 C2.90184105,23.1445967 2.71941336,26.9963544 3.10874482,30.8835953 C3.3820294,33.8047026 4.16937885,36.6545323 5.43447304,39.301623 C7.28499937,43.016574 9.92885756,46.2797604 13.1792023,48.860568 C14.247363,49.7536016 15.4235262,50.5088477 16.6800419,51.1085514 C17.4141388,51.4531916 17.4504055,51.4336581 17.4474104,50.6505441 C17.466304,50.1501566 17.4558229,49.6490916 17.4160213,49.1499319 C17.0259758,45.9638735 16.9718817,42.7596446 16.8896071,39.557771 C16.9118852,39.1133978 16.6917008,38.6918236 16.3142732,38.456213 C15.0956376,37.6613711 14.1036583,36.5644316 13.4349748,35.2722596 C11.6763195,31.7563044 12.7576241,27.4826697 15.9768056,25.2261947 C16.4075115,25.0057885 16.6542784,24.5394446 16.5942389,24.0593594 C16.5689296,23.5965113 16.6023858,23.1323215 16.6938077,22.6778867 C17.1593335,19.0950973 19.1114302,15.8737308 22.0719334,13.8028578 C24.1378334,12.258045 26.6375342,11.4026158 29.2167553,11.3578093 C30.7200801,11.392491 32.2099496,11.6499359 33.6377406,12.121742 C38.662426,13.582842 42.5314732,18.5919765 42.5269201,23.6758746 C42.4801846,24.3696927 42.7965819,25.0381188 43.3628114,25.4417919 C44.84796,26.5260825 45.8942103,28.1077787 46.310985,29.8987704 C46.9983552,33.2631115 46.0526346,36.0912786 43.2519063,38.1294836 C42.5173176,38.5976871 42.1131295,39.4430632 42.2099505,40.3087772 C42.216692,40.4567094 42.2114296,40.6055132 42.2051146,40.7536586 C42.14127,42.2524193 42.076628,43.751146 42.0111884,45.2498387 C41.9318626,47.0802914 41.5825673,48.8922724 41.646296,50.7331665 C41.6703177,51.4272504 41.6647585,51.4382482 42.272993,51.1320631 C45.1489577,49.685906 47.6951512,47.6611975 49.7519396,45.1848767 C53.8772971,40.2539924 56.2345674,34.6478669 56.1879289,27.9625405 Z M20.4425517,37.8210497 C22.6166781,37.851142 24.6396049,36.7117715 25.7408112,34.836918 C26.8420175,32.9620644 26.8519718,30.6403627 25.7668826,28.7561354 C24.6817933,26.8719081 22.6687108,25.7152333 20.4944063,25.7266816 C18.8987185,25.6773294 17.3504379,26.2729301 16.1992154,27.3789781 C15.047993,28.4850261 14.390923,30.0082372 14.3763342,31.6046219 C14.3622421,35.1896371 16.9158033,37.8064772 20.4425517,37.8210497 Z M38.5471533,37.8205861 C40.1542324,37.8645442 41.7093952,37.2494409 42.8516058,36.1180742 C43.9938164,34.9867076 44.6237264,33.437483 44.5951001,31.8300577 C44.623958,30.2227218 44.0042197,28.6715042 42.8757677,27.5265336 C41.7473157,26.381563 40.2052675,25.7393491 38.5976819,25.7448124 C35.2781786,25.7452336 32.5738065,28.4104449 32.525004,31.7295894 C32.4831737,33.3454956 33.1019236,34.9086179 34.2384102,36.0580964 C35.3748969,37.2075748 36.9308853,37.8440516 38.5471626,37.8205907 L38.5471533,37.8205861 Z M33.94942,43.8724971 C33.3142869,44.3061204 32.6571681,44.7066299 31.9806929,45.072423 C30.4255401,45.9046473 28.545103,45.8468234 27.0440223,44.9206194 C26.5506988,44.62852 26.0829873,44.2934634 25.595209,43.9915392 C25.4488858,43.9009652 25.3084323,43.6683752 25.1247806,43.7969824 C24.9880687,43.8927308 25.0966602,44.1073497 25.1224623,44.2692516 C25.2393785,44.8306199 25.3254189,45.3979779 25.380196,45.9687696 C25.4420528,47.6296237 26.3079565,49.1565822 27.7015196,50.0622558 C28.4020569,50.6028174 29.3018711,50.8145985 30.1699685,50.6432323 C32.0050565,50.204815 33.3931481,48.7007216 33.6831876,46.8364162 C33.8193059,46.0042713 33.6975607,45.1378904 34.024828,44.3287657 C34.0936827,44.1753439 34.0639773,43.9956062 33.94942,43.8724971 L33.94942,43.8724971 Z" id="Shape"></path>
                        <path d="M6.5112304,28.4974349 C6.47206126,25.0540183 6.95744244,22.0744046 8.19864716,19.2435901 C10.1255569,14.8432599 13.3815902,11.156503 17.5100077,8.70047864 C17.9797263,8.43425874 18.5700732,8.51966865 18.9450784,8.90810106 C19.1345072,9.09747887 19.0577129,9.27710612 18.9784334,9.46697076 C18.6673439,10.1482365 18.1397342,10.7075303 17.477747,11.0577768 C14.1053523,13.0562794 11.7620239,15.9677041 10.1137577,19.4605041 C8.71533401,22.3652463 8.05120104,25.5688145 8.17963751,28.7900907 C8.2959906,32.8218212 9.61631051,36.726467 11.9706524,40.0014423 C12.2462242,40.3288578 12.4325981,40.7218736 12.5117319,41.142443 C12.5433899,41.3936531 12.694461,41.6688711 12.4155663,41.8551749 C12.1549546,42.0447464 11.8175899,42.0935211 11.5139573,41.9855254 C11.2174625,41.8708194 10.9627848,41.6687901 10.7836252,41.4061717 C8.50974212,38.4282011 7.07391691,34.8961449 6.62504718,31.1762835 C6.51036338,30.1588502 6.6097931,29.1377308 6.5112304,28.4974349 Z" id="Path"></path>
                        <path d="M19.8881701,7.3132242 C19.881431,6.99635833 20.0034393,6.69029695 20.2263196,6.46496659 C20.4491999,6.23963623 20.7539091,6.1142892 21.0708298,6.11756381 C21.8152968,6.21317672 22.3720893,6.84814353 22.3696337,7.59872127 C22.3807613,8.02744443 21.405636,8.81679912 20.8826111,8.80243061 C20.2941559,8.7862585 19.8882211,8.17835784 19.8881701,7.3132242 Z" id="Path"></path>
                        <path d="M18.4345025,30.6891312 C18.3982657,29.6379517 19.2186917,28.7552898 20.2697123,28.7147059 C20.8141139,28.6884374 21.3458546,28.8843115 21.7431261,29.2574582 C22.1403976,29.630605 22.3691569,30.1490488 22.3770011,30.6940273 C22.3868728,31.2214844 22.1776828,31.7294406 21.7992294,32.0969748 C21.4207761,32.4645091 20.906915,32.6587428 20.3799728,32.6334378 C19.8533738,32.6718309 19.3360974,32.4793911 18.9626356,32.1061527 C18.5891738,31.7329143 18.3964245,31.2157531 18.4345025,30.6891312 Z" id="Path"></path>
                        <path d="M38.7383254,32.6336928 C38.201478,32.663619 37.6782478,32.4580756 37.3053104,32.0707536 C36.9323729,31.6834315 36.7467691,31.1528006 36.7969816,30.6174695 C36.8266856,29.5928297 37.6341979,28.7606275 38.6574788,28.700087 C39.7903847,28.6773779 40.7273676,29.5770284 40.7507408,30.7099213 C40.7534731,31.2365598 40.5393547,31.7411186 40.1586724,32.1050372 C39.7779901,32.4689558 39.2643063,32.6601498 38.7383254,32.6336928 Z" id="Path"></path>
                    </g>
                </g>
            </g>
        </g>
    </g>
</svg>