<?xml version="1.0" encoding="UTF-8"?>
<svg width="72px" height="76px" viewBox="0 0 72 76" version="1.1" xmlns="http://www.w3.org/2000/svg" xmlns:xlink="http://www.w3.org/1999/xlink">
    <title>logo-lightbg-vertical-monochrome</title>
    <g id="RT-tk-–-UI-Design-Desktop-RZ" stroke="none" stroke-width="1" fill="none" fill-rule="evenodd">
        <g id="RT_Website-UI-1600px" transform="translate(-1187.000000, -2449.000000)" fill="#FFFFFF" fill-rule="nonzero">
            <g id="logo-lightbg-vertical-monochrome" transform="translate(1187.446727, 2449.286135)">
                <path d="M39.1959167,14.9423104 L31.1743248,14.9423104 L27.1635496,22.0006308 L31.1743248,29.0589512 L39.1959167,29.0589512 L43.2066919,22.0006308 L39.1959167,14.9423104 Z M38.1679055,16.7079508 L41.1754504,22.0003121 L38.1679055,27.2926734 L32.2018898,27.2926734 L29.1943449,22.0003121 L32.2018898,16.7079508 L38.1679055,16.7079508 Z" id="Path"></path>
                <path d="M39.1959167,29.8840536 L31.1743248,29.8840536 L27.1635483,36.9423762 L31.1743274,44.0006307 L39.1959141,44.0006307 L43.2066932,36.9423762 L39.1959167,29.8840536 Z M38.1679055,31.649694 L41.1754504,36.9420553 L38.1679055,42.2344166 L32.2018898,42.2344166 L29.1943449,36.9420553 L32.2018898,31.649694 L38.1679055,31.649694 Z" id="Path"></path>
                <path d="M39.1959164,-4.31140173e-13 L31.174325,-4.31140173e-13 L27.1635494,7.05831382 L31.1743248,14.1166345 L39.1959167,14.1166345 L43.206692,7.05831382 L39.1959164,-4.31140173e-13 Z M38.1679055,1.76564046 L41.1754504,7.05800176 L38.1679055,12.3503631 L32.2018898,12.3503631 L29.1943449,7.05800176 L32.2018898,1.76564046 L38.1679055,1.76564046 Z" id="Path"></path>
                <path d="M52.1590153,22.4124809 L44.1374871,22.4124809 L40.1267118,29.4708013 L44.1374871,36.5291218 L52.1590153,36.5291218 L56.1697905,29.4708013 L52.1590153,22.4124809 Z M51.1310678,24.1781214 L54.1386127,29.4704827 L51.1310678,34.762844 L45.1650521,34.762844 L42.1575072,29.4704827 L45.1650521,24.1781214 L51.1310678,24.1781214 Z" id="Path"></path>
                <path d="M52.1590153,7.47054655 L44.1374871,7.47054655 L40.1267118,14.528867 L44.1374871,21.5871874 L52.1590153,21.5871874 L56.1697905,14.528867 L52.1590153,7.47054655 Z M51.1310678,9.236187 L54.1386127,14.5285483 L51.1310678,19.8209096 L45.1650521,19.8209096 L42.1575072,14.5285483 L45.1650521,9.236187 L51.1310678,9.236187 Z" id="Path"></path>
                <path d="M26.217841,22.412226 L18.196249,22.412226 L14.1854738,29.4705464 L18.196249,36.5288668 L26.217841,36.5288668 L30.2286162,29.4705464 L26.217841,22.412226 Z M25.1898298,24.1778664 L28.1973747,29.4702277 L25.1898298,34.762589 L19.2238141,34.762589 L16.2162692,29.4702277 L19.2238141,24.1778664 L25.1898298,24.1778664 Z" id="Path"></path>
                <path d="M26.217841,7.47054655 L18.196249,7.47054655 L14.1854738,14.528867 L18.196249,21.5871874 L26.217841,21.5871874 L30.2286162,14.528867 L26.217841,7.47054655 Z M25.1898298,9.236187 L28.1973747,14.5285483 L25.1898298,19.8209096 L19.2238141,19.8209096 L16.2162692,14.5285483 L19.2238141,9.236187 L25.1898298,9.236187 Z" id="Path"></path>
                <path d="M6.8726767,60.0580239 C7.52663767,60.0625489 8.178368,60.1373073 8.81690567,60.2810882 C9.42211115,60.411549 9.93369333,60.64685 10.4308719,60.8955349 L10.4308719,62.8193057 C9.87773604,62.6158073 9.31459413,62.4416259 8.7436131,62.2975263 C8.1756275,62.1670655 7.6628344,62.0743982 7.09363788,62.0743982 C6.52437763,62.0743982 5.97679287,62.1670655 5.40637268,62.3353198 C4.83595887,62.503574 4.36160932,62.8193057 3.88485705,63.2654344 C3.4453374,63.7115632 3.0958784,64.271136 2.80405923,64.9785687 C2.54706997,65.6853641 2.4197767,66.561051 2.4197767,67.6215628 C2.4197767,68.3532139 2.51104826,69.0842276 2.73200944,69.7425862 C2.92955524,70.3550572 3.24055157,70.9235526 3.64828773,71.4181182 C4.05178567,71.9018492 4.56455965,72.2555655 5.11576443,72.5149575 C5.72100815,72.7756241 6.41749794,72.9050015 7.20529753,72.9050015 C7.77334686,72.9050015 8.32214892,72.8686739 8.94660166,72.7380219 C9.51872988,72.5984473 10.0821267,72.4244571 10.6337968,72.2160513 L10.6337968,74.1522499 C10.4693027,74.2446623 10.2495525,74.3753143 9.99251859,74.4690013 C9.73554844,74.5633257 9.42453299,74.6359809 9.07629766,74.7303053 C8.76407128,74.8227177 8.43501948,74.8603199 8.03152792,74.8972849 L6.95068549,74.9896973 C6.03326002,75.0024438 5.1207547,74.8513974 4.25472962,74.5435685 C3.44365486,74.240201 2.69220839,73.7927976 2.03549416,73.2223902 C1.39034104,72.5742289 0.889867469,71.7935036 0.568017462,70.9324752 C0.207752586,70.0026155 0,68.9573996 0,67.6750982 C0,66.7446011 0.0912696513,65.9071538 0.312232109,65.1633935 C0.476753547,64.4323797 0.75175239,63.7498028 1.10121139,63.1889552 C1.45066402,62.6279165 1.82174114,62.1280611 2.27447257,61.7257805 C2.70842198,61.3428108 3.18863494,61.0175193 3.70352484,60.7577449 C4.21629882,60.4968871 4.74829458,60.3115524 5.2622731,60.1811554 L6.87624573,60.0324033 L6.8726767,60.0580239 Z M14.152414,57.1540445 L14.152414,54.5475693 L16.4341075,54.5475693 L16.4341075,57.1540445 L14.152414,57.1540445 Z M14.188423,74.6340689 L14.188423,60.4493425 L16.4701164,60.4493425 L16.4701164,74.6449035 L14.188423,74.6340689 Z M21.1751811,74.6461781 L21.1751811,53.0211718 L23.4568746,53.0211718 L23.4568746,74.6449035 L21.1751811,74.6461781 Z M28.112674,57.1540445 L28.112674,54.5475693 L30.3943675,54.5475693 L30.3943675,57.1540445 L28.112674,57.1540445 Z M28.1486829,74.6340689 L28.1486829,60.4493425 L30.4303764,60.4493425 L30.4303764,74.6449035 L28.1486829,74.6340689 Z M40.575471,74.9999484 C39.9211277,75.0005318 39.2688237,74.9259646 38.6312421,74.7761928 C38.099839,74.6232344 37.5888942,74.4046313 37.1096882,74.1254822 C36.6701877,73.8087308 36.2846687,73.5110992 35.9929005,73.0649705 C35.6741097,72.6736519 35.4297586,72.2256112 35.2723389,71.7431548 C35.1438538,71.3773293 35.0525886,71.012141 34.9601125,70.5519911 L34.8688473,69.1377631 L34.8688473,60.4639373 L37.1505408,60.4639373 L37.1505408,69.1377631 C37.1505408,69.9388828 37.241806,70.6010653 37.4627672,71.1128387 C37.6825175,71.7272216 38.0679727,72.1733504 38.5795549,72.5270667 C39.091137,72.8807831 39.7900933,73.0490373 40.5778291,73.0490373 C41.4400685,73.0490373 42.1366029,72.8820577 42.6673686,72.4722566 C43.1813726,72.0822126 43.5836533,71.597207 43.78422,70.9280139 C43.948714,70.4436456 44.0411901,69.8305373 44.0411901,69.1231046 L44.0411901,60.4432241 L46.3228852,60.4432241 L46.3228852,69.1549709 C46.3231386,69.5972757 46.2926743,70.0389431 46.2316184,70.4767866 C46.1958644,70.8649186 46.1094429,71.2466773 45.9746483,71.6118655 C45.8100905,72.0955965 45.535084,72.5417252 45.2540867,72.9706461 C44.9418603,73.3613274 44.5575523,73.7022972 44.1372353,74.0317952 C43.6977348,74.3485466 43.1837945,74.5531284 42.5785253,74.7385905 C41.9266037,74.9144927 41.2547339,75.0024438 40.580251,74.9999484 L40.575471,74.9999484 Z M61.9932187,74.6340689 L59.7115252,74.6340689 L59.7115252,65.5011767 C59.7133735,64.9658222 59.6393799,64.433017 59.491775,63.9186944 C59.3632899,63.4725656 59.1795486,63.118212 58.9237256,62.8581827 C58.6652259,62.589167 58.3527446,62.379614 58.0075047,62.2438634 C57.6472239,62.1134663 57.2869431,62.0768838 56.8341862,62.0768838 C56.0092304,62.0768838 55.2754762,62.2999482 54.6149507,62.728168 C53.9737363,63.1742967 53.3492198,63.7886797 52.8377014,64.5713169 L52.8377014,74.6608367 L50.5644206,74.6608367 L50.5644206,60.4493425 L52.3417337,60.4493425 L52.7812342,62.4242906 L52.8172432,62.4242906 L53.6422626,61.4941122 C53.954489,61.2332544 54.2835408,60.9723328 54.6329871,60.7626523 C55.0073528,60.5344893 55.4163891,60.3709513 55.8434618,60.2786664 C56.283026,60.1482056 56.7597464,60.111623 57.2845213,60.111623 C58.329291,60.111623 59.1915303,60.3725446 59.8880647,60.8430829 C60.5845991,61.3649261 61.0985394,62.0341829 61.502031,62.9098061 L61.5381037,62.9098061 C62.1433092,62.0341829 62.8770635,61.3271326 63.6636521,60.8430829 C64.4503045,60.359097 65.40502,60.111623 66.433028,60.111623 C66.9097484,60.111623 67.4234338,60.2042903 67.9919293,60.3347511 C68.5597874,60.4652119 69.0365078,60.7248588 69.5132282,61.066211 C69.9899486,61.4075632 70.337929,61.9415156 70.6298247,62.6108361 C70.9421148,63.2616105 71.1065451,64.1003325 71.1065451,65.1614815 L71.1065451,74.6742205 L68.9064931,74.6742205 L68.9064931,65.5343177 C68.9084051,64.9989632 68.8344752,64.466158 68.6866154,63.9518353 C68.5585127,63.5057066 68.3749626,63.1507156 68.1187573,62.8913236 C67.8606399,62.6221168 67.5477125,62.4125638 67.2029187,62.2768132 C66.8421918,62.1463524 66.4821022,62.1097699 66.0296002,62.1097699 C65.2042621,62.1097699 64.470699,62.3328979 63.8104285,62.7606717 C63.1688954,63.2068004 62.5443789,63.8211834 61.9944296,64.6038206 L61.9932187,74.6340689 Z" id="Shape"></path>
            </g>
        </g>
    </g>
</svg>