<?xml version="1.0" encoding="UTF-8"?>
<svg width="110px" height="42px" viewBox="0 0 110 42" version="1.1" xmlns="http://www.w3.org/2000/svg" xmlns:xlink="http://www.w3.org/1999/xlink">
    <title>Go-Logo_White</title>
    <g id="RT-rokt-–-UI-Design-Desktop-RZ" stroke="none" stroke-width="1" fill="none" fill-rule="evenodd">
        <g id="RT_Website-UI-1600px" transform="translate(-819.000000, -2464.000000)" fill="#FFFFFF" fill-rule="nonzero">
            <g id="Group-" transform="translate(175.000000, 2339.392777)">
                <g id="Group-3" transform="translate(0.000000, 103.000000)">
                    <g id="Go-Logo_White" transform="translate(644.000000, 22.000000)">
                        <path d="M8.30137119,12.4436626 C8.08714226,12.4436626 8.03358503,12.3365482 8.14069949,12.1758765 L9.2654014,10.7298312 C9.37251587,10.5691595 9.64030203,10.462045 9.85453097,10.462045 L28.9744633,10.462045 C29.1886923,10.462045 29.2422495,10.6227167 29.135135,10.7833884 L28.2246621,12.1758765 C28.1175476,12.3365482 27.8497614,12.4972199 27.6890897,12.4972199 L8.30137119,12.4436626 Z" id="Path"></path>
                        <path d="M0.214228934,17.3709281 C0,17.3709281 -0.0535572335,17.2638136 0.0535572335,17.1031419 L1.17825914,15.6570966 C1.2853736,15.4964249 1.55315977,15.3893105 1.76738871,15.3893105 L26.1894872,15.3893105 C26.4037161,15.3893105 26.5108306,15.5499822 26.4572734,15.7106539 L26.0288155,16.9960275 C25.9752583,17.2102564 25.7610293,17.3173709 25.5468004,17.3173709 L0.214228934,17.3709281 Z" id="Path"></path>
                        <path d="M13.1750794,22.2981936 C12.9608505,22.2981936 12.9072933,22.1375219 13.0144077,21.9768502 L13.764209,20.6379194 C13.8713235,20.4772477 14.0855524,20.316576 14.2997813,20.316576 L25.0112281,20.316576 C25.225457,20.316576 25.3325715,20.4772477 25.3325715,20.6914766 L25.225457,21.9768502 C25.225457,22.1910791 25.0112281,22.3517508 24.8505564,22.3517508 L13.1750794,22.2981936 Z" id="Path"></path>
                        <g id="Group" transform="translate(29.196687, 0.000000)">
                            <path d="M39.570801,11.4796324 C36.1966952,12.3365482 33.8937342,12.979235 30.5731857,13.8361507 C29.7698272,14.0503796 29.71627,14.1039369 29.020026,13.3005784 C28.2166675,12.3901054 27.6275379,11.8009758 26.502836,11.2654035 C23.1287303,9.60512925 19.861739,10.0871444 16.8089767,12.068762 C13.1670848,14.4252803 11.2925817,17.9065004 11.3461389,22.2446364 C11.3996961,26.529215 14.345344,30.0639925 18.5763654,30.653122 C22.2182573,31.1351371 25.2710196,29.8497635 27.6810951,27.1183446 C28.1631102,26.529215 28.5915681,25.8865282 29.1271404,25.136727 C27.19908,25.136727 24.7890045,25.136727 18.7905944,25.136727 C17.6658925,25.136727 17.3981063,24.4404829 17.7730069,23.53001 C18.469251,21.8697357 19.7546246,19.0847596 20.5044258,17.6922715 C20.6650975,17.3709281 21.0399982,16.8353558 21.8433567,16.8353558 C24.5747756,16.8353558 34.6435355,16.8353558 41.3381897,16.8353558 C41.2310752,18.2814011 41.2310752,19.7274464 41.0168463,21.1734917 C40.4277167,25.0296125 38.9816714,28.5643899 36.6251531,31.6707095 C32.7690323,36.7586466 27.7346524,39.9185234 21.3613416,40.7754392 C16.1127327,41.4716832 11.2390244,40.4540958 6.95444575,37.2406617 C2.99121047,34.2414567 0.741806662,30.2782214 0.152677093,25.3509559 C-0.543566942,19.5132174 1.17026453,14.2646086 4.70504194,9.65868648 C8.50760552,4.67786377 13.5419855,1.51798699 19.7010673,0.393285084 C24.7354473,-0.517187885 29.5555983,0.0719416833 33.8937342,3.01758953 C36.7322676,4.8920927 38.7674425,7.46283991 40.1063733,10.5691595 C40.4277167,11.0511746 40.2134878,11.3189607 39.570801,11.4796324 Z" id="Path"></path>
                            <path d="M57.2982453,41.0967826 C52.424537,40.9896681 47.9792866,39.59718 44.2302803,36.383746 C41.0704035,33.6523271 39.0887859,30.1711069 38.4460991,26.0471999 C37.4820689,19.9952326 39.1423431,14.6395092 42.784235,9.87291542 C46.693913,4.731421 51.4069496,2.05355932 57.7802604,0.92885742 C63.2430982,-0.0351727837 68.3845926,0.500399551 73.0440719,3.66027633 C77.2750934,6.55236694 79.8993978,10.462045 80.5956418,15.6035394 C81.5061148,22.8337659 79.4173827,28.7250616 74.43656,33.7594416 C70.9017826,37.3477762 66.5636467,39.59718 61.5828239,40.6147675 C60.1367786,40.8825536 58.6907333,40.9361109 57.2982453,41.0967826 Z M70.0448668,19.4596602 C69.9913096,18.7634162 69.9913096,18.2278438 69.8841951,17.6922715 C68.9201649,12.3901054 64.0464567,9.39090032 58.9585195,10.5691595 C53.9776968,11.6938614 50.7642628,14.8537381 49.5860036,19.8881181 C48.6219734,24.0655823 50.6571483,28.2966037 54.5132691,30.0104352 C57.458917,31.2958088 60.4045648,31.1351371 63.2430982,29.6890918 C67.4741196,27.4932452 69.7770807,24.0655823 70.0448668,19.4596602 Z" id="Shape"></path>
                        </g>
                    </g>
                </g>
            </g>
        </g>
    </g>
</svg>