<?xml version="1.0" encoding="UTF-8"?>
<svg width="75px" height="88px" viewBox="0 0 75 88" version="1.1" xmlns="http://www.w3.org/2000/svg" xmlns:xlink="http://www.w3.org/1999/xlink">
    <title>helm-horizontal-white</title>
    <g id="RT-rokt-–-UI-Design-Desktop-RZ" stroke="none" stroke-width="1" fill="none" fill-rule="evenodd">
        <g id="RT_Website-UI-1600px" transform="translate(-507.000000, -2442.000000)" fill="#FFFFFF" fill-rule="nonzero">
            <g id="Group-" transform="translate(175.000000, 2339.392777)">
                <g id="Group-3" transform="translate(0.000000, 103.000000)">
                    <g id="helm-horizontal-white" transform="translate(332.000000, 0.000000)">
                        <path d="M17.6802984,20.6651845 C17.5794999,20.569581 17.4697811,20.4666961 17.3613381,20.3625053 C15.1379963,18.2265023 13.4173465,15.756724 12.3779801,12.8375096 C12.0870865,12.0204831 11.8674815,11.187172 11.9064352,10.3072011 C11.9101358,10.2236899 11.9098873,10.1399408 11.9156445,10.05659 C11.9940629,8.92067898 12.7543021,8.34667734 13.8643667,8.61568422 C14.2145055,8.70636692 14.5533124,8.8362109 14.8743765,9.00275927 C16.088579,9.61167032 17.0782335,10.511845 17.9882942,11.499057 C19.6047105,13.2192439 20.9010096,15.214218 21.8161701,17.3900686 C21.8361458,17.4419069 21.85906,17.4925645 21.8848012,17.541795 C21.8973411,17.5644482 21.9239787,17.5792984 21.9833564,17.6332238 C26.3156653,15.0340981 31.2163109,13.5303538 36.2608137,13.2522408 C36.2297089,13.0978534 36.2111282,12.979854 36.181916,12.8645542 C35.6672007,10.7344834 35.5092249,8.53380948 35.7144154,6.35206005 C35.8047098,5.04463435 36.068076,3.75496832 36.4976197,2.51682161 C36.7054119,1.86468804 37.0326677,1.25688372 37.4626966,0.724407525 C37.6251628,0.534214744 37.8126914,0.366952726 38.0201476,0.2272013 C38.4433947,-0.0720797641 39.0082741,-0.0760178965 39.4356528,0.217332916 C39.8765408,0.515966556 40.2314006,0.925004472 40.4648196,1.40362729 C40.8996008,2.2153622 41.2120748,3.08687639 41.3921217,3.98994412 C41.8026213,5.89957514 41.9286669,7.85938643 41.7661741,9.80586956 C41.6857174,10.9938899 41.4795305,12.1700321 41.1510706,13.3145755 C42.4060665,13.5457653 43.6550939,13.7249399 44.8776722,14.0154299 C46.0975546,14.299099 47.3002128,14.652312 48.4797542,15.0733384 C49.6689348,15.5097958 50.8321493,16.0139849 51.963687,16.5834303 C53.0818771,17.1410522 54.1462793,17.8065214 55.2621187,18.4404999 C55.2983692,18.3641962 55.3510029,18.2731216 55.3865309,18.1757946 C56.5488313,14.9606296 58.550747,12.1152856 61.1843496,9.93529342 C61.7991339,9.40751014 62.5051477,8.99645509 63.2676361,8.72236322 C63.4776001,8.64915669 63.6949643,8.59921503 63.9158251,8.5734352 C65.0196744,8.44703353 65.4830497,9.14164269 65.5646436,9.97119144 C65.6257999,10.582728 65.5796523,11.2002472 65.4282819,11.7959016 C65.0250874,13.3345383 64.3873267,14.8018994 63.5374272,16.1463842 C62.3408573,18.079844 60.9205166,19.8214658 59.1154974,21.2269141 C59.0622187,21.2683966 59.015432,21.3182214 58.9251997,21.4014242 C60.6907274,23.0298357 62.2631354,24.8558772 63.6114365,26.8435634 C63.5137459,26.8687916 63.4142289,26.8863275 63.313799,26.8960103 C61.4466548,26.8986537 59.5794789,26.8927873 57.7123946,26.9041289 C57.4894508,26.8987828 57.2821571,26.7883554 57.15334,26.6063151 C53.0795781,22.1555747 47.5875919,19.2563913 41.6145534,18.4034917 C39.8481946,18.1464985 38.059573,18.0774317 36.2786561,18.1974487 C30.9683797,18.5216947 25.8881828,20.479644 21.7338413,23.8031388 C20.6611089,24.6492946 19.6604853,25.5830592 18.7422828,26.5948096 C18.5770332,26.7998094 18.3246099,26.9146382 18.0614947,26.9045042 C16.2780379,26.8921194 14.4944472,26.8983365 12.7109041,26.8983453 L12.3316551,26.8983453 C12.4405597,26.4740047 13.5370536,24.970863 14.778225,23.6289477 C15.7038213,22.6282212 16.6843493,21.6783011 17.6802984,20.6651845 Z" id="Path"></path>
                        <path d="M63.1453492,60.6281809 C61.9049269,62.364348 60.4892741,63.9683702 58.9207237,65.4149431 C59.0457367,65.5190334 59.1473335,65.603572 59.2488686,65.6881863 C61.9713913,67.9153431 64.0255505,70.8514893 65.1845751,74.172486 C65.4929437,74.9823616 65.6252264,75.8486428 65.5726141,76.7136408 C65.5564144,76.9352198 65.5121303,77.153843 65.4408253,77.3642599 C65.2554277,77.9811816 64.6375584,78.3616222 64.0032255,78.2494329 C63.5896949,78.1957536 63.1873854,78.0764014 62.8114841,77.8958821 C62.2373513,77.6126333 61.6949749,77.2691198 61.1935078,76.8711385 C58.5521984,74.7009473 56.5467695,71.8570085 55.3894879,68.6403418 C55.3564535,68.5498804 55.3203775,68.4605257 55.2621804,68.3095905 C53.8556234,69.2396312 52.3824009,70.0646882 50.8544964,70.7780507 C49.3340223,71.4711239 47.7616189,72.0440908 46.1517001,72.4916992 C44.5158887,72.9356232 42.8483523,73.2530557 41.1638484,73.4411876 C41.1934659,73.5892398 41.2104518,73.7072463 41.2409363,73.8216614 C41.7752302,75.917691 41.9522179,78.0888173 41.7644541,80.2437083 C41.6940809,81.5943477 41.4316437,82.928073 40.9850526,84.204684 C40.7724701,84.7330154 40.5273616,85.2476699 40.2511356,85.7456905 C40.1392154,85.9388122 40.0004593,86.1150767 39.839016,86.2692136 C39.1376399,86.9933063 38.3002088,86.999474 37.6165906,86.2562331 C37.3464511,85.9564489 37.1151331,85.6238436 36.9280945,85.2662649 C36.3858884,84.2484662 36.1068334,83.1417427 35.9075978,82.0131854 C35.6512057,80.4727292 35.5708652,78.9081082 35.6681256,77.3494926 C35.7211109,76.2080929 35.8914547,75.0751796 36.1764637,73.9686668 C36.2011505,73.8747956 36.223691,73.7801807 36.2419017,73.6848908 C36.2465345,73.6606534 36.2307257,73.6325003 36.211826,73.5547956 C31.1681275,73.2697517 26.2702449,71.7578438 21.9434546,69.1503487 C21.8712181,69.3105708 21.8091636,69.4454716 21.7493153,69.5813487 C20.5367445,72.4106831 18.6705501,74.9121632 16.3038843,76.8805011 C15.6773596,77.4159141 14.9577538,77.8316008 14.1809375,78.10684 C13.8168906,78.2528771 13.4195937,78.2955773 13.0328285,78.2302353 C12.5983661,78.1524127 12.2367704,77.8519892 12.0806544,77.4391433 C11.8311006,76.8357621 11.875311,76.2082386 11.9600522,75.5858413 C12.0990629,74.718454 12.3543981,73.8737716 12.7191566,73.0746247 C13.7999413,70.557462 15.3906675,68.2916025 17.3909838,66.4199887 C17.4718693,66.3434012 17.554836,66.2689672 17.6343223,66.1909823 C17.6595784,66.1547328 17.6811459,66.1160483 17.6987029,66.0755063 C15.8139584,64.4409291 14.1298975,62.5884136 12.6818629,60.5568378 C12.8553667,60.5427084 12.9714418,60.525118 13.0875328,60.5250122 C14.9403854,60.5232923 16.7932874,60.5298336 18.6460485,60.5173325 C18.8956406,60.5097157 19.1353755,60.6149814 19.2986729,60.8038945 C21.3129564,62.8761793 23.6599206,64.5966658 26.2422728,65.894032 C28.9742367,67.2998799 31.9448473,68.1828444 35.0011602,68.4974652 C43.3047574,69.3046368 50.4475712,66.7873458 56.4296015,60.9455922 C56.700515,60.6528166 57.0872333,60.4951333 57.4856262,60.5150011 C59.2128384,60.5363609 60.940463,60.5237875 62.6679379,60.5237875 L63.1143995,60.5237875 L63.1453492,60.6281809 Z" id="Path"></path>
                        <path d="M55.427994,34.1684635 C55.9191417,34.1684635 56.3919889,34.2018028 56.8580057,34.1596349 C57.3858057,34.1118789 57.7636062,34.3006294 58.1485684,34.6553591 C60.3712018,36.703426 62.6170646,38.7262951 64.8553041,40.7574201 C64.9678301,40.8595367 65.0826981,40.9590735 65.2271484,41.0869713 C65.3618606,40.9711623 65.4881654,40.8678967 65.6086372,40.7582307 C67.9157986,38.65798 70.2212571,36.5558649 72.5250127,34.4518853 C72.7183764,34.2526423 72.9885315,34.1468728 73.2657724,34.1618676 C73.8330071,34.1848433 74.4018226,34.1684688 75,34.1684688 L75,52.7366557 C74.6963551,52.8254148 70.6163931,52.8430334 70.1294041,52.7474229 L70.1294041,43.3439096 L70.0348509,43.2991019 C68.4469591,44.7472591 66.8590637,46.1954093 65.2349638,47.6765763 C63.6091756,46.2119688 62.0027259,44.7647914 60.3962833,43.3176104 L60.3038571,43.3514307 C60.299804,44.1362475 60.3024931,44.9212581 60.3020138,45.7061559 C60.3015345,46.4861601 60.3015004,47.2661631 60.3019116,48.0461649 L60.3019116,52.7815992 L55.4685178,52.7815992 C55.3779207,52.4691644 55.3358532,35.21905 55.427994,34.1684635 Z" id="Path"></path>
                        <path d="M10.8261731,34.1897193 L15.6305344,34.1897193 C15.7275512,34.4985487 15.746525,52.3354566 15.6472208,52.7854567 L10.8385649,52.7854567 C10.8120947,51.6041687 10.8302191,50.4269233 10.8268956,49.2502295 C10.8235985,48.0831855 10.8261731,46.9161256 10.8261731,45.7188315 L4.87208847,45.7188315 L4.87208847,52.7219659 C4.50916805,52.8303737 0.407747556,52.840769 0,52.7436411 L0,34.1918463 L4.85281516,34.1918463 L4.85281516,40.7452926 C5.19960605,40.8454637 10.3021354,40.8639581 10.8217781,40.7680991 C10.8232196,40.2434658 10.8253025,39.7061094 10.8260074,39.1687511 C10.8267475,38.6115046 10.8268028,38.0542581 10.8261731,37.4970115 C10.8261731,36.953663 10.8261731,36.4103144 10.8261731,35.8669659 C10.8261748,35.3244955 10.8261731,34.7820286 10.8261731,34.1897193 Z" id="Path"></path>
                        <path d="M21.3891052,52.7785858 L21.3891052,34.244755 C21.6740548,34.1515111 32.2346361,34.1150809 32.9249279,34.2087054 L32.9249279,38.1585828 C32.7700841,38.1696847 32.6102498,38.1909035 32.4504013,38.1911026 C30.5696987,38.1934452 28.6889931,38.1939627 26.8082846,38.1926551 L26.2853183,38.1926551 L26.2853183,41.2648119 L32.1616806,41.2648119 L32.1616806,45.3516748 L26.3378675,45.3516748 C26.2403485,45.7014896 26.2135769,48.1389313 26.2927161,48.8136856 C26.4416018,48.8236932 26.6011031,48.8435586 26.7606361,48.8437472 C28.6413411,48.8459358 30.5220479,48.8464187 32.4027564,48.8451957 L32.9260363,48.8451957 L32.9260363,52.7785858 L21.3891052,52.7785858 Z" id="Path"></path>
                        <path d="M38.4309614,52.785684 C38.3427204,52.2883262 38.3605646,34.5288481 38.4481377,34.1912895 L43.2346708,34.1912895 L43.2346708,47.8950447 C43.4411544,47.905766 43.603188,47.9213387 43.7652321,47.9214867 C45.659962,47.9232113 47.5546977,47.9235978 49.4494393,47.9226462 C49.6125531,47.9226462 49.7756687,47.9226462 49.9617723,47.9226462 L49.9617723,52.785684 L38.4309614,52.785684 Z" id="Path"></path>
                    </g>
                </g>
            </g>
        </g>
    </g>
</svg>