<?xml version="1.0" encoding="UTF-8" standalone="no"?>
<!-- Created with Inkscape (http://www.inkscape.org/) -->

<svg
   width="150"
   height="150"
   viewBox="0 0 39.6875 39.687499"
   version="1.1"
   id="svg1"
   xmlns="http://www.w3.org/2000/svg"
   xmlns:svg="http://www.w3.org/2000/svg">
  <defs
     id="defs1" />
  <g
     id="layer1">
    <path
       d="m 2.7749058,24.215357 c 0.058293,0.407924 0.2136809,0.796425 0.4467771,1.146074 L 8.7383765,32.179598 3.2216829,25.342007 C 2.988583,25.011783 2.8331808,24.623281 2.7749058,24.215357 Z"
       id="path37"
       style="fill:none;fill-rule:evenodd;stroke:none;stroke-width:0.971248" />
    <path
       d="m 2.8040451,24.448456 c -0.048565,-0.18678 -0.048565,-0.336203 -0.048565,-0.485623 0,0.149422 0,0.298845 0.048565,0.485623 z"
       id="path38"
       style="fill:none;fill-rule:evenodd;stroke:none;stroke-width:0.971248" />
    <path
       d="m 13.20612,36.51137 c -0.171393,-0.04857 -0.314226,-0.09713 -0.485622,-0.194262 0.171393,0.04856 0.314226,0.145696 0.485622,0.194262 z"
       id="path39"
       style="fill:none;fill-rule:evenodd;stroke:none;stroke-width:0.971248" />
    <path
       d="m 20.237966,3.2752271 c 0.149405,0.048561 0.336214,0.048561 0.485622,0.097124 -0.149404,-0.048561 -0.336214,-0.048561 -0.485622,-0.097124 z"
       id="path40"
       style="fill:none;fill-rule:evenodd;stroke:none;stroke-width:0.971248" />
    <path
       d="m 32.805929,9.1804218 c 0.185012,0.138751 0.34686,0.312189 0.485626,0.485624 -0.138759,-0.173437 -0.300607,-0.346874 -0.485626,-0.485624 z"
       id="path41"
       style="fill:none;fill-rule:evenodd;stroke:none;stroke-width:0.971248" />
    <path
       d="m 37.03086,24.409607 c 0,0.09712 -0.04856,0.194251 -0.04856,0.291374 0,-0.09712 0,-0.19425 0.04856,-0.291374 z"
       id="path42"
       style="fill:none;fill-rule:evenodd;stroke:none;stroke-width:0.971248" />
    <path
       d="m 20.471065,3.3140774 c 0.149441,0.048561 0.336215,0.097124 0.485622,0.194251 -0.14944,-0.048561 -0.298844,-0.1456893 -0.485622,-0.194251 z"
       id="path43"
       style="fill:none;fill-rule:evenodd;stroke:none;stroke-width:0.971248" />
    <path
       d="M 32.805929,9.1804218 20.840138,3.450052 c -0.03884,-0.01942 -0.07771,-0.038849 -0.11655,-0.058275 0.03884,0.019418 0.07771,0.038848 0.11655,0.058275 z"
       id="path44"
       style="fill:none;fill-rule:evenodd;stroke:none;stroke-width:0.971248" />
    <path
       d="m 20.237966,3.3043646 c -0.11655,-0.048561 -0.252518,-0.048561 -0.369076,-0.048561 -0.252519,0 -0.485625,0 -0.738148,0.097124 0.2331,-0.097124 0.485622,-0.097124 0.738148,-0.097124 0.11655,0 0.252518,0 0.369076,0.048561 z"
       id="path45"
       style="fill:none;fill-rule:evenodd;stroke:none;stroke-width:0.971248" />
    <path
       d="M 18.878216,3.3335021 6.9124269,9.1027218 c -0.1359688,0.05828 -0.2913564,0.155399 -0.4079246,0.252526 0.1359688,-0.09712 0.2719375,-0.174825 0.4079246,-0.252526 z"
       id="path46"
       style="fill:none;fill-rule:evenodd;stroke:none;stroke-width:0.971248" />
    <path
       d="m 19.907739,36.472522 h -6.604491 c -0.07771,0 -0.174844,0 -0.252519,-0.04856 0.07771,0.04856 0.174843,0.04856 0.252519,0.04856 h 13.18956 c 0.155387,0 0.33023,-0.04856 0.485625,-0.09713 -0.155387,0.04857 -0.33023,0.09713 -0.485625,0.09713 z"
       id="path47"
       style="fill:none;fill-rule:evenodd;stroke:none;stroke-width:0.971248" />
    <path
       d="M 37.06,23.457782 34.068551,10.637295 c -0.01946,-0.0777 -0.05829,-0.155399 -0.07771,-0.233099 0.03884,0.0777 0.0583,0.155398 0.07771,0.233099 z"
       id="path48"
       style="fill:none;fill-rule:evenodd;stroke:none;stroke-width:0.971248" />
    <path
       d="m 34.476476,27.944954 2.097898,-2.602947 c 0.09713,-0.135977 0.174807,-0.271949 0.252518,-0.42735 -0.07771,0.155398 -0.155387,0.291374 -0.252518,0.42735 z"
       id="path49"
       style="fill:none;fill-rule:evenodd;stroke:none;stroke-width:0.971248" />
    <path
       d="M 5.746928,10.559595 2.794332,23.457782 5.746928,10.559595 C 5.844059,10.093396 6.1160039,9.6854708 6.4850798,9.3746718 l 0.019455,-0.01942 C 6.1160369,9.6466268 5.8440884,10.073977 5.7469611,10.559601 Z"
       id="path50"
       style="fill:none;fill-rule:evenodd;stroke:none;stroke-width:0.971248" />
    <path
       d="M 12.666904,21.854456 7.9947732,12.282151 h 7.8842218 l 3.15369,5.841061 -1.090163,2.012137 -0.03892,0.01952 -3.192625,-5.938735 h -3.484631 l 5.489756,11.682116 0.77869,-1.484682 c 0.253068,-0.468848 0.837088,-0.6642 1.323769,-0.410241 0.467212,0.25396 0.661887,0.840017 0.408811,1.328399 l -1.421108,2.67634 -1.090162,2.031671 3.192622,6.427118 3.017421,-5.977806 c -0.311489,0.429778 -0.934426,0.527454 -1.362706,0.214889 -0.389343,-0.273492 -0.506146,-0.800947 -0.291991,-1.211189 l 0.700821,-1.406543 c 0.272529,-0.468847 0.856556,-0.625131 1.323769,-0.351637 0.408811,0.234424 0.584016,0.742342 0.42828,1.191655 l 1.421108,-2.813086 c -0.311488,0.429778 -0.934427,0.527455 -1.362705,0.195355 C 23.412841,26.035 23.276573,25.527081 23.49073,25.097305 l 1.401639,-2.793551 c 0.233607,-0.488383 0.817624,-0.683735 1.304305,-0.429776 0.486678,0.253959 0.681352,0.820482 0.428277,1.308866 l -0.35041,0.683735 1.790986,-3.555426 c -0.311487,0.449311 -0.914962,0.566523 -1.343238,0.253959 -0.408811,-0.273492 -0.545083,-0.800946 -0.330948,-1.230724 l 1.382174,-2.793551 c 0.233607,-0.488383 0.817625,-0.683735 1.304302,-0.429775 0.486683,0.234421 0.681355,0.820482 0.42828,1.308864 l -0.77869,1.582361 2.219263,-4.395445 c -0.272529,0.468847 -0.856557,0.644664 -1.32377,0.37117 -0.233606,-0.136749 -0.408811,-0.37117 -0.467212,-0.644665 h -1.168034 c -0.545084,0 -0.97336,-0.429776 -0.97336,-0.976766 0,-0.546988 0.428276,-0.976765 0.97336,-0.976765 h 4.068647 l -0.973361,1.934 2.394468,-4.7470797 C 33.399524,9.4885959 33.321681,9.429992 33.2438,9.3713858 33.107535,9.2737143 32.971271,9.1760315 32.834988,9.0978923 L 20.843136,3.3349795 c -0.03892,-0.019531 -0.07788,-0.03907 -0.116803,-0.058606 -0.07788,-0.03907 -0.155725,-0.058606 -0.253067,-0.078143 -0.07788,-0.019529 -0.155726,-0.03907 -0.233607,-0.03907 -0.116804,-0.019528 -0.253068,-0.019528 -0.369879,-0.019528 -0.253068,0 -0.486682,0 -0.739753,0.039069 -0.07788,0.019528 -0.155726,0.019528 -0.253068,0.039069 L 6.8851417,9.019761 C 6.7488773,9.0783721 6.5931519,9.1760426 6.4763302,9.2737213 l -0.019497,0.019531 z m 9.753077,-6.348977 1.713116,-3.281931 h 0.622949 c 0.155726,0 0.311488,0.03907 0.44775,0.117211 0.467212,0.253959 0.661883,0.840018 0.408811,1.328401 0,0 0,0 0,0 l -1.47951,2.75448 c -0.253068,0.468846 -0.837091,0.664199 -1.323769,0.410242 -0.467214,-0.253962 -0.642419,-0.840019 -0.389347,-1.328403 z m -2.997949,5.704312 1.460041,-2.75448 c 0.253068,-0.468847 0.837088,-0.664201 1.323769,-0.410241 0.486681,0.253961 0.661886,0.840019 0.408811,1.328402 l -1.46004,2.754479 c -0.253067,0.468848 -0.837092,0.664201 -1.32377,0.410242 -0.486681,-0.25396 -0.661886,-0.859556 -0.408811,-1.328402 z"
       id="path51"
       fill="#ffffff"
       fill-rule="nonzero"
       style="fill:#ffffff;fill-opacity:1;stroke:none;stroke-width:0.975061" />
    <path
       d="M 4.9699311,10.384771 2.0367576,23.282958 v 0.01941 0.01942 c -0.1553876,0.874124 0.058293,1.748248 0.5633233,2.466972 l 0.019455,0.01942 0.019455,0.01942 8.2556141,10.256391 0.01946,0.03884 0.03884,0.01946 c 0.621598,0.621599 1.437447,0.990674 2.31157,1.04895 h 13.228413 c 1.029526,0 1.884225,-0.407926 2.428126,-1.126651 l 8.275042,-10.236965 0.01946,-0.01942 0.01946,-0.01942 c 0.505047,-0.699298 0.718725,-1.573423 0.602174,-2.428122 L 37.81769,23.282963 34.826235,10.44305 V 10.4042 10.38478 C 34.554298,9.5689338 33.971538,8.869634 33.194537,8.4811346 h -0.01946 -0.01946 L 21.189788,2.7507526 C 20.781864,2.5565016 20.315663,2.4593779 19.86889,2.4788041 c -0.388498,-0.019419 -0.777,0.019419 -1.165499,0.097124 l -0.07771,0.019418 -0.07771,0.038849 L 6.5821778,8.4034146 C 5.7663285,8.7724894 5.183579,9.5106388 4.9699055,10.384763 Z M 6.9318531,9.1027218 18.878216,3.3335021 c 0.07771,-0.019419 0.155387,-0.038849 0.2331,-0.038849 0.252519,-0.038848 0.505048,-0.038848 0.757574,-0.038848 0.11655,0 0.252518,0 0.369076,0.019418 0.07771,0.019418 0.174806,0.019418 0.252519,0.038848 0.07771,0.01942 0.174843,0.038849 0.252519,0.077701 0.03884,0.019418 0.07771,0.038848 0.116549,0.058275 l 11.965791,5.7303697 c 0.155387,0.0777 0.291393,0.174825 0.407925,0.271949 0.07771,0.05828 0.155388,0.11655 0.233099,0.194251 0.213682,0.213673 0.407925,0.4661992 0.524475,0.7381492 0.03884,0.0777 0.0583,0.155398 0.07771,0.233099 l 2.991449,12.839913 c 0.03884,0.310801 0.01946,0.641024 -0.0583,0.951824 0,0.03885 -0.01946,0.0777 -0.01946,0.11655 -0.07771,0.291375 -0.213681,0.582749 -0.388499,0.835274 l -2.097898,2.602947 -6.177145,7.634018 c -0.310812,0.427351 -0.796423,0.699299 -1.320897,0.777 -0.155388,0.01946 -0.330231,0.03884 -0.485626,0.03884 H 13.303204 c -0.07771,0 -0.174844,-0.01946 -0.252519,-0.01946 -0.116549,-0.01946 -0.213682,-0.03884 -0.330231,-0.07771 -0.466155,-0.135969 -0.893506,-0.388505 -1.243156,-0.718729 L 8.7189502,32.179598 3.2216829,25.342007 C 2.988583,25.011783 2.8331808,24.623281 2.7749058,24.195933 c -0.019455,-0.0777 -0.019455,-0.155399 -0.019455,-0.2331 0,-0.174825 0,-0.330223 0.038838,-0.505051 L 5.7468839,10.559595 C 5.8634338,10.073971 6.135386,9.6660458 6.5238844,9.3552468 c 0.11655,-0.09712 0.2525187,-0.194251 0.4079246,-0.252526 z"
       id="path52"
       fill="#ffffff"
       fill-rule="nonzero"
       style="fill:#ffffff;fill-opacity:1;stroke:none;stroke-width:0.971285;stroke-dasharray:none" />
    <path
       d="m 20.023166,36.565368 -3.222018,-6.500663 -0.0393,0.05928 L 12.714682,21.76599 6.4278234,9.061049 C 6.0545396,9.3574311 5.7794905,9.7921262 5.6812594,10.266338 L 2.7146439,23.386214 c -0.03928,0.17783 -0.03928,0.3359 -0.03928,0.513731 0,0.07903 0,0.158071 0.019677,0.256867 0.058958,0.414935 0.2161172,0.810111 0.451871,1.165772 l 5.5795913,6.955117 2.7897958,3.438039 c 0.353637,0.35566 0.785856,0.592766 1.237727,0.731076 0.09824,0.03951 0.216117,0.05927 0.333995,0.07904 0.0786,0.0198 0.176837,0.0198 0.255399,0.0198 h 6.679791 z"
       id="path53"
       fill="#ffffff"
       fill-rule="nonzero"
       style="fill:#ffffff;fill-opacity:1;stroke:none;stroke-width:0.985128" />
    <path
       d="m 30.954452,14.48384 -2.242086,4.424111 -0.609691,1.219088 c -0.0197,0.03933 -0.03933,0.07865 -0.05902,0.0983 l -1.809403,3.558951 -1.062041,2.123573 c -0.0197,0.03932 -0.05903,0.0983 -0.07868,0.137641 l -1.43572,2.851094 c 0,0.01965 0,0.01965 -0.0197,0.03933 l -0.708026,1.415715 c -0.0197,0.03933 -0.05902,0.0983 -0.07868,0.13764 l -3.048449,6.01679 h 6.667254 c 0.157329,0 0.334354,-0.01969 0.491689,-0.03932 0.531019,-0.07866 1.003038,-0.353929 1.337383,-0.786507 l 6.25424,-7.727448 2.124081,-2.634804 c 0.177025,-0.255617 0.314692,-0.530893 0.393347,-0.845497 0.0197,-0.03933 0.0197,-0.07865 0.0197,-0.117975 0.07868,-0.314606 0.09834,-0.629207 0.05903,-0.963474 L 34.140557,10.413664 c -0.0197,-0.07865 -0.05899,-0.1573 -0.07868,-0.235953 C 33.943866,9.90243 33.747179,9.646813 33.53085,9.4305229 L 31.111757,14.1889 Z"
       id="path54"
       fill="#ffffff"
       fill-rule="nonzero"
       style="fill:#ffffff;fill-opacity:1;stroke:none;stroke-width:0.983252" />
  </g>
</svg>
