<?xml version="1.0" encoding="UTF-8"?>
<svg width="75px" height="74px" viewBox="0 0 75 74" version="1.1" xmlns="http://www.w3.org/2000/svg" xmlns:xlink="http://www.w3.org/1999/xlink">
    <title>Kubernetes_logo_without_workmark</title>
    <g id="RT-tk-–-UI-Design-Desktop-RZ" stroke="none" stroke-width="1" fill="none" fill-rule="evenodd">
        <g id="RT_Website-UI-1600px" transform="translate(-180.000000, -2449.000000)" fill="#FFFFFF" fill-rule="nonzero">
            <g id="Group-" transform="translate(175.000000, 2339.392777)">
                <g id="Group-3" transform="translate(0.000000, 103.000000)">
                    <g id="Kubernetes_logo_without_workmark" transform="translate(5.000000, 7.000000)">
                        <path d="M29.2790599,37.0796931 C29.5458485,37.0049923 29.8019657,36.8449191 29.9940535,36.6101451 C30.45293,36.0338816 30.3782292,35.2015009 29.8233088,34.7106098 L29.8339803,34.6785951 L23.7085125,29.1934201 C21.8943496,32.1601101 21.0299543,35.7137352 21.4248015,39.3634041 L29.2790599,37.1010362 L29.2790599,37.0796931 Z" id="Path"></path>
                        <path d="M74.8785789,44.2829871 L68.4329647,16.3021917 C68.0914752,14.8401898 67.0990214,13.6022904 65.7330634,12.9513261 L39.6518033,0.486959525 C38.8941234,0.124126938 38.0724143,-0.0359462625 37.2293622,0.00673992423 C36.5677263,0.0387545643 35.9167619,0.209499311 35.3191553,0.486959525 L9.24856674,12.9406545 C7.88260876,13.5916189 6.89015492,14.8295183 6.54866542,16.2915202 L0.124394315,44.2829871 C-0.174408993,45.5849158 0.0710365814,46.9508738 0.796701756,48.0713862 C0.88207413,48.2101163 0.97811805,48.3381749 1.08483352,48.4662335 L19.130419,70.9084961 C20.0801866,72.0823663 21.5101739,72.7653453 23.0255335,72.7653453 L51.9667681,72.7546737 C53.4821278,72.7546737 54.9227866,72.0716947 55.8618827,70.8978246 L73.9074681,48.4555619 C74.8572358,47.2923633 75.2093968,45.744989 74.8785789,44.2829871 Z M64.9540405,43.9414977 C64.7619526,44.7738783 63.8655427,45.2861125 62.9371181,45.0833531 C62.9264466,45.0833531 62.915775,45.0833531 62.915775,45.0833531 C62.9051035,45.0833531 62.894432,45.0726816 62.8837604,45.0726816 C62.7557018,45.040667 62.5956286,45.0193239 62.4782416,44.9873092 C61.9446643,44.8485791 61.5604886,44.6351482 61.080269,44.4430603 C60.045129,44.0695562 59.1914053,43.7600814 58.3590246,43.6426943 C57.9321627,43.6106797 57.7187318,43.8134391 57.4839578,43.9628407 C57.3665708,43.9414977 57.0144097,43.8774684 56.8223219,43.8454537 C55.3283054,48.5409343 52.1375129,52.6174651 47.826208,55.1679648 C47.9009089,55.3493811 48.0289674,55.7335567 48.0823251,55.797586 C47.9862812,56.0643747 47.8368796,56.3098203 47.9649381,56.715339 C48.2637414,57.5050335 48.7546326,58.2733849 49.3522392,59.1911379 C49.640371,59.6179997 49.9285027,59.9488177 50.1846198,60.4397088 C50.2486491,60.5570959 50.32335,60.7385121 50.3873792,60.8558992 C50.792898,61.7096229 50.4940947,62.7020767 49.7257433,63.0755809 C48.9467204,63.449085 47.9862812,63.0542378 47.5700909,62.1898425 C47.5060616,62.0724555 47.4313608,61.9017107 47.3780031,61.7843237 C47.1539006,61.282761 47.0791998,60.8452276 46.9297981,60.3543365 C46.5776371,59.3191964 46.2895053,58.4548012 45.8626434,57.729136 C45.6278694,57.3769749 45.3290661,57.3342888 45.0622774,57.2489164 C45.0089197,57.163544 44.8275034,56.8220545 44.7314595,56.6513098 C43.8670642,56.9821277 42.9813258,57.2489164 42.0529013,57.4623473 C38.0083851,58.3801003 33.9531973,58.0065962 30.3248715,56.6192951 L29.9727104,57.2595879 C29.7059217,57.3342888 29.4604762,57.398318 29.300403,57.5904059 C28.734811,58.2733849 28.500037,59.3618826 28.0945182,60.3970227 C27.934445,60.8879138 27.8704157,61.3254472 27.6463132,61.8270099 C27.5929555,61.9443969 27.5075831,62.1044701 27.4542254,62.2218571 C27.4542254,62.2218571 27.4542254,62.2218571 27.4542254,62.2218571 C27.4542254,62.2218571 27.4542254,62.2218571 27.4542254,62.2218571 C27.0380351,63.0862524 26.0775959,63.4704281 25.298573,63.096924 C24.5302216,62.7234198 24.2314183,61.7416375 24.6369371,60.8772423 C24.7009663,60.7491837 24.7756672,60.5784389 24.8396965,60.4610519 C25.0958136,59.9701608 25.3946169,59.6393428 25.6720771,59.212481 C26.2590122,58.2840564 26.781918,57.4623473 27.0807213,56.6726529 C27.1554221,56.4165357 27.0487066,56.0537031 26.9419912,55.7869145 L27.2301229,55.1039355 C23.0788912,52.6388082 19.7920549,48.7223506 18.2340091,43.8667968 L17.5510301,43.9841838 C17.3696138,43.8774684 17.0067812,43.6426943 16.6546201,43.6640374 C15.8222395,43.7814245 14.9685158,44.0908993 13.9333757,44.4644034 C13.4531561,44.6458197 13.0689805,44.8592507 12.5354031,44.9979808 C12.4180161,45.0299954 12.2579429,45.0620101 12.1298843,45.0833531 C12.1192128,45.0833531 12.1085412,45.0940247 12.0978697,45.0940247 C12.0871982,45.0940247 12.0765266,45.0940247 12.0765266,45.0940247 C11.148102,45.2967841 10.2516921,44.7845498 10.0596043,43.9521692 C9.86751644,43.1197886 10.4651231,42.2767364 11.3828761,42.0526339 C11.3935476,42.0526339 11.4042192,42.0526339 11.4042192,42.0419623 C11.4042192,42.0419623 11.4148907,42.0419623 11.4148907,42.0419623 C11.5429493,42.0099477 11.713694,41.9672615 11.831081,41.9459184 C12.3753299,41.839203 12.8128633,41.8712176 13.3250976,41.8285314 C14.4135953,41.7111444 15.3206768,41.625772 16.1210428,41.3696549 C16.3771599,41.2629394 16.6226055,40.9107784 16.7933502,40.6973475 L17.4443146,40.5052596 C16.7079779,35.4362749 17.9565488,30.4526626 20.6244355,26.4294895 L20.1228728,25.9812846 C20.0908582,25.7891967 20.048172,25.3409918 19.813398,25.0848746 C19.1944483,24.5086111 18.4260969,24.0283915 17.4870008,23.452128 C17.0387958,23.1960109 16.633277,23.0252661 16.1957436,22.6944482 C16.0996997,22.6197474 15.9716412,22.5130319 15.8755972,22.4383311 C15.8649257,22.4276595 15.8649257,22.4276595 15.8542541,22.416988 C15.1072459,21.8193814 14.9365011,20.7949129 15.4700785,20.1119339 C15.7688818,19.7277582 16.2384298,19.5463419 16.7186494,19.5570135 C17.0921536,19.567685 17.4763292,19.7064151 17.8071472,19.9625322 C17.9138626,20.0479046 18.0632643,20.1546201 18.1486367,20.2399925 C18.564827,20.602825 18.8209441,20.9549861 19.1731052,21.3284902 C19.9414565,22.1075131 20.5817493,22.7584775 21.2753999,23.2280255 C21.6382324,23.4414565 21.9263642,23.3560841 22.2038244,23.3133979 C22.2891968,23.3774272 22.5986716,23.5908581 22.7694164,23.7189167 C25.4266315,20.9016283 28.9162273,18.8100052 32.971415,17.8922522 C33.9105111,17.6788212 34.8602788,17.5400911 35.7887034,17.4547188 L35.820718,16.7930829 C36.0234774,16.5903235 36.2582514,16.3021917 36.3329522,15.9820453 C36.3969815,15.1389931 36.2902661,14.2425832 36.1622075,13.1540854 C36.0875067,12.6418512 35.9701197,12.2256609 35.9487766,11.6707405 C35.9487766,11.5533534 35.9487766,11.4039518 35.9487766,11.2652217 C35.9487766,11.2545501 35.9487766,11.233207 35.9487766,11.2225355 C35.9487766,10.2620963 36.6424271,9.49374493 37.5068224,9.49374493 C38.3712177,9.49374493 39.0648682,10.2727678 39.0648682,11.2225355 C39.0648682,11.3612656 39.0755397,11.5426819 39.0648682,11.6707405 C39.0435251,12.2256609 38.9261381,12.6418512 38.8514373,13.1540854 C38.7233787,14.2425832 38.6059917,15.1496647 38.670021,15.9820453 C38.7340502,16.3982356 38.9794958,16.5689804 39.1822552,16.7610682 C39.1822552,16.8784552 39.2035983,17.2519594 39.2142698,17.4547188 C44.1765391,17.8922522 48.7866472,20.1652916 52.1695275,23.7189167 L52.7671341,23.2920548 C52.9698935,23.3027264 53.4074269,23.3667556 53.7169018,23.1853393 C54.4105523,22.7157913 55.0508451,22.0648269 55.8191965,21.285804 C56.1713575,20.9122999 56.4274747,20.5601389 56.8543365,20.1973063 C56.9503804,20.1119339 57.0997821,20.0052184 57.195826,19.9198461 C57.9428343,19.3222394 58.9886459,19.3862687 59.5222232,20.0585762 C60.0558005,20.7308836 59.8850558,21.7660236 59.1380475,22.3636302 C59.0313321,22.4490026 58.8926019,22.5663896 58.796558,22.6410905 C58.3483531,22.9719084 57.9428343,23.1426532 57.4946293,23.3987703 C56.5662048,23.9750338 55.7871819,24.4552534 55.1682321,25.0315169 C54.8801004,25.3409918 54.9014435,25.6397951 54.8694288,25.9172553 C54.7840565,25.9919561 54.4745816,26.2694163 54.3145084,26.418818 C55.6591233,28.4250688 56.6729202,30.6981082 57.2385122,33.173907 C57.8041042,35.6390343 57.8894766,38.0934901 57.5693302,40.4625734 L58.1989514,40.6439897 C58.3163384,40.8040629 58.5404409,41.1989102 58.8712589,41.3162972 C59.6716249,41.5724143 60.5787063,41.6577867 61.6672041,41.7751737 C62.1794383,41.8178599 62.6169717,41.7965168 63.1612206,41.8925607 C63.2892792,41.9139038 63.481367,41.9672615 63.6094256,41.9992762 C64.5591932,42.2553933 65.1461283,43.109117 64.9540405,43.9414977 Z" id="Shape"></path>
                        <path d="M39.9292635,29.8123698 C39.939935,30.08983 40.0359789,30.3672903 40.2280668,30.6127358 C40.6869433,31.1889994 41.5193239,31.2957148 42.1169305,30.868853 L42.1382736,30.8795245 L48.8079903,26.1520293 C46.2895053,23.686902 43.0026689,22.0754985 39.4597154,21.6486366 L39.9292635,29.8123698 L39.9292635,29.8123698 Z" id="Path"></path>
                        <path d="M31.9576181,42.8850145 C31.8082164,42.2553933 31.253296,41.8285314 30.6343463,41.8178599 L30.6343463,41.8178599 C30.5489739,41.8178599 30.45293,41.8285314 30.3675576,41.839203 L30.3568861,41.8178599 L22.2998683,43.1838178 C23.5484393,46.6200559 25.8641649,49.4266727 28.7881687,51.3048649 L31.9042604,43.7600814 L31.8829173,43.7280667 C32.0003043,43.4719496 32.0323189,43.1731463 31.9576181,42.8850145 Z" id="Path"></path>
                        <polygon id="Path" points="35.2337829 39.4807911 37.4961508 40.5692889 39.7478472 39.4914627 40.3134392 37.0476785 38.7553933 35.105457 36.2369083 35.105457 34.6788625 37.0476785"></polygon>
                        <path d="M32.8646996,30.890196 C33.088802,31.0609408 33.3769338,31.1569847 33.6757371,31.1569847 C34.4120738,31.1569847 35.020352,30.5700496 35.0523666,29.8443845 L35.0843813,29.8230414 L35.5432578,21.6379651 C34.9883374,21.7019943 34.4334169,21.7980383 33.8784965,21.9260968 C30.8371057,22.6197474 28.2012337,24.1137639 26.1309536,26.1413578 L32.8433565,30.9008676 L32.8646996,30.890196 Z" id="Path"></path>
                        <path d="M38.7127072,45.841033 C38.5846486,45.5955874 38.3712177,45.3821565 38.0937574,45.2540979 C37.8803265,45.158054 37.6668956,45.1046962 37.4534646,45.1153678 C36.973245,45.1367109 36.5250401,45.392828 36.2902661,45.841033 L36.2795945,45.841033 L32.3204507,53.0016408 C35.0630382,53.9407369 38.0937574,54.1434963 41.1244767,53.4498458 C41.6687256,53.3217872 42.1916314,53.1830571 42.7145372,53.0016408 L38.7340502,45.841033 L38.7127072,45.841033 Z" id="Path"></path>
                        <path d="M51.2517745,29.2040917 L45.1583214,34.657252 L45.1583214,34.6785951 C44.9448904,34.8600114 44.7848172,35.1161285 44.7207879,35.4042603 C44.5607147,36.1299255 44.9875766,36.8449191 45.7025702,37.0370069 L45.7132418,37.0690216 L53.6101863,39.342061 C53.7809311,37.6346136 53.6742156,35.8738084 53.2686968,34.1130032 C52.8525065,32.3201833 52.158856,30.6767651 51.2517745,29.2040917 Z" id="Path"></path>
                        <path d="M44.6034009,41.7965168 C44.4966855,41.7751737 44.38997,41.7645021 44.2832545,41.7751737 L44.2832545,41.7751737 C44.1018382,41.7858452 43.9310935,41.8285314 43.7603487,41.9139038 C43.0987128,42.2340502 42.7999095,43.0237446 43.0987128,43.6960521 L43.0880413,43.7067236 L46.2468191,51.326208 C49.2882099,49.3839865 51.5612494,46.4919973 52.7564626,43.1518032 L44.624744,41.7751737 L44.6034009,41.7965168 Z" id="Path"></path>
                    </g>
                </g>
            </g>
        </g>
    </g>
</svg>