<?xml version="1.0" encoding="UTF-8"?>
<svg width="75px" height="76px" viewBox="0 0 75 76" version="1.1" xmlns="http://www.w3.org/2000/svg" xmlns:xlink="http://www.w3.org/1999/xlink">
    <title>Prometheus_software_logo</title>
    <g id="RT-rokt-–-UI-Design-Desktop-RZ" stroke="none" stroke-width="1" fill="none" fill-rule="evenodd">
        <g id="RT_Website-UI-1600px" transform="translate(-344.000000, -2447.000000)" fill="#FFFFFF" fill-rule="nonzero">
            <g id="Group-" transform="translate(175.000000, 2339.392777)">
                <g id="Group-3" transform="translate(0.000000, 103.000000)">
                    <g id="Prometheus_software_logo" transform="translate(169.000000, 5.000000)">
                        <path d="M37.5,0 C16.7989418,0 0,16.7328042 0,37.4338624 C0,58.1349206 16.7989418,74.9338624 37.5,74.9338624 C58.2010582,74.9338624 75,58.1349206 75,37.4338624 C74.9338624,16.7328042 58.2010582,0 37.5,0 Z M37.5,70.1058201 C31.6137566,70.1058201 26.8518519,66.2037037 26.8518519,61.3095238 L48.1481481,61.3095238 C48.1481481,66.2037037 43.3862434,70.1058201 37.5,70.1058201 Z M55.0925926,58.3994709 L19.8412698,58.3994709 L19.8412698,51.984127 L55.0925926,51.984127 L55.0925926,58.3994709 L55.0925926,58.3994709 Z M54.9603175,48.7433862 L19.973545,48.7433862 C19.8412698,48.6111111 19.7089947,48.478836 19.6428571,48.3465608 C16.005291,43.9814815 15.2116402,41.6666667 14.3518519,39.3518519 C14.3518519,39.2857143 18.7169312,40.2777778 21.8253968,40.9391534 C21.8253968,40.9391534 23.4126984,41.3359788 25.7936508,41.7328042 C23.5449735,39.0873016 22.2222222,35.7804233 22.2222222,32.3412698 C22.2222222,24.8015873 27.9761905,18.2539683 25.9259259,12.962963 C27.9761905,13.0952381 30.0925926,17.2619048 30.2910053,23.6772487 C32.473545,20.7010582 33.3333333,15.2777778 33.3333333,11.9708995 C33.3333333,8.53174603 35.5820106,4.4973545 37.8968254,4.36507937 C35.8465608,7.67195767 38.4259259,10.5820106 40.6746032,17.6587302 C41.5343915,20.3042328 41.4021164,24.8015873 42.0634921,27.6455026 C42.2619048,21.7592593 43.3201058,13.0952381 47.0238095,10.1190476 C45.3703704,13.8888889 47.2883598,18.5846561 48.5449735,20.8333333 C50.6613757,24.4708995 51.9179894,27.2486772 51.9179894,32.4074074 C51.9179894,35.9126984 50.5952381,39.2195767 48.478836,41.7328042 C50.9259259,41.2698413 52.6455026,40.8730159 52.6455026,40.8730159 L60.7142857,39.2857143 C60.6481481,39.3518519 59.457672,44.1137566 54.9603175,48.7433862 Z" id="path4486"></path>
                    </g>
                </g>
            </g>
        </g>
    </g>
</svg>