<?xml version="1.0" encoding="utf-8"?>
<!-- Generator: Adobe Illustrator 27.0.1, SVG Export Plug-In . SVG Version: 6.00 Build 0)  -->
<svg version="1.1" id="Ebene_2" xmlns="http://www.w3.org/2000/svg" xmlns:xlink="http://www.w3.org/1999/xlink" x="0px" y="0px"
	 viewBox="0 0 67 75" style="enable-background:new 0 0 67 75;" xml:space="preserve">
<style type="text/css">
	.st0{fill:#FFFFFF;}
	.st1{fill-rule:evenodd;clip-rule:evenodd;fill:#FFFFFF;}
</style>
<path class="st0" d="M60.5,60l-1.4,4c-0.4,1.2-0.7,2.3-0.9,3.6c-0.1-0.9-0.3-1.8-0.5-2.6l-1.5-5h-3.9l-1.4,4.2
	c0-0.9-0.2-1.7-0.6-2.4c-0.8-1.2-2.1-1.8-3.9-1.8c-0.3,0-0.6,0-0.9,0l0.1-0.1H33.4l0,0h-3.8l-5.7,5.6l1.9-5.6h-3.9l-3.5,10.4H13
	l0.8-2.2h5l1-3h-5l0.7-2h4.8l1.1-3.1h-9l0,0H2.9l-1.1,3.3h2.8L1.1,73.6h4l3.5-10.3h2.8L7.8,73.6h9.5v0h3.9l1.1-3.1l2.1-2l0.6,5.1
	h4.5h0.1h3.6l3.5-10.3h2.8l0.3-0.1c-1,1.1-1.7,2.3-2.2,3.7c-0.7,2.1-0.7,3.7,0.1,4.9c0.8,1.2,2.1,1.8,4,1.8c1.9,0,3.6-0.6,5.2-1.9
	c0.9-0.7,1.7-1.6,2.3-2.6l-1.5,4.5H51l2.3-6.6c0.2-0.7,0.4-1.5,0.4-2.2c0.1,1,0.2,1.9,0.5,2.8l1.7,6h3.4L63.9,60H60.5z M29.4,72.8
	L28.2,65l1.8-1.7h2.7L29.4,72.8z M46,66.4c-0.5,1.6-1.1,2.7-1.6,3.3c-0.5,0.6-1.1,0.9-1.8,0.9c-1.3,0-1.5-1.2-0.7-3.7
	c0.9-2.6,2-3.9,3.4-3.9C46.6,63,46.8,64.1,46,66.4z"/>
<path class="st1" d="M33.6,26.8v0.6 M48.6,45.3l0.5-0.1l0.1,0.4c0.3,1.8,0.1,3.3-0.5,4.8c1.1,0.1,2.1,0.7,2.6,1.8
	c0.4,0.8,0.7,1.7,0.7,2.6c0,0.7-0.2,1.3-0.7,1.7c-0.3,0.3-0.7,0.4-1.1,0.4h-5.8c-0.3,0.9-1,1.7-2,2C42.2,59,41.9,59,41.6,59
	c-0.3,0-0.6,0-0.9,0c-0.8,0-1.5,0-2.3,0c-1.2,0-2.3,0-3.5-0.1c-0.7,0-1.3-0.4-1.6-1.1c-0.3,0.7-0.9,1.1-1.6,1.1
	c-1.2,0-2.3,0-3.5,0.1c-0.8,0-1.5,0-2.3,0c-0.3,0-0.6,0-0.9,0c-0.3,0-0.5,0-0.8-0.1c-0.9-0.3-1.6-1.1-2-2h-5.7
	c-0.4,0-0.8-0.1-1.1-0.4c-0.5-0.4-0.8-1.1-0.7-1.7c0-0.9,0.4-1.8,0.7-2.6c0.2-0.4,0.5-0.8,0.9-1.1c0.5-0.4,1.1-0.6,1.7-0.7
	c-0.7-1.6-0.8-3.1-0.5-4.8l0.1-0.4l0.5,0.1c0.1-0.3,0.1-0.7,0.3-1c0.4-1.2,1.1-2.2,2-3c0.3-0.3,0.7-0.5,1.1-0.7
	c0.1-1.1,0.2-2.1,0.4-3.2c0.2-1.4,0.6-2.8,1.2-4c-0.3-0.4-0.5-0.8-0.8-1.2c0-0.1-0.1-0.1-0.1-0.2c-1.9-1.1-3.5-2.5-4.9-4.1
	c-0.8-1-2-2.5-2.1-3.9c0-0.5-0.1-0.9-0.1-1.4c0-1.1,0-2.2,0.2-3.3c0.1-0.6,0.2-1.3,0.3-1.9c-0.8-1-1.6-2-2.2-3.2
	c-1-1.8-1.6-3.7-1.8-5.7s-0.1-4,0.4-5.9c0.3-1,1.2-1.6,2.1-1.6c3.8,0,7,1.5,10.1,3.5c5.7-3.5,12.9-3.5,18.6,0c3-2,6.3-3.5,10.1-3.5
	c1,0,1.9,0.7,2.1,1.6c0.5,1.9,0.7,4,0.4,5.9c-0.3,2-0.9,4-1.8,5.7c-0.6,1.1-1.3,2.2-2.2,3.2c0.1,0.6,0.2,1.2,0.3,1.8
	c0.1,1.1,0.2,2.2,0.2,3.3c0,0.5,0,0.9-0.1,1.4c-0.1,1.3-1.3,2.8-2.1,3.9c-1.3,1.7-3,3.1-4.9,4.1l-0.1,0.2c-0.1,0.3-0.3,0.7-0.5,1
	c-0.2,0.3-0.4,0.5-0.6,0.8c0.1,0.4,0.3,0.7,0.4,1.1c0.3,0.8,0.4,1.6,0.6,2.4c0.1,0.4,0.2,0.8,0.2,1.3c1.7-2.8,3.9-5.3,6.7-6.9
	c1.6-0.9,3.5-1.5,5.4-1.5c2,0,4,1,5.5,2.3c1.7,1.4,3.1,3.4,3.3,5.6c0,0.4,0,0.7-0.1,1.1c-0.3,1.2-1.2,2.1-2.3,2.6
	c-1.4,0.7-3.1,0.6-4.3-0.5c-0.7-0.6-0.9-1.3-1.2-2.1c-0.1-0.5-0.4-0.9-0.8-1.2c-0.5-0.4-1.2-0.6-2-0.6c-1,0.1-1.9,0.6-2.6,1.3
	c-0.4,0.4-0.8,0.8-1.1,1.2c-0.7,0.8-1.3,1.7-1.8,2.6c-0.4,0.7-0.8,1.4-1.1,2.1c0,0,0,0.1-0.1,0.1C48.6,45.2,48.6,45.2,48.6,45.3
	L48.6,45.3z M50.2,39c0.1,0,0.2,0,0.3,0c0.3-0.4,0.7-0.8,1.1-1.2c0.1-0.1,0.2-0.2,0.4-0.3c-0.5-0.3-0.8-0.7-1.1-1.2
	c-0.3-0.4-0.4-0.9-0.5-1.3c-0.8,0.7-1.5,1.4-2.1,2.2c0,0.5,0.5,1.1,0.8,1.4C49.3,38.8,49.7,39,50.2,39L50.2,39z M49.7,40
	c-0.5-0.1-0.9-0.3-1.3-0.6c-0.4-0.3-0.7-0.7-1-1.2c-0.7,0.9-1.2,1.9-1.8,2.9c0.2,0.1,0.4,0.3,0.5,0.4c0.6,0.5,1.1,1.1,1.5,1.8
	C48.2,42.2,48.9,41.1,49.7,40L49.7,40z M58.7,37.2c0,0.1,0,0.1,0,0.2c1.1,1.1,1.1,2.4,1.8,3.1c1.2,1.2,4-0.1,3.8-1.9
	c-0.1-1.5-1-2.9-2.2-4.1c0,0,0,0,0,0c-0.2-0.1-0.4-0.3-0.6-0.3C59.9,34.2,58.7,35.8,58.7,37.2L58.7,37.2z M57.6,36.6
	c0.1-0.4,0.2-0.7,0.3-1.1c0.4-1.1,1.3-1.9,2.5-2.3c-1-0.7-2.2-1-3.4-1.1c-0.3,0-0.7,0-1,0c-0.1,0.1-0.2,0.1-0.3,0.2
	c-0.1,0-0.1,0.1-0.2,0.1c-0.8,0.8-0.7,2.5,0,3.3c0,0.1,0.1,0.1,0.1,0.2C56.4,36.1,57,36.3,57.6,36.6L57.6,36.6z M54.5,36.2
	C54.2,35.6,54,35,54,34.3c0-0.6,0.1-1.2,0.3-1.7c-0.6,0.2-1.2,0.5-1.8,0.8c-0.4,0.2-0.7,0.4-1.1,0.7l0,0c-0.3,0.5,0,1.3,0.2,1.7
	c0.2,0.4,0.6,0.8,1,1c0,0,0.1,0,0.1,0.1C53.3,36.5,53.9,36.3,54.5,36.2L54.5,36.2z M32,5.9c0.5,0,0.7,0.6,0.4,0.9
	c-0.3,0.3-0.9,0.1-0.9-0.4C31.5,6.1,31.8,5.9,32,5.9L32,5.9z M32,8.1c0.5,0,0.7,0.6,0.4,0.9s-0.9,0.1-0.9-0.4
	C31.5,8.4,31.8,8.1,32,8.1L32,8.1z M35.3,5.9c0.5,0,0.7,0.6,0.4,0.9c-0.3,0.3-0.9,0.1-0.9-0.4C34.7,6.1,35,5.9,35.3,5.9L35.3,5.9z
	 M35.3,8.1c0.5,0,0.7,0.6,0.4,0.9s-0.9,0.1-0.9-0.4C34.7,8.4,35,8.1,35.3,8.1L35.3,8.1z M34.1,4.1v6.3c3.3,0.1,6.6,1,8.7,2.8
	c2.3,2.1,3.9,5.6,3.7,7.5c-0.1,1.7-2.8,2.8-6.4,3.4c0.2,0.3,0.3,0.7,0.4,1c0.1,0.5,0.1,1,0,1.5c1.3-0.1,2.6-0.4,3.7-0.6
	c1.9-0.4,3.8-1,5.6-1.7c0.1-0.2,0.1-0.3,0.1-0.5c0,0,0.8-7-3.2-12.8C43.8,6.8,39.1,4.3,34.1,4.1L34.1,4.1z M33.2,10.4V4.1
	c-5.1,0.1-9.8,2.8-12.7,7.1c-3.9,5.7-3.1,12.6-3.1,12.6c0,0.2,0.1,0.4,0.1,0.5c1.8,0.7,3.7,1.3,5.6,1.7c1.1,0.2,2.3,0.4,3.7,0.6
	c-0.1-0.5-0.1-1,0-1.5c0.1-0.4,0.2-0.7,0.4-1c-3.6-0.6-6.2-1.7-6.4-3.4c-0.2-1.9,1.4-5.4,3.7-7.5C26.6,11.4,29.9,10.5,33.2,10.4
	L33.2,10.4z M27.2,27.6c-1.4-0.1-2.8-0.4-4.1-0.7c-1.6-0.4-3.2-0.8-4.8-1.4c0.3,0.4,0.5,0.7,0.8,1.1c1.9,2.3,4.4,4.1,7.3,5
	c0.9,0.3,1.9,0.6,2.9,0.8v0c-0.1-0.3-0.1-0.5-0.1-0.8c0.1-0.7,0.6-1.1,1.3-1.4c-1.2-0.4-2.4-1.1-3-2.3
	C27.3,27.8,27.2,27.7,27.2,27.6L27.2,27.6z M30.3,31.9c0.1,0.4,0.6,0.7,1.2,0.8c0.7,0.1,1.4,0.1,2.1,0.2c0.7,0,1.5-0.1,2.1-0.2
	c0.5-0.2,1-0.4,1.2-0.8C37.7,30.6,29.8,30.6,30.3,31.9L30.3,31.9z M49.1,25.5c-1.6,0.6-3.2,1-4.8,1.4c-1.4,0.3-2.7,0.5-4.1,0.7
	c-0.1,0.1-0.1,0.3-0.2,0.4c-0.7,1.1-1.7,1.8-3,2.3c0.7,0.3,1.1,0.7,1.3,1.3c0.1,0.3,0,0.6-0.1,0.9c2.4-0.4,4.6-1.3,6.6-2.6
	c1.4-1,2.7-2.1,3.7-3.5C48.7,26.1,48.9,25.8,49.1,25.5L49.1,25.5z M33.3,27.9c-0.3,0.6-1,1.5-2.5,1.2c-1.8-0.6-3.1-1.8-2.7-3.7
	c0.3-1.7,3.2-2.8,5.5-2.8h0c2.4,0,5.2,1.1,5.5,2.8c0.3,1.7-0.7,2.8-2,3.4c-2.1,0.8-2.8-0.2-3.2-0.9c-0.1-0.3-0.2-0.5-0.3-0.5h0
	C33.6,27.4,33.5,27.6,33.3,27.9L33.3,27.9z M33.6,23.4c-1.4,0-3.2,0.4-3.3,1.3c-0.3,1.5,1.9,2.2,3.3,2.2h0c1.4,0,3.6-0.7,3.3-2.2
	C36.8,23.8,35.1,23.4,33.6,23.4L33.6,23.4z M29.7,20.5c0,0.7-1.1,0.7-1.1,0c0-0.6-0.2-1.1-0.5-1.6c-0.3-0.4-0.8-0.6-1.3-0.6
	c-0.3,0-0.7,0.1-0.9,0.3c-0.3,0.2-0.5,0.5-0.7,0.8c-0.1,0.3-0.4,0.4-0.7,0.3c-0.3-0.1-0.4-0.4-0.3-0.7c0.3-0.5,0.6-0.9,1.1-1.3
	c0.4-0.3,1-0.5,1.5-0.5c0.8,0,1.6,0.4,2.1,1C29.4,18.9,29.7,19.7,29.7,20.5L29.7,20.5z M37.6,20.5c0,0.7,1.1,0.7,1.1,0
	c0-0.6,0.2-1.1,0.5-1.6c0.3-0.4,0.8-0.6,1.3-0.6c0.3,0,0.7,0.1,0.9,0.3c0.3,0.2,0.5,0.5,0.7,0.8c0.3,0.6,1.2,0.2,0.9-0.4
	c-0.3-0.5-0.6-0.9-1.1-1.3c-0.4-0.3-1-0.5-1.5-0.5c-0.8,0-1.6,0.4-2.1,1C37.9,18.8,37.6,19.7,37.6,20.5L37.6,20.5z M38,34.6
	c-1.1,0.4-2.3,0.6-3.5,0.7c-2.7,0.1-5.4-0.4-7.8-1.7c-0.5-0.1-0.9-0.3-1.4-0.4c1.1,1.5,2.7,2.6,4.4,3.2c-1.8-0.3-3.6-0.9-5-1.8
	c-0.9,2-1.5,4.7-1,8.4c0.1,0.8,0.2,1.7,0.4,2.4c2.4-1.1,4-0.7,6.1,0.7c0.1-2.3,0.6-4.5,1.2-6.7c0.1-0.4,0.3-0.6,0.6-0.7
	c0.3,0,0.7,0,0.7,0.8c-0.1,0.3-0.1,0.7-0.2,1c-0.1,0.7-0.3,1.5-0.4,2.2c-0.1,0.7-0.2,1.5-0.3,2.2c-0.1,0.5-0.1,0.9-0.1,1.4
	c0,0.3,0,0.5,0,0.8c1.1,0.1,2.2,0.1,3.3,0c0-0.3,0-0.5,0-0.8c-0.1-1.2-0.3-2.4-0.4-3.6c-0.1-0.7-0.2-1.4-0.4-2.1
	c-0.1-0.4-0.2-0.8-0.3-1.3c0-0.8,1-0.9,1.3-0.1c0.7,2.2,1.1,4.5,1.3,6.9c1.9-1.1,4.3-1.9,6.1-0.9c0.1-0.8,0.3-1.5,0.4-2.4
	c0.4-3.5,0-6-0.8-8c-1.4,0.8-3.2,1.3-4.9,1.5c1.9-0.5,3.6-1.7,4.8-3.3c-0.4,0.1-0.9,0.3-1.4,0.4C39.8,34,38.9,34.3,38,34.6L38,34.6z
	 M17.4,3.7c1.9,0.5,3.7,1.4,5.3,2.5c-0.7,0.5-1.3,1.1-1.9,1.8c-0.3-0.5-0.7-1-1-1.5C19.1,5.5,18.3,4.5,17.4,3.7L17.4,3.7z M14.4,3.3
	h0.2c2.1,1.2,4,3.5,5.3,5.8c-0.3,0.4-0.5,0.7-0.8,1.1c-1,1.5-1.8,3.2-2.4,4.9C15,12.9,12.8,8.7,14.4,3.3C14.3,3.3,14.3,3.3,14.4,3.3
	L14.4,3.3z M53,3.3h-0.2c-2.1,1.2-4,3.5-5.3,5.8c0.2,0.3,0.4,0.6,0.7,0.9c1.1,1.6,1.9,3.3,2.5,5.2C52.3,12.9,54.5,8.7,53,3.3L53,3.3
	z M49.8,3.7c-1.9,0.5-3.7,1.4-5.3,2.5c0.7,0.5,1.3,1.2,1.9,1.8c0.3-0.5,0.7-1.1,1-1.5C48.2,5.5,49,4.5,49.8,3.7L49.8,3.7z
	 M24.5,46.9c0.5,1.9,1.2,3.8,2.1,5.5c0.1,0.2,0.3,0.4,0.4,0.4c0.7,0.4,1.7,0.9,1.9,2.8c-0.8-1.1-1.6-1.8-2.9-2.1
	c-0.7,0-1.3,0.2-1.7,0.6c-1,1.1-0.3,2.9,0.3,3c0.6,0.1,6.9,0,6.9,0s0.3-1.2-0.2-1.8c-0.5-0.7-1.2-4-1.3-7.6
	C28.7,46.4,26.4,45.6,24.5,46.9L24.5,46.9z M42.1,46.9c-0.5,1.9-1.2,3.8-2.1,5.5c-0.1,0.2-0.3,0.4-0.4,0.4c-0.7,0.4-1.7,0.9-1.9,2.8
	c0.8-1.1,1.6-1.8,2.9-2.1c0.6,0,1.3,0.1,1.7,0.6c1,1.1,0.3,2.9-0.3,3c-0.6,0.1-6.9,0-6.9,0s-0.3-1.2,0.2-1.8c0.5-0.7,1.2-4,1.3-7.6
	C38,46.4,40.3,45.6,42.1,46.9L42.1,46.9z M33.9,54.8c-0.2,0-0.4,0-0.6,0h-0.4c-0.1-0.1-0.1-0.3-0.2-0.4c-0.1-0.2-0.2-0.4-0.2-0.7
	c-0.2-0.6-0.3-1.3-0.4-1.9c-0.2-1.2-0.3-2.4-0.3-3.6c1.2,0.1,2.3,0.1,3.5,0c0,1.4-0.2,2.8-0.4,4.2c-0.1,0.5-0.3,1.7-0.6,2.1
	C34,54.6,34,54.7,33.9,54.8L33.9,54.8z M47.6,47.2c0,3.4-2.1,4.8-3.3,5.7c5.7-2.6,6.4,1.8,5.8,2.3h-5.9c0-1.5-1.1-2.7-2.5-3
	c0.4-0.9,0.8-1.9,1.2-2.9C44.5,48.4,46.5,47.5,47.6,47.2L47.6,47.2z M44.5,42.2c1.4,0.7,2.3,2.2,2.5,3.9c-1.2,0.4-2.4,0.9-3.5,1.5
	c0.4-1.5,0.7-3,0.9-4.5C44.5,42.8,44.5,42.5,44.5,42.2L44.5,42.2z M22.1,42.2c-1.4,0.7-2.3,2.2-2.5,3.9c1.2,0.4,2.3,0.9,3.5,1.5
	c-0.4-1.5-0.7-3-0.9-4.5C22.2,42.8,22.2,42.5,22.1,42.2L22.1,42.2z M19,47.2c0,3.4,2.1,4.8,3.3,5.7c-5.7-2.6-6.4,1.8-5.8,2.3h5.8
	c0-0.8,0.4-1.6,0.9-2.2c0.4-0.4,0.9-0.7,1.5-0.9c-0.1-0.3-0.2-0.5-0.3-0.7c-0.3-0.7-0.6-1.5-0.9-2.3C22,48.3,20.1,47.5,19,47.2
	L19,47.2z"/>
</svg>
