<?xml version="1.0" encoding="UTF-8"?>
<svg width="68px" height="76px" viewBox="0 0 68 76" version="1.1" xmlns="http://www.w3.org/2000/svg" xmlns:xlink="http://www.w3.org/1999/xlink">
    <title>Terraform_VerticalLogo_White_RGB</title>
    <g id="RT-tk-–-UI-Design-Desktop-RZ" stroke="none" stroke-width="1" fill="none" fill-rule="evenodd">
        <g id="RT_Website-UI-1600px" transform="translate(-1351.000000, -2449.000000)" fill="#FFFFFF">
            <g id="Group-" transform="translate(175.000000, 2339.392777)">
                <g id="Group-3" transform="translate(0.000000, 103.000000)">
                    <g id="Terraform_VerticalLogo_White_RGB" transform="translate(1176.000000, 7.000000)">
                        <polygon id="Path" fill-rule="nonzero" points="3.35993031 64.7696567 0 64.7696567 0 62.7641983 9.0018133 62.7641983 9.0018133 64.7696567 5.62788328 64.7696567 5.62788328 74.8004486 3.35993031 74.8004486"></polygon>
                        <path d="M11.378264,73.190482 C12.2908163,73.1856231 13.1976838,73.0464679 14.0697082,72.7774906 L14.4197009,74.4399561 C13.3824548,74.8131259 12.2880965,75.0026251 11.185768,74.9999725 C8.42082535,74.9999725 7.46184524,73.7154711 7.46184524,71.601515 L7.46184524,69.2705633 C7.46184524,67.4086019 8.29482796,65.8371345 11.1122695,65.8371345 C13.9297111,65.8371345 14.563198,67.4821004 14.563198,69.3790611 L14.563198,71.2585221 L9.66329958,71.2585221 L9.66329958,71.7100127 C9.65979965,72.7599909 10.0377918,73.190482 11.378264,73.190482 Z M9.65979965,69.4875588 L12.4597416,69.4875588 L12.4597416,69.0535678 C12.4597416,68.2205851 12.2077468,67.6535969 11.1227693,67.6535969 C10.0377918,67.6535969 9.65979965,68.2310849 9.65979965,69.0535678 L9.65979965,69.4875588 Z" id="Shape" fill-rule="nonzero"></path>
                        <path d="M20.4500759,67.8425929 C19.640352,68.2106801 18.8599308,68.6400873 18.1156243,69.1270663 L18.1156243,74.8004486 L15.9141699,74.8004486 L15.9141699,65.9981312 L17.7726314,65.9981312 L17.9196283,66.9746109 C18.6365666,66.4894452 19.4144435,66.1010952 20.2330804,65.8196349 L20.4500759,67.8425929 Z" id="Path" fill-rule="nonzero"></path>
                        <path d="M25.8329642,67.8425929 C25.0243731,68.210705 24.2451171,68.6401148 23.5020126,69.1270663 L23.5020126,74.8004486 L21.2970583,74.8004486 L21.2970583,65.9981312 L23.1590197,65.9981312 L23.3025167,66.9746109 C24.0198653,66.4901477 24.7976467,66.1018453 25.6159687,65.8196349 L25.8329642,67.8425929 Z" id="Path" fill-rule="nonzero"></path>
                        <path d="M33.2073113,74.8004486 L31.4013487,74.8004486 L31.2368521,74.205461 C30.4559464,74.7111775 29.5457617,74.9809519 28.6154065,74.9824449 C27.0089398,74.9824449 26.3229541,73.8799677 26.3229541,72.3609992 C26.3229541,70.5725363 27.0999379,69.8865505 28.8884008,69.8865505 L30.9883573,69.8865505 L30.9883573,68.9625697 C30.9883573,67.98609 30.7188629,67.6430971 29.3083921,67.6430971 C28.4846086,67.6509575 27.6637509,67.7424245 26.858443,67.9160914 L26.5854486,66.2361263 C27.569085,65.9627491 28.5849714,65.8226674 29.605886,65.8196349 C32.3708286,65.8196349 33.1828118,66.7961146 33.1828118,69.0010689 L33.2073113,74.8004486 Z M31.002357,71.4755176 L29.3748908,71.4755176 C28.6539057,71.4755176 28.4544099,71.6750134 28.4544099,72.3434996 C28.4544099,72.9559869 28.6539057,73.2289812 29.3398915,73.2289812 C29.9231551,73.2203859 30.494873,73.0651194 31.002357,72.7774906 L31.002357,71.4755176 Z" id="Shape" fill-rule="nonzero"></path>
                        <path d="M39.9831707,63.9926728 C39.5678343,63.9029331 39.1445795,63.8548626 38.7196969,63.8491758 C37.8517149,63.8491758 37.7257176,64.2271679 37.7257176,64.899154 L37.7257176,66.0016311 L39.9656711,66.0016311 L39.8396737,67.7515948 L37.7397173,67.7515948 L37.7397173,74.8004486 L35.534763,74.8004486 L35.534763,67.7515948 L34.134792,67.7515948 L34.134792,66.0016311 L35.534763,66.0016311 L35.534763,64.7731566 C35.534763,62.9496944 36.3852454,62.0431212 38.3347049,62.0431212 C38.9758198,62.0399041 39.614272,62.1258949 40.2316656,62.2987079 L39.9831707,63.9926728 Z" id="Path" fill-rule="nonzero"></path>
                        <path d="M44.2845815,74.9824449 C41.2676441,74.9824449 40.452161,73.3199793 40.452161,71.5105169 L40.452161,69.288063 C40.452161,67.4821004 41.2676441,65.8196349 44.2845815,65.8196349 C47.301519,65.8196349 48.1345017,67.4821004 48.1345017,69.288063 L48.1345017,71.5105169 C48.117002,73.3199793 47.3050189,74.9824449 44.2845815,74.9824449 Z M44.2845815,67.6990959 C43.1121058,67.6990959 42.6571153,68.224085 42.6571153,69.2145645 L42.6571153,71.5840153 C42.6571153,72.5779947 43.1121058,73.1029838 44.2845815,73.1029838 C45.4570572,73.1029838 45.9120478,72.5779947 45.9120478,71.5840153 L45.9120478,69.2145645 C45.9120478,68.224085 45.4605571,67.6990959 44.2845815,67.6990959 Z" id="Shape" fill-rule="nonzero"></path>
                        <path d="M53.7903844,67.8425929 C52.9814143,68.2099501 52.2021015,68.6393913 51.4594327,69.1270663 L51.4594327,74.8004486 L49.2544785,74.8004486 L49.2544785,65.9981312 L51.1269396,65.9981312 L51.2704366,66.9746109 C51.9877853,66.4901477 52.7655666,66.1018453 53.5838887,65.8196349 L53.7903844,67.8425929 Z" id="Path" fill-rule="nonzero"></path>
                        <path d="M59.8452588,74.8004486 L59.8452588,68.6405764 C59.8452588,68.1715861 59.6457629,67.9405909 59.1452733,67.9405909 C58.3380079,68.0317548 57.5572622,68.2840689 56.8493209,68.6825755 L56.8493209,74.8004486 L54.626867,74.8004486 L54.626867,65.9981312 L56.3068322,65.9981312 L56.5238277,66.7401158 C57.6217502,66.1912896 58.8221778,65.8777717 60.0482546,65.8196349 C60.7439095,65.7544606 61.4068056,66.1284736 61.7107201,66.7576154 C62.8105456,66.1948583 64.018447,65.8749792 65.2526466,65.8196349 C66.7156163,65.8196349 67.2406054,66.8486135 67.2406054,68.420081 L67.2406054,74.8004486 L65.0356511,74.8004486 L65.0356511,68.6405764 C65.0356511,68.1715861 64.8361553,67.9405909 64.3356657,67.9405909 C63.5268569,68.0245229 62.7446737,68.2773015 62.0397133,68.6825755 L62.0397133,74.8004486 L59.8452588,74.8004486 Z" id="Path" fill-rule="nonzero"></path>
                        <path d="M2.33445158,59.78576 L2.33445158,58.098795 L0.787483667,58.098795 L0.787483667,59.78576 L0,59.78576 L0,55.7293442 L0.787483667,55.7293442 L0.787483667,57.4408087 L2.33445158,57.4408087 L2.33445158,55.7398439 L3.12543518,55.7398439 L3.12543518,59.78576 L2.33445158,59.78576 Z M6.01637522,59.78576 L5.38988821,59.78576 L5.33388937,59.5897641 C5.06185741,59.7590834 4.74783044,59.8488054 4.42740817,59.8487587 C3.86741979,59.8487587 3.63292465,59.498766 3.63292465,58.9772768 C3.63292465,58.3787892 3.89891914,58.1512939 4.52190621,58.1512939 L5.25339104,58.1512939 L5.25339104,57.8468002 C5.25339104,57.521307 5.158893,57.4058094 4.66890317,57.4058094 C4.38553052,57.409948 4.10315561,57.4404117 3.82542066,57.4968075 L3.73092262,56.9368191 C4.0736165,56.8464959 4.42650375,56.8006205 4.78090084,56.800322 C5.73988095,56.800322 6.01987515,57.1223153 6.01987515,57.8503002 L6.01637522,59.78576 Z M5.25339104,58.679783 L4.68990273,58.679783 C4.43790796,58.679783 4.37140934,58.7462816 4.37140934,58.9702769 C4.37140934,59.1942723 4.43790796,59.2642708 4.67590302,59.2642708 C4.87771055,59.2613482 5.07582551,59.2097182 5.25339104,59.113774 L5.25339104,58.679783 Z M7.61584205,59.8487587 C7.25934339,59.8432759 6.90558005,59.7854946 6.56586382,59.6772623 L6.67086165,59.1207738 C6.96765014,59.2010356 7.27341178,59.2433719 7.58084277,59.2467712 C7.93083551,59.2467712 7.96583479,59.1732727 7.96583479,58.9527773 C7.96583479,58.7322819 7.93083551,58.679783 7.43384582,58.5677853 C6.68836128,58.3927889 6.6008631,58.2177926 6.6008631,57.6473044 C6.6008631,57.0768162 6.87035751,56.8003205 7.74183943,56.8003205 C8.0491611,56.8000615 8.35555164,56.8341049 8.65532049,56.9018198 L8.58182201,57.4863077 C8.30467612,57.4343272 8.02374847,57.4050639 7.74183943,57.3988095 C7.40934633,57.3988095 7.35334749,57.472308 7.35334749,57.6543042 C7.35334749,57.8363005 7.35334749,57.906299 7.78733849,58.004297 C8.63782085,58.2212925 8.71831918,58.3297902 8.71831918,58.9282778 C8.71831918,59.5267654 8.53632296,59.8487587 7.61584205,59.8487587 Z M11.1157695,59.78576 L11.1157695,57.7418024 C11.1157695,57.5878056 11.0492708,57.5073073 10.8742745,57.5073073 C10.5946174,57.5372945 10.3235301,57.6217121 10.076291,57.7558021 L10.076291,59.78576 L9.30980691,59.78576 L9.30980691,55.690845 L10.0727911,55.8028426 L10.0727911,57.0908159 C10.4215426,56.9211693 10.801734,56.8258235 11.1892679,56.8108217 C11.6967574,56.8108217 11.8892534,57.1608145 11.8892534,57.6753038 L11.8892534,59.7962598 L11.1157695,59.78576 Z M12.5157404,56.4433294 L12.5157404,55.7433439 L13.2787246,55.7433439 L13.2787246,56.4433294 L12.5157404,56.4433294 Z M12.5157404,59.78576 L12.5157404,56.8598207 L13.2787246,56.8598207 L13.2787246,59.78576 L12.5157404,59.78576 Z M13.887712,56.8843202 C13.887712,56.1493355 14.3322027,55.7223443 15.3716812,55.7223443 C15.7535646,55.7223443 16.1341397,55.7669712 16.5056577,55.8553416 L16.4181595,56.509828 C16.0819053,56.4489686 15.7413323,56.4150284 15.3996806,56.4083301 C14.8536919,56.4083301 14.6786956,56.5903263 14.6786956,57.0173175 L14.6786956,58.5537856 C14.6786956,58.9807767 14.8536919,59.162773 15.3996806,59.162773 C15.7413323,59.1560747 16.0819053,59.1221344 16.4181595,59.0612751 L16.5056577,59.7157615 C16.1341397,59.8041318 15.7535646,59.8487587 15.3716812,59.8487587 C14.321703,59.8487587 13.887712,59.4217676 13.887712,58.6867828 L13.887712,56.8843202 Z M18.1926227,59.8487587 C17.1426445,59.8487587 16.8661502,59.2957702 16.8661502,58.6937827 L16.8661502,57.9517981 C16.8661502,57.3533105 17.1496443,56.800322 18.1926227,56.800322 C19.2356011,56.800322 19.5225951,57.3533105 19.5225951,57.9517981 L19.5225951,58.6937827 C19.526095,59.2957702 19.2426009,59.8487587 18.1961226,59.8487587 L18.1926227,59.8487587 Z M18.1926227,57.423309 C17.7866311,57.423309 17.6291344,57.5983054 17.6291344,57.9307985 L17.6291344,58.7182822 C17.6291344,59.0472753 17.7866311,59.2222717 18.1926227,59.2222717 C18.5986143,59.2222717 18.756111,59.0472753 18.756111,58.7182822 L18.756111,57.9307985 C18.7596109,57.5983054 18.6056141,57.4408087 18.1961226,57.4408087 L18.1926227,57.423309 Z M21.6715505,57.472308 C21.3918506,57.5944137 21.1216119,57.7371371 20.8630673,57.8992992 L20.8630673,59.78576 L20.103583,59.78576 L20.103583,56.8598207 L20.7475697,56.8598207 L20.8000686,57.185314 C21.0489538,57.0219714 21.3184843,56.8925026 21.601552,56.800322 L21.6715505,57.472308 Z M24.7269872,58.8127802 C24.7269872,59.4637667 24.4259934,59.8627584 23.7190081,59.8627584 C23.4452305,59.8589429 23.1723319,59.8308332 22.903525,59.7787602 L22.903525,60.9722354 L22.1405408,61.087733 L22.1405408,56.8878201 L22.7460282,56.8878201 L22.8230266,57.1328151 C23.1041164,56.9331626 23.4407317,56.8266698 23.7855067,56.8283024 C24.4014939,56.8283024 24.7269872,57.1783141 24.7269872,57.8433003 L24.7269872,58.8127802 Z M22.903525,59.162773 C23.1256866,59.2101036 23.3518966,59.2358892 23.579011,59.2397714 C23.8555052,59.2397714 23.9605031,59.113774 23.9605031,58.8477795 L23.9605031,57.7908014 C23.9605031,57.5493064 23.8695049,57.4163092 23.5860108,57.4163092 C23.3349629,57.4251543 23.0943474,57.5189326 22.903525,57.6823037 L22.903525,59.162773 Z" id="Shape" fill-rule="nonzero"></path>
                        <polygon id="Path" points="26.8304435 8.76031831 40.4206617 16.6071556 40.4206617 32.2973301 26.8304435 24.4539928"></polygon>
                        <polygon id="Path" points="41.9116307 16.6071556 41.9116307 32.2973301 55.5018489 24.4539928 55.5018489 8.76031831"></polygon>
                        <polygon id="Path" points="11.7527562 -2.486848e-15 11.7527562 15.6936745 25.3429744 23.5405118 25.3429744 7.84683726"></polygon>
                        <polygon id="Path" points="26.8304435 41.8626318 40.4206617 49.709469 40.4206617 34.1242923 40.4206617 34.0192944 26.8304435 26.1724572"></polygon>
                    </g>
                </g>
            </g>
        </g>
    </g>
</svg>