<svg version="1.1" viewBox="0.0 0.0 790.0 330.0" fill="none" stroke="none" stroke-linecap="square" stroke-miterlimit="10" xmlns:xlink="http://www.w3.org/1999/xlink" xmlns="http://www.w3.org/2000/svg"><clipPath id="g2fd2783a012_0_322.0"><path d="m0 0l960.0 0l0 540.0l-960.0 0l0 -540.0z" clip-rule="nonzero"/></clipPath><g clip-path="url(#g2fd2783a012_0_322.0)"><path fill="#000000" fill-opacity="0.0" d="m0 0l960.0 0l0 540.0l-960.0 0z" fill-rule="evenodd"/><path fill="#c9daf8" d="m6.4254684 118.35739l180.0 0l0 133.00787l-180.0 0z" fill-rule="evenodd"/><path fill="#000000" d="m63.267303 130.68927l-3.328125 8.828125l-1.328125 0l-3.328125 -8.828125l1.21875 0l2.78125 7.609375l2.765625 -7.609375l1.21875 0zm10.211853 0.0625l0 8.765625l-1.15625 0l0 -6.53125l-2.90625 6.53125l-0.8125 0l-2.921875 -6.546875l0 6.546875l-1.15625 0l0 -8.765625l1.25 0l3.234375 7.25l3.234375 -7.25l1.234375 0zm16.41684 -0.0625l-2.5625 8.828125l-1.28125 0l-2.0625 -7.09375l-2.125 7.09375l-1.265625 0.015625l-2.46875 -8.84375l1.21875 0l1.921875 7.484375l2.125 -7.484375l1.296875 0l2.03125 7.46875l1.9375 -7.46875l1.234375 0zm4.289963 8.9375q-0.96875 0 -1.765625 -0.4375q-0.796875 -0.4375 -1.25 -1.25q-0.4375 -0.828125 -0.4375 -1.90625q0 -1.0625 0.453125 -1.875q0.46875 -0.8125 1.265625 -1.25q0.796875 -0.4375 1.78125 -0.4375q0.984375 0 1.78125 0.4375q0.796875 0.4375 1.265625 1.25q0.46875 0.796875 0.46875 1.875q0 1.078125 -0.484375 1.90625q-0.46875 0.8125 -1.28125 1.25q-0.8125 0.4375 -1.796875 0.4375zm0 -1.015625q0.625 0 1.15625 -0.28125q0.546875 -0.296875 0.875 -0.875q0.34375 -0.578125 0.34375 -1.421875q0 -0.828125 -0.328125 -1.40625q-0.328125 -0.59375 -0.859375 -0.875q-0.53125 -0.28125 -1.15625 -0.28125q-0.625 0 -1.15625 0.28125q-0.515625 0.28125 -0.84375 0.875q-0.3125 0.578125 -0.3125 1.40625q0 0.859375 0.3125 1.4375q0.3125 0.578125 0.828125 0.859375q0.515625 0.28125 1.140625 0.28125zm6.2249756 -4.90625q0.3125 -0.59375 0.875 -0.921875q0.5625 -0.328125 1.359375 -0.328125l0 1.1875l-0.296875 0q-1.9375 0 -1.9375 2.109375l0 3.765625l-1.15625 0l0 -6.9375l1.15625 0l0 1.125zm7.439514 5.8125l-2.71875 -3.0625l0 3.0625l-1.15625 0l0 -9.359375l1.15625 0l0 5.5l2.671875 -3.078125l1.609375 0l-3.265625 3.453125l3.28125 3.484375l-1.578125 0zm3.7991943 -9.359375l0 9.359375l-1.15625 0l0 -9.359375l1.15625 0zm4.988434 9.46875q-0.96875 0 -1.765625 -0.4375q-0.796875 -0.4375 -1.25 -1.25q-0.4375 -0.828125 -0.4375 -1.90625q0 -1.0625 0.453125 -1.875q0.46875 -0.8125 1.265625 -1.25q0.796875 -0.4375 1.78125 -0.4375q0.984375 0 1.78125 0.4375q0.796875 0.4375 1.265625 1.25q0.46875 0.796875 0.46875 1.875q0 1.078125 -0.484375 1.90625q-0.46875 0.8125 -1.28125 1.25q-0.8125 0.4375 -1.796875 0.4375zm0 -1.015625q0.625 0 1.15625 -0.28125q0.546875 -0.296875 0.875 -0.875q0.34375 -0.578125 0.34375 -1.421875q0 -0.828125 -0.328125 -1.40625q-0.328125 -0.59375 -0.859375 -0.875q-0.53125 -0.28125 -1.15625 -0.28125q-0.625 0 -1.15625 0.28125q-0.515625 0.28125 -0.84375 0.875q-0.3125 0.578125 -0.3125 1.40625q0 0.859375 0.3125 1.4375q0.3125 0.578125 0.828125 0.859375q0.515625 0.28125 1.140625 0.28125zm4.6468506 -2.59375q0 -1.0625 0.421875 -1.859375q0.4375 -0.796875 1.1875 -1.234375q0.75 -0.453125 1.671875 -0.453125q0.921875 0 1.59375 0.390625q0.671875 0.390625 1.0 0.984375l0 -1.265625l1.15625 0l0 6.9375l-1.15625 0l0 -1.296875q-0.34375 0.609375 -1.03125 1.015625q-0.671875 0.390625 -1.5625 0.390625q-0.9375 0 -1.6875 -0.453125q-0.734375 -0.453125 -1.171875 -1.265625q-0.421875 -0.828125 -0.421875 -1.890625zm5.875 0.015625q0 -0.78125 -0.328125 -1.359375q-0.3125 -0.578125 -0.859375 -0.890625q-0.53125 -0.3125 -1.171875 -0.3125q-0.640625 0 -1.171875 0.3125q-0.53125 0.296875 -0.859375 0.875q-0.3125 0.578125 -0.3125 1.359375q0 0.796875 0.3125 1.390625q0.328125 0.59375 0.859375 0.90625q0.53125 0.296875 1.171875 0.296875q0.640625 0 1.171875 -0.296875q0.546875 -0.3125 0.859375 -0.90625q0.328125 -0.59375 0.328125 -1.375zm2.680603 -0.015625q0 -1.0625 0.421875 -1.859375q0.4375 -0.796875 1.1875 -1.234375q0.75 -0.453125 1.6875 -0.453125q0.8125 0 1.5 0.375q0.703125 0.375 1.078125 0.984375l0 -3.671875l1.15625 0l0 9.359375l-1.15625 0l0 -1.296875q-0.34375 0.609375 -1.015625 1.015625q-0.671875 0.390625 -1.578125 0.390625q-0.921875 0 -1.671875 -0.453125q-0.75 -0.453125 -1.1875 -1.265625q-0.421875 -0.828125 -0.421875 -1.890625zm5.875 0.015625q0 -0.78125 -0.328125 -1.359375q-0.3125 -0.578125 -0.859375 -0.890625q-0.53125 -0.3125 -1.171875 -0.3125q-0.640625 0 -1.171875 0.3125q-0.53125 0.296875 -0.859375 0.875q-0.3125 0.578125 -0.3125 1.359375q0 0.796875 0.3125 1.390625q0.328125 0.59375 0.859375 0.90625q0.53125 0.296875 1.171875 0.296875q0.640625 0 1.171875 -0.296875q0.546875 -0.3125 0.859375 -0.90625q0.328125 -0.59375 0.328125 -1.375z" fill-rule="nonzero"/><path fill="#fcfcfc" d="m19.464838 153.06326l155.02362 0l0 52.031494l-155.02362 0z" fill-rule="evenodd"/><path stroke="#326de6" stroke-width="1.0" stroke-linejoin="round" stroke-linecap="butt" d="m19.464838 153.06326l155.02362 0l0 52.031494l-155.02362 0z" fill-rule="evenodd"/><path fill="#000000" d="m79.833206 165.45764l0 8.765625l-1.15625 0l0 -6.53125l-2.90625 6.53125l-0.8125 0l-2.921875 -6.546875l0 6.546875l-1.15625 0l0 -8.765625l1.25 0l3.234375 7.25l3.234375 -7.25l1.234375 0zm4.975128 8.875q-0.96875 0 -1.765625 -0.4375q-0.796875 -0.4375 -1.25 -1.25q-0.4375 -0.828125 -0.4375 -1.90625q0 -1.0625 0.453125 -1.875q0.46875 -0.8125 1.265625 -1.25q0.796875 -0.4375 1.78125 -0.4375q0.984375 0 1.78125 0.4375q0.796875 0.4375 1.265625 1.25q0.46875 0.796875 0.46875 1.875q0 1.078125 -0.484375 1.90625q-0.46875 0.8125 -1.28125 1.25q-0.8125 0.4375 -1.796875 0.4375zm0 -1.015625q0.625 0 1.15625 -0.28125q0.546875 -0.296875 0.875 -0.875q0.34375 -0.578125 0.34375 -1.421875q0 -0.828125 -0.328125 -1.40625q-0.328125 -0.59375 -0.859375 -0.875q-0.53125 -0.28125 -1.15625 -0.28125q-0.625 0 -1.15625 0.28125q-0.515625 0.28125 -0.84375 0.875q-0.3125 0.578125 -0.3125 1.40625q0 0.859375 0.3125 1.4375q0.3125 0.578125 0.828125 0.859375q0.515625 0.28125 1.140625 0.28125zm8.459351 -6.15625q1.265625 0 2.046875 0.765625q0.78125 0.765625 0.78125 2.203125l0 4.09375l-1.140625 0l0 -3.921875q0 -1.046875 -0.515625 -1.59375q-0.515625 -0.546875 -1.421875 -0.546875q-0.90625 0 -1.453125 0.578125q-0.53125 0.5625 -0.53125 1.65625l0 3.828125l-1.15625 0l0 -6.9375l1.15625 0l0 0.984375q0.34375 -0.53125 0.921875 -0.8125q0.59375 -0.296875 1.3125 -0.296875zm7.7406006 7.171875q-0.96875 0 -1.765625 -0.4375q-0.796875 -0.4375 -1.25 -1.25q-0.4375 -0.828125 -0.4375 -1.90625q0 -1.0625 0.453125 -1.875q0.46875 -0.8125 1.265625 -1.25q0.796875 -0.4375 1.78125 -0.4375q0.984375 0 1.78125 0.4375q0.796875 0.4375 1.265625 1.25q0.46875 0.796875 0.46875 1.875q0 1.078125 -0.484375 1.90625q-0.46875 0.8125 -1.28125 1.25q-0.8125 0.4375 -1.796875 0.4375zm0 -1.015625q0.625 0 1.15625 -0.28125q0.546875 -0.296875 0.875 -0.875q0.34375 -0.578125 0.34375 -1.421875q0 -0.828125 -0.328125 -1.40625q-0.328125 -0.59375 -0.859375 -0.875q-0.53125 -0.28125 -1.15625 -0.28125q-0.625 0 -1.15625 0.28125q-0.515625 0.28125 -0.84375 0.875q-0.3125 0.578125 -0.3125 1.40625q0 0.859375 0.3125 1.4375q0.3125 0.578125 0.828125 0.859375q0.515625 0.28125 1.140625 0.28125zm6.2249756 -8.453125l0 9.359375l-1.15625 0l0 -9.359375l1.15625 0zm2.5509338 1.296875q-0.328125 0 -0.5625 -0.21875q-0.21875 -0.234375 -0.21875 -0.5625q0 -0.328125 0.21875 -0.546875q0.234375 -0.234375 0.5625 -0.234375q0.328125 0 0.546875 0.234375q0.21875 0.21875 0.21875 0.546875q0 0.328125 -0.21875 0.5625q-0.21875 0.21875 -0.546875 0.21875zm0.5625 1.125l0 6.9375l-1.15625 0l0 -6.9375l1.15625 0zm3.3634338 0.953125l0 4.09375q0 0.5 0.21875 0.71875q0.21875 0.203125 0.75 0.203125l0.84375 0l0 0.96875l-1.03125 0q-0.96875 0 -1.453125 -0.4375q-0.46875 -0.453125 -0.46875 -1.453125l0 -4.09375l-0.90625 0l0 -0.953125l0.90625 0l0 -1.75l1.140625 0l0 1.75l1.8125 0l0 0.953125l-1.8125 0zm6.6537323 -1.078125q0.78125 0 1.40625 0.34375q0.640625 0.328125 1.0 1.0q0.359375 0.671875 0.359375 1.625l0 4.09375l-1.140625 0l0 -3.921875q0 -1.046875 -0.515625 -1.59375q-0.515625 -0.546875 -1.421875 -0.546875q-0.90625 0 -1.453125 0.578125q-0.53125 0.5625 -0.53125 1.65625l0 3.828125l-1.15625 0l0 -9.359375l1.15625 0l0 3.40625q0.34375 -0.53125 0.9375 -0.8125q0.609375 -0.296875 1.359375 -0.296875z" fill-rule="nonzero"/><path fill="#000000" d="m43.1573 189.51701q-1.21875 0 -2.234375 -0.578125q-1.015625 -0.578125 -1.609375 -1.609375q-0.578125 -1.03125 -0.578125 -2.328125q0 -1.28125 0.578125 -2.3125q0.59375 -1.03125 1.609375 -1.609375q1.015625 -0.578125 2.234375 -0.578125q1.25 0 2.25 0.578125q1.015625 0.578125 1.59375 1.609375q0.59375 1.015625 0.59375 2.3125q0 1.3125 -0.59375 2.34375q-0.578125 1.015625 -1.59375 1.59375q-1.0 0.578125 -2.25 0.578125zm0 -1.0q0.921875 0 1.65625 -0.421875q0.75 -0.4375 1.171875 -1.234375q0.421875 -0.796875 0.421875 -1.859375q0 -1.0625 -0.421875 -1.84375q-0.421875 -0.796875 -1.15625 -1.21875q-0.734375 -0.4375 -1.671875 -0.4375q-0.9375 0 -1.671875 0.4375q-0.734375 0.421875 -1.15625 1.21875q-0.421875 0.78125 -0.421875 1.84375q0 1.0625 0.421875 1.859375q0.421875 0.796875 1.15625 1.234375q0.75 0.421875 1.671875 0.421875zm7.1040344 -4.90625q0.3125 -0.59375 0.875 -0.921875q0.5625 -0.328125 1.359375 -0.328125l0 1.1875l-0.296875 0q-1.9375 0 -1.9375 2.109375l0 3.765625l-1.15625 0l0 -6.9375l1.15625 0l0 1.125zm3.1426392 2.3125q0 -1.0625 0.421875 -1.859375q0.4375 -0.796875 1.1875 -1.234375q0.75 -0.453125 1.6875 -0.453125q0.8125 0 1.5 0.375q0.703125 0.375 1.078125 0.984375l0 -3.671875l1.15625 0l0 9.359375l-1.15625 0l0 -1.296875q-0.34375 0.609375 -1.015625 1.015625q-0.671875 0.390625 -1.578125 0.390625q-0.921875 0 -1.671875 -0.453125q-0.75 -0.453125 -1.1875 -1.265625q-0.421875 -0.828125 -0.421875 -1.890625zm5.875 0.015625q0 -0.78125 -0.328125 -1.359375q-0.3125 -0.578125 -0.859375 -0.890625q-0.53125 -0.3125 -1.171875 -0.3125q-0.640625 0 -1.171875 0.3125q-0.53125 0.296875 -0.859375 0.875q-0.3125 0.578125 -0.3125 1.359375q0 0.796875 0.3125 1.390625q0.328125 0.59375 0.859375 0.90625q0.53125 0.296875 1.171875 0.296875q0.640625 0 1.171875 -0.296875q0.546875 -0.3125 0.859375 -0.90625q0.328125 -0.59375 0.328125 -1.375zm9.430599 -0.25q0 0.328125 -0.03125 0.703125l-5.546871 0q0.0625 1.015625 0.703125 1.59375q0.6406212 0.578125 1.5468712 0.578125q0.75 0 1.25 -0.34375q0.5 -0.359375 0.703125 -0.9375l1.234375 0q-0.265625 1.0 -1.109375 1.625q-0.828125 0.625 -2.078125 0.625q-0.984375 0 -1.7656212 -0.4375q-0.765625 -0.4375 -1.21875 -1.25q-0.4375 -0.828125 -0.4375 -1.90625q0 -1.078125 0.421875 -1.875q0.4375 -0.8125 1.21875 -1.25q0.7812462 -0.4375 1.7812462 -0.4375q1.0 0 1.75 0.4375q0.765625 0.421875 1.171875 1.171875q0.40625 0.75 0.40625 1.703125zm-1.1875 -0.234375q0 -0.65625 -0.296875 -1.125q-0.28125 -0.484375 -0.78125 -0.734375q-0.5 -0.25 -1.109375 -0.25q-0.875 0 -1.4843712 0.5625q-0.609375 0.546875 -0.703125 1.546875l4.374996 0zm3.8624725 -1.84375q0.3125 -0.59375 0.875 -0.921875q0.5625 -0.328125 1.359375 -0.328125l0 1.1875l-0.296875 0q-1.9375 0 -1.9375 2.109375l0 3.765625l-1.15625 0l0 -6.9375l1.15625 0l0 1.125zm6.5218506 2.3125q0 -1.0625 0.421875 -1.859375q0.4375 -0.796875 1.1875 -1.234375q0.75 -0.453125 1.671875 -0.453125q0.921875 0 1.59375 0.390625q0.671875 0.390625 1.0 0.984375l0 -1.265625l1.15625 0l0 6.9375l-1.15625 0l0 -1.296875q-0.34375 0.609375 -1.03125 1.015625q-0.671875 0.390625 -1.5625 0.390625q-0.9375 0 -1.6875 -0.453125q-0.734375 -0.453125 -1.171875 -1.265625q-0.421875 -0.828125 -0.421875 -1.890625zm5.875 0.015625q0 -0.78125 -0.328125 -1.359375q-0.3125 -0.578125 -0.859375 -0.890625q-0.53125 -0.3125 -1.171875 -0.3125q-0.640625 0 -1.171875 0.3125q-0.53125 0.296875 -0.859375 0.875q-0.3125 0.578125 -0.3125 1.359375q0 0.796875 0.3125 1.390625q0.328125 0.59375 0.859375 0.90625q0.53125 0.296875 1.171875 0.296875q0.640625 0 1.171875 -0.296875q0.546875 -0.3125 0.859375 -0.90625q0.328125 -0.59375 0.328125 -1.375zm6.493103 -3.578125q1.265625 0 2.046875 0.765625q0.78125 0.765625 0.78125 2.203125l0 4.09375l-1.140625 0l0 -3.921875q0 -1.046875 -0.515625 -1.59375q-0.515625 -0.546875 -1.421875 -0.546875q-0.90625 0 -1.453125 0.578125q-0.53125 0.5625 -0.53125 1.65625l0 3.828125l-1.15625 0l0 -6.9375l1.15625 0l0 0.984375q0.34375 -0.53125 0.921875 -0.8125q0.59375 -0.296875 1.3125 -0.296875zm4.2874756 3.5625q0 -1.0625 0.421875 -1.859375q0.4375 -0.796875 1.1875 -1.234375q0.75 -0.453125 1.6875 -0.453125q0.8125 0 1.5 0.375q0.703125 0.375 1.078125 0.984375l0 -3.671875l1.15625 0l0 9.359375l-1.15625 0l0 -1.296875q-0.34375 0.609375 -1.015625 1.015625q-0.671875 0.390625 -1.578125 0.390625q-0.921875 0 -1.671875 -0.453125q-0.75 -0.453125 -1.1875 -1.265625q-0.421875 -0.828125 -0.421875 -1.890625zm5.875 0.015625q0 -0.78125 -0.328125 -1.359375q-0.3125 -0.578125 -0.859375 -0.890625q-0.53125 -0.3125 -1.171875 -0.3125q-0.640625 0 -1.171875 0.3125q-0.53125 0.296875 -0.859375 0.875q-0.3125 0.578125 -0.3125 1.359375q0 0.796875 0.3125 1.390625q0.328125 0.59375 0.859375 0.90625q0.53125 0.296875 1.171875 0.296875q0.640625 0 1.171875 -0.296875q0.546875 -0.3125 0.859375 -0.90625q0.328125 -0.59375 0.328125 -1.375zm9.231689 -5.34375q1.4375 0 2.5 0.546875q1.0625 0.53125 1.625 1.53125q0.5625 1.0 0.5625 2.359375q0 1.359375 -0.5625 2.359375q-0.5625 0.984375 -1.625 1.515625q-1.0625 0.515625 -2.5 0.515625l-2.75 0l0 -8.828125l2.75 0zm0 7.875q1.703125 0 2.609375 -0.90625q0.90625 -0.90625 0.90625 -2.53125q0 -1.640625 -0.90625 -2.5625q-0.90625 -0.9375 -2.609375 -0.9375l-1.59375 0l0 6.9375l1.59375 0zm12.526062 -2.78125q0 0.328125 -0.03125 0.703125l-5.546875 0q0.0625 1.015625 0.703125 1.59375q0.640625 0.578125 1.546875 0.578125q0.75 0 1.25 -0.34375q0.5 -0.359375 0.703125 -0.9375l1.234375 0q-0.265625 1.0 -1.109375 1.625q-0.828125 0.625 -2.078125 0.625q-0.984375 0 -1.765625 -0.4375q-0.765625 -0.4375 -1.21875 -1.25q-0.4375 -0.828125 -0.4375 -1.90625q0 -1.078125 0.421875 -1.875q0.4375 -0.8125 1.21875 -1.25q0.78125 -0.4375 1.78125 -0.4375q1.0 0 1.75 0.4375q0.765625 0.421875 1.171875 1.171875q0.40625 0.75 0.40625 1.703125zm-1.1875 -0.234375q0 -0.65625 -0.296875 -1.125q-0.28125 -0.484375 -0.78125 -0.734375q-0.5 -0.25 -1.109375 -0.25q-0.875 0 -1.484375 0.5625q-0.609375 0.546875 -0.703125 1.546875l4.375 0zm3.8624725 -5.390625l0 9.359375l-1.15625 0l0 -9.359375l1.15625 0zm2.5509338 1.296875q-0.328125 0 -0.5625 -0.21875q-0.21875 -0.234375 -0.21875 -0.5625q0 -0.328125 0.21875 -0.546875q0.234375 -0.234375 0.5625 -0.234375q0.328125 0 0.546875 0.234375q0.21875763 0.21875 0.21875763 0.546875q0 0.328125 -0.21875763 0.5625q-0.21875 0.21875 -0.546875 0.21875zm0.5625 1.125l0 6.9375l-1.15625 0l0 -6.9375l1.15625 0zm4.5509415 5.875l2.140625 -5.875l1.234375 0l-2.71875 6.9375l-1.34375 0l-2.71875 -6.9375l1.234375 0l2.171875 5.875zm10.834503 -2.671875q0 0.328125 -0.03125 0.703125l-5.546875 0q0.0625 1.015625 0.703125 1.59375q0.640625 0.578125 1.546875 0.578125q0.75 0 1.25 -0.34375q0.5 -0.359375 0.703125 -0.9375l1.234375 0q-0.265625 1.0 -1.109375 1.625q-0.828125 0.625 -2.078125 0.625q-0.984375 0 -1.765625 -0.4375q-0.765625 -0.4375 -1.21875 -1.25q-0.4375 -0.828125 -0.4375 -1.90625q0 -1.078125 0.421875 -1.875q0.4375 -0.8125 1.21875 -1.25q0.78125 -0.4375 1.78125 -0.4375q1.0 0 1.75 0.4375q0.765625 0.421875 1.171875 1.171875q0.40625 0.75 0.40625 1.703125zm-1.1875 -0.234375q0 -0.65625 -0.296875 -1.125q-0.28125 -0.484375 -0.78125 -0.734375q-0.5 -0.25 -1.109375 -0.25q-0.875 0 -1.484375 0.5625q-0.609375 0.546875 -0.703125 1.546875l4.375 0zm3.8624725 -1.84375q0.3125 -0.59375 0.875 -0.921875q0.5625 -0.328125 1.359375 -0.328125l0 1.1875l-0.296875 0q-1.9375 0 -1.9375 2.109375l0 3.765625l-1.15625 0l0 -6.9375l1.15625 0l0 1.125zm9.548889 -1.125l-4.1875 10.203125l-1.1875 0l1.375 -3.34375l-2.796875 -6.859375l1.28125 0l2.171875 5.625l2.15625 -5.625l1.1875 0z" fill-rule="nonzero"/><path fill="#ffffff" d="m68.59889 281.0042l0 0c0 3.0332031 12.76165 5.4921265 28.503937 5.4921265c15.742294 0 28.503937 -2.4589233 28.503937 -5.4921265l0 32.95276c0 3.0332031 -12.761642 5.4921265 -28.503937 5.4921265c-15.742287 0 -28.503937 -2.4589233 -28.503937 -5.4921265z" fill-rule="evenodd"/><path fill="#ffffff" d="m68.59889 281.0042l0 0c0 -3.0332336 12.76165 -5.4921265 28.503937 -5.4921265c15.742294 0 28.503937 2.4588928 28.503937 5.4921265l0 0c0 3.0332031 -12.761642 5.4921265 -28.503937 5.4921265c-15.742287 0 -28.503937 -2.4589233 -28.503937 -5.4921265z" fill-rule="evenodd"/><path fill="#000000" fill-opacity="0.0" d="m125.606766 281.0042l0 0c0 3.0332031 -12.761642 5.4921265 -28.503937 5.4921265c-15.742287 0 -28.503937 -2.4589233 -28.503937 -5.4921265l0 0c0 -3.0332336 12.76165 -5.4921265 28.503937 -5.4921265c15.742294 0 28.503937 2.4588928 28.503937 5.4921265l0 32.95276c0 3.0332031 -12.761642 5.4921265 -28.503937 5.4921265c-15.742287 0 -28.503937 -2.4589233 -28.503937 -5.4921265l0 -32.95276" fill-rule="evenodd"/><path stroke="#4a86e8" stroke-width="1.0" stroke-linejoin="round" stroke-linecap="butt" d="m125.606766 281.0042l0 0c0 3.0332031 -12.761642 5.4921265 -28.503937 5.4921265c-15.742287 0 -28.503937 -2.4589233 -28.503937 -5.4921265l0 0c0 -3.0332336 12.76165 -5.4921265 28.503937 -5.4921265c15.742294 0 28.503937 2.4588928 28.503937 5.4921265l0 32.95276c0 3.0332031 -12.761642 5.4921265 -28.503937 5.4921265c-15.742287 0 -28.503937 -2.4589233 -28.503937 -5.4921265l0 -32.95276" fill-rule="evenodd"/><path fill="#000000" fill-opacity="0.0" d="m96.97665 205.09476l0.12598419 70.4252" fill-rule="evenodd"/><path stroke="#d63384" stroke-width="2.0" stroke-linejoin="round" stroke-linecap="butt" d="m96.97665 205.09476l0.104515076 58.4252" fill-rule="evenodd"/><path fill="#d63384" stroke="#d63384" stroke-width="2.0" stroke-linecap="butt" d="m93.7777 263.52588l3.3196945 9.070282l3.2872238 -9.082092z" fill-rule="evenodd"/><path fill="#000000" fill-opacity="0.0" d="m1.0200635 22.89798l62.425194 0l0 37.385826l-62.425194 0z" fill-rule="evenodd"/><path fill="#ffffff" d="m19.344913 43.496105q-1.1875 0 -2.1875 -0.546875q-0.984375 -0.546875 -1.578125 -1.53125q-0.578125 -1.0 -0.578125 -2.234375q0 -1.234375 0.578125 -2.21875q0.59375 -0.984375 1.578125 -1.53125q1.0 -0.5625 2.1875 -0.5625q1.1875 0 2.171875 0.5625q0.984375 0.546875 1.546875 1.53125q0.578125 0.984375 0.578125 2.21875q0 1.234375 -0.578125 2.234375q-0.5625 0.984375 -1.546875 1.53125q-0.984375 0.546875 -2.171875 0.546875zm0 -1.859375q1.0 0 1.609375 -0.671875q0.609375 -0.671875 0.609375 -1.78125q0 -1.125 -0.609375 -1.78125q-0.609375 -0.671875 -1.609375 -0.671875q-1.03125 0 -1.640625 0.671875q-0.59375 0.65625 -0.59375 1.78125q0 1.109375 0.59375 1.78125q0.609375 0.671875 1.640625 0.671875zm7.494568 -3.796875q0.359375 -0.546875 0.890625 -0.859375q0.546875 -0.328125 1.203125 -0.328125l0 2.171875l-0.5625 0q-0.765625 0 -1.15625 0.328125q-0.375 0.328125 -0.375 1.15625l0 3.109375l-2.046875 0l0 -6.703125l2.046875 0l0 1.125zm2.682907 2.21875q0 -1.03125 0.375 -1.8125q0.390625 -0.78125 1.0625 -1.203125q0.671875 -0.421875 1.5 -0.421875q0.6718788 0 1.2187538 0.28125q0.546875 0.28125 0.859375 0.75l0 -3.109375l2.046875 0l0 8.875l-2.046875 0l0 -0.953125q-0.296875 0.46875 -0.828125 0.765625q-0.53125 0.28125 -1.2500038 0.28125q-0.828125 0 -1.5 -0.421875q-0.671875 -0.421875 -1.0625 -1.203125q-0.375 -0.796875 -0.375 -1.828125zm5.015629 0.015625q0 -0.765625 -0.4375 -1.203125q-0.421875 -0.453125 -1.03125 -0.453125q-0.6093788 0 -1.0468788 0.4375q-0.421875 0.4375 -0.421875 1.203125q0 0.765625 0.421875 1.21875q0.4375 0.453125 1.0468788 0.453125q0.609375 0 1.03125 -0.4375q0.4375 -0.453125 0.4375 -1.21875zm9.851181 -0.109375q0 0.28125 -0.046875 0.59375l-4.640625 0q0.046875 0.625 0.390625 0.953125q0.359375 0.328125 0.875 0.328125q0.78125 0 1.078125 -0.640625l2.1875 0q-0.171875 0.65625 -0.609375 1.1875q-0.4375 0.53125 -1.109375 0.828125q-0.65625 0.296875 -1.46875 0.296875q-0.984375 0 -1.75 -0.421875q-0.765625 -0.421875 -1.203125 -1.1875q-0.421875 -0.78125 -0.421875 -1.828125q0 -1.046875 0.421875 -1.828125q0.421875 -0.78125 1.1875 -1.203125q0.765625 -0.421875 1.765625 -0.421875q0.96875 0 1.71875 0.421875q0.765625 0.40625 1.1875 1.15625q0.4375 0.75 0.4375 1.765625zm-2.109375 -0.546875q0 -0.53125 -0.359375 -0.828125q-0.359375 -0.3125 -0.890625 -0.3125q-0.515625 0 -0.875 0.296875q-0.359375 0.296875 -0.4375 0.84375l2.5625 0zm5.2358093 -1.578125q0.359375 -0.546875 0.890625 -0.859375q0.546875 -0.328125 1.203125 -0.328125l0 2.171875l-0.5625 0q-0.765625 0 -1.15625 0.328125q-0.375 0.328125 -0.375 1.15625l0 3.109375l-2.046875 0l0 -6.703125l2.046875 0l0 1.125z" fill-rule="nonzero"/><path fill="#ffffff" d="m14.3351555 53.59923q0 -1.25 0.53125 -2.21875q0.546875 -0.984375 1.515625 -1.53125q0.96875 -0.546875 2.1875 -0.546875q1.5 0 2.5625 0.796875q1.078125 0.78125 1.4375 2.15625l-2.25 0q-0.25 -0.53125 -0.71875 -0.796875q-0.453125 -0.28125 -1.046875 -0.28125q-0.953125 0 -1.546875 0.65625q-0.578125 0.65625 -0.578125 1.765625q0 1.09375 0.578125 1.765625q0.59375 0.65625 1.546875 0.65625q0.59375 0 1.046875 -0.28125q0.46875 -0.28125 0.71875 -0.796875l2.25 0q-0.359375 1.359375 -1.4375 2.15625q-1.0625 0.78125 -2.5625 0.78125q-1.21875 0 -2.1875 -0.546875q-0.96875 -0.546875 -1.515625 -1.515625q-0.53125 -0.96875 -0.53125 -2.21875zm11.550308 -4.65625l0 8.875l-2.046875 0l0 -8.875l2.046875 0zm2.5243988 1.484375q-0.546875 0 -0.890625 -0.3125q-0.34375 -0.328125 -0.34375 -0.796875q0 -0.46875 0.34375 -0.78125q0.34375 -0.328125 0.890625 -0.328125q0.515625 0 0.859375 0.328125q0.34375 0.3125 0.34375 0.78125q0 0.46875 -0.34375 0.796875q-0.34375 0.3125 -0.859375 0.3125zm1.015625 0.6875l0 6.703125l-2.046875 0l0 -6.703125l2.046875 0zm7.8056526 3.25q0 0.28125 -0.046875 0.59375l-4.640629 0q0.046875 0.625 0.390625 0.953125q0.3593788 0.328125 0.8750038 0.328125q0.78125 0 1.078125 -0.640625l2.1875 0q-0.171875 0.65625 -0.609375 1.1875q-0.4375 0.53125 -1.109375 0.828125q-0.65625 0.296875 -1.46875 0.296875q-0.9843788 0 -1.7500038 -0.421875q-0.765625 -0.421875 -1.203125 -1.1875q-0.421875 -0.78125 -0.421875 -1.828125q0 -1.046875 0.421875 -1.828125q0.421875 -0.78125 1.1875 -1.203125q0.765625 -0.421875 1.7656288 -0.421875q0.96875 0 1.71875 0.421875q0.765625 0.40625 1.1875 1.15625q0.4375 0.75 0.4375 1.765625zm-2.109375 -0.546875q0 -0.53125 -0.359375 -0.828125q-0.359375 -0.3125 -0.890625 -0.3125q-0.515625 0 -0.8750038 0.296875q-0.359375 0.296875 -0.4375 0.84375l2.5625038 0zm7.2670593 -2.765625q1.171875 0 1.875 0.765625q0.703125 0.75 0.703125 2.09375l0 3.90625l-2.046875 0l0 -3.640625q0 -0.671875 -0.34375 -1.03125q-0.34375 -0.375 -0.9375 -0.375q-0.59375 0 -0.9375 0.375q-0.34375 0.359375 -0.34375 1.03125l0 3.640625l-2.046875 0l0 -6.703125l2.046875 0l0 0.890625q0.3125 -0.4375 0.828125 -0.6875q0.53125 -0.265625 1.203125 -0.265625zm7.7286835 5.03125l0 1.734375l-1.03125 0q-1.125 0 -1.75 -0.546875q-0.625 -0.546875 -0.625 -1.78125l0 -2.65625l-0.8125 0l0 -1.71875l0.8125 0l0 -1.625l2.0625 0l0 1.625l1.34375 0l0 1.71875l-1.34375 0l0 2.6875q0 0.296875 0.140625 0.4375q0.140625 0.125 0.484375 0.125l0.71875 0z" fill-rule="nonzero"/><path fill="#000000" fill-opacity="0.0" d="m102.42547 21.096178l83.99999 0l0 37.385826l-83.99999 0z" fill-rule="evenodd"/><path fill="#ffffff" d="m122.92153 33.194305q1.328125 0 2.3125 0.53125q1.0 0.515625 1.546875 1.484375q0.546875 0.953125 0.546875 2.1875q0 1.25 -0.546875 2.203125q-0.546875 0.953125 -1.546875 1.484375q-1.0 0.53125 -2.3125 0.53125l-3.15625 0l0 -8.421875l3.15625 0zm-0.140625 6.640625q1.171875 0 1.8125 -0.625q0.65625 -0.640625 0.65625 -1.8125q0 -1.15625 -0.65625 -1.796875q-0.640625 -0.65625 -1.8125 -0.65625l-0.96875 0l0 4.890625l0.96875 0zm12.020927 -1.671875q0 0.28125 -0.046875 0.59375l-4.640625 0q0.046875 0.625 0.390625 0.953125q0.359375 0.328125 0.875 0.328125q0.78125 0 1.078125 -0.640625l2.1875 0q-0.171875 0.65625 -0.609375 1.1875q-0.4375 0.53125 -1.109375 0.828125q-0.65625 0.296875 -1.46875 0.296875q-0.984375 0 -1.75 -0.421875q-0.765625 -0.421875 -1.203125 -1.1875q-0.421875 -0.78125 -0.421875 -1.828125q0 -1.046875 0.421875 -1.828125q0.421875 -0.78125 1.1875 -1.203125q0.765625 -0.421875 1.765625 -0.421875q0.96875 0 1.71875 0.421875q0.765625 0.40625 1.1875 1.15625q0.4375 0.75 0.4375 1.765625zm-2.109375 -0.546875q0 -0.53125 -0.359375 -0.828125q-0.359375 -0.3125 -0.890625 -0.3125q-0.515625 0 -0.875 0.296875q-0.359375 0.296875 -0.4375 0.84375l2.5625 0zm5.2358093 -4.875l0 8.875l-2.046875 0l0 -8.875l2.046875 0zm2.5243988 1.484375q-0.546875 0 -0.890625 -0.3125q-0.34375 -0.328125 -0.34375 -0.796875q0 -0.46875 0.34375 -0.78125q0.34375 -0.328125 0.890625 -0.328125q0.515625 0 0.859375 0.328125q0.34375 0.3125 0.34375 0.78125q0 0.46875 -0.34375 0.796875q-0.34375 0.3125 -0.859375 0.3125zm1.015625 0.6875l0 6.703125l-2.046875 0l0 -6.703125l2.046875 0zm4.493149 4.78125l1.453125 -4.78125l2.1875 0l-2.375 6.703125l-2.53125 0l-2.375 -6.703125l2.1875 0l1.453125 4.78125zm10.824554 -1.53125q0 0.28125 -0.046875 0.59375l-4.640625 0q0.046875 0.625 0.390625 0.953125q0.359375 0.328125 0.875 0.328125q0.78125 0 1.078125 -0.640625l2.1875 0q-0.171875 0.65625 -0.609375 1.1875q-0.4375 0.53125 -1.109375 0.828125q-0.65625 0.296875 -1.46875 0.296875q-0.984375 0 -1.75 -0.421875q-0.765625 -0.421875 -1.203125 -1.1875q-0.421875 -0.78125 -0.421875 -1.828125q0 -1.046875 0.421875 -1.828125q0.421875 -0.78125 1.1875 -1.203125q0.765625 -0.421875 1.765625 -0.421875q0.96875 0 1.71875 0.421875q0.765625 0.40625 1.1875 1.15625q0.4375 0.75 0.4375 1.765625zm-2.109375 -0.546875q0 -0.53125 -0.359375 -0.828125q-0.359375 -0.3125 -0.890625 -0.3125q-0.515625 0 -0.875 0.296875q-0.359375 0.296875 -0.4375 0.84375l2.5625 0zm5.2358093 -1.578125q0.359375 -0.546875 0.890625 -0.859375q0.546875 -0.328125 1.203125 -0.328125l0 2.171875l-0.5625 0q-0.765625 0 -1.15625 0.328125q-0.375 0.328125 -0.375 1.15625l0 3.109375l-2.046875 0l0 -6.703125l2.046875 0l0 1.125zm9.917282 -1.125l-4.1875 9.890625l-2.21875 0l1.546875 -3.421875l-2.734375 -6.46875l2.296875 0l1.546875 4.1875l1.53125 -4.1875l2.21875 0z" fill-rule="nonzero"/><path fill="#ffffff" d="m126.52796 51.797432q0 -1.25 0.53125 -2.21875q0.546875 -0.984375 1.5156174 -1.53125q0.96875 -0.546875 2.1875 -0.546875q1.5 0 2.5625 0.796875q1.078125 0.78125 1.4375 2.15625l-2.25 0q-0.25 -0.53125 -0.71875 -0.796875q-0.453125 -0.28125 -1.046875 -0.28125q-0.953125 0 -1.546875 0.65625q-0.578125 0.65625 -0.578125 1.765625q0 1.09375 0.578125 1.765625q0.59375 0.65625 1.546875 0.65625q0.59375 0 1.046875 -0.28125q0.46875 -0.28125 0.71875 -0.796875l2.25 0q-0.359375 1.359375 -1.4375 2.15625q-1.0625 0.78125 -2.5625 0.78125q-1.21875 0 -2.1875 -0.546875q-0.9687424 -0.546875 -1.5156174 -1.515625q-0.53125 -0.96875 -0.53125 -2.21875zm11.550301 -4.65625l0 8.875l-2.046875 0l0 -8.875l2.046875 0zm2.5243988 1.484375q-0.546875 0 -0.890625 -0.3125q-0.34375 -0.328125 -0.34375 -0.796875q0 -0.46875 0.34375 -0.78125q0.34375 -0.328125 0.890625 -0.328125q0.515625 0 0.859375 0.328125q0.34375 0.3125 0.34375 0.78125q0 0.46875 -0.34375 0.796875q-0.34375 0.3125 -0.859375 0.3125zm1.015625 0.6875l0 6.703125l-2.046875 0l0 -6.703125l2.046875 0zm7.805649 3.25q0 0.28125 -0.046875 0.59375l-4.640625 0q0.046875 0.625 0.390625 0.953125q0.359375 0.328125 0.875 0.328125q0.78125 0 1.078125 -0.640625l2.1875 0q-0.171875 0.65625 -0.609375 1.1875q-0.4375 0.53125 -1.109375 0.828125q-0.65625 0.296875 -1.46875 0.296875q-0.984375 0 -1.75 -0.421875q-0.765625 -0.421875 -1.203125 -1.1875q-0.421875 -0.78125 -0.421875 -1.828125q0 -1.046875 0.421875 -1.828125q0.421875 -0.78125 1.1875 -1.203125q0.765625 -0.421875 1.765625 -0.421875q0.96875 0 1.71875 0.421875q0.765625 0.40625 1.1875 1.15625q0.4375 0.75 0.4375 1.765625zm-2.109375 -0.546875q0 -0.53125 -0.359375 -0.828125q-0.359375 -0.3125 -0.890625 -0.3125q-0.515625 0 -0.875 0.296875q-0.359375 0.296875 -0.4375 0.84375l2.5625 0zm7.2670593 -2.765625q1.171875 0 1.875 0.765625q0.703125 0.75 0.703125 2.09375l0 3.90625l-2.046875 0l0 -3.640625q0 -0.671875 -0.34375 -1.03125q-0.34375 -0.375 -0.9375 -0.375q-0.59375 0 -0.9375 0.375q-0.34375 0.359375 -0.34375 1.03125l0 3.640625l-2.046875 0l0 -6.703125l2.046875 0l0 0.890625q0.3125 -0.4375 0.828125 -0.6875q0.53125 -0.265625 1.203125 -0.265625zm7.7286835 5.03125l0 1.734375l-1.03125 0q-1.125 0 -1.75 -0.546875q-0.625 -0.546875 -0.625 -1.78125l0 -2.65625l-0.8125 0l0 -1.71875l0.8125 0l0 -1.625l2.0625 0l0 1.625l1.34375 0l0 1.71875l-1.34375 0l0 2.6875q0 0.296875 0.140625 0.4375q0.140625 0.125 0.484375 0.125l0.71875 0z" fill-rule="nonzero"/><path fill="#c9daf8" d="m302.6092 118.35985l261.13385 0l0 133.00787l-261.13385 0z" fill-rule="evenodd"/><path fill="#000000" d="m400.01797 130.69173l-3.328125 8.828125l-1.328125 0l-3.328125 -8.828125l1.21875 0l2.78125 7.609375l2.765625 -7.609375l1.21875 0zm10.211853 0.0625l0 8.765625l-1.15625 0l0 -6.53125l-2.90625 6.53125l-0.8125 0l-2.921875 -6.546875l0 6.546875l-1.15625 0l0 -8.765625l1.25 0l3.234375 7.25l3.234375 -7.25l1.234375 0zm16.41684 -0.0625l-2.5625 8.828125l-1.28125 0l-2.0625 -7.09375l-2.125 7.09375l-1.265625 0.015625l-2.46875 -8.84375l1.21875 0l1.921875 7.484375l2.125 -7.484375l1.296875 0l2.03125 7.46875l1.9375 -7.46875l1.234375 0zm4.2899475 8.9375q-0.96875 0 -1.765625 -0.4375q-0.796875 -0.4375 -1.25 -1.25q-0.4375 -0.828125 -0.4375 -1.90625q0 -1.0625 0.453125 -1.875q0.46875 -0.8125 1.265625 -1.25q0.796875 -0.4375 1.78125 -0.4375q0.984375 0 1.78125 0.4375q0.796875 0.4375 1.265625 1.25q0.46875 0.796875 0.46875 1.875q0 1.078125 -0.484375 1.90625q-0.46875 0.8125 -1.28125 1.25q-0.8125 0.4375 -1.796875 0.4375zm0 -1.015625q0.625 0 1.15625 -0.28125q0.546875 -0.296875 0.875 -0.875q0.34375 -0.578125 0.34375 -1.421875q0 -0.828125 -0.328125 -1.40625q-0.328125 -0.59375 -0.859375 -0.875q-0.53125 -0.28125 -1.15625 -0.28125q-0.625 0 -1.15625 0.28125q-0.515625 0.28125 -0.84375 0.875q-0.3125 0.578125 -0.3125 1.40625q0 0.859375 0.3125 1.4375q0.3125 0.578125 0.828125 0.859375q0.515625 0.28125 1.140625 0.28125zm6.2249756 -4.90625q0.3125 -0.59375 0.875 -0.921875q0.5625 -0.328125 1.359375 -0.328125l0 1.1875l-0.296875 0q-1.9375 0 -1.9375 2.109375l0 3.765625l-1.15625 0l0 -6.9375l1.15625 0l0 1.125zm7.439514 5.8125l-2.71875 -3.0625l0 3.0625l-1.15625 0l0 -9.359375l1.15625 0l0 5.5l2.671875 -3.078125l1.609375 0l-3.265625 3.453125l3.28125 3.484375l-1.578125 0zm3.7991943 -9.359375l0 9.359375l-1.15625 0l0 -9.359375l1.15625 0zm4.988434 9.46875q-0.96875 0 -1.765625 -0.4375q-0.796875 -0.4375 -1.25 -1.25q-0.4375 -0.828125 -0.4375 -1.90625q0 -1.0625 0.453125 -1.875q0.46875 -0.8125 1.265625 -1.25q0.796875 -0.4375 1.78125 -0.4375q0.984375 0 1.78125 0.4375q0.796875 0.4375 1.265625 1.25q0.46875 0.796875 0.46875 1.875q0 1.078125 -0.484375 1.90625q-0.46875 0.8125 -1.28125 1.25q-0.8125 0.4375 -1.796875 0.4375zm0 -1.015625q0.625 0 1.15625 -0.28125q0.546875 -0.296875 0.875 -0.875q0.34375 -0.578125 0.34375 -1.421875q0 -0.828125 -0.328125 -1.40625q-0.328125 -0.59375 -0.859375 -0.875q-0.53125 -0.28125 -1.15625 -0.28125q-0.625 0 -1.15625 0.28125q-0.515625 0.28125 -0.84375 0.875q-0.3125 0.578125 -0.3125 1.40625q0 0.859375 0.3125 1.4375q0.3125 0.578125 0.828125 0.859375q0.515625 0.28125 1.140625 0.28125zm4.6468506 -2.59375q0 -1.0625 0.421875 -1.859375q0.4375 -0.796875 1.1875 -1.234375q0.75 -0.453125 1.671875 -0.453125q0.921875 0 1.59375 0.390625q0.671875 0.390625 1.0 0.984375l0 -1.265625l1.15625 0l0 6.9375l-1.15625 0l0 -1.296875q-0.34375 0.609375 -1.03125 1.015625q-0.671875 0.390625 -1.5625 0.390625q-0.9375 0 -1.6875 -0.453125q-0.734375 -0.453125 -1.171875 -1.265625q-0.421875 -0.828125 -0.421875 -1.890625zm5.875 0.015625q0 -0.78125 -0.328125 -1.359375q-0.3125 -0.578125 -0.859375 -0.890625q-0.53125 -0.3125 -1.171875 -0.3125q-0.640625 0 -1.171875 0.3125q-0.53125 0.296875 -0.859375 0.875q-0.3125 0.578125 -0.3125 1.359375q0 0.796875 0.3125 1.390625q0.328125 0.59375 0.859375 0.90625q0.53125 0.296875 1.171875 0.296875q0.640625 0 1.171875 -0.296875q0.546875 -0.3125 0.859375 -0.90625q0.328125 -0.59375 0.328125 -1.375zm2.680603 -0.015625q0 -1.0625 0.421875 -1.859375q0.4375 -0.796875 1.1875 -1.234375q0.75 -0.453125 1.6875 -0.453125q0.8125 0 1.5 0.375q0.703125 0.375 1.078125 0.984375l0 -3.671875l1.15625 0l0 9.359375l-1.15625 0l0 -1.296875q-0.34375 0.609375 -1.015625 1.015625q-0.671875 0.390625 -1.578125 0.390625q-0.921875 0 -1.671875 -0.453125q-0.75 -0.453125 -1.1875 -1.265625q-0.421875 -0.828125 -0.421875 -1.890625zm5.875 0.015625q0 -0.78125 -0.328125 -1.359375q-0.3125 -0.578125 -0.859375 -0.890625q-0.53125 -0.3125 -1.171875 -0.3125q-0.640625 0 -1.171875 0.3125q-0.53125 0.296875 -0.859375 0.875q-0.3125 0.578125 -0.3125 1.359375q0 0.796875 0.3125 1.390625q0.328125 0.59375 0.859375 0.90625q0.53125 0.296875 1.171875 0.296875q0.640625 0 1.171875 -0.296875q0.546875 -0.3125 0.859375 -0.90625q0.328125 -0.59375 0.328125 -1.375z" fill-rule="nonzero"/><path fill="#fcfcfc" d="m315.52258 153.06326l106.519684 0l0 52.031494l-106.519684 0z" fill-rule="evenodd"/><path stroke="#326de6" stroke-width="1.0" stroke-linejoin="round" stroke-linecap="butt" d="m315.52258 153.06326l106.519684 0l0 52.031494l-106.519684 0z" fill-rule="evenodd"/><path fill="#000000" d="m351.63898 165.45764l0 8.765625l-1.15625 0l0 -6.53125l-2.90625 6.53125l-0.8125 0l-2.921875 -6.546875l0 6.546875l-1.15625 0l0 -8.765625l1.25 0l3.234375 7.25l3.234375 -7.25l1.234375 0zm4.975128 8.875q-0.96875 0 -1.765625 -0.4375q-0.796875 -0.4375 -1.25 -1.25q-0.4375 -0.828125 -0.4375 -1.90625q0 -1.0625 0.453125 -1.875q0.46875 -0.8125 1.265625 -1.25q0.796875 -0.4375 1.78125 -0.4375q0.984375 0 1.78125 0.4375q0.796875 0.4375 1.265625 1.25q0.46875 0.796875 0.46875 1.875q0 1.078125 -0.484375 1.90625q-0.46875 0.8125 -1.28125 1.25q-0.8125 0.4375 -1.796875 0.4375zm0 -1.015625q0.625 0 1.15625 -0.28125q0.546875 -0.296875 0.875 -0.875q0.34375 -0.578125 0.34375 -1.421875q0 -0.828125 -0.328125 -1.40625q-0.328125 -0.59375 -0.859375 -0.875q-0.53125 -0.28125 -1.15625 -0.28125q-0.625 0 -1.15625 0.28125q-0.515625 0.28125 -0.84375 0.875q-0.3125 0.578125 -0.3125 1.40625q0 0.859375 0.3125 1.4375q0.3125 0.578125 0.828125 0.859375q0.515625 0.28125 1.140625 0.28125zm8.459351 -6.15625q1.265625 0 2.046875 0.765625q0.78125 0.765625 0.78125 2.203125l0 4.09375l-1.140625 0l0 -3.921875q0 -1.046875 -0.515625 -1.59375q-0.515625 -0.546875 -1.421875 -0.546875q-0.90625 0 -1.453125 0.578125q-0.53125 0.5625 -0.53125 1.65625l0 3.828125l-1.15625 0l0 -6.9375l1.15625 0l0 0.984375q0.34375 -0.53125 0.921875 -0.8125q0.59375 -0.296875 1.3125 -0.296875zm7.7406006 7.171875q-0.96875 0 -1.765625 -0.4375q-0.796875 -0.4375 -1.25 -1.25q-0.4375 -0.828125 -0.4375 -1.90625q0 -1.0625 0.453125 -1.875q0.46875 -0.8125 1.265625 -1.25q0.796875 -0.4375 1.78125 -0.4375q0.984375 0 1.78125 0.4375q0.796875 0.4375 1.265625 1.25q0.46875 0.796875 0.46875 1.875q0 1.078125 -0.484375 1.90625q-0.46875 0.8125 -1.28125 1.25q-0.8125 0.4375 -1.796875 0.4375zm0 -1.015625q0.625 0 1.15625 -0.28125q0.546875 -0.296875 0.875 -0.875q0.34375 -0.578125 0.34375 -1.421875q0 -0.828125 -0.328125 -1.40625q-0.328125 -0.59375 -0.859375 -0.875q-0.53125 -0.28125 -1.15625 -0.28125q-0.625 0 -1.15625 0.28125q-0.515625 0.28125 -0.84375 0.875q-0.3125 0.578125 -0.3125 1.40625q0 0.859375 0.3125 1.4375q0.3125 0.578125 0.828125 0.859375q0.515625 0.28125 1.140625 0.28125zm6.2249756 -8.453125l0 9.359375l-1.15625 0l0 -9.359375l1.15625 0zm2.5509338 1.296875q-0.328125 0 -0.5625 -0.21875q-0.21875 -0.234375 -0.21875 -0.5625q0 -0.328125 0.21875 -0.546875q0.234375 -0.234375 0.5625 -0.234375q0.328125 0 0.546875 0.234375q0.21875 0.21875 0.21875 0.546875q0 0.328125 -0.21875 0.5625q-0.21875 0.21875 -0.546875 0.21875zm0.5625 1.125l0 6.9375l-1.15625 0l0 -6.9375l1.15625 0zm3.3634338 0.953125l0 4.09375q0 0.5 0.21875 0.71875q0.21875 0.203125 0.75 0.203125l0.84375 0l0 0.96875l-1.03125 0q-0.96875 0 -1.453125 -0.4375q-0.46875 -0.453125 -0.46875 -1.453125l0 -4.09375l-0.90625 0l0 -0.953125l0.90625 0l0 -1.75l1.140625 0l0 1.75l1.8125 0l0 0.953125l-1.8125 0zm6.6537476 -1.078125q0.78125 0 1.40625 0.34375q0.640625 0.328125 1.0 1.0q0.359375 0.671875 0.359375 1.625l0 4.09375l-1.140625 0l0 -3.921875q0 -1.046875 -0.515625 -1.59375q-0.515625 -0.546875 -1.421875 -0.546875q-0.90625 0 -1.453125 0.578125q-0.53125 0.5625 -0.53125 1.65625l0 3.828125l-1.15625 0l0 -9.359375l1.15625 0l0 3.40625q0.34375 -0.53125 0.9375 -0.8125q0.609375 -0.296875 1.359375 -0.296875z" fill-rule="nonzero"/><path fill="#000000" d="m355.8553 189.51701q-1.21875 0 -2.234375 -0.578125q-1.015625 -0.578125 -1.609375 -1.609375q-0.578125 -1.03125 -0.578125 -2.328125q0 -1.28125 0.578125 -2.3125q0.59375 -1.03125 1.609375 -1.609375q1.015625 -0.578125 2.234375 -0.578125q1.25 0 2.25 0.578125q1.015625 0.578125 1.59375 1.609375q0.59375 1.015625 0.59375 2.3125q0 1.3125 -0.59375 2.34375q-0.578125 1.015625 -1.59375 1.59375q-1.0 0.578125 -2.25 0.578125zm0 -1.0q0.921875 0 1.65625 -0.421875q0.75 -0.4375 1.171875 -1.234375q0.421875 -0.796875 0.421875 -1.859375q0 -1.0625 -0.421875 -1.84375q-0.421875 -0.796875 -1.15625 -1.21875q-0.734375 -0.4375 -1.671875 -0.4375q-0.9375 0 -1.671875 0.4375q-0.734375 0.421875 -1.15625 1.21875q-0.421875 0.78125 -0.421875 1.84375q0 1.0625 0.421875 1.859375q0.421875 0.796875 1.15625 1.234375q0.75 0.421875 1.671875 0.421875zm7.1040344 -4.90625q0.3125 -0.59375 0.875 -0.921875q0.5625 -0.328125 1.359375 -0.328125l0 1.1875l-0.296875 0q-1.9375 0 -1.9375 2.109375l0 3.765625l-1.15625 0l0 -6.9375l1.15625 0l0 1.125zm3.1426392 2.3125q0 -1.0625 0.421875 -1.859375q0.4375 -0.796875 1.1875 -1.234375q0.75 -0.453125 1.6875 -0.453125q0.8125 0 1.5 0.375q0.703125 0.375 1.078125 0.984375l0 -3.671875l1.15625 0l0 9.359375l-1.15625 0l0 -1.296875q-0.34375 0.609375 -1.015625 1.015625q-0.671875 0.390625 -1.578125 0.390625q-0.921875 0 -1.671875 -0.453125q-0.75 -0.453125 -1.1875 -1.265625q-0.421875 -0.828125 -0.421875 -1.890625zm5.875 0.015625q0 -0.78125 -0.328125 -1.359375q-0.3125 -0.578125 -0.859375 -0.890625q-0.53125 -0.3125 -1.171875 -0.3125q-0.640625 0 -1.171875 0.3125q-0.53125 0.296875 -0.859375 0.875q-0.3125 0.578125 -0.3125 1.359375q0 0.796875 0.3125 1.390625q0.328125 0.59375 0.859375 0.90625q0.53125 0.296875 1.171875 0.296875q0.640625 0 1.171875 -0.296875q0.546875 -0.3125 0.859375 -0.90625q0.328125 -0.59375 0.328125 -1.375zm9.430603 -0.25q0 0.328125 -0.03125 0.703125l-5.546875 0q0.0625 1.015625 0.703125 1.59375q0.640625 0.578125 1.546875 0.578125q0.75 0 1.25 -0.34375q0.5 -0.359375 0.703125 -0.9375l1.234375 0q-0.265625 1.0 -1.109375 1.625q-0.828125 0.625 -2.078125 0.625q-0.984375 0 -1.765625 -0.4375q-0.765625 -0.4375 -1.21875 -1.25q-0.4375 -0.828125 -0.4375 -1.90625q0 -1.078125 0.421875 -1.875q0.4375 -0.8125 1.21875 -1.25q0.78125 -0.4375 1.78125 -0.4375q1.0 0 1.75 0.4375q0.765625 0.421875 1.171875 1.171875q0.40625 0.75 0.40625 1.703125zm-1.1875 -0.234375q0 -0.65625 -0.296875 -1.125q-0.28125 -0.484375 -0.78125 -0.734375q-0.5 -0.25 -1.109375 -0.25q-0.875 0 -1.484375 0.5625q-0.609375 0.546875 -0.703125 1.546875l4.375 0zm3.8624878 -1.84375q0.3125 -0.59375 0.875 -0.921875q0.5625 -0.328125 1.359375 -0.328125l0 1.1875l-0.296875 0q-1.9375 0 -1.9375 2.109375l0 3.765625l-1.15625 0l0 -6.9375l1.15625 0l0 1.125z" fill-rule="nonzero"/><path fill="#ffffff" d="m340.57254 281.0029l0 0c0 3.0332031 12.761658 5.4921265 28.503937 5.4921265c15.74231 0 28.503937 -2.4589233 28.503937 -5.4921265l0 32.95276c0 3.0332031 -12.761627 5.4921265 -28.503937 5.4921265c-15.742279 0 -28.503937 -2.4589233 -28.503937 -5.4921265z" fill-rule="evenodd"/><path fill="#ffffff" d="m340.57254 281.0029l0 0c0 -3.0332336 12.761658 -5.4921265 28.503937 -5.4921265c15.74231 0 28.503937 2.4588928 28.503937 5.4921265l0 0c0 3.0332031 -12.761627 5.4921265 -28.503937 5.4921265c-15.742279 0 -28.503937 -2.4589233 -28.503937 -5.4921265z" fill-rule="evenodd"/><path fill="#000000" fill-opacity="0.0" d="m397.5804 281.0029l0 0c0 3.0332031 -12.761627 5.4921265 -28.503937 5.4921265c-15.742279 0 -28.503937 -2.4589233 -28.503937 -5.4921265l0 0c0 -3.0332336 12.761658 -5.4921265 28.503937 -5.4921265c15.74231 0 28.503937 2.4588928 28.503937 5.4921265l0 32.95276c0 3.0332031 -12.761627 5.4921265 -28.503937 5.4921265c-15.742279 0 -28.503937 -2.4589233 -28.503937 -5.4921265l0 -32.95276" fill-rule="evenodd"/><path stroke="#4a86e8" stroke-width="1.0" stroke-linejoin="round" stroke-linecap="butt" d="m397.5804 281.0029l0 0c0 3.0332031 -12.761627 5.4921265 -28.503937 5.4921265c-15.742279 0 -28.503937 -2.4589233 -28.503937 -5.4921265l0 0c0 -3.0332336 12.761658 -5.4921265 28.503937 -5.4921265c15.74231 0 28.503937 2.4588928 28.503937 5.4921265l0 32.95276c0 3.0332031 -12.761627 5.4921265 -28.503937 5.4921265c-15.742279 0 -28.503937 -2.4589233 -28.503937 -5.4921265l0 -32.95276" fill-rule="evenodd"/><path fill="#000000" fill-opacity="0.0" d="m368.7824 205.09476l0.28347778 70.4252" fill-rule="evenodd"/><path stroke="#d63384" stroke-width="2.0" stroke-linejoin="round" stroke-linecap="butt" d="m368.78244 205.09476l0.23516846 58.425293" fill-rule="evenodd"/><path fill="#d63384" stroke="#d63384" stroke-width="2.0" stroke-linecap="butt" d="m365.71417 263.53336l3.3399658 9.062805l3.2669067 -9.0894165z" fill-rule="evenodd"/><path fill="#000000" fill-opacity="0.0" d="m498.8953 2.4425287l62.4252 0l0 37.385826l-62.4252 0z" fill-rule="evenodd"/><path fill="#ffffff" d="m517.22015 23.040653q-1.1875 0 -2.1875 -0.546875q-0.984375 -0.546875 -1.578125 -1.53125q-0.578125 -1.0 -0.578125 -2.234375q0 -1.234375 0.578125 -2.21875q0.59375 -0.98437405 1.578125 -1.531249q1.0 -0.5625 2.1875 -0.5625q1.1875 0 2.171875 0.5625q0.984375 0.546875 1.546875 1.531249q0.578125 0.984375 0.578125 2.21875q0 1.234375 -0.578125 2.234375q-0.5625 0.984375 -1.546875 1.53125q-0.984375 0.546875 -2.171875 0.546875zm0 -1.859375q1.0 0 1.609375 -0.671875q0.609375 -0.671875 0.609375 -1.78125q0 -1.125 -0.609375 -1.78125q-0.609375 -0.671875 -1.609375 -0.671875q-1.03125 0 -1.640625 0.671875q-0.59375 0.65625 -0.59375 1.78125q0 1.109375 0.59375 1.78125q0.609375 0.671875 1.640625 0.671875zm7.494568 -3.796875q0.359375 -0.546875 0.890625 -0.859375q0.546875 -0.328125 1.203125 -0.328125l0 2.171875l-0.5625 0q-0.765625 0 -1.15625 0.328125q-0.375 0.328125 -0.375 1.15625l0 3.109375l-2.046875 0l0 -6.703125l2.046875 0l0 1.125zm2.6828613 2.21875q0 -1.03125 0.375 -1.8125q0.390625 -0.78125 1.0625 -1.203125q0.671875 -0.421875 1.5 -0.421875q0.671875 0 1.21875 0.28125q0.546875 0.28125 0.859375 0.75l0 -3.109374l2.046875 0l0 8.874999l-2.046875 0l0 -0.953125q-0.296875 0.46875 -0.828125 0.765625q-0.53125 0.28125 -1.25 0.28125q-0.828125 0 -1.5 -0.421875q-0.671875 -0.421875 -1.0625 -1.203125q-0.375 -0.796875 -0.375 -1.828125zm5.015625 0.015625q0 -0.765625 -0.4375 -1.203125q-0.421875 -0.453125 -1.03125 -0.453125q-0.609375 0 -1.046875 0.4375q-0.421875 0.4375 -0.421875 1.203125q0 0.765625 0.421875 1.21875q0.4375 0.453125 1.046875 0.453125q0.609375 0 1.03125 -0.4375q0.4375 -0.453125 0.4375 -1.21875zm9.851196 -0.109375q0 0.28125 -0.046875 0.59375l-4.640625 0q0.046875 0.625 0.390625 0.953125q0.359375 0.328125 0.875 0.328125q0.78125 0 1.078125 -0.640625l2.1875 0q-0.171875 0.65625 -0.609375 1.1875q-0.4375 0.53125 -1.109375 0.828125q-0.65625 0.296875 -1.46875 0.296875q-0.984375 0 -1.75 -0.421875q-0.765625 -0.421875 -1.203125 -1.1875q-0.421875 -0.78125 -0.421875 -1.828125q0 -1.046875 0.421875 -1.828125q0.421875 -0.78125 1.1875 -1.203125q0.765625 -0.421875 1.765625 -0.421875q0.96875 0 1.71875 0.421875q0.765625 0.40625 1.1875 1.15625q0.4375 0.75 0.4375 1.765625zm-2.109375 -0.546875q0 -0.53125 -0.359375 -0.828125q-0.359375 -0.3125 -0.890625 -0.3125q-0.515625 0 -0.875 0.296875q-0.359375 0.296875 -0.4375 0.84375l2.5625 0zm5.23584 -1.578125q0.359375 -0.546875 0.890625 -0.859375q0.546875 -0.328125 1.203125 -0.328125l0 2.171875l-0.5625 0q-0.765625 0 -1.15625 0.328125q-0.375 0.328125 -0.375 1.15625l0 3.109375l-2.046875 0l0 -6.703125l2.046875 0l0 1.125z" fill-rule="nonzero"/><path fill="#ffffff" d="m512.2104 33.14378q0 -1.25 0.53125 -2.21875q0.546875 -0.984375 1.515625 -1.53125q0.96875 -0.546875 2.1875 -0.546875q1.5 0 2.5625 0.796875q1.078125 0.78125 1.4375 2.15625l-2.25 0q-0.25 -0.53125 -0.71875 -0.796875q-0.453125 -0.28125 -1.046875 -0.28125q-0.953125 0 -1.546875 0.65625q-0.578125 0.65625 -0.578125 1.765625q0 1.09375 0.578125 1.765625q0.59375 0.65625 1.546875 0.65625q0.59375 0 1.046875 -0.28125q0.46875 -0.28125 0.71875 -0.796875l2.25 0q-0.359375 1.359375 -1.4375 2.15625q-1.0625 0.78125 -2.5625 0.78125q-1.21875 0 -2.1875 -0.546875q-0.96875 -0.546875 -1.515625 -1.515625q-0.53125 -0.96875 -0.53125 -2.21875zm11.550293 -4.65625l0 8.875l-2.046875 0l0 -8.875l2.046875 0zm2.524414 1.484375q-0.546875 0 -0.890625 -0.3125q-0.34375 -0.328125 -0.34375 -0.796875q0 -0.46875 0.34375 -0.78125q0.34375 -0.328125 0.890625 -0.328125q0.515625 0 0.859375 0.328125q0.34375 0.3125 0.34375 0.78125q0 0.46875 -0.34375 0.796875q-0.34375 0.3125 -0.859375 0.3125zm1.015625 0.6875l0 6.703125l-2.046875 0l0 -6.703125l2.046875 0zm7.805664 3.25q0 0.28125 -0.046875 0.59375l-4.640625 0q0.046875 0.625 0.390625 0.953125q0.359375 0.328125 0.875 0.328125q0.78125 0 1.078125 -0.640625l2.1875 0q-0.171875 0.65625 -0.609375 1.1875q-0.4375 0.53125 -1.109375 0.828125q-0.65625 0.296875 -1.46875 0.296875q-0.984375 0 -1.75 -0.421875q-0.765625 -0.421875 -1.203125 -1.1875q-0.421875 -0.78125 -0.421875 -1.828125q0 -1.046875 0.421875 -1.828125q0.421875 -0.78125 1.1875 -1.203125q0.765625 -0.421875 1.765625 -0.421875q0.96875 0 1.71875 0.421875q0.765625 0.40625 1.1875 1.15625q0.4375 0.75 0.4375 1.765625zm-2.109375 -0.546875q0 -0.53125 -0.359375 -0.828125q-0.359375 -0.3125 -0.890625 -0.3125q-0.515625 0 -0.875 0.296875q-0.359375 0.296875 -0.4375 0.84375l2.5625 0zm7.267029 -2.765625q1.171875 0 1.875 0.765625q0.703125 0.75 0.703125 2.09375l0 3.90625l-2.046875 0l0 -3.640625q0 -0.671875 -0.34375 -1.03125q-0.34375 -0.375 -0.9375 -0.375q-0.59375 0 -0.9375 0.375q-0.34375 0.359375 -0.34375 1.03125l0 3.640625l-2.046875 0l0 -6.703125l2.046875 0l0 0.890625q0.3125 -0.4375 0.828125 -0.6875q0.53125 -0.265625 1.203125 -0.265625zm7.7286987 5.03125l0 1.734375l-1.03125 0q-1.125 0 -1.75 -0.546875q-0.625 -0.546875 -0.625 -1.78125l0 -2.65625l-0.8125 0l0 -1.71875l0.8125 0l0 -1.625l2.0625 0l0 1.625l1.34375 0l0 1.71875l-1.34375 0l0 2.6875q0 0.296875 0.140625 0.4375q0.140625 0.125 0.484375 0.125l0.71875 0z" fill-rule="nonzero"/><path fill="#000000" fill-opacity="0.0" d="m594.89526 2.4425287l84.0 0l0 37.385826l-84.0 0z" fill-rule="evenodd"/><path fill="#ffffff" d="m615.39136 14.540654q1.328125 0 2.3125 0.53125q1.0 0.515625 1.546875 1.484374q0.546875 0.953125 0.546875 2.1875q0 1.25 -0.546875 2.203125q-0.546875 0.953125 -1.546875 1.484375q-1.0 0.53125 -2.3125 0.53125l-3.15625 0l0 -8.421874l3.15625 0zm-0.140625 6.640624q1.171875 0 1.8125 -0.625q0.65625 -0.640625 0.65625 -1.8125q0 -1.15625 -0.65625 -1.796875q-0.640625 -0.65625 -1.8125 -0.65625l-0.96875 0l0 4.890625l0.96875 0zm12.020935 -1.671875q0 0.28125 -0.046875 0.59375l-4.640625 0q0.046875 0.625 0.390625 0.953125q0.359375 0.328125 0.875 0.328125q0.78125 0 1.078125 -0.640625l2.1875 0q-0.171875 0.65625 -0.609375 1.1875q-0.4375 0.53125 -1.109375 0.828125q-0.65625 0.296875 -1.46875 0.296875q-0.984375 0 -1.75 -0.421875q-0.765625 -0.421875 -1.203125 -1.1875q-0.421875 -0.78125 -0.421875 -1.828125q0 -1.046875 0.421875 -1.828125q0.421875 -0.78125 1.1875 -1.203125q0.765625 -0.421875 1.765625 -0.421875q0.96875 0 1.71875 0.421875q0.765625 0.40625 1.1875 1.15625q0.4375 0.75 0.4375 1.765625zm-2.109375 -0.546875q0 -0.53125 -0.359375 -0.828125q-0.359375 -0.3125 -0.890625 -0.3125q-0.515625 0 -0.875 0.296875q-0.359375 0.296875 -0.4375 0.84375l2.5625 0zm5.235779 -4.874999l0 8.874999l-2.046875 0l0 -8.874999l2.046875 0zm2.524414 1.484375q-0.546875 0 -0.890625 -0.3125q-0.34375 -0.328125 -0.34375 -0.796875q0 -0.46875 0.34375 -0.78125q0.34375 -0.328125 0.890625 -0.328125q0.515625 0 0.859375 0.328125q0.34375 0.3125 0.34375 0.78125q0 0.46875 -0.34375 0.796875q-0.34375 0.3125 -0.859375 0.3125zm1.015625 0.68749905l0 6.703125l-2.046875 0l0 -6.703125l2.046875 0zm4.493164 4.78125l1.453125 -4.78125l2.1875 0l-2.375 6.703125l-2.53125 0l-2.375 -6.703125l2.1875 0l1.453125 4.78125zm10.824524 -1.53125q0 0.28125 -0.046875 0.59375l-4.640625 0q0.046875 0.625 0.390625 0.953125q0.359375 0.328125 0.875 0.328125q0.78125 0 1.078125 -0.640625l2.1875 0q-0.171875 0.65625 -0.609375 1.1875q-0.4375 0.53125 -1.109375 0.828125q-0.65625 0.296875 -1.46875 0.296875q-0.984375 0 -1.75 -0.421875q-0.765625 -0.421875 -1.203125 -1.1875q-0.421875 -0.78125 -0.421875 -1.828125q0 -1.046875 0.421875 -1.828125q0.421875 -0.78125 1.1875 -1.203125q0.765625 -0.421875 1.765625 -0.421875q0.96875 0 1.71875 0.421875q0.765625 0.40625 1.1875 1.15625q0.4375 0.75 0.4375 1.765625zm-2.109375 -0.546875q0 -0.53125 -0.359375 -0.828125q-0.359375 -0.3125 -0.890625 -0.3125q-0.515625 0 -0.875 0.296875q-0.359375 0.296875 -0.4375 0.84375l2.5625 0zm5.23584 -1.578125q0.359375 -0.546875 0.890625 -0.859375q0.546875 -0.328125 1.203125 -0.328125l0 2.171875l-0.5625 0q-0.765625 0 -1.15625 0.328125q-0.375 0.328125 -0.375 1.15625l0 3.109375l-2.046875 0l0 -6.703125l2.046875 0l0 1.125zm9.917297 -1.125l-4.1875 9.890625l-2.21875 0l1.546875 -3.421875l-2.734375 -6.46875l2.296875 0l1.546875 4.1875l1.53125 -4.1875l2.21875 0z" fill-rule="nonzero"/><path fill="#ffffff" d="m618.9978 33.14378q0 -1.25 0.53125 -2.21875q0.546875 -0.984375 1.515625 -1.53125q0.96875 -0.546875 2.1875 -0.546875q1.5 0 2.5625 0.796875q1.078125 0.78125 1.4375 2.15625l-2.25 0q-0.25 -0.53125 -0.71875 -0.796875q-0.453125 -0.28125 -1.046875 -0.28125q-0.953125 0 -1.546875 0.65625q-0.578125 0.65625 -0.578125 1.765625q0 1.09375 0.578125 1.765625q0.59375 0.65625 1.546875 0.65625q0.59375 0 1.046875 -0.28125q0.46875 -0.28125 0.71875 -0.796875l2.25 0q-0.359375 1.359375 -1.4375 2.15625q-1.0625 0.78125 -2.5625 0.78125q-1.21875 0 -2.1875 -0.546875q-0.96875 -0.546875 -1.515625 -1.515625q-0.53125 -0.96875 -0.53125 -2.21875zm11.550293 -4.65625l0 8.875l-2.046875 0l0 -8.875l2.046875 0zm2.524414 1.484375q-0.546875 0 -0.890625 -0.3125q-0.34375 -0.328125 -0.34375 -0.796875q0 -0.46875 0.34375 -0.78125q0.34375 -0.328125 0.890625 -0.328125q0.515625 0 0.859375 0.328125q0.34375 0.3125 0.34375 0.78125q0 0.46875 -0.34375 0.796875q-0.34375 0.3125 -0.859375 0.3125zm1.015625 0.6875l0 6.703125l-2.046875 0l0 -6.703125l2.046875 0zm7.805603 3.25q0 0.28125 -0.046875 0.59375l-4.640625 0q0.046875 0.625 0.390625 0.953125q0.359375 0.328125 0.875 0.328125q0.78125 0 1.078125 -0.640625l2.1875 0q-0.171875 0.65625 -0.609375 1.1875q-0.4375 0.53125 -1.109375 0.828125q-0.65625 0.296875 -1.46875 0.296875q-0.984375 0 -1.75 -0.421875q-0.765625 -0.421875 -1.203125 -1.1875q-0.421875 -0.78125 -0.421875 -1.828125q0 -1.046875 0.421875 -1.828125q0.421875 -0.78125 1.1875 -1.203125q0.765625 -0.421875 1.765625 -0.421875q0.96875 0 1.71875 0.421875q0.765625 0.40625 1.1875 1.15625q0.4375 0.75 0.4375 1.765625zm-2.109375 -0.546875q0 -0.53125 -0.359375 -0.828125q-0.359375 -0.3125 -0.890625 -0.3125q-0.515625 0 -0.875 0.296875q-0.359375 0.296875 -0.4375 0.84375l2.5625 0zm7.26709 -2.765625q1.171875 0 1.875 0.765625q0.703125 0.75 0.703125 2.09375l0 3.90625l-2.046875 0l0 -3.640625q0 -0.671875 -0.34375 -1.03125q-0.34375 -0.375 -0.9375 -0.375q-0.59375 0 -0.9375 0.375q-0.34375 0.359375 -0.34375 1.03125l0 3.640625l-2.046875 0l0 -6.703125l2.046875 0l0 0.890625q0.3125 -0.4375 0.828125 -0.6875q0.53125 -0.265625 1.203125 -0.265625zm7.7286987 5.03125l0 1.734375l-1.03125 0q-1.125 0 -1.75 -0.546875q-0.625 -0.546875 -0.625 -1.78125l0 -2.65625l-0.8125 0l0 -1.71875l0.8125 0l0 -1.625l2.0625 0l0 1.625l1.34375 0l0 1.71875l-1.34375 0l0 2.6875q0 0.296875 0.140625 0.4375q0.140625 0.125 0.484375 0.125l0.71875 0z" fill-rule="nonzero"/><path fill="#ffffff" d="m440.86905 153.06326l106.519684 0l0 52.031494l-106.519684 0z" fill-rule="evenodd"/><path stroke="#326de6" stroke-width="1.0" stroke-linejoin="round" stroke-linecap="butt" d="m440.86905 153.06326l106.519684 0l0 52.031494l-106.519684 0z" fill-rule="evenodd"/><path fill="#000000" d="m472.94022 174.81088q1.4375 0 2.5 0.546875q1.0625 0.53125 1.625 1.53125q0.5625 1.0 0.5625 2.359375q0 1.359375 -0.5625 2.359375q-0.5625 0.984375 -1.625 1.515625q-1.0625 0.515625 -2.5 0.515625l-2.75 0l0 -8.828125l2.75 0zm0 7.875q1.703125 0 2.609375 -0.90625q0.90625 -0.90625 0.90625 -2.53125q0 -1.640625 -0.90625 -2.5625q-0.90625 -0.9375 -2.609375 -0.9375l-1.59375 0l0 6.9375l1.59375 0zm12.526062 -2.78125q0 0.328125 -0.03125 0.703125l-5.546875 0q0.0625 1.015625 0.703125 1.59375q0.640625 0.578125 1.546875 0.578125q0.75 0 1.25 -0.34375q0.5 -0.359375 0.703125 -0.9375l1.234375 0q-0.265625 1.0 -1.109375 1.625q-0.828125 0.625 -2.078125 0.625q-0.984375 0 -1.765625 -0.4375q-0.765625 -0.4375 -1.21875 -1.25q-0.4375 -0.828125 -0.4375 -1.90625q0 -1.078125 0.421875 -1.875q0.4375 -0.8125 1.21875 -1.25q0.78125 -0.4375 1.78125 -0.4375q1.0 0 1.75 0.4375q0.765625 0.421875 1.171875 1.171875q0.40625 0.75 0.40625 1.703125zm-1.1875 -0.234375q0 -0.65625 -0.296875 -1.125q-0.28125 -0.484375 -0.78125 -0.734375q-0.5 -0.25 -1.109375 -0.25q-0.875 0 -1.484375 0.5625q-0.609375 0.546875 -0.703125 1.546875l4.375 0zm3.8624573 -5.390625l0 9.359375l-1.15625 0l0 -9.359375l1.15625 0zm2.5509338 1.296875q-0.328125 0 -0.5625 -0.21875q-0.21875 -0.234375 -0.21875 -0.5625q0 -0.328125 0.21875 -0.546875q0.234375 -0.234375 0.5625 -0.234375q0.328125 0 0.546875 0.234375q0.21875 0.21875 0.21875 0.546875q0 0.328125 -0.21875 0.5625q-0.21875 0.21875 -0.546875 0.21875zm0.5625 1.125l0 6.9375l-1.15625 0l0 -6.9375l1.15625 0zm4.550934 5.875l2.140625 -5.875l1.234375 0l-2.71875 6.9375l-1.34375 0l-2.71875 -6.9375l1.234375 0l2.171875 5.875zm10.834503 -2.671875q0 0.328125 -0.03125 0.703125l-5.546875 0q0.0625 1.015625 0.703125 1.59375q0.640625 0.578125 1.546875 0.578125q0.75 0 1.25 -0.34375q0.5 -0.359375 0.703125 -0.9375l1.234375 0q-0.265625 1.0 -1.109375 1.625q-0.828125 0.625 -2.078125 0.625q-0.984375 0 -1.765625 -0.4375q-0.765625 -0.4375 -1.21875 -1.25q-0.4375 -0.828125 -0.4375 -1.90625q0 -1.078125 0.421875 -1.875q0.4375 -0.8125 1.21875 -1.25q0.78125 -0.4375 1.78125 -0.4375q1.0 0 1.75 0.4375q0.765625 0.421875 1.171875 1.171875q0.40625 0.75 0.40625 1.703125zm-1.1875 -0.234375q0 -0.65625 -0.296875 -1.125q-0.28125 -0.484375 -0.78125 -0.734375q-0.5 -0.25 -1.109375 -0.25q-0.875 0 -1.484375 0.5625q-0.609375 0.546875 -0.703125 1.546875l4.375 0zm3.8624878 -1.84375q0.3125 -0.59375 0.875 -0.921875q0.5625 -0.328125 1.359375 -0.328125l0 1.1875l-0.296875 0q-1.9375 0 -1.9375 2.109375l0 3.765625l-1.15625 0l0 -6.9375l1.15625 0l0 1.125zm9.548859 -1.125l-4.1875 10.203125l-1.1875 0l1.375 -3.34375l-2.796875 -6.859375l1.28125 0l2.171875 5.625l2.15625 -5.625l1.1875 0z" fill-rule="nonzero"/><path fill="#ffffff" d="m557.03986 281.0029l0 0c0 3.0332031 12.761658 5.4921265 28.503906 5.4921265c15.74231 0 28.503967 -2.4589233 28.503967 -5.4921265l0 32.95276c0 3.0332031 -12.761658 5.4921265 -28.503967 5.4921265c-15.742249 0 -28.503906 -2.4589233 -28.503906 -5.4921265z" fill-rule="evenodd"/><path fill="#ffffff" d="m557.03986 281.0029l0 0c0 -3.0332336 12.761658 -5.4921265 28.503906 -5.4921265c15.74231 0 28.503967 2.4588928 28.503967 5.4921265l0 0c0 3.0332031 -12.761658 5.4921265 -28.503967 5.4921265c-15.742249 0 -28.503906 -2.4589233 -28.503906 -5.4921265z" fill-rule="evenodd"/><path fill="#000000" fill-opacity="0.0" d="m614.0477 281.0029l0 0c0 3.0332031 -12.761658 5.4921265 -28.503967 5.4921265c-15.742249 0 -28.503906 -2.4589233 -28.503906 -5.4921265l0 0c0 -3.0332336 12.761658 -5.4921265 28.503906 -5.4921265c15.74231 0 28.503967 2.4588928 28.503967 5.4921265l0 32.95276c0 3.0332031 -12.761658 5.4921265 -28.503967 5.4921265c-15.742249 0 -28.503906 -2.4589233 -28.503906 -5.4921265l0 -32.95276" fill-rule="evenodd"/><path stroke="#4a86e8" stroke-width="1.0" stroke-linejoin="round" stroke-linecap="butt" d="m614.0477 281.0029l0 0c0 3.0332031 -12.761658 5.4921265 -28.503967 5.4921265c-15.742249 0 -28.503906 -2.4589233 -28.503906 -5.4921265l0 0c0 -3.0332336 12.761658 -5.4921265 28.503906 -5.4921265c15.74231 0 28.503967 2.4588928 28.503967 5.4921265l0 32.95276c0 3.0332031 -12.761658 5.4921265 -28.503967 5.4921265c-15.742249 0 -28.503906 -2.4589233 -28.503906 -5.4921265l0 -32.95276" fill-rule="evenodd"/><path fill="#e3f7ed" d="m607.47534 118.35985l170.5827 0l0 133.00787l-170.5827 0z" fill-rule="evenodd"/><path fill="#000000" d="m630.15906 135.09798q0 -1.28125 0.578125 -2.3125q0.578125 -1.03125 1.578125 -1.609375q1.015625 -0.59375 2.25 -0.59375q1.4375 0 2.515625 0.703125q1.078125 0.6875 1.5625 1.96875l-1.375 0q-0.359375 -0.796875 -1.0625 -1.21875q-0.6875 -0.4375 -1.640625 -0.4375q-0.921875 0 -1.65625 0.4375q-0.734375 0.421875 -1.15625 1.21875q-0.421875 0.78125 -0.421875 1.84375q0 1.0625 0.421875 1.859375q0.421875 0.78125 1.15625 1.21875q0.734375 0.421875 1.65625 0.421875q0.953125 0 1.640625 -0.421875q0.703125 -0.421875 1.0625 -1.21875l1.375 0q-0.484375 1.265625 -1.5625 1.953125q-1.078125 0.6875 -2.515625 0.6875q-1.234375 0 -2.25 -0.578125q-1.0 -0.578125 -1.578125 -1.59375q-0.578125 -1.03125 -0.578125 -2.328125zm13.223694 4.53125q-0.96875 0 -1.765625 -0.4375q-0.796875 -0.4375 -1.25 -1.25q-0.4375 -0.828125 -0.4375 -1.90625q0 -1.0625 0.453125 -1.875q0.46875 -0.8125 1.265625 -1.25q0.796875 -0.4375 1.78125 -0.4375q0.984375 0 1.78125 0.4375q0.796875 0.4375 1.265625 1.25q0.46875 0.796875 0.46875 1.875q0 1.078125 -0.484375 1.90625q-0.46875 0.8125 -1.28125 1.25q-0.8125 0.4375 -1.796875 0.4375zm0 -1.015625q0.625 0 1.15625 -0.28125q0.546875 -0.296875 0.875 -0.875q0.34375 -0.578125 0.34375 -1.421875q0 -0.828125 -0.328125 -1.40625q-0.328125 -0.59375 -0.859375 -0.875q-0.53125 -0.28125 -1.15625 -0.28125q-0.625 0 -1.15625 0.28125q-0.515625 0.28125 -0.84375 0.875q-0.3125 0.578125 -0.3125 1.40625q0 0.859375 0.3125 1.4375q0.3125 0.578125 0.828125 0.859375q0.515625 0.28125 1.140625 0.28125zm8.459351 -6.15625q1.265625 0 2.046875 0.765625q0.78125 0.765625 0.78125 2.203125l0 4.09375l-1.140625 0l0 -3.921875q0 -1.046875 -0.515625 -1.59375q-0.515625 -0.546875 -1.421875 -0.546875q-0.90625 0 -1.453125 0.578125q-0.53125 0.5625 -0.53125 1.65625l0 3.828125l-1.15625 0l0 -6.9375l1.15625 0l0 0.984375q0.34375 -0.53125 0.921875 -0.8125q0.59375 -0.296875 1.3125 -0.296875zm6.1156006 1.078125l0 4.09375q0 0.5 0.21875 0.71875q0.21875 0.203125 0.75 0.203125l0.84375 0l0 0.96875l-1.03125 0q-0.96875 0 -1.453125 -0.4375q-0.46875 -0.453125 -0.46875 -1.453125l0 -4.09375l-0.90625 0l0 -0.953125l0.90625 0l0 -1.75l1.140625 0l0 1.75l1.8125 0l0 0.953125l-1.8125 0zm2.7787476 2.484375q0 -1.0625 0.421875 -1.859375q0.4375 -0.796875 1.1875 -1.234375q0.75 -0.453125 1.671875 -0.453125q0.921875 0 1.59375 0.390625q0.671875 0.390625 1.0 0.984375l0 -1.265625l1.15625 0l0 6.9375l-1.15625 0l0 -1.296875q-0.34375 0.609375 -1.03125 1.015625q-0.671875 0.390625 -1.5625 0.390625q-0.9375 0 -1.6875 -0.453125q-0.734375 -0.453125 -1.171875 -1.265625q-0.421875 -0.828125 -0.421875 -1.890625zm5.875 0.015625q0 -0.78125 -0.328125 -1.359375q-0.3125 -0.578125 -0.859375 -0.890625q-0.53125 -0.3125 -1.171875 -0.3125q-0.640625 0 -1.171875 0.3125q-0.53125 0.296875 -0.859375 0.875q-0.3125 0.578125 -0.3125 1.359375q0 0.796875 0.3125 1.390625q0.328125 0.59375 0.859375 0.90625q0.53125 0.296875 1.171875 0.296875q0.640625 0 1.171875 -0.296875q0.546875 -0.3125 0.859375 -0.90625q0.328125 -0.59375 0.328125 -1.375zm3.696228 -4.578125q-0.328125 0 -0.5625 -0.21875q-0.21875 -0.234375 -0.21875 -0.5625q0 -0.328125 0.21875 -0.546875q0.234375 -0.234375 0.5625 -0.234375q0.328125 0 0.546875 0.234375q0.21875 0.21875 0.21875 0.546875q0 0.328125 -0.21875 0.5625q-0.21875 0.21875 -0.546875 0.21875zm0.5625 1.125l0 6.9375l-1.15625 0l0 -6.9375l1.15625 0zm5.3478394 -0.125q1.265625 0 2.046875 0.765625q0.78125 0.765625 0.78125 2.203125l0 4.09375l-1.140625 0l0 -3.921875q0 -1.046875 -0.515625 -1.59375q-0.515625 -0.546875 -1.421875 -0.546875q-0.90625 0 -1.453125 0.578125q-0.53125 0.5625 -0.53125 1.65625l0 3.828125l-1.15625 0l0 -6.9375l1.15625 0l0 0.984375q0.34375 -0.53125 0.921875 -0.8125q0.59375 -0.296875 1.3125 -0.296875zm11.037476 3.328125q0 0.328125 -0.03125 0.703125l-5.546875 0q0.0625 1.015625 0.703125 1.59375q0.640625 0.578125 1.546875 0.578125q0.75 0 1.25 -0.34375q0.5 -0.359375 0.703125 -0.9375l1.234375 0q-0.265625 1.0 -1.109375 1.625q-0.828125 0.625 -2.078125 0.625q-0.984375 0 -1.765625 -0.4375q-0.765625 -0.4375 -1.21875 -1.25q-0.4375 -0.828125 -0.4375 -1.90625q0 -1.078125 0.421875 -1.875q0.4375 -0.8125 1.21875 -1.25q0.78125 -0.4375 1.78125 -0.4375q1.0 0 1.75 0.4375q0.765625 0.421875 1.171875 1.171875q0.40625 0.75 0.40625 1.703125zm-1.1875 -0.234375q0 -0.65625 -0.296875 -1.125q-0.28125 -0.484375 -0.78125 -0.734375q-0.5 -0.25 -1.109375 -0.25q-0.875 0 -1.484375 0.5625q-0.609375 0.546875 -0.703125 1.546875l4.375 0zm3.8624268 -1.84375q0.3125 -0.59375 0.875 -0.921875q0.5625 -0.328125 1.359375 -0.328125l0 1.1875l-0.296875 0q-1.9375 0 -1.9375 2.109375l0 3.765625l-1.15625 0l0 -6.9375l1.15625 0l0 1.125zm18.037476 -3.015625l-2.5625 8.828125l-1.28125 0l-2.0625 -7.09375l-2.125 7.09375l-1.265625 0.015625l-2.46875 -8.84375l1.21875 0l1.921875 7.484375l2.125 -7.484375l1.296875 0l2.03125 7.46875l1.9375 -7.46875l1.234375 0zm4.289978 8.9375q-0.96875 0 -1.765625 -0.4375q-0.796875 -0.4375 -1.25 -1.25q-0.4375 -0.828125 -0.4375 -1.90625q0 -1.0625 0.453125 -1.875q0.46875 -0.8125 1.265625 -1.25q0.796875 -0.4375 1.78125 -0.4375q0.984375 0 1.78125 0.4375q0.796875 0.4375 1.265625 1.25q0.46875 0.796875 0.46875 1.875q0 1.078125 -0.484375 1.90625q-0.46875 0.8125 -1.28125 1.25q-0.8125 0.4375 -1.796875 0.4375zm0 -1.015625q0.625 0 1.15625 -0.28125q0.546875 -0.296875 0.875 -0.875q0.34375 -0.578125 0.34375 -1.421875q0 -0.828125 -0.328125 -1.40625q-0.328125 -0.59375 -0.859375 -0.875q-0.53125 -0.28125 -1.15625 -0.28125q-0.625 0 -1.15625 0.28125q-0.515625 0.28125 -0.84375 0.875q-0.3125 0.578125 -0.3125 1.40625q0 0.859375 0.3125 1.4375q0.3125 0.578125 0.828125 0.859375q0.515625 0.28125 1.140625 0.28125zm6.2249756 -4.90625q0.3125 -0.59375 0.875 -0.921875q0.5625 -0.328125 1.359375 -0.328125l0 1.1875l-0.296875 0q-1.9375 0 -1.9375 2.109375l0 3.765625l-1.15625 0l0 -6.9375l1.15625 0l0 1.125zm7.439514 5.8125l-2.71875 -3.0625l0 3.0625l-1.15625 0l0 -9.359375l1.15625 0l0 5.5l2.671875 -3.078125l1.609375 0l-3.265625 3.453125l3.28125 3.484375l-1.578125 0zm3.7991943 -9.359375l0 9.359375l-1.15625 0l0 -9.359375l1.15625 0zm4.9884644 9.46875q-0.96875 0 -1.765625 -0.4375q-0.796875 -0.4375 -1.25 -1.25q-0.4375 -0.828125 -0.4375 -1.90625q0 -1.0625 0.453125 -1.875q0.46875 -0.8125 1.265625 -1.25q0.796875 -0.4375 1.78125 -0.4375q0.98431396 0 1.781189 0.4375q0.796875 0.4375 1.265625 1.25q0.46875 0.796875 0.46875 1.875q0 1.078125 -0.484375 1.90625q-0.46875 0.8125 -1.28125 1.25q-0.8125 0.4375 -1.796814 0.4375zm0 -1.015625q0.625 0 1.156189 -0.28125q0.546875 -0.296875 0.875 -0.875q0.34375 -0.578125 0.34375 -1.421875q0 -0.828125 -0.328125 -1.40625q-0.328125 -0.59375 -0.859375 -0.875q-0.53118896 -0.28125 -1.156189 -0.28125q-0.625 0 -1.15625 0.28125q-0.515625 0.28125 -0.84375 0.875q-0.3125 0.578125 -0.3125 1.40625q0 0.859375 0.3125 1.4375q0.3125 0.578125 0.828125 0.859375q0.515625 0.28125 1.140625 0.28125zm4.6467896 -2.59375q0 -1.0625 0.421875 -1.859375q0.4375 -0.796875 1.1875 -1.234375q0.75 -0.453125 1.671875 -0.453125q0.921875 0 1.59375 0.390625q0.671875 0.390625 1.0 0.984375l0 -1.265625l1.15625 0l0 6.9375l-1.15625 0l0 -1.296875q-0.34375 0.609375 -1.03125 1.015625q-0.671875 0.390625 -1.5625 0.390625q-0.9375 0 -1.6875 -0.453125q-0.734375 -0.453125 -1.171875 -1.265625q-0.421875 -0.828125 -0.421875 -1.890625zm5.875 0.015625q0 -0.78125 -0.328125 -1.359375q-0.3125 -0.578125 -0.859375 -0.890625q-0.53125 -0.3125 -1.171875 -0.3125q-0.640625 0 -1.171875 0.3125q-0.53125 0.296875 -0.859375 0.875q-0.3125 0.578125 -0.3125 1.359375q0 0.796875 0.3125 1.390625q0.328125 0.59375 0.859375 0.90625q0.53125 0.296875 1.171875 0.296875q0.640625 0 1.171875 -0.296875q0.546875 -0.3125 0.859375 -0.90625q0.328125 -0.59375 0.328125 -1.375zm2.680603 -0.015625q0 -1.0625 0.421875 -1.859375q0.4375 -0.796875 1.1875 -1.234375q0.75 -0.453125 1.6875 -0.453125q0.8125 0 1.5 0.375q0.703125 0.375 1.078125 0.984375l0 -3.671875l1.15625 0l0 9.359375l-1.15625 0l0 -1.296875q-0.34375 0.609375 -1.015625 1.015625q-0.671875 0.390625 -1.578125 0.390625q-0.921875 0 -1.671875 -0.453125q-0.75 -0.453125 -1.1875 -1.265625q-0.421875 -0.828125 -0.421875 -1.890625zm5.875 0.015625q0 -0.78125 -0.328125 -1.359375q-0.3125 -0.578125 -0.859375 -0.890625q-0.53125 -0.3125 -1.171875 -0.3125q-0.640625 0 -1.171875 0.3125q-0.53125 0.296875 -0.859375 0.875q-0.3125 0.578125 -0.3125 1.359375q0 0.796875 0.3125 1.390625q0.328125 0.59375 0.859375 0.90625q0.53125 0.296875 1.171875 0.296875q0.640625 0 1.171875 -0.296875q0.546875 -0.3125 0.859375 -0.90625q0.328125 -0.59375 0.328125 -1.375z" fill-rule="nonzero"/><path fill="#ffffff" d="m640.869 153.06326l106.519714 0l0 52.031494l-106.519714 0z" fill-rule="evenodd"/><path stroke="#99e0bb" stroke-width="1.0" stroke-linejoin="round" stroke-linecap="butt" d="m640.869 153.06326l106.519714 0l0 52.031494l-106.519714 0z" fill-rule="evenodd"/><path fill="#000000" d="m672.9402 174.81088q1.4375 0 2.5 0.546875q1.0625 0.53125 1.625 1.53125q0.5625 1.0 0.5625 2.359375q0 1.359375 -0.5625 2.359375q-0.5625 0.984375 -1.625 1.515625q-1.0625 0.515625 -2.5 0.515625l-2.75 0l0 -8.828125l2.75 0zm0 7.875q1.703125 0 2.609375 -0.90625q0.90625 -0.90625 0.90625 -2.53125q0 -1.640625 -0.90625 -2.5625q-0.90625 -0.9375 -2.609375 -0.9375l-1.59375 0l0 6.9375l1.59375 0zm12.526062 -2.78125q0 0.328125 -0.03125 0.703125l-5.546875 0q0.0625 1.015625 0.703125 1.59375q0.640625 0.578125 1.546875 0.578125q0.75 0 1.25 -0.34375q0.5 -0.359375 0.703125 -0.9375l1.234375 0q-0.265625 1.0 -1.109375 1.625q-0.828125 0.625 -2.078125 0.625q-0.984375 0 -1.765625 -0.4375q-0.765625 -0.4375 -1.21875 -1.25q-0.4375 -0.828125 -0.4375 -1.90625q0 -1.078125 0.421875 -1.875q0.4375 -0.8125 1.21875 -1.25q0.78125 -0.4375 1.78125 -0.4375q1.0 0 1.75 0.4375q0.765625 0.421875 1.171875 1.171875q0.40625 0.75 0.40625 1.703125zm-1.1875 -0.234375q0 -0.65625 -0.296875 -1.125q-0.28125 -0.484375 -0.78125 -0.734375q-0.5 -0.25 -1.109375 -0.25q-0.875 0 -1.484375 0.5625q-0.609375 0.546875 -0.703125 1.546875l4.375 0zm3.8624878 -5.390625l0 9.359375l-1.15625 0l0 -9.359375l1.15625 0zm2.5509644 1.296875q-0.328125 0 -0.5625 -0.21875q-0.21875 -0.234375 -0.21875 -0.5625q0 -0.328125 0.21875 -0.546875q0.234375 -0.234375 0.5625 -0.234375q0.328125 0 0.546875 0.234375q0.21875 0.21875 0.21875 0.546875q0 0.328125 -0.21875 0.5625q-0.21875 0.21875 -0.546875 0.21875zm0.5625 1.125l0 6.9375l-1.15625 0l0 -6.9375l1.15625 0zm4.5509033 5.875l2.140625 -5.875l1.234375 0l-2.71875 6.9375l-1.34375 0l-2.71875 -6.9375l1.234375 0l2.171875 5.875zm10.834534 -2.671875q0 0.328125 -0.03125 0.703125l-5.546875 0q0.0625 1.015625 0.703125 1.59375q0.640625 0.578125 1.546875 0.578125q0.75 0 1.25 -0.34375q0.5 -0.359375 0.703125 -0.9375l1.234375 0q-0.265625 1.0 -1.109375 1.625q-0.828125 0.625 -2.078125 0.625q-0.984375 0 -1.765625 -0.4375q-0.765625 -0.4375 -1.21875 -1.25q-0.4375 -0.828125 -0.4375 -1.90625q0 -1.078125 0.421875 -1.875q0.4375 -0.8125 1.21875 -1.25q0.78125 -0.4375 1.78125 -0.4375q1.0 0 1.75 0.4375q0.765625 0.421875 1.171875 1.171875q0.40625 0.75 0.40625 1.703125zm-1.1875 -0.234375q0 -0.65625 -0.296875 -1.125q-0.28125 -0.484375 -0.78125 -0.734375q-0.5 -0.25 -1.109375 -0.25q-0.875 0 -1.484375 0.5625q-0.609375 0.546875 -0.703125 1.546875l4.375 0zm3.8624268 -1.84375q0.3125 -0.59375 0.875 -0.921875q0.5625 -0.328125 1.359375 -0.328125l0 1.1875l-0.296875 0q-1.9375 0 -1.9375 2.109375l0 3.765625l-1.15625 0l0 -6.9375l1.15625 0l0 1.125zm9.548889 -1.125l-4.1875 10.203125l-1.1875 0l1.375 -3.34375l-2.796875 -6.859375l1.28125 0l2.171875 5.625l2.15625 -5.625l1.1875 0z" fill-rule="nonzero"/><path fill="#000000" fill-opacity="0.0" d="m32.850666 63.70893l0.50393677 46.4252" fill-rule="evenodd"/><path stroke="#d63384" stroke-width="2.0" stroke-linejoin="round" stroke-linecap="butt" d="m32.850666 63.708935l0.37368774 34.4259" fill-rule="evenodd"/><path fill="#d63384" stroke="#d63384" stroke-width="2.0" stroke-linecap="butt" d="m29.921082 98.170685l3.4017868 9.03981l3.2047539 -9.111519z" fill-rule="evenodd"/><path fill="#000000" fill-opacity="0.0" d="m144.85066 63.70893l0.50393677 46.4252" fill-rule="evenodd"/><path stroke="#d63384" stroke-width="2.0" stroke-linejoin="round" stroke-linecap="butt" d="m144.85066 63.708935l0.37368774 34.4259" fill-rule="evenodd"/><path fill="#d63384" stroke="#d63384" stroke-width="2.0" stroke-linecap="butt" d="m141.92108 98.170685l3.4017792 9.03981l3.2047577 -9.111519z" fill-rule="evenodd"/><path fill="#d63384" d="m518.0475 60.283737l136.94489 0l0 30.645668l-136.94489 0z" fill-rule="evenodd"/><path fill="#ffffff" d="m539.73047 80.00469q-0.921875 0 -1.65625 -0.296875q-0.734375 -0.296875 -1.171875 -0.875q-0.4375 -0.59375 -0.46875 -1.421875l2.1875 0q0.046875 0.46875 0.3125 0.71875q0.28125 0.234375 0.734375 0.234375q0.453125 0 0.71875 -0.203125q0.265625 -0.21875 0.265625 -0.59375q0 -0.296875 -0.21875 -0.5q-0.203125 -0.21875 -0.515625 -0.34375q-0.296875 -0.140625 -0.859375 -0.296875q-0.828125 -0.25 -1.34375 -0.5q-0.515625 -0.265625 -0.890625 -0.75q-0.359375 -0.5 -0.359375 -1.28125q0 -1.1875 0.84375 -1.84375q0.859375 -0.671875 2.21875 -0.671875q1.390625 0 2.25 0.671875q0.859375 0.65625 0.90625 1.84375l-2.21875 0q-0.015625 -0.40625 -0.296875 -0.640625q-0.28125 -0.234375 -0.703125 -0.234375q-0.375 0 -0.609375 0.203125q-0.21875 0.203125 -0.21875 0.578125q0 0.40625 0.375 0.640625q0.390625 0.21875 1.203125 0.484375q0.8125 0.265625 1.328125 0.53125q0.515625 0.25 0.875 0.734375q0.375 0.46875 0.375 1.21875q0 0.734375 -0.375 1.328125q-0.359375 0.578125 -1.0625 0.921875q-0.6875 0.34375 -1.625 0.34375zm6.380066 -5.65625q0.359375 -0.546875 0.890625 -0.859375q0.546875 -0.328125 1.203125 -0.328125l0 2.171875l-0.5625 0q-0.765625 0 -1.15625 0.328125q-0.375 0.328125 -0.375 1.15625l0 3.109375l-2.046875 0l0 -6.703125l2.046875 0l0 1.125zm2.6829224 2.21875q0 -1.03125 0.375 -1.8125q0.390625 -0.78125 1.0625 -1.203125q0.671875 -0.421875 1.5 -0.421875q0.71875 0 1.25 0.296875q0.53125 0.28125 0.828125 0.75l0 -0.953125l2.046875 0l0 6.703125l-2.046875 0l0 -0.953125q-0.3125 0.46875 -0.84375 0.765625q-0.53125 0.28125 -1.234375 0.28125q-0.828125 0 -1.5 -0.421875q-0.671875 -0.421875 -1.0625 -1.203125q-0.375 -0.796875 -0.375 -1.828125zm5.015625 0.015625q0 -0.765625 -0.4375 -1.203125q-0.421875 -0.453125 -1.03125 -0.453125q-0.609375 0 -1.046875 0.4375q-0.421875 0.4375 -0.421875 1.203125q0 0.765625 0.421875 1.21875q0.4375 0.453125 1.046875 0.453125q0.609375 0 1.03125 -0.4375q0.4375 -0.453125 0.4375 -1.21875zm7.6167603 -3.421875q1.171875 0 1.875 0.765625q0.703125 0.75 0.703125 2.09375l0 3.90625l-2.046875 0l0 -3.640625q0 -0.671875 -0.34375 -1.03125q-0.34375 -0.375 -0.9375 -0.375q-0.59375 0 -0.9375 0.375q-0.34375 0.359375 -0.34375 1.03125l0 3.640625l-2.046875 0l0 -6.703125l2.046875 0l0 0.890625q0.3125 -0.4375 0.828125 -0.6875q0.53125 -0.265625 1.203125 -0.265625zm6.5411987 -0.03125q0.71875 0 1.25 0.296875q0.53125 0.28125 0.828125 0.75l0 -0.953125l2.046875 0l0 6.6875q0 0.921875 -0.375 1.671875q-0.359375 0.75 -1.109375 1.1875q-0.75 0.453125 -1.859375 0.453125q-1.5 0 -2.421875 -0.703125q-0.921875 -0.703125 -1.046875 -1.890625l2.015625 0q0.109375 0.375 0.46875 0.59375q0.359375 0.234375 0.875 0.234375q0.640625 0 1.015625 -0.375q0.390625 -0.359375 0.390625 -1.171875l0 -0.9375q-0.3125 0.46875 -0.84375 0.765625q-0.515625 0.28125 -1.234375 0.28125q-0.828125 0 -1.5 -0.421875q-0.671875 -0.421875 -1.0625 -1.203125q-0.375 -0.796875 -0.375 -1.828125q0 -1.03125 0.375 -1.8125q0.390625 -0.78125 1.0625 -1.203125q0.671875 -0.421875 1.5 -0.421875zm2.078125 3.453125q0 -0.765625 -0.4375 -1.203125q-0.421875 -0.453125 -1.03125 -0.453125q-0.609375 0 -1.046875 0.4375q-0.421875 0.4375 -0.421875 1.203125q0 0.765625 0.421875 1.21875q0.4375 0.453125 1.046875 0.453125q0.609375 0 1.03125 -0.4375q0.4375 -0.453125 0.4375 -1.21875zm5.5855713 -5.53125l0 8.875l-2.046875 0l0 -8.875l2.046875 0zm7.805664 5.421875q0 0.28125 -0.046875 0.59375l-4.640625 0q0.046875 0.625 0.390625 0.953125q0.359375 0.328125 0.875 0.328125q0.78125 0 1.078125 -0.640625l2.1875 0q-0.171875 0.65625 -0.609375 1.1875q-0.4375 0.53125 -1.109375 0.828125q-0.65625 0.296875 -1.46875 0.296875q-0.984375 0 -1.75 -0.421875q-0.765625 -0.421875 -1.203125 -1.1875q-0.421875 -0.78125 -0.421875 -1.828125q0 -1.046875 0.421875 -1.828125q0.421875 -0.78125 1.1875 -1.203125q0.765625 -0.421875 1.765625 -0.421875q0.96875 0 1.71875 0.421875q0.765625 0.40625 1.1875 1.15625q0.4375 0.75 0.4375 1.765625zm-2.109375 -0.546875q0 -0.53125 -0.359375 -0.828125q-0.359375 -0.3125 -0.890625 -0.3125q-0.515625 0 -0.875 0.296875q-0.359375 0.296875 -0.4375 0.84375l2.5625 0zm5.235779 -1.578125q0.359375 -0.546875 0.890625 -0.859375q0.546875 -0.328125 1.203125 -0.328125l0 2.171875l-0.5625 0q-0.765625 0 -1.15625 0.328125q-0.375 0.328125 -0.375 1.15625l0 3.109375l-2.046875 0l0 -6.703125l2.046875 0l0 1.125zm11.117554 -2.84375l0 1.640625l-3.4375 0l0 1.78125l2.5625 0l0 1.59375l-2.5625 0l0 3.40625l-2.046875 0l0 -8.421875l5.484375 0zm0.6734009 5.0625q0 -1.03125 0.375 -1.8125q0.390625 -0.78125 1.0625 -1.203125q0.671875 -0.421875 1.5 -0.421875q0.71875 0 1.25 0.296875q0.53125 0.28125 0.828125 0.75l0 -0.953125l2.046875 0l0 6.703125l-2.046875 0l0 -0.953125q-0.3125 0.46875 -0.84375 0.765625q-0.53125 0.28125 -1.234375 0.28125q-0.828125 0 -1.5 -0.421875q-0.671875 -0.421875 -1.0625 -1.203125q-0.375 -0.796875 -0.375 -1.828125zm5.015625 0.015625q0 -0.765625 -0.4375 -1.203125q-0.421875 -0.453125 -1.03125 -0.453125q-0.609375 0 -1.046875 0.4375q-0.421875 0.4375 -0.421875 1.203125q0 0.765625 0.421875 1.21875q0.4375 0.453125 1.046875 0.453125q0.609375 0 1.03125 -0.4375q0.4375 -0.453125 0.4375 -1.21875zm3.1324463 0q0 -1.046875 0.421875 -1.828125q0.421875 -0.78125 1.1875 -1.203125q0.765625 -0.421875 1.75 -0.421875q1.25 0 2.09375 0.671875q0.84375 0.65625 1.109375 1.859375l-2.171875 0q-0.28125 -0.78125 -1.078125 -0.78125q-0.5625 0 -0.90625 0.453125q-0.328125 0.4375 -0.328125 1.25q0 0.8125 0.328125 1.25q0.34375 0.4375 0.90625 0.4375q0.796875 0 1.078125 -0.765625l2.171875 0q-0.265625 1.171875 -1.125 1.84375q-0.84375 0.671875 -2.078125 0.671875q-0.984375 0 -1.75 -0.421875q-0.765625 -0.421875 -1.1875 -1.1875q-0.421875 -0.78125 -0.421875 -1.828125zm7.260071 -0.015625q0 -1.03125 0.375 -1.8125q0.390625 -0.78125 1.0625 -1.203125q0.671875 -0.421875 1.5 -0.421875q0.71875 0 1.25 0.296875q0.53125 0.28125 0.828125 0.75l0 -0.953125l2.046875 0l0 6.703125l-2.046875 0l0 -0.953125q-0.3125 0.46875 -0.84375 0.765625q-0.53125 0.28125 -1.234375 0.28125q-0.828125 0 -1.5 -0.421875q-0.671875 -0.421875 -1.0625 -1.203125q-0.375 -0.796875 -0.375 -1.828125zm5.015625 0.015625q0 -0.765625 -0.4375 -1.203125q-0.421875 -0.453125 -1.03125 -0.453125q-0.609375 0 -1.046875 0.4375q-0.421875 0.4375 -0.421875 1.203125q0 0.765625 0.421875 1.21875q0.4375 0.453125 1.046875 0.453125q0.609375 0 1.03125 -0.4375q0.4375 -0.453125 0.4375 -1.21875zm3.1324463 -0.015625q0 -1.03125 0.375 -1.8125q0.390625 -0.78125 1.0625 -1.203125q0.671875 -0.421875 1.5 -0.421875q0.671875 0 1.21875 0.28125q0.546875 0.28125 0.859375 0.75l0 -3.109375l2.046875 0l0 8.875l-2.046875 0l0 -0.953125q-0.296875 0.46875 -0.828125 0.765625q-0.53125 0.28125 -1.25 0.28125q-0.828125 0 -1.5 -0.421875q-0.671875 -0.421875 -1.0625 -1.203125q-0.375 -0.796875 -0.375 -1.828125zm5.015625 0.015625q0 -0.765625 -0.4375 -1.203125q-0.421875 -0.453125 -1.03125 -0.453125q-0.609375 0 -1.046875 0.4375q-0.421875 0.4375 -0.421875 1.203125q0 0.765625 0.421875 1.21875q0.4375 0.453125 1.046875 0.453125q0.609375 0 1.03125 -0.4375q0.4375 -0.453125 0.4375 -1.21875zm9.851135 -0.109375q0 0.28125 -0.046875 0.59375l-4.640625 0q0.046875 0.625 0.390625 0.953125q0.359375 0.328125 0.875 0.328125q0.78125 0 1.078125 -0.640625l2.1875 0q-0.171875 0.65625 -0.609375 1.1875q-0.4375 0.53125 -1.109375 0.828125q-0.65625 0.296875 -1.46875 0.296875q-0.984375 0 -1.75 -0.421875q-0.765625 -0.421875 -1.203125 -1.1875q-0.421875 -0.78125 -0.421875 -1.828125q0 -1.046875 0.421875 -1.828125q0.421875 -0.78125 1.1875 -1.203125q0.765625 -0.421875 1.765625 -0.421875q0.96875 0 1.71875 0.421875q0.765625 0.40625 1.1875 1.15625q0.4375 0.75 0.4375 1.765625zm-2.109375 -0.546875q0 -0.53125 -0.359375 -0.828125q-0.359375 -0.3125 -0.890625 -0.3125q-0.515625 0 -0.875 0.296875q-0.359375 0.296875 -0.4375 0.84375l2.5625 0z" fill-rule="nonzero"/><path fill="#000000" fill-opacity="0.0" d="m494.1422 205.10132l0 92.37796l62.897644 0" fill-rule="evenodd"/><path stroke="#d63384" stroke-width="2.0" stroke-linejoin="round" stroke-linecap="butt" d="m494.14218 205.10132l0 92.37796l50.897614 0" fill-rule="evenodd"/><path fill="#d63384" stroke="#d63384" stroke-width="2.0" stroke-linecap="butt" d="m545.0398 300.78275l9.076233 -3.3034668l-9.076233 -3.3034668z" fill-rule="evenodd"/><path fill="#000000" fill-opacity="0.0" d="m694.1289 205.09476l0 92.37796l-80.09454 0" fill-rule="evenodd"/><path stroke="#d63384" stroke-width="2.0" stroke-linejoin="round" stroke-linecap="butt" d="m694.12885 205.09476l0 92.37796l-68.09442 0" fill-rule="evenodd"/><path fill="#d63384" stroke="#d63384" stroke-width="2.0" stroke-linecap="butt" d="m626.0344 294.16925l-9.076233 3.3034668l9.076233 3.3034668z" fill-rule="evenodd"/><path fill="#fcfcfc" d="m315.52258 215.66168l431.87402 0l0 25.228348l-431.87402 0z" fill-rule="evenodd"/><path stroke="#6c7284" stroke-width="1.0" stroke-linejoin="round" stroke-linecap="butt" stroke-dasharray="1.0,3.0" d="m315.52258 215.66168l431.87402 0l0 25.228348l-431.87402 0z" fill-rule="evenodd"/><path fill="#6c7284" d="m485.87088 222.82231l0 8.359375l-1.09375 0l0 -8.359375l1.09375 0zm5.0614014 1.65625q1.203125 0 1.9375 0.734375q0.75 0.71875 0.75 2.09375l0 3.875l-1.078125 0l0 -3.71875q0 -0.984375 -0.5 -1.5q-0.484375 -0.53125 -1.328125 -0.53125q-0.875 0 -1.390625 0.546875q-0.5 0.53125 -0.5 1.5625l0 3.640625l-1.09375 0l0 -6.578125l1.09375 0l0 0.9375q0.328125 -0.5 0.875 -0.78125q0.5625 -0.28125 1.234375 -0.28125zm5.8050537 1.03125l0 3.875q0 0.484375 0.203125 0.6875q0.203125 0.1875 0.71875 0.1875l0.796875 0l0 0.921875l-0.984375 0q-0.90625 0 -1.375 -0.421875q-0.453125 -0.421875 -0.453125 -1.375l0 -3.875l-0.84375 0l0 -0.90625l0.84375 0l0 -1.65625l1.09375 0l0 1.65625l1.71875 0l0 0.90625l-1.71875 0zm9.039886 2.125q0 0.3125 -0.03125 0.671875l-5.265625 0q0.0625 0.96875 0.671875 1.515625q0.609375 0.546875 1.46875 0.546875q0.703125 0 1.171875 -0.328125q0.484375 -0.328125 0.671875 -0.890625l1.1875 0q-0.265625 0.953125 -1.0625 1.546875q-0.796875 0.59375 -1.96875 0.59375q-0.9375 0 -1.671875 -0.421875q-0.734375 -0.421875 -1.15625 -1.1875q-0.421875 -0.78125 -0.421875 -1.796875q0 -1.015625 0.40625 -1.78125q0.40625 -0.78125 1.140625 -1.1875q0.75 -0.421875 1.703125 -0.421875q0.9375 0 1.65625 0.40625q0.71875 0.40625 1.109375 1.125q0.390625 0.71875 0.390625 1.609375zm-1.125 -0.21875q0 -0.625 -0.28125 -1.078125q-0.265625 -0.453125 -0.75 -0.6875q-0.46875 -0.234375 -1.046875 -0.234375q-0.828125 0 -1.40625 0.53125q-0.578125 0.53125 -0.671875 1.46875l4.15625 0zm5.2838135 -2.921875q0.84375 0 1.484375 0.375q0.640625 0.375 0.953125 0.9375l0 -1.203125l1.109375 0l0 6.71875q0 0.90625 -0.390625 1.609375q-0.375 0.703125 -1.09375 1.09375q-0.71875 0.390625 -1.65625 0.390625q-1.296875 0 -2.171875 -0.609375q-0.859375 -0.609375 -1.015625 -1.671875l1.078125 0q0.1875 0.609375 0.75 0.96875q0.5625 0.375 1.359375 0.375q0.890625 0 1.453125 -0.578125q0.578125 -0.5625 0.578125 -1.578125l0 -1.375q-0.3125 0.578125 -0.953125 0.96875q-0.640625 0.375 -1.484375 0.375q-0.875 0 -1.59375 -0.421875q-0.71875 -0.4375 -1.125 -1.21875q-0.40625 -0.78125 -0.40625 -1.78125q0 -1.0 0.40625 -1.765625q0.40625 -0.765625 1.125 -1.1875q0.71875 -0.421875 1.59375 -0.421875zm2.4375 3.390625q0 -0.75 -0.296875 -1.296875q-0.296875 -0.546875 -0.8125 -0.84375q-0.5 -0.296875 -1.109375 -0.296875q-0.625 0 -1.125 0.296875q-0.5 0.28125 -0.8125 0.828125q-0.296875 0.546875 -0.296875 1.296875q0 0.75 0.296875 1.3125q0.3125 0.5625 0.8125 0.859375q0.5 0.28125 1.125 0.28125q0.609375 0 1.109375 -0.28125q0.515625 -0.296875 0.8125 -0.859375q0.296875 -0.5625 0.296875 -1.296875zm4.0495605 -2.21875q0.28125 -0.5625 0.8125 -0.875q0.546875 -0.3125 1.3125 -0.3125l0 1.140625l-0.28125 0q-1.84375 0 -1.84375 1.984375l0 3.578125l-1.09375 0l0 -6.578125l1.09375 0l0 1.0625zm2.9760132 2.203125q0 -1.0 0.40625 -1.765625q0.40625 -0.765625 1.125 -1.1875q0.71875 -0.421875 1.59375 -0.421875q0.859375 0 1.484375 0.375q0.640625 0.375 0.953125 0.9375l0 -1.203125l1.109375 0l0 6.578125l-1.109375 0l0 -1.21875q-0.3125 0.578125 -0.96875 0.953125q-0.640625 0.375 -1.484375 0.375q-0.875 0 -1.59375 -0.421875q-0.703125 -0.4375 -1.109375 -1.21875q-0.40625 -0.78125 -0.40625 -1.78125zm5.5625 0.015625q0 -0.75 -0.296875 -1.296875q-0.296875 -0.546875 -0.8125 -0.84375q-0.5 -0.296875 -1.109375 -0.296875q-0.625 0 -1.125 0.296875q-0.5 0.28125 -0.8125 0.828125q-0.296875 0.546875 -0.296875 1.296875q0 0.75 0.296875 1.3125q0.3125 0.5625 0.8125 0.859375q0.5 0.28125 1.125 0.28125q0.609375 0 1.109375 -0.28125q0.515625 -0.296875 0.8125 -0.859375q0.296875 -0.5625 0.296875 -1.296875zm4.2839355 -2.375l0 3.875q0 0.484375 0.203125 0.6875q0.203125 0.1875 0.71875 0.1875l0.796875 0l0 0.921875l-0.984375 0q-0.90625 0 -1.375 -0.421875q-0.453125 -0.421875 -0.453125 -1.375l0 -3.875l-0.84375 0l0 -0.90625l0.84375 0l0 -1.65625l1.09375 0l0 1.65625l1.71875 0l0 0.90625l-1.71875 0zm3.602417 -1.96875q-0.3125 0 -0.53125 -0.21875q-0.203125 -0.21875 -0.203125 -0.53125q0 -0.3125 0.203125 -0.515625q0.21875 -0.21875 0.53125 -0.21875q0.296875 0 0.5 0.21875q0.21875 0.203125 0.21875 0.515625q0 0.3125 -0.21875 0.53125q-0.203125 0.21875 -0.5 0.21875zm0.53125 1.0625l0 6.578125l-1.09375 0l0 -6.578125l1.09375 0zm4.7332764 6.6875q-0.921875 0 -1.671875 -0.421875q-0.75 -0.421875 -1.1875 -1.1875q-0.421875 -0.78125 -0.421875 -1.796875q0 -1.015625 0.4375 -1.78125q0.4375 -0.78125 1.1875 -1.1875q0.765625 -0.421875 1.703125 -0.421875q0.9375 0 1.6875 0.421875q0.75 0.40625 1.1875 1.1875q0.4375 0.765625 0.4375 1.78125q0 1.015625 -0.453125 1.796875q-0.4375 0.765625 -1.203125 1.1875q-0.765625 0.421875 -1.703125 0.421875zm0 -0.96875q0.578125 0 1.09375 -0.265625q0.515625 -0.28125 0.828125 -0.828125q0.328125 -0.5625 0.328125 -1.34375q0 -0.796875 -0.3125 -1.34375q-0.3125 -0.5625 -0.8125 -0.828125q-0.5 -0.265625 -1.09375 -0.265625q-0.59375 0 -1.09375 0.265625q-0.5 0.265625 -0.8125 0.828125q-0.296875 0.546875 -0.296875 1.34375q0 0.796875 0.296875 1.359375q0.296875 0.546875 0.78125 0.8125q0.5 0.265625 1.09375 0.265625zm8.008179 -5.84375q1.203125 0 1.9375 0.734375q0.75 0.71875 0.75 2.09375l0 3.875l-1.078125 0l0 -3.71875q0 -0.984375 -0.5 -1.5q-0.484375 -0.53125 -1.328125 -0.53125q-0.875 0 -1.390625 0.546875q-0.5 0.53125 -0.5 1.5625l0 3.640625l-1.09375 0l0 -6.578125l1.09375 0l0 0.9375q0.328125 -0.5 0.875 -0.78125q0.5625 -0.28125 1.234375 -0.28125zm10.399719 0.015625q0.84375 0 1.484375 0.375q0.640625 0.375 0.953125 0.9375l0 -1.203125l1.109375 0l0 6.71875q0 0.90625 -0.390625 1.609375q-0.375 0.703125 -1.09375 1.09375q-0.71875 0.390625 -1.65625 0.390625q-1.296875 0 -2.171875 -0.609375q-0.859375 -0.609375 -1.015625 -1.671875l1.078125 0q0.1875 0.609375 0.75 0.96875q0.5625 0.375 1.359375 0.375q0.890625 0 1.453125 -0.578125q0.578125 -0.5625 0.578125 -1.578125l0 -1.375q-0.3125 0.578125 -0.953125 0.96875q-0.640625 0.375 -1.484375 0.375q-0.875 0 -1.59375 -0.421875q-0.71875 -0.4375 -1.125 -1.21875q-0.40625 -0.78125 -0.40625 -1.78125q0 -1.0 0.40625 -1.765625q0.40625 -0.765625 1.125 -1.1875q0.71875 -0.421875 1.59375 -0.421875zm2.4375 3.390625q0 -0.75 -0.296875 -1.296875q-0.296875 -0.546875 -0.8125 -0.84375q-0.5 -0.296875 -1.109375 -0.296875q-0.625 0 -1.125 0.296875q-0.5 0.28125 -0.8125 0.828125q-0.296875 0.546875 -0.296875 1.296875q0 0.75 0.296875 1.3125q0.3125 0.5625 0.8125 0.859375q0.5 0.28125 1.125 0.28125q0.609375 0 1.109375 -0.28125q0.515625 -0.296875 0.8125 -0.859375q0.296875 -0.5625 0.296875 -1.296875zm4.0495605 -5.578125l0 8.875l-1.09375 0l0 -8.875l1.09375 0zm7.6864014 2.296875l0 6.578125l-1.09375 0l0 -0.96875q-0.296875 0.5 -0.859375 0.78125q-0.5625 0.28125 -1.234375 0.28125q-0.765625 0 -1.375 -0.3125q-0.609375 -0.328125 -0.96875 -0.953125q-0.359375 -0.640625 -0.359375 -1.546875l0 -3.859375l1.078125 0l0 3.703125q0 0.984375 0.484375 1.5q0.5 0.515625 1.359375 0.515625q0.875 0 1.375 -0.53125q0.5 -0.546875 0.5 -1.578125l0 -3.609375l1.09375 0zm7.8519287 3.03125q0 0.3125 -0.03125 0.671875l-5.265625 0q0.0625 0.96875 0.671875 1.515625q0.609375 0.546875 1.46875 0.546875q0.703125 0 1.171875 -0.328125q0.484375 -0.328125 0.671875 -0.890625l1.1875 0q-0.265625 0.953125 -1.0625 1.546875q-0.796875 0.59375 -1.96875 0.59375q-0.9375 0 -1.671875 -0.421875q-0.734375 -0.421875 -1.15625 -1.1875q-0.421875 -0.78125 -0.421875 -1.796875q0 -1.015625 0.40625 -1.78125q0.40625 -0.78125 1.140625 -1.1875q0.75 -0.421875 1.703125 -0.421875q0.9375 0 1.65625 0.40625q0.71875 0.40625 1.109375 1.125q0.390625 0.71875 0.390625 1.609375zm-1.125 -0.21875q0 -0.625 -0.28125 -1.078125q-0.265625 -0.453125 -0.75 -0.6875q-0.46875 -0.234375 -1.046875 -0.234375q-0.828125 0 -1.40625 0.53125q-0.578125 0.53125 -0.671875 1.46875l4.15625 0z" fill-rule="nonzero"/><path fill="#000000" fill-opacity="0.0" d="m530.1079 39.828354l16.944824 18.141735" fill-rule="evenodd"/><path stroke="#d63384" stroke-width="2.0" stroke-linejoin="round" stroke-linecap="butt" d="m530.1079 39.828354l8.753784 9.372112" fill-rule="evenodd"/><path fill="#d63384" stroke="#d63384" stroke-width="2.0" stroke-linecap="butt" d="m536.4475 51.45537l8.609497 4.3779945l-3.781128 -8.887814z" fill-rule="evenodd"/><path fill="#000000" fill-opacity="0.0" d="m640.26215 39.828354l-16.944885 18.141735" fill-rule="evenodd"/><path stroke="#d63384" stroke-width="2.0" stroke-linejoin="round" stroke-linecap="butt" d="m640.2622 39.828354l-8.753845 9.372112" fill-rule="evenodd"/><path fill="#d63384" stroke="#d63384" stroke-width="2.0" stroke-linecap="butt" d="m629.0942 46.945553l-3.781128 8.887814l8.609497 -4.3779945z" fill-rule="evenodd"/><path fill="#000000" fill-opacity="0.0" d="m539.93146 95.57245l-16.944885 18.141731" fill-rule="evenodd"/><path stroke="#d63384" stroke-width="2.0" stroke-linejoin="round" stroke-linecap="butt" d="m539.93146 95.57245l-8.753784 9.372108" fill-rule="evenodd"/><path fill="#d63384" stroke="#d63384" stroke-width="2.0" stroke-linecap="butt" d="m528.7635 102.689644l-3.781128 8.88781l8.609497 -4.3779907z" fill-rule="evenodd"/><path fill="#000000" fill-opacity="0.0" d="m631.3179 95.57245l16.944885 18.141731" fill-rule="evenodd"/><path stroke="#d63384" stroke-width="2.0" stroke-linejoin="round" stroke-linecap="butt" d="m631.3179 95.57245l8.753845 9.372108" fill-rule="evenodd"/><path fill="#d63384" stroke="#d63384" stroke-width="2.0" stroke-linecap="butt" d="m637.65753 107.19946l8.609436 4.3779907l-3.781128 -8.88781z" fill-rule="evenodd"/><path fill="#d63384" d="m206.74043 181.65118l71.023605 0l0 -4.535431l9.070892 9.070877l-9.070892 9.070862l0 -4.535431l-71.023605 0z" fill-rule="evenodd"/><path stroke="#d63384" stroke-width="1.0" stroke-linejoin="round" stroke-linecap="butt" d="m206.74043 181.65118l71.023605 0l0 -4.535431l9.070892 9.070877l-9.070892 9.070862l0 -4.535431l-71.023605 0z" fill-rule="evenodd"/></g></svg>
