<svg version="1.1" viewBox="0.0 0.0 900.0 360.0" fill="none" stroke="none" stroke-linecap="square" stroke-miterlimit="10" xmlns:xlink="http://www.w3.org/1999/xlink" xmlns="http://www.w3.org/2000/svg"><clipPath id="g2f3dbc73351_0_219.0"><path d="m0 0l960.0 0l0 540.0l-960.0 0l0 -540.0z" clip-rule="nonzero"/></clipPath><g clip-path="url(#g2f3dbc73351_0_219.0)"><path fill="#000000" fill-opacity="0.0" d="m0 0l960.0 0l0 540.0l-960.0 0z" fill-rule="evenodd"/><path fill="#99e0bb" d="m6.3750567 4.0085077l292.40945 0l0 224.7559l-292.40945 0z" fill-rule="evenodd"/><path stroke="#99e0bb" stroke-width="1.0" stroke-linejoin="round" stroke-linecap="butt" d="m6.3750567 4.0085077l292.40945 0l0 224.7559l-292.40945 0z" fill-rule="evenodd"/><path fill="#000000" d="m15.796931 212.4713q0 -1.3125 0.56250095 -2.34375q0.578125 -1.03125 1.59375 -1.609375q1.015625 -0.578125 2.3125 -0.578125q1.578125 0 2.703125 0.84375q1.125 0.828125 1.5 2.265625l-2.375 0q-0.265625 -0.546875 -0.75 -0.84375q-0.484375 -0.296875 -1.109375 -0.296875q-1.0 0 -1.625 0.703125q-0.609375 0.6875 -0.609375 1.859375q0 1.15625 0.609375 1.859375q0.625 0.703125 1.625 0.703125q0.625 0 1.109375 -0.296875q0.484375 -0.296875 0.75 -0.84375l2.375 0q-0.375 1.4375 -1.5 2.265625q-1.125 0.828125 -2.703125 0.828125q-1.296875 0 -2.3125 -0.578125q-1.015625 -0.578125 -1.59375 -1.59375q-0.56250095 -1.03125 -0.56250095 -2.34375zm12.175279 -4.90625l0 9.359375l-2.171875 0l0 -9.359375l2.171875 0zm8.546082 2.296875l0 7.0625l-2.171875 0l0 -0.96875q-0.328125 0.46875 -0.890625 0.765625q-0.5625 0.28125 -1.25 0.28125q-0.8125 0 -1.4375 -0.359375q-0.609375 -0.359375 -0.953125 -1.046875q-0.34375 -0.6875 -0.34375 -1.609375l0 -4.125l2.15625 0l0 3.828125q0 0.71875 0.359375 1.109375q0.375 0.390625 1.0 0.390625q0.625 0 0.984375 -0.390625q0.375 -0.390625 0.375 -1.109375l0 -3.828125l2.171875 0zm4.4209137 7.15625q-0.921875 0 -1.640625 -0.3125q-0.71875 -0.3125 -1.140625 -0.859375q-0.421875 -0.546875 -0.46875 -1.234375l2.140625 0q0.03125 0.359375 0.328125 0.59375q0.3125 0.21875 0.75 0.21875q0.40625 0 0.625 -0.15625q0.234375 -0.15625 0.234375 -0.40625q0 -0.296875 -0.328125 -0.4375q-0.3125 -0.15625 -1.015625 -0.328125q-0.765625 -0.1875 -1.28125 -0.375q-0.5 -0.203125 -0.875 -0.625q-0.359375 -0.421875 -0.359375 -1.140625q0 -0.609375 0.328125 -1.109375q0.34375 -0.5 1.0 -0.78125q0.65625 -0.296875 1.546875 -0.296875q1.328125 0 2.09375 0.65625q0.765625 0.65625 0.890625 1.734375l-2.0 0q-0.0625 -0.359375 -0.328125 -0.578125q-0.265625 -0.21875 -0.71875 -0.21875q-0.375 0 -0.578125 0.15625q-0.203125 0.140625 -0.203125 0.390625q0 0.3125 0.3125 0.46875q0.328125 0.140625 1.015625 0.296875q0.78125 0.203125 1.28125 0.40625q0.5 0.1875 0.859375 0.625q0.375 0.4375 0.390625 1.171875q0 0.609375 -0.34375 1.109375q-0.34375 0.484375 -1.0 0.765625q-0.65625 0.265625 -1.515625 0.265625zm8.124664 -1.921875l0 1.828125l-1.09375 0q-1.1875 0 -1.84375 -0.578125q-0.65625 -0.578125 -0.65625 -1.875l0 -2.8125l-0.859375 0l0 -1.796875l0.859375 0l0 -1.71875l2.171875 0l0 1.71875l1.40625 0l0 1.796875l-1.40625 0l0 2.828125q0 0.328125 0.140625 0.46875q0.15625 0.140625 0.515625 0.140625l0.765625 0zm7.8571777 -1.8125q0 0.296875 -0.03125 0.625l-4.90625 0q0.0625 0.65625 0.421875 1.015625q0.375 0.34375 0.921875 0.34375q0.8125 0 1.125 -0.6875l2.3125 0q-0.1875 0.703125 -0.65625 1.265625q-0.453125 0.546875 -1.15625 0.859375q-0.6875 0.3125 -1.546875 0.3125q-1.03125 0 -1.84375 -0.4375q-0.8125 -0.4375 -1.265625 -1.265625q-0.453125 -0.828125 -0.453125 -1.921875q0 -1.09375 0.4375 -1.921875q0.453125 -0.828125 1.265625 -1.265625q0.8125 -0.4375 1.859375 -0.4375q1.03125 0 1.828125 0.4375q0.796875 0.421875 1.234375 1.21875q0.453125 0.796875 0.453125 1.859375zm-2.203125 -0.578125q0 -0.546875 -0.390625 -0.875q-0.375 -0.328125 -0.953125 -0.328125q-0.53125 0 -0.90625 0.3125q-0.375 0.3125 -0.46875 0.890625l2.71875 0zm5.514984 -1.671875q0.375 -0.578125 0.9375 -0.90625q0.578125 -0.34375 1.265625 -0.34375l0 2.296875l-0.59375 0q-0.796875 0 -1.203125 0.34375q-0.40625 0.34375 -0.40625 1.21875l0 3.28125l-2.171875 0l0 -7.0625l2.171875 0l0 1.171875zm5.568722 1.4375q0 -1.3125 0.5625 -2.34375q0.578125 -1.03125 1.59375 -1.609375q1.015625 -0.578125 2.3125 -0.578125q1.578125 0 2.703125 0.84375q1.125 0.828125 1.5 2.265625l-2.375 0q-0.265625 -0.546875 -0.75 -0.84375q-0.484375 -0.296875 -1.109375 -0.296875q-1.0 0 -1.625 0.703125q-0.609375 0.6875 -0.609375 1.859375q0 1.15625 0.609375 1.859375q0.625 0.703125 1.625 0.703125q0.625 0 1.109375 -0.296875q0.484375 -0.296875 0.75 -0.84375l2.375 0q-0.375 1.4375 -1.5 2.265625q-1.125 0.828125 -2.703125 0.828125q-1.296875 0 -2.3125 -0.578125q-1.015625 -0.578125 -1.59375 -1.59375q-0.5625 -1.03125 -0.5625 -2.34375zm13.222153 4.546875q-1.03125 0 -1.875 -0.4375q-0.828125 -0.4375 -1.296875 -1.265625q-0.46875 -0.828125 -0.46875 -1.921875q0 -1.09375 0.46875 -1.921875q0.484375 -0.828125 1.3125 -1.265625q0.84375 -0.4375 1.890625 -0.4375q1.03125 0 1.859375 0.4375q0.84375 0.4375 1.3125 1.265625q0.484375 0.828125 0.484375 1.921875q0 1.09375 -0.484375 1.921875q-0.484375 0.828125 -1.328125 1.265625q-0.84375 0.4375 -1.875 0.4375zm0 -1.859375q0.625 0 1.0625 -0.453125q0.4375 -0.46875 0.4375 -1.3125q0 -0.84375 -0.4375 -1.296875q-0.421875 -0.46875 -1.03125 -0.46875q-0.640625 0 -1.0625 0.453125q-0.40625 0.453125 -0.40625 1.3125q0 0.84375 0.40625 1.3125q0.40625 0.453125 1.03125 0.453125zm13.858887 -5.375q1.3125 0 2.09375 0.796875q0.78125 0.796875 0.78125 2.21875l0 4.125l-2.15625 0l0 -3.828125q0 -0.6875 -0.359375 -1.0625q-0.359375 -0.375 -1.0 -0.375q-0.625 0 -0.984375 0.375q-0.359375 0.375 -0.359375 1.0625l0 3.828125l-2.15625 0l0 -3.828125q0 -0.6875 -0.359375 -1.0625q-0.359375 -0.375 -1.0 -0.375q-0.625 0 -0.984375 0.375q-0.359375 0.375 -0.359375 1.0625l0 3.828125l-2.171875 0l0 -7.0625l2.171875 0l0 0.890625q0.328125 -0.453125 0.859375 -0.703125q0.53125 -0.265625 1.203125 -0.265625q0.796875 0 1.421875 0.34375q0.625 0.34375 0.984375 0.96875q0.359375 -0.578125 0.984375 -0.9375q0.640625 -0.375 1.390625 -0.375zm6.5591736 1.078125q0.3125 -0.5 0.859375 -0.796875q0.5625 -0.296875 1.3125 -0.296875q0.875 0 1.578125 0.4375q0.71875 0.4375 1.125 1.265625q0.40625 0.828125 0.40625 1.90625q0 1.09375 -0.40625 1.921875q-0.40625 0.828125 -1.125 1.28125q-0.703125 0.4375 -1.578125 0.4375q-0.734375 0 -1.296875 -0.296875q-0.5625 -0.296875 -0.875 -0.78125l0 4.34375l-2.171875 0l0 -10.421875l2.171875 0l0 1.0zm3.078125 2.515625q0 -0.8125 -0.453125 -1.265625q-0.4375 -0.46875 -1.09375 -0.46875q-0.65625 0 -1.109375 0.46875q-0.4375 0.46875 -0.4375 1.28125q0 0.8125 0.4375 1.28125q0.453125 0.46875 1.109375 0.46875q0.640625 0 1.09375 -0.46875q0.453125 -0.484375 0.453125 -1.296875zm6.562317 3.640625q-1.03125 0 -1.875 -0.4375q-0.828125 -0.4375 -1.296875 -1.265625q-0.46875 -0.828125 -0.46875 -1.921875q0 -1.09375 0.46875 -1.921875q0.484375 -0.828125 1.3125 -1.265625q0.84375 -0.4375 1.890625 -0.4375q1.03125 0 1.859375 0.4375q0.84375 0.4375 1.3125 1.265625q0.484375 0.828125 0.484375 1.921875q0 1.09375 -0.484375 1.921875q-0.484375 0.828125 -1.328125 1.265625q-0.84375 0.4375 -1.875 0.4375zm0 -1.859375q0.625 0 1.0625 -0.453125q0.4375 -0.46875 0.4375 -1.3125q0 -0.84375 -0.4375 -1.296875q-0.421875 -0.46875 -1.03125 -0.46875q-0.640625 0 -1.0625 0.453125q-0.40625 0.453125 -0.40625 1.3125q0 0.84375 0.40625 1.3125q0.40625 0.453125 1.03125 0.453125zm9.155762 -5.375q1.234375 0 1.96875 0.8125q0.75 0.796875 0.75 2.203125l0 4.125l-2.15625 0l0 -3.828125q0 -0.71875 -0.375 -1.109375q-0.359375 -0.390625 -0.984375 -0.390625q-0.609375 0 -0.984375 0.390625q-0.359375 0.390625 -0.359375 1.109375l0 3.828125l-2.171875 0l0 -7.0625l2.171875 0l0 0.9375q0.328125 -0.46875 0.875 -0.734375q0.5625 -0.28125 1.265625 -0.28125zm10.874046 3.5q0 0.296875 -0.03125 0.625l-4.9062576 0q0.0625 0.65625 0.421875 1.015625q0.375 0.34375 0.921875 0.34375q0.8125 0 1.125 -0.6875l2.3125076 0q-0.1875 0.703125 -0.65625 1.265625q-0.45313263 0.546875 -1.1562576 0.859375q-0.6875 0.3125 -1.546875 0.3125q-1.03125 0 -1.84375 -0.4375q-0.8125 -0.4375 -1.265625 -1.265625q-0.453125 -0.828125 -0.453125 -1.921875q0 -1.09375 0.4375 -1.921875q0.453125 -0.828125 1.265625 -1.265625q0.8125 -0.4375 1.859375 -0.4375q1.03125 0 1.828125 0.4375q0.7968826 0.421875 1.2343826 1.21875q0.453125 0.796875 0.453125 1.859375zm-2.2031326 -0.578125q0 -0.546875 -0.390625 -0.875q-0.375 -0.328125 -0.953125 -0.328125q-0.53125 0 -0.90625 0.3125q-0.375 0.3125 -0.46875 0.890625l2.71875 0zm7.6556168 -2.921875q1.234375 0 1.96875 0.8125q0.75 0.796875 0.75 2.203125l0 4.125l-2.15625 0l0 -3.828125q0 -0.71875 -0.375 -1.109375q-0.359375 -0.390625 -0.984375 -0.390625q-0.609375 0 -0.984375 0.390625q-0.359375 0.390625 -0.359375 1.109375l0 3.828125l-2.171875 0l0 -7.0625l2.171875 0l0 0.9375q0.328125 -0.46875 0.875 -0.734375q0.5625 -0.28125 1.265625 -0.28125zm8.155289 5.3125l0 1.828125l-1.09375 0q-1.1875 0 -1.84375 -0.578125q-0.65625 -0.578125 -0.65625 -1.875l0 -2.8125l-0.859375 0l0 -1.796875l0.859375 0l0 -1.71875l2.171875 0l0 1.71875l1.40625 0l0 1.796875l-1.40625 0l0 2.828125q0 0.328125 0.140625 0.46875q0.15625 0.140625 0.515625 0.140625l0.765625 0zm4.0759277 1.921875q-0.921875 0 -1.640625 -0.3125q-0.71875 -0.3125 -1.140625 -0.859375q-0.421875 -0.546875 -0.46875 -1.234375l2.140625 0q0.03125 0.359375 0.328125 0.59375q0.3125 0.21875 0.75 0.21875q0.40625 0 0.625 -0.15625q0.234375 -0.15625 0.234375 -0.40625q0 -0.296875 -0.328125 -0.4375q-0.3125 -0.15625 -1.015625 -0.328125q-0.765625 -0.1875 -1.28125 -0.375q-0.5 -0.203125 -0.875 -0.625q-0.359375 -0.421875 -0.359375 -1.140625q0 -0.609375 0.328125 -1.109375q0.34375 -0.5 1.0 -0.78125q0.65625 -0.296875 1.546875 -0.296875q1.328125 0 2.09375 0.65625q0.765625 0.65625 0.890625 1.734375l-2.0 0q-0.0625 -0.359375 -0.328125 -0.578125q-0.265625 -0.21875 -0.71875 -0.21875q-0.375 0 -0.578125 0.15625q-0.203125 0.140625 -0.203125 0.390625q0 0.3125 0.3125 0.46875q0.328125 0.140625 1.015625 0.296875q0.78125 0.203125 1.28125 0.40625q0.5 0.1875 0.859375 0.625q0.375 0.4375 0.390625 1.171875q0 0.609375 -0.34375 1.109375q-0.34375 0.484375 -1.0 0.765625q-0.65625 0.265625 -1.515625 0.265625z" fill-rule="nonzero"/><path fill="#ffffff" d="m24.873745 27.11087l253.41733 0l0 164.06299l-253.41733 0z" fill-rule="evenodd"/><path fill="#000000" fill-opacity="0.0" d="m44.40675 43.11087l215.9055 0l0 32.566925l-215.9055 0z" fill-rule="evenodd"/><path stroke="#6c7284" stroke-width="1.0" stroke-linejoin="round" stroke-linecap="butt" stroke-dasharray="1.0,3.0" d="m44.40675 43.11087l215.9055 0l0 32.566925l-215.9055 0z" fill-rule="evenodd"/><path fill="#000000" d="m127.5393 62.085583l-3.84375 0l-0.71875 1.9687538l-1.203125 0l3.1875 -8.765629l1.328125 0l3.1718674 8.765629l-1.21875 0l-0.7031174 -1.9687538zm-0.328125 -0.921875l-1.59375 -4.46875l-1.59375 4.46875l3.1875 0zm9.545906 -3.34375q0 1.09375 -0.765625 1.828125q-0.75 0.71875 -2.28125 0.71875l-1.703125 0l0 3.6875038l-1.15625 0l0 -8.828129l2.859375 0q1.484375 0 2.265625 0.734375q0.78125 0.71875 0.78125 1.859375zm-3.046875 1.609375q0.953125 0 1.40625 -0.421875q0.453125 -0.421875 0.453125 -1.1875q0 -1.640625 -1.859375 -1.640625l-1.703125 0l0 3.25l1.703125 0zm5.624817 -4.203125l0 8.828129l-1.15625 0l0 -8.828129l1.15625 0zm8.13327 8.921879q-0.875 0 -1.5625 -0.3125038q-0.6875 -0.3125 -1.078125 -0.859375q-0.390625 -0.546875 -0.40625 -1.28125l1.234375 0q0.0625 0.625 0.5 1.046875q0.453125 0.421875 1.3125 0.421875q0.828125 0 1.296875 -0.40625q0.484375 -0.40625 0.484375 -1.0625q0 -0.5 -0.28125 -0.8125q-0.28125 -0.328125 -0.703125 -0.484375q-0.40625 -0.171875 -1.125 -0.359375q-0.875 -0.21875 -1.40625 -0.453125q-0.515625 -0.234375 -0.890625 -0.71875q-0.375 -0.484375 -0.375 -1.3125q0 -0.71875 0.359375 -1.265625q0.375 -0.5625 1.03125 -0.859375q0.671875 -0.3125 1.546875 -0.3125q1.234375 0 2.015625 0.625q0.796875 0.625 0.90625 1.640625l-1.265625 0q-0.0625 -0.5 -0.53125 -0.890625q-0.46875 -0.390625 -1.25 -0.390625q-0.71875 0 -1.171875 0.375q-0.453125 0.375 -0.453125 1.046875q0 0.484375 0.265625 0.796875q0.28125 0.296875 0.671875 0.453125q0.40625 0.15625 1.125 0.359375q0.875 0.234375 1.40625 0.46875q0.53125 0.234375 0.90625 0.734375q0.375 0.484375 0.375 1.3125q0 0.640625 -0.34375 1.21875q-0.328125 0.5625 -1.0 0.921875q-0.671875 0.3593788 -1.59375 0.3593788zm10.960449 -3.8281288q0 0.328125 -0.03125 0.703125l-5.546875 0q0.0625 1.015625 0.703125 1.59375q0.640625 0.578125 1.546875 0.578125q0.75 0 1.25 -0.34375q0.5 -0.359375 0.703125 -0.9375l1.234375 0q-0.265625 1.0 -1.109375 1.625q-0.828125 0.6250038 -2.078125 0.6250038q-0.984375 0 -1.765625 -0.4375038q-0.765625 -0.4375 -1.21875 -1.25q-0.4375 -0.828125 -0.4375 -1.90625q0 -1.078125 0.421875 -1.875q0.4375 -0.8125 1.21875 -1.25q0.78125 -0.4375 1.78125 -0.4375q1.0 0 1.75 0.4375q0.765625 0.421875 1.171875 1.171875q0.40625 0.75 0.40625 1.703125zm-1.1875 -0.234375q0 -0.65625 -0.296875 -1.125q-0.28125 -0.484375 -0.78125 -0.734375q-0.5 -0.25 -1.109375 -0.25q-0.875 0 -1.484375 0.5625q-0.609375 0.546875 -0.703125 1.546875l4.375 0zm3.8624725 -1.84375q0.3125 -0.59375 0.875 -0.921875q0.5625 -0.328125 1.359375 -0.328125l0 1.1875l-0.296875 0q-1.9375 0 -1.9375 2.109375l0 3.7656288l-1.15625 0l0 -6.937504l1.15625 0l0 1.125zm6.158264 4.75l2.140625 -5.875l1.234375 0l-2.71875 6.937504l-1.34375 0l-2.71875 -6.937504l1.234375 0l2.171875 5.875zm10.834503 -2.671875q0 0.328125 -0.03125 0.703125l-5.546875 0q0.0625 1.015625 0.703125 1.59375q0.640625 0.578125 1.546875 0.578125q0.75 0 1.25 -0.34375q0.5 -0.359375 0.703125 -0.9375l1.234375 0q-0.265625 1.0 -1.109375 1.625q-0.828125 0.6250038 -2.078125 0.6250038q-0.984375 0 -1.765625 -0.4375038q-0.765625 -0.4375 -1.21875 -1.25q-0.4375 -0.828125 -0.4375 -1.90625q0 -1.078125 0.421875 -1.875q0.4375 -0.8125 1.21875 -1.25q0.78125 -0.4375 1.78125 -0.4375q1.0 0 1.75 0.4375q0.765625 0.421875 1.171875 1.171875q0.40625 0.75 0.40625 1.703125zm-1.1875 -0.234375q0 -0.65625 -0.296875 -1.125q-0.28125 -0.484375 -0.78125 -0.734375q-0.5 -0.25 -1.109375 -0.25q-0.875 0 -1.484375 0.5625q-0.609375 0.546875 -0.703125 1.546875l4.375 0zm3.8624878 -1.84375q0.3125 -0.59375 0.875 -0.921875q0.5625 -0.328125 1.359375 -0.328125l0 1.1875l-0.296875 0q-1.9375 0 -1.9375 2.109375l0 3.7656288l-1.15625 0l0 -6.937504l1.15625 0l0 1.125z" fill-rule="nonzero"/><path fill="#ebf9f1" d="m42.29614 139.1105l116.755905 0l0 32.566925l-116.755905 0z" fill-rule="evenodd"/><path stroke="#99e0bb" stroke-width="1.0" stroke-linejoin="round" stroke-linecap="butt" d="m42.29614 139.1105l116.755905 0l0 32.566925l-116.755905 0z" fill-rule="evenodd"/><path fill="#0a1432" d="m60.927036 158.99147l2.140625 -5.875l1.2343712 0l-2.7187462 6.9375l-1.34375 0l-2.71875 -6.9375l1.234375 0l2.171875 5.875zm5.1001244 -7.0q-0.328125 0 -0.5625 -0.21875q-0.21875 -0.234375 -0.21875 -0.5625q0 -0.328125 0.21875 -0.546875q0.234375 -0.234375 0.5625 -0.234375q0.328125 0 0.546875 0.234375q0.21875 0.21875 0.21875 0.546875q0 0.328125 -0.21875 0.5625q-0.21875 0.21875 -0.546875 0.21875zm0.5625 1.125l0 6.9375l-1.15625 0l0 -6.9375l1.15625 0zm3.1134338 1.125q0.3125 -0.59375 0.875 -0.921875q0.5625 -0.328125 1.359375 -0.328125l0 1.1875l-0.296875 0q-1.9375 0 -1.9375 2.109375l0 3.765625l-1.15625 0l0 -6.9375l1.15625 0l0 1.125zm4.970764 -0.171875l0 4.09375q0 0.5 0.21875 0.71875q0.21875 0.203125 0.75 0.203125l0.84375 0l0 0.96875l-1.03125 0q-0.96875 0 -1.453125 -0.4375q-0.46875 -0.453125 -0.46875 -1.453125l0 -4.09375l-0.90625 0l0 -0.953125l0.90625 0l0 -1.75l1.140625 0l0 1.75l1.8125 0l0 0.953125l-1.8125 0zm8.013107 0.859375l0 0.96875l-5.046875 0l0 -0.96875l5.046875 0zm1.7391968 1.640625q0 -1.078125 0.421875 -1.875q0.4375 -0.796875 1.203125 -1.234375q0.765625 -0.453125 1.75 -0.453125q1.28125 0 2.109375 0.625q0.828125 0.609375 1.09375 1.71875l-1.234375 0q-0.1875 -0.640625 -0.703125 -1.0q-0.5 -0.375 -1.265625 -0.375q-0.984375 0 -1.59375 0.6875q-0.609375 0.671875 -0.609375 1.90625q0 1.25 0.609375 1.9375q0.609375 0.6875 1.59375 0.6875q0.765625 0 1.265625 -0.34375q0.5 -0.359375 0.703125 -1.03125l1.234375 0q-0.28125 1.0625 -1.125 1.703125q-0.828125 0.640625 -2.078125 0.640625q-0.984375 0 -1.75 -0.4375q-0.765625 -0.4375 -1.203125 -1.25q-0.421875 -0.8125 -0.421875 -1.90625zm11.135452 3.59375q-0.96875 0 -1.765625 -0.4375q-0.796875 -0.4375 -1.25 -1.25q-0.4375 -0.828125 -0.4375 -1.90625q0 -1.0625 0.453125 -1.875q0.46875 -0.8125 1.265625 -1.25q0.796875 -0.4375 1.78125 -0.4375q0.984375 0 1.78125 0.4375q0.796875 0.4375 1.265625 1.25q0.46875 0.796875 0.46875 1.875q0 1.078125 -0.484375 1.90625q-0.46875 0.8125 -1.28125 1.25q-0.8125 0.4375 -1.796875 0.4375zm0 -1.015625q0.625 0 1.15625 -0.28125q0.546875 -0.296875 0.875 -0.875q0.34375 -0.578125 0.34375 -1.421875q0 -0.828125 -0.328125 -1.40625q-0.328125 -0.59375 -0.859375 -0.875q-0.53125 -0.28125 -1.15625 -0.28125q-0.625 0 -1.15625 0.28125q-0.515625 0.28125 -0.84375 0.875q-0.3125 0.578125 -0.3125 1.40625q0 0.859375 0.3125 1.4375q0.3125 0.578125 0.828125 0.859375q0.515625 0.28125 1.140625 0.28125zm8.459351 -6.15625q1.265625 0 2.046875 0.765625q0.78125 0.765625 0.78125 2.203125l0 4.09375l-1.140625 0l0 -3.921875q0 -1.046875 -0.515625 -1.59375q-0.515625 -0.546875 -1.421875 -0.546875q-0.90625 0 -1.453125 0.578125q-0.53125 0.5625 -0.53125 1.65625l0 3.828125l-1.15625 0l0 -6.9375l1.15625 0l0 0.984375q0.34375 -0.53125 0.921875 -0.8125q0.59375 -0.296875 1.3125 -0.296875zm6.1156006 1.078125l0 4.09375q0 0.5 0.21875 0.71875q0.21875 0.203125 0.75 0.203125l0.84375 0l0 0.96875l-1.03125 0q-0.96875 0 -1.453125 -0.4375q-0.46875 -0.453125 -0.46875 -1.453125l0 -4.09375l-0.90625 0l0 -0.953125l0.90625 0l0 -1.75l1.140625 0l0 1.75l1.8125 0l0 0.953125l-1.8125 0zm4.3568573 0.171875q0.3125 -0.59375 0.875 -0.921875q0.5625 -0.328125 1.359375 -0.328125l0 1.1875l-0.296875 0q-1.9375 0 -1.9375 2.109375l0 3.765625l-1.15625 0l0 -6.9375l1.15625 0l0 1.125zm6.595764 5.921875q-0.96875 0 -1.765625 -0.4375q-0.796875 -0.4375 -1.25 -1.25q-0.4375 -0.828125 -0.4375 -1.90625q0 -1.0625 0.453125 -1.875q0.46875 -0.8125 1.265625 -1.25q0.796875 -0.4375 1.78125 -0.4375q0.984375 0 1.78125 0.4375q0.796875 0.4375 1.265625 1.25q0.46875 0.796875 0.46875 1.875q0 1.078125 -0.484375 1.90625q-0.46875 0.8125 -1.28125 1.25q-0.8125 0.4375 -1.796875 0.4375zm0 -1.015625q0.625 0 1.15625 -0.28125q0.546875 -0.296875 0.875 -0.875q0.34375 -0.578125 0.34375 -1.421875q0 -0.828125 -0.328125 -1.40625q-0.328125 -0.59375 -0.859375 -0.875q-0.53125 -0.28125 -1.15625 -0.28125q-0.625 0 -1.15625 0.28125q-0.515625 0.28125 -0.84375 0.875q-0.3125 0.578125 -0.3125 1.40625q0 0.859375 0.3125 1.4375q0.3125 0.578125 0.828125 0.859375q0.515625 0.28125 1.140625 0.28125zm6.2249756 -8.453125l0 9.359375l-1.15625 0l0 -9.359375l1.15625 0zm3.1134338 0l0 9.359375l-1.15625 0l0 -9.359375l1.15625 0zm8.285309 5.625q0 0.328125 -0.03125 0.703125l-5.546875 0q0.0625 1.015625 0.703125 1.59375q0.640625 0.578125 1.546875 0.578125q0.75 0 1.25 -0.34375q0.5 -0.359375 0.703125 -0.9375l1.234375 0q-0.265625 1.0 -1.109375 1.625q-0.828125 0.625 -2.078125 0.625q-0.984375 0 -1.765625 -0.4375q-0.765625 -0.4375 -1.21875 -1.25q-0.4375 -0.828125 -0.4375 -1.90625q0 -1.078125 0.421875 -1.875q0.4375 -0.8125 1.21875 -1.25q0.78125 -0.4375 1.78125 -0.4375q1.0 0 1.75 0.4375q0.765625 0.421875 1.171875 1.171875q0.40625 0.75 0.40625 1.703125zm-1.1875 -0.234375q0 -0.65625 -0.296875 -1.125q-0.28125 -0.484375 -0.78125 -0.734375q-0.5 -0.25 -1.109375 -0.25q-0.875 0 -1.484375 0.5625q-0.609375 0.546875 -0.703125 1.546875l4.375 0zm3.8624725 -1.84375q0.3125 -0.59375 0.875 -0.921875q0.5625 -0.328125 1.359375 -0.328125l0 1.1875l-0.296875 0q-1.9375 0 -1.9375 2.109375l0 3.765625l-1.15625 0l0 -6.9375l1.15625 0l0 1.125z" fill-rule="nonzero"/><path fill="#ebf9f1" d="m178.29631 139.1105l82.01576 0l0 32.566925l-82.01576 0z" fill-rule="evenodd"/><path stroke="#99e0bb" stroke-width="1.0" stroke-linejoin="round" stroke-linecap="butt" d="m178.29631 139.1105l82.01576 0l0 32.566925l-82.01576 0z" fill-rule="evenodd"/><path fill="#0a1432" d="m199.497 158.99147l2.140625 -5.875l1.234375 0l-2.71875 6.9375l-1.34375 0l-2.71875 -6.9375l1.234375 0l2.171875 5.875zm5.100128 -7.0q-0.328125 0 -0.5625 -0.21875q-0.21875 -0.234375 -0.21875 -0.5625q0 -0.328125 0.21875 -0.546875q0.234375 -0.234375 0.5625 -0.234375q0.328125 0 0.546875 0.234375q0.21875 0.21875 0.21875 0.546875q0 0.328125 -0.21875 0.5625q-0.21875 0.21875 -0.546875 0.21875zm0.5625 1.125l0 6.9375l-1.15625 0l0 -6.9375l1.15625 0zm3.1134338 1.125q0.3125 -0.59375 0.875 -0.921875q0.5625 -0.328125 1.359375 -0.328125l0 1.1875l-0.296875 0q-1.9375 0 -1.9375 2.109375l0 3.765625l-1.15625 0l0 -6.9375l1.15625 0l0 1.125zm4.970764 -0.171875l0 4.09375q0 0.5 0.21875 0.71875q0.21875 0.203125 0.75 0.203125l0.84375 0l0 0.96875l-1.03125 0q-0.96875 0 -1.453125 -0.4375q-0.46875 -0.453125 -0.46875 -1.453125l0 -4.09375l-0.90625 0l0 -0.953125l0.90625 0l0 -1.75l1.140625 0l0 1.75l1.8125 0l0 0.953125l-1.8125 0zm8.013107 0.859375l0 0.96875l-5.046875 0l0 -0.96875l5.046875 0zm1.7391968 1.625q0 -1.0625 0.421875 -1.859375q0.4375 -0.796875 1.1875 -1.234375q0.75 -0.453125 1.671875 -0.453125q0.921875 0 1.59375 0.390625q0.671875 0.390625 1.0 0.984375l0 -1.265625l1.15625 0l0 6.9375l-1.15625 0l0 -1.296875q-0.34375 0.609375 -1.03125 1.015625q-0.671875 0.390625 -1.5625 0.390625q-0.9375 0 -1.6875 -0.453125q-0.734375 -0.453125 -1.171875 -1.265625q-0.421875 -0.828125 -0.421875 -1.890625zm5.875 0.015625q0 -0.78125 -0.328125 -1.359375q-0.3125 -0.578125 -0.859375 -0.890625q-0.53125 -0.3125 -1.171875 -0.3125q-0.640625 0 -1.171875 0.3125q-0.53125 0.296875 -0.859375 0.875q-0.3125 0.578125 -0.3125 1.359375q0 0.796875 0.3125 1.390625q0.328125 0.59375 0.859375 0.90625q0.53125 0.296875 1.171875 0.296875q0.640625 0 1.171875 -0.296875q0.546875 -0.3125 0.859375 -0.90625q0.328125 -0.59375 0.328125 -1.375zm4.258728 -2.171875q0.34375 -0.59375 1.015625 -0.984375q0.6875 -0.40625 1.578125 -0.40625q0.921875 0 1.671875 0.453125q0.765625 0.4375 1.1875 1.234375q0.4375 0.796875 0.4375 1.859375q0 1.0625 -0.4375 1.890625q-0.421875 0.8125 -1.1875 1.265625q-0.75 0.453125 -1.671875 0.453125q-0.890625 0 -1.5625 -0.390625q-0.671875 -0.40625 -1.03125 -1.0l0 4.578125l-1.15625 0l0 -10.234375l1.15625 0l0 1.28125zm4.703125 2.15625q0 -0.78125 -0.3125 -1.359375q-0.3125 -0.578125 -0.859375 -0.875q-0.53125 -0.3125 -1.171875 -0.3125q-0.640625 0 -1.1875 0.3125q-0.53125 0.3125 -0.859375 0.90625q-0.3125 0.578125 -0.3125 1.34375q0 0.78125 0.3125 1.375q0.328125 0.59375 0.859375 0.90625q0.546875 0.296875 1.1875 0.296875q0.640625 0 1.171875 -0.296875q0.546875 -0.3125 0.859375 -0.90625q0.3125 -0.59375 0.3125 -1.390625zm3.289978 -4.5625q-0.328125 0 -0.5625 -0.21875q-0.21875 -0.234375 -0.21875 -0.5625q0 -0.328125 0.21875 -0.546875q0.234375 -0.234375 0.5625 -0.234375q0.328125 0 0.546875 0.234375q0.21875 0.21875 0.21875 0.546875q0 0.328125 -0.21875 0.5625q-0.21875 0.21875 -0.546875 0.21875zm0.5625 1.125l0 6.9375l-1.15625 0l0 -6.9375l1.15625 0z" fill-rule="nonzero"/><path fill="#000000" fill-opacity="0.0" d="m100.67409 139.1105c0 -15.763779 0.0157547 -23.645668 0.03150177 -31.527557c0.01574707 -7.8818893 0.03149414 -15.763779 0.03149414 -31.527557" fill-rule="evenodd"/><path stroke="#d63384" stroke-width="2.0" stroke-linejoin="round" stroke-linecap="butt" d="m100.678116 127.110504l0.0058135986 -6.71949c0.0059051514 -4.926178 0.0137786865 -8.867126 0.021659851 -12.808067c0.007873535 -3.9409485 0.01574707 -7.8818893 0.021652222 -12.808075l0.0058135986 -6.71949" fill-rule="evenodd"/><path fill="#d63384" stroke="#d63384" stroke-width="2.0" stroke-linecap="butt" d="m97.37466 127.1094l3.300415 9.077293l3.306511 -9.075081z" fill-rule="evenodd"/><path fill="#d63384" stroke="#d63384" stroke-width="2.0" stroke-linecap="butt" d="m104.036514 88.056496l-3.300415 -9.077309l-3.306511 9.0750885z" fill-rule="evenodd"/><path fill="#000000" fill-opacity="0.0" d="m219.30418 139.1105c0 -15.937004 0.01574707 -23.90551 0.03149414 -31.874016c0.01574707 -7.968506 0.03149414 -15.937004 0.03149414 -31.874016" fill-rule="evenodd"/><path stroke="#d63384" stroke-width="2.0" stroke-linejoin="round" stroke-linecap="butt" d="m219.3081 127.110504l0.005935669 -6.9252014c0.0059051514 -4.9803085 0.0137786865 -8.964561 0.021652222 -12.948814c0.007873535 -3.984253 0.01574707 -7.968506 0.021652222 -12.948822l0.00592041 -6.925194" fill-rule="evenodd"/><path fill="#d63384" stroke="#d63384" stroke-width="2.0" stroke-linecap="butt" d="m216.00465 127.10943l3.3004913 9.077263l3.306427 -9.075111z" fill-rule="evenodd"/><path fill="#d63384" stroke="#d63384" stroke-width="2.0" stroke-linecap="butt" d="m222.66673 87.36355l-3.3005066 -9.0772705l-3.306427 9.075111z" fill-rule="evenodd"/><path fill="#99e0bb" d="m389.89474 4.0085077l503.811 0l0 351.62204l-503.811 0z" fill-rule="evenodd"/><path stroke="#99e0bb" stroke-width="1.0" stroke-linejoin="round" stroke-linecap="butt" d="m389.89474 4.0085077l503.811 0l0 351.62204l-503.811 0z" fill-rule="evenodd"/><path fill="#000000" d="m407.62912 343.79056l-2.171875 0l-3.609375 -5.484375l0 5.484375l-2.171875 0l0 -8.890625l2.171875 0l3.609375 5.515625l0 -5.515625l2.171875 0l0 8.890625zm4.783081 0.09375q-1.03125 0 -1.875 -0.4375q-0.828125 -0.4375 -1.296875 -1.265625q-0.46875 -0.828125 -0.46875 -1.921875q0 -1.09375 0.46875 -1.921875q0.484375 -0.828125 1.3125 -1.265625q0.84375 -0.4375 1.890625 -0.4375q1.03125 0 1.859375 0.4375q0.84375 0.4375 1.3125 1.265625q0.484375 0.828125 0.484375 1.921875q0 1.09375 -0.484375 1.921875q-0.484375 0.828125 -1.328125 1.265625q-0.84375 0.4375 -1.875 0.4375zm0 -1.859375q0.625 0 1.0625 -0.453125q0.4375 -0.46875 0.4375 -1.3125q0 -0.84375 -0.4375 -1.296875q-0.421875 -0.46875 -1.03125 -0.46875q-0.640625 0 -1.0625 0.453125q-0.40625 0.453125 -0.40625 1.3125q0 0.84375 0.40625 1.3125q0.40625 0.453125 1.03125 0.453125zm4.4213867 -1.78125q0 -1.078125 0.40625 -1.90625q0.40625 -0.828125 1.109375 -1.265625q0.71875 -0.4375 1.59375 -0.4375q0.6875 0 1.265625 0.296875q0.578125 0.28125 0.90625 0.765625l0 -3.265625l2.171875 0l0 9.359375l-2.171875 0l0 -1.015625q-0.296875 0.515625 -0.859375 0.8125q-0.5625 0.296875 -1.3125 0.296875q-0.875 0 -1.59375 -0.4375q-0.703125 -0.453125 -1.109375 -1.28125q-0.40625 -0.828125 -0.40625 -1.921875zm5.28125 0.015625q0 -0.8125 -0.453125 -1.28125q-0.4375 -0.46875 -1.09375 -0.46875q-0.640625 0 -1.09375 0.46875q-0.4375 0.453125 -0.4375 1.265625q0 0.8125 0.4375 1.296875q0.453125 0.46875 1.09375 0.46875q0.65625 0 1.09375 -0.46875q0.453125 -0.46875 0.453125 -1.28125zm10.390442 -0.109375q0 0.296875 -0.03125 0.625l-4.90625 0q0.0625 0.65625 0.421875 1.015625q0.375 0.34375 0.921875 0.34375q0.8125 0 1.125 -0.6875l2.3125 0q-0.1875 0.703125 -0.65625 1.265625q-0.453125 0.546875 -1.15625 0.859375q-0.6875 0.3125 -1.546875 0.3125q-1.03125 0 -1.84375 -0.4375q-0.8125 -0.4375 -1.265625 -1.265625q-0.453125 -0.828125 -0.453125 -1.921875q0 -1.09375 0.4375 -1.921875q0.453125 -0.828125 1.265625 -1.265625q0.8125 -0.4375 1.859375 -0.4375q1.03125 0 1.828125 0.4375q0.796875 0.421875 1.234375 1.21875q0.453125 0.796875 0.453125 1.859375zm-2.203125 -0.578125q0 -0.546875 -0.390625 -0.875q-0.375 -0.328125 -0.953125 -0.328125q-0.53125 0 -0.90625 0.3125q-0.375 0.3125 -0.46875 0.890625l2.71875 0zm6.218109 4.3125q-0.921875 0 -1.640625 -0.3125q-0.71875 -0.3125 -1.140625 -0.859375q-0.421875 -0.546875 -0.46875 -1.234375l2.140625 0q0.03125 0.359375 0.328125 0.59375q0.3125 0.21875 0.75 0.21875q0.40625 0 0.625 -0.15625q0.234375 -0.15625 0.234375 -0.40625q0 -0.296875 -0.328125 -0.4375q-0.3125 -0.15625 -1.015625 -0.328125q-0.765625 -0.1875 -1.28125 -0.375q-0.5 -0.203125 -0.875 -0.625q-0.359375 -0.421875 -0.359375 -1.140625q0 -0.609375 0.328125 -1.109375q0.34375 -0.5 1.0 -0.78125q0.65625 -0.296875 1.546875 -0.296875q1.328125 0 2.09375 0.65625q0.765625 0.65625 0.890625 1.734375l-2.0 0q-0.0625 -0.359375 -0.328125 -0.578125q-0.265625 -0.21875 -0.71875 -0.21875q-0.375 0 -0.578125 0.15625q-0.203125 0.140625 -0.203125 0.390625q0 0.3125 0.3125 0.46875q0.328125 0.140625 1.015625 0.296875q0.78125 0.203125 1.28125 0.40625q0.5 0.1875 0.859375 0.625q0.375 0.4375 0.390625 1.171875q0 0.609375 -0.34375 1.109375q-0.34375 0.484375 -1.0 0.765625q-0.65625 0.265625 -1.515625 0.265625z" fill-rule="nonzero"/><path fill="#ffffff" d="m408.87375 104.44683l143.74802 0l0 214.2677l-143.74802 0z" fill-rule="evenodd"/><path fill="#000000" d="m421.78 116.54495q1.328125 0 2.3125 0.53125q1.0 0.515625 1.546875 1.484375q0.546875 0.953125 0.546875 2.1875q0 1.25 -0.546875 2.203125q-0.546875 0.953125 -1.546875 1.484375q-1.0 0.53125 -2.3125 0.53125l-3.15625 0l0 -8.421875l3.15625 0zm-0.140625 6.640625q1.171875 0 1.8125 -0.625q0.65625 -0.640625 0.65625 -1.8125q0 -1.15625 -0.65625 -1.796875q-0.640625 -0.65625 -1.8125 -0.65625l-0.96875 0l0 4.890625l0.96875 0zm5.302185 -1.578125q0 -1.03125 0.375 -1.8125q0.390625 -0.78125 1.0625 -1.203125q0.671875 -0.421875 1.5 -0.421875q0.71875 0 1.25 0.296875q0.53125 0.28125 0.828125 0.75l0 -0.953125l2.046875 0l0 6.703125l-2.046875 0l0 -0.953125q-0.3125 0.46875 -0.84375 0.765625q-0.53125 0.28125 -1.234375 0.28125q-0.828125 0 -1.5 -0.421875q-0.671875 -0.421875 -1.0625 -1.203125q-0.375 -0.796875 -0.375 -1.828125zm5.015625 0.015625q0 -0.765625 -0.4375 -1.203125q-0.421875 -0.453125 -1.03125 -0.453125q-0.609375 0 -1.046875 0.4375q-0.421875 0.4375 -0.421875 1.203125q0 0.765625 0.421875 1.21875q0.4375 0.453125 1.046875 0.453125q0.609375 0 1.03125 -0.4375q0.4375 -0.453125 0.4375 -1.21875zm9.851166 -0.109375q0 0.28125 -0.046875 0.59375l-4.640625 0q0.046875 0.625 0.390625 0.953125q0.359375 0.328125 0.875 0.328125q0.78125 0 1.078125 -0.640625l2.1875 0q-0.171875 0.65625 -0.609375 1.1875q-0.4375 0.53125 -1.109375 0.828125q-0.65625 0.296875 -1.46875 0.296875q-0.984375 0 -1.75 -0.421875q-0.765625 -0.421875 -1.203125 -1.1875q-0.421875 -0.78125 -0.421875 -1.828125q0 -1.046875 0.421875 -1.828125q0.421875 -0.78125 1.1875 -1.203125q0.765625 -0.421875 1.765625 -0.421875q0.96875 0 1.71875 0.421875q0.765625 0.40625 1.1875 1.15625q0.4375 0.75 0.4375 1.765625zm-2.109375 -0.546875q0 -0.53125 -0.359375 -0.828125q-0.359375 -0.3125 -0.890625 -0.3125q-0.515625 0 -0.875 0.296875q-0.359375 0.296875 -0.4375 0.84375l2.5625 0zm11.720184 -2.765625q1.25 0 1.984375 0.765625q0.75 0.75 0.75 2.09375l0 3.90625l-2.046875 0l0 -3.640625q0 -0.640625 -0.34375 -0.984375q-0.34375 -0.359375 -0.9375 -0.359375q-0.59375 0 -0.9375 0.359375q-0.34375 0.34375 -0.34375 0.984375l0 3.640625l-2.046875 0l0 -3.640625q0 -0.640625 -0.34375 -0.984375q-0.328125 -0.359375 -0.9375 -0.359375q-0.59375 0 -0.9375 0.359375q-0.34375 0.34375 -0.34375 0.984375l0 3.640625l-2.046875 0l0 -6.703125l2.046875 0l0 0.84375q0.3125 -0.421875 0.8125 -0.65625q0.5 -0.25 1.140625 -0.25q0.765625 0 1.359375 0.328125q0.59375 0.3125 0.921875 0.921875q0.34375 -0.5625 0.9375 -0.90625q0.609375 -0.34375 1.3125 -0.34375zm7.2237244 6.859375q-0.984375 0 -1.78125 -0.421875q-0.78125 -0.421875 -1.234375 -1.1875q-0.4375 -0.78125 -0.4375 -1.828125q0 -1.03125 0.453125 -1.8125q0.453125 -0.796875 1.234375 -1.21875q0.796875 -0.421875 1.78125 -0.421875q0.984375 0 1.78125 0.421875q0.796875 0.421875 1.25 1.21875q0.453125 0.78125 0.453125 1.8125q0 1.03125 -0.46875 1.8125q-0.453125 0.78125 -1.25 1.203125q-0.796875 0.421875 -1.78125 0.421875zm0 -1.78125q0.578125 0 0.984375 -0.421875q0.421875 -0.4375 0.421875 -1.234375q0 -0.8125 -0.40625 -1.234375q-0.390625 -0.4375 -0.984375 -0.4375q-0.59375 0 -1.0 0.4375q-0.390625 0.421875 -0.390625 1.234375q0 0.796875 0.390625 1.234375q0.390625 0.421875 0.984375 0.421875zm8.675293 -5.078125q1.171875 0 1.875 0.765625q0.703125 0.75 0.703125 2.09375l0 3.90625l-2.046875 0l0 -3.640625q0 -0.671875 -0.34375 -1.03125q-0.34375 -0.375 -0.9375 -0.375q-0.59375 0 -0.9375 0.375q-0.34375 0.359375 -0.34375 1.03125l0 3.640625l-2.046875 0l0 -6.703125l2.046875 0l0 0.890625q0.3125 -0.4375 0.828125 -0.6875q0.53125 -0.265625 1.203125 -0.265625zm7.0568237 6.84375q-0.921875 0 -1.65625 -0.296875q-0.734375 -0.296875 -1.171875 -0.875q-0.4375 -0.59375 -0.46875 -1.421875l2.1875 0q0.046875 0.46875 0.3125 0.71875q0.28125 0.234375 0.734375 0.234375q0.453125 0 0.71875 -0.203125q0.265625 -0.21875 0.265625 -0.59375q0 -0.296875 -0.21875 -0.5q-0.203125 -0.21875 -0.515625 -0.34375q-0.296875 -0.140625 -0.859375 -0.296875q-0.828125 -0.25 -1.34375 -0.5q-0.515625 -0.265625 -0.890625 -0.75q-0.359375 -0.5 -0.359375 -1.28125q0 -1.1875 0.84375 -1.84375q0.859375 -0.671875 2.21875 -0.671875q1.390625 0 2.25 0.671875q0.859375 0.65625 0.90625 1.84375l-2.21875 0q-0.015625 -0.40625 -0.296875 -0.640625q-0.28125 -0.234375 -0.703125 -0.234375q-0.375 0 -0.609375 0.203125q-0.21875 0.203125 -0.21875 0.578125q0 0.40625 0.375 0.640625q0.390625 0.21875 1.203125 0.484375q0.8125 0.265625 1.328125 0.53125q0.515625 0.25 0.875 0.734375q0.375 0.46875 0.375 1.21875q0 0.734375 -0.375 1.328125q-0.359375 0.578125 -1.0625 0.921875q-0.6875 0.34375 -1.625 0.34375zm10.64566 -3.53125q0 0.28125 -0.046875 0.59375l-4.640625 0q0.046875 0.625 0.390625 0.953125q0.359375 0.328125 0.875 0.328125q0.78125 0 1.078125 -0.640625l2.1875 0q-0.171875 0.65625 -0.609375 1.1875q-0.4375 0.53125 -1.109375 0.828125q-0.65625 0.296875 -1.46875 0.296875q-0.984375 0 -1.75 -0.421875q-0.765625 -0.421875 -1.203125 -1.1875q-0.421875 -0.78125 -0.421875 -1.828125q0 -1.046875 0.421875 -1.828125q0.421875 -0.78125 1.1875 -1.203125q0.765625 -0.421875 1.765625 -0.421875q0.96875 0 1.71875 0.421875q0.765625 0.40625 1.1875 1.15625q0.4375 0.75 0.4375 1.765625zm-2.109375 -0.546875q0 -0.53125 -0.359375 -0.828125q-0.359375 -0.3125 -0.890625 -0.3125q-0.515625 0 -0.875 0.296875q-0.359375 0.296875 -0.4375 0.84375l2.5625 0zm6.9076843 2.265625l0 1.734375l-1.03125 0q-1.125 0 -1.75 -0.546875q-0.625 -0.546875 -0.625 -1.78125l0 -2.65625l-0.8125 0l0 -1.71875l0.8125 0l0 -1.625l2.0625 0l0 1.625l1.34375 0l0 1.71875l-1.34375 0l0 2.6875q0 0.296875 0.140625 0.4375q0.140625 0.125 0.484375 0.125l0.71875 0z" fill-rule="nonzero"/><path fill="#ebf9f1" d="m422.1949 139.1105l116.75592 0l0 32.566925l-116.75592 0z" fill-rule="evenodd"/><path stroke="#99e0bb" stroke-width="1.0" stroke-linejoin="round" stroke-linecap="butt" d="m422.1949 139.1105l116.75592 0l0 32.566925l-116.75592 0z" fill-rule="evenodd"/><path fill="#0a1432" d="m446.38184 158.99147l2.140625 -5.875l1.234375 0l-2.71875 6.9375l-1.34375 0l-2.71875 -6.9375l1.234375 0l2.171875 5.875zm5.100128 -7.0q-0.328125 0 -0.5625 -0.21875q-0.21875 -0.234375 -0.21875 -0.5625q0 -0.328125 0.21875 -0.546875q0.234375 -0.234375 0.5625 -0.234375q0.328125 0 0.546875 0.234375q0.21875 0.21875 0.21875 0.546875q0 0.328125 -0.21875 0.5625q-0.21875 0.21875 -0.546875 0.21875zm0.5625 1.125l0 6.9375l-1.15625 0l0 -6.9375l1.15625 0zm3.1134338 1.125q0.3125 -0.59375 0.875 -0.921875q0.5625 -0.328125 1.359375 -0.328125l0 1.1875l-0.296875 0q-1.9375 0 -1.9375 2.109375l0 3.765625l-1.15625 0l0 -6.9375l1.15625 0l0 1.125zm4.970764 -0.171875l0 4.09375q0 0.5 0.21875 0.71875q0.21875 0.203125 0.75 0.203125l0.84375 0l0 0.96875l-1.03125 0q-0.96875 0 -1.453125 -0.4375q-0.46875 -0.453125 -0.46875 -1.453125l0 -4.09375l-0.90625 0l0 -0.953125l0.90625 0l0 -1.75l1.140625 0l0 1.75l1.8125 0l0 0.953125l-1.8125 0zm8.013123 0.859375l0 0.96875l-5.046875 0l0 -0.96875l5.046875 0zm5.614197 -1.9375q0.78125 0 1.40625 0.34375q0.640625 0.328125 1.0 1.0q0.359375 0.671875 0.359375 1.625l0 4.09375l-1.140625 0l0 -3.921875q0 -1.046875 -0.515625 -1.59375q-0.515625 -0.546875 -1.421875 -0.546875q-0.90625 0 -1.453125 0.578125q-0.53125 0.5625 -0.53125 1.65625l0 3.828125l-1.15625 0l0 -9.359375l1.15625 0l0 3.40625q0.34375 -0.53125 0.9375 -0.8125q0.609375 -0.296875 1.359375 -0.296875zm4.2249756 3.5625q0 -1.0625 0.421875 -1.859375q0.4375 -0.796875 1.1875 -1.234375q0.75 -0.453125 1.671875 -0.453125q0.921875 0 1.59375 0.390625q0.671875 0.390625 1.0 0.984375l0 -1.265625l1.15625 0l0 6.9375l-1.15625 0l0 -1.296875q-0.34375 0.609375 -1.03125 1.015625q-0.671875 0.390625 -1.5625 0.390625q-0.9375 0 -1.6875 -0.453125q-0.734375 -0.453125 -1.171875 -1.265625q-0.421875 -0.828125 -0.421875 -1.890625zm5.875 0.015625q0 -0.78125 -0.328125 -1.359375q-0.3125 -0.578125 -0.859375 -0.890625q-0.53125 -0.3125 -1.171875 -0.3125q-0.640625 0 -1.171875 0.3125q-0.53125 0.296875 -0.859375 0.875q-0.3125 0.578125 -0.3125 1.359375q0 0.796875 0.3125 1.390625q0.328125 0.59375 0.859375 0.90625q0.53125 0.296875 1.171875 0.296875q0.640625 0 1.171875 -0.296875q0.546875 -0.3125 0.859375 -0.90625q0.328125 -0.59375 0.328125 -1.375zm6.493103 -3.578125q1.265625 0 2.046875 0.765625q0.78125 0.765625 0.78125 2.203125l0 4.09375l-1.140625 0l0 -3.921875q0 -1.046875 -0.515625 -1.59375q-0.515625 -0.546875 -1.421875 -0.546875q-0.90625 0 -1.453125 0.578125q-0.53125 0.5625 -0.53125 1.65625l0 3.828125l-1.15625 0l0 -6.9375l1.15625 0l0 0.984375q0.34375 -0.53125 0.921875 -0.8125q0.59375 -0.296875 1.3125 -0.296875zm4.2874756 3.5625q0 -1.0625 0.421875 -1.859375q0.4375 -0.796875 1.1875 -1.234375q0.75 -0.453125 1.6875 -0.453125q0.8125 0 1.5 0.375q0.703125 0.375 1.078125 0.984375l0 -3.671875l1.15625 0l0 9.359375l-1.15625 0l0 -1.296875q-0.34375 0.609375 -1.015625 1.015625q-0.671875 0.390625 -1.578125 0.390625q-0.921875 0 -1.671875 -0.453125q-0.75 -0.453125 -1.1875 -1.265625q-0.421875 -0.828125 -0.421875 -1.890625zm5.875 0.015625q0 -0.78125 -0.328125 -1.359375q-0.3125 -0.578125 -0.859375 -0.890625q-0.53125 -0.3125 -1.171875 -0.3125q-0.640625 0 -1.171875 0.3125q-0.53125 0.296875 -0.859375 0.875q-0.3125 0.578125 -0.3125 1.359375q0 0.796875 0.3125 1.390625q0.328125 0.59375 0.859375 0.90625q0.53125 0.296875 1.171875 0.296875q0.640625 0 1.171875 -0.296875q0.546875 -0.3125 0.859375 -0.90625q0.328125 -0.59375 0.328125 -1.375zm4.258728 -5.875l0 9.359375l-1.15625 0l0 -9.359375l1.15625 0zm8.285278 5.625q0 0.328125 -0.03125 0.703125l-5.5468445 0q0.0625 1.015625 0.703125 1.59375q0.640625 0.578125 1.546875 0.578125q0.75 0 1.25 -0.34375q0.5 -0.359375 0.703125 -0.9375l1.2343445 0q-0.265625 1.0 -1.1093445 1.625q-0.828125 0.625 -2.078125 0.625q-0.984375 0 -1.765625 -0.4375q-0.765625 -0.4375 -1.21875 -1.25q-0.4375 -0.828125 -0.4375 -1.90625q0 -1.078125 0.421875 -1.875q0.4375 -0.8125 1.21875 -1.25q0.78125 -0.4375 1.78125 -0.4375q1.0 0 1.75 0.4375q0.7655945 0.421875 1.1718445 1.171875q0.40625 0.75 0.40625 1.703125zm-1.1874695 -0.234375q0 -0.65625 -0.296875 -1.125q-0.28125 -0.484375 -0.78125 -0.734375q-0.5 -0.25 -1.109375 -0.25q-0.875 0 -1.484375 0.5625q-0.609375 0.546875 -0.703125 1.546875l4.375 0zm3.8624573 -1.84375q0.3125 -0.59375 0.875 -0.921875q0.5625 -0.328125 1.359375 -0.328125l0 1.1875l-0.296875 0q-1.9375 0 -1.9375 2.109375l0 3.765625l-1.15625 0l0 -6.9375l1.15625 0l0 1.125z" fill-rule="nonzero"/><path fill="#ffffff" d="m408.87375 27.11087l463.74802 0l0 43.685036l-463.74802 0z" fill-rule="evenodd"/><path stroke="#6c7284" stroke-width="1.0" stroke-linejoin="round" stroke-linecap="butt" stroke-dasharray="1.0,3.0" d="m408.87375 27.11087l463.74802 0l0 43.685036l-463.74802 0z" fill-rule="evenodd"/><path fill="#000000" d="m622.68805 53.613388l-3.640625 -4.03125l0 4.03125l-1.15625 0l0 -8.828125l1.15625 0l0 4.09375l3.640625 -4.09375l1.46875 0l-4.0 4.421875l4.03125 4.40625l-1.5 0zm8.94043 -6.9375l0 6.9375l-1.15625 0l0 -1.03125q-0.328125 0.53125 -0.921875 0.828125q-0.578125 0.296875 -1.28125 0.296875q-0.8125 0 -1.46875 -0.328125q-0.640625 -0.328125 -1.015625 -1.0q-0.375 -0.671875 -0.375 -1.640625l0 -4.0625l1.140625 0l0 3.90625q0 1.03125 0.515625 1.578125q0.53125 0.546875 1.421875 0.546875q0.921875 0 1.453125 -0.5625q0.53125 -0.5625 0.53125 -1.65625l0 -3.8125l1.15625 0zm3.0999756 1.296875q0.359375 -0.625 1.03125 -1.015625q0.6875 -0.390625 1.5625 -0.390625q0.9375 0 1.6875 0.453125q0.75 0.4375 1.171875 1.234375q0.4375 0.796875 0.4375 1.859375q0 1.0625 -0.4375 1.890625q-0.421875 0.8125 -1.1875 1.265625q-0.75 0.453125 -1.671875 0.453125q-0.890625 0 -1.578125 -0.390625q-0.671875 -0.390625 -1.015625 -1.0l0 1.28125l-1.15625 0l0 -9.359375l1.15625 0l0 3.71875zm4.703125 2.140625q0 -0.78125 -0.3125 -1.359375q-0.3125 -0.578125 -0.859375 -0.875q-0.53125 -0.3125 -1.171875 -0.3125q-0.640625 0 -1.1875 0.3125q-0.53125 0.3125 -0.859375 0.90625q-0.3125 0.578125 -0.3125 1.34375q0 0.78125 0.3125 1.375q0.328125 0.59375 0.859375 0.90625q0.546875 0.296875 1.1875 0.296875q0.640625 0 1.171875 -0.296875q0.546875 -0.3125 0.859375 -0.90625q0.3125 -0.59375 0.3125 -1.390625zm9.024353 -0.234375q0 0.328125 -0.03125 0.703125l-5.546875 0q0.0625 1.015625 0.703125 1.59375q0.640625 0.578125 1.546875 0.578125q0.75 0 1.25 -0.34375q0.5 -0.359375 0.703125 -0.9375l1.234375 0q-0.265625 1.0 -1.109375 1.625q-0.828125 0.625 -2.078125 0.625q-0.984375 0 -1.765625 -0.4375q-0.765625 -0.4375 -1.21875 -1.25q-0.4375 -0.828125 -0.4375 -1.90625q0 -1.078125 0.421875 -1.875q0.4375 -0.8125 1.21875 -1.25q0.78125 -0.4375 1.78125 -0.4375q1.0 0 1.75 0.4375q0.765625 0.421875 1.171875 1.171875q0.40625 0.75 0.40625 1.703125zm-1.1875 -0.234375q0 -0.65625 -0.296875 -1.125q-0.28125 -0.484375 -0.78125 -0.734375q-0.5 -0.25 -1.109375 -0.25q-0.875 0 -1.484375 0.5625q-0.609375 0.546875 -0.703125 1.546875l4.375 0zm3.8624878 -5.390625l0 9.359375l-1.15625 0l0 -9.359375l1.15625 0zm8.285339 5.625q0 0.328125 -0.03125 0.703125l-5.546875 0q0.0625 1.015625 0.703125 1.59375q0.640625 0.578125 1.546875 0.578125q0.75 0 1.25 -0.34375q0.5 -0.359375 0.703125 -0.9375l1.234375 0q-0.265625 1.0 -1.109375 1.625q-0.828125 0.625 -2.078125 0.625q-0.984375 0 -1.765625 -0.4375q-0.765625 -0.4375 -1.21875 -1.25q-0.4375 -0.828125 -0.4375 -1.90625q0 -1.078125 0.421875 -1.875q0.4375 -0.8125 1.21875 -1.25q0.78125 -0.4375 1.78125 -0.4375q1.0 0 1.75 0.4375q0.765625 0.421875 1.171875 1.171875q0.40625 0.75 0.40625 1.703125zm-1.1875 -0.234375q0 -0.65625 -0.296875 -1.125q-0.28125 -0.484375 -0.78125 -0.734375q-0.5 -0.25 -1.109375 -0.25q-0.875 0 -1.484375 0.5625q-0.609375 0.546875 -0.703125 1.546875l4.375 0zm4.1124268 -2.015625l0 4.09375q0 0.5 0.21875 0.71875q0.21875 0.203125 0.75 0.203125l0.84375 0l0 0.96875l-1.03125 0q-0.96875 0 -1.453125 -0.4375q-0.46875 -0.453125 -0.46875 -1.453125l0 -4.09375l-0.90625 0l0 -0.953125l0.90625 0l0 -1.75l1.140625 0l0 1.75l1.8125 0l0 0.953125l-1.8125 0z" fill-rule="nonzero"/><path fill="#ffffff" d="m568.8737 104.44683l143.74805 0l0 214.2677l-143.74805 0z" fill-rule="evenodd"/><path fill="#000000" d="m586.9987 116.7162l-3.15625 8.890625l-2.703125 0l-3.15625 -8.890625l2.3125 0l2.203125 6.71875l2.203125 -6.71875l2.296875 0zm10.957825 0l0 8.890625l-2.15625 0l0 -5.328125l-2.0 5.328125l-1.734375 0l-2.0 -5.34375l0 5.34375l-2.171875 0l0 -8.890625l2.5625 0l2.484375 6.15625l2.46875 -6.15625l2.546875 0zm11.020264 2.859375q0 0.78125 -0.359375 1.421875q-0.359375 0.640625 -1.09375 1.03125q-0.734375 0.390625 -1.8125 0.390625l-1.34375 0l0 3.1875l-2.171875 0l0 -8.890625l3.515625 0q1.0625 0 1.796875 0.375q0.734375 0.359375 1.09375 1.015625q0.375 0.640625 0.375 1.46875zm-3.4375 1.125q0.625 0 0.921875 -0.296875q0.3125 -0.296875 0.3125 -0.828125q0 -0.53125 -0.3125 -0.8125q-0.296875 -0.296875 -0.921875 -0.296875l-1.171875 0l0 2.234375l1.171875 0zm7.772461 5.0q-1.03125 0 -1.875 -0.4375q-0.828125 -0.4375 -1.296875 -1.265625q-0.46875 -0.828125 -0.46875 -1.921875q0 -1.09375 0.46875 -1.921875q0.484375 -0.828125 1.3125 -1.265625q0.84375 -0.4375 1.890625 -0.4375q1.03125 0 1.859375 0.4375q0.84375 0.4375 1.3125 1.265625q0.484375 0.828125 0.484375 1.921875q0 1.09375 -0.484375 1.921875q-0.484375 0.828125 -1.328125 1.265625q-0.84375 0.4375 -1.875 0.4375zm0 -1.859375q0.625 0 1.0625 -0.453125q0.4375 -0.46875 0.4375 -1.3125q0 -0.84375 -0.4375 -1.296875q-0.421875 -0.46875 -1.03125 -0.46875q-0.640625 0 -1.0625 0.453125q-0.40625 0.453125 -0.40625 1.3125q0 0.84375 0.40625 1.3125q0.40625 0.453125 1.03125 0.453125zm4.4213867 -1.78125q0 -1.078125 0.40625 -1.90625q0.40625 -0.828125 1.109375 -1.265625q0.71875 -0.4375 1.59375 -0.4375q0.6875 0 1.265625 0.296875q0.578125 0.28125 0.90625 0.765625l0 -3.265625l2.171875 0l0 9.359375l-2.171875 0l0 -1.015625q-0.296875 0.515625 -0.859375 0.8125q-0.5625 0.296875 -1.3125 0.296875q-0.875 0 -1.59375 -0.4375q-0.703125 -0.453125 -1.109375 -1.28125q-0.40625 -0.828125 -0.40625 -1.921875zm5.28125 0.015625q0 -0.8125 -0.453125 -1.28125q-0.4375 -0.46875 -1.09375 -0.46875q-0.640625 0 -1.09375 0.46875q-0.4375 0.453125 -0.4375 1.265625q0 0.8125 0.4375 1.296875q0.453125 0.46875 1.09375 0.46875q0.65625 0 1.09375 -0.46875q0.453125 -0.46875 0.453125 -1.28125z" fill-rule="nonzero"/><path fill="#ebf9f1" d="m582.1949 139.1105l116.75592 0l0 32.566925l-116.75592 0z" fill-rule="evenodd"/><path stroke="#99e0bb" stroke-width="1.0" stroke-linejoin="round" stroke-linecap="butt" d="m582.1949 139.1105l116.75592 0l0 32.566925l-116.75592 0z" fill-rule="evenodd"/><path fill="#0a1432" d="m602.7685 158.99147l2.140625 -5.875l1.234375 0l-2.71875 6.9375l-1.34375 0l-2.71875 -6.9375l1.234375 0l2.171875 5.875zm5.1001587 -7.0q-0.328125 0 -0.5625 -0.21875q-0.21875 -0.234375 -0.21875 -0.5625q0 -0.328125 0.21875 -0.546875q0.234375 -0.234375 0.5625 -0.234375q0.328125 0 0.546875 0.234375q0.21875 0.21875 0.21875 0.546875q0 0.328125 -0.21875 0.5625q-0.21875 0.21875 -0.546875 0.21875zm0.5625 1.125l0 6.9375l-1.15625 0l0 -6.9375l1.15625 0zm3.1134033 1.125q0.3125 -0.59375 0.875 -0.921875q0.5625 -0.328125 1.359375 -0.328125l0 1.1875l-0.296875 0q-1.9375 0 -1.9375 2.109375l0 3.765625l-1.15625 0l0 -6.9375l1.15625 0l0 1.125zm4.970764 -0.171875l0 4.09375q0 0.5 0.21875 0.71875q0.21875 0.203125 0.75 0.203125l0.84375 0l0 0.96875l-1.03125 0q-0.96875 0 -1.453125 -0.4375q-0.46875 -0.453125 -0.46875 -1.453125l0 -4.09375l-0.90625 0l0 -0.953125l0.90625 0l0 -1.75l1.140625 0l0 1.75l1.8125 0l0 0.953125l-1.8125 0zm8.013123 0.859375l0 0.96875l-5.046875 0l0 -0.96875l5.046875 0zm3.3173218 -4.234375l0 9.359375l-1.15625 0l0 -9.359375l1.15625 0zm1.5352783 5.859375q0 -1.0625 0.421875 -1.859375q0.4375 -0.796875 1.1875 -1.234375q0.75 -0.453125 1.671875 -0.453125q0.921875 0 1.59375 0.390625q0.671875 0.390625 1.0 0.984375l0 -1.265625l1.15625 0l0 6.9375l-1.15625 0l0 -1.296875q-0.34375 0.609375 -1.03125 1.015625q-0.671875 0.390625 -1.5625 0.390625q-0.9375 0 -1.6875 -0.453125q-0.734375 -0.453125 -1.171875 -1.265625q-0.421875 -0.828125 -0.421875 -1.890625zm5.875 0.015625q0 -0.78125 -0.328125 -1.359375q-0.3125 -0.578125 -0.859375 -0.890625q-0.53125 -0.3125 -1.171875 -0.3125q-0.640625 0 -1.171875 0.3125q-0.53125 0.296875 -0.859375 0.875q-0.3125 0.578125 -0.3125 1.359375q0 0.796875 0.3125 1.390625q0.328125 0.59375 0.859375 0.90625q0.53125 0.296875 1.171875 0.296875q0.640625 0 1.171875 -0.296875q0.546875 -0.3125 0.859375 -0.90625q0.328125 -0.59375 0.328125 -1.375zm9.258728 -3.453125l0 6.9375l-1.15625 0l0 -1.03125q-0.328125 0.53125 -0.921875 0.828125q-0.578125 0.296875 -1.28125 0.296875q-0.8125 0 -1.46875 -0.328125q-0.640625 -0.328125 -1.015625 -1.0q-0.375 -0.671875 -0.375 -1.640625l0 -4.0625l1.140625 0l0 3.90625q0 1.03125 0.515625 1.578125q0.53125 0.546875 1.421875 0.546875q0.921875 0 1.453125 -0.5625q0.53125 -0.5625 0.53125 -1.65625l0 -3.8125l1.15625 0zm5.3343506 -0.125q1.265625 0 2.046875 0.765625q0.78125 0.765625 0.78125 2.203125l0 4.09375l-1.140625 0l0 -3.921875q0 -1.046875 -0.515625 -1.59375q-0.515625 -0.546875 -1.421875 -0.546875q-0.90625 0 -1.453125 0.578125q-0.53125 0.5625 -0.53125 1.65625l0 3.828125l-1.15625 0l0 -6.9375l1.15625 0l0 0.984375q0.34375 -0.53125 0.921875 -0.8125q0.59375 -0.296875 1.3125 -0.296875zm4.2874756 3.578125q0 -1.078125 0.421875 -1.875q0.4375 -0.796875 1.203125 -1.234375q0.765625 -0.453125 1.75 -0.453125q1.28125 0 2.109375 0.625q0.828125 0.609375 1.09375 1.71875l-1.234375 0q-0.1875 -0.640625 -0.703125 -1.0q-0.5 -0.375 -1.265625 -0.375q-0.984375 0 -1.59375 0.6875q-0.609375 0.671875 -0.609375 1.90625q0 1.25 0.609375 1.9375q0.609375 0.6875 1.59375 0.6875q0.765625 0 1.265625 -0.34375q0.5 -0.359375 0.703125 -1.03125l1.234375 0q-0.28125 1.0625 -1.125 1.703125q-0.828125 0.640625 -2.078125 0.640625q-0.984375 0 -1.75 -0.4375q-0.765625 -0.4375 -1.203125 -1.25q-0.421875 -0.8125 -0.421875 -1.90625zm11.557373 -3.578125q0.78125 0 1.40625 0.34375q0.640625 0.328125 1.0 1.0q0.359375 0.671875 0.359375 1.625l0 4.09375l-1.140625 0l0 -3.921875q0 -1.046875 -0.515625 -1.59375q-0.515625 -0.546875 -1.421875 -0.546875q-0.90625 0 -1.453125 0.578125q-0.53125 0.5625 -0.53125 1.65625l0 3.828125l-1.15625 0l0 -9.359375l1.15625 0l0 3.40625q0.34375 -0.53125 0.9375 -0.8125q0.609375 -0.296875 1.359375 -0.296875zm10.974976 3.328125q0 0.328125 -0.03125 0.703125l-5.546875 0q0.0625 1.015625 0.703125 1.59375q0.640625 0.578125 1.546875 0.578125q0.75 0 1.25 -0.34375q0.5 -0.359375 0.703125 -0.9375l1.234375 0q-0.265625 1.0 -1.109375 1.625q-0.828125 0.625 -2.078125 0.625q-0.984375 0 -1.765625 -0.4375q-0.765625 -0.4375 -1.21875 -1.25q-0.4375 -0.828125 -0.4375 -1.90625q0 -1.078125 0.421875 -1.875q0.4375 -0.8125 1.21875 -1.25q0.78125 -0.4375 1.78125 -0.4375q1.0 0 1.75 0.4375q0.765625 0.421875 1.171875 1.171875q0.40625 0.75 0.40625 1.703125zm-1.1875 -0.234375q0 -0.65625 -0.296875 -1.125q-0.28125 -0.484375 -0.78125 -0.734375q-0.5 -0.25 -1.109375 -0.25q-0.875 0 -1.484375 0.5625q-0.609375 0.546875 -0.703125 1.546875l4.375 0zm3.8624268 -1.84375q0.3125 -0.59375 0.875 -0.921875q0.5625 -0.328125 1.359375 -0.328125l0 1.1875l-0.296875 0q-1.9375 0 -1.9375 2.109375l0 3.765625l-1.15625 0l0 -6.9375l1.15625 0l0 1.125z" fill-rule="nonzero"/><path fill="#ebf9f1" d="m582.1949 203.1105l116.75592 0l0 32.566925l-116.75592 0z" fill-rule="evenodd"/><path stroke="#99e0bb" stroke-width="1.0" stroke-linejoin="round" stroke-linecap="butt" d="m582.1949 203.1105l116.75592 0l0 32.566925l-116.75592 0z" fill-rule="evenodd"/><path fill="#0a1432" d="m621.2582 214.6946l0 9.359375l-1.15625 0l0 -9.359375l1.15625 0zm2.5509644 1.296875q-0.328125 0 -0.5625 -0.21875q-0.21875 -0.234375 -0.21875 -0.5625q0 -0.328125 0.21875 -0.546875q0.234375 -0.234375 0.5625 -0.234375q0.328125 0 0.546875 0.234375q0.21875 0.21875 0.21875 0.546875q0 0.328125 -0.21875 0.5625q-0.21875 0.21875 -0.546875 0.21875zm0.5625 1.125l0 6.9375l-1.15625 0l0 -6.9375l1.15625 0zm3.1134033 1.296875q0.359375 -0.625 1.03125 -1.015625q0.6875 -0.390625 1.5625 -0.390625q0.9375 0 1.6875 0.453125q0.75 0.4375 1.171875 1.234375q0.4375 0.796875 0.4375 1.859375q0 1.0625 -0.4375 1.890625q-0.421875 0.8125 -1.1875 1.265625q-0.75 0.453125 -1.671875 0.453125q-0.890625 0 -1.578125 -0.390625q-0.671875 -0.390625 -1.015625 -1.0l0 1.28125l-1.15625 0l0 -9.359375l1.15625 0l0 3.71875zm4.703125 2.140625q0 -0.78125 -0.3125 -1.359375q-0.3125 -0.578125 -0.859375 -0.875q-0.53125 -0.3125 -1.171875 -0.3125q-0.640625 0 -1.1875 0.3125q-0.53125 0.3125 -0.859375 0.90625q-0.3125 0.578125 -0.3125 1.34375q0 0.78125 0.3125 1.375q0.328125 0.59375 0.859375 0.90625q0.546875 0.296875 1.1875 0.296875q0.640625 0 1.171875 -0.296875q0.546875 -0.3125 0.859375 -0.90625q0.3125 -0.59375 0.3125 -1.390625zm5.289978 2.4375l2.140625 -5.875l1.234375 0l-2.71875 6.9375l-1.34375 0l-2.71875 -6.9375l1.234375 0l2.171875 5.875zm5.1001587 -7.0q-0.328125 0 -0.5625 -0.21875q-0.21875 -0.234375 -0.21875 -0.5625q0 -0.328125 0.21875 -0.546875q0.234375 -0.234375 0.5625 -0.234375q0.328125 0 0.546875 0.234375q0.21875 0.21875 0.21875 0.546875q0 0.328125 -0.21875 0.5625q-0.21875 0.21875 -0.546875 0.21875zm0.5625 1.125l0 6.9375l-1.15625 0l0 -6.9375l1.15625 0zm3.1134033 1.125q0.3125 -0.59375 0.875 -0.921875q0.5625 -0.328125 1.359375 -0.328125l0 1.1875l-0.296875 0q-1.9375 0 -1.9375 2.109375l0 3.765625l-1.15625 0l0 -6.9375l1.15625 0l0 1.125zm4.970764 -0.171875l0 4.09375q0 0.5 0.21875 0.71875q0.21875 0.203125 0.75 0.203125l0.84375 0l0 0.96875l-1.03125 0q-0.96875 0 -1.453125 -0.4375q-0.46875 -0.453125 -0.46875 -1.453125l0 -4.09375l-0.90625 0l0 -0.953125l0.90625 0l0 -1.75l1.140625 0l0 1.75l1.8125 0l0 0.953125l-1.8125 0zm2.7787476 2.484375q0 -1.0625 0.421875 -1.859375q0.4375 -0.796875 1.1875 -1.234375q0.75 -0.453125 1.6875 -0.453125q0.8125 0 1.5 0.375q0.703125 0.375 1.078125 0.984375l0 -3.671875l1.15625 0l0 9.359375l-1.15625 0l0 -1.296875q-0.34375 0.609375 -1.015625 1.015625q-0.671875 0.390625 -1.578125 0.390625q-0.921875 0 -1.671875 -0.453125q-0.75 -0.453125 -1.1875 -1.265625q-0.421875 -0.828125 -0.421875 -1.890625zm5.875 0.015625q0 -0.78125 -0.328125 -1.359375q-0.3125 -0.578125 -0.859375 -0.890625q-0.53125 -0.3125 -1.171875 -0.3125q-0.640625 0 -1.171875 0.3125q-0.53125 0.296875 -0.859375 0.875q-0.3125 0.578125 -0.3125 1.359375q0 0.796875 0.3125 1.390625q0.328125 0.59375 0.859375 0.90625q0.53125 0.296875 1.171875 0.296875q0.640625 0 1.171875 -0.296875q0.546875 -0.3125 0.859375 -0.90625q0.328125 -0.59375 0.328125 -1.375z" fill-rule="nonzero"/><path fill="#ffffff" d="m728.8737 104.44683l143.74805 0l0 214.2677l-143.74805 0z" fill-rule="evenodd"/><path fill="#000000" d="m742.8581 125.70058q-1.25 0 -2.296875 -0.578125q-1.046875 -0.59375 -1.65625 -1.625q-0.609375 -1.046875 -0.609375 -2.359375q0 -1.296875 0.609375 -2.328125q0.609375 -1.046875 1.65625 -1.625q1.046875 -0.59375 2.296875 -0.59375q1.25 0 2.296875 0.59375q1.046875 0.578125 1.640625 1.625q0.609375 1.03125 0.609375 2.328125q0 1.3125 -0.609375 2.359375q-0.609375 1.03125 -1.65625 1.625q-1.03125 0.578125 -2.28125 0.578125zm0 -1.984375q1.0625 0 1.703125 -0.703125q0.640625 -0.703125 0.640625 -1.875q0 -1.171875 -0.640625 -1.875q-0.640625 -0.703125 -1.703125 -0.703125q-1.078125 0 -1.71875 0.703125q-0.640625 0.6875 -0.640625 1.875q0 1.171875 0.640625 1.875q0.640625 0.703125 1.71875 0.703125zm9.68219 0.0625l0 1.828125l-1.09375 0q-1.1875 0 -1.84375 -0.578125q-0.65625 -0.578125 -0.65625 -1.875l0 -2.8125l-0.859375 0l0 -1.796875l0.859375 0l0 -1.71875l2.171875 0l0 1.71875l1.40625 0l0 1.796875l-1.40625 0l0 2.828125q0 0.328125 0.140625 0.46875q0.15625 0.140625 0.515625 0.140625l0.765625 0zm5.5446777 -5.3125q1.21875 0 1.953125 0.8125q0.734375 0.796875 0.734375 2.203125l0 4.125l-2.15625 0l0 -3.828125q0 -0.71875 -0.375 -1.109375q-0.359375 -0.390625 -0.984375 -0.390625q-0.609375 0 -0.984375 0.390625q-0.359375 0.390625 -0.359375 1.109375l0 3.828125l-2.171875 0l0 -9.359375l2.171875 0l0 3.25q0.328125 -0.46875 0.890625 -0.75q0.578125 -0.28125 1.28125 -0.28125zm10.842773 3.5q0 0.296875 -0.03125 0.625l-4.90625 0q0.0625 0.65625 0.421875 1.015625q0.375 0.34375 0.921875 0.34375q0.8125 0 1.125 -0.6875l2.3125 0q-0.1875 0.703125 -0.65625 1.265625q-0.453125 0.546875 -1.15625 0.859375q-0.6875 0.3125 -1.546875 0.3125q-1.03125 0 -1.84375 -0.4375q-0.8125 -0.4375 -1.265625 -1.265625q-0.453125 -0.828125 -0.453125 -1.921875q0 -1.09375 0.4375 -1.921875q0.453125 -0.828125 1.265625 -1.265625q0.8125 -0.4375 1.859375 -0.4375q1.03125 0 1.828125 0.4375q0.796875 0.421875 1.234375 1.21875q0.453125 0.796875 0.453125 1.859375zm-2.203125 -0.578125q0 -0.546875 -0.390625 -0.875q-0.375 -0.328125 -0.953125 -0.328125q-0.53125 0 -0.90625 0.3125q-0.375 0.3125 -0.46875 0.890625l2.71875 0zm5.5150146 -1.671875q0.375 -0.578125 0.9375 -0.90625q0.578125 -0.34375 1.265625 -0.34375l0 2.296875l-0.59375 0q-0.796875 0 -1.203125 0.34375q-0.40625 0.34375 -0.40625 1.21875l0 3.28125l-2.171875 0l0 -7.0625l2.171875 0l0 1.171875zm12.709351 -0.140625q0 0.78125 -0.359375 1.421875q-0.359375 0.640625 -1.09375 1.03125q-0.734375 0.390625 -1.8125 0.390625l-1.34375 0l0 3.1875l-2.171875 0l0 -8.890625l3.515625 0q1.0625 0 1.796875 0.375q0.734375 0.359375 1.09375 1.015625q0.375 0.640625 0.375 1.46875zm-3.4375 1.125q0.625 0 0.921875 -0.296875q0.3125 -0.296875 0.3125 -0.828125q0 -0.53125 -0.3125 -0.8125q-0.296875 -0.296875 -0.921875 -0.296875l-1.171875 0l0 2.234375l1.171875 0zm7.772461 5.0q-1.03125 0 -1.875 -0.4375q-0.828125 -0.4375 -1.296875 -1.265625q-0.46875 -0.828125 -0.46875 -1.921875q0 -1.09375 0.46875 -1.921875q0.484375 -0.828125 1.3125 -1.265625q0.84375 -0.4375 1.890625 -0.4375q1.03125 0 1.859375 0.4375q0.84375 0.4375 1.3125 1.265625q0.484375 0.828125 0.484375 1.921875q0 1.09375 -0.484375 1.921875q-0.484375 0.828125 -1.328125 1.265625q-0.84375 0.4375 -1.875 0.4375zm0 -1.859375q0.625 0 1.0625 -0.453125q0.4375 -0.46875 0.4375 -1.3125q0 -0.84375 -0.4375 -1.296875q-0.421875 -0.46875 -1.03125 -0.46875q-0.640625 0 -1.0625 0.453125q-0.40625 0.453125 -0.40625 1.3125q0 0.84375 0.40625 1.3125q0.40625 0.453125 1.03125 0.453125zm4.4213867 -1.78125q0 -1.078125 0.40625 -1.90625q0.40625 -0.828125 1.109375 -1.265625q0.71875 -0.4375 1.59375 -0.4375q0.6875 0 1.265625 0.296875q0.578125 0.28125 0.90625 0.765625l0 -3.265625l2.171875 0l0 9.359375l-2.171875 0l0 -1.015625q-0.296875 0.515625 -0.859375 0.8125q-0.5625 0.296875 -1.3125 0.296875q-0.875 0 -1.59375 -0.4375q-0.703125 -0.453125 -1.109375 -1.28125q-0.40625 -0.828125 -0.40625 -1.921875zm5.28125 0.015625q0 -0.8125 -0.453125 -1.28125q-0.4375 -0.46875 -1.09375 -0.46875q-0.640625 0 -1.09375 0.46875q-0.4375 0.453125 -0.4375 1.265625q0 0.8125 0.4375 1.296875q0.453125 0.46875 1.09375 0.46875q0.65625 0 1.09375 -0.46875q0.453125 -0.46875 0.453125 -1.28125zm6.609192 3.625q-0.921875 0 -1.640625 -0.3125q-0.71875 -0.3125 -1.140625 -0.859375q-0.421875 -0.546875 -0.46875 -1.234375l2.140625 0q0.03125 0.359375 0.328125 0.59375q0.3125 0.21875 0.75 0.21875q0.40625 0 0.625 -0.15625q0.234375 -0.15625 0.234375 -0.40625q0 -0.296875 -0.328125 -0.4375q-0.3125 -0.15625 -1.015625 -0.328125q-0.765625 -0.1875 -1.28125 -0.375q-0.5 -0.203125 -0.875 -0.625q-0.359375 -0.421875 -0.359375 -1.140625q0 -0.609375 0.328125 -1.109375q0.34375 -0.5 1.0 -0.78125q0.65625 -0.296875 1.546875 -0.296875q1.328125 0 2.09375 0.65625q0.765625 0.65625 0.890625 1.734375l-2.0 0q-0.0625 -0.359375 -0.328125 -0.578125q-0.265625 -0.21875 -0.71875 -0.21875q-0.375 0 -0.578125 0.15625q-0.203125 0.140625 -0.203125 0.390625q0 0.3125 0.3125 0.46875q0.328125 0.140625 1.015625 0.296875q0.78125 0.203125 1.28125 0.40625q0.5 0.1875 0.859375 0.625q0.375 0.4375 0.390625 1.171875q0 0.609375 -0.34375 1.109375q-0.34375 0.484375 -1.0 0.765625q-0.65625 0.265625 -1.515625 0.265625z" fill-rule="nonzero"/><path fill="#ffffff" d="m742.1949 139.1105l116.75592 0l0 32.566925l-116.75592 0z" fill-rule="evenodd"/><path stroke="#6c7284" stroke-width="1.0" stroke-linejoin="round" stroke-linecap="butt" d="m742.1949 139.1105l116.75592 0l0 32.566925l-116.75592 0z" fill-rule="evenodd"/><path fill="#0a1432" d="m766.99225 156.5696q0 -1.078125 0.421875 -1.875q0.4375 -0.796875 1.203125 -1.234375q0.765625 -0.453125 1.75 -0.453125q1.28125 0 2.109375 0.625q0.828125 0.609375 1.09375 1.71875l-1.234375 0q-0.1875 -0.640625 -0.703125 -1.0q-0.5 -0.375 -1.265625 -0.375q-0.984375 0 -1.59375 0.6875q-0.609375 0.671875 -0.609375 1.90625q0 1.25 0.609375 1.9375q0.609375 0.6875 1.59375 0.6875q0.765625 0 1.265625 -0.34375q0.5 -0.359375 0.703125 -1.03125l1.234375 0q-0.28125 1.0625 -1.125 1.703125q-0.828125 0.640625 -2.078125 0.640625q-0.984375 0 -1.75 -0.4375q-0.765625 -0.4375 -1.203125 -1.25q-0.421875 -0.8125 -0.421875 -1.90625zm11.135437 3.59375q-0.96875 0 -1.765625 -0.4375q-0.796875 -0.4375 -1.25 -1.25q-0.4375 -0.828125 -0.4375 -1.90625q0 -1.0625 0.453125 -1.875q0.46875 -0.8125 1.265625 -1.25q0.796875 -0.4375 1.78125 -0.4375q0.984375 0 1.78125 0.4375q0.796875 0.4375 1.265625 1.25q0.46875 0.796875 0.46875 1.875q0 1.078125 -0.484375 1.90625q-0.46875 0.8125 -1.28125 1.25q-0.8125 0.4375 -1.796875 0.4375zm0 -1.015625q0.625 0 1.15625 -0.28125q0.546875 -0.296875 0.875 -0.875q0.34375 -0.578125 0.34375 -1.421875q0 -0.828125 -0.328125 -1.40625q-0.328125 -0.59375 -0.859375 -0.875q-0.53125 -0.28125 -1.15625 -0.28125q-0.625 0 -1.15625 0.28125q-0.515625 0.28125 -0.84375 0.875q-0.3125 0.578125 -0.3125 1.40625q0 0.859375 0.3125 1.4375q0.3125 0.578125 0.828125 0.859375q0.515625 0.28125 1.140625 0.28125zm8.459351 -6.15625q1.265625 0 2.046875 0.765625q0.78125 0.765625 0.78125 2.203125l0 4.09375l-1.140625 0l0 -3.921875q0 -1.046875 -0.515625 -1.59375q-0.515625 -0.546875 -1.421875 -0.546875q-0.90625 0 -1.453125 0.578125q-0.53125 0.5625 -0.53125 1.65625l0 3.828125l-1.15625 0l0 -6.9375l1.15625 0l0 0.984375q0.34375 -0.53125 0.921875 -0.8125q0.59375 -0.296875 1.3125 -0.296875zm6.1156006 1.078125l0 4.09375q0 0.5 0.21875 0.71875q0.21875 0.203125 0.75 0.203125l0.84375 0l0 0.96875l-1.03125 0q-0.96875 0 -1.453125 -0.4375q-0.46875 -0.453125 -0.46875 -1.453125l0 -4.09375l-0.90625 0l0 -0.953125l0.90625 0l0 -1.75l1.140625 0l0 1.75l1.8125 0l0 0.953125l-1.8125 0zm2.7787476 2.484375q0 -1.0625 0.421875 -1.859375q0.4375 -0.796875 1.1875 -1.234375q0.75 -0.453125 1.671875 -0.453125q0.921875 0 1.59375 0.390625q0.671875 0.390625 1.0 0.984375l0 -1.265625l1.15625 0l0 6.9375l-1.15625 0l0 -1.296875q-0.34375 0.609375 -1.03125 1.015625q-0.671875 0.390625 -1.5625 0.390625q-0.9375 0 -1.6875 -0.453125q-0.734375 -0.453125 -1.171875 -1.265625q-0.421875 -0.828125 -0.421875 -1.890625zm5.875 0.015625q0 -0.78125 -0.328125 -1.359375q-0.3125 -0.578125 -0.859375 -0.890625q-0.53125 -0.3125 -1.171875 -0.3125q-0.640625 0 -1.171875 0.3125q-0.53125 0.296875 -0.859375 0.875q-0.3125 0.578125 -0.3125 1.359375q0 0.796875 0.3125 1.390625q0.328125 0.59375 0.859375 0.90625q0.53125 0.296875 1.171875 0.296875q0.640625 0 1.171875 -0.296875q0.546875 -0.3125 0.859375 -0.90625q0.328125 -0.59375 0.328125 -1.375zm3.696228 -4.578125q-0.328125 0 -0.5625 -0.21875q-0.21875 -0.234375 -0.21875 -0.5625q0 -0.328125 0.21875 -0.546875q0.234375 -0.234375 0.5625 -0.234375q0.328125 0 0.546875 0.234375q0.21875 0.21875 0.21875 0.546875q0 0.328125 -0.21875 0.5625q-0.21875 0.21875 -0.546875 0.21875zm0.5625 1.125l0 6.9375l-1.15625 0l0 -6.9375l1.15625 0zm5.3477783 -0.125q1.265625 0 2.046875 0.765625q0.78125 0.765625 0.78125 2.203125l0 4.09375l-1.140625 0l0 -3.921875q0 -1.046875 -0.515625 -1.59375q-0.515625 -0.546875 -1.421875 -0.546875q-0.90625 0 -1.453125 0.578125q-0.53125 0.5625 -0.53125 1.65625l0 3.828125l-1.15625 0l0 -6.9375l1.15625 0l0 0.984375q0.34375 -0.53125 0.921875 -0.8125q0.59375 -0.296875 1.3125 -0.296875zm11.037476 3.328125q0 0.328125 -0.03125 0.703125l-5.546875 0q0.0625 1.015625 0.703125 1.59375q0.640625 0.578125 1.546875 0.578125q0.75 0 1.25 -0.34375q0.5 -0.359375 0.703125 -0.9375l1.234375 0q-0.265625 1.0 -1.109375 1.625q-0.828125 0.625 -2.078125 0.625q-0.984375 0 -1.765625 -0.4375q-0.765625 -0.4375 -1.21875 -1.25q-0.4375 -0.828125 -0.4375 -1.90625q0 -1.078125 0.421875 -1.875q0.4375 -0.8125 1.21875 -1.25q0.78125 -0.4375 1.78125 -0.4375q1.0 0 1.75 0.4375q0.765625 0.421875 1.171875 1.171875q0.40625 0.75 0.40625 1.703125zm-1.1875 -0.234375q0 -0.65625 -0.296875 -1.125q-0.28125 -0.484375 -0.78125 -0.734375q-0.5 -0.25 -1.109375 -0.25q-0.875 0 -1.484375 0.5625q-0.609375 0.546875 -0.703125 1.546875l4.375 0zm3.8624878 -1.84375q0.3125 -0.59375 0.875 -0.921875q0.5625 -0.328125 1.359375 -0.328125l0 1.1875l-0.296875 0q-1.9375 0 -1.9375 2.109375l0 3.765625l-1.15625 0l0 -6.9375l1.15625 0l0 1.125zm6.4593506 -2.28125l0 -1.0625l2.375 0l0 9.15625l-1.15625 0l0 -8.09375l-1.21875 0z" fill-rule="nonzero"/><path fill="#ffffff" d="m742.1949 203.1105l116.75592 0l0 32.566925l-116.75592 0z" fill-rule="evenodd"/><path stroke="#6c7284" stroke-width="1.0" stroke-linejoin="round" stroke-linecap="butt" d="m742.1949 203.1105l116.75592 0l0 32.566925l-116.75592 0z" fill-rule="evenodd"/><path fill="#0a1432" d="m765.37854 220.5696q0 -1.078125 0.421875 -1.875q0.4375 -0.796875 1.203125 -1.234375q0.765625 -0.453125 1.75 -0.453125q1.28125 0 2.109375 0.625q0.828125 0.609375 1.09375 1.71875l-1.234375 0q-0.1875 -0.640625 -0.703125 -1.0q-0.5 -0.375 -1.265625 -0.375q-0.984375 0 -1.59375 0.6875q-0.609375 0.671875 -0.609375 1.90625q0 1.25 0.609375 1.9375q0.609375 0.6875 1.59375 0.6875q0.765625 0 1.265625 -0.34375q0.5 -0.359375 0.703125 -1.03125l1.234375 0q-0.28125 1.0625 -1.125 1.703125q-0.828125 0.640625 -2.078125 0.640625q-0.984375 0 -1.75 -0.4375q-0.765625 -0.4375 -1.203125 -1.25q-0.421875 -0.8125 -0.421875 -1.90625zm11.135437 3.59375q-0.96875 0 -1.765625 -0.4375q-0.796875 -0.4375 -1.25 -1.25q-0.4375 -0.828125 -0.4375 -1.90625q0 -1.0625 0.453125 -1.875q0.46875 -0.8125 1.265625 -1.25q0.796875 -0.4375 1.78125 -0.4375q0.984375 0 1.78125 0.4375q0.796875 0.4375 1.265625 1.25q0.46875 0.796875 0.46875 1.875q0 1.078125 -0.484375 1.90625q-0.46875 0.8125 -1.28125 1.25q-0.8125 0.4375 -1.796875 0.4375zm0 -1.015625q0.625 0 1.15625 -0.28125q0.546875 -0.296875 0.875 -0.875q0.34375 -0.578125 0.34375 -1.421875q0 -0.828125 -0.328125 -1.40625q-0.328125 -0.59375 -0.859375 -0.875q-0.53125 -0.28125 -1.15625 -0.28125q-0.625 0 -1.15625 0.28125q-0.515625 0.28125 -0.84375 0.875q-0.3125 0.578125 -0.3125 1.40625q0 0.859375 0.3125 1.4375q0.3125 0.578125 0.828125 0.859375q0.515625 0.28125 1.140625 0.28125zm8.459351 -6.15625q1.265625 0 2.046875 0.765625q0.78125 0.765625 0.78125 2.203125l0 4.09375l-1.140625 0l0 -3.921875q0 -1.046875 -0.515625 -1.59375q-0.515625 -0.546875 -1.421875 -0.546875q-0.90625 0 -1.453125 0.578125q-0.53125 0.5625 -0.53125 1.65625l0 3.828125l-1.15625 0l0 -6.9375l1.15625 0l0 0.984375q0.34375 -0.53125 0.921875 -0.8125q0.59375 -0.296875 1.3125 -0.296875zm6.1156006 1.078125l0 4.09375q0 0.5 0.21875 0.71875q0.21875 0.203125 0.75 0.203125l0.84375 0l0 0.96875l-1.03125 0q-0.96875 0 -1.453125 -0.4375q-0.46875 -0.453125 -0.46875 -1.453125l0 -4.09375l-0.90625 0l0 -0.953125l0.90625 0l0 -1.75l1.140625 0l0 1.75l1.8125 0l0 0.953125l-1.8125 0zm2.7787476 2.484375q0 -1.0625 0.421875 -1.859375q0.4375 -0.796875 1.1875 -1.234375q0.75 -0.453125 1.671875 -0.453125q0.921875 0 1.59375 0.390625q0.671875 0.390625 1.0 0.984375l0 -1.265625l1.15625 0l0 6.9375l-1.15625 0l0 -1.296875q-0.34375 0.609375 -1.03125 1.015625q-0.671875 0.390625 -1.5625 0.390625q-0.9375 0 -1.6875 -0.453125q-0.734375 -0.453125 -1.171875 -1.265625q-0.421875 -0.828125 -0.421875 -1.890625zm5.875 0.015625q0 -0.78125 -0.328125 -1.359375q-0.3125 -0.578125 -0.859375 -0.890625q-0.53125 -0.3125 -1.171875 -0.3125q-0.640625 0 -1.171875 0.3125q-0.53125 0.296875 -0.859375 0.875q-0.3125 0.578125 -0.3125 1.359375q0 0.796875 0.3125 1.390625q0.328125 0.59375 0.859375 0.90625q0.53125 0.296875 1.171875 0.296875q0.640625 0 1.171875 -0.296875q0.546875 -0.3125 0.859375 -0.90625q0.328125 -0.59375 0.328125 -1.375zm3.696228 -4.578125q-0.328125 0 -0.5625 -0.21875q-0.21875 -0.234375 -0.21875 -0.5625q0 -0.328125 0.21875 -0.546875q0.234375 -0.234375 0.5625 -0.234375q0.328125 0 0.546875 0.234375q0.21875 0.21875 0.21875 0.546875q0 0.328125 -0.21875 0.5625q-0.21875 0.21875 -0.546875 0.21875zm0.5625 1.125l0 6.9375l-1.15625 0l0 -6.9375l1.15625 0zm5.3478394 -0.125q1.265625 0 2.046875 0.765625q0.78125 0.765625 0.78125 2.203125l0 4.09375l-1.140625 0l0 -3.921875q0 -1.046875 -0.515625 -1.59375q-0.515625 -0.546875 -1.421875 -0.546875q-0.90625 0 -1.453125 0.578125q-0.53125 0.5625 -0.53125 1.65625l0 3.828125l-1.15625 0l0 -6.9375l1.15625 0l0 0.984375q0.34375 -0.53125 0.921875 -0.8125q0.59375 -0.296875 1.3125 -0.296875zm11.037476 3.328125q0 0.328125 -0.03125 0.703125l-5.546875 0q0.0625 1.015625 0.703125 1.59375q0.640625 0.578125 1.546875 0.578125q0.75 0 1.25 -0.34375q0.5 -0.359375 0.703125 -0.9375l1.234375 0q-0.265625 1.0 -1.109375 1.625q-0.828125 0.625 -2.078125 0.625q-0.984375 0 -1.765625 -0.4375q-0.765625 -0.4375 -1.21875 -1.25q-0.4375 -0.828125 -0.4375 -1.90625q0 -1.078125 0.421875 -1.875q0.4375 -0.8125 1.21875 -1.25q0.78125 -0.4375 1.78125 -0.4375q1.0 0 1.75 0.4375q0.765625 0.421875 1.171875 1.171875q0.40625 0.75 0.40625 1.703125zm-1.1875 -0.234375q0 -0.65625 -0.296875 -1.125q-0.28125 -0.484375 -0.78125 -0.734375q-0.5 -0.25 -1.109375 -0.25q-0.875 0 -1.484375 0.5625q-0.609375 0.546875 -0.703125 1.546875l4.375 0zm3.8624268 -1.84375q0.3125 -0.59375 0.875 -0.921875q0.5625 -0.328125 1.359375 -0.328125l0 1.1875l-0.296875 0q-1.9375 0 -1.9375 2.109375l0 3.765625l-1.15625 0l0 -6.9375l1.15625 0l0 1.125zm6.6156006 4.890625q1.609375 -1.296875 2.515625 -2.125q0.921875 -0.828125 1.546875 -1.734375q0.625 -0.90625 0.625 -1.78125q0 -0.8125 -0.40625 -1.28125q-0.390625 -0.484375 -1.28125 -0.484375q-0.859375 0 -1.34375 0.546875q-0.46875 0.53125 -0.5 1.421875l-1.109375 0q0.046875 -1.40625 0.859375 -2.171875q0.8125 -0.78125 2.078125 -0.78125q1.3125 0 2.078125 0.71875q0.765625 0.71875 0.765625 1.984375q0 1.046875 -0.625 2.046875q-0.625 1.0 -1.421875 1.75q-0.796875 0.75 -2.046875 1.75l4.359375 0l0 0.96875l-6.09375 0l0 -0.828125z" fill-rule="nonzero"/><path fill="#ffffff" d="m742.1949 267.1105l116.75592 0l0 32.566925l-116.75592 0z" fill-rule="evenodd"/><path stroke="#6c7284" stroke-width="1.0" stroke-linejoin="round" stroke-linecap="butt" d="m742.1949 267.1105l116.75592 0l0 32.566925l-116.75592 0z" fill-rule="evenodd"/><path fill="#0a1432" d="m764.9672 284.56958q0 -1.078125 0.421875 -1.875q0.4375 -0.796875 1.203125 -1.234375q0.765625 -0.453125 1.75 -0.453125q1.28125 0 2.109375 0.625q0.828125 0.609375 1.09375 1.71875l-1.234375 0q-0.1875 -0.640625 -0.703125 -1.0q-0.5 -0.375 -1.265625 -0.375q-0.984375 0 -1.59375 0.6875q-0.609375 0.671875 -0.609375 1.90625q0 1.25 0.609375 1.9375q0.609375 0.6875 1.59375 0.6875q0.765625 0 1.265625 -0.34375q0.5 -0.359375 0.703125 -1.03125l1.234375 0q-0.28125 1.0625 -1.125 1.703125q-0.828125 0.640625 -2.078125 0.640625q-0.984375 0 -1.75 -0.4375q-0.765625 -0.4375 -1.203125 -1.25q-0.421875 -0.8125 -0.421875 -1.90625zm11.135437 3.59375q-0.96875 0 -1.765625 -0.4375q-0.796875 -0.4375 -1.25 -1.25q-0.4375 -0.828125 -0.4375 -1.90625q0 -1.0625 0.453125 -1.875q0.46875 -0.8125 1.265625 -1.25q0.796875 -0.4375 1.78125 -0.4375q0.984375 0 1.78125 0.4375q0.796875 0.4375 1.265625 1.25q0.46875 0.796875 0.46875 1.875q0 1.078125 -0.484375 1.90625q-0.46875 0.8125 -1.28125 1.25q-0.8125 0.4375 -1.796875 0.4375zm0 -1.015625q0.625 0 1.15625 -0.28125q0.546875 -0.296875 0.875 -0.875q0.34375 -0.578125 0.34375 -1.421875q0 -0.828125 -0.328125 -1.40625q-0.328125 -0.59375 -0.859375 -0.875q-0.53125 -0.28125 -1.15625 -0.28125q-0.625 0 -1.15625 0.28125q-0.515625 0.28125 -0.84375 0.875q-0.3125 0.578125 -0.3125 1.40625q0 0.859375 0.3125 1.4375q0.3125 0.578125 0.828125 0.859375q0.515625 0.28125 1.140625 0.28125zm8.459351 -6.15625q1.265625 0 2.046875 0.765625q0.78125 0.765625 0.78125 2.203125l0 4.09375l-1.140625 0l0 -3.921875q0 -1.046875 -0.515625 -1.59375q-0.515625 -0.546875 -1.421875 -0.546875q-0.90625 0 -1.453125 0.578125q-0.53125 0.5625 -0.53125 1.65625l0 3.828125l-1.15625 0l0 -6.9375l1.15625 0l0 0.984375q0.34375 -0.53125 0.921875 -0.8125q0.59375 -0.296875 1.3125 -0.296875zm6.1156006 1.078125l0 4.09375q0 0.5 0.21875 0.71875q0.21875 0.203125 0.75 0.203125l0.84375 0l0 0.96875l-1.03125 0q-0.96875 0 -1.453125 -0.4375q-0.46875 -0.453125 -0.46875 -1.453125l0 -4.09375l-0.90625 0l0 -0.953125l0.90625 0l0 -1.75l1.140625 0l0 1.75l1.8125 0l0 0.953125l-1.8125 0zm2.7787476 2.484375q0 -1.0625 0.421875 -1.859375q0.4375 -0.796875 1.1875 -1.234375q0.75 -0.453125 1.671875 -0.453125q0.921875 0 1.59375 0.390625q0.671875 0.390625 1.0 0.984375l0 -1.265625l1.15625 0l0 6.9375l-1.15625 0l0 -1.296875q-0.34375 0.609375 -1.03125 1.015625q-0.671875 0.390625 -1.5625 0.390625q-0.9375 0 -1.6875 -0.453125q-0.734375 -0.453125 -1.171875 -1.265625q-0.421875 -0.828125 -0.421875 -1.890625zm5.875 0.015625q0 -0.78125 -0.328125 -1.359375q-0.3125 -0.578125 -0.859375 -0.890625q-0.53125 -0.3125 -1.171875 -0.3125q-0.640625 0 -1.171875 0.3125q-0.53125 0.296875 -0.859375 0.875q-0.3125 0.578125 -0.3125 1.359375q0 0.796875 0.3125 1.390625q0.328125 0.59375 0.859375 0.90625q0.53125 0.296875 1.171875 0.296875q0.640625 0 1.171875 -0.296875q0.546875 -0.3125 0.859375 -0.90625q0.328125 -0.59375 0.328125 -1.375zm3.696228 -4.578125q-0.328125 0 -0.5625 -0.21875q-0.21875 -0.234375 -0.21875 -0.5625q0 -0.328125 0.21875 -0.546875q0.234375 -0.234375 0.5625 -0.234375q0.328125 0 0.546875 0.234375q0.21875 0.21875 0.21875 0.546875q0 0.328125 -0.21875 0.5625q-0.21875 0.21875 -0.546875 0.21875zm0.5625 1.125l0 6.9375l-1.15625 0l0 -6.9375l1.15625 0zm5.3478394 -0.125q1.265625 0 2.046875 0.765625q0.78125 0.765625 0.78125 2.203125l0 4.09375l-1.140625 0l0 -3.921875q0 -1.046875 -0.515625 -1.59375q-0.515625 -0.546875 -1.421875 -0.546875q-0.90625 0 -1.453125 0.578125q-0.53125 0.5625 -0.53125 1.65625l0 3.828125l-1.15625 0l0 -6.9375l1.15625 0l0 0.984375q0.34375 -0.53125 0.921875 -0.8125q0.59375 -0.296875 1.3125 -0.296875zm11.037476 3.328125q0 0.328125 -0.03125 0.703125l-5.546875 0q0.0625 1.015625 0.703125 1.59375q0.640625 0.578125 1.546875 0.578125q0.75 0 1.25 -0.34375q0.5 -0.359375 0.703125 -0.9375l1.234375 0q-0.265625 1.0 -1.109375 1.625q-0.828125 0.625 -2.078125 0.625q-0.984375 0 -1.765625 -0.4375q-0.765625 -0.4375 -1.21875 -1.25q-0.4375 -0.828125 -0.4375 -1.90625q0 -1.078125 0.421875 -1.875q0.4375 -0.8125 1.21875 -1.25q0.78125 -0.4375 1.78125 -0.4375q1.0 0 1.75 0.4375q0.765625 0.421875 1.171875 1.171875q0.40625 0.75 0.40625 1.703125zm-1.1875 -0.234375q0 -0.65625 -0.296875 -1.125q-0.28125 -0.484375 -0.78125 -0.734375q-0.5 -0.25 -1.109375 -0.25q-0.875 0 -1.484375 0.5625q-0.609375 0.546875 -0.703125 1.546875l4.375 0zm3.8624268 -1.84375q0.3125 -0.59375 0.875 -0.921875q0.5625 -0.328125 1.359375 -0.328125l0 1.1875l-0.296875 0q-1.9375 0 -1.9375 2.109375l0 3.765625l-1.15625 0l0 -6.9375l1.15625 0l0 1.125zm10.334351 -1.25q1.265625 0 2.046875 0.765625q0.78125 0.765625 0.78125 2.203125l0 4.09375l-1.140625 0l0 -3.921875q0 -1.046875 -0.515625 -1.59375q-0.515625 -0.546875 -1.421875 -0.546875q-0.90625 0 -1.453125 0.578125q-0.53125 0.5625 -0.53125 1.65625l0 3.828125l-1.15625 0l0 -6.9375l1.15625 0l0 0.984375q0.34375 -0.53125 0.921875 -0.8125q0.59375 -0.296875 1.3125 -0.296875z" fill-rule="nonzero"/><path fill="#ebf9f1" d="m582.1949 267.1105l116.75592 0l0 32.566925l-116.75592 0z" fill-rule="evenodd"/><path stroke="#99e0bb" stroke-width="1.0" stroke-linejoin="round" stroke-linecap="butt" d="m582.1949 267.1105l116.75592 0l0 32.566925l-116.75592 0z" fill-rule="evenodd"/><path fill="#0a1432" d="m639.1121 279.22583l-3.328125 8.828125l-1.328125 0l-3.328125 -8.828125l1.21875 0l2.78125 7.609375l2.765625 -7.609375l1.21875 0zm10.211853 0.0625l0 8.765625l-1.15625 0l0 -6.53125l-2.90625 6.53125l-0.8125 0l-2.921875 -6.546875l0 6.546875l-1.15625 0l0 -8.765625l1.25 0l3.234375 7.25l3.234375 -7.25l1.234375 0z" fill-rule="nonzero"/><path fill="#000000" fill-opacity="0.0" d="m260.31207 155.39397c40.470825 0 60.705414 0.01574707 80.94162 0.03149414c20.236237 0.01574707 40.47406 0.03149414 80.94812 0.03149414" fill-rule="evenodd"/><path stroke="#d63384" stroke-width="2.0" stroke-linejoin="round" stroke-linecap="butt" d="m272.31207 155.39517l14.8750305 0.0014953613c7.9043884 0.0017242432 14.8602295 0.004196167 21.183746 0.0071411133c12.647064 0.0059051514 22.76474 0.0137786865 32.882874 0.021652222c10.1180725 0.007873535 20.236603 0.01574707 32.884857 0.021652222c6.3240967 0.002960205 13.28067 0.00541687 21.185822 0.0071411133l14.877411 0.0014953613" fill-rule="evenodd"/><path fill="#d63384" stroke="#d63384" stroke-width="2.0" stroke-linecap="butt" d="m272.3124 152.0917l-9.076538 3.3025513l9.075867 3.3043823z" fill-rule="evenodd"/><path fill="#d63384" stroke="#d63384" stroke-width="2.0" stroke-linecap="butt" d="m410.20148 158.75922l9.076538 -3.3025513l-9.075867 -3.3043823z" fill-rule="evenodd"/><path fill="#000000" fill-opacity="0.0" d="m408.87375 48.95339c-37.14026 0 -55.709625 2.614174 -74.28049 5.228348c-18.570862 2.614174 -37.14322 5.228348 -74.28644 5.228348" fill-rule="evenodd"/><path stroke="#d63384" stroke-width="2.0" stroke-linejoin="round" stroke-linecap="butt" stroke-dasharray="8.0,6.0" d="m396.87415 49.053078l-1.09375 0.017745972c-4.09848 0.07658768 -7.943054 0.18891525 -11.569977 0.33187866c-7.2538757 0.28592682 -13.637299 0.69438934 -19.44046 1.1845474c-11.606201 0.98031616 -20.891266 2.287403 -30.176697 3.59449c-9.285431 1.3070831 -18.571228 2.61417 -30.17862 3.5944862c-5.80365 0.49015808 -12.187714 0.8986206 -19.442291 1.1845474c-3.6273193 0.14296341 -7.472229 0.255291 -11.571075 0.33187866l-1.0948792 0.01776123" fill-rule="evenodd"/><path fill="#d63384" stroke="#d63384" stroke-width="2.0" stroke-linecap="butt" d="m396.90158 52.35643l9.048431 -3.3787498l-9.103302 -3.2279549z" fill-rule="evenodd"/><path fill="#d63384" stroke="#d63384" stroke-width="2.0" stroke-linecap="butt" d="m272.27896 56.007065l-9.048431 3.3787346l9.103302 3.2279663z" fill-rule="evenodd"/><path fill="#000000" fill-opacity="0.0" d="m422.1949 155.39397c-40.470825 0 -60.705444 -24.0 -80.94165 -48.0c-20.236237 -24.0 -40.47406 -47.999996 -80.94812 -47.999996" fill-rule="evenodd"/><path stroke="#d63384" stroke-width="2.0" stroke-linejoin="round" stroke-linecap="butt" d="m410.21838 154.64345l-0.60324097 -0.07940674c-0.56695557 -0.077545166 -1.1295471 -0.16030884 -1.6877747 -0.24819946c-4.4660034 -0.703125 -8.655334 -1.734375 -12.607513 -3.046875c-7.904419 -2.625 -14.86026 -6.375 -21.183777 -10.875c-12.647034 -9.0 -22.76474 -21.0 -32.882874 -33.0c-10.118103 -12.0 -20.236603 -24.0 -32.884857 -33.0c-6.324127 -4.5 -13.28067 -8.25 -21.185822 -10.875c-3.9525757 -1.3125 -8.142303 -2.34375 -12.608673 -3.046875c-0.5583191 -0.087890625 -1.1209412 -0.1706543 -1.6879578 -0.24819946l-0.60424805 -0.07954025" fill-rule="evenodd"/><path fill="#d63384" stroke="#d63384" stroke-width="2.0" stroke-linecap="butt" d="m410.01178 157.94044l9.265015 -2.7293396l-8.851807 -3.8646545z" fill-rule="evenodd"/><path fill="#d63384" stroke="#d63384" stroke-width="2.0" stroke-linecap="butt" d="m272.48822 56.847355l-9.265015 2.7294426l8.851868 3.8645554z" fill-rule="evenodd"/><path fill="#000000" fill-opacity="0.0" d="m538.9508 155.39397l21.62201 0l0 0.06298828l21.62207 0" fill-rule="evenodd"/><path stroke="#d63384" stroke-width="2.0" stroke-linejoin="round" stroke-linecap="butt" d="m550.9508 155.39397l9.622009 0l0 0.06298828l9.62207 0" fill-rule="evenodd"/><path fill="#d63384" stroke="#d63384" stroke-width="2.0" stroke-linecap="butt" d="m550.9508 152.0905l-9.076233 3.3034668l9.076233 3.3034668z" fill-rule="evenodd"/><path fill="#d63384" stroke="#d63384" stroke-width="2.0" stroke-linecap="butt" d="m570.1949 158.76042l9.076172 -3.3034668l-9.076172 -3.3034668z" fill-rule="evenodd"/><path fill="#000000" fill-opacity="0.0" d="m640.74774 70.795906l0 16.82563l-159.99997 0l0 16.812172" fill-rule="evenodd"/><path stroke="#d63384" stroke-width="2.0" stroke-linejoin="round" stroke-linecap="butt" stroke-dasharray="8.0,6.0" d="m640.74774 70.79591l0 16.825623l-160.0 0l0 4.812172" fill-rule="evenodd"/><path fill="#d63384" stroke="#d63384" stroke-width="2.0" stroke-linecap="butt" d="m477.44427 92.43371l3.3034668 9.076195l3.3034668 -9.076195z" fill-rule="evenodd"/><path fill="#000000" fill-opacity="0.0" d="m640.74774 70.795906l0 16.82563l160.0 0l0 16.812172" fill-rule="evenodd"/><path stroke="#d63384" stroke-width="2.0" stroke-linejoin="round" stroke-linecap="butt" stroke-dasharray="8.0,6.0" d="m640.74774 70.79591l0 16.825623l160.00006 0l0 4.812172" fill-rule="evenodd"/><path fill="#d63384" stroke="#d63384" stroke-width="2.0" stroke-linecap="butt" d="m797.44434 92.43371l3.3034668 9.076195l3.3034668 -9.076195z" fill-rule="evenodd"/><path fill="#000000" fill-opacity="0.0" d="m640.74774 70.795906l0 16.82563l0.06298828 0l0 16.812172" fill-rule="evenodd"/><path stroke="#d63384" stroke-width="2.0" stroke-linejoin="round" stroke-linecap="butt" stroke-dasharray="8.0,6.0" d="m640.74774 70.79591l0 16.825623l0.06298828 0l0 4.812172" fill-rule="evenodd"/><path fill="#d63384" stroke="#d63384" stroke-width="2.0" stroke-linecap="butt" d="m637.50726 92.43371l3.3034668 9.076195l3.3034668 -9.076195z" fill-rule="evenodd"/><path fill="#000000" fill-opacity="0.0" d="m640.5728 171.67743l0 15.716537l0.06298828 0l0 15.716537" fill-rule="evenodd"/><path stroke="#d63384" stroke-width="2.0" stroke-linejoin="round" stroke-linecap="butt" d="m640.5728 183.67743l0 3.7165375l0.06298828 0l0 3.7165375" fill-rule="evenodd"/><path fill="#d63384" stroke="#d63384" stroke-width="2.0" stroke-linecap="butt" d="m643.8763 183.67743l-3.3034668 -9.076187l-3.3034668 9.076187z" fill-rule="evenodd"/><path fill="#d63384" stroke="#d63384" stroke-width="2.0" stroke-linecap="butt" d="m637.33234 191.1105l3.3034668 9.076187l3.3034668 -9.076187z" fill-rule="evenodd"/><path fill="#000000" fill-opacity="0.0" d="m640.5728 235.67743l0 15.716537l0.06298828 0l0 15.716537" fill-rule="evenodd"/><path stroke="#d63384" stroke-width="2.0" stroke-linejoin="round" stroke-linecap="butt" d="m640.5728 247.67743l0 3.7165375l0.06298828 0l0 3.7165375" fill-rule="evenodd"/><path fill="#d63384" stroke="#d63384" stroke-width="2.0" stroke-linecap="butt" d="m643.8763 247.67743l-3.3034668 -9.076187l-3.3034668 9.076187z" fill-rule="evenodd"/><path fill="#d63384" stroke="#d63384" stroke-width="2.0" stroke-linecap="butt" d="m637.33234 255.1105l3.3034668 9.076202l3.3034668 -9.076202z" fill-rule="evenodd"/><path fill="#ffffff" d="m3.3962529 256.2001l215.9055 0l0 32.566925l-215.9055 0z" fill-rule="evenodd"/><path stroke="#6c7284" stroke-width="1.0" stroke-linejoin="round" stroke-linecap="butt" stroke-dasharray="1.0,3.0" d="m3.3962529 256.2001l215.9055 0l0 32.566925l-215.9055 0z" fill-rule="evenodd"/><path fill="#000000" d="m41.41151 277.1436l-3.640625 -4.03125l0 4.03125l-1.15625 0l0 -8.828125l1.15625 0l0 4.09375l3.640625 -4.09375l1.46875 0l-4.0 4.421875l4.03125 4.40625l-1.5 0zm8.940445 -6.9375l0 6.9375l-1.15625 0l0 -1.03125q-0.328125 0.53125 -0.921875 0.828125q-0.578125 0.296875 -1.28125 0.296875q-0.8125 0 -1.46875 -0.328125q-0.640625 -0.328125 -1.015625 -1.0q-0.375 -0.671875 -0.375 -1.640625l0 -4.0625l1.140625 0l0 3.90625q0 1.03125 0.515625 1.578125q0.53125 0.546875 1.421875 0.546875q0.921875 0 1.453125 -0.5625q0.53125 -0.5625 0.53125 -1.65625l0 -3.8125l1.15625 0zm3.0999756 1.296875q0.359375 -0.625 1.03125 -1.015625q0.6875 -0.390625 1.5625 -0.390625q0.9375 0 1.6875 0.453125q0.75 0.4375 1.171875 1.234375q0.4375 0.796875 0.4375 1.859375q0 1.0625 -0.4375 1.890625q-0.421875 0.8125 -1.1875 1.265625q-0.75 0.453125 -1.671875 0.453125q-0.890625 0 -1.578125 -0.390625q-0.671875 -0.390625 -1.015625 -1.0l0 1.28125l-1.15625 0l0 -9.359375l1.15625 0l0 3.71875zm4.703125 2.140625q0 -0.78125 -0.3125 -1.359375q-0.3125 -0.578125 -0.859375 -0.875q-0.53125 -0.3125 -1.171875 -0.3125q-0.640625 0 -1.1875 0.3125q-0.53125 0.3125 -0.859375 0.90625q-0.3125 0.578125 -0.3125 1.34375q0 0.78125 0.3125 1.375q0.328125 0.59375 0.859375 0.90625q0.546875 0.296875 1.1875 0.296875q0.640625 0 1.171875 -0.296875q0.546875 -0.3125 0.859375 -0.90625q0.3125 -0.59375 0.3125 -1.390625zm9.024357 -0.234375q0 0.328125 -0.03125 0.703125l-5.546879 0q0.0625 1.015625 0.703125 1.59375q0.640625 0.578125 1.546875 0.578125q0.7500038 0 1.2500038 -0.34375q0.5 -0.359375 0.703125 -0.9375l1.234375 0q-0.265625 1.0 -1.109375 1.625q-0.828125 0.625 -2.0781288 0.625q-0.984375 0 -1.765625 -0.4375q-0.765625 -0.4375 -1.21875 -1.25q-0.4375 -0.828125 -0.4375 -1.90625q0 -1.078125 0.421875 -1.875q0.4375 -0.8125 1.21875 -1.25q0.78125 -0.4375 1.78125 -0.4375q1.0000038 0 1.7500038 0.4375q0.765625 0.421875 1.171875 1.171875q0.40625 0.75 0.40625 1.703125zm-1.1875 -0.234375q0 -0.65625 -0.296875 -1.125q-0.28125 -0.484375 -0.78125 -0.734375q-0.5 -0.25 -1.1093788 -0.25q-0.875 0 -1.484375 0.5625q-0.609375 0.546875 -0.703125 1.546875l4.375004 0zm3.8624725 -1.84375q0.3125 -0.59375 0.875 -0.921875q0.5625 -0.328125 1.359375 -0.328125l0 1.1875l-0.296875 0q-1.9375 0 -1.9375 2.109375l0 3.765625l-1.15625 0l0 -6.9375l1.15625 0l0 1.125zm6.955139 -1.25q1.265625 0 2.046875 0.765625q0.78125 0.765625 0.78125 2.203125l0 4.09375l-1.140625 0l0 -3.921875q0 -1.046875 -0.515625 -1.59375q-0.515625 -0.546875 -1.421875 -0.546875q-0.90625 0 -1.453125 0.578125q-0.53125 0.5625 -0.53125 1.65625l0 3.828125l-1.15625 0l0 -6.9375l1.15625 0l0 0.984375q0.34375 -0.53125 0.921875 -0.8125q0.59375 -0.296875 1.3125 -0.296875zm11.037476 3.328125q0 0.328125 -0.03125 0.703125l-5.546875 0q0.0625 1.015625 0.703125 1.59375q0.640625 0.578125 1.546875 0.578125q0.75 0 1.25 -0.34375q0.5 -0.359375 0.703125 -0.9375l1.234375 0q-0.265625 1.0 -1.109375 1.625q-0.828125 0.625 -2.078125 0.625q-0.984375 0 -1.765625 -0.4375q-0.765625 -0.4375 -1.21875 -1.25q-0.4375 -0.828125 -0.4375 -1.90625q0 -1.078125 0.421875 -1.875q0.4375 -0.8125 1.21875 -1.25q0.78125 -0.4375 1.78125 -0.4375q1.0 0 1.75 0.4375q0.765625 0.421875 1.171875 1.171875q0.40625 0.75 0.40625 1.703125zm-1.1875 -0.234375q0 -0.65625 -0.296875 -1.125q-0.28125 -0.484375 -0.78125 -0.734375q-0.5 -0.25 -1.109375 -0.25q-0.875 0 -1.484375 0.5625q-0.609375 0.546875 -0.703125 1.546875l4.375 0zm4.1124725 -2.015625l0 4.09375q0 0.5 0.21875 0.71875q0.21875 0.203125 0.75 0.203125l0.84375 0l0 0.96875l-1.03125 0q-0.96875 0 -1.453125 -0.4375q-0.46875 -0.453125 -0.46875 -1.453125l0 -4.09375l-0.90625 0l0 -0.953125l0.90625 0l0 -1.75l1.140625 0l0 1.75l1.8125 0l0 0.953125l-1.8125 0zm9.528732 2.25q0 0.328125 -0.03125 0.703125l-5.546875 0q0.0625 1.015625 0.703125 1.59375q0.640625 0.578125 1.546875 0.578125q0.75 0 1.25 -0.34375q0.5 -0.359375 0.703125 -0.9375l1.234375 0q-0.265625 1.0 -1.109375 1.625q-0.828125 0.625 -2.078125 0.625q-0.984375 0 -1.765625 -0.4375q-0.765625 -0.4375 -1.21875 -1.25q-0.4375 -0.828125 -0.4375 -1.90625q0 -1.078125 0.421875 -1.875q0.4375 -0.8125 1.21875 -1.25q0.78125 -0.4375 1.78125 -0.4375q1.0 0 1.75 0.4375q0.765625 0.421875 1.171875 1.171875q0.40625 0.75 0.40625 1.703125zm-1.1875 -0.234375q0 -0.65625 -0.296875 -1.125q-0.28125 -0.484375 -0.78125 -0.734375q-0.5 -0.25 -1.109375 -0.25q-0.875 0 -1.484375 0.5625q-0.609375 0.546875 -0.703125 1.546875l4.375 0zm5.1749725 4.078125q-0.8125 0 -1.453125 -0.265625q-0.625 -0.28125 -1.0 -0.765625q-0.359375 -0.484375 -0.390625 -1.109375l1.1875 0q0.046875 0.515625 0.484375 0.84375q0.4375 0.328125 1.15625 0.328125q0.65625 0 1.03125 -0.28125q0.375 -0.296875 0.375 -0.75q0 -0.453125 -0.40625 -0.671875q-0.390625 -0.21875 -1.25 -0.4375q-0.765625 -0.203125 -1.25 -0.40625q-0.484375 -0.21875 -0.84375 -0.625q-0.34375 -0.40625 -0.34375 -1.078125q0 -0.53125 0.3125 -0.96875q0.3125 -0.453125 0.890625 -0.703125q0.59375 -0.265625 1.34375 -0.265625q1.140625 0 1.84375 0.578125q0.71875 0.578125 0.765625 1.59375l-1.140625 0q-0.046875 -0.546875 -0.453125 -0.875q-0.390625 -0.328125 -1.0625 -0.328125q-0.609375 0 -0.984375 0.265625q-0.359375 0.265625 -0.359375 0.703125q0 0.34375 0.21875 0.5625q0.21875 0.21875 0.546875 0.359375q0.34375 0.125 0.9375 0.296875q0.75 0.1875 1.21875 0.390625q0.46875 0.203125 0.796875 0.59375q0.34375 0.390625 0.359375 1.015625q0 0.578125 -0.328125 1.03125q-0.3125 0.453125 -0.890625 0.71875q-0.578125 0.25 -1.3125 0.25zm7.0951233 -4.53125q0 -1.28125 0.578125 -2.3125q0.578125 -1.03125 1.578125 -1.609375q1.015625 -0.59375 2.25 -0.59375q1.4375 0 2.515625 0.703125q1.078125 0.6875 1.5625 1.96875l-1.375 0q-0.359375 -0.796875 -1.0625 -1.21875q-0.6875 -0.4375 -1.640625 -0.4375q-0.921875 0 -1.65625 0.4375q-0.734375 0.421875 -1.15625 1.21875q-0.421875 0.78125 -0.421875 1.84375q0 1.0625 0.421875 1.859375q0.421875 0.78125 1.15625 1.21875q0.734375 0.421875 1.65625 0.421875q0.953125 0 1.640625 -0.421875q0.703125 -0.421875 1.0625 -1.21875l1.375 0q-0.484375 1.265625 -1.5625 1.953125q-1.078125 0.6875 -2.515625 0.6875q-1.234375 0 -2.25 -0.578125q-1.0 -0.578125 -1.578125 -1.59375q-0.578125 -1.03125 -0.578125 -2.328125zm13.223724 4.53125q-0.96875 0 -1.765625 -0.4375q-0.796875 -0.4375 -1.25 -1.25q-0.4375 -0.828125 -0.4375 -1.90625q0 -1.0625 0.453125 -1.875q0.46875 -0.8125 1.265625 -1.25q0.796875 -0.4375 1.78125 -0.4375q0.984375 0 1.78125 0.4375q0.796875 0.4375 1.265625 1.25q0.46875 0.796875 0.46875 1.875q0 1.078125 -0.484375 1.90625q-0.46875 0.8125 -1.28125 1.25q-0.8125 0.4375 -1.796875 0.4375zm0 -1.015625q0.625 0 1.15625 -0.28125q0.546875 -0.296875 0.875 -0.875q0.34375 -0.578125 0.34375 -1.421875q0 -0.828125 -0.328125 -1.40625q-0.328125 -0.59375 -0.859375 -0.875q-0.53125 -0.28125 -1.15625 -0.28125q-0.625 0 -1.15625 0.28125q-0.515625 0.28125 -0.84375 0.875q-0.3125 0.578125 -0.3125 1.40625q0 0.859375 0.3125 1.4375q0.3125 0.578125 0.828125 0.859375q0.515625 0.28125 1.140625 0.28125zm13.412476 -6.15625q0.8125 0 1.4375 0.34375q0.640625 0.328125 1.0 1.0q0.375 0.671875 0.375 1.625l0 4.09375l-1.140625 0l0 -3.921875q0 -1.046875 -0.515625 -1.59375q-0.515625 -0.546875 -1.375 -0.546875q-0.90625 0 -1.4375 0.578125q-0.53125 0.578125 -0.53125 1.65625l0 3.828125l-1.140625 0l0 -3.921875q0 -1.046875 -0.515625 -1.59375q-0.5 -0.546875 -1.375 -0.546875q-0.90625 0 -1.4375 0.578125q-0.53125 0.578125 -0.53125 1.65625l0 3.828125l-1.15625 0l0 -6.9375l1.15625 0l0 1.0q0.34375 -0.546875 0.921875 -0.828125q0.578125 -0.296875 1.265625 -0.296875q0.875 0 1.546875 0.390625q0.671875 0.390625 1.0 1.15625q0.296875 -0.734375 0.96875 -1.140625q0.671875 -0.40625 1.484375 -0.40625zm5.848404 1.40625q0.34375 -0.59375 1.015625 -0.984375q0.6875 -0.40625 1.578125 -0.40625q0.921875 0 1.671875 0.453125q0.765625 0.4375 1.1875 1.234375q0.4375 0.796875 0.4375 1.859375q0 1.0625 -0.4375 1.890625q-0.421875 0.8125 -1.1875 1.265625q-0.75 0.453125 -1.671875 0.453125q-0.890625 0 -1.5625 -0.390625q-0.671875 -0.40625 -1.03125 -1.0l0 4.578125l-1.15625 0l0 -10.234375l1.15625 0l0 1.28125zm4.703125 2.15625q0 -0.78125 -0.3125 -1.359375q-0.3125 -0.578125 -0.859375 -0.875q-0.53125 -0.3125 -1.171875 -0.3125q-0.640625 0 -1.1875 0.3125q-0.53125 0.3125 -0.859375 0.90625q-0.3125 0.578125 -0.3125 1.34375q0 0.78125 0.3125 1.375q0.328125 0.59375 0.859375 0.90625q0.546875 0.296875 1.1875 0.296875q0.640625 0 1.171875 -0.296875q0.546875 -0.3125 0.859375 -0.90625q0.3125 -0.59375 0.3125 -1.390625zm5.727478 3.609375q-0.96875 0 -1.765625 -0.4375q-0.796875 -0.4375 -1.25 -1.25q-0.4375 -0.828125 -0.4375 -1.90625q0 -1.0625 0.453125 -1.875q0.46875 -0.8125 1.265625 -1.25q0.796875 -0.4375 1.78125 -0.4375q0.984375 0 1.78125 0.4375q0.796875 0.4375 1.265625 1.25q0.46875 0.796875 0.46875 1.875q0 1.078125 -0.484375 1.90625q-0.46875 0.8125 -1.28125 1.25q-0.8125 0.4375 -1.796875 0.4375zm0 -1.015625q0.625 0 1.15625 -0.28125q0.546875 -0.296875 0.875 -0.875q0.34375 -0.578125 0.34375 -1.421875q0 -0.828125 -0.328125 -1.40625q-0.328125 -0.59375 -0.859375 -0.875q-0.53125 -0.28125 -1.15625 -0.28125q-0.625 0 -1.15625 0.28125q-0.515625 0.28125 -0.84375 0.875q-0.3125 0.578125 -0.3125 1.40625q0 0.859375 0.3125 1.4375q0.3125 0.578125 0.828125 0.859375q0.515625 0.28125 1.140625 0.28125zm8.459351 -6.15625q1.265625 0 2.046875 0.765625q0.78125 0.765625 0.78125 2.203125l0 4.09375l-1.140625 0l0 -3.921875q0 -1.046875 -0.515625 -1.59375q-0.515625 -0.546875 -1.421875 -0.546875q-0.90625 0 -1.453125 0.578125q-0.53125 0.5625 -0.53125 1.65625l0 3.828125l-1.15625 0l0 -6.9375l1.15625 0l0 0.984375q0.34375 -0.53125 0.921875 -0.8125q0.59375 -0.296875 1.3125 -0.296875zm11.037476 3.328125q0 0.328125 -0.03125 0.703125l-5.546875 0q0.0625 1.015625 0.703125 1.59375q0.640625 0.578125 1.546875 0.578125q0.75 0 1.25 -0.34375q0.5 -0.359375 0.703125 -0.9375l1.234375 0q-0.265625 1.0 -1.109375 1.625q-0.828125 0.625 -2.078125 0.625q-0.984375 0 -1.765625 -0.4375q-0.765625 -0.4375 -1.21875 -1.25q-0.4375 -0.828125 -0.4375 -1.90625q0 -1.078125 0.421875 -1.875q0.4375 -0.8125 1.21875 -1.25q0.78125 -0.4375 1.78125 -0.4375q1.0 0 1.75 0.4375q0.765625 0.421875 1.171875 1.171875q0.40625 0.75 0.40625 1.703125zm-1.1875 -0.234375q0 -0.65625 -0.296875 -1.125q-0.28125 -0.484375 -0.78125 -0.734375q-0.5 -0.25 -1.109375 -0.25q-0.875 0 -1.484375 0.5625q-0.609375 0.546875 -0.703125 1.546875l4.375 0zm6.0968475 -3.09375q1.265625 0 2.046875 0.765625q0.78125 0.765625 0.78125 2.203125l0 4.09375l-1.140625 0l0 -3.921875q0 -1.046875 -0.515625 -1.59375q-0.515625 -0.546875 -1.421875 -0.546875q-0.90625 0 -1.453125 0.578125q-0.53125 0.5625 -0.53125 1.65625l0 3.828125l-1.15625 0l0 -6.9375l1.15625 0l0 0.984375q0.34375 -0.53125 0.921875 -0.8125q0.59375 -0.296875 1.3125 -0.296875zm6.1156006 1.078125l0 4.09375q0 0.5 0.21875 0.71875q0.21875 0.203125 0.75 0.203125l0.84375 0l0 0.96875l-1.03125 0q-0.96875 0 -1.453125 -0.4375q-0.46875 -0.453125 -0.46875 -1.453125l0 -4.09375l-0.90625 0l0 -0.953125l0.90625 0l0 -1.75l1.140625 0l0 1.75l1.8125 0l0 0.953125l-1.8125 0z" fill-rule="nonzero"/><path fill="#ebf9f1" d="m3.3962529 304.2001l215.9055 0l0 32.566925l-215.9055 0z" fill-rule="evenodd"/><path stroke="#99e0bb" stroke-width="1.0" stroke-linejoin="round" stroke-linecap="butt" d="m3.3962529 304.2001l215.9055 0l0 32.566925l-215.9055 0z" fill-rule="evenodd"/><path fill="#000000" d="m50.777096 325.1436l-3.640625 -4.03125l0 4.03125l-1.15625 0l0 -8.828125l1.15625 0l0 4.09375l3.640625 -4.09375l1.46875 0l-4.0 4.421875l4.03125 4.40625l-1.5 0zm8.940445 -6.9375l0 6.9375l-1.15625 0l0 -1.03125q-0.328125 0.53125 -0.921875 0.828125q-0.578125 0.296875 -1.28125 0.296875q-0.8125 0 -1.46875 -0.328125q-0.640625 -0.328125 -1.015625 -1.0q-0.375 -0.671875 -0.375 -1.640625l0 -4.0625l1.140625 0l0 3.90625q0 1.03125 0.515625 1.578125q0.53125 0.546875 1.421875 0.546875q0.921875 0 1.453125 -0.5625q0.53125 -0.5625 0.53125 -1.65625l0 -3.8125l1.15625 0zm3.0999756 1.296875q0.359375 -0.625 1.03125 -1.015625q0.6875038 -0.390625 1.5625038 -0.390625q0.9375 0 1.6875 0.453125q0.75 0.4375 1.171875 1.234375q0.4375 0.796875 0.4375 1.859375q0 1.0625 -0.4375 1.890625q-0.421875 0.8125 -1.1875 1.265625q-0.75 0.453125 -1.671875 0.453125q-0.890625 0 -1.5781288 -0.390625q-0.671875 -0.390625 -1.015625 -1.0l0 1.28125l-1.15625 0l0 -9.359375l1.15625 0l0 3.71875zm4.703129 2.140625q0 -0.78125 -0.3125 -1.359375q-0.3125 -0.578125 -0.859375 -0.875q-0.53125 -0.3125 -1.171875 -0.3125q-0.640625 0 -1.1875038 0.3125q-0.53125 0.3125 -0.859375 0.90625q-0.3125 0.578125 -0.3125 1.34375q0 0.78125 0.3125 1.375q0.328125 0.59375 0.859375 0.90625q0.5468788 0.296875 1.1875038 0.296875q0.640625 0 1.171875 -0.296875q0.546875 -0.3125 0.859375 -0.90625q0.3125 -0.59375 0.3125 -1.390625zm9.024353 -0.234375q0 0.328125 -0.03125 0.703125l-5.546875 0q0.0625 1.015625 0.703125 1.59375q0.640625 0.578125 1.546875 0.578125q0.75 0 1.25 -0.34375q0.5 -0.359375 0.703125 -0.9375l1.234375 0q-0.265625 1.0 -1.109375 1.625q-0.828125 0.625 -2.078125 0.625q-0.984375 0 -1.765625 -0.4375q-0.765625 -0.4375 -1.21875 -1.25q-0.4375 -0.828125 -0.4375 -1.90625q0 -1.078125 0.421875 -1.875q0.4375 -0.8125 1.21875 -1.25q0.78125 -0.4375 1.78125 -0.4375q1.0 0 1.75 0.4375q0.765625 0.421875 1.171875 1.171875q0.40625 0.75 0.40625 1.703125zm-1.1875 -0.234375q0 -0.65625 -0.296875 -1.125q-0.28125 -0.484375 -0.78125 -0.734375q-0.5 -0.25 -1.109375 -0.25q-0.875 0 -1.484375 0.5625q-0.609375 0.546875 -0.703125 1.546875l4.375 0zm10.003098 -4.859375l-3.328125 8.828125l-1.328125 0l-3.328125 -8.828125l1.21875 0l2.78125 7.609375l2.765625 -7.609375l1.21875 0zm1.852478 0.765625q-0.328125 0 -0.5625 -0.21875q-0.21875 -0.234375 -0.21875 -0.5625q0 -0.328125 0.21875 -0.546875q0.234375 -0.234375 0.5625 -0.234375q0.328125 0 0.546875 0.234375q0.21875 0.21875 0.21875 0.546875q0 0.328125 -0.21875 0.5625q-0.21875 0.21875 -0.546875 0.21875zm0.5625 1.125l0 6.9375l-1.15625 0l0 -6.9375l1.15625 0zm3.1134338 1.125q0.3125 -0.59375 0.875 -0.921875q0.5625 -0.328125 1.359375 -0.328125l0 1.1875l-0.296875 0q-1.9375 0 -1.9375 2.109375l0 3.765625l-1.15625 0l0 -6.9375l1.15625 0l0 1.125zm4.970764 -0.171875l0 4.09375q0 0.5 0.21875 0.71875q0.21875 0.203125 0.75 0.203125l0.84375 0l0 0.96875l-1.03125 0q-0.96875 0 -1.453125 -0.4375q-0.46875 -0.453125 -0.46875 -1.453125l0 -4.09375l-0.90625 0l0 -0.953125l0.90625 0l0 -1.75l1.140625 0l0 1.75l1.8125 0l0 0.953125l-1.8125 0zm6.1579437 1.5625q0 -1.28125 0.578125 -2.3125q0.578125 -1.03125 1.578125 -1.609375q1.015625 -0.59375 2.25 -0.59375q1.4375 0 2.515625 0.703125q1.078125 0.6875 1.5625 1.96875l-1.375 0q-0.359375 -0.796875 -1.0625 -1.21875q-0.6875 -0.4375 -1.640625 -0.4375q-0.921875 0 -1.65625 0.4375q-0.734375 0.421875 -1.15625 1.21875q-0.421875 0.78125 -0.421875 1.84375q0 1.0625 0.421875 1.859375q0.421875 0.78125 1.15625 1.21875q0.734375 0.421875 1.65625 0.421875q0.953125 0 1.640625 -0.421875q0.703125 -0.421875 1.0625 -1.21875l1.375 0q-0.484375 1.265625 -1.5625 1.953125q-1.078125 0.6875 -2.515625 0.6875q-1.234375 0 -2.25 -0.578125q-1.0 -0.578125 -1.578125 -1.59375q-0.578125 -1.03125 -0.578125 -2.328125zm13.223724 4.53125q-0.96875 0 -1.765625 -0.4375q-0.796875 -0.4375 -1.25 -1.25q-0.4375 -0.828125 -0.4375 -1.90625q0 -1.0625 0.453125 -1.875q0.46875 -0.8125 1.265625 -1.25q0.796875 -0.4375 1.78125 -0.4375q0.984375 0 1.78125 0.4375q0.796875 0.4375 1.265625 1.25q0.46875 0.796875 0.46875 1.875q0 1.078125 -0.484375 1.90625q-0.46875 0.8125 -1.28125 1.25q-0.8125 0.4375 -1.796875 0.4375zm0 -1.015625q0.625 0 1.15625 -0.28125q0.546875 -0.296875 0.875 -0.875q0.34375 -0.578125 0.34375 -1.421875q0 -0.828125 -0.328125 -1.40625q-0.328125 -0.59375 -0.859375 -0.875q-0.53125 -0.28125 -1.15625 -0.28125q-0.625 0 -1.15625 0.28125q-0.515625 0.28125 -0.84375 0.875q-0.3125 0.578125 -0.3125 1.40625q0 0.859375 0.3125 1.4375q0.3125 0.578125 0.828125 0.859375q0.515625 0.28125 1.140625 0.28125zm13.412476 -6.15625q0.8125 0 1.4375 0.34375q0.640625 0.328125 1.0 1.0q0.375 0.671875 0.375 1.625l0 4.09375l-1.140625 0l0 -3.921875q0 -1.046875 -0.515625 -1.59375q-0.515625 -0.546875 -1.375 -0.546875q-0.90625 0 -1.4375 0.578125q-0.53125 0.578125 -0.53125 1.65625l0 3.828125l-1.140625 0l0 -3.921875q0 -1.046875 -0.515625 -1.59375q-0.5 -0.546875 -1.375 -0.546875q-0.90625 0 -1.4375 0.578125q-0.53125 0.578125 -0.53125 1.65625l0 3.828125l-1.15625 0l0 -6.9375l1.15625 0l0 1.0q0.34375 -0.546875 0.921875 -0.828125q0.578125 -0.296875 1.265625 -0.296875q0.875 0 1.546875 0.390625q0.671875 0.390625 1.0 1.15625q0.296875 -0.734375 0.96875 -1.140625q0.671875 -0.40625 1.484375 -0.40625zm5.848404 1.40625q0.34375 -0.59375 1.015625 -0.984375q0.6875 -0.40625 1.578125 -0.40625q0.921875 0 1.671875 0.453125q0.765625 0.4375 1.1875 1.234375q0.4375 0.796875 0.4375 1.859375q0 1.0625 -0.4375 1.890625q-0.421875 0.8125 -1.1875 1.265625q-0.75 0.453125 -1.671875 0.453125q-0.890625 0 -1.5625 -0.390625q-0.671875 -0.40625 -1.03125 -1.0l0 4.578125l-1.15625 0l0 -10.234375l1.15625 0l0 1.28125zm4.703125 2.15625q0 -0.78125 -0.3125 -1.359375q-0.3125 -0.578125 -0.859375 -0.875q-0.53125 -0.3125 -1.171875 -0.3125q-0.640625 0 -1.1875 0.3125q-0.53125 0.3125 -0.859375 0.90625q-0.3125 0.578125 -0.3125 1.34375q0 0.78125 0.3125 1.375q0.328125 0.59375 0.859375 0.90625q0.546875 0.296875 1.1875 0.296875q0.640625 0 1.171875 -0.296875q0.546875 -0.3125 0.859375 -0.90625q0.3125 -0.59375 0.3125 -1.390625zm5.727478 3.609375q-0.96875 0 -1.765625 -0.4375q-0.796875 -0.4375 -1.25 -1.25q-0.4375 -0.828125 -0.4375 -1.90625q0 -1.0625 0.453125 -1.875q0.46875 -0.8125 1.265625 -1.25q0.796875 -0.4375 1.78125 -0.4375q0.984375 0 1.78125 0.4375q0.796875 0.4375 1.265625 1.25q0.46875 0.796875 0.46875 1.875q0 1.078125 -0.484375 1.90625q-0.46875 0.8125 -1.28125 1.25q-0.8125 0.4375 -1.796875 0.4375zm0 -1.015625q0.625 0 1.15625 -0.28125q0.546875 -0.296875 0.875 -0.875q0.34375 -0.578125 0.34375 -1.421875q0 -0.828125 -0.328125 -1.40625q-0.328125 -0.59375 -0.859375 -0.875q-0.53125 -0.28125 -1.15625 -0.28125q-0.625 0 -1.15625 0.28125q-0.515625 0.28125 -0.84375 0.875q-0.3125 0.578125 -0.3125 1.40625q0 0.859375 0.3125 1.4375q0.3125 0.578125 0.828125 0.859375q0.515625 0.28125 1.140625 0.28125zm8.459351 -6.15625q1.265625 0 2.046875 0.765625q0.78125 0.765625 0.78125 2.203125l0 4.09375l-1.140625 0l0 -3.921875q0 -1.046875 -0.515625 -1.59375q-0.515625 -0.546875 -1.421875 -0.546875q-0.90625 0 -1.453125 0.578125q-0.53125 0.5625 -0.53125 1.65625l0 3.828125l-1.15625 0l0 -6.9375l1.15625 0l0 0.984375q0.34375 -0.53125 0.921875 -0.8125q0.59375 -0.296875 1.3125 -0.296875zm11.037476 3.328125q0 0.328125 -0.03125 0.703125l-5.546875 0q0.0625 1.015625 0.703125 1.59375q0.640625 0.578125 1.546875 0.578125q0.75 0 1.25 -0.34375q0.5 -0.359375 0.703125 -0.9375l1.234375 0q-0.265625 1.0 -1.109375 1.625q-0.828125 0.625 -2.078125 0.625q-0.984375 0 -1.765625 -0.4375q-0.765625 -0.4375 -1.21875 -1.25q-0.4375 -0.828125 -0.4375 -1.90625q0 -1.078125 0.421875 -1.875q0.4375 -0.8125 1.21875 -1.25q0.78125 -0.4375 1.78125 -0.4375q1.0 0 1.75 0.4375q0.765625 0.421875 1.171875 1.171875q0.40625 0.75 0.40625 1.703125zm-1.1875 -0.234375q0 -0.65625 -0.296875 -1.125q-0.28125 -0.484375 -0.78125 -0.734375q-0.5 -0.25 -1.109375 -0.25q-0.875 0 -1.484375 0.5625q-0.609375 0.546875 -0.703125 1.546875l4.375 0zm6.0968475 -3.09375q1.265625 0 2.046875 0.765625q0.78125 0.765625 0.78125 2.203125l0 4.09375l-1.140625 0l0 -3.921875q0 -1.046875 -0.515625 -1.59375q-0.515625 -0.546875 -1.421875 -0.546875q-0.90625 0 -1.453125 0.578125q-0.53125 0.5625 -0.53125 1.65625l0 3.828125l-1.15625 0l0 -6.9375l1.15625 0l0 0.984375q0.34375 -0.53125 0.921875 -0.8125q0.59375 -0.296875 1.3125 -0.296875zm6.1156006 1.078125l0 4.09375q0 0.5 0.21875 0.71875q0.21875 0.203125 0.75 0.203125l0.84375 0l0 0.96875l-1.03125 0q-0.96875 0 -1.453125 -0.4375q-0.46875 -0.453125 -0.46875 -1.453125l0 -4.09375l-0.90625 0l0 -0.953125l0.90625 0l0 -1.75l1.140625 0l0 1.75l1.8125 0l0 0.953125l-1.8125 0z" fill-rule="nonzero"/></g></svg>
