<svg version="1.1" viewBox="0.0 0.0 660.0 410.0" fill="none" stroke="none" stroke-linecap="square" stroke-miterlimit="10" xmlns:xlink="http://www.w3.org/1999/xlink" xmlns="http://www.w3.org/2000/svg"><clipPath id="g2fd2783a012_0_407.0"><path d="m0 0l960.0 0l0 540.0l-960.0 0l0 -540.0z" clip-rule="nonzero"/></clipPath><g clip-path="url(#g2fd2783a012_0_407.0)"><path fill="#000000" fill-opacity="0.0" d="m0 0l960.0 0l0 540.0l-960.0 0z" fill-rule="evenodd"/><path fill="#e3f7ed" d="m3.67979 4.2388453l311.02362 0l0 398.07877l-311.02362 0z" fill-rule="evenodd"/><path stroke="#99e0bb" stroke-width="1.0" stroke-linejoin="round" stroke-linecap="butt" d="m3.67979 4.2388453l311.02362 0l0 398.07877l-311.02362 0z" fill-rule="evenodd"/><path fill="#99e0bb" d="m16.535433 329.8819l283.65353 0l0 59.149597l-283.65353 0z" fill-rule="evenodd"/><path fill="#000000" d="m148.77304 344.53857l0 11.078125l-1.453125 0l0 -8.25l-3.6875 8.25l-1.015625 0l-3.703125 -8.265625l0 8.265625l-1.453125 0l0 -11.078125l1.5625 0l4.09375 9.15625l4.09375 -9.15625l1.5625 0zm10.4635315 6.359375q0 0.421875 -0.046875 0.875l-7.015625 0q0.078125 1.296875 0.890625 2.03125q0.8125 0.71875 1.96875 0.71875q0.9375 0 1.5625 -0.4375q0.640625 -0.4375 0.890625 -1.171875l1.578125 0q-0.359375 1.265625 -1.421875 2.0625q-1.046875 0.78125 -2.609375 0.78125q-1.25 0 -2.234375 -0.546875q-0.984375 -0.5625 -1.546875 -1.59375q-0.5625 -1.046875 -0.5625 -2.40625q0 -1.359375 0.546875 -2.375q0.546875 -1.03125 1.53125 -1.578125q0.984375 -0.546875 2.265625 -0.546875q1.234375 0 2.1875 0.546875q0.96875 0.53125 1.484375 1.484375q0.53125 0.953125 0.53125 2.15625zm-1.5 -0.3125q0 -0.828125 -0.375 -1.421875q-0.375 -0.609375 -1.0 -0.921875q-0.625 -0.3125 -1.40625 -0.3125q-1.09375 0 -1.875 0.71875q-0.78125 0.703125 -0.890625 1.9375l5.546875 0zm5.2012634 -2.53125l0 5.15625q0 0.640625 0.265625 0.90625q0.265625 0.265625 0.9375 0.265625l1.078125 0l0 1.234375l-1.3125 0q-1.21875 0 -1.828125 -0.5625q-0.609375 -0.5625 -0.609375 -1.84375l0 -5.15625l-1.125 0l0 -1.203125l1.125 0l0 -2.203125l1.46875 0l0 2.203125l2.28125 0l0 1.203125l-2.28125 0zm3.4958801 3.140625q0 -1.34375 0.546875 -2.359375q0.546875 -1.015625 1.5 -1.5625q0.953125 -0.5625 2.109375 -0.5625q1.15625 0 2.0 0.5q0.859375 0.484375 1.265625 1.234375l0 -1.59375l1.46875 0l0 8.765625l-1.46875 0l0 -1.625q-0.421875 0.765625 -1.28125 1.265625q-0.859375 0.5 -2.0 0.5q-1.171875 0 -2.109375 -0.578125q-0.9375 -0.578125 -1.484375 -1.609375q-0.546875 -1.046875 -0.546875 -2.375zm7.421875 0.015625q0 -0.984375 -0.40625 -1.71875q-0.390625 -0.734375 -1.078125 -1.125q-0.671875 -0.390625 -1.484375 -0.390625q-0.828125 0 -1.5 0.390625q-0.671875 0.375 -1.078125 1.109375q-0.390625 0.734375 -0.390625 1.71875q0 1.015625 0.390625 1.765625q0.40625 0.734375 1.078125 1.125q0.671875 0.390625 1.5 0.390625q0.8125 0 1.484375 -0.390625q0.6875 -0.390625 1.078125 -1.125q0.40625 -0.75 0.40625 -1.75zm5.3941345 -7.4375l0 11.84375l-1.453125 0l0 -11.84375l1.453125 0z" fill-rule="nonzero"/><path fill="#000000" d="m36.886448 374.81668l-2.078125 -3.265625l-2.0 3.265625l-1.5312519 0l2.843752 -4.359375l-2.843752 -4.40625l1.6562519 0l2.078125 3.25l1.984375 -3.25l1.515625 0l-2.8125 4.328125l2.828125 4.4375l-1.640625 0zm4.9608917 -6.015625q-0.90625 -0.359375 -1.390625 -1.03125q-0.46875 -0.671875 -0.46875 -1.625q0 -0.859375 0.421875 -1.546875q0.4375 -0.703125 1.296875 -1.109375q0.859375 -0.421875 2.078125 -0.421875q1.203125 0 2.0625 0.421875q0.859375 0.40625 1.296875 1.109375q0.4375 0.6875 0.4375 1.546875q0 0.921875 -0.5 1.625q-0.484375 0.6875 -1.359375 1.03125q1.0 0.296875 1.578125 1.0625q0.59375 0.765625 0.59375 1.828125q0 1.046875 -0.515625 1.828125q-0.515625 0.765625 -1.453125 1.1875q-0.9375 0.421875 -2.140625 0.421875q-1.21875 0 -2.140625 -0.421875q-0.921875 -0.421875 -1.4375 -1.1875q-0.515625 -0.78125 -0.515625 -1.828125q0 -1.0625 0.578125 -1.828125q0.578125 -0.78125 1.578125 -1.0625zm4.328125 -2.484375q0 -0.96875 -0.640625 -1.5q-0.640625 -0.53125 -1.75 -0.53125q-1.109375 0 -1.75 0.53125q-0.640625 0.53125 -0.640625 1.515625q0 0.90625 0.65625 1.453125q0.671875 0.53125 1.734375 0.53125q1.0625 0 1.71875 -0.546875q0.671875 -0.546875 0.671875 -1.453125zm-2.390625 3.125q-1.1875 0 -1.9375 0.5625q-0.75 0.546875 -0.75 1.640625q0 1.03125 0.71875 1.65625q0.734375 0.625 1.96875 0.625q1.21875 0 1.9375 -0.625q0.734375 -0.625 0.734375 -1.65625q0 -1.0625 -0.75 -1.625q-0.734375 -0.578125 -1.921875 -0.578125zm12.486649 -3.4375q-0.34375 -1.78125 -2.1875 -1.78125q-1.421875 0 -2.125 1.09375q-0.703125 1.09375 -0.6875 3.609375q0.359375 -0.828125 1.21875 -1.296875q0.859375 -0.46875 1.90625 -0.46875q1.65625 0 2.640625 1.03125q0.984375 1.015625 0.984375 2.8125q0 1.09375 -0.421875 1.96875q-0.421875 0.859375 -1.28125 1.375q-0.859375 0.5 -2.078125 0.5q-1.640625 0 -2.578125 -0.734375q-0.921875 -0.734375 -1.296875 -2.03125q-0.359375 -1.296875 -0.359375 -3.203125q0 -5.875 4.09375 -5.875q1.5625 0 2.453125 0.859375q0.90625 0.84375 1.0625 2.140625l-1.34375 0zm-2.171875 2.375q-0.6875 0 -1.296875 0.28125q-0.609375 0.28125 -0.984375 0.859375q-0.375 0.5625 -0.375 1.375q0 1.21875 0.703125 1.984375q0.703125 0.75 2.015625 0.75q1.125 0 1.78125 -0.6875q0.671875 -0.703125 0.671875 -1.890625q0 -1.25 -0.640625 -1.953125q-0.640625 -0.71875 -1.875 -0.71875zm18.994518 -4.71875l0 11.15625l-1.453125 0l0 -5.0625l-5.6875 0l0 5.0625l-1.453125 0l0 -11.15625l1.453125 0l0 4.90625l5.6875 0l0 -4.90625l1.453125 0zm1.9313965 6.734375q0 -1.34375 0.546875 -2.359375q0.546875 -1.015625 1.5 -1.5625q0.953125 -0.5625 2.109375 -0.5625q1.15625 0 2.0 0.5q0.859375 0.484375 1.265625 1.234375l0 -1.59375l1.46875 0l0 8.765625l-1.46875 0l0 -1.625q-0.421875 0.765625 -1.28125 1.265625q-0.859375 0.5 -2.0 0.5q-1.171875 0 -2.109375 -0.578125q-0.9375 -0.578125 -1.484375 -1.609375q-0.546875 -1.046875 -0.546875 -2.375zm7.421875 0.015625q0 -0.984375 -0.40625 -1.71875q-0.390625 -0.734375 -1.078125 -1.125q-0.671875 -0.390625 -1.484375 -0.390625q-0.828125 0 -1.5 0.390625q-0.671875 0.375 -1.078125 1.109375q-0.390625 0.734375 -0.390625 1.71875q0 1.015625 0.390625 1.765625q0.40625 0.734375 1.078125 1.125q0.671875 0.390625 1.5 0.390625q0.8125 0 1.484375 -0.390625q0.6875 -0.390625 1.078125 -1.125q0.40625 -0.75 0.40625 -1.75zm5.39415 -2.9375q0.390625 -0.75 1.09375 -1.15625q0.71875 -0.421875 1.734375 -0.421875l0 1.5l-0.375 0q-2.453125 0 -2.453125 2.65625l0 4.765625l-1.453125 0l0 -8.765625l1.453125 0l0 1.421875zm3.9680176 2.921875q0 -1.34375 0.546875 -2.359375q0.546875 -1.015625 1.5 -1.5625q0.953125 -0.5625 2.125 -0.5625q1.03125 0 1.90625 0.46875q0.875 0.46875 1.34375 1.234375l0 -4.640625l1.46875 0l0 11.84375l-1.46875 0l0 -1.640625q-0.421875 0.78125 -1.28125 1.28125q-0.84375 0.5 -1.984375 0.5q-1.15625 0 -2.109375 -0.578125q-0.953125 -0.578125 -1.5 -1.609375q-0.546875 -1.046875 -0.546875 -2.375zm7.421875 0.015625q0 -0.984375 -0.40625 -1.71875q-0.390625 -0.734375 -1.078125 -1.125q-0.671875 -0.390625 -1.484375 -0.390625q-0.828125 0 -1.5 0.390625q-0.671875 0.375 -1.078125 1.109375q-0.390625 0.734375 -0.390625 1.71875q0 1.015625 0.390625 1.765625q0.40625 0.734375 1.078125 1.125q0.671875 0.390625 1.5 0.390625q0.8125 0 1.484375 -0.390625q0.6875 -0.390625 1.078125 -1.125q0.40625 -0.75 0.40625 -1.75zm15.6129 -4.359375l-2.734375 8.765625l-1.5 0l-2.109375 -6.953125l-2.109375 6.953125l-1.515625 0l-2.75 -8.765625l1.5 0l2.015625 7.359375l2.171875 -7.359375l1.484375 0l2.125 7.375l1.984375 -7.375l1.4375 0zm0.90127563 4.34375q0 -1.34375 0.546875 -2.359375q0.546875 -1.015625 1.5 -1.5625q0.953125 -0.5625 2.109375 -0.5625q1.15625 0 2.0 0.5q0.859375 0.484375 1.265625 1.234375l0 -1.59375l1.46875 0l0 8.765625l-1.46875 0l0 -1.625q-0.421875 0.765625 -1.28125 1.265625q-0.859375 0.5 -2.0 0.5q-1.171875 0 -2.109375 -0.578125q-0.9375 -0.578125 -1.484375 -1.609375q-0.546875 -1.046875 -0.546875 -2.375zm7.421875 0.015625q0 -0.984375 -0.40625 -1.71875q-0.390625 -0.734375 -1.078125 -1.125q-0.671875 -0.390625 -1.484375 -0.390625q-0.828125 0 -1.5 0.390625q-0.671875 0.375 -1.078125 1.109375q-0.390625 0.734375 -0.390625 1.71875q0 1.015625 0.390625 1.765625q0.40625 0.734375 1.078125 1.125q0.671875 0.390625 1.5 0.390625q0.8125 0 1.484375 -0.390625q0.6875 -0.390625 1.078125 -1.125q0.40625 -0.75 0.40625 -1.75zm5.39415 -2.9375q0.390625 -0.75 1.09375 -1.15625q0.71875 -0.421875 1.734375 -0.421875l0 1.5l-0.375 0q-2.453125 0 -2.453125 2.65625l0 4.765625l-1.453125 0l0 -8.765625l1.453125 0l0 1.421875zm12.514893 2.625q0 0.421875 -0.046875 0.875l-7.015625 0q0.078125 1.296875 0.890625 2.03125q0.8125 0.71875 1.96875 0.71875q0.9375 0 1.5625 -0.4375q0.640625 -0.4375 0.890625 -1.171875l1.578125 0q-0.359375 1.265625 -1.421875 2.0625q-1.046875 0.78125 -2.609375 0.78125q-1.25 0 -2.234375 -0.546875q-0.984375 -0.5625 -1.546875 -1.59375q-0.5625 -1.046875 -0.5625 -2.40625q0 -1.359375 0.546875 -2.375q0.546875 -1.03125 1.53125 -1.578125q0.984375 -0.546875 2.265625 -0.546875q1.234375 0 2.1875 0.546875q0.96875 0.53125 1.484375 1.484375q0.53125 0.953125 0.53125 2.15625zm-1.5 -0.3125q0 -0.828125 -0.375 -1.421875q-0.375 -0.609375 -1.0 -0.921875q-0.625 -0.3125 -1.40625 -0.3125q-1.09375 0 -1.875 0.71875q-0.78125 0.703125 -0.890625 1.9375l5.546875 0zm11.426392 8.0q-1.53125 -1.5 -2.390625 -3.8125q-0.84375 -2.328125 -0.84375 -5.015625q0 -2.75 0.890625 -5.140625q0.90625 -2.390625 2.59375 -3.9375l1.515625 0l0 0.140625q-1.796875 1.671875 -2.703125 4.03125q-0.890625 2.359375 -0.890625 4.90625q0 2.484375 0.84375 4.75q0.859375 2.25 2.515625 3.9375l0 0.140625l-1.53125 0zm4.9827576 -14.125l0 11.15625l-1.453125 0l0 -11.15625l1.453125 0zm6.7485046 2.234375q1.609375 0 2.59375 0.96875q1.0 0.96875 1.0 2.78125l0 5.171875l-1.453125 0l0 -4.953125q0 -1.3125 -0.65625 -2.0q-0.640625 -0.703125 -1.78125 -0.703125q-1.15625 0 -1.84375 0.71875q-0.671875 0.71875 -0.671875 2.09375l0 4.84375l-1.453125 0l0 -8.765625l1.453125 0l0 1.25q0.4375 -0.671875 1.171875 -1.03125q0.75 -0.375 1.640625 -0.375zm7.7556458 1.359375l0 5.15625q0 0.640625 0.265625 0.90625q0.265625 0.265625 0.9375 0.265625l1.078125 0l0 1.234375l-1.3125 0q-1.21875 0 -1.828125 -0.5625q-0.609375 -0.5625 -0.609375 -1.84375l0 -5.15625l-1.125 0l0 -1.203125l1.125 0l0 -2.203125l1.46875 0l0 2.203125l2.28125 0l0 1.203125l-2.28125 0zm12.042755 2.84375q0 0.421875 -0.046875 0.875l-7.015625 0q0.078125 1.296875 0.890625 2.03125q0.8125 0.71875 1.96875 0.71875q0.9375 0 1.5625 -0.4375q0.640625 -0.4375 0.890625 -1.171875l1.578125 0q-0.359375 1.265625 -1.421875 2.0625q-1.046875 0.78125 -2.609375 0.78125q-1.25 0 -2.234375 -0.546875q-0.984375 -0.5625 -1.546875 -1.59375q-0.5625 -1.046875 -0.5625 -2.40625q0 -1.359375 0.546875 -2.375q0.546875 -1.03125 1.53125 -1.578125q0.984375 -0.546875 2.265625 -0.546875q1.234375 0 2.1875 0.546875q0.96875 0.53125 1.484375 1.484375q0.53125 0.953125 0.53125 2.15625zm-1.5 -0.3125q0 -0.828125 -0.375 -1.421875q-0.375 -0.609375 -1.0 -0.921875q-0.625 -0.3125 -1.40625 -0.3125q-1.09375 0 -1.875 0.71875q-0.78125 0.703125 -0.890625 1.9375l5.546875 0zm4.8731384 -6.8125l0 11.84375l-1.453125 0l0 -11.84375l1.453125 0zm8.561005 5.359375l0 1.234375l-6.375 0l0 -1.234375l6.375 0zm11.95665 -4.671875l-4.21875 11.15625l-1.671875 0l-4.203125 -11.15625l1.546875 0l3.5 9.625l3.5 -9.625l1.546875 0zm8.45665 0l0 1.1875l-3.03125 0l0 9.96875l-1.46875 0l0 -9.96875l-3.046875 0l0 -1.1875l7.546875 0zm3.296646 9.140625l-1.796875 4.296875l-0.96875 0l1.171875 -4.296875l1.59375 0zm12.533752 -0.46875l-4.875 0l-0.890625 2.484375l-1.53125 0l4.03125 -11.09375l1.671875 0l4.015625 11.09375l-1.53125 0l-0.890625 -2.484375zm-0.421875 -1.171875l-2.015625 -5.640625l-2.015625 5.640625l4.03125 0zm15.924652 -7.421875l0 11.078125l-1.453125 0l0 -8.25l-3.6875 8.25l-1.015625 0l-3.703125 -8.265625l0 8.265625l-1.453125 0l0 -11.078125l1.5625 0l4.09375 9.15625l4.09375 -9.15625l1.5625 0zm5.9322815 -0.078125q1.828125 0 3.15625 0.6875q1.3437653 0.671875 2.0468903 1.9375q0.71875 1.265625 0.71875 2.984375q0 1.703125 -0.71875 2.96875q-0.703125 1.25 -2.0468903 1.921875q-1.328125 0.65625 -3.15625 0.65625l-3.46875 0l0 -11.15625l3.46875 0zm0 9.953125q2.15625 0 3.296875 -1.140625q1.1406403 -1.140625 1.1406403 -3.203125q0 -2.078125 -1.1562653 -3.25q-1.140625 -1.171875 -3.28125 -1.171875l-2.015625 0l0 8.765625l2.015625 0zm13.921402 -5.28125l0 1.234375l-6.375 0l0 -1.234375l6.375 0zm11.9566345 -4.671875l-4.21875 11.15625l-1.6718445 0l-4.203125 -11.15625l1.546875 0l3.4999695 9.625l3.5 -9.625l1.546875 0zm1.12854 14.125l0 -0.140625q1.65625 -1.6875 2.5 -3.9375q0.859375 -2.265625 0.859375 -4.75q0 -2.546875 -0.90625 -4.90625q-0.90625 -2.359375 -2.6875 -4.03125l0 -0.140625l1.515625 0q1.6875 1.546875 2.578125 3.9375q0.90625 2.390625 0.90625 5.140625q0 2.6875 -0.859375 5.015625q-0.84375 2.3125 -2.390625 3.8125l-1.515625 0z" fill-rule="nonzero"/><path fill="#d63384" d="m16.535433 260.82184l283.65353 0l0 59.149628l-283.65353 0z" fill-rule="evenodd"/><path fill="#000000" d="m148.55542 286.55667l-4.59375 -5.09375l0 5.09375l-1.453125 0l0 -11.15625l1.453125 0l0 5.171875l4.609375 -5.171875l1.84375 0l-5.0625 5.59375l5.109375 5.5625l-1.90625 0zm12.75589 -11.15625l-4.21875 11.15625l-1.671875 0l-4.203125 -11.15625l1.546875 0l3.5 9.625l3.5 -9.625l1.546875 0zm12.9097595 0.078125l0 11.078125l-1.453125 0l0 -8.25l-3.6875 8.25l-1.015625 0l-3.703125 -8.265625l0 8.265625l-1.453125 0l0 -11.078125l1.5625 0l4.09375 9.15625l4.09375 -9.15625l1.5625 0z" fill-rule="nonzero"/><path fill="#000000" d="m70.24615 294.6004l0 11.15625l-1.453125 0l0 -5.0625l-5.687496 0l0 5.0625l-1.453125 0l0 -11.15625l1.453125 0l0 4.90625l5.687496 0l0 -4.90625l1.453125 0zm10.0251465 2.390625l-5.28125 12.890625l-1.5 0l1.734375 -4.21875l-3.546875 -8.671875l1.625 0l2.75 7.109375l2.71875 -7.109375l1.5 0zm2.9142609 1.609375q0.4375 -0.75 1.28125 -1.25q0.859375 -0.5 2.0 -0.5q1.171875 0 2.125 0.5625q0.953125 0.546875 1.484375 1.5625q0.546875 1.015625 0.546875 2.359375q0 1.328125 -0.546875 2.375q-0.53125 1.03125 -1.484375 1.609375q-0.953125 0.578125 -2.125 0.578125q-1.125 0 -1.984375 -0.5q-0.84375 -0.5 -1.296875 -1.25l0 5.765625l-1.453125 0l0 -12.921875l1.453125 0l0 1.609375zm5.953125 2.734375q0 -0.984375 -0.40625 -1.71875q-0.390625 -0.734375 -1.078125 -1.109375q-0.671875 -0.390625 -1.5 -0.390625q-0.796875 0 -1.484375 0.390625q-0.671875 0.390625 -1.078125 1.140625q-0.40625 0.734375 -0.40625 1.703125q0 1.0 0.40625 1.75q0.40625 0.734375 1.078125 1.125q0.6875 0.390625 1.484375 0.390625q0.828125 0 1.5 -0.390625q0.6875 -0.390625 1.078125 -1.125q0.40625 -0.75 0.40625 -1.765625zm11.409775 -0.296875q0 0.421875 -0.046875 0.875l-7.015625 0q0.078125 1.296875 0.890625 2.03125q0.8125 0.71875 1.96875 0.71875q0.9375 0 1.5625 -0.4375q0.640625 -0.4375 0.890625 -1.171875l1.578125 0q-0.359375 1.265625 -1.421875 2.0625q-1.046875 0.78125 -2.609375 0.78125q-1.25 0 -2.234375 -0.546875q-0.984375 -0.5625 -1.546875 -1.59375q-0.5625 -1.046875 -0.5625 -2.40625q0 -1.359375 0.546875 -2.375q0.546875 -1.03125 1.53125 -1.578125q0.984375 -0.546875 2.265625 -0.546875q1.234375 0 2.1875 0.546875q0.96875 0.53125 1.484375 1.484375q0.53125 0.953125 0.53125 2.15625zm-1.5 -0.3125q0 -0.828125 -0.375 -1.421875q-0.375 -0.609375 -1.0 -0.921875q-0.625 -0.3125 -1.40625 -0.3125q-1.09375 0 -1.875 0.71875q-0.78125 0.703125 -0.890625 1.9375l5.546875 0zm4.8731384 -2.3125q0.390625 -0.75 1.09375 -1.15625q0.71875 -0.421875 1.734375 -0.421875l0 1.5l-0.375 0q-2.453125 0 -2.453125 2.65625l0 4.765625l-1.453125 0l0 -8.765625l1.453125 0l0 1.421875zm7.7805176 6.0l2.71875 -7.421875l1.546875 0l-3.4375 8.765625l-1.703125 0l-3.4375 -8.765625l1.578125 0l2.734375 7.421875zm6.460388 -8.84375q-0.421875 0 -0.71875 -0.28125q-0.28125 -0.296875 -0.28125 -0.71875q0 -0.40625 0.28125 -0.6875q0.296875 -0.296875 0.71875 -0.296875q0.40625 0 0.671875 0.296875q0.28125 0.28125 0.28125 0.6875q0 0.421875 -0.28125 0.71875q-0.265625 0.28125 -0.671875 0.28125zm0.703125 1.421875l0 8.765625l-1.453125 0l0 -8.765625l1.453125 0zm5.5922546 8.90625q-1.015625 0 -1.8125 -0.34375q-0.796875 -0.34375 -1.265625 -0.953125q-0.46875 -0.625 -0.515625 -1.421875l1.5 0q0.0625 0.65625 0.609375 1.078125q0.5625 0.40625 1.453125 0.40625q0.84375 0 1.3125 -0.359375q0.484375 -0.375 0.484375 -0.9375q0 -0.5625 -0.515625 -0.84375q-0.5 -0.28125 -1.578125 -0.5625q-0.96875 -0.25 -1.59375 -0.515625q-0.609375 -0.265625 -1.0625 -0.78125q-0.4375 -0.515625 -0.4375 -1.375q0 -0.671875 0.40625 -1.21875q0.40625 -0.5625 1.140625 -0.890625q0.734375 -0.328125 1.671875 -0.328125q1.453125 0 2.34375 0.734375q0.90625 0.734375 0.96875 2.015625l-1.453125 0q-0.046875 -0.6875 -0.5625 -1.109375q-0.5 -0.421875 -1.34375 -0.421875q-0.78125 0 -1.25 0.34375q-0.453125 0.328125 -0.453125 0.875q0 0.4375 0.265625 0.71875q0.28125 0.28125 0.703125 0.453125q0.4375 0.15625 1.1875 0.375q0.9375 0.25 1.53125 0.5q0.59375 0.25 1.015625 0.75q0.421875 0.484375 0.4375 1.28125q0 0.734375 -0.40625 1.3125q-0.390625 0.5625 -1.125 0.890625q-0.71875 0.328125 -1.65625 0.328125zm9.070778 0q-1.234375 0 -2.234375 -0.546875q-1.0 -0.5625 -1.578125 -1.59375q-0.5625 -1.046875 -0.5625 -2.40625q0 -1.34375 0.578125 -2.375q0.59375 -1.03125 1.59375 -1.578125q1.015625 -0.546875 2.265625 -0.546875q1.25 0 2.25 0.546875q1.015625 0.546875 1.59375 1.578125q0.578125 1.015625 0.578125 2.375q0 1.359375 -0.59375 2.40625q-0.59375 1.03125 -1.625 1.59375q-1.03125 0.546875 -2.265625 0.546875zm0 -1.28125q0.78125 0 1.46875 -0.359375q0.6875 -0.375 1.109375 -1.109375q0.421875 -0.734375 0.421875 -1.796875q0 -1.046875 -0.421875 -1.78125q-0.40625 -0.734375 -1.078125 -1.09375q-0.671875 -0.359375 -1.453125 -0.359375q-0.8125 0 -1.484375 0.359375q-0.65625 0.359375 -1.0625 1.09375q-0.390625 0.734375 -0.390625 1.78125q0 1.078125 0.390625 1.8125q0.390625 0.734375 1.046875 1.09375q0.65625 0.359375 1.453125 0.359375zm7.8650208 -6.203125q0.390625 -0.75 1.09375 -1.15625q0.71875 -0.421875 1.734375 -0.421875l0 1.5l-0.375 0q-2.453125 0 -2.453125 2.65625l0 4.765625l-1.453125 0l0 -8.765625l1.453125 0l0 1.421875zm12.521271 10.3125q-1.53125 -1.5 -2.390625 -3.8125q-0.84375 -2.328125 -0.84375 -5.015625q0 -2.75 0.890625 -5.140625q0.90625 -2.390625 2.59375 -3.9375l1.515625 0l0 0.140625q-1.796875 1.671875 -2.703125 4.03125q-0.890625 2.359375 -0.890625 4.90625q0 2.484375 0.84375 4.75q0.859375 2.25 2.515625 3.9375l0 0.140625l-1.53125 0zm4.9827576 -4.15625l3.90625 0l0 1.1875l-5.359375 0l0 -11.15625l1.453125 0l0 9.96875zm6.208893 -9.0q-0.421875 0 -0.71875 -0.28125q-0.28125 -0.296875 -0.28125 -0.71875q0 -0.40625 0.28125 -0.6875q0.296875 -0.296875 0.71875 -0.296875q0.40625 0 0.671875 0.296875q0.28125 0.28125 0.28125 0.6875q0 0.421875 -0.28125 0.71875q-0.265625 0.28125 -0.671875 0.28125zm0.703125 1.421875l0 8.765625l-1.453125 0l0 -8.765625l1.453125 0zm6.7485046 -0.15625q1.609375 0 2.59375 0.96875q1.0 0.96875 1.0 2.78125l0 5.171875l-1.453125 0l0 -4.953125q0 -1.3125 -0.65625 -2.0q-0.640625 -0.703125 -1.78125 -0.703125q-1.15625 0 -1.84375 0.71875q-0.671875 0.71875 -0.671875 2.09375l0 4.84375l-1.453125 0l0 -8.765625l1.453125 0l0 1.25q0.4375 -0.671875 1.171875 -1.03125q0.75 -0.375 1.640625 -0.375zm13.755646 0.15625l0 8.765625l-1.46875 0l0 -1.296875q-0.40625 0.671875 -1.15625 1.046875q-0.75 0.375 -1.640625 0.375q-1.015625 0 -1.84375 -0.421875q-0.8125 -0.421875 -1.28125 -1.265625q-0.46875 -0.859375 -0.46875 -2.0625l0 -5.140625l1.4375 0l0 4.9375q0 1.296875 0.65625 2.0q0.65625 0.6875 1.796875 0.6875q1.15625 0 1.828125 -0.71875q0.671875 -0.71875 0.671875 -2.09375l0 -4.8125l1.46875 0zm7.0368958 8.765625l-2.078125 -3.265625l-2.0 3.265625l-1.53125 0l2.84375 -4.359375l-2.84375 -4.40625l1.65625 0l2.078125 3.25l1.984375 -3.25l1.515625 0l-2.8125 4.328125l2.828125 4.4375l-1.640625 0zm13.404755 0l-4.59375 -5.09375l0 5.09375l-1.453125 0l0 -11.15625l1.453125 0l0 5.171875l4.609375 -5.171875l1.84375 0l-5.0625 5.59375l5.109375 5.5625l-1.90625 0zm11.53714 -4.71875q0 0.421875 -0.046875 0.875l-7.015625 0q0.078125 1.296875 0.890625 2.03125q0.8125 0.71875 1.96875 0.71875q0.9375 0 1.5625 -0.4375q0.640625 -0.4375 0.890625 -1.171875l1.578125 0q-0.359375 1.265625 -1.421875 2.0625q-1.046875 0.78125 -2.609375 0.78125q-1.25 0 -2.234375 -0.546875q-0.984375 -0.5625 -1.546875 -1.59375q-0.5625 -1.046875 -0.5625 -2.40625q0 -1.359375 0.546875 -2.375q0.546875 -1.03125 1.53125 -1.578125q0.984375 -0.546875 2.265625 -0.546875q1.234375 0 2.1875 0.546875q0.96875 0.53125 1.484375 1.484375q0.53125 0.953125 0.53125 2.15625zm-1.5 -0.3125q0 -0.828125 -0.375 -1.421875q-0.375 -0.609375 -1.0 -0.921875q-0.625 -0.3125 -1.40625 -0.3125q-1.09375 0 -1.875 0.71875q-0.78125 0.703125 -0.890625 1.9375l5.546875 0zm4.8731384 -2.3125q0.390625 -0.75 1.09375 -1.15625q0.71875 -0.421875 1.734375 -0.421875l0 1.5l-0.375 0q-2.453125 0 -2.453125 2.65625l0 4.765625l-1.453125 0l0 -8.765625l1.453125 0l0 1.421875zm8.780518 -1.578125q1.609375 0 2.59375 0.96875q1.0 0.96875 1.0 2.78125l0 5.171875l-1.453125 0l0 -4.953125q0 -1.3125 -0.65625 -2.0q-0.640625 -0.703125 -1.78125 -0.703125q-1.15625 0 -1.84375 0.71875q-0.671875 0.71875 -0.671875 2.09375l0 4.84375l-1.453125 0l0 -8.765625l1.453125 0l0 1.25q0.4375 -0.671875 1.171875 -1.03125q0.75 -0.375 1.640625 -0.375zm13.974396 4.203125q0 0.421875 -0.046875 0.875l-7.015625 0q0.078125 1.296875 0.890625 2.03125q0.8125 0.71875 1.96875 0.71875q0.9375 0 1.5625 -0.4375q0.640625 -0.4375 0.890625 -1.171875l1.578125 0q-0.359375 1.265625 -1.421875 2.0625q-1.046875 0.78125 -2.609375 0.78125q-1.25 0 -2.234375 -0.546875q-0.984375 -0.5625 -1.546875 -1.59375q-0.5625 -1.046875 -0.5625 -2.40625q0 -1.359375 0.546875 -2.375q0.546875 -1.03125 1.53125 -1.578125q0.984375 -0.546875 2.265625 -0.546875q1.234375 0 2.1875 0.546875q0.96875 0.53125 1.484375 1.484375q0.53125 0.953125 0.53125 2.15625zm-1.5 -0.3125q0 -0.828125 -0.375 -1.421875q-0.375 -0.609375 -1.0 -0.921875q-0.625 -0.3125 -1.40625 -0.3125q-1.09375 0 -1.875 0.71875q-0.78125 0.703125 -0.890625 1.9375l5.546875 0zm4.8731384 -6.8125l0 11.84375l-1.453125 0l0 -11.84375l1.453125 0zm2.0141296 14.8125l0 -0.140625q1.65625 -1.6875 2.5 -3.9375q0.859375 -2.265625 0.859375 -4.75q0 -2.546875 -0.90625 -4.90625q-0.90625 -2.359375 -2.6875 -4.03125l0 -0.140625l1.515625 0q1.6875 1.546875 2.578125 3.9375q0.90625 2.390625 0.90625 5.140625q0 2.6875 -0.859375 5.015625q-0.84375 2.3125 -2.390625 3.8125l-1.515625 0z" fill-rule="nonzero"/><path fill="#4a86e8" d="m142.75853 181.87665l157.41731 0l0 67.52756l-157.41731 0z" fill-rule="evenodd"/><path fill="#000000" d="m208.94302 223.5098l-2.21875 -2.21875q-0.8125 0.21875 -1.671875 0.21875q-1.546875 0 -2.828125 -0.71875q-1.28125 -0.734375 -2.03125 -2.03125q-0.734375 -1.3125 -0.734375 -2.9375q0 -1.640625 0.734375 -2.9375q0.75 -1.3125 2.03125 -2.03125q1.28125 -0.734375 2.828125 -0.734375q1.578125 0 2.859375 0.734375q1.28125 0.71875 2.015625 2.015625q0.734375 1.296875 0.734375 2.953125q0 1.59375 -0.703125 2.875q-0.703125 1.28125 -1.9375 2.015625l2.8125 2.796875l-1.890625 0zm-8.0 -7.6875q0 1.328125 0.53125 2.34375q0.546875 1.0 1.484375 1.546875q0.9375 0.53125 2.09375 0.53125q1.171875 0 2.109375 -0.53125q0.9375 -0.546875 1.46875 -1.546875q0.546875 -1.015625 0.546875 -2.34375q0 -1.34375 -0.546875 -2.34375q-0.53125 -1.0 -1.46875 -1.546875q-0.921875 -0.546875 -2.109375 -0.546875q-1.171875 0 -2.109375 0.546875q-0.921875 0.546875 -1.46875 1.546875q-0.53125 1.0 -0.53125 2.34375zm13.123657 -4.390625l0 3.734375l4.0625 0l0 1.1875l-4.0625 0l0 3.84375l4.546875 0l0 1.203125l-6.0 0l0 -11.171875l6.0 0l0 1.203125l-4.546875 0zm18.067398 -1.109375l0 11.078125l-1.453125 0l0 -8.25l-3.6875 8.25l-1.015625 0l-3.703125 -8.265625l0 8.265625l-1.453125 0l0 -11.078125l1.5625 0l4.09375 9.15625l4.09375 -9.15625l1.5625 0zm3.8854065 -0.078125l0 7.0625q0 1.484375 0.71875 2.203125q0.734375 0.71875 2.03125 0.71875q1.28125 0 2.0 -0.71875q0.734375 -0.71875 0.734375 -2.203125l0 -7.0625l1.453125 0l0 7.046875q0 1.390625 -0.5625 2.34375q-0.546875 0.953125 -1.5 1.421875q-0.953125 0.453125 -2.140625 0.453125q-1.1875 0 -2.140625 -0.453125q-0.953125 -0.46875 -1.5 -1.421875q-0.546875 -0.953125 -0.546875 -2.34375l0 -7.046875l1.453125 0z" fill-rule="nonzero"/><path fill="#ffffff" d="m142.75853 96.36483l69.70079 0l0 85.51182l-69.70079 0z" fill-rule="evenodd"/><path fill="#000000" d="m171.07 133.72449l-4.21875 11.15625l-1.671875 0l-4.203125 -11.15625l1.546875 0l3.5 9.625l3.5 -9.625l1.546875 0zm12.90979 0.078125l0 11.078125l-1.453125 0l0 -8.25l-3.6875 8.25l-1.015625 0l-3.7031403 -8.265625l0 8.265625l-1.453125 0l0 -11.078125l1.5625 0l4.0937653 9.15625l4.09375 -9.15625l1.5625 0zm6.1105347 0.84375l0 -1.328125l3.0 0l0 11.5625l-1.46875 0l0 -10.234375l-1.53125 0z" fill-rule="nonzero"/><path fill="#ffffff" d="m229.86089 96.36483l69.70079 0l0 85.51182l-69.70079 0z" fill-rule="evenodd"/><path fill="#000000" d="m256.1324 133.72449l-4.2187653 11.15625l-1.671875 0l-4.203125 -11.15625l1.546875 0l3.5 9.625l3.5 -9.625l1.5468903 0zm12.9097595 0.078125l0 11.078125l-1.453125 0l0 -8.25l-3.6875 8.25l-1.015625 0l-3.703125 -8.265625l0 8.265625l-1.453125 0l0 -11.078125l1.5625 0l4.09375 9.15625l4.09375 -9.15625l1.5625 0zm6.3136597 9.90625q2.03125 -1.625 3.1875 -2.671875q1.15625 -1.046875 1.9375 -2.1875q0.796875 -1.15625 0.796875 -2.25q0 -1.046875 -0.5 -1.640625q-0.5 -0.609375 -1.625 -0.609375q-1.09375 0 -1.703125 0.6875q-0.59375 0.671875 -0.640625 1.8125l-1.40625 0q0.0625 -1.796875 1.078125 -2.765625q1.03125 -0.984375 2.65625 -0.984375q1.640625 0 2.609375 0.921875q0.96875 0.90625 0.96875 2.5q0 1.328125 -0.796875 2.59375q-0.78125 1.25 -1.796875 2.203125q-1.0 0.953125 -2.5625 2.21875l5.5 0l0 1.21875l-7.703125 0l0 -1.046875z" fill-rule="nonzero"/><path fill="#a4c2f4" d="m142.75853 18.265093l157.41731 0l0 67.52756l-157.41731 0z" fill-rule="evenodd"/><path fill="#000000" d="m165.8711 46.845123l2.71875 -7.421875l1.546875 0l-3.4375 8.765625l-1.703125 0l-3.4375 -8.765625l1.578125 0l2.734375 7.421875zm6.460388 -8.84375q-0.421875 0 -0.71875 -0.28125q-0.28125 -0.296875 -0.28125 -0.71875q0 -0.40625 0.28125 -0.6875q0.296875 -0.296875 0.71875 -0.296875q0.40625 0 0.671875 0.296875q0.28125 0.28125 0.28125 0.6875q0 0.421875 -0.28125 0.71875q-0.265625 0.28125 -0.671875 0.28125zm0.703125 1.421875l0 8.765625l-1.453125 0l0 -8.765625l1.453125 0zm3.9360046 1.421875q0.390625 -0.75 1.09375 -1.15625q0.71875 -0.421875 1.734375 -0.421875l0 1.5l-0.375 0q-2.453125 0 -2.453125 2.65625l0 4.765625l-1.453125 0l0 -8.765625l1.453125 0l0 1.421875zm7.6242676 7.484375q-1.015625 0 -1.8125 -0.34375q-0.796875 -0.34375 -1.265625 -0.953125q-0.46875 -0.625 -0.515625 -1.421875l1.5 0q0.0625 0.65625 0.609375 1.078125q0.5625 0.40625 1.453125 0.40625q0.84375 0 1.3125 -0.359375q0.484375 -0.375 0.484375 -0.9375q0 -0.5625 -0.515625 -0.84375q-0.5 -0.28125 -1.578125 -0.5625q-0.96875 -0.25 -1.59375 -0.515625q-0.609375 -0.265625 -1.0625 -0.78125q-0.4375 -0.515625 -0.4375 -1.375q0 -0.671875 0.40625 -1.21875q0.40625 -0.5625 1.140625 -0.890625q0.734375 -0.328125 1.671875 -0.328125q1.453125 0 2.34375 0.734375q0.90625 0.734375 0.96875 2.015625l-1.453125 0q-0.046875 -0.6875 -0.5625 -1.109375q-0.5 -0.421875 -1.34375 -0.421875q-0.78125 0 -1.25 0.34375q-0.453125 0.328125 -0.453125 0.875q0 0.4375 0.265625 0.71875q0.28125 0.28125 0.703125 0.453125q0.4375 0.15625 1.1875 0.375q0.9375 0.25 1.53125 0.5q0.59375 0.25 1.015625 0.75q0.421875 0.484375 0.4375 1.28125q0 0.734375 -0.40625 1.3125q-0.390625 0.5625 -1.125 0.890625q-0.71875 0.328125 -1.65625 0.328125zm9.586395 -9.0625q1.0 0 1.796875 0.421875q0.796875 0.421875 1.25 1.265625q0.46875 0.84375 0.46875 2.0625l0 5.171875l-1.453125 0l0 -4.953125q0 -1.3125 -0.65625 -2.0q-0.640625 -0.703125 -1.78125 -0.703125q-1.15625 0 -1.84375 0.71875q-0.671875 0.71875 -0.671875 2.09375l0 4.84375l-1.453125 0l0 -11.84375l1.453125 0l0 4.328125q0.4375 -0.671875 1.1875 -1.03125q0.765625 -0.375 1.703125 -0.375zm7.3962708 6.90625l-1.796875 4.296875l-0.96875 0l1.171875 -4.296875l1.59375 0zm9.205627 0.671875l2.71875 -7.421875l1.546875 0l-3.4375 8.765625l-1.703125 0l-3.4375 -8.765625l1.578125 0l2.734375 7.421875zm6.460388 -8.84375q-0.421875 0 -0.71875 -0.28125q-0.28125 -0.296875 -0.28125 -0.71875q0 -0.40625 0.28125 -0.6875q0.296875 -0.296875 0.71875 -0.296875q0.40625 0 0.671875 0.296875q0.28125 0.28125 0.28125 0.6875q0 0.421875 -0.28125 0.71875q-0.265625 0.28125 -0.671875 0.28125zm0.703125 1.421875l0 8.765625l-1.453125 0l0 -8.765625l1.453125 0zm3.9360046 1.421875q0.390625 -0.75 1.09375 -1.15625q0.71875 -0.421875 1.734375 -0.421875l0 1.5l-0.375 0q-2.453125 0 -2.453125 2.65625l0 4.765625l-1.453125 0l0 -8.765625l1.453125 0l0 1.421875zm6.2961426 -0.21875l0 5.15625q0 0.640625 0.265625 0.90625q0.265625 0.265625 0.9375 0.265625l1.078125 0l0 1.234375l-1.3125 0q-1.21875 0 -1.828125 -0.5625q-0.609375 -0.5625 -0.609375 -1.84375l0 -5.15625l-1.125 0l0 -1.203125l1.125 0l0 -2.203125l1.46875 0l0 2.203125l2.28125 0l0 1.203125l-2.28125 0zm10.12088 1.078125l0 1.234375l-6.375 0l0 -1.234375l6.375 0zm4.51915 -1.078125l0 5.15625q0 0.640625 0.265625 0.90625q0.265625 0.265625 0.9375 0.265625l1.078125 0l0 1.234375l-1.3125 0q-1.21875 0 -1.828125 -0.5625q-0.609375 -0.5625 -0.609375 -1.84375l0 -5.15625l-1.125 0l0 -1.203125l1.125 0l0 -2.203125l1.46875 0l0 2.203125l2.28125 0l0 1.203125l-2.28125 0zm7.87088 7.703125q-1.234375 0 -2.234375 -0.546875q-1.0 -0.5625 -1.578125 -1.59375q-0.5625 -1.046875 -0.5625 -2.40625q0 -1.34375 0.578125 -2.375q0.59375 -1.03125 1.59375 -1.578125q1.015625 -0.546875 2.265625 -0.546875q1.25 0 2.25 0.546875q1.015625 0.546875 1.59375 1.578125q0.578125 1.015625 0.578125 2.375q0 1.359375 -0.59375 2.40625q-0.59375 1.03125 -1.625 1.59375q-1.03125 0.546875 -2.265625 0.546875zm0 -1.28125q0.78125 0 1.46875 -0.359375q0.6875 -0.375 1.109375 -1.109375q0.421875 -0.734375 0.421875 -1.796875q0 -1.046875 -0.421875 -1.78125q-0.40625 -0.734375 -1.078125 -1.09375q-0.671875 -0.359375 -1.453125 -0.359375q-0.8125 0 -1.484375 0.359375q-0.65625 0.359375 -1.0625 1.09375q-0.390625 0.734375 -0.390625 1.78125q0 1.078125 0.390625 1.8125q0.390625 0.734375 1.046875 1.09375q0.65625 0.359375 1.453125 0.359375zm10.2400055 1.28125q-1.234375 0 -2.234375 -0.546875q-1.0 -0.5625 -1.578125 -1.59375q-0.5625 -1.046875 -0.5625 -2.40625q0 -1.34375 0.578125 -2.375q0.59375 -1.03125 1.59375 -1.578125q1.015625 -0.546875 2.265625 -0.546875q1.25 0 2.25 0.546875q1.015625 0.546875 1.59375 1.578125q0.578125 1.015625 0.578125 2.375q0 1.359375 -0.59375 2.40625q-0.59375 1.03125 -1.625 1.59375q-1.03125 0.546875 -2.265625 0.546875zm0 -1.28125q0.78125 0 1.46875 -0.359375q0.6875 -0.375 1.109375 -1.109375q0.421875 -0.734375 0.421875 -1.796875q0 -1.046875 -0.421875 -1.78125q-0.40625 -0.734375 -1.078125 -1.09375q-0.671875 -0.359375 -1.453125 -0.359375q-0.8125 0 -1.484375 0.359375q-0.65625 0.359375 -1.0625 1.09375q-0.390625 0.734375 -0.390625 1.78125q0 1.078125 0.390625 1.8125q0.390625 0.734375 1.046875 1.09375q0.65625 0.359375 1.453125 0.359375zm7.8650208 -10.703125l0 11.84375l-1.453125 0l0 -11.84375l1.453125 0zm5.592285 11.984375q-1.015625 0 -1.8125 -0.34375q-0.796875 -0.34375 -1.265625 -0.953125q-0.46875 -0.625 -0.515625 -1.421875l1.5 0q0.0625 0.65625 0.609375 1.078125q0.5625 0.40625 1.453125 0.40625q0.84375 0 1.3125 -0.359375q0.484375 -0.375 0.484375 -0.9375q0 -0.5625 -0.515625 -0.84375q-0.5 -0.28125 -1.578125 -0.5625q-0.96875 -0.25 -1.59375 -0.515625q-0.609375 -0.265625 -1.0625 -0.78125q-0.4375 -0.515625 -0.4375 -1.375q0 -0.671875 0.40625 -1.21875q0.40625 -0.5625 1.140625 -0.890625q0.734375 -0.328125 1.671875 -0.328125q1.453125 0 2.34375 0.734375q0.90625 0.734375 0.96875 2.015625l-1.453125 0q-0.046875 -0.6875 -0.5625 -1.109375q-0.5 -0.421875 -1.34375 -0.421875q-0.78125 0 -1.25 0.34375q-0.453125 0.328125 -0.453125 0.875q0 0.4375 0.265625 0.71875q0.28125 0.28125 0.703125 0.453125q0.4375 0.15625 1.1875 0.375q0.9375 0.25 1.53125 0.5q0.59375 0.25 1.015625 0.75q0.421875 0.484375 0.4375 1.28125q0 0.734375 -0.40625 1.3125q-0.390625 0.5625 -1.125 0.890625q-0.71875 0.328125 -1.65625 0.328125zm6.7426453 -2.15625l-1.796875 4.296875l-0.96875 0l1.171875 -4.296875l1.59375 0z" fill-rule="nonzero"/><path fill="#000000" d="m171.6791 66.04512l2.71875 -7.421875l1.546875 0l-3.4375 8.765625l-1.703125 0l-3.4375 -8.765625l1.578125 0l2.734375 7.421875zm6.460388 -8.84375q-0.421875 0 -0.71875 -0.28125q-0.28125 -0.296875 -0.28125 -0.71875q0 -0.40625 0.28125 -0.6875q0.296875 -0.296875 0.71875 -0.296875q0.40625 0 0.671875 0.296875q0.28125 0.28125 0.28125 0.6875q0 0.421875 -0.28125 0.71875q-0.265625 0.28125 -0.671875 0.28125zm0.703125 1.421875l0 8.765625l-1.453125 0l0 -8.765625l1.453125 0zm3.9360046 1.421875q0.390625 -0.75 1.09375 -1.15625q0.71875 -0.421875 1.734375 -0.421875l0 1.5l-0.375 0q-2.453125 0 -2.453125 2.65625l0 4.765625l-1.453125 0l0 -8.765625l1.453125 0l0 1.421875zm6.2961426 -0.21875l0 5.15625q0 0.640625 0.265625 0.90625q0.265625 0.265625 0.9375 0.265625l1.078125 0l0 1.234375l-1.3125 0q-1.21875 0 -1.828125 -0.5625q-0.609375 -0.5625 -0.609375 -1.84375l0 -5.15625l-1.125 0l0 -1.203125l1.125 0l0 -2.203125l1.46875 0l0 2.203125l2.28125 0l0 1.203125l-2.28125 0zm10.12088 1.078125l0 1.234375l-6.375 0l0 -1.234375l6.375 0zm13.284775 -2.4375q1.015625 0 1.8125 0.421875q0.8125 0.421875 1.265625 1.265625q0.46875 0.84375 0.46875 2.0625l0 5.171875l-1.4375 0l0 -4.953125q0 -1.3125 -0.65625 -2.0q-0.640625 -0.703125 -1.75 -0.703125q-1.125 0 -1.796875 0.734375q-0.671875 0.71875 -0.671875 2.09375l0 4.828125l-1.453125 0l0 -4.953125q0 -1.3125 -0.65625 -2.0q-0.640625 -0.703125 -1.734375 -0.703125q-1.140625 0 -1.8125 0.734375q-0.671875 0.71875 -0.671875 2.09375l0 4.828125l-1.453125 0l0 -8.765625l1.453125 0l0 1.265625q0.4375 -0.6875 1.15625 -1.046875q0.734375 -0.375 1.609375 -0.375q1.109375 0 1.953125 0.5q0.84375 0.484375 1.265625 1.453125q0.375 -0.9375 1.21875 -1.4375q0.84375 -0.515625 1.890625 -0.515625zm5.3862762 4.5q0 -1.34375 0.546875 -2.359375q0.546875 -1.015625 1.5 -1.5625q0.953125 -0.5625 2.109375 -0.5625q1.15625 0 2.0 0.5q0.859375 0.484375 1.265625 1.234375l0 -1.59375l1.46875 0l0 8.765625l-1.46875 0l0 -1.625q-0.421875 0.765625 -1.28125 1.265625q-0.859375 0.5 -2.0 0.5q-1.171875 0 -2.109375 -0.578125q-0.9375 -0.578125 -1.484375 -1.609375q-0.546875 -1.046875 -0.546875 -2.375zm7.421875 0.015625q0 -0.984375 -0.40625 -1.71875q-0.390625 -0.734375 -1.078125 -1.125q-0.671875 -0.390625 -1.484375 -0.390625q-0.828125 0 -1.5 0.390625q-0.671875 0.375 -1.078125 1.109375q-0.390625 0.734375 -0.390625 1.71875q0 1.015625 0.390625 1.765625q0.40625 0.734375 1.078125 1.125q0.671875 0.390625 1.5 0.390625q0.8125 0 1.484375 -0.390625q0.6875 -0.390625 1.078125 -1.125q0.40625 -0.75 0.40625 -1.75zm8.20665 -4.515625q1.609375 0 2.59375 0.96875q1.0 0.96875 1.0 2.78125l0 5.171875l-1.453125 0l0 -4.953125q0 -1.3125 -0.65625 -2.0q-0.640625 -0.703125 -1.78125 -0.703125q-1.15625 0 -1.84375 0.71875q-0.671875 0.71875 -0.671875 2.09375l0 4.84375l-1.453125 0l0 -8.765625l1.453125 0l0 1.25q0.4375 -0.671875 1.171875 -1.03125q0.75 -0.375 1.640625 -0.375zm5.4275208 4.5q0 -1.34375 0.546875 -2.359375q0.546875 -1.015625 1.5 -1.5625q0.953125 -0.5625 2.109375 -0.5625q1.15625 0 2.0 0.5q0.859375 0.484375 1.265625 1.234375l0 -1.59375l1.46875 0l0 8.765625l-1.46875 0l0 -1.625q-0.421875 0.765625 -1.28125 1.265625q-0.859375 0.5 -2.0 0.5q-1.171875 0 -2.109375 -0.578125q-0.9375 -0.578125 -1.484375 -1.609375q-0.546875 -1.046875 -0.546875 -2.375zm7.421875 0.015625q0 -0.984375 -0.40625 -1.71875q-0.390625 -0.734375 -1.078125 -1.125q-0.671875 -0.390625 -1.484375 -0.390625q-0.828125 0 -1.5 0.390625q-0.671875 0.375 -1.078125 1.109375q-0.390625 0.734375 -0.390625 1.71875q0 1.015625 0.390625 1.765625q0.40625 0.734375 1.078125 1.125q0.671875 0.390625 1.5 0.390625q0.8125 0 1.484375 -0.390625q0.6875 -0.390625 1.078125 -1.125q0.40625 -0.75 0.40625 -1.75zm7.5504 -4.5q1.140625 0 2.0 0.5q0.85935974 0.484375 1.2656097 1.234375l0 -1.59375l1.46875 0l0 8.953125q0 1.203125 -0.515625 2.140625q-0.5 0.9375 -1.453125 1.453125q-0.95310974 0.53125 -2.2187347 0.53125q-1.734375 0 -2.890625 -0.8125q-1.140625 -0.8125 -1.34375 -2.21875l1.4375 0q0.234375 0.796875 0.984375 1.28125q0.765625 0.5 1.8125 0.5q1.203125 0 1.9531097 -0.765625q0.765625 -0.75 0.765625 -2.109375l0 -1.828125q-0.421875 0.765625 -1.2812347 1.28125q-0.84375 0.5 -1.984375 0.5q-1.15625 0 -2.109375 -0.578125q-0.953125 -0.578125 -1.5 -1.609375q-0.546875 -1.046875 -0.546875 -2.375q0 -1.34375 0.546875 -2.359375q0.546875 -1.015625 1.5 -1.5625q0.953125 -0.5625 2.109375 -0.5625zm3.2656097 4.5q0 -0.984375 -0.40625 -1.71875q-0.390625 -0.734375 -1.0781097 -1.125q-0.671875 -0.390625 -1.484375 -0.390625q-0.828125 0 -1.5 0.390625q-0.671875 0.375 -1.078125 1.109375q-0.390625 0.734375 -0.390625 1.71875q0 1.015625 0.390625 1.765625q0.40625 0.734375 1.078125 1.125q0.671875 0.390625 1.5 0.390625q0.8125 0 1.484375 -0.390625q0.68748474 -0.390625 1.0781097 -1.125q0.40625 -0.75 0.40625 -1.75zm11.94104 -0.3125q0 0.421875 -0.046875 0.875l-7.015625 0q0.078125 1.296875 0.890625 2.03125q0.8125 0.71875 1.96875 0.71875q0.9375 0 1.5625 -0.4375q0.640625 -0.4375 0.890625 -1.171875l1.578125 0q-0.359375 1.265625 -1.421875 2.0625q-1.046875 0.78125 -2.609375 0.78125q-1.25 0 -2.234375 -0.546875q-0.984375 -0.5625 -1.546875 -1.59375q-0.5625 -1.046875 -0.5625 -2.40625q0 -1.359375 0.546875 -2.375q0.546875 -1.03125 1.53125 -1.578125q0.984375 -0.546875 2.265625 -0.546875q1.234375 0 2.1875 0.546875q0.96875 0.53125 1.484375 1.484375q0.53125 0.953125 0.53125 2.15625zm-1.5 -0.3125q0 -0.828125 -0.375 -1.421875q-0.375 -0.609375 -1.0 -0.921875q-0.625 -0.3125 -1.40625 -0.3125q-1.09375 0 -1.875 0.71875q-0.78125 0.703125 -0.890625 1.9375l5.546875 0zm4.8731384 -2.3125q0.390625 -0.75 1.09375 -1.15625q0.71875 -0.421875 1.734375 -0.421875l0 1.5l-0.375 0q-2.453125 0 -2.453125 2.65625l0 4.765625l-1.453125 0l0 -8.765625l1.453125 0l0 1.421875z" fill-rule="nonzero"/><path fill="#a4c2f4" d="m16.535433 18.265093l105.826775 0l0 231.14961l-105.826775 0z" fill-rule="evenodd"/><path fill="#000000" d="m48.95228 138.4124l3.90625 0l0 1.1875l-5.359375 0l0 -11.15625l1.453125 0l0 9.96875zm6.208893 -9.0q-0.421875 0 -0.71875 -0.28125q-0.28125 -0.296875 -0.28125 -0.71875q0 -0.40625 0.28125 -0.6875076q0.296875 -0.296875 0.71875 -0.296875q0.40625 0 0.671875 0.296875q0.28125 0.28125763 0.28125 0.6875076q0 0.421875 -0.28125 0.71875q-0.265625 0.28125 -0.671875 0.28125zm0.703125 1.421875l0 8.765625l-1.453125 0l0 -8.765625l1.453125 0zm3.9360046 1.625q0.453125 -0.78125 1.3125 -1.265625q0.859375 -0.5 1.96875 -0.5q1.1875 0 2.125 0.5625q0.953125 0.546875 1.484375 1.5625q0.546875 1.015625 0.546875 2.359375q0 1.328125 -0.546875 2.375q-0.53125 1.03125 -1.484375 1.609375q-0.953125 0.578125 -2.125 0.578125q-1.140625 0 -2.0 -0.484375q-0.84375 -0.5 -1.28125 -1.265625l0 1.609375l-1.453125 0l0 -11.843758l1.453125 0l0 4.7031326zm5.953125 2.71875q0 -0.984375 -0.40625 -1.71875q-0.390625 -0.734375 -1.078125 -1.109375q-0.671875 -0.390625 -1.5 -0.390625q-0.796875 0 -1.484375 0.390625q-0.671875 0.390625 -1.078125 1.140625q-0.40625 0.734375 -0.40625 1.703125q0 1.0 0.40625 1.75q0.40625 0.734375 1.078125 1.125q0.6875 0.390625 1.484375 0.390625q0.828125 0 1.5 -0.390625q0.6875 -0.390625 1.078125 -1.125q0.40625 -0.75 0.40625 -1.765625zm6.6754 3.078125l2.71875 -7.421875l1.546875 0l-3.4375 8.765625l-1.703125 0l-3.4375 -8.765625l1.578125 0l2.734375 7.421875zm6.460388 -8.84375q-0.421875 0 -0.71875 -0.28125q-0.28125 -0.296875 -0.28125 -0.71875q0 -0.40625 0.28125 -0.6875076q0.296875 -0.296875 0.71875 -0.296875q0.40625 0 0.671875 0.296875q0.28125 0.28125763 0.28125 0.6875076q0 0.421875 -0.28125 0.71875q-0.265625 0.28125 -0.671875 0.28125zm0.703125 1.421875l0 8.765625l-1.453125 0l0 -8.765625l1.453125 0zm3.935997 1.421875q0.390625 -0.75 1.09375 -1.15625q0.71875 -0.421875 1.734375 -0.421875l0 1.5l-0.375 0q-2.453125 0 -2.453125 2.65625l0 4.765625l-1.453125 0l0 -8.765625l1.453125 0l0 1.421875zm6.2961426 -0.21875l0 5.15625q0 0.640625 0.265625 0.90625q0.265625 0.265625 0.9375 0.265625l1.078125 0l0 1.234375l-1.3125 0q-1.21875 0 -1.828125 -0.5625q-0.609375 -0.5625 -0.609375 -1.84375l0 -5.15625l-1.125 0l0 -1.203125l1.125 0l0 -2.203125l1.46875 0l0 2.203125l2.28125 0l0 1.203125l-2.28125 0z" fill-rule="nonzero"/><path fill="#a4c2f4" d="m167.26247 101.82728l5.582672 0l0 -24.771652l11.1653595 0l0 24.771652l5.582672 0l-11.165344 11.1653595z" fill-rule="evenodd"/><path fill="#a4c2f4" d="m253.32072 101.82728l5.5826874 0l0 -24.771652l11.165344 0l0 24.771652l5.582672 0l-11.165344 11.1653595z" fill-rule="evenodd"/><path fill="#4a86e8" d="m241.43723 265.9438l5.582672 0l0 -24.771652l11.165344 0l0 24.771652l5.5827026 0l-11.1653595 11.165344z" fill-rule="evenodd"/><path fill="#d63384" d="m291.65143 244.10448l-5.582672 0l0 24.771652l-11.165344 0l0 -24.771652l-5.5827026 0l11.165375 -11.1653595z" fill-rule="evenodd"/><path fill="#4a86e8" d="m263.76794 176.22098l-5.5827026 0l0 24.771652l-11.165344 0l0 -24.771652l-5.582672 0l11.1653595 -11.165344z" fill-rule="evenodd"/><path fill="#4a86e8" d="m171.65143 175.98798l-5.582672 0l0 24.771652l-11.1653595 0l0 -24.771652l-5.582672 0l11.165344 -11.1653595z" fill-rule="evenodd"/><path fill="#ffffff" d="m269.3207 187.88553l5.5827026 0l0 -24.771652l11.165344 0l0 24.771652l5.582672 0l-11.165344 11.1653595z" fill-rule="evenodd"/><path fill="#ffffff" d="m182.05858 187.88553l5.5826874 0l0 -24.771652l11.165344 0l0 24.771652l5.5826874 0l-11.1653595 11.1653595z" fill-rule="evenodd"/><path fill="#a4c2f4" d="m129.0491 229.83253l0 -5.5826874l-24.771652 0l0 -11.165344l24.771652 0l0 -5.5826874l11.1653595 11.1653595z" fill-rule="evenodd"/><path fill="#a4c2f4" d="m129.0491 62.803406l0 -5.5826797l-24.771652 0l0 -11.165352l24.771652 0l0 -5.5826797l11.1653595 11.165356z" fill-rule="evenodd"/></g></svg>
