<svg version="1.1" viewBox="0.0 0.0 710.0 290.0" fill="none" stroke="none" stroke-linecap="square" stroke-miterlimit="10" xmlns:xlink="http://www.w3.org/1999/xlink" xmlns="http://www.w3.org/2000/svg"><clipPath id="g2fd2783a012_0_380.0"><path d="m0 0l960.0 0l0 540.0l-960.0 0l0 -540.0z" clip-rule="nonzero"/></clipPath><g clip-path="url(#g2fd2783a012_0_380.0)"><path fill="#000000" fill-opacity="0.0" d="m0 0l960.0 0l0 540.0l-960.0 0z" fill-rule="evenodd"/><path fill="#000000" fill-opacity="0.0" d="m61.7979 150.81364l356.0315 0l0 108.000015l-356.0315 0z" fill-rule="evenodd"/><path stroke="#92c6ab" stroke-width="2.0" stroke-linejoin="round" stroke-linecap="butt" stroke-dasharray="2.0,6.0" d="m61.7979 150.81364l356.0315 0l0 108.000015l-356.0315 0z" fill-rule="evenodd"/><path fill="#99e0bb" d="m61.836426 38.46332l0 0c0.022159576 0.044200897 0.035053253 0.060676575 0.038272858 0.060676575c0.004837036 0 -0.008056641 -0.030540466 -0.038272858 -0.060676575zm-15.044209 -11.174692c0.9995651 0.052238464 1.7884178 0.10487938 2.682827 0.26199722c0.7364769 0.1575203 1.5253296 0.36727905 2.2618065 0.6296787c0.15793228 0.052640915 0.3154602 0.10487938 0.4733925 0.1575203c0 0 0.105155945 0.052238464 0.15793228 0.10487938l0.10515213 0c0.36824036 0.1575203 0.7364807 0.36727905 1.0519409 0.52479935c0.63132477 0.31463814 1.2622452 0.73415756 1.8411942 1.1540775c0.15752792 0.10487938 0.26268005 0.20975876 0.42061234 0.31463814l0.05278015 0c0 0 0 0 0 0.052640915c0.10515213 0.052238464 0.15752792 0.10487938 0.21030426 0.1575203c0.26308823 0.20975876 0.57854843 0.41951752 0.84163284 0.6819172c0.5261688 0.5243969 1.0519371 1.0491962 1.5253296 1.626234c0.26308823 0.26240158 0.4733925 0.52479935 0.68370056 0.7872009c0.05278015 0.052238464 0.05278015 0.052238464 0.05278015 0.052238464c0.052776337 0.10488129 0.10515213 0.1575203 0.15792847 0.20975876c0.105155945 0.1575203 0.26308823 0.36727905 0.36824036 0.52479935c0.84163284 1.2067184 1.5777054 2.5183144 2.1566544 3.882553c0.052375793 0.10487747 0.052375793 0.15711594 0.10515213 0.20975876c0.052375793 0.20975876 0.15753174 0.41951752 0.21030807 0.6292763c0.15793228 0.41992188 0.3154602 0.8394394 0.4733925 1.2593575c0.2630844 0.89167786 0.4733925 1.7311172 0.68370056 2.6231956c0.052776337 0.41951752 0.15793228 0.8920784 0.21070862 1.3115959c0.052375793 0.20975876 0.105155945 0.41951752 0.105155945 0.5770378c0.052375793 0.3150406 0.052375793 0.41992188 0.10515213 0.62968063c0.10515213 0.89167404 0.15752792 1.7837563 0.21030807 2.6758347c0.10515213 1.8359947 0.052776337 3.67239 -0.05278015 5.5083847c-0.052375793 0.8920784 -0.10515213 1.8363953 -0.21030426 2.7284737c0 0.41951752 -0.052375793 0.89167786 -0.105155945 1.3115959c-0.052375793 0.47216034 -0.10515213 0.8394394 -0.15793228 1.1540794c-0.5257683 3.4626312 -1.3673973 6.767742 -3.1034393 9.705975c-0.36823654 0.5770416 -0.7888527 1.2067184 -1.2098694 1.7837601c0 0 -0.15752792 0.20975494 -0.21030807 0.20975494c-0.10515213 0.15752411 -0.21030426 0.31463623 -0.3154602 0.41951752c-0.21030807 0.26239777 -0.4733925 0.57743835 -0.68370056 0.8394394c-0.9471855 1.0495987 -2.0514984 2.0461578 -3.1562157 2.9382324c-0.05278015 0 -0.05278015 0.052238464 -0.10515213 0.052238464c-0.05278015 0.052642822 -0.15793228 0.15752411 -0.15793228 0.15752411c-0.15793228 0.052642822 -0.26308823 0.15751648 -0.42061615 0.26239777c-0.2630844 0.20976257 -0.578949 0.41951752 -0.8944092 0.6296768c-0.63132477 0.41951752 -1.2622452 0.8394394 -1.9463463 1.2063217c-0.6309242 0.36727905 -1.2622452 0.68231964 -1.9459457 0.9969559c-0.2630844 0.15751648 -0.578949 0.3150406 -0.8944092 0.47216034c-0.21030807 0.052635193 -0.36824036 0.15751648 -0.52617264 0.20975494c-0.05237198 0.052642822 -0.15752792 0.105285645 -0.21030426 0.105285645c0 0 -0.105155945 0.052238464 -0.21030807 0.10487366c-2.7352028 1.1014404 -5.575554 1.993515 -8.521465 2.5705566c-0.7364769 0.10488129 -1.4201775 0.26239777 -2.1566544 0.36727905c-0.15793228 0 -0.3154602 0.052642822 -0.4733925 0.052642822l-0.105155945 0c-0.10515213 0.052238464 -0.15793228 0.052238464 -0.2630844 0.052238464c-0.36824036 0.052635193 -0.7364769 0.10487366 -1.157093 0.15751648c-1.2026176 0.08559418 -2.4402847 0.17118073 -3.655796 0.17118073c-0.27315712 0 -0.5451069 -0.0040130615 -0.81544304 -0.013656616c-0.7888546 0 -1.5253315 -0.052642822 -2.3145866 -0.105285645c-0.3154621 -0.052238464 -0.68370056 -0.052238464 -0.99916077 -0.10488129c-0.052778244 0 -0.10515404 0 -0.15793228 -0.052238464l-0.21030617 0c-0.15793228 -0.052635193 -0.36824036 -0.052635193 -0.5785465 -0.10487366c-1.4729557 -0.21016693 -2.8931332 -0.577446 -4.260935 -1.0495987c-0.3154602 -0.10488129 -0.6309204 -0.26200104 -0.946785 -0.36727905c-0.052373886 0 -0.15752792 -0.052238464 -0.15752792 -0.052238464c-0.052778244 -0.052642822 -0.10555649 -0.052642822 -0.15793228 -0.052642822c-0.15793228 -0.10488129 -0.36823845 -0.20976257 -0.52617073 -0.26200104c-0.6309204 -0.3150406 -1.2622452 -0.68231964 -1.89357 -1.0495987c-0.2630844 -0.15711975 -0.5785446 -0.36727905 -0.84163094 -0.577034c-0.15793228 -0.10488129 -0.2630844 -0.15711975 -0.42061424 -0.2624054c0 -0.052238464 0 -0.052238464 -0.052778244 -0.052238464c-0.10515213 -0.10487366 -0.21030617 -0.15751648 -0.2630844 -0.20975494c-0.5785465 -0.47216034 -1.1047173 -0.9969635 -1.6304846 -1.521759c-0.5785456 -0.6292801 -0.9995632 -1.1540756 -1.4729557 -1.7837524c-0.4733925 -0.6819229 -0.8940067 -1.416481 -1.3150234 -2.0983963c-0.7888527 -1.5213547 -1.3150234 -2.780716 -1.89357 -4.406952c-2.3669615 -6.820381 -3.4189 -14.217804 -1.5781088 -21.14307c0.21030712 -0.7871971 0.42101765 -1.5217552 0.6836996 -2.2559128c0.15793228 -0.3150406 0.26308537 -0.62968063 0.3682394 -0.94431686c0.052778244 -0.052642822 0.15793133 -0.3150406 0.15793133 -0.3150406c0.10515404 -0.20975876 0.21030712 -0.41951752 0.26308537 -0.62968063c0.6313238 -1.3115959 1.4201775 -2.5705528 2.2618084 -3.7246284c0.105153084 -0.1575203 0.21030712 -0.3150406 0.3154602 -0.41992188c0 0 0 -0.052238464 0 -0.052238464c0.10515404 -0.052639008 0.15793228 -0.1575203 0.21071053 -0.2101593c0.21030712 -0.31464005 0.4733925 -0.5770378 0.6836996 -0.8394394c0.4733925 -0.524395 0.9991598 -1.0491943 1.5253305 -1.5213547c0.26308537 -0.26240158 0.52617073 -0.52479935 0.84163094 -0.7345581c0.10515404 -0.10488129 0.26308632 -0.20975876 0.4210167 -0.31464005c0 0 0 0 0 -0.052639008c0.10515404 -0.052238464 0.21030807 -0.10488129 0.26268387 -0.20975876c0.63132286 -0.41951752 1.2098694 -0.78679657 1.8939724 -1.1540794c0.5785446 -0.31503677 1.1570911 -0.6296768 1.7356377 -0.8920784c0.052778244 0 0.3154602 -0.10487747 0.36823845 -0.15711594c0.15793228 -0.052642822 0.3154602 -0.10528183 0.4733925 -0.1575203c0.36823845 -0.10488129 0.68369865 -0.20975876 1.0519371 -0.3150406c0.4210186 -0.15711975 0.78925705 -0.47216034 0.8944111 -0.89167786c0.68369865 -0.26239967 1.3150234 -0.52479935 1.9987221 -0.7345581c1.4729557 -0.47215843 2.9982853 -0.89167786 4.523617 -1.2589569c1.5781097 -0.36727905 3.1562195 -0.6296787 4.681549 -0.8920784c0.78925705 -0.1575203 1.5781097 -0.26239967 2.3669624 -0.36727905c0.841629 -0.10487938 1.2098694 -0.1575203 2.1042786 -0.26239967c1.7884178 -0.26199722 3.5240555 -0.47215843 5.312874 -0.5770378c0.946785 -0.052238464 1.89357 -0.052238464 2.7875748 -0.052238464zm-0.9278488 -2.617569c-0.5306015 0 -1.063221 0.016073227 -1.5970459 0.046613693c-3.5240517 0.20975876 -7.1008835 0.6819172 -10.572563 1.2593575c-6.417589 1.0491962 -12.939928 2.7803116 -18.357956 6.5053444c-1.3150234 0.8920784 -2.577672 1.9412766 -3.734764 3.0431137c-0.26308537 0.26199722 -0.36823845 0.6292763 -0.36823845 0.9965553c-1.3673992 1.6266365 -2.5248938 3.4103928 -3.4189005 5.2990265c-3.2613716 6.820385 -3.3141499 14.689968 -1.6832623 21.98251c0.84163094 3.515274 1.9463477 7.0827866 3.6819854 10.283012c1.6304846 2.9378357 3.8926954 5.508789 6.7330503 7.3447876c4.2250767 2.711998 9.315153 3.698906 14.317802 3.698906c1.2876263 0 2.5696163 -0.06549835 3.829443 -0.18363953c6.259659 -0.6296768 12.519314 -2.360794 17.989716 -5.5087814c2.6300468 -1.5213547 5.1021614 -3.409996 7.1536636 -5.7185516c2.2094345 -2.4656677 3.8926964 -5.403908 4.891857 -8.604134c1.1574936 -3.6201553 1.5781097 -7.502304 1.7888184 -11.279976c0.26268005 -3.8299103 0.105155945 -7.712063 -0.7364807 -11.48933c-1.3677979 -6.3482285 -5.0497856 -12.538933 -10.941204 -15.6346855c-2.7883797 -1.4799671 -5.8462944 -2.0401287 -8.975922 -2.0401287z" fill-rule="evenodd"/><path fill="#99e0bb" d="m53.420113 53.782967c-0.7364769 0.052238464 -1.3150215 0.5770378 -1.3150215 1.3115959c0 1.678875 -0.15793228 3.0427132 -0.57854843 4.616707c-0.36823654 1.46912 -0.8944092 2.6758347 -1.8411942 3.9347916c0 0.052639008 0 0.052639008 0 0.052639008c-0.05237198 0.05224228 -0.10515213 0.10488129 -0.15792847 0.15711975c-0.105155945 0.15752411 -0.21030807 0.26239777 -0.31546402 0.41992188c-0.2630844 0.26239777 -0.5261688 0.52479553 -0.7888527 0.78679657c-0.10515213 0.105278015 -0.2630844 0.15751648 -0.36823654 0.26239777c0 0 -0.21071243 0.20976257 -0.2630844 0.20976257c-0.31546402 0.2101593 -0.57854843 0.36727905 -0.894413 0.52479553c-0.15752792 0.10488129 -0.3154602 0.15752411 -0.4733925 0.26239777c0 0 -0.05237198 0 -0.10515213 0.052246094c-0.052375793 0 -0.10515213 0 -0.10515213 0.052635193c-0.36824036 0.10488129 -0.7364769 0.20976257 -1.0519409 0.2624054c-0.4733925 0.10487366 -0.63132095 0.15711212 -1.0519371 0.15711212c-0.4733925 0.052642822 -0.8944092 0.052642822 -1.3678017 0.052642822c-1.6832619 0 -3.3665237 -0.052642822 -5.0497856 -0.15751648c-0.84163284 -0.052238464 -1.6832657 -0.15711975 -2.5248947 -0.26200104c-0.42061615 -0.052642822 -0.5785446 -0.052642822 -0.99916077 -0.105278015c-0.4733925 -0.10488129 -0.8944092 -0.15711975 -1.3678017 -0.26200104c-1.5781097 -0.3150406 -3.1562176 -0.7345581 -4.628771 -1.3642349c-0.052778244 0 -0.2630844 -0.10488129 -0.31586266 -0.10488129c-0.10515404 -0.10488129 -0.26268196 -0.15752411 -0.42061424 -0.20976257c-0.3154602 -0.15751648 -0.68370056 -0.3150406 -0.9995632 -0.52479553c-0.5785465 -0.31464005 -1.1570911 -0.6819191 -1.6832619 -1.0491982c-0.15752983 -0.10488129 -0.3154621 -0.20975876 -0.4733925 -0.3150406c0 -0.052238464 0 -0.052238464 0 -0.052238464c-0.10515404 -0.10488129 -0.21030807 -0.1575203 -0.3154621 -0.26240158c-0.3154602 -0.20975876 -0.5785446 -0.47215652 -0.84163094 -0.7345581c-0.3154602 -0.26239777 -0.5785446 -0.5770378 -0.84163094 -0.8394356c-0.10515404 -0.15711975 -0.21030617 -0.26240158 -0.36823845 -0.41952133c0 0 -0.15793228 -0.26239777 -0.21030807 -0.26239777c-0.4733925 -0.62968063 -0.84163094 -1.2589569 -1.2098694 -1.8886375c-0.052778244 -0.20975876 -0.15793228 -0.36727905 -0.21030617 -0.52479935c0 0 -0.052778244 -0.052238464 -0.052778244 -0.10487747c0 -0.052238464 -0.052778244 -0.1575203 -0.10515404 -0.1575203c-0.10515404 -0.41951752 -0.26308632 -0.78679657 -0.36823845 -1.1540756c-0.13214684 -0.57061005 -0.7062626 -0.9945488 -1.2908516 -0.9945488c-0.11401558 0 -0.22843552 0.016075134 -0.33963394 0.05022812c-0.63132286 0.20976257 -1.1047153 0.9443207 -0.8944092 1.626236c1.7884159 6.243347 7.7326126 10.1259 13.781561 11.594612c3.5768337 0.8394394 7.2588177 1.049202 10.941206 1.1018372c0.25543213 0.007637024 0.51086044 0.011657715 0.7658882 0.011657715c1.5301666 0 3.0438118 -0.15390778 4.441429 -0.693573c1.5253296 -0.6296768 2.8931313 -1.5739975 3.9978485 -2.8333511c2.6300468 -2.9900742 3.5240517 -6.9775047 3.5768318 -10.912296c0 -0.6819191 -0.63132477 -1.3115959 -1.3150253 -1.3115959z" fill-rule="evenodd"/><path fill="#99e0bb" d="m29.227144 42.285194c-0.29048157 0 -0.609972 0.18766022 -0.8452568 0.37531662c-0.052778244 0.052642822 -0.10515404 0.1575203 -0.15793228 0.26240158c-0.10515404 0 -0.21030807 0.052238464 -0.3154602 0.10487747c-0.4733925 0.31464005 -0.84163094 0.6819191 -0.9995632 1.2067184c-0.10515404 0.47215652 -0.052375793 0.9965553 0.2630844 1.4687157c0.21030807 0.3150406 0.4733925 0.57743835 0.84163094 0.7871971c0.15793228 0.10488129 0.36824036 0.20975876 0.5785465 0.26240158c0.10515404 0.052238464 0.15793228 0.10487747 0.26308632 0.10487747c0.21030617 0.052238464 0.4210167 0.052238464 0.63132286 0.052238464c0.15752983 0 0.3154621 0 0.4733925 -0.052238464c0.052375793 0 0.10515404 0 0.15752983 -0.052639008c0.15793228 -0.052238464 0.36823845 -0.10488129 0.52617073 -0.26240158c0.15793037 -0.10487747 0.2630844 -0.15711594 0.36823845 -0.26199722c0.10515404 -0.10487747 0.21030617 -0.26239777 0.3154602 -0.36727905c0.21071053 -0.3150406 0.31586456 -0.7345581 0.31586456 -1.1544762c0 -0.15711975 0 -0.41952133 -0.052778244 -0.5770416c0 -0.10487747 -0.052375793 -0.20975876 -0.10515404 -0.26239777c-0.052375793 -0.20975876 -0.10515404 -0.41951752 -0.26308632 -0.5770378c-0.10515213 -0.15711975 -0.21030617 -0.36727905 -0.42061424 -0.47216034c-0.2630844 -0.26239777 -0.4733925 -0.36727905 -0.78925514 -0.47215652c-0.21030617 -0.10488129 -0.4733925 -0.10488129 -0.68369865 -0.10488129c-0.033439636 -0.0056266785 -0.06728363 -0.008037567 -0.10152817 -0.008037567z" fill-rule="evenodd"/><path fill="#99e0bb" d="m43.583626 42.97515c-0.15793228 0 -0.3154602 0 -0.4733925 0.052639008l-0.15793228 0c-0.15752792 0.10488129 -0.3154602 0.1575203 -0.42061615 0.20975876c-0.15793228 0.10488129 -0.2630844 0.20975876 -0.4210167 0.31464005c-0.052375793 0.052639008 -0.10515213 0.10528183 -0.15752792 0.1575203c-0.10515213 0.1575203 -0.21070862 0.3150406 -0.31586456 0.52479935c0 0.052238464 -0.052375793 0.10487747 -0.052375793 0.10487747c-0.15792847 0.20976257 -0.21070862 0.41952133 -0.21070862 0.6819191c0 0 0 0.052642822 0 0.10488129c0 0.10487747 0.05278015 0.26239777 0.05278015 0.41991806c0 0 0.052776337 0.052238464 0.052776337 0.052238464c0.052375793 0.10488129 0.052375793 0.26240158 0.15752792 0.36727905c0.05278015 0.10488129 0.15793228 0.21016312 0.21071243 0.3150406c0.05237198 0.052238464 0.05237198 0.052238464 0.10515213 0.052238464c0.10515213 0.10488129 0.21030807 0.26240158 0.36824036 0.3150406c0.15752792 0.052238464 0.3154602 0.15711975 0.4733925 0.20975876c0.15752792 0 0.36823654 0.052238464 0.52576447 0.052238464l0.21030807 0c0.15793228 0 0.36824036 -0.052238464 0.52617264 -0.052238464c0.052776337 -0.052639008 0.15792847 -0.052639008 0.21030426 -0.052639008c0.15793228 -0.10488129 0.31586456 -0.15711975 0.4733925 -0.20975876c0.05278015 -0.052642822 0.15793228 -0.10488129 0.21071243 -0.1575203c0.052375793 -0.052238464 0.10515213 -0.10488129 0.21030426 -0.15711975c0 -0.052639008 0 -0.052639008 0.052375793 -0.10487747c0.05278015 -0.10528183 0.15793228 -0.21016312 0.21071243 -0.3150406c0.10515213 -0.1575203 0.21030426 -0.31464005 0.21030426 -0.5243988c0.052375793 -0.10528183 0.052375793 -0.3150406 0.052375793 -0.47256088c0 -0.10487747 0 -0.26199722 -0.052375793 -0.3668785c0 0 0 -0.052639008 0 -0.052639008c-0.052776337 -0.1575203 -0.10515213 -0.26240158 -0.15792847 -0.36727905c0 0 0 -0.052238464 -0.052375793 -0.052238464c-0.05278015 -0.10528183 -0.105155945 -0.21016312 -0.21071243 -0.3150406c0 0 -0.052375793 -0.052238464 -0.052375793 -0.052238464c-0.10515213 -0.10528183 -0.21030426 -0.21016312 -0.36823654 -0.26240158c0 -0.052639008 -0.05278015 -0.052639008 -0.105155945 -0.10487747c-0.21030426 -0.10488129 -0.4210167 -0.21016312 -0.63132095 -0.26240158l-0.052375793 0c-0.15793228 -0.052639008 -0.31586456 -0.052639008 -0.4210167 -0.052639008z" fill-rule="evenodd"/><path fill="#99e0bb" d="m77.50131 163.07086l159.65355 0l0 82.92914l-159.65355 0z" fill-rule="evenodd"/><path fill="#000000" d="m101.776306 197.07356q0 -1.28125 0.578125 -2.3125q0.578125 -1.03125 1.578125 -1.609375q1.015625 -0.59375 2.25 -0.59375q1.4375 0 2.515625 0.703125q1.078125 0.6875 1.5625 1.96875l-1.375 0q-0.359375 -0.796875 -1.0625 -1.21875q-0.6875 -0.4375 -1.640625 -0.4375q-0.921875 0 -1.65625 0.4375q-0.734375 0.421875 -1.15625 1.21875q-0.421875 0.78125 -0.421875 1.84375q0 1.0625 0.421875 1.859375q0.421875 0.78125 1.15625 1.21875q0.734375 0.421875 1.65625 0.421875q0.953125 0 1.640625 -0.421875q0.703125 -0.421875 1.0625 -1.21875l1.375 0q-0.484375 1.265625 -1.5625 1.953125q-1.078125 0.6875 -2.515625 0.6875q-1.234375 0 -2.25 -0.578125q-1.0 -0.578125 -1.578125 -1.59375q-0.578125 -1.03125 -0.578125 -2.328125zm16.348724 -2.515625l0 6.9375l-1.15625 0l0 -1.03125q-0.328125 0.53125 -0.921875 0.828125q-0.578125 0.296875 -1.28125 0.296875q-0.8125 0 -1.46875 -0.328125q-0.640625 -0.328125 -1.015625 -1.0q-0.375 -0.671875 -0.375 -1.640625l0 -4.0625l1.140625 0l0 3.90625q0 1.03125 0.515625 1.578125q0.53125 0.546875 1.421875 0.546875q0.921875 0 1.453125 -0.5625q0.53125 -0.5625 0.53125 -1.65625l0 -3.8125l1.15625 0zm4.4124756 7.046875q-0.8125 0 -1.453125 -0.265625q-0.625 -0.28125 -1.0 -0.765625q-0.359375 -0.484375 -0.390625 -1.109375l1.1875 0q0.046875 0.515625 0.484375 0.84375q0.4375 0.328125 1.15625 0.328125q0.65625 0 1.03125 -0.28125q0.375 -0.296875 0.375 -0.75q0 -0.453125 -0.40625 -0.671875q-0.390625 -0.21875 -1.25 -0.4375q-0.765625 -0.203125 -1.25 -0.40625q-0.484375 -0.21875 -0.84375 -0.625q-0.34375 -0.40625 -0.34375 -1.078125q0 -0.53125 0.3125 -0.96875q0.3125 -0.453125 0.890625 -0.703125q0.59375 -0.265625 1.34375 -0.265625q1.140625 0 1.84375 0.578125q0.71875 0.578125 0.765625 1.59375l-1.140625 0q-0.046875 -0.546875 -0.453125 -0.875q-0.390625 -0.328125 -1.0625 -0.328125q-0.609375 0 -0.984375 0.265625q-0.359375 0.265625 -0.359375 0.703125q0 0.34375 0.21875 0.5625q0.21875 0.21875 0.546875 0.359375q0.34375 0.125 0.9375 0.296875q0.75 0.1875 1.21875 0.390625q0.46875 0.203125 0.796875 0.59375q0.34375 0.390625 0.359375 1.015625q0 0.578125 -0.328125 1.03125q-0.3125 0.453125 -0.890625 0.71875q-0.578125 0.25 -1.3125 0.25zm5.544037 -6.09375l0 4.09375q0 0.5 0.21875 0.71875q0.21875 0.203125 0.75 0.203125l0.84375 0l0 0.96875l-1.03125 0q-0.96875 0 -1.453125 -0.4375q-0.46875 -0.453125 -0.46875 -1.453125l0 -4.09375l-0.90625 0l0 -0.953125l0.90625 0l0 -1.75l1.140625 0l0 1.75l1.8125 0l0 0.953125l-1.8125 0zm6.2318573 6.09375q-0.96875 0 -1.765625 -0.4375q-0.796875 -0.4375 -1.25 -1.25q-0.4375 -0.828125 -0.4375 -1.90625q0 -1.0625 0.453125 -1.875q0.46875 -0.8125 1.265625 -1.25q0.796875 -0.4375 1.78125 -0.4375q0.984375 0 1.78125 0.4375q0.796875 0.4375 1.265625 1.25q0.46875 0.796875 0.46875 1.875q0 1.078125 -0.484375 1.90625q-0.46875 0.8125 -1.28125 1.25q-0.8125 0.4375 -1.796875 0.4375zm0 -1.015625q0.625 0 1.15625 -0.28125q0.546875 -0.296875 0.875 -0.875q0.34375 -0.578125 0.34375 -1.421875q0 -0.828125 -0.328125 -1.40625q-0.328125 -0.59375 -0.859375 -0.875q-0.53125 -0.28125 -1.15625 -0.28125q-0.625 0 -1.15625 0.28125q-0.515625 0.28125 -0.84375 0.875q-0.3125 0.578125 -0.3125 1.40625q0 0.859375 0.3125 1.4375q0.3125 0.578125 0.828125 0.859375q0.515625 0.28125 1.140625 0.28125zm13.412476 -6.15625q0.8125 0 1.4375 0.34375q0.640625 0.328125 1.0 1.0q0.375 0.671875 0.375 1.625l0 4.09375l-1.140625 0l0 -3.921875q0 -1.046875 -0.515625 -1.59375q-0.515625 -0.546875 -1.375 -0.546875q-0.90625 0 -1.4375 0.578125q-0.53125 0.578125 -0.53125 1.65625l0 3.828125l-1.140625 0l0 -3.921875q0 -1.046875 -0.515625 -1.59375q-0.5 -0.546875 -1.375 -0.546875q-0.90625 0 -1.4375 0.578125q-0.53125 0.578125 -0.53125 1.65625l0 3.828125l-1.15625 0l0 -6.9375l1.15625 0l0 1.0q0.34375 -0.546875 0.921875 -0.828125q0.578125 -0.296875 1.265625 -0.296875q0.875 0 1.546875 0.390625q0.671875 0.390625 1.0 1.15625q0.296875 -0.734375 0.96875 -1.140625q0.671875 -0.40625 1.484375 -0.40625zm12.727615 7.0625l-2.109375 -3.609375l-1.390625 0l0 3.609375l-1.15625 0l0 -8.828125l2.859375 0q1.0 0 1.6875 0.34375q0.6875 0.34375 1.03125 0.9375q0.34375 0.578125 0.34375 1.3125q0 0.921875 -0.53125 1.625q-0.53125 0.6875 -1.578125 0.90625l2.21875 3.703125l-1.375 0zm-3.5 -4.53125l1.703125 0q0.9375 0 1.390625 -0.453125q0.46875 -0.46875 0.46875 -1.25q0 -0.78125 -0.46875 -1.203125q-0.453125 -0.4375 -1.390625 -0.4375l-1.703125 0l0 3.34375zm12.866852 0.796875q0 0.328125 -0.03125 0.703125l-5.546875 0q0.0625 1.015625 0.703125 1.59375q0.640625 0.578125 1.546875 0.578125q0.75 0 1.25 -0.34375q0.5 -0.359375 0.703125 -0.9375l1.234375 0q-0.265625 1.0 -1.109375 1.625q-0.828125 0.625 -2.078125 0.625q-0.984375 0 -1.765625 -0.4375q-0.765625 -0.4375 -1.21875 -1.25q-0.4375 -0.828125 -0.4375 -1.90625q0 -1.078125 0.421875 -1.875q0.4375 -0.8125 1.21875 -1.25q0.78125 -0.4375 1.78125 -0.4375q1.0 0 1.75 0.4375q0.765625 0.421875 1.171875 1.171875q0.40625 0.75 0.40625 1.703125zm-1.1875 -0.234375q0 -0.65625 -0.296875 -1.125q-0.28125 -0.484375 -0.78125 -0.734375q-0.5 -0.25 -1.109375 -0.25q-0.875 0 -1.484375 0.5625q-0.609375 0.546875 -0.703125 1.546875l4.375 0zm5.1749725 4.078125q-0.8125 0 -1.453125 -0.265625q-0.625 -0.28125 -1.0 -0.765625q-0.359375 -0.484375 -0.390625 -1.109375l1.1875 0q0.046875 0.515625 0.484375 0.84375q0.4375 0.328125 1.15625 0.328125q0.65625 0 1.03125 -0.28125q0.375 -0.296875 0.375 -0.75q0 -0.453125 -0.40625 -0.671875q-0.390625 -0.21875 -1.25 -0.4375q-0.765625 -0.203125 -1.25 -0.40625q-0.484375 -0.21875 -0.84375 -0.625q-0.34375 -0.40625 -0.34375 -1.078125q0 -0.53125 0.3125 -0.96875q0.3125 -0.453125 0.890625 -0.703125q0.59375 -0.265625 1.34375 -0.265625q1.140625 0 1.84375 0.578125q0.71875 0.578125 0.765625 1.59375l-1.140625 0q-0.046875 -0.546875 -0.453125 -0.875q-0.390625 -0.328125 -1.0625 -0.328125q-0.609375 0 -0.984375 0.265625q-0.359375 0.265625 -0.359375 0.703125q0 0.34375 0.21875 0.5625q0.21875 0.21875 0.546875 0.359375q0.34375 0.125 0.9375 0.296875q0.75 0.1875 1.21875 0.390625q0.46875 0.203125 0.796875 0.59375q0.34375 0.390625 0.359375 1.015625q0 0.578125 -0.328125 1.03125q-0.3125 0.453125 -0.890625 0.71875q-0.578125 0.25 -1.3125 0.25zm7.169037 0q-0.96875 0 -1.765625 -0.4375q-0.796875 -0.4375 -1.25 -1.25q-0.4375 -0.828125 -0.4375 -1.90625q0 -1.0625 0.453125 -1.875q0.46875 -0.8125 1.265625 -1.25q0.796875 -0.4375 1.78125 -0.4375q0.984375 0 1.78125 0.4375q0.796875 0.4375 1.265625 1.25q0.46875 0.796875 0.46875 1.875q0 1.078125 -0.484375 1.90625q-0.46875 0.8125 -1.28125 1.25q-0.8125 0.4375 -1.796875 0.4375zm0 -1.015625q0.625 0 1.15625 -0.28125q0.546875 -0.296875 0.875 -0.875q0.34375 -0.578125 0.34375 -1.421875q0 -0.828125 -0.328125 -1.40625q-0.328125 -0.59375 -0.859375 -0.875q-0.53125 -0.28125 -1.15625 -0.28125q-0.625 0 -1.15625 0.28125q-0.515625 0.28125 -0.84375 0.875q-0.3125 0.578125 -0.3125 1.40625q0 0.859375 0.3125 1.4375q0.3125 0.578125 0.828125 0.859375q0.515625 0.28125 1.140625 0.28125zm11.224976 -6.03125l0 6.9375l-1.15625 0l0 -1.03125q-0.328125 0.53125 -0.921875 0.828125q-0.578125 0.296875 -1.28125 0.296875q-0.8125 0 -1.46875 -0.328125q-0.640625 -0.328125 -1.015625 -1.0q-0.375 -0.671875 -0.375 -1.640625l0 -4.0625l1.140625 0l0 3.90625q0 1.03125 0.515625 1.578125q0.53125 0.546875 1.421875 0.546875q0.921875 0 1.453125 -0.5625q0.53125 -0.5625 0.53125 -1.65625l0 -3.8125l1.15625 0zm3.0999756 1.125q0.3125 -0.59375 0.875 -0.921875q0.5625 -0.328125 1.359375 -0.328125l0 1.1875l-0.296875 0q-1.9375 0 -1.9375 2.109375l0 3.765625l-1.15625 0l0 -6.9375l1.15625 0l0 1.125zm3.1426392 2.328125q0 -1.078125 0.421875 -1.875q0.4375 -0.796875 1.203125 -1.234375q0.765625 -0.453125 1.75 -0.453125q1.28125 0 2.109375 0.625q0.828125 0.609375 1.09375 1.71875l-1.234375 0q-0.1875 -0.640625 -0.703125 -1.0q-0.5 -0.375 -1.265625 -0.375q-0.984375 0 -1.59375 0.6875q-0.609375 0.671875 -0.609375 1.90625q0 1.25 0.609375 1.9375q0.609375 0.6875 1.59375 0.6875q0.765625 0 1.265625 -0.34375q0.5 -0.359375 0.703125 -1.03125l1.234375 0q-0.28125 1.0625 -1.125 1.703125q-0.828125 0.640625 -2.078125 0.640625q-0.984375 0 -1.75 -0.4375q-0.765625 -0.4375 -1.203125 -1.25q-0.421875 -0.8125 -0.421875 -1.90625zm14.432327 -0.25q0 0.328125 -0.03125 0.703125l-5.546875 0q0.0625 1.015625 0.703125 1.59375q0.640625 0.578125 1.546875 0.578125q0.75 0 1.25 -0.34375q0.5 -0.359375 0.703125 -0.9375l1.234375 0q-0.265625 1.0 -1.109375 1.625q-0.828125 0.625 -2.078125 0.625q-0.984375 0 -1.765625 -0.4375q-0.765625 -0.4375 -1.21875 -1.25q-0.4375 -0.828125 -0.4375 -1.90625q0 -1.078125 0.421875 -1.875q0.4375 -0.8125 1.21875 -1.25q0.78125 -0.4375 1.78125 -0.4375q1.0 0 1.75 0.4375q0.765625 0.421875 1.171875 1.171875q0.40625 0.75 0.40625 1.703125zm-1.1875 -0.234375q0 -0.65625 -0.296875 -1.125q-0.28125 -0.484375 -0.78125 -0.734375q-0.5 -0.25 -1.109375 -0.25q-0.875 0 -1.484375 0.5625q-0.609375 0.546875 -0.703125 1.546875l4.375 0z" fill-rule="nonzero"/><path fill="#000000" d="m110.80167 207.86731q1.4375 0 2.5 0.546875q1.0625 0.53125 1.625 1.53125q0.5625 1.0 0.5625 2.359375q0 1.359375 -0.5625 2.359375q-0.5625 0.984375 -1.625 1.515625q-1.0625 0.515625 -2.5 0.515625l-2.75 0l0 -8.828125l2.75 0zm0 7.875q1.703125 0 2.609375 -0.90625q0.90625 -0.90625 0.90625 -2.53125q0 -1.640625 -0.90625 -2.5625q-0.90625 -0.9375 -2.609375 -0.9375l-1.59375 0l0 6.9375l1.59375 0zm12.526062 -2.78125q0 0.328125 -0.03125 0.703125l-5.546875 0q0.0625 1.015625 0.703125 1.59375q0.640625 0.578125 1.546875 0.578125q0.75 0 1.25 -0.34375q0.5 -0.359375 0.703125 -0.9375l1.234375 0q-0.265625 1.0 -1.109375 1.625q-0.828125 0.625 -2.078125 0.625q-0.984375 0 -1.765625 -0.4375q-0.765625 -0.4375 -1.21875 -1.25q-0.4375 -0.828125 -0.4375 -1.90625q0 -1.078125 0.421875 -1.875q0.4375 -0.8125 1.21875 -1.25q0.78125 -0.4375 1.78125 -0.4375q1.0 0 1.75 0.4375q0.765625 0.421875 1.171875 1.171875q0.40625 0.75 0.40625 1.703125zm-1.1875 -0.234375q0 -0.65625 -0.296875 -1.125q-0.28125 -0.484375 -0.78125 -0.734375q-0.5 -0.25 -1.109375 -0.25q-0.875 0 -1.484375 0.5625q-0.609375 0.546875 -0.703125 1.546875l4.375 0zm5.5343475 -2.015625l-1.453125 0l0 5.984375l-1.15625 0l0 -5.984375l-0.890625 0l0 -0.953125l0.890625 0l0 -0.484375q0 -1.171875 0.59375 -1.703125q0.609375 -0.546875 1.9375 -0.546875l0 0.96875q-0.75 0 -1.0625 0.296875q-0.3125 0.296875 -0.3125 0.984375l0 0.484375l1.453125 0l0 0.953125zm1.9295197 -2.078125q-0.328125 0 -0.5625 -0.21875q-0.21875 -0.234375 -0.21875 -0.5625q0 -0.328125 0.21875 -0.546875q0.234375 -0.234375 0.5625 -0.234375q0.328125 0 0.546875 0.234375q0.21875 0.21875 0.21875 0.546875q0 0.328125 -0.21875 0.5625q-0.21875 0.21875 -0.546875 0.21875zm0.5625 1.125l0 6.9375l-1.15625 0l0 -6.9375l1.15625 0zm5.347809 -0.125q1.265625 0 2.046875 0.765625q0.78125 0.765625 0.78125 2.203125l0 4.09375l-1.140625 0l0 -3.921875q0 -1.046875 -0.515625 -1.59375q-0.515625 -0.546875 -1.421875 -0.546875q-0.90625 0 -1.453125 0.578125q-0.53125 0.5625 -0.53125 1.65625l0 3.828125l-1.15625 0l0 -6.9375l1.15625 0l0 0.984375q0.34375 -0.53125 0.921875 -0.8125q0.59375 -0.296875 1.3125 -0.296875zm5.3031006 -1.0q-0.328125 0 -0.5625 -0.21875q-0.21875 -0.234375 -0.21875 -0.5625q0 -0.328125 0.21875 -0.546875q0.234375 -0.234375 0.5625 -0.234375q0.328125 0 0.546875 0.234375q0.21875 0.21875 0.21875 0.546875q0 0.328125 -0.21875 0.5625q-0.21875 0.21875 -0.546875 0.21875zm0.5625 1.125l0 6.9375l-1.15625 0l0 -6.9375l1.15625 0zm3.3634338 0.953125l0 4.09375q0 0.5 0.21875 0.71875q0.21875 0.203125 0.75 0.203125l0.84375 0l0 0.96875l-1.03125 0q-0.96875 0 -1.453125 -0.4375q-0.46875 -0.453125 -0.46875 -1.453125l0 -4.09375l-0.90625 0l0 -0.953125l0.90625 0l0 -1.75l1.140625 0l0 1.75l1.8125 0l0 0.953125l-1.8125 0zm3.7943573 -2.078125q-0.328125 0 -0.5625 -0.21875q-0.21875 -0.234375 -0.21875 -0.5625q0 -0.328125 0.21875 -0.546875q0.234375 -0.234375 0.5625 -0.234375q0.328125 0 0.546875 0.234375q0.21875 0.21875 0.21875 0.546875q0 0.328125 -0.21875 0.5625q-0.21875 0.21875 -0.546875 0.21875zm0.5625 1.125l0 6.9375l-1.15625 0l0 -6.9375l1.15625 0zm4.988434 7.046875q-0.96875 0 -1.765625 -0.4375q-0.796875 -0.4375 -1.25 -1.25q-0.4375 -0.828125 -0.4375 -1.90625q0 -1.0625 0.453125 -1.875q0.46875 -0.8125 1.265625 -1.25q0.796875 -0.4375 1.78125 -0.4375q0.984375 0 1.78125 0.4375q0.796875 0.4375 1.265625 1.25q0.46875 0.796875 0.46875 1.875q0 1.078125 -0.484375 1.90625q-0.46875 0.8125 -1.28125 1.25q-0.8125 0.4375 -1.796875 0.4375zm0 -1.015625q0.625 0 1.15625 -0.28125q0.546875 -0.296875 0.875 -0.875q0.34375 -0.578125 0.34375 -1.421875q0 -0.828125 -0.328125 -1.40625q-0.328125 -0.59375 -0.859375 -0.875q-0.53125 -0.28125 -1.15625 -0.28125q-0.625 0 -1.15625 0.28125q-0.515625 0.28125 -0.84375 0.875q-0.3125 0.578125 -0.3125 1.40625q0 0.859375 0.3125 1.4375q0.3125 0.578125 0.828125 0.859375q0.515625 0.28125 1.140625 0.28125zm8.459351 -6.15625q1.265625 0 2.046875 0.765625q0.78125 0.765625 0.78125 2.203125l0 4.09375l-1.140625 0l0 -3.921875q0 -1.046875 -0.515625 -1.59375q-0.515625 -0.546875 -1.421875 -0.546875q-0.90625 0 -1.453125 0.578125q-0.53125 0.5625 -0.53125 1.65625l0 3.828125l-1.15625 0l0 -6.9375l1.15625 0l0 0.984375q0.34375 -0.53125 0.921875 -0.8125q0.59375 -0.296875 1.3125 -0.296875zm11.057312 9.421875q-1.21875 -1.1875 -1.90625 -3.015625q-0.671875 -1.84375 -0.671875 -3.96875q0 -2.1875 0.71875 -4.078125q0.71875 -1.890625 2.046875 -3.125l1.203125 0l0 0.125q-1.421875 1.328125 -2.140625 3.203125q-0.703125 1.859375 -0.703125 3.875q0 1.953125 0.671875 3.75q0.671875 1.78125 1.984375 3.109375l0 0.125l-1.203125 0zm2.355301 -6.78125q0 -1.28125 0.578125 -2.3125q0.578125 -1.03125 1.578125 -1.609375q1.015625 -0.59375 2.25 -0.59375q1.4375 0 2.515625 0.703125q1.078125 0.6875 1.5625 1.96875l-1.375 0q-0.359375 -0.796875 -1.0625 -1.21875q-0.6875 -0.4375 -1.640625 -0.4375q-0.921875 0 -1.65625 0.4375q-0.734375 0.421875 -1.15625 1.21875q-0.421875 0.78125 -0.421875 1.84375q0 1.0625 0.421875 1.859375q0.421875 0.78125 1.15625 1.21875q0.734375 0.421875 1.65625 0.421875q0.953125 0 1.640625 -0.421875q0.703125 -0.421875 1.0625 -1.21875l1.375 0q-0.484375 1.265625 -1.5625 1.953125q-1.078125 0.6875 -2.515625 0.6875q-1.234375 0 -2.25 -0.578125q-1.0 -0.578125 -1.578125 -1.59375q-0.578125 -1.03125 -0.578125 -2.328125zm14.848724 4.421875l-2.109375 -3.609375l-1.390625 0l0 3.609375l-1.15625 0l0 -8.828125l2.859375 0q1.0 0 1.6875 0.34375q0.6875 0.34375 1.03125 0.9375q0.34375 0.578125 0.34375 1.3125q0 0.921875 -0.53125 1.625q-0.53125 0.6875 -1.578125 0.90625l2.21875 3.703125l-1.375 0zm-3.5 -4.53125l1.703125 0q0.9375 0 1.390625 -0.453125q0.46875 -0.46875 0.46875 -1.25q0 -0.78125 -0.46875 -1.203125q-0.453125 -0.4375 -1.390625 -0.4375l-1.703125 0l0 3.34375zm9.288727 -4.296875q1.4375 0 2.5 0.546875q1.0625 0.53125 1.625 1.53125q0.5625 1.0 0.5625 2.359375q0 1.359375 -0.5625 2.359375q-0.5625 0.984375 -1.625 1.515625q-1.0625 0.515625 -2.5 0.515625l-2.75 0l0 -8.828125l2.75 0zm0 7.875q1.703125 0 2.609375 -0.90625q0.90625 -0.90625 0.90625 -2.53125q0 -1.640625 -0.90625 -2.5625q-0.90625 -0.9375 -2.609375 -0.9375l-1.59375 0l0 6.9375l1.59375 0zm5.838562 3.3125l0 -0.125q1.296875 -1.328125 1.96875 -3.109375q0.6875 -1.796875 0.6875 -3.75q0 -2.015625 -0.71875 -3.875q-0.71875 -1.875 -2.125 -3.203125l0 -0.125l1.203125 0q1.328125 1.234375 2.03125 3.125q0.71875 1.890625 0.71875 4.078125q0 2.125 -0.671875 3.96875q-0.671875 1.828125 -1.890625 3.015625l-1.203125 0z" fill-rule="nonzero"/><path fill="#99e0bb" d="m315.35434 205.76378l0 0c0 -23.578644 19.114258 -42.692917 42.6929 -42.692917l0 0c11.322876 0 22.181976 4.498001 30.188446 12.504471c8.00647 8.00647 12.504456 18.865585 12.504456 30.188446l0 0c0 23.578644 -19.114258 42.692917 -42.6929 42.692917l0 0c-23.578644 0 -42.6929 -19.114273 -42.6929 -42.692917z" fill-rule="evenodd"/><path fill="#000000" fill-opacity="0.0" d="m311.9306 188.37796l93.165344 0l0 34.771652l-93.165344 0z" fill-rule="evenodd"/><path fill="#0a1432" d="m327.96384 205.11607q0 -1.28125 0.578125 -2.3125q0.578125 -1.03125 1.578125 -1.609375q1.015625 -0.59375 2.25 -0.59375q1.4375 0 2.515625 0.703125q1.078125 0.6875 1.5625 1.96875l-1.375 0q-0.359375 -0.796875 -1.0625 -1.21875q-0.6875 -0.4375 -1.640625 -0.4375q-0.921875 0 -1.65625 0.4375q-0.734375 0.421875 -1.15625 1.21875q-0.421875 0.78125 -0.421875 1.84375q0 1.0625 0.421875 1.859375q0.421875 0.78125 1.15625 1.21875q0.734375 0.421875 1.65625 0.421875q0.953125 0 1.640625 -0.421875q0.703125 -0.421875 1.0625 -1.21875l1.375 0q-0.484375 1.265625 -1.5625 1.953125q-1.078125 0.6875 -2.515625 0.6875q-1.234375 0 -2.25 -0.578125q-1.0 -0.578125 -1.578125 -1.59375q-0.578125 -1.03125 -0.578125 -2.328125zm13.223724 4.53125q-0.96875 0 -1.765625 -0.4375q-0.796875 -0.4375 -1.25 -1.25q-0.4375 -0.828125 -0.4375 -1.90625q0 -1.0625 0.453125 -1.875q0.46875 -0.8125 1.265625 -1.25q0.796875 -0.4375 1.78125 -0.4375q0.984375 0 1.78125 0.4375q0.796875 0.4375 1.265625 1.25q0.46875 0.796875 0.46875 1.875q0 1.078125 -0.484375 1.90625q-0.46875 0.8125 -1.28125 1.25q-0.8125 0.4375 -1.796875 0.4375zm0 -1.015625q0.625 0 1.15625 -0.28125q0.546875 -0.296875 0.875 -0.875q0.34375 -0.578125 0.34375 -1.421875q0 -0.828125 -0.328125 -1.40625q-0.328125 -0.59375 -0.859375 -0.875q-0.53125 -0.28125 -1.15625 -0.28125q-0.625 0 -1.15625 0.28125q-0.515625 0.28125 -0.84375 0.875q-0.3125 0.578125 -0.3125 1.40625q0 0.859375 0.3125 1.4375q0.3125 0.578125 0.828125 0.859375q0.515625 0.28125 1.140625 0.28125zm8.459351 -6.15625q1.265625 0 2.046875 0.765625q0.78125 0.765625 0.78125 2.203125l0 4.09375l-1.140625 0l0 -3.921875q0 -1.046875 -0.515625 -1.59375q-0.515625 -0.546875 -1.421875 -0.546875q-0.90625 0 -1.453125 0.578125q-0.53125 0.5625 -0.53125 1.65625l0 3.828125l-1.15625 0l0 -6.9375l1.15625 0l0 0.984375q0.34375 -0.53125 0.921875 -0.8125q0.59375 -0.296875 1.3125 -0.296875zm6.1156006 1.078125l0 4.09375q0 0.5 0.21875 0.71875q0.21875 0.203125 0.75 0.203125l0.84375 0l0 0.96875l-1.03125 0q-0.96875 0 -1.453125 -0.4375q-0.46875 -0.453125 -0.46875 -1.453125l0 -4.09375l-0.90625 0l0 -0.953125l0.90625 0l0 -1.75l1.140625 0l0 1.75l1.8125 0l0 0.953125l-1.8125 0zm4.3568726 0.171875q0.3125 -0.59375 0.875 -0.921875q0.5625 -0.328125 1.359375 -0.328125l0 1.1875l-0.296875 0q-1.9375 0 -1.9375 2.109375l0 3.765625l-1.15625 0l0 -6.9375l1.15625 0l0 1.125zm6.595764 5.921875q-0.96875 0 -1.765625 -0.4375q-0.796875 -0.4375 -1.25 -1.25q-0.4375 -0.828125 -0.4375 -1.90625q0 -1.0625 0.453125 -1.875q0.46875 -0.8125 1.265625 -1.25q0.796875 -0.4375 1.78125 -0.4375q0.984375 0 1.78125 0.4375q0.796875 0.4375 1.265625 1.25q0.46875 0.796875 0.46875 1.875q0 1.078125 -0.484375 1.90625q-0.46875 0.8125 -1.28125 1.25q-0.8125 0.4375 -1.796875 0.4375zm0 -1.015625q0.625 0 1.15625 -0.28125q0.546875 -0.296875 0.875 -0.875q0.34375 -0.578125 0.34375 -1.421875q0 -0.828125 -0.328125 -1.40625q-0.328125 -0.59375 -0.859375 -0.875q-0.53125 -0.28125 -1.15625 -0.28125q-0.625 0 -1.15625 0.28125q-0.515625 0.28125 -0.84375 0.875q-0.3125 0.578125 -0.3125 1.40625q0 0.859375 0.3125 1.4375q0.3125 0.578125 0.828125 0.859375q0.515625 0.28125 1.140625 0.28125zm6.2249756 -8.453125l0 9.359375l-1.15625 0l0 -9.359375l1.15625 0zm3.1134033 0l0 9.359375l-1.1562195 0l0 -9.359375l1.1562195 0zm8.285309 5.625q0 0.328125 -0.03125 0.703125l-5.546875 0q0.0625 1.015625 0.703125 1.59375q0.640625 0.578125 1.546875 0.578125q0.75 0 1.25 -0.34375q0.5 -0.359375 0.703125 -0.9375l1.234375 0q-0.265625 1.0 -1.109375 1.625q-0.828125 0.625 -2.078125 0.625q-0.984375 0 -1.765625 -0.4375q-0.765625 -0.4375 -1.21875 -1.25q-0.4375 -0.828125 -0.4375 -1.90625q0 -1.078125 0.421875 -1.875q0.4375 -0.8125 1.21875 -1.25q0.78125 -0.4375 1.78125 -0.4375q1.0 0 1.75 0.4375q0.765625 0.421875 1.171875 1.171875q0.40625 0.75 0.40625 1.703125zm-1.1875 -0.234375q0 -0.65625 -0.296875 -1.125q-0.28125 -0.484375 -0.78125 -0.734375q-0.5 -0.25 -1.109375 -0.25q-0.875 0 -1.484375 0.5625q-0.609375 0.546875 -0.703125 1.546875l4.375 0zm3.8624878 -1.84375q0.3125 -0.59375 0.875 -0.921875q0.5625 -0.328125 1.359375 -0.328125l0 1.1875l-0.296875 0q-1.9375 0 -1.9375 2.109375l0 3.765625l-1.15625 0l0 -6.9375l1.15625 0l0 1.125z" fill-rule="nonzero"/><path fill="#000000" fill-opacity="0.0" d="m254.50768 171.10983l46.67717 0l0 71.086624l-46.67717 0z" fill-rule="evenodd"/><path fill="#d63384" d="m287.7733 209.42921l-7.421875 0l0 7.59375l-6.90625 0l0 -7.59375l-7.421875 0l0 -6.53125l7.421875 0l0 -7.640625l6.90625 0l0 7.640625l7.421875 0l0 6.53125z" fill-rule="nonzero"/><path fill="#d63384" d="m489.5218 78.31968c-13.663483 13.663467 -34.80066 16.446228 -51.534912 6.7846985c-16.734253 -9.661522 -24.892914 -29.358246 -19.891724 -48.022884c5.0011597 -18.664637 21.91513 -31.643173 41.23819 -31.643173z" fill-rule="evenodd"/><path stroke="#d63384" stroke-width="2.0" stroke-linejoin="round" stroke-linecap="butt" d="m489.5218 78.31968c-13.663483 13.663467 -34.80066 16.446228 -51.534912 6.7846985c-16.734253 -9.661522 -24.892914 -29.358246 -19.891724 -48.022884c5.0011597 -18.664637 21.91513 -31.643173 41.23819 -31.643173z" fill-rule="evenodd"/><path fill="#c9daf8" d="m420.30142 47.86912l0 0c0 -21.91744 17.767609 -39.68504 39.68506 -39.68504l0 0c10.525116 0 20.619171 4.1810904 28.061554 11.623479c7.442383 7.4423885 11.623474 17.536432 11.623474 28.06156l0 0c0 21.917446 -17.767578 39.68504 -39.685028 39.68504l0 0c-21.91745 0 -39.68506 -17.767593 -39.68506 -39.68504z" fill-rule="evenodd"/><path fill="#000000" fill-opacity="0.0" d="m413.709 25.28907l93.165344 0l0 34.771652l-93.165344 0z" fill-rule="evenodd"/><path fill="#0a1432" d="m437.58276 42.027195q0 -1.28125 0.578125 -2.3125q0.578125 -1.03125 1.578125 -1.609375q1.015625 -0.59375 2.25 -0.59375q1.4375 0 2.515625 0.703125q1.078125 0.6875 1.5625 1.96875l-1.375 0q-0.359375 -0.796875 -1.0625 -1.21875q-0.6875 -0.4375 -1.640625 -0.4375q-0.921875 0 -1.65625 0.4375q-0.734375 0.421875 -1.15625 1.21875q-0.421875 0.78125 -0.421875 1.84375q0 1.0625 0.421875 1.859375q0.421875 0.78125 1.15625 1.21875q0.734375 0.421875 1.65625 0.421875q0.953125 0 1.640625 -0.421875q0.703125 -0.421875 1.0625 -1.21875l1.375 0q-0.484375 1.265625 -1.5625 1.953125q-1.078125 0.6875 -2.515625 0.6875q-1.234375 0 -2.25 -0.578125q-1.0 -0.578125 -1.578125 -1.59375q-0.578125 -1.03125 -0.578125 -2.328125zm13.223724 4.53125q-0.96875 0 -1.765625 -0.4375q-0.796875 -0.4375 -1.25 -1.25q-0.4375 -0.828125 -0.4375 -1.90625q0 -1.0625 0.453125 -1.875q0.46875 -0.8125 1.265625 -1.25q0.796875 -0.4375 1.78125 -0.4375q0.984375 0 1.78125 0.4375q0.796875 0.4375 1.265625 1.25q0.46875 0.796875 0.46875 1.875q0 1.078125 -0.484375 1.90625q-0.46875 0.8125 -1.28125 1.25q-0.8125 0.4375 -1.796875 0.4375zm0 -1.015625q0.625 0 1.15625 -0.28125q0.546875 -0.296875 0.875 -0.875q0.34375 -0.578125 0.34375 -1.421875q0 -0.828125 -0.328125 -1.40625q-0.328125 -0.59375 -0.859375 -0.875q-0.53125 -0.28125 -1.15625 -0.28125q-0.625 0 -1.15625 0.28125q-0.515625 0.28125 -0.84375 0.875q-0.3125 0.578125 -0.3125 1.40625q0 0.859375 0.3125 1.4375q0.3125 0.578125 0.828125 0.859375q0.515625 0.28125 1.140625 0.28125zm8.459351 -6.15625q1.265625 0 2.046875 0.765625q0.78125 0.765625 0.78125 2.203125l0 4.09375l-1.140625 0l0 -3.921875q0 -1.046875 -0.515625 -1.59375q-0.515625 -0.546875 -1.421875 -0.546875q-0.90625 0 -1.453125 0.578125q-0.53125 0.5625 -0.53125 1.65625l0 3.828125l-1.15625 0l0 -6.9375l1.15625 0l0 0.984375q0.34375 -0.53125 0.921875 -0.8125q0.59375 -0.296875 1.3125 -0.296875zm6.1156006 1.078125l0 4.09375q0 0.5 0.21875 0.71875q0.21875 0.203125 0.75 0.203125l0.84375 0l0 0.96875l-1.03125 0q-0.96875 0 -1.453125 -0.4375q-0.46875 -0.453125 -0.46875 -1.453125l0 -4.09375l-0.90625 0l0 -0.953125l0.90625 0l0 -1.75l1.140625 0l0 1.75l1.8125 0l0 0.953125l-1.8125 0zm4.3568726 0.171875q0.3125 -0.59375 0.875 -0.921875q0.5625 -0.328125 1.359375 -0.328125l0 1.1875l-0.296875 0q-1.9375 0 -1.9375 2.109375l0 3.765625l-1.15625 0l0 -6.9375l1.15625 0l0 1.125zm6.595764 5.921875q-0.96875 0 -1.765625 -0.4375q-0.796875 -0.4375 -1.25 -1.25q-0.4375 -0.828125 -0.4375 -1.90625q0 -1.0625 0.453125 -1.875q0.46875 -0.8125 1.265625 -1.25q0.796875 -0.4375 1.78125 -0.4375q0.984375 0 1.78125 0.4375q0.796875 0.4375 1.265625 1.25q0.46875 0.796875 0.46875 1.875q0 1.078125 -0.484375 1.90625q-0.46875 0.8125 -1.28125 1.25q-0.8125 0.4375 -1.796875 0.4375zm0 -1.015625q0.625 0 1.15625 -0.28125q0.546875 -0.296875 0.875 -0.875q0.34375 -0.578125 0.34375 -1.421875q0 -0.828125 -0.328125 -1.40625q-0.328125 -0.59375 -0.859375 -0.875q-0.53125 -0.28125 -1.15625 -0.28125q-0.625 0 -1.15625 0.28125q-0.515625 0.28125 -0.84375 0.875q-0.3125 0.578125 -0.3125 1.40625q0 0.859375 0.3125 1.4375q0.3125 0.578125 0.828125 0.859375q0.515625 0.28125 1.140625 0.28125zm6.2249756 -8.453125l0 9.359375l-1.15625 0l0 -9.359375l1.15625 0z" fill-rule="nonzero"/><path fill="#0a1432" d="m447.30518 60.71157l3.09375 0l0 0.9375l-4.25 0l0 -8.828125l1.15625 0l0 7.890625zm7.3424683 1.046875q-0.96875 0 -1.765625 -0.4375q-0.796875 -0.4375 -1.25 -1.25q-0.4375 -0.828125 -0.4375 -1.90625q0 -1.0625 0.453125 -1.875q0.46875 -0.8125 1.265625 -1.25q0.796875 -0.4375 1.78125 -0.4375q0.984375 0 1.78125 0.4375q0.796875 0.4375 1.265625 1.25q0.46875 0.796875 0.46875 1.875q0 1.078125 -0.484375 1.90625q-0.46875 0.8125 -1.28125 1.25q-0.8125 0.4375 -1.796875 0.4375zm0 -1.015625q0.625 0 1.15625 -0.28125q0.546875 -0.296875 0.875 -0.875q0.34375 -0.578125 0.34375 -1.421875q0 -0.828125 -0.328125 -1.40625q-0.328125 -0.59375 -0.859375 -0.875q-0.53125 -0.28125 -1.15625 -0.28125q-0.625 0 -1.15625 0.28125q-0.515625 0.28125 -0.84375 0.875q-0.3125 0.578125 -0.3125 1.40625q0 0.859375 0.3125 1.4375q0.3125 0.578125 0.828125 0.859375q0.515625 0.28125 1.140625 0.28125zm8.099976 1.015625q-0.96875 0 -1.765625 -0.4375q-0.796875 -0.4375 -1.25 -1.25q-0.4375 -0.828125 -0.4375 -1.90625q0 -1.0625 0.453125 -1.875q0.46875 -0.8125 1.265625 -1.25q0.796875 -0.4375 1.78125 -0.4375q0.984375 0 1.78125 0.4375q0.796875 0.4375 1.265625 1.25q0.46875 0.796875 0.46875 1.875q0 1.078125 -0.484375 1.90625q-0.46875 0.8125 -1.28125 1.25q-0.8125 0.4375 -1.796875 0.4375zm0 -1.015625q0.625 0 1.15625 -0.28125q0.546875 -0.296875 0.875 -0.875q0.34375 -0.578125 0.34375 -1.421875q0 -0.828125 -0.328125 -1.40625q-0.328125 -0.59375 -0.859375 -0.875q-0.53125 -0.28125 -1.15625 -0.28125q-0.625 0 -1.15625 0.28125q-0.515625 0.28125 -0.84375 0.875q-0.3125 0.578125 -0.3125 1.40625q0 0.859375 0.3125 1.4375q0.3125 0.578125 0.828125 0.859375q0.515625 0.28125 1.140625 0.28125zm6.2249756 -4.75q0.34375 -0.59375 1.015625 -0.984375q0.6875 -0.40625 1.578125 -0.40625q0.921875 0 1.671875 0.453125q0.765625 0.4375 1.1875 1.234375q0.4375 0.796875 0.4375 1.859375q0 1.0625 -0.4375 1.890625q-0.421875 0.8125 -1.1875 1.265625q-0.75 0.453125 -1.671875 0.453125q-0.890625 0 -1.5625 -0.390625q-0.671875 -0.40625 -1.03125 -1.0l0 4.578125l-1.15625 0l0 -10.234375l1.15625 0l0 1.28125zm4.703125 2.15625q0 -0.78125 -0.3125 -1.359375q-0.3125 -0.578125 -0.859375 -0.875q-0.53125 -0.3125 -1.171875 -0.3125q-0.640625 0 -1.1875 0.3125q-0.53125 0.3125 -0.859375 0.90625q-0.3125 0.578125 -0.3125 1.34375q0 0.78125 0.3125 1.375q0.328125 0.59375 0.859375 0.90625q0.546875 0.296875 1.1875 0.296875q0.640625 0 1.171875 -0.296875q0.546875 -0.3125 0.859375 -0.90625q0.3125 -0.59375 0.3125 -1.390625z" fill-rule="nonzero"/><path fill="#fdfefe" d="m570.6903 116.83465l130.39368 0l0 82.92913l-130.39368 0z" fill-rule="evenodd"/><path stroke="#6c7284" stroke-width="1.0" stroke-linejoin="round" stroke-linecap="butt" stroke-dasharray="1.0,3.0" d="m570.6903 116.83465l130.39368 0l0 82.92913l-130.39368 0z" fill-rule="evenodd"/><path fill="#000000" d="m611.06696 153.29047l-3.84375 0l-0.71875 1.96875l-1.203125 0l3.1875 -8.765625l1.328125 0l3.171875 8.765625l-1.21875 0l-0.703125 -1.96875zm-0.328125 -0.921875l-1.59375 -4.46875l-1.59375 4.46875l3.1875 0zm9.545898 -3.34375q0 1.09375 -0.765625 1.828125q-0.75 0.71875 -2.28125 0.71875l-1.703125 0l0 3.6875l-1.15625 0l0 -8.828125l2.859375 0q1.484375 0 2.265625 0.734375q0.78125 0.71875 0.78125 1.859375zm-3.046875 1.609375q0.953125 0 1.40625 -0.421875q0.453125 -0.421875 0.453125 -1.1875q0 -1.640625 -1.859375 -1.640625l-1.703125 0l0 3.25l1.703125 0zm5.624817 -4.203125l0 8.828125l-1.15625 0l0 -8.828125l1.15625 0zm8.13324 8.921875q-0.875 0 -1.5625 -0.3125q-0.6875 -0.3125 -1.078125 -0.859375q-0.390625 -0.546875 -0.40625 -1.28125l1.234375 0q0.0625 0.625 0.5 1.046875q0.453125 0.421875 1.3125 0.421875q0.828125 0 1.296875 -0.40625q0.484375 -0.40625 0.484375 -1.0625q0 -0.5 -0.28125 -0.8125q-0.28125 -0.328125 -0.703125 -0.484375q-0.40625 -0.171875 -1.125 -0.359375q-0.875 -0.21875 -1.40625 -0.453125q-0.515625 -0.234375 -0.890625 -0.71875q-0.375 -0.484375 -0.375 -1.3125q0 -0.71875 0.359375 -1.265625q0.375 -0.5625 1.03125 -0.859375q0.671875 -0.3125 1.546875 -0.3125q1.234375 0 2.015625 0.625q0.796875 0.625 0.90625 1.640625l-1.265625 0q-0.0625 -0.5 -0.53125 -0.890625q-0.46875 -0.390625 -1.25 -0.390625q-0.71875 0 -1.171875 0.375q-0.453125 0.375 -0.453125 1.046875q0 0.484375 0.265625 0.796875q0.28125 0.296875 0.671875 0.453125q0.40625 0.15625 1.125 0.359375q0.875 0.234375 1.40625 0.46875q0.53125 0.234375 0.90625 0.734375q0.375 0.484375 0.375 1.3125q0 0.640625 -0.34375 1.21875q-0.328125 0.5625 -1.0 0.921875q-0.671875 0.359375 -1.59375 0.359375zm10.960449 -3.828125q0 0.328125 -0.03125 0.703125l-5.546875 0q0.0625 1.015625 0.703125 1.59375q0.640625 0.578125 1.546875 0.578125q0.75 0 1.25 -0.34375q0.5 -0.359375 0.703125 -0.9375l1.234375 0q-0.265625 1.0 -1.109375 1.625q-0.828125 0.625 -2.078125 0.625q-0.984375 0 -1.765625 -0.4375q-0.765625 -0.4375 -1.21875 -1.25q-0.4375 -0.828125 -0.4375 -1.90625q0 -1.078125 0.421875 -1.875q0.4375 -0.8125 1.21875 -1.25q0.78125 -0.4375 1.78125 -0.4375q1.0 0 1.75 0.4375q0.765625 0.421875 1.171875 1.171875q0.40625 0.75 0.40625 1.703125zm-1.1875 -0.234375q0 -0.65625 -0.296875 -1.125q-0.28125 -0.484375 -0.78125 -0.734375q-0.5 -0.25 -1.109375 -0.25q-0.875 0 -1.484375 0.5625q-0.609375 0.546875 -0.703125 1.546875l4.375 0zm3.8624878 -1.84375q0.3125 -0.59375 0.875 -0.921875q0.5625 -0.328125 1.359375 -0.328125l0 1.1875l-0.296875 0q-1.9375 0 -1.9375 2.109375l0 3.765625l-1.15625 0l0 -6.9375l1.15625 0l0 1.125zm6.158264 4.75l2.140625 -5.875l1.234375 0l-2.71875 6.9375l-1.34375 0l-2.71875 -6.9375l1.234375 0l2.171875 5.875zm10.834473 -2.671875q0 0.328125 -0.03125 0.703125l-5.546875 0q0.0625 1.015625 0.703125 1.59375q0.640625 0.578125 1.546875 0.578125q0.75 0 1.25 -0.34375q0.5 -0.359375 0.703125 -0.9375l1.234375 0q-0.265625 1.0 -1.109375 1.625q-0.828125 0.625 -2.078125 0.625q-0.984375 0 -1.765625 -0.4375q-0.765625 -0.4375 -1.21875 -1.25q-0.4375 -0.828125 -0.4375 -1.90625q0 -1.078125 0.421875 -1.875q0.4375 -0.8125 1.21875 -1.25q0.78125 -0.4375 1.78125 -0.4375q1.0 0 1.75 0.4375q0.765625 0.421875 1.171875 1.171875q0.40625 0.75 0.40625 1.703125zm-1.1875 -0.234375q0 -0.65625 -0.296875 -1.125q-0.28125 -0.484375 -0.78125 -0.734375q-0.5 -0.25 -1.109375 -0.25q-0.875 0 -1.484375 0.5625q-0.609375 0.546875 -0.703125 1.546875l4.375 0zm3.8624878 -1.84375q0.3125 -0.59375 0.875 -0.921875q0.5625 -0.328125 1.359375 -0.328125l0 1.1875l-0.296875 0q-1.9375 0 -1.9375 2.109375l0 3.765625l-1.15625 0l0 -6.9375l1.15625 0l0 1.125z" fill-rule="nonzero"/><path fill="#000000" d="m586.9976 172.81859q-1.21875 -1.1875 -1.90625 -3.015625q-0.671875 -1.84375 -0.671875 -3.96875q0 -2.1875 0.71875 -4.078125q0.71875 -1.890625 2.046875 -3.125l1.203125 0l0 0.125q-1.421875 1.328125 -2.140625 3.203125q-0.703125 1.859375 -0.703125 3.875q0 1.953125 0.671875 3.75q0.671875 1.78125 1.984375 3.109375l0 0.125l-1.203125 0zm7.5740356 -2.359375l-3.640625 -4.03125l0 4.03125l-1.15625 0l0 -8.828125l1.15625 0l0 4.09375l3.640625 -4.09375l1.46875 0l-4.0 4.421875l4.03125 4.40625l-1.5 0zm8.94043 -6.9375l0 6.9375l-1.15625 0l0 -1.03125q-0.328125 0.53125 -0.921875 0.828125q-0.578125 0.296875 -1.28125 0.296875q-0.8125 0 -1.46875 -0.328125q-0.640625 -0.328125 -1.015625 -1.0q-0.375 -0.671875 -0.375 -1.640625l0 -4.0625l1.140625 0l0 3.90625q0 1.03125 0.515625 1.578125q0.53125 0.546875 1.421875 0.546875q0.921875 0 1.453125 -0.5625q0.53125 -0.5625 0.53125 -1.65625l0 -3.8125l1.15625 0zm3.0999756 1.296875q0.359375 -0.625 1.03125 -1.015625q0.6875 -0.390625 1.5625 -0.390625q0.9375 0 1.6875 0.453125q0.75 0.4375 1.171875 1.234375q0.4375 0.796875 0.4375 1.859375q0 1.0625 -0.4375 1.890625q-0.421875 0.8125 -1.1875 1.265625q-0.75 0.453125 -1.671875 0.453125q-0.890625 0 -1.578125 -0.390625q-0.671875 -0.390625 -1.015625 -1.0l0 1.28125l-1.15625 0l0 -9.359375l1.15625 0l0 3.71875zm4.703125 2.140625q0 -0.78125 -0.3125 -1.359375q-0.3125 -0.578125 -0.859375 -0.875q-0.53125 -0.3125 -1.171875 -0.3125q-0.640625 0 -1.1875 0.3125q-0.53125 0.3125 -0.859375 0.90625q-0.3125 0.578125 -0.3125 1.34375q0 0.78125 0.3125 1.375q0.328125 0.59375 0.859375 0.90625q0.546875 0.296875 1.1875 0.296875q0.640625 0 1.171875 -0.296875q0.546875 -0.3125 0.859375 -0.90625q0.3125 -0.59375 0.3125 -1.390625zm9.024353 -0.234375q0 0.328125 -0.03125 0.703125l-5.546875 0q0.0625 1.015625 0.703125 1.59375q0.640625 0.578125 1.546875 0.578125q0.75 0 1.25 -0.34375q0.5 -0.359375 0.703125 -0.9375l1.234375 0q-0.265625 1.0 -1.109375 1.625q-0.828125 0.625 -2.078125 0.625q-0.984375 0 -1.765625 -0.4375q-0.765625 -0.4375 -1.21875 -1.25q-0.4375 -0.828125 -0.4375 -1.90625q0 -1.078125 0.421875 -1.875q0.4375 -0.8125 1.21875 -1.25q0.78125 -0.4375 1.78125 -0.4375q1.0 0 1.75 0.4375q0.765625 0.421875 1.171875 1.171875q0.40625 0.75 0.40625 1.703125zm-1.1875 -0.234375q0 -0.65625 -0.296875 -1.125q-0.28125 -0.484375 -0.78125 -0.734375q-0.5 -0.25 -1.109375 -0.25q-0.875 0 -1.484375 0.5625q-0.609375 0.546875 -0.703125 1.546875l4.375 0zm3.8624878 -1.84375q0.3125 -0.59375 0.875 -0.921875q0.5625 -0.328125 1.359375 -0.328125l0 1.1875l-0.296875 0q-1.9375 0 -1.9375 2.109375l0 3.765625l-1.15625 0l0 -6.9375l1.15625 0l0 1.125zm6.955139 -1.25q1.265625 0 2.046875 0.765625q0.78125 0.765625 0.78125 2.203125l0 4.09375l-1.140625 0l0 -3.921875q0 -1.046875 -0.515625 -1.59375q-0.515625 -0.546875 -1.421875 -0.546875q-0.90625 0 -1.453125 0.578125q-0.53125 0.5625 -0.53125 1.65625l0 3.828125l-1.15625 0l0 -6.9375l1.15625 0l0 0.984375q0.34375 -0.53125 0.921875 -0.8125q0.59375 -0.296875 1.3125 -0.296875zm11.037476 3.328125q0 0.328125 -0.03125 0.703125l-5.546875 0q0.0625 1.015625 0.703125 1.59375q0.640625 0.578125 1.546875 0.578125q0.75 0 1.25 -0.34375q0.5 -0.359375 0.703125 -0.9375l1.234375 0q-0.265625 1.0 -1.109375 1.625q-0.828125 0.625 -2.078125 0.625q-0.984375 0 -1.765625 -0.4375q-0.765625 -0.4375 -1.21875 -1.25q-0.4375 -0.828125 -0.4375 -1.90625q0 -1.078125 0.421875 -1.875q0.4375 -0.8125 1.21875 -1.25q0.78125 -0.4375 1.78125 -0.4375q1.0 0 1.75 0.4375q0.765625 0.421875 1.171875 1.171875q0.40625 0.75 0.40625 1.703125zm-1.1875 -0.234375q0 -0.65625 -0.296875 -1.125q-0.28125 -0.484375 -0.78125 -0.734375q-0.5 -0.25 -1.109375 -0.25q-0.875 0 -1.484375 0.5625q-0.609375 0.546875 -0.703125 1.546875l4.375 0zm4.112488 -2.015625l0 4.09375q0 0.5 0.21875 0.71875q0.21875 0.203125 0.75 0.203125l0.84375 0l0 0.96875l-1.03125 0q-0.96875 0 -1.453125 -0.4375q-0.46875 -0.453125 -0.46875 -1.453125l0 -4.09375l-0.90625 0l0 -0.953125l0.90625 0l0 -1.75l1.140625 0l0 1.75l1.8125 0l0 0.953125l-1.8125 0zm9.528748 2.25q0 0.328125 -0.03125 0.703125l-5.546875 0q0.0625 1.015625 0.703125 1.59375q0.640625 0.578125 1.546875 0.578125q0.75 0 1.25 -0.34375q0.5 -0.359375 0.703125 -0.9375l1.234375 0q-0.265625 1.0 -1.109375 1.625q-0.828125 0.625 -2.078125 0.625q-0.984375 0 -1.765625 -0.4375q-0.765625 -0.4375 -1.21875 -1.25q-0.4375 -0.828125 -0.4375 -1.90625q0 -1.078125 0.421875 -1.875q0.4375 -0.8125 1.21875 -1.25q0.78125 -0.4375 1.78125 -0.4375q1.0 0 1.75 0.4375q0.765625 0.421875 1.171875 1.171875q0.40625 0.75 0.40625 1.703125zm-1.1875 -0.234375q0 -0.65625 -0.296875 -1.125q-0.28125 -0.484375 -0.78125 -0.734375q-0.5 -0.25 -1.109375 -0.25q-0.875 0 -1.484375 0.5625q-0.609375 0.546875 -0.703125 1.546875l4.375 0zm5.1749268 4.078125q-0.8125 0 -1.453125 -0.265625q-0.625 -0.28125 -1.0 -0.765625q-0.359375 -0.484375 -0.390625 -1.109375l1.1875 0q0.046875 0.515625 0.484375 0.84375q0.4375 0.328125 1.15625 0.328125q0.65625 0 1.03125 -0.28125q0.375 -0.296875 0.375 -0.75q0 -0.453125 -0.40625 -0.671875q-0.390625 -0.21875 -1.25 -0.4375q-0.765625 -0.203125 -1.25 -0.40625q-0.484375 -0.21875 -0.84375 -0.625q-0.34375 -0.40625 -0.34375 -1.078125q0 -0.53125 0.3125 -0.96875q0.3125 -0.453125 0.890625 -0.703125q0.59375 -0.265625 1.34375 -0.265625q1.140625 0 1.84375 0.578125q0.71875 0.578125 0.765625 1.59375l-1.140625 0q-0.046875 -0.546875 -0.453125 -0.875q-0.390625 -0.328125 -1.0625 -0.328125q-0.609375 0 -0.984375 0.265625q-0.359375 0.265625 -0.359375 0.703125q0 0.34375 0.21875 0.5625q0.21875 0.21875 0.546875 0.359375q0.34375 0.125 0.9375 0.296875q0.75 0.1875 1.21875 0.390625q0.46875 0.203125 0.796875 0.59375q0.34375 0.390625 0.359375 1.015625q0 0.578125 -0.328125 1.03125q-0.3125 0.453125 -0.890625 0.71875q-0.578125 0.25 -1.3125 0.25zm12.735779 -2.078125l-3.84375 0l-0.71875 1.96875l-1.203125 0l3.1875 -8.765625l1.328125 0l3.171875 8.765625l-1.21875 0l-0.703125 -1.96875zm-0.328125 -0.921875l-1.59375 -4.46875l-1.59375 4.46875l3.1875 0zm9.545898 -3.34375q0 1.09375 -0.765625 1.828125q-0.75 0.71875 -2.28125 0.71875l-1.703125 0l0 3.6875l-1.15625 0l0 -8.828125l2.859375 0q1.484375 0 2.265625 0.734375q0.78125 0.71875 0.78125 1.859375zm-3.046875 1.609375q0.953125 0 1.40625 -0.421875q0.453125 -0.421875 0.453125 -1.1875q0 -1.640625 -1.859375 -1.640625l-1.703125 0l0 3.25l1.703125 0zm5.624817 -4.203125l0 8.828125l-1.15625 0l0 -8.828125l1.15625 0zm1.5978394 11.1875l0 -0.125q1.296875 -1.328125 1.96875 -3.109375q0.6875 -1.796875 0.6875 -3.75q0 -2.015625 -0.71875 -3.875q-0.71875 -1.875 -2.125 -3.203125l0 -0.125l1.203125 0q1.328125 1.234375 2.03125 3.125q0.71875 1.890625 0.71875 4.078125q0 2.125 -0.671875 3.96875q-0.671875 1.828125 -1.890625 3.015625l-1.203125 0z" fill-rule="nonzero"/><path fill="#99e0bb" d="m169.68767 13.43832l149.29134 0l0 82.92914l-149.29134 0z" fill-rule="evenodd"/><path fill="#000000" d="m188.78156 47.441013q0 -1.28125 0.578125 -2.3125q0.578125 -1.03125 1.578125 -1.609375q1.015625 -0.59375 2.25 -0.59375q1.4375 0 2.515625 0.703125q1.078125 0.6875 1.5625 1.96875l-1.375 0q-0.359375 -0.796875 -1.0625 -1.21875q-0.6875 -0.4375 -1.640625 -0.4375q-0.921875 0 -1.65625 0.4375q-0.734375 0.421875 -1.15625 1.21875q-0.421875 0.78125 -0.421875 1.84375q0 1.0625 0.421875 1.859375q0.421875 0.78125 1.15625 1.21875q0.734375 0.421875 1.65625 0.421875q0.953125 0 1.640625 -0.421875q0.703125 -0.421875 1.0625 -1.21875l1.375 0q-0.484375 1.265625 -1.5625 1.953125q-1.078125 0.6875 -2.515625 0.6875q-1.234375 0 -2.25 -0.578125q-1.0 -0.578125 -1.578125 -1.59375q-0.578125 -1.03125 -0.578125 -2.328125zm16.348724 -2.515625l0 6.9375l-1.15625 0l0 -1.03125q-0.328125 0.53125 -0.921875 0.828125q-0.578125 0.296875 -1.28125 0.296875q-0.8125 0 -1.46875 -0.328125q-0.640625 -0.328125 -1.015625 -1.0q-0.375 -0.671875 -0.375 -1.640625l0 -4.0625l1.140625 0l0 3.90625q0 1.03125 0.515625 1.578125q0.53125 0.546875 1.421875 0.546875q0.921875 0 1.453125 -0.5625q0.53125 -0.5625 0.53125 -1.65625l0 -3.8125l1.15625 0zm4.4124756 7.046875q-0.8125 0 -1.453125 -0.265625q-0.625 -0.28125 -1.0 -0.765625q-0.359375 -0.484375 -0.390625 -1.109375l1.1875 0q0.046875 0.515625 0.484375 0.84375q0.4375 0.328125 1.15625 0.328125q0.65625 0 1.03125 -0.28125q0.375 -0.296875 0.375 -0.75q0 -0.453125 -0.40625 -0.671875q-0.390625 -0.21875 -1.25 -0.4375q-0.765625 -0.203125 -1.25 -0.40625q-0.484375 -0.21875 -0.84375 -0.625q-0.34375 -0.40625 -0.34375 -1.078125q0 -0.53125 0.3125 -0.96875q0.3125 -0.453125 0.890625 -0.703125q0.59375 -0.265625 1.34375 -0.265625q1.140625 0 1.84375 0.578125q0.71875 0.578125 0.765625 1.59375l-1.140625 0q-0.046875 -0.546875 -0.453125 -0.875q-0.390625 -0.328125 -1.0625 -0.328125q-0.609375 0 -0.984375 0.265625q-0.359375 0.265625 -0.359375 0.703125q0 0.34375 0.21875 0.5625q0.21875 0.21875 0.546875 0.359375q0.34375 0.125 0.9375 0.296875q0.75 0.1875 1.21875 0.390625q0.46875 0.203125 0.796875 0.59375q0.34375 0.390625 0.359375 1.015625q0 0.578125 -0.328125 1.03125q-0.3125 0.453125 -0.890625 0.71875q-0.578125 0.25 -1.3125 0.25zm5.544037 -6.09375l0 4.09375q0 0.5 0.21875 0.71875q0.21875 0.203125 0.75 0.203125l0.84375 0l0 0.96875l-1.03125 0q-0.96875 0 -1.453125 -0.4375q-0.46875 -0.453125 -0.46875 -1.453125l0 -4.09375l-0.90625 0l0 -0.953125l0.90625 0l0 -1.75l1.140625 0l0 1.75l1.8125 0l0 0.953125l-1.8125 0zm6.2318573 6.09375q-0.96875 0 -1.765625 -0.4375q-0.796875 -0.4375 -1.25 -1.25q-0.4375 -0.828125 -0.4375 -1.90625q0 -1.0625 0.453125 -1.875q0.46875 -0.8125 1.265625 -1.25q0.796875 -0.4375 1.78125 -0.4375q0.984375 0 1.78125 0.4375q0.796875 0.4375 1.265625 1.25q0.46875 0.796875 0.46875 1.875q0 1.078125 -0.484375 1.90625q-0.46875 0.8125 -1.28125 1.25q-0.8125 0.4375 -1.796875 0.4375zm0 -1.015625q0.625 0 1.15625 -0.28125q0.546875 -0.296875 0.875 -0.875q0.34375 -0.578125 0.34375 -1.421875q0 -0.828125 -0.328125 -1.40625q-0.328125 -0.59375 -0.859375 -0.875q-0.53125 -0.28125 -1.15625 -0.28125q-0.625 0 -1.15625 0.28125q-0.515625 0.28125 -0.84375 0.875q-0.3125 0.578125 -0.3125 1.40625q0 0.859375 0.3125 1.4375q0.3125 0.578125 0.828125 0.859375q0.515625 0.28125 1.140625 0.28125zm13.412476 -6.15625q0.8125 0 1.4375 0.34375q0.640625 0.328125 1.0 1.0q0.375 0.671875 0.375 1.625l0 4.09375l-1.140625 0l0 -3.921875q0 -1.046875 -0.515625 -1.59375q-0.515625 -0.546875 -1.375 -0.546875q-0.90625 0 -1.4375 0.578125q-0.53125 0.578125 -0.53125 1.65625l0 3.828125l-1.140625 0l0 -3.921875q0 -1.046875 -0.515625 -1.59375q-0.5 -0.546875 -1.375 -0.546875q-0.90625 0 -1.4375 0.578125q-0.53125 0.578125 -0.53125 1.65625l0 3.828125l-1.15625 0l0 -6.9375l1.15625 0l0 1.0q0.34375 -0.546875 0.921875 -0.828125q0.578125 -0.296875 1.265625 -0.296875q0.875 0 1.546875 0.390625q0.671875 0.390625 1.0 1.15625q0.296875 -0.734375 0.96875 -1.140625q0.671875 -0.40625 1.484375 -0.40625zm12.727615 7.0625l-2.109375 -3.609375l-1.390625 0l0 3.609375l-1.15625 0l0 -8.828125l2.859375 0q1.0 0 1.6875 0.34375q0.6875 0.34375 1.03125 0.9375q0.34375 0.578125 0.34375 1.3125q0 0.921875 -0.53125 1.625q-0.53125 0.6875 -1.578125 0.90625l2.21875 3.703125l-1.375 0zm-3.5 -4.53125l1.703125 0q0.9375 0 1.390625 -0.453125q0.46875 -0.46875 0.46875 -1.25q0 -0.78125 -0.46875 -1.203125q-0.453125 -0.4375 -1.390625 -0.4375l-1.703125 0l0 3.34375zm12.866852 0.796875q0 0.328125 -0.03125 0.703125l-5.546875 0q0.0625 1.015625 0.703125 1.59375q0.640625 0.578125 1.546875 0.578125q0.75 0 1.25 -0.34375q0.5 -0.359375 0.703125 -0.9375l1.234375 0q-0.265625 1.0 -1.109375 1.625q-0.828125 0.625 -2.078125 0.625q-0.984375 0 -1.765625 -0.4375q-0.765625 -0.4375 -1.21875 -1.25q-0.4375 -0.828125 -0.4375 -1.90625q0 -1.078125 0.421875 -1.875q0.4375 -0.8125 1.21875 -1.25q0.78125 -0.4375 1.78125 -0.4375q1.0 0 1.75 0.4375q0.765625 0.421875 1.171875 1.171875q0.40625 0.75 0.40625 1.703125zm-1.1875 -0.234375q0 -0.65625 -0.296875 -1.125q-0.28125 -0.484375 -0.78125 -0.734375q-0.5 -0.25 -1.109375 -0.25q-0.875 0 -1.484375 0.5625q-0.609375 0.546875 -0.703125 1.546875l4.375 0zm5.1749573 4.078125q-0.8125 0 -1.453125 -0.265625q-0.625 -0.28125 -1.0 -0.765625q-0.359375 -0.484375 -0.390625 -1.109375l1.1875 0q0.046875 0.515625 0.484375 0.84375q0.4375 0.328125 1.15625 0.328125q0.65625 0 1.03125 -0.28125q0.375 -0.296875 0.375 -0.75q0 -0.453125 -0.40625 -0.671875q-0.390625 -0.21875 -1.25 -0.4375q-0.765625 -0.203125 -1.25 -0.40625q-0.484375 -0.21875 -0.84375 -0.625q-0.34375 -0.40625 -0.34375 -1.078125q0 -0.53125 0.3125 -0.96875q0.3125 -0.453125 0.890625 -0.703125q0.59375 -0.265625 1.34375 -0.265625q1.140625 0 1.84375 0.578125q0.71875 0.578125 0.765625 1.59375l-1.140625 0q-0.046875 -0.546875 -0.453125 -0.875q-0.390625 -0.328125 -1.0625 -0.328125q-0.609375 0 -0.984375 0.265625q-0.359375 0.265625 -0.359375 0.703125q0 0.34375 0.21875 0.5625q0.21875 0.21875 0.546875 0.359375q0.34375 0.125 0.9375 0.296875q0.75 0.1875 1.21875 0.390625q0.46875 0.203125 0.796875 0.59375q0.34375 0.390625 0.359375 1.015625q0 0.578125 -0.328125 1.03125q-0.3125 0.453125 -0.890625 0.71875q-0.578125 0.25 -1.3125 0.25zm7.169037 0q-0.96875 0 -1.765625 -0.4375q-0.796875 -0.4375 -1.25 -1.25q-0.4375 -0.828125 -0.4375 -1.90625q0 -1.0625 0.453125 -1.875q0.46875 -0.8125 1.265625 -1.25q0.796875 -0.4375 1.78125 -0.4375q0.984375 0 1.78125 0.4375q0.796875 0.4375 1.265625 1.25q0.46875 0.796875 0.46875 1.875q0 1.078125 -0.484375 1.90625q-0.46875 0.8125 -1.28125 1.25q-0.8125 0.4375 -1.796875 0.4375zm0 -1.015625q0.625 0 1.15625 -0.28125q0.546875 -0.296875 0.875 -0.875q0.34375 -0.578125 0.34375 -1.421875q0 -0.828125 -0.328125 -1.40625q-0.328125 -0.59375 -0.859375 -0.875q-0.53125 -0.28125 -1.15625 -0.28125q-0.625 0 -1.15625 0.28125q-0.515625 0.28125 -0.84375 0.875q-0.3125 0.578125 -0.3125 1.40625q0 0.859375 0.3125 1.4375q0.3125 0.578125 0.828125 0.859375q0.515625 0.28125 1.140625 0.28125zm11.224976 -6.03125l0 6.9375l-1.15625 0l0 -1.03125q-0.328125 0.53125 -0.921875 0.828125q-0.578125 0.296875 -1.28125 0.296875q-0.8125 0 -1.46875 -0.328125q-0.640625 -0.328125 -1.015625 -1.0q-0.375 -0.671875 -0.375 -1.640625l0 -4.0625l1.140625 0l0 3.90625q0 1.03125 0.515625 1.578125q0.53125 0.546875 1.421875 0.546875q0.921875 0 1.453125 -0.5625q0.53125 -0.5625 0.53125 -1.65625l0 -3.8125l1.15625 0zm3.0999756 1.125q0.3125 -0.59375 0.875 -0.921875q0.5625 -0.328125 1.359375 -0.328125l0 1.1875l-0.296875 0q-1.9375 0 -1.9375 2.109375l0 3.765625l-1.15625 0l0 -6.9375l1.15625 0l0 1.125zm3.1426392 2.328125q0 -1.078125 0.421875 -1.875q0.4375 -0.796875 1.203125 -1.234375q0.765625 -0.453125 1.75 -0.453125q1.28125 0 2.109375 0.625q0.828125 0.609375 1.09375 1.71875l-1.234375 0q-0.1875 -0.640625 -0.703125 -1.0q-0.5 -0.375 -1.265625 -0.375q-0.984375 0 -1.59375 0.6875q-0.609375 0.671875 -0.609375 1.90625q0 1.25 0.609375 1.9375q0.609375 0.6875 1.59375 0.6875q0.765625 0 1.265625 -0.34375q0.5 -0.359375 0.703125 -1.03125l1.234375 0q-0.28125 1.0625 -1.125 1.703125q-0.828125 0.640625 -2.078125 0.640625q-0.984375 0 -1.75 -0.4375q-0.765625 -0.4375 -1.203125 -1.25q-0.421875 -0.8125 -0.421875 -1.90625zm14.432343 -0.25q0 0.328125 -0.03125 0.703125l-5.546875 0q0.0625 1.015625 0.703125 1.59375q0.640625 0.578125 1.546875 0.578125q0.75 0 1.25 -0.34375q0.5 -0.359375 0.703125 -0.9375l1.234375 0q-0.265625 1.0 -1.109375 1.625q-0.828125 0.625 -2.078125 0.625q-0.984375 0 -1.765625 -0.4375q-0.765625 -0.4375 -1.21875 -1.25q-0.4375 -0.828125 -0.4375 -1.90625q0 -1.078125 0.421875 -1.875q0.4375 -0.8125 1.21875 -1.25q0.78125 -0.4375 1.78125 -0.4375q1.0 0 1.75 0.4375q0.765625 0.421875 1.171875 1.171875q0.40625 0.75 0.40625 1.703125zm-1.1875 -0.234375q0 -0.65625 -0.296875 -1.125q-0.28125 -0.484375 -0.78125 -0.734375q-0.5 -0.25 -1.109375 -0.25q-0.875 0 -1.484375 0.5625q-0.609375 0.546875 -0.703125 1.546875l4.375 0z" fill-rule="nonzero"/><path fill="#000000" d="m233.79211 69.422264q-1.21875 -1.1875 -1.90625 -3.015625q-0.671875 -1.84375 -0.671875 -3.96875q0 -2.1875 0.71875 -4.078125q0.71875 -1.890625 2.046875 -3.125l1.203125 0l0 0.125q-1.421875 1.328125 -2.140625 3.203125q-0.703125 1.859375 -0.703125 3.875q0 1.953125 0.671875 3.75q0.671875 1.78125 1.984375 3.109375l0 0.125l-1.203125 0zm2.355301 -6.78125q0 -1.28125 0.578125 -2.3125q0.578125 -1.03125 1.578125 -1.609375q1.015625 -0.59375 2.25 -0.59375q1.4375 0 2.515625 0.703125q1.078125 0.6875 1.5625 1.96875l-1.375 0q-0.359375 -0.796875 -1.0625 -1.21875q-0.6875 -0.4375 -1.640625 -0.4375q-0.921875 0 -1.65625 0.4375q-0.734375 0.421875 -1.15625 1.21875q-0.421875 0.78125 -0.421875 1.84375q0 1.0625 0.421875 1.859375q0.421875 0.78125 1.15625 1.21875q0.734375 0.421875 1.65625 0.421875q0.953125 0 1.640625 -0.421875q0.703125 -0.421875 1.0625 -1.21875l1.375 0q-0.484375 1.265625 -1.5625 1.953125q-1.078125 0.6875 -2.515625 0.6875q-1.234375 0 -2.25 -0.578125q-1.0 -0.578125 -1.578125 -1.59375q-0.578125 -1.03125 -0.578125 -2.328125zm14.848724 4.421875l-2.109375 -3.609375l-1.390625 0l0 3.609375l-1.15625 0l0 -8.828125l2.859375 0q1.0 0 1.6875 0.34375q0.6875 0.34375 1.03125 0.9375q0.34375 0.578125 0.34375 1.3125q0 0.921875 -0.53125 1.625q-0.53125 0.6875 -1.578125 0.90625l2.21875 3.703125l-1.375 0zm-3.5 -4.53125l1.703125 0q0.9375 0 1.390625 -0.453125q0.46875 -0.46875 0.46875 -1.25q0 -0.78125 -0.46875 -1.203125q-0.453125 -0.4375 -1.390625 -0.4375l-1.703125 0l0 3.34375zm6.179352 6.890625l0 -0.125q1.296875 -1.328125 1.96875 -3.109375q0.68751526 -1.796875 0.68751526 -3.75q0 -2.015625 -0.71876526 -3.875q-0.71875 -1.875 -2.125 -3.203125l0 -0.125l1.203125 0q1.3281403 1.234375 2.0312653 3.125q0.71875 1.890625 0.71875 4.078125q0 2.125 -0.671875 3.96875q-0.671875 1.828125 -1.8906403 3.015625l-1.203125 0z" fill-rule="nonzero"/><path fill="#000000" fill-opacity="0.0" d="m161.95538 260.61453l164.75589 0l0 34.771637l-164.75589 0z" fill-rule="evenodd"/><path fill="#ffffff" d="m215.97272 283.8039q-1.453125 0 -2.671875 -0.671875q-1.203125 -0.6875 -1.921875 -1.890625q-0.703125 -1.21875 -0.703125 -2.71875q0 -1.515625 0.703125 -2.71875q0.71875 -1.203125 1.921875 -1.875q1.21875 -0.671875 2.671875 -0.671875q1.4375 0 2.640625 0.671875q1.21875 0.671875 1.90625 1.875q0.703125 1.203125 0.703125 2.71875q0 1.5 -0.703125 2.71875q-0.703125 1.203125 -1.90625 1.890625q-1.203125 0.671875 -2.640625 0.671875zm0 -2.296875q1.21875 0 1.953125 -0.8125q0.75 -0.828125 0.75 -2.171875q0 -1.359375 -0.75 -2.171875q-0.734375 -0.8125 -1.953125 -0.8125q-1.25 0 -2.0 0.8125q-0.734375 0.796875 -0.734375 2.171875q0 1.359375 0.734375 2.171875q0.75 0.8125 2.0 0.8125zm9.160477 -4.828125q0.359375 -0.578125 1.0 -0.921875q0.65625 -0.359375 1.515625 -0.359375q1.015625 0 1.828125 0.515625q0.828125 0.515625 1.296875 1.46875q0.484375 0.953125 0.484375 2.203125q0 1.265625 -0.484375 2.234375q-0.46875 0.953125 -1.296875 1.484375q-0.8125 0.515625 -1.828125 0.515625q-0.859375 0 -1.515625 -0.359375q-0.640625 -0.359375 -1.0 -0.90625l0 5.046875l-2.515625 0l0 -12.078125l2.515625 0l0 1.15625zm3.5625 2.90625q0 -0.9375 -0.515625 -1.46875q-0.515625 -0.53125 -1.28125 -0.53125q-0.75 0 -1.265625 0.546875q-0.515625 0.53125 -0.515625 1.46875q0 0.9375 0.515625 1.484375q0.515625 0.546875 1.265625 0.546875q0.75 0 1.265625 -0.546875q0.53125 -0.5625 0.53125 -1.5zm11.592255 -0.109375q0 0.34375 -0.046875 0.734375l-5.671875 0q0.046875 0.765625 0.484375 1.171875q0.4375 0.390625 1.0625 0.390625q0.9375 0 1.3125 -0.796875l2.65625 0q-0.203125 0.8125 -0.734375 1.46875q-0.53125 0.640625 -1.34375 1.015625q-0.796875 0.359375 -1.796875 0.359375q-1.203125 0 -2.140625 -0.515625q-0.9375 -0.515625 -1.46875 -1.46875q-0.53125 -0.953125 -0.53125 -2.234375q0 -1.265625 0.515625 -2.21875q0.53125 -0.953125 1.46875 -1.46875q0.9375 -0.515625 2.15625 -0.515625q1.1875 0 2.109375 0.5q0.921875 0.5 1.4375 1.421875q0.53125 0.921875 0.53125 2.15625zm-2.578125 -0.65625q0 -0.65625 -0.4375 -1.03125q-0.4375 -0.375 -1.09375 -0.375q-0.625 0 -1.0625 0.359375q-0.4375 0.359375 -0.53125 1.046875l3.125 0zm6.40329 -1.9375q0.4375 -0.671875 1.09375 -1.0625q0.65625 -0.390625 1.46875 -0.390625l0 2.65625l-0.6875 0q-0.9375 0 -1.40625 0.40625q-0.46875 0.390625 -0.46875 1.40625l0 3.796875l-2.515625 0l0 -8.171875l2.515625 0l0 1.359375zm3.2572784 2.703125q0 -1.25 0.46875 -2.203125q0.484375 -0.953125 1.296875 -1.46875q0.828125 -0.515625 1.84375 -0.515625q0.859375 0 1.515625 0.359375q0.65625 0.34375 1.0 0.921875l0 -1.15625l2.515625 0l0 8.171875l-2.515625 0l0 -1.15625q-0.359375 0.5625 -1.015625 0.921875q-0.65625 0.359375 -1.515625 0.359375q-1.0 0 -1.828125 -0.515625q-0.8125 -0.53125 -1.296875 -1.484375q-0.46875 -0.96875 -0.46875 -2.234375zm6.125 0.015625q0 -0.9375 -0.515625 -1.46875q-0.515625 -0.546875 -1.265625 -0.546875q-0.75 0 -1.28125 0.53125q-0.515625 0.53125 -0.515625 1.46875q0 0.9375 0.515625 1.5q0.53125 0.546875 1.28125 0.546875q0.75 0 1.265625 -0.546875q0.515625 -0.546875 0.515625 -1.484375zm8.88913 1.96875l0 2.125l-1.28125 0q-1.359375 0 -2.125 -0.65625q-0.765625 -0.671875 -0.765625 -2.1875l0 -3.25l-0.984375 0l0 -2.078125l0.984375 0l0 -2.0l2.515625 0l0 2.0l1.640625 0l0 2.078125l-1.640625 0l0 3.28125q0 0.359375 0.171875 0.53125q0.171875 0.15625 0.59375 0.15625l0.890625 0zm5.10672 2.25q-1.203125 0 -2.15625 -0.515625q-0.953125 -0.515625 -1.515625 -1.46875q-0.546875 -0.953125 -0.546875 -2.234375q0 -1.25 0.5625 -2.203125q0.5625 -0.96875 1.515625 -1.484375q0.96875 -0.515625 2.171875 -0.515625q1.203125 0 2.171875 0.515625q0.96875 0.515625 1.515625 1.484375q0.5625 0.953125 0.5625 2.203125q0 1.265625 -0.5625 2.234375q-0.5625 0.953125 -1.546875 1.46875q-0.96875 0.515625 -2.171875 0.515625zm0 -2.171875q0.71875 0 1.21875 -0.53125q0.515625 -0.53125 0.515625 -1.515625q0 -0.984375 -0.5 -1.5q-0.484375 -0.53125 -1.203125 -0.53125q-0.734375 0 -1.21875 0.53125q-0.484375 0.515625 -0.484375 1.5q0 0.984375 0.46875 1.515625q0.484375 0.53125 1.203125 0.53125zm8.132935 -4.765625q0.4375 -0.671875 1.09375 -1.0625q0.65625 -0.390625 1.46875 -0.390625l0 2.65625l-0.6875 0q-0.9375 0 -1.40625 0.40625q-0.46875 0.390625 -0.46875 1.40625l0 3.796875l-2.515625 0l0 -8.171875l2.515625 0l0 1.359375z" fill-rule="nonzero"/><path fill="#000000" fill-opacity="0.0" d="m282.5092 109.6273l0 30.20472" fill-rule="evenodd"/><path stroke="#d63384" stroke-width="2.0" stroke-linejoin="round" stroke-linecap="butt" d="m282.5092 109.6273l0 18.204727" fill-rule="evenodd"/><path fill="#d63384" stroke="#d63384" stroke-width="2.0" stroke-linecap="butt" d="m279.20572 127.83202l3.3034668 9.076195l3.3034668 -9.076195z" fill-rule="evenodd"/><path fill="#000000" fill-opacity="0.0" d="m282.6397 106.20473l75.87402 0l0 34.771652l-75.87402 0z" fill-rule="evenodd"/><path fill="#d63384" d="m300.37408 127.36472l-2.171875 0l-3.609375 -5.484375l0 5.484375l-2.171875 0l0 -8.890625l2.171875 0l3.609375 5.515625l0 -5.515625l2.171875 0l0 8.890625zm4.783081 0.09375q-1.03125 0 -1.875 -0.4375q-0.828125 -0.4375 -1.296875 -1.265625q-0.46875 -0.828125 -0.46875 -1.921875q0 -1.09375 0.46875 -1.921875q0.484375 -0.828125 1.3125 -1.265625q0.84375 -0.4375 1.890625 -0.4375q1.03125 0 1.859375 0.4375q0.84375 0.4375 1.3125 1.265625q0.484375 0.828125 0.484375 1.921875q0 1.09375 -0.484375 1.921875q-0.484375 0.828125 -1.328125 1.265625q-0.84375 0.4375 -1.875 0.4375zm0 -1.859375q0.625 0 1.0625 -0.453125q0.4375 -0.46875 0.4375 -1.3125q0 -0.84375 -0.4375 -1.296875q-0.421875 -0.46875 -1.03125 -0.46875q-0.640625 0 -1.0625 0.453125q-0.40625 0.453125 -0.40625 1.3125q0 0.84375 0.40625 1.3125q0.40625 0.453125 1.03125 0.453125zm8.780762 -0.0625l0 1.828125l-1.09375 0q-1.1875 0 -1.84375 -0.578125q-0.65625 -0.578125 -0.65625 -1.875l0 -2.8125l-0.859375 0l0 -1.796875l0.859375 0l0 -1.71875l2.171875 0l0 1.71875l1.40625 0l0 1.796875l-1.40625 0l0 2.828125q0 0.328125 0.140625 0.46875q0.15625 0.140625 0.515625 0.140625l0.765625 0zm2.2946777 -5.96875q-0.578125 0 -0.9375 -0.328125q-0.359375 -0.34375 -0.359375 -0.828125q0 -0.515625 0.359375 -0.84375q0.359375 -0.34375 0.9375 -0.34375q0.5625 0 0.921875 0.34375q0.359375 0.328125 0.359375 0.84375q0 0.484375 -0.359375 0.828125q-0.359375 0.328125 -0.921875 0.328125zm1.078125 0.734375l0 7.0625l-2.171875 0l0 -7.0625l2.171875 0zm5.1085815 1.796875l-1.171875 0l0 5.265625l-2.15625 0l0 -5.265625l-0.78125 0l0 -1.796875l0.78125 0l0 -0.203125q0 -1.296875 0.75 -1.96875q0.75 -0.6875 2.1875 -0.6875q0.234375 0 0.359375 0.015625l0 1.828125q-0.625 -0.03125 -0.890625 0.1875q-0.25 0.203125 -0.25 0.765625l0 0.0625l1.171875 0l0 1.796875zm8.228119 -1.796875l-4.4375 10.421883l-2.328125 0l1.625 -3.5937576l-2.875 -6.828125l2.421875 0l1.625 4.421875l1.625 -4.421875l2.34375 0z" fill-rule="nonzero"/><path fill="#000000" fill-opacity="0.0" d="m199.02625 109.6273l0 30.20472" fill-rule="evenodd"/><path stroke="#d63384" stroke-width="2.0" stroke-linejoin="round" stroke-linecap="butt" d="m199.02625 121.6273l0 18.20472" fill-rule="evenodd"/><path fill="#d63384" stroke="#d63384" stroke-width="2.0" stroke-linecap="butt" d="m202.32971 121.6273l-3.3034668 -9.076195l-3.3034668 9.076195z" fill-rule="evenodd"/><path fill="#000000" fill-opacity="0.0" d="m123.97033 106.20473l75.874016 0l0 34.771652l-75.874016 0z" fill-rule="evenodd"/><path fill="#d63384" d="m160.62634 118.4741l-2.328125 8.890625l-2.609375 0l-1.421875 -5.84375l-1.46875 5.84375l-2.625 0l-2.25 -8.890625l2.3125 0l1.28125 6.46875l1.59375 -6.46875l2.375 0l1.515625 6.46875l1.296875 -6.46875l2.328125 0zm0.65808105 5.34375q0 -1.078125 0.40625 -1.90625q0.40625 -0.828125 1.109375 -1.265625q0.71875 -0.4375 1.59375 -0.4375q0.75 0 1.3125 0.296875q0.5625 0.296875 0.859375 0.796875l0 -1.0l2.171875 0l0 7.0625l-2.171875 0l0 -1.0q-0.3125 0.5 -0.875 0.796875q-0.5625 0.296875 -1.3125 0.296875q-0.859375 0 -1.578125 -0.4375q-0.703125 -0.453125 -1.109375 -1.28125q-0.40625 -0.828125 -0.40625 -1.921875zm5.28125 0.015625q0 -0.8125 -0.453125 -1.28125q-0.4375 -0.46875 -1.09375 -0.46875q-0.640625 0 -1.09375 0.46875q-0.4375 0.453125 -0.4375 1.265625q0 0.8125 0.4375 1.296875q0.453125 0.46875 1.09375 0.46875q0.65625 0 1.09375 -0.46875q0.453125 -0.46875 0.453125 -1.28125zm7.671692 1.703125l0 1.828125l-1.09375 0q-1.1875 0 -1.84375 -0.578125q-0.65625 -0.578125 -0.65625 -1.875l0 -2.8125l-0.859375 0l0 -1.796875l0.859375 0l0 -1.71875l2.171875 0l0 1.71875l1.40625 0l0 1.796875l-1.40625 0l0 2.828125q0 0.328125 0.140625 0.46875q0.15625 0.140625 0.515625 0.140625l0.765625 0zm0.77905273 -1.703125q0 -1.09375 0.4375 -1.921875q0.453125 -0.828125 1.25 -1.265625q0.8125 -0.4375 1.84375 -0.4375q1.34375 0 2.234375 0.703125q0.890625 0.6875 1.171875 1.953125l-2.3125 0q-0.28125 -0.8125 -1.125 -0.8125q-0.59375 0 -0.953125 0.46875q-0.34375 0.453125 -0.34375 1.3125q0 0.859375 0.34375 1.328125q0.359375 0.453125 0.953125 0.453125q0.84375 0 1.125 -0.8125l2.3125 0q-0.28125 1.25 -1.1875 1.953125q-0.890625 0.703125 -2.21875 0.703125q-1.03125 0 -1.84375 -0.4375q-0.796875 -0.4375 -1.25 -1.265625q-0.4375 -0.828125 -0.4375 -1.921875zm12.422638 -3.609375q1.21875 0 1.953125 0.8125q0.734375 0.796875 0.734375 2.203125l0 4.125l-2.15625 0l0 -3.828125q0 -0.71875 -0.375 -1.109375q-0.359375 -0.390625 -0.984375 -0.390625q-0.609375 0 -0.984375 0.390625q-0.359375 0.390625 -0.359375 1.109375l0 3.828125l-2.171875 0l0 -9.359375l2.171875 0l0 3.25q0.328125 -0.46875 0.890625 -0.75q0.578125 -0.28125 1.28125 -0.28125z" fill-rule="nonzero"/><path fill="#000000" fill-opacity="0.0" d="m156.06824 53.54331l-75.9685 0" fill-rule="evenodd"/><path stroke="#d63384" stroke-width="2.0" stroke-linejoin="round" stroke-linecap="butt" d="m144.06824 53.54331l-63.9685 0" fill-rule="evenodd"/><path fill="#d63384" stroke="#d63384" stroke-width="2.0" stroke-linecap="butt" d="m144.06824 56.84677l9.076202 -3.303463l-9.076202 -3.3034668z" fill-rule="evenodd"/><path fill="#000000" fill-opacity="0.0" d="m75.72405 8.840295l75.874016 0l0 34.771656l-75.874016 0z" fill-rule="evenodd"/><path fill="#d63384" d="m91.89027 25.54717q0 -1.3125 0.5625 -2.34375q0.578125 -1.03125 1.59375 -1.609375q1.015625 -0.578125 2.3125 -0.578125q1.578125 0 2.703125 0.84375q1.125 0.828125 1.5 2.265625l-2.375 0q-0.265625 -0.546875 -0.75 -0.84375q-0.484375 -0.296875 -1.109375 -0.296875q-1.0 0 -1.625 0.703125q-0.609375 0.6875 -0.609375 1.859375q0 1.15625 0.609375 1.859375q0.625 0.703125 1.625 0.703125q0.625 0 1.109375 -0.296875q0.484375 -0.296875 0.75 -0.84375l2.375 0q-0.375 1.4375 -1.5 2.265625q-1.125 0.828125 -2.703125 0.828125q-1.296875 0 -2.3125 -0.578125q-1.015625 -0.578125 -1.59375 -1.59375q-0.5625 -1.03125 -0.5625 -2.34375zm12.175278 -1.4375q0.375 -0.578125 0.9375 -0.90625q0.578125 -0.34375 1.265625 -0.34375l0 2.296875l-0.59375 0q-0.796875 0 -1.203125 0.34375q-0.40625 0.34375 -0.40625 1.21875l0 3.28125l-2.171875 0l0 -7.0625l2.171875 0l0 1.171875zm9.90123 2.25q0 0.296875 -0.03125 0.625l-4.90625 0q0.0625 0.65625 0.421875 1.015625q0.375 0.34375 0.921875 0.34375q0.8125 0 1.125 -0.6875l2.3125 0q-0.1875 0.703125 -0.65625 1.265625q-0.453125 0.546875 -1.15625 0.859375q-0.6875 0.3125 -1.546875 0.3125q-1.03125 0 -1.84375 -0.4375q-0.8125 -0.4375 -1.265625 -1.265625q-0.453125 -0.828125 -0.453125 -1.921875q0 -1.09375 0.4375 -1.921875q0.453125 -0.828125 1.265625 -1.265625q0.8125 -0.4375 1.859375 -0.4375q1.03125 0 1.828125 0.4375q0.796875 0.421875 1.234375 1.21875q0.453125 0.796875 0.453125 1.859375zm-2.203125 -0.578125q0 -0.546875 -0.390625 -0.875q-0.375 -0.328125 -0.953125 -0.328125q-0.53125 0 -0.90625 0.3125q-0.375 0.3125 -0.46875 0.890625l2.71875 0zm2.9212341 0.671875q0 -1.078125 0.40625 -1.90625q0.40625 -0.828125 1.109375 -1.265625q0.71875 -0.4375 1.59375 -0.4375q0.75 0 1.3125 0.296875q0.5625 0.296875 0.859375 0.796875l0 -1.0l2.171875 0l0 7.0625l-2.171875 0l0 -1.0q-0.3125 0.5 -0.875 0.796875q-0.5625 0.296875 -1.3125 0.296875q-0.859375 0 -1.578125 -0.4375q-0.703125 -0.453125 -1.109375 -1.28125q-0.40625 -0.828125 -0.40625 -1.921875zm5.28125 0.015625q0 -0.8125 -0.453125 -1.28125q-0.4375 -0.46875 -1.09375 -0.46875q-0.640625 0 -1.09375 0.46875q-0.4375 0.453125 -0.4375 1.265625q0 0.8125 0.4375 1.296875q0.453125 0.46875 1.09375 0.46875q0.65625 0 1.09375 -0.46875q0.453125 -0.46875 0.453125 -1.28125zm7.671692 1.703125l0 1.828125l-1.09375 0q-1.1875 0 -1.84375 -0.578125q-0.65625 -0.578125 -0.65625 -1.875l0 -2.8125l-0.859375 0l0 -1.796875l0.859375 0l0 -1.71875l2.171875 0l0 1.71875l1.40625 0l0 1.796875l-1.40625 0l0 2.828125q0 0.328125 0.140625 0.46875q0.15625 0.140625 0.515625 0.140625l0.765625 0zm7.85717 -1.8125q0 0.296875 -0.03125 0.625l-4.90625 0q0.0625 0.65625 0.421875 1.015625q0.375 0.34375 0.921875 0.34375q0.8125 0 1.125 -0.6875l2.3125 0q-0.1875 0.703125 -0.65625 1.265625q-0.453125 0.546875 -1.15625 0.859375q-0.6875 0.3125 -1.546875 0.3125q-1.03125 0 -1.84375 -0.4375q-0.8125 -0.4375 -1.265625 -1.265625q-0.453125 -0.828125 -0.453125 -1.921875q0 -1.09375 0.4375 -1.921875q0.453125 -0.828125 1.265625 -1.265625q0.8125 -0.4375 1.859375 -0.4375q1.03125 0 1.828125 0.4375q0.796875 0.421875 1.234375 1.21875q0.453125 0.796875 0.453125 1.859375zm-2.203125 -0.578125q0 -0.546875 -0.390625 -0.875q-0.375 -0.328125 -0.953125 -0.328125q-0.53125 0 -0.90625 0.3125q-0.375 0.3125 -0.46875 0.890625l2.71875 0z" fill-rule="nonzero"/><path fill="#d63384" d="m92.74832 36.30967l0 5.328125q0 0.796875 0.390625 1.234375q0.40625 0.421875 1.15625 0.421875q0.765625 0 1.171875 -0.421875q0.40625 -0.4375 0.40625 -1.234375l0 -5.328125l2.15625 0l0 5.3125q0 1.1875 -0.515625 2.015625q-0.5 0.8125 -1.359375 1.234375q-0.84375 0.421875 -1.890625 0.421875q-1.0625 0 -1.890625 -0.40625q-0.828125 -0.421875 -1.3125 -1.25q-0.46875 -0.828125 -0.46875 -2.015625l0 -5.3125l2.15625 0zm8.969498 2.828125q0.3125 -0.5 0.859375 -0.796875q0.5625 -0.296875 1.3125 -0.296875q0.875 0 1.578125 0.4375q0.71875 0.4375 1.125 1.265625q0.40625 0.828125 0.40625 1.90625q0 1.09375 -0.40625 1.921875q-0.40625 0.828125 -1.125 1.28125q-0.703125 0.4375 -1.578125 0.4375q-0.734375 0 -1.296875 -0.296875q-0.5625 -0.296875 -0.875 -0.78125l0 4.34375l-2.171875 0l0 -10.421875l2.171875 0l0 1.0zm3.078125 2.515625q0 -0.8125 -0.453125 -1.265625q-0.4375 -0.46875 -1.09375 -0.46875q-0.65625 0 -1.109375 0.46875q-0.4375 0.46875 -0.4375 1.28125q0 0.8125 0.4375 1.28125q0.453125 0.46875 1.109375 0.46875q0.640625 0 1.09375 -0.46875q0.453125 -0.484375 0.453125 -1.296875zm2.921692 0q0 -1.078125 0.40625 -1.90625q0.40625 -0.828125 1.109375 -1.265625q0.71875 -0.4375 1.59375 -0.4375q0.6875 0 1.265625 0.296875q0.578125 0.28125 0.90625 0.765625l0 -3.265625l2.171875 0l0 9.359375l-2.171875 0l0 -1.015625q-0.296875 0.515625 -0.859375 0.8125q-0.5625 0.296875 -1.3125 0.296875q-0.875 0 -1.59375 -0.4375q-0.703125 -0.453125 -1.109375 -1.28125q-0.40625 -0.828125 -0.40625 -1.921875zm5.28125 0.015625q0 -0.8125 -0.453125 -1.28125q-0.4375 -0.46875 -1.09375 -0.46875q-0.640625 0 -1.09375 0.46875q-0.4375 0.453125 -0.4375 1.265625q0 0.8125 0.4375 1.296875q0.453125 0.46875 1.09375 0.46875q0.65625 0 1.09375 -0.46875q0.453125 -0.46875 0.453125 -1.28125zm3.312317 -0.015625q0 -1.078125 0.40625 -1.90625q0.40625 -0.828125 1.109375 -1.265625q0.71875 -0.4375 1.59375 -0.4375q0.75 0 1.3125 0.296875q0.5625 0.296875 0.859375 0.796875l0 -1.0l2.171875 0l0 7.0625l-2.171875 0l0 -1.0q-0.3125 0.5 -0.875 0.796875q-0.5625 0.296875 -1.3125 0.296875q-0.859375 0 -1.578125 -0.4375q-0.703125 -0.453125 -1.109375 -1.28125q-0.40625 -0.828125 -0.40625 -1.921875zm5.28125 0.015625q0 -0.8125 -0.453125 -1.28125q-0.4375 -0.46875 -1.09375 -0.46875q-0.640625 0 -1.09375 0.46875q-0.4375 0.453125 -0.4375 1.265625q0 0.8125 0.4375 1.296875q0.453125 0.46875 1.09375 0.46875q0.65625 0 1.09375 -0.46875q0.453125 -0.46875 0.453125 -1.28125zm7.671692 1.703125l0 1.828125l-1.09375 0q-1.1875 0 -1.84375 -0.578125q-0.65625 -0.578125 -0.65625 -1.875l0 -2.8125l-0.859375 0l0 -1.796875l0.859375 0l0 -1.71875l2.171875 0l0 1.71875l1.40625 0l0 1.796875l-1.40625 0l0 2.828125q0 0.328125 0.140625 0.46875q0.15625 0.140625 0.515625 0.140625l0.765625 0zm7.8571777 -1.8125q0 0.296875 -0.03125 0.625l-4.90625 0q0.0625 0.65625 0.421875 1.015625q0.375 0.34375 0.921875 0.34375q0.8125 0 1.125 -0.6875l2.3125 0q-0.1875 0.703125 -0.65625 1.265625q-0.453125 0.546875 -1.15625 0.859375q-0.6875 0.3125 -1.546875 0.3125q-1.03125 0 -1.84375 -0.4375q-0.8125 -0.4375 -1.265625 -1.265625q-0.453125 -0.828125 -0.453125 -1.921875q0 -1.09375 0.4375 -1.921875q0.453125 -0.828125 1.265625 -1.265625q0.8125 -0.4375 1.859375 -0.4375q1.03125 0 1.828125 0.4375q0.796875 0.421875 1.234375 1.21875q0.453125 0.796875 0.453125 1.859375zm-2.203125 -0.578125q0 -0.546875 -0.390625 -0.875q-0.375 -0.328125 -0.953125 -0.328125q-0.53125 0 -0.90625 0.3125q-0.375 0.3125 -0.46875 0.890625l2.71875 0z" fill-rule="nonzero"/><path fill="#000000" fill-opacity="0.0" d="m554.2021 162.71129l-108.09448 45.07086" fill-rule="evenodd"/><path stroke="#d63384" stroke-width="2.0" stroke-linejoin="round" stroke-linecap="butt" d="m543.12634 167.32942l-97.01874 40.45273" fill-rule="evenodd"/><path fill="#d63384" stroke="#d63384" stroke-width="2.0" stroke-linecap="butt" d="m544.39764 170.37846l7.105835 -6.5419617l-9.648499 0.44387817z" fill-rule="evenodd"/><path fill="#000000" fill-opacity="0.0" d="m441.30972 116.03412l93.16531 0l0 60.472443l-93.16531 0z" fill-rule="evenodd"/><path fill="#d63384" d="m461.59598 137.19412l-1.84375 -3.359375l-0.515625 0l0 3.359375l-2.171875 0l0 -8.890625l3.640625 0q1.046875 0 1.78125 0.375q0.75 0.359375 1.109375 1.0q0.375 0.640625 0.375 1.421875q0 0.890625 -0.5 1.59375q-0.5 0.6875 -1.484375 0.984375l2.0625 3.515625l-2.453125 0zm-2.359375 -4.890625l1.34375 0q0.59375 0 0.890625 -0.28125q0.296875 -0.296875 0.296875 -0.828125q0 -0.5 -0.296875 -0.796875q-0.296875 -0.296875 -0.890625 -0.296875l-1.34375 0l0 2.203125zm12.736237 1.25q0 0.296875 -0.03125 0.625l-4.90625 0q0.0625 0.65625 0.421875 1.015625q0.375 0.34375 0.921875 0.34375q0.8125 0 1.125 -0.6875l2.3125 0q-0.1875 0.703125 -0.65625 1.265625q-0.453125 0.546875 -1.15625 0.859375q-0.6875 0.3125 -1.546875 0.3125q-1.03125 0 -1.84375 -0.4375q-0.8125 -0.4375 -1.265625 -1.265625q-0.453125 -0.828125 -0.453125 -1.921875q0 -1.09375 0.4375 -1.921875q0.453125 -0.828125 1.265625 -1.265625q0.8125 -0.4375 1.859375 -0.4375q1.03125 0 1.828125 0.4375q0.796875 0.421875 1.234375 1.21875q0.453125 0.796875 0.453125 1.859375zm-2.203125 -0.578125q0 -0.546875 -0.390625 -0.875q-0.375 -0.328125 -0.953125 -0.328125q-0.53125 0 -0.90625 0.3125q-0.375 0.3125 -0.46875 0.890625l2.71875 0zm2.9212341 0.6875q0 -1.09375 0.4375 -1.921875q0.453125 -0.828125 1.25 -1.265625q0.8125 -0.4375 1.84375 -0.4375q1.34375 0 2.234375 0.703125q0.890625 0.6875 1.171875 1.953125l-2.3125 0q-0.28125 -0.8125 -1.125 -0.8125q-0.59375 0 -0.953125 0.46875q-0.34375 0.453125 -0.34375 1.3125q0 0.859375 0.34375 1.328125q0.359375 0.453125 0.953125 0.453125q0.84375 0 1.125 -0.8125l2.3125 0q-0.28125 1.25 -1.1875 1.953125q-0.890625 0.703125 -2.21875 0.703125q-1.03125 0 -1.84375 -0.4375q-0.796875 -0.4375 -1.25 -1.265625q-0.4375 -0.828125 -0.4375 -1.921875zm11.297638 3.625q-1.03125 0 -1.875 -0.4375q-0.828125 -0.4375 -1.296875 -1.265625q-0.46875 -0.828125 -0.46875 -1.921875q0 -1.09375 0.46875 -1.921875q0.484375 -0.828125 1.3125 -1.265625q0.84375 -0.4375 1.890625 -0.4375q1.03125 0 1.859375 0.4375q0.84375 0.4375 1.3125 1.265625q0.484375 0.828125 0.484375 1.921875q0 1.09375 -0.484375 1.921875q-0.484375 0.828125 -1.328125 1.265625q-0.84375 0.4375 -1.875 0.4375zm0 -1.859375q0.625 0 1.0625 -0.453125q0.4375 -0.46875 0.4375 -1.3125q0 -0.84375 -0.4375 -1.296875q-0.421875 -0.46875 -1.03125 -0.46875q-0.640625 0 -1.0625 0.453125q-0.40625 0.453125 -0.40625 1.3125q0 0.84375 0.40625 1.3125q0.40625 0.453125 1.03125 0.453125zm9.155762 -5.375q1.234375 0 1.96875 0.8125q0.75 0.796875 0.75 2.203125l0 4.125l-2.15625 0l0 -3.828125q0 -0.71875 -0.375 -1.109375q-0.359375 -0.390625 -0.984375 -0.390625q-0.609375 0 -0.984375 0.390625q-0.359375 0.390625 -0.359375 1.109375l0 3.828125l-2.171875 0l0 -7.0625l2.171875 0l0 0.9375q0.328125 -0.46875 0.875 -0.734375q0.5625 -0.28125 1.265625 -0.28125zm3.7958984 3.609375q0 -1.09375 0.4375 -1.921875q0.453125 -0.828125 1.25 -1.265625q0.8125 -0.4375 1.84375 -0.4375q1.34375 0 2.234375 0.703125q0.890625 0.6875 1.171875 1.953125l-2.3125 0q-0.28125 -0.8125 -1.125 -0.8125q-0.59375 0 -0.953125 0.46875q-0.34375 0.453125 -0.34375 1.3125q0 0.859375 0.34375 1.328125q0.359375 0.453125 0.953125 0.453125q0.84375 0 1.125 -0.8125l2.3125 0q-0.28125 1.25 -1.1875 1.953125q-0.890625 0.703125 -2.21875 0.703125q-1.03125 0 -1.84375 -0.4375q-0.796875 -0.4375 -1.25 -1.265625q-0.4375 -0.828125 -0.4375 -1.921875zm9.172638 -4.265625q-0.578125 0 -0.9375 -0.328125q-0.359375 -0.34375 -0.359375 -0.828125q0 -0.515625 0.359375 -0.84375q0.359375 -0.34375 0.9375 -0.34375q0.5625 0 0.921875 0.34375q0.359375 0.328125 0.359375 0.84375q0 0.484375 -0.359375 0.828125q-0.359375 0.328125 -0.921875 0.328125zm1.078125 0.734375l0 7.0625l-2.171875 0l0 -7.0625l2.171875 0zm3.7335815 -2.296875l0 9.359375l-2.171875 0l0 -9.359375l2.171875 0zm8.217987 5.71875q0 0.296875 -0.03125 0.625l-4.90625 0q0.0625 0.65625 0.421875 1.015625q0.375 0.34375 0.921875 0.34375q0.8125 0 1.125 -0.6875l2.3125 0q-0.1875 0.703125 -0.65625 1.265625q-0.453125 0.546875 -1.15625 0.859375q-0.6875 0.3125 -1.546875 0.3125q-1.03125 0 -1.84375 -0.4375q-0.8125 -0.4375 -1.265625 -1.265625q-0.453125 -0.828125 -0.453125 -1.921875q0 -1.09375 0.4375 -1.921875q0.453125 -0.828125 1.265625 -1.265625q0.8125 -0.4375 1.859375 -0.4375q1.03125 0 1.828125 0.4375q0.796875 0.421875 1.234375 1.21875q0.453125 0.796875 0.453125 1.859375zm-2.203125 -0.578125q0 -0.546875 -0.390625 -0.875q-0.375 -0.328125 -0.953125 -0.328125q-0.53125 0 -0.90625 0.3125q-0.375 0.3125 -0.46875 0.890625l2.71875 0z" fill-rule="nonzero"/><path fill="#d63384" d="m467.2019 143.5035q1.40625 0 2.453125 0.5625q1.0625 0.5625 1.625 1.5625q0.578125 1.0 0.578125 2.328125q0 1.296875 -0.578125 2.3125q-0.5625 1.015625 -1.625 1.578125q-1.0625 0.546875 -2.453125 0.546875l-3.328125 0l0 -8.890625l3.328125 0zm-0.140625 7.015625q1.234375 0 1.90625 -0.671875q0.6875 -0.671875 0.6875 -1.890625q0 -1.234375 -0.6875 -1.90625q-0.671875 -0.6875 -1.90625 -0.6875l-1.015625 0l0 5.15625l1.015625 0zm12.66983 -1.765625q0 0.296875 -0.03125 0.625l-4.90625 0q0.0625 0.65625 0.421875 1.015625q0.375 0.34375 0.921875 0.34375q0.8125 0 1.125 -0.6875l2.3125 0q-0.1875 0.703125 -0.65625 1.265625q-0.453125 0.546875 -1.15625 0.859375q-0.6875 0.3125 -1.546875 0.3125q-1.03125 0 -1.84375 -0.4375q-0.8125 -0.4375 -1.265625 -1.265625q-0.453125 -0.828125 -0.453125 -1.921875q0 -1.09375 0.4375 -1.921875q0.453125 -0.828125 1.265625 -1.265625q0.8125 -0.4375 1.859375 -0.4375q1.03125 0 1.828125 0.4375q0.796875 0.421875 1.234375 1.21875q0.453125 0.796875 0.453125 1.859375zm-2.203125 -0.578125q0 -0.546875 -0.390625 -0.875q-0.375 -0.328125 -0.953125 -0.328125q-0.53125 0 -0.90625 0.3125q-0.375 0.3125 -0.46875 0.890625l2.71875 0zm6.218109 4.3125q-0.921875 0 -1.640625 -0.3125q-0.71875 -0.3125 -1.140625 -0.859375q-0.421875 -0.546875 -0.46875 -1.234375l2.140625 0q0.03125 0.359375 0.328125 0.59375q0.3125 0.21875 0.75 0.21875q0.40625 0 0.625 -0.15625q0.234375 -0.15625 0.234375 -0.40625q0 -0.296875 -0.328125 -0.4375q-0.3125 -0.15625 -1.015625 -0.328125q-0.765625 -0.1875 -1.28125 -0.375q-0.5 -0.203125 -0.875 -0.625q-0.359375 -0.421875 -0.359375 -1.140625q0 -0.609375 0.328125 -1.109375q0.34375 -0.5 1.0 -0.78125q0.65625 -0.296875 1.546875 -0.296875q1.328125 0 2.09375 0.65625q0.765625 0.65625 0.890625 1.734375l-2.0 0q-0.0625 -0.359375 -0.328125 -0.578125q-0.265625 -0.21875 -0.71875 -0.21875q-0.375 0 -0.578125 0.15625q-0.203125 0.140625 -0.203125 0.390625q0 0.3125 0.3125 0.46875q0.328125 0.140625 1.015625 0.296875q0.78125 0.203125 1.28125 0.40625q0.5 0.1875 0.859375 0.625q0.375 0.4375 0.390625 1.171875q0 0.609375 -0.34375 1.109375q-0.34375 0.484375 -1.0 0.765625q-0.65625 0.265625 -1.515625 0.265625zm5.2809143 -7.890625q-0.578125 0 -0.9375 -0.328125q-0.359375 -0.34375 -0.359375 -0.828125q0 -0.515625 0.359375 -0.84375q0.359375 -0.34375 0.9375 -0.34375q0.5625 0 0.921875 0.34375q0.359375 0.328125 0.359375 0.84375q0 0.484375 -0.359375 0.828125q-0.359375 0.328125 -0.921875 0.328125zm1.078125 0.734375l0 7.0625l-2.171875 0l0 -7.0625l2.171875 0zm3.7335815 1.171875q0.375 -0.578125 0.9375 -0.90625q0.578125 -0.34375 1.265625 -0.34375l0 2.296875l-0.59375 0q-0.796875 0 -1.203125 0.34375q-0.40625 0.34375 -0.40625 1.21875l0 3.28125l-2.171875 0l0 -7.0625l2.171875 0l0 1.171875zm9.901215 2.25q0 0.296875 -0.03125 0.625l-4.90625 0q0.0625 0.65625 0.421875 1.015625q0.375 0.34375 0.921875 0.34375q0.8125 0 1.125 -0.6875l2.3125 0q-0.1875 0.703125 -0.65625 1.265625q-0.453125 0.546875 -1.15625 0.859375q-0.6875 0.3125 -1.546875 0.3125q-1.03125 0 -1.84375 -0.4375q-0.8125 -0.4375 -1.265625 -1.265625q-0.453125 -0.828125 -0.453125 -1.921875q0 -1.09375 0.4375 -1.921875q0.453125 -0.828125 1.265625 -1.265625q0.8125 -0.4375 1.859375 -0.4375q1.03125 0 1.828125 0.4375q0.796875 0.421875 1.234375 1.21875q0.453125 0.796875 0.453125 1.859375zm-2.203125 -0.578125q0 -0.546875 -0.390625 -0.875q-0.375 -0.328125 -0.953125 -0.328125q-0.53125 0 -0.90625 0.3125q-0.375 0.3125 -0.46875 0.890625l2.71875 0zm2.9212341 0.671875q0 -1.078125 0.40625 -1.90625q0.40625 -0.828125 1.109375 -1.265625q0.71875 -0.4375 1.59375 -0.4375q0.6875 0 1.265625 0.296875q0.578125 0.28125 0.90625 0.765625l0 -3.265625l2.171875 0l0 9.359375l-2.171875 0l0 -1.015625q-0.296875 0.515625 -0.859375 0.8125q-0.5625 0.296875 -1.3125 0.296875q-0.875 0 -1.59375 -0.4375q-0.703125 -0.453125 -1.109375 -1.28125q-0.40625 -0.828125 -0.40625 -1.921875zm5.28125 0.015625q0 -0.8125 -0.453125 -1.28125q-0.4375 -0.46875 -1.09375 -0.46875q-0.640625 0 -1.09375 0.46875q-0.4375 0.453125 -0.4375 1.265625q0 0.8125 0.4375 1.296875q0.453125 0.46875 1.09375 0.46875q0.65625 0 1.09375 -0.46875q0.453125 -0.46875 0.453125 -1.28125z" fill-rule="nonzero"/><path fill="#d63384" d="m474.66727 167.68787q-0.96875 0 -1.75 -0.3125q-0.765625 -0.328125 -1.234375 -0.9375q-0.453125 -0.625 -0.484375 -1.5l2.296875 0q0.0625 0.484375 0.34375 0.75q0.296875 0.265625 0.765625 0.265625q0.484375 0 0.75 -0.21875q0.28125 -0.234375 0.28125 -0.625q0 -0.328125 -0.21875 -0.53125q-0.21875 -0.21875 -0.546875 -0.359375q-0.3125 -0.140625 -0.90625 -0.328125q-0.859375 -0.265625 -1.40625 -0.53125q-0.546875 -0.265625 -0.9375 -0.78125q-0.390625 -0.515625 -0.390625 -1.34375q0 -1.25 0.890625 -1.953125q0.90625 -0.703125 2.34375 -0.703125q1.46875 0 2.359375 0.703125q0.90625 0.703125 0.96875 1.953125l-2.34375 0q-0.015625 -0.421875 -0.3125 -0.671875q-0.296875 -0.25 -0.75 -0.25q-0.390625 0 -0.640625 0.21875q-0.234375 0.203125 -0.234375 0.59375q0 0.4375 0.40625 0.671875q0.40625 0.234375 1.265625 0.515625q0.859375 0.296875 1.390625 0.5625q0.546875 0.265625 0.9375 0.78125q0.390625 0.5 0.390625 1.296875q0 0.75 -0.390625 1.375q-0.375 0.625 -1.109375 1.0q-0.734375 0.359375 -1.734375 0.359375zm8.502319 -1.921875l0 1.828125l-1.09375 0q-1.1875 0 -1.84375 -0.578125q-0.65625 -0.578125 -0.65625 -1.875l0 -2.8125l-0.859375 0l0 -1.796875l0.859375 0l0 -1.71875l2.171875 0l0 1.71875l1.40625 0l0 1.796875l-1.40625 0l0 2.828125q0 0.328125 0.140625 0.46875q0.15625 0.140625 0.515625 0.140625l0.765625 0zm0.77905273 -1.71875q0 -1.078125 0.40625 -1.90625q0.40625 -0.828125 1.109375 -1.265625q0.71875 -0.4375 1.59375 -0.4375q0.75 0 1.3125 0.296875q0.5625 0.296875 0.859375 0.796875l0 -1.0l2.171875 0l0 7.0625l-2.171875 0l0 -1.0q-0.3125 0.5 -0.875 0.796875q-0.5625 0.296875 -1.3125 0.296875q-0.859375 0 -1.578125 -0.4375q-0.703125 -0.453125 -1.109375 -1.28125q-0.40625 -0.828125 -0.40625 -1.921875zm5.28125 0.015625q0 -0.8125 -0.453125 -1.28125q-0.4375 -0.46875 -1.09375 -0.46875q-0.640625 0 -1.09375 0.46875q-0.4375 0.453125 -0.4375 1.265625q0 0.8125 0.4375 1.296875q0.453125 0.46875 1.09375 0.46875q0.65625 0 1.09375 -0.46875q0.453125 -0.46875 0.453125 -1.28125zm7.671692 1.703125l0 1.828125l-1.09375 0q-1.1875 0 -1.84375 -0.578125q-0.65625 -0.578125 -0.65625 -1.875l0 -2.8125l-0.859375 0l0 -1.796875l0.859375 0l0 -1.71875l2.171875 0l0 1.71875l1.40625 0l0 1.796875l-1.40625 0l0 2.828125q0 0.328125 0.140625 0.46875q0.15625 0.140625 0.515625 0.140625l0.765625 0zm7.8571777 -1.8125q0 0.296875 -0.03125 0.625l-4.90625 0q0.0625 0.65625 0.421875 1.015625q0.375 0.34375 0.921875 0.34375q0.8125 0 1.125 -0.6875l2.3125 0q-0.1875 0.703125 -0.65625 1.265625q-0.453125 0.546875 -1.15625 0.859375q-0.6875 0.3125 -1.546875 0.3125q-1.03125 0 -1.84375 -0.4375q-0.8125 -0.4375 -1.265625 -1.265625q-0.453125 -0.828125 -0.453125 -1.921875q0 -1.09375 0.4375 -1.921875q0.453125 -0.828125 1.265625 -1.265625q0.8125 -0.4375 1.859375 -0.4375q1.03125 0 1.828125 0.4375q0.796875 0.421875 1.234375 1.21875q0.453125 0.796875 0.453125 1.859375zm-2.203125 -0.578125q0 -0.546875 -0.390625 -0.875q-0.375 -0.328125 -0.953125 -0.328125q-0.53125 0 -0.90625 0.3125q-0.375 0.3125 -0.46875 0.890625l2.71875 0z" fill-rule="nonzero"/></g></svg>
