<svg version="1.1" viewBox="0.0 0.0 620.0 410.0" fill="none" stroke="none" stroke-linecap="square" stroke-miterlimit="10" xmlns:xlink="http://www.w3.org/1999/xlink" xmlns="http://www.w3.org/2000/svg"><clipPath id="g3d1d8573553_0_89.0"><path d="m0 0l960.0 0l0 540.0l-960.0 0l0 -540.0z" clip-rule="nonzero"/></clipPath><g clip-path="url(#g3d1d8573553_0_89.0)"><path fill="#000000" fill-opacity="0.0" d="m0 0l960.0 0l0 540.0l-960.0 0z" fill-rule="evenodd"/><path fill="#6d9eeb" d="m53.430447 8.167979l183.37007 0l0 154.86613l-183.37007 0z" fill-rule="evenodd"/><path stroke="#1c4587" stroke-width="1.0" stroke-linejoin="round" stroke-linecap="butt" d="m53.430447 8.167979l183.37007 0l0 154.86613l-183.37007 0z" fill-rule="evenodd"/><path fill="#ffffff" d="m127.52773 35.08798l-5.34375 -5.937502l0 5.937502l-1.703125 0l0 -13.000002l1.703125 0l0 6.015625l5.359375 -6.015625l2.1562576 0l-5.9062576 6.5l5.9531326 6.500002l-2.2187576 0zm3.4876022 -5.156252q0 -1.5625 0.640625 -2.734375q0.640625 -1.1875 1.75 -1.84375q1.109375 -0.65625 2.46875 -0.65625q1.34375 0 2.328125 0.578125q0.984375 0.578125 1.46875 1.453125l0 -1.859375l1.71875 0l0 10.218752l-1.71875 0l0 -1.90625q-0.5 0.90625 -1.5 1.5q-1.0 0.578125 -2.3125 0.578125q-1.375 0 -2.46875 -0.671875q-1.09375 -0.671875 -1.734375 -1.875q-0.640625 -1.2187519 -0.640625 -2.781252zm8.65625 0.03125q0 -1.15625 -0.46875 -2.015625q-0.453125 -0.859375 -1.25 -1.3125q-0.796875 -0.46875 -1.75 -0.46875q-0.953125 0 -1.734375 0.453125q-0.78125 0.453125 -1.25 1.3125q-0.46875 0.84375 -0.46875 2.0q0 1.1875 0.46875 2.0625q0.46875 0.8593769 1.25 1.3125019q0.78125 0.453125 1.734375 0.453125q0.953125 0 1.75 -0.453125q0.796875 -0.453125 1.25 -1.3125019q0.46875 -0.875 0.46875 -2.03125zm8.752258 -3.703125l-2.140625 0l0 8.828127l-1.703125 0l0 -8.828127l-1.328125 0l0 -1.390625l1.328125 0l0 -0.734375q0 -1.71875 0.890625 -2.5q0.890625 -0.796875 2.84375 -0.796875l0 1.421875q-1.125 0 -1.578125 0.4375q-0.453125 0.4375 -0.453125 1.4375l0 0.734375l2.140625 0l0 1.390625zm7.684784 8.828127l-4.0 -4.515627l0 4.515627l-1.703125 0l0 -13.812502l1.703125 0l0 8.125l3.9375 -4.53125l2.359375 0l-4.8125 5.09375l4.828125 5.125002l-2.3125 0zm3.2642212 -5.156252q0 -1.5625 0.640625 -2.734375q0.640625 -1.1875 1.75 -1.84375q1.109375 -0.65625 2.46875 -0.65625q1.34375 0 2.328125 0.578125q0.984375 0.578125 1.46875 1.453125l0 -1.859375l1.71875 0l0 10.218752l-1.71875 0l0 -1.90625q-0.5 0.90625 -1.5 1.5q-1.0 0.578125 -2.3125 0.578125q-1.375 0 -2.46875 -0.671875q-1.09375 -0.671875 -1.734375 -1.875q-0.640625 -1.2187519 -0.640625 -2.781252zm8.65625 0.03125q0 -1.15625 -0.46875 -2.015625q-0.453125 -0.859375 -1.25 -1.3125q-0.796875 -0.46875 -1.75 -0.46875q-0.953125 0 -1.734375 0.453125q-0.78125 0.453125 -1.25 1.3125q-0.46875 0.84375 -0.46875 2.0q0 1.1875 0.46875 2.0625q0.46875 0.8593769 1.25 1.3125019q0.78125 0.453125 1.734375 0.453125q0.953125 0 1.75 -0.453125q0.796875 -0.453125 1.25 -1.3125019q0.46875 -0.875 0.46875 -2.03125z" fill-rule="nonzero"/><path fill="#99e0bb" d="m402.8609 8.141732l183.37006 0l0 154.86613l-183.37006 0z" fill-rule="evenodd"/><path stroke="#89a395" stroke-width="1.0" stroke-linejoin="round" stroke-linecap="butt" d="m402.8609 8.141732l183.37006 0l0 154.86613l-183.37006 0z" fill-rule="evenodd"/><path fill="#ffffff" d="m461.37088 35.06173l-5.34375 -5.937498l0 5.937498l-1.703125 0l0 -12.999998l1.703125 0l0 6.015625l5.359375 -6.015625l2.15625 0l-5.90625 6.5l5.953125 6.499998l-2.21875 0zm13.45636 -5.499998q0 0.484375 -0.0625 1.015625l-8.171875 0q0.09375 1.5156231 1.03125 2.374998q0.953125 0.84375 2.296875 0.84375q1.09375 0 1.828125 -0.515625q0.75 -0.515625 1.046875 -1.3749981l1.828125 0q-0.40625 1.4843731 -1.640625 2.406248q-1.234375 0.921875 -3.0625 0.921875q-1.453125 0 -2.609375 -0.65625q-1.140625 -0.65625 -1.796875 -1.859375q-0.65625 -1.2031231 -0.65625 -2.781248q0 -1.59375 0.640625 -2.78125q0.640625 -1.203125 1.78125 -1.84375q1.140625 -0.640625 2.640625 -0.640625q1.453125 0 2.5625 0.640625q1.125 0.625 1.734375 1.734375q0.609375 1.109375 0.609375 2.515625zm-1.75 -0.359375q0 -0.96875 -0.4375 -1.671875q-0.421875 -0.703125 -1.171875 -1.0625q-0.734375 -0.359375 -1.625 -0.359375q-1.28125 0 -2.1875 0.828125q-0.90625 0.8125 -1.03125 2.265625l6.453125 0zm12.801239 -4.359375l-6.171875 15.031248l-1.75 0l2.015625 -4.921875l-4.125 -10.109373l1.890625 0l3.203125 8.281248l3.171875 -8.281248l1.765625 0zm1.050354 5.09375q0 -1.59375 0.640625 -2.765625q0.640625 -1.1875 1.765625 -1.84375q1.125 -0.65625 2.578125 -0.65625q1.890625 0 3.109375 0.921875q1.21875 0.90625 1.609375 2.53125l-1.828125 0q-0.265625 -0.9375 -1.015625 -1.46875q-0.75 -0.546875 -1.875 -0.546875q-1.453125 0 -2.359375 1.0q-0.890625 1.0 -0.890625 2.828125q0 1.84375 0.890625 2.859373q0.90625 1.0 2.359375 1.0q1.125 0 1.859375 -0.515625q0.75 -0.53125 1.03125 -1.4999981l1.828125 0q-0.40625 1.5624981 -1.640625 2.515623q-1.234375 0.9375 -3.078125 0.9375q-1.453125 0 -2.578125 -0.65625q-1.125 -0.65625 -1.765625 -1.84375q-0.640625 -1.2031231 -0.640625 -2.796873zm13.668091 -8.6875l0 13.812498l-1.703125 0l0 -13.812498l1.703125 0zm7.3394165 13.984373q-1.4375 0 -2.609375 -0.65625q-1.15625 -0.65625 -1.828125 -1.859375q-0.65625 -1.2031231 -0.65625 -2.781248q0 -1.578125 0.6875 -2.78125q0.6875 -1.203125 1.859375 -1.84375q1.171875 -0.640625 2.625 -0.640625q1.453125 0 2.625 0.640625q1.1875 0.640625 1.859375 1.84375q0.6875 1.1875 0.6875 2.78125q0 1.578125 -0.703125 2.781248q-0.703125 1.203125 -1.90625 1.859375q-1.1875 0.65625 -2.640625 0.65625zm0 -1.5q0.921875 0 1.71875 -0.421875q0.796875 -0.4375 1.296875 -1.296875q0.5 -0.8593731 0.5 -2.078123q0 -1.234375 -0.484375 -2.09375q-0.484375 -0.859375 -1.28125 -1.28125q-0.78125 -0.421875 -1.6875 -0.421875q-0.9375 0 -1.71875 0.421875q-0.765625 0.421875 -1.234375 1.28125q-0.46875 0.859375 -0.46875 2.09375q0 1.25 0.453125 2.109373q0.46875 0.84375 1.234375 1.265625q0.765625 0.421875 1.671875 0.421875zm6.8462524 -3.828123q0 -1.5625 0.640625 -2.734375q0.640625 -1.1875 1.75 -1.84375q1.109375 -0.65625 2.46875 -0.65625q1.34375 0 2.328125 0.578125q0.984375 0.578125 1.46875 1.453125l0 -1.859375l1.71875 0l0 10.218748l-1.71875 0l0 -1.90625q-0.5 0.90625 -1.5 1.5q-1.0 0.578125 -2.3125 0.578125q-1.375 0 -2.46875 -0.671875q-1.09375 -0.671875 -1.734375 -1.875q-0.640625 -1.2187481 -0.640625 -2.781248zm8.65625 0.03125q0 -1.15625 -0.46875 -2.015625q-0.453125 -0.859375 -1.25 -1.3125q-0.796875 -0.46875 -1.75 -0.46875q-0.953125 0 -1.734375 0.453125q-0.78125 0.453125 -1.25 1.3125q-0.46875 0.84375 -0.46875 2.0q0 1.1875 0.46875 2.0625q0.46875 0.8593731 1.25 1.3124981q0.78125 0.453125 1.734375 0.453125q0.953125 0 1.75 -0.453125q0.796875 -0.453125 1.25 -1.3124981q0.46875 -0.875 0.46875 -2.03125zm10.299133 5.124998l-4.0 -4.515623l0 4.515623l-1.703125 0l0 -13.812498l1.703125 0l0 8.125l3.9375 -4.53125l2.359375 0l-4.8125 5.09375l4.828125 5.124998l-2.3125 0z" fill-rule="nonzero"/><path fill="#ffffff" d="m8.251968 262.60638l106.519684 0l0 87.055115l-106.519684 0z" fill-rule="evenodd"/><path stroke="#1c4587" stroke-width="1.0" stroke-linejoin="round" stroke-linecap="butt" d="m8.251968 262.60638l106.519684 0l0 87.055115l-106.519684 0z" fill-rule="evenodd"/><path fill="#000000" d="m39.85971 277.53198q0 1.09375 -0.765625 1.828125q-0.75 0.71875 -2.28125 0.71875l-1.703125 0l0 3.6875l-1.15625 0l0 -8.828125l2.859375 0q1.484375 0 2.265625 0.734375q0.78125 0.71875 0.78125 1.859375zm-3.046875 1.609375q0.953125 0 1.40625 -0.421875q0.453125 -0.421875 0.453125 -1.1875q0 -1.640625 -1.859375 -1.640625l-1.703125 0l0 3.25l1.703125 0zm5.624817 -1.1875q0.3125 -0.59375 0.875 -0.921875q0.5625 -0.328125 1.359375 -0.328125l0 1.1875l-0.296875 0q-1.9375 0 -1.9375 2.109375l0 3.765625l-1.15625 0l0 -6.9375l1.15625 0l0 1.125zm6.595764 5.921875q-0.96875 0 -1.765625 -0.4375q-0.796875 -0.4375 -1.25 -1.25q-0.4375 -0.828125 -0.4375 -1.90625q0 -1.0625 0.453125 -1.875q0.46875 -0.8125 1.265625 -1.25q0.796875 -0.4375 1.78125 -0.4375q0.984375 0 1.78125 0.4375q0.796875 0.4375 1.265625 1.25q0.46875 0.796875 0.46875 1.875q0 1.078125 -0.484375 1.90625q-0.46875 0.8125 -1.28125 1.25q-0.8125 0.4375 -1.796875 0.4375zm0 -1.015625q0.625 0 1.15625 -0.28125q0.546875 -0.296875 0.875 -0.875q0.34375 -0.578125 0.34375 -1.421875q0 -0.828125 -0.328125 -1.40625q-0.328125 -0.59375 -0.859375 -0.875q-0.53125 -0.28125 -1.15625 -0.28125q-0.625 0 -1.15625 0.28125q-0.515625 0.28125 -0.84375 0.875q-0.3125 0.578125 -0.3125 1.40625q0 0.859375 0.3125 1.4375q0.3125 0.578125 0.828125 0.859375q0.515625 0.28125 1.140625 0.28125zm4.6468506 -2.59375q0 -1.0625 0.421875 -1.859375q0.4375 -0.796875 1.1875 -1.234375q0.75 -0.453125 1.6875 -0.453125q0.8125 0 1.5 0.375q0.703125 0.375 1.078125 0.984375l0 -3.671875l1.15625 0l0 9.359375l-1.15625 0l0 -1.296875q-0.34375 0.609375 -1.015625 1.015625q-0.671875 0.390625 -1.578125 0.390625q-0.921875 0 -1.671875 -0.453125q-0.75 -0.453125 -1.1875 -1.265625q-0.421875 -0.828125 -0.421875 -1.890625zm5.875 0.015625q0 -0.78125 -0.328125 -1.359375q-0.3125 -0.578125 -0.859375 -0.890625q-0.53125 -0.3125 -1.171875 -0.3125q-0.640625 0 -1.171875 0.3125q-0.53125 0.296875 -0.859375 0.875q-0.3125 0.578125 -0.3125 1.359375q0 0.796875 0.3125 1.390625q0.328125 0.59375 0.859375 0.90625q0.53125 0.296875 1.171875 0.296875q0.640625 0 1.171875 -0.296875q0.546875 -0.3125 0.859375 -0.90625q0.328125 -0.59375 0.328125 -1.375zm9.258728 -3.453125l0 6.9375l-1.15625 0l0 -1.03125q-0.328125 0.53125 -0.921875 0.828125q-0.578125 0.296875 -1.28125 0.296875q-0.8125 0 -1.46875 -0.328125q-0.640625 -0.328125 -1.015625 -1.0q-0.375 -0.671875 -0.375 -1.640625l0 -4.0625l1.140625 0l0 3.90625q0 1.03125 0.515625 1.578125q0.53125 0.546875 1.421875 0.546875q0.921875 0 1.453125 -0.5625q0.53125 -0.5625 0.53125 -1.65625l0 -3.8125l1.15625 0zm1.5218506 3.453125q0 -1.078125 0.421875 -1.875q0.4375 -0.796875 1.203125 -1.234375q0.765625 -0.453125 1.75 -0.453125q1.28125 0 2.109375 0.625q0.828125 0.609375 1.09375 1.71875l-1.234375 0q-0.1875 -0.640625 -0.703125 -1.0q-0.5 -0.375 -1.265625 -0.375q-0.984375 0 -1.59375 0.6875q-0.609375 0.671875 -0.609375 1.90625q0 1.25 0.609375 1.9375q0.609375 0.6875 1.59375 0.6875q0.765625 0 1.265625 -0.34375q0.5 -0.359375 0.703125 -1.03125l1.234375 0q-0.28125 1.0625 -1.125 1.703125q-0.828125 0.640625 -2.078125 0.640625q-0.984375 0 -1.75 -0.4375q-0.765625 -0.4375 -1.203125 -1.25q-0.421875 -0.8125 -0.421875 -1.90625zm14.432327 -0.25q0 0.328125 -0.03125 0.703125l-5.546875 0q0.0625 1.015625 0.703125 1.59375q0.640625 0.578125 1.546875 0.578125q0.75 0 1.25 -0.34375q0.5 -0.359375 0.703125 -0.9375l1.234375 0q-0.265625 1.0 -1.109375 1.625q-0.828125 0.625 -2.078125 0.625q-0.984375 0 -1.765625 -0.4375q-0.765625 -0.4375 -1.21875 -1.25q-0.4375 -0.828125 -0.4375 -1.90625q0 -1.078125 0.421875 -1.875q0.4375 -0.8125 1.21875 -1.25q0.78125 -0.4375 1.78125 -0.4375q1.0 0 1.75 0.4375q0.765625 0.421875 1.171875 1.171875q0.40625 0.75 0.40625 1.703125zm-1.1875 -0.234375q0 -0.65625 -0.296875 -1.125q-0.28125 -0.484375 -0.78125 -0.734375q-0.5 -0.25 -1.109375 -0.25q-0.875 0 -1.484375 0.5625q-0.609375 0.546875 -0.703125 1.546875l4.375 0zm3.8624725 -1.84375q0.3125 -0.59375 0.875 -0.921875q0.5625 -0.328125 1.359375 -0.328125l0 1.1875l-0.296875 0q-1.9375 0 -1.9375 2.109375l0 3.765625l-1.15625 0l0 -6.9375l1.15625 0l0 1.125z" fill-rule="nonzero"/><path fill="#000000" d="m43.78311 294.5445q0 -1.28125 0.578125 -2.3125q0.578125 -1.03125 1.578125 -1.609375q1.015625 -0.59375 2.25 -0.59375q1.4375 0 2.515625 0.703125q1.078125 0.6875 1.5625 1.96875l-1.375 0q-0.359375 -0.796875 -1.0625 -1.21875q-0.6875 -0.4375 -1.640625 -0.4375q-0.921875 0 -1.65625 0.4375q-0.734375 0.421875 -1.15625 1.21875q-0.421875 0.78125 -0.421875 1.84375q0 1.0625 0.421875 1.859375q0.421875 0.78125 1.15625 1.21875q0.734375 0.421875 1.65625 0.421875q0.953125 0 1.640625 -0.421875q0.703125 -0.421875 1.0625 -1.21875l1.375 0q-0.484375 1.265625 -1.5625 1.953125q-1.078125 0.6875 -2.515625 0.6875q-1.234375 0 -2.25 -0.578125q-1.0 -0.578125 -1.578125 -1.59375q-0.578125 -1.03125 -0.578125 -2.328125zm11.348724 -4.9375l0 9.359375l-1.15625 0l0 -9.359375l1.15625 0zm2.5509338 1.296875q-0.328125 0 -0.5625 -0.21875q-0.21875 -0.234375 -0.21875 -0.5625q0 -0.328125 0.21875 -0.546875q0.234375 -0.234375 0.5625 -0.234375q0.328125 0 0.546875 0.234375q0.21875 0.21875 0.21875 0.546875q0 0.328125 -0.21875 0.5625q-0.21875 0.21875 -0.546875 0.21875zm0.5625 1.125l0 6.9375l-1.15625 0l0 -6.9375l1.15625 0zm8.285309 3.203125q0 0.328125 -0.03125 0.703125l-5.546875 0q0.0625 1.015625 0.703125 1.59375q0.640625 0.578125 1.546875 0.578125q0.75 0 1.25 -0.34375q0.5 -0.359375 0.703125 -0.9375l1.234375 0q-0.265625 1.0 -1.109375 1.625q-0.828125 0.625 -2.078125 0.625q-0.984375 0 -1.765625 -0.4375q-0.765625 -0.4375 -1.21875 -1.25q-0.4375 -0.828125 -0.4375 -1.90625q0 -1.078125 0.421875 -1.875q0.4375 -0.8125 1.21875 -1.25q0.78125 -0.4375 1.78125 -0.4375q1.0 0 1.75 0.4375q0.765625 0.421875 1.171875 1.171875q0.40625 0.75 0.40625 1.703125zm-1.1875 -0.234375q0 -0.65625 -0.296875 -1.125q-0.28125 -0.484375 -0.78125 -0.734375q-0.5 -0.25 -1.109375 -0.25q-0.875 0 -1.484375 0.5625q-0.609375 0.546875 -0.703125 1.546875l4.375 0zm6.0968475 -3.09375q1.265625 0 2.046875 0.765625q0.78125 0.765625 0.78125 2.203125l0 4.09375l-1.140625 0l0 -3.921875q0 -1.046875 -0.515625 -1.59375q-0.515625 -0.546875 -1.421875 -0.546875q-0.90625 0 -1.453125 0.578125q-0.53125 0.5625 -0.53125 1.65625l0 3.828125l-1.15625 0l0 -6.9375l1.15625 0l0 0.984375q0.34375 -0.53125 0.921875 -0.8125q0.59375 -0.296875 1.3125 -0.296875zm6.1156006 1.078125l0 4.09375q0 0.5 0.21875 0.71875q0.21875 0.203125 0.75 0.203125l0.84375 0l0 0.96875l-1.03125 0q-0.96875 0 -1.453125 -0.4375q-0.46875 -0.453125 -0.46875 -1.453125l0 -4.09375l-0.90625 0l0 -0.953125l0.90625 0l0 -1.75l1.140625 0l0 1.75l1.8125 0l0 0.953125l-1.8125 0z" fill-rule="nonzero"/><path fill="#000000" fill-opacity="0.0" d="m95.902885 257.0971l0 -93.291336" fill-rule="evenodd"/><path stroke="#d63384" stroke-width="2.0" stroke-linejoin="round" stroke-linecap="butt" d="m95.902885 257.0971l0 -81.291336" fill-rule="evenodd"/><path fill="#d63384" stroke="#d63384" stroke-width="2.0" stroke-linecap="butt" d="m99.20635 175.80577l-3.3034668 -9.076187l-3.3034668 9.076187z" fill-rule="evenodd"/><path fill="#ffffff" d="m172.52231 263.30188l106.519684 0l0 87.055115l-106.519684 0z" fill-rule="evenodd"/><path stroke="#1c4587" stroke-width="1.0" stroke-linejoin="round" stroke-linecap="butt" d="m172.52231 263.30188l106.519684 0l0 87.055115l-106.519684 0z" fill-rule="evenodd"/><path fill="#000000" d="m193.18874 280.04q0 -1.28125 0.578125 -2.3125q0.578125 -1.03125 1.578125 -1.609375q1.015625 -0.59375 2.25 -0.59375q1.4375 0 2.515625 0.703125q1.078125 0.6875 1.5625 1.96875l-1.375 0q-0.359375 -0.796875 -1.0625 -1.21875q-0.6875 -0.4375 -1.640625 -0.4375q-0.921875 0 -1.65625 0.4375q-0.734375 0.421875 -1.15625 1.21875q-0.421875 0.78125 -0.421875 1.84375q0 1.0625 0.421875 1.859375q0.421875 0.78125 1.15625 1.21875q0.734375 0.421875 1.65625 0.421875q0.953125 0 1.640625 -0.421875q0.703125 -0.421875 1.0625 -1.21875l1.375 0q-0.484375 1.265625 -1.5625 1.953125q-1.078125 0.6875 -2.515625 0.6875q-1.234375 0 -2.25 -0.578125q-1.0 -0.578125 -1.578125 -1.59375q-0.578125 -1.03125 -0.578125 -2.328125zm13.223724 4.53125q-0.96875 0 -1.765625 -0.4375q-0.796875 -0.4375 -1.25 -1.25q-0.4375 -0.828125 -0.4375 -1.90625q0 -1.0625 0.453125 -1.875q0.46875 -0.8125 1.265625 -1.25q0.796875 -0.4375 1.78125 -0.4375q0.984375 0 1.78125 0.4375q0.796875 0.4375 1.265625 1.25q0.46875 0.796875 0.46875 1.875q0 1.078125 -0.484375 1.90625q-0.46875 0.8125 -1.28125 1.25q-0.8125 0.4375 -1.796875 0.4375zm0 -1.015625q0.625 0 1.15625 -0.28125q0.546875 -0.296875 0.875 -0.875q0.34375 -0.578125 0.34375 -1.421875q0 -0.828125 -0.328125 -1.40625q-0.328125 -0.59375 -0.859375 -0.875q-0.53125 -0.28125 -1.15625 -0.28125q-0.625 0 -1.15625 0.28125q-0.515625 0.28125 -0.84375 0.875q-0.3125 0.578125 -0.3125 1.40625q0 0.859375 0.3125 1.4375q0.3125 0.578125 0.828125 0.859375q0.515625 0.28125 1.140625 0.28125zm8.459351 -6.15625q1.265625 0 2.046875 0.765625q0.78125 0.765625 0.78125 2.203125l0 4.09375l-1.140625 0l0 -3.921875q0 -1.046875 -0.515625 -1.59375q-0.515625 -0.546875 -1.421875 -0.546875q-0.90625 0 -1.453125 0.578125q-0.53125 0.5625 -0.53125 1.65625l0 3.828125l-1.15625 0l0 -6.9375l1.15625 0l0 0.984375q0.34375 -0.53125 0.921875 -0.8125q0.59375 -0.296875 1.3125 -0.296875zm7.1781006 7.171875q-0.8125 0 -1.453125 -0.265625q-0.625 -0.28125 -1.0 -0.765625q-0.359375 -0.484375 -0.390625 -1.109375l1.1875 0q0.046875 0.515625 0.484375 0.84375q0.4375 0.328125 1.15625 0.328125q0.65625 0 1.03125 -0.28125q0.375 -0.296875 0.375 -0.75q0 -0.453125 -0.40625 -0.671875q-0.390625 -0.21875 -1.25 -0.4375q-0.765625 -0.203125 -1.25 -0.40625q-0.484375 -0.21875 -0.84375 -0.625q-0.34375 -0.40625 -0.34375 -1.078125q0 -0.53125 0.3125 -0.96875q0.3125 -0.453125 0.890625 -0.703125q0.59375 -0.265625 1.34375 -0.265625q1.140625 0 1.84375 0.578125q0.71875 0.578125 0.765625 1.59375l-1.140625 0q-0.046875 -0.546875 -0.453125 -0.875q-0.390625 -0.328125 -1.0625 -0.328125q-0.609375 0 -0.984375 0.265625q-0.359375 0.265625 -0.359375 0.703125q0 0.34375 0.21875 0.5625q0.21875 0.21875 0.546875 0.359375q0.34375 0.125 0.9375 0.296875q0.75 0.1875 1.21875 0.390625q0.46875 0.203125 0.796875 0.59375q0.34375 0.390625 0.359375 1.015625q0 0.578125 -0.328125 1.03125q-0.3125 0.453125 -0.890625 0.71875q-0.578125 0.25 -1.3125 0.25zm10.294037 -7.046875l0 6.9375l-1.15625 0l0 -1.03125q-0.328125 0.53125 -0.921875 0.828125q-0.578125 0.296875 -1.28125 0.296875q-0.8125 0 -1.46875 -0.328125q-0.640625 -0.328125 -1.015625 -1.0q-0.375 -0.671875 -0.375 -1.640625l0 -4.0625l1.140625 0l0 3.90625q0 1.03125 0.515625 1.578125q0.53125 0.546875 1.421875 0.546875q0.921875 0 1.453125 -0.5625q0.53125 -0.5625 0.53125 -1.65625l0 -3.8125l1.15625 0zm10.287476 -0.125q0.8125 0 1.4375 0.34375q0.640625 0.328125 1.0 1.0q0.375 0.671875 0.375 1.625l0 4.09375l-1.140625 0l0 -3.921875q0 -1.046875 -0.515625 -1.59375q-0.515625 -0.546875 -1.375 -0.546875q-0.90625 0 -1.4375 0.578125q-0.53125 0.578125 -0.53125 1.65625l0 3.828125l-1.140625 0l0 -3.921875q0 -1.046875 -0.515625 -1.59375q-0.5 -0.546875 -1.375 -0.546875q-0.90625 0 -1.4375 0.578125q-0.53125 0.578125 -0.53125 1.65625l0 3.828125l-1.15625 0l0 -6.9375l1.15625 0l0 1.0q0.34375 -0.546875 0.921875 -0.828125q0.578125 -0.296875 1.265625 -0.296875q0.875 0 1.546875 0.390625q0.671875 0.390625 1.0 1.15625q0.296875 -0.734375 0.96875 -1.140625q0.671875 -0.40625 1.484375 -0.40625zm11.020279 3.328125q0 0.328125 -0.03125 0.703125l-5.546875 0q0.0625 1.015625 0.703125 1.59375q0.640625 0.578125 1.546875 0.578125q0.75 0 1.25 -0.34375q0.5 -0.359375 0.703125 -0.9375l1.234375 0q-0.265625 1.0 -1.109375 1.625q-0.828125 0.625 -2.078125 0.625q-0.984375 0 -1.765625 -0.4375q-0.765625 -0.4375 -1.21875 -1.25q-0.4375 -0.828125 -0.4375 -1.90625q0 -1.078125 0.421875 -1.875q0.4375 -0.8125 1.21875 -1.25q0.78125 -0.4375 1.78125 -0.4375q1.0 0 1.75 0.4375q0.765625 0.421875 1.171875 1.171875q0.40625 0.75 0.40625 1.703125zm-1.1875 -0.234375q0 -0.65625 -0.296875 -1.125q-0.28125 -0.484375 -0.78125 -0.734375q-0.5 -0.25 -1.109375 -0.25q-0.875 0 -1.484375 0.5625q-0.609375 0.546875 -0.703125 1.546875l4.375 0zm3.8624878 -1.84375q0.3125 -0.59375 0.875 -0.921875q0.5625 -0.328125 1.359375 -0.328125l0 1.1875l-0.296875 0q-1.9375 0 -1.9375 2.109375l0 3.765625l-1.1562653 0l0 -6.9375l1.1562653 0l0 1.125z" fill-rule="nonzero"/><path fill="#000000" d="m208.05345 295.24002q0 -1.28125 0.578125 -2.3125q0.578125 -1.03125 1.578125 -1.609375q1.015625 -0.59375 2.25 -0.59375q1.4375 0 2.515625 0.703125q1.078125 0.6875 1.5625 1.96875l-1.375 0q-0.359375 -0.796875 -1.0625 -1.21875q-0.6875 -0.4375 -1.640625 -0.4375q-0.921875 0 -1.65625 0.4375q-0.734375 0.421875 -1.15625 1.21875q-0.421875 0.78125 -0.421875 1.84375q0 1.0625 0.421875 1.859375q0.421875 0.78125 1.15625 1.21875q0.734375 0.421875 1.65625 0.421875q0.953125 0 1.640625 -0.421875q0.703125 -0.421875 1.0625 -1.21875l1.375 0q-0.484375 1.265625 -1.5625 1.953125q-1.078125 0.6875 -2.515625 0.6875q-1.234375 0 -2.25 -0.578125q-1.0 -0.578125 -1.578125 -1.59375q-0.578125 -1.03125 -0.578125 -2.328125zm11.348724 -4.9375l0 9.359375l-1.15625 0l0 -9.359375l1.15625 0zm2.5509338 1.296875q-0.328125 0 -0.5625 -0.21875q-0.21875 -0.234375 -0.21875 -0.5625q0 -0.328125 0.21875 -0.546875q0.234375 -0.234375 0.5625 -0.234375q0.328125 0 0.546875 0.234375q0.21875 0.21875 0.21875 0.546875q0 0.328125 -0.21875 0.5625q-0.21875 0.21875 -0.546875 0.21875zm0.5625 1.125l0 6.9375l-1.15625 0l0 -6.9375l1.15625 0zm8.285309 3.203125q0 0.328125 -0.03125 0.703125l-5.546875 0q0.0625 1.015625 0.703125 1.59375q0.640625 0.578125 1.546875 0.578125q0.75 0 1.25 -0.34375q0.5 -0.359375 0.703125 -0.9375l1.234375 0q-0.265625 1.0 -1.109375 1.625q-0.828125 0.625 -2.078125 0.625q-0.984375 0 -1.765625 -0.4375q-0.765625 -0.4375 -1.21875 -1.25q-0.4375 -0.828125 -0.4375 -1.90625q0 -1.078125 0.421875 -1.875q0.4375 -0.8125 1.21875 -1.25q0.78125 -0.4375 1.78125 -0.4375q1.0 0 1.75 0.4375q0.765625 0.421875 1.171875 1.171875q0.40625 0.75 0.40625 1.703125zm-1.1875 -0.234375q0 -0.65625 -0.296875 -1.125q-0.28125 -0.484375 -0.78125 -0.734375q-0.5 -0.25 -1.109375 -0.25q-0.875 0 -1.484375 0.5625q-0.609375 0.546875 -0.703125 1.546875l4.375 0zm6.0968475 -3.09375q1.265625 0 2.046875 0.765625q0.78125 0.765625 0.78125 2.203125l0 4.09375l-1.140625 0l0 -3.921875q0 -1.046875 -0.515625 -1.59375q-0.515625 -0.546875 -1.421875 -0.546875q-0.90625 0 -1.453125 0.578125q-0.53125 0.5625 -0.53125 1.65625l0 3.828125l-1.15625 0l0 -6.9375l1.15625 0l0 0.984375q0.34375 -0.53125 0.921875 -0.8125q0.59375 -0.296875 1.3125 -0.296875zm6.1156006 1.078125l0 4.09375q0 0.5 0.21875 0.71875q0.21875 0.203125 0.75 0.203125l0.84375 0l0 0.96875l-1.03125 0q-0.96875 0 -1.453125 -0.4375q-0.46875 -0.453125 -0.46875 -1.453125l0 -4.09375l-0.90625 0l0 -0.953125l0.90625 0l0 -1.75l1.140625 0l0 1.75l1.8125 0l0 0.953125l-1.8125 0z" fill-rule="nonzero"/><path fill="#d63384" d="m43.989445 202.35306l50.834644 0l0 18.141739l-50.834644 0z" fill-rule="evenodd"/><path stroke="#d63384" stroke-width="1.0" stroke-linejoin="round" stroke-linecap="butt" d="m43.989445 202.35306l50.834644 0l0 18.141739l-50.834644 0z" fill-rule="evenodd"/><path fill="#fcfcfc" d="m59.047295 207.74205l0 0.78125l-2.015625 0l0 6.640625l-0.984375 0l0 -6.640625l-2.03125 0l0 -0.78125l5.03125 0zm3.749466 7.515625q-0.828125 0 -1.5 -0.375q-0.65625 -0.375 -1.046875 -1.0625q-0.375 -0.6875 -0.375 -1.59375q0 -0.890625 0.390625 -1.578125q0.390625 -0.6875 1.0625 -1.046875q0.671875 -0.375 1.5 -0.375q0.828125 0 1.5 0.375q0.671875 0.359375 1.0625 1.046875q0.390625 0.671875 0.390625 1.578125q0 0.90625 -0.40625 1.59375q-0.390625 0.6875 -1.078125 1.0625q-0.671875 0.375 -1.5 0.375zm0 -0.84375q0.515625 0 0.96875 -0.25q0.46875 -0.25 0.75 -0.734375q0.28125 -0.5 0.28125 -1.203125q0 -0.703125 -0.28125 -1.1875q-0.28125 -0.484375 -0.734375 -0.71875q-0.4375 -0.25 -0.953125 -0.25q-0.546875 0 -0.984375 0.25q-0.4375 0.234375 -0.703125 0.71875q-0.265625 0.484375 -0.265625 1.1875q0 0.71875 0.25 1.21875q0.265625 0.484375 0.703125 0.734375q0.4375 0.234375 0.96875 0.234375zm7.5231934 0.75l-2.28125 -2.578125l0 2.578125l-0.96875 0l0 -7.890625l0.96875 0l0 4.640625l2.234375 -2.59375l1.359375 0l-2.75 2.90625l2.765625 2.9375l-1.328125 0zm7.566147 -3.140625q0 0.28125 -0.046875 0.578125l-4.65625 0q0.046875 0.875 0.578125 1.359375q0.546875 0.484375 1.3125 0.484375q0.625 0 1.046875 -0.296875q0.421875 -0.296875 0.59375 -0.78125l1.046875 0q-0.234375 0.84375 -0.9375 1.375q-0.703125 0.515625 -1.75 0.515625q-0.828125 0 -1.484375 -0.375q-0.65625 -0.375 -1.03125 -1.0625q-0.375 -0.6875 -0.375 -1.59375q0 -0.90625 0.359375 -1.578125q0.375 -0.6875 1.03125 -1.046875q0.65625 -0.375 1.5 -0.375q0.828125 0 1.46875 0.359375q0.640625 0.359375 0.984375 1.0q0.359375 0.640625 0.359375 1.4375zm-1.015625 -0.203125q0 -0.5625 -0.25 -0.953125q-0.234375 -0.40625 -0.65625 -0.609375q-0.421875 -0.203125 -0.9375 -0.203125q-0.734375 0 -1.25 0.46875q-0.515625 0.46875 -0.59375 1.296875l3.6875 0zm5.138199 -2.609375q1.0625 0 1.71875 0.65625q0.65625 0.640625 0.65625 1.859375l0 3.4375l-0.953125 0l0 -3.296875q0 -0.875 -0.4375 -1.34375q-0.4375 -0.46875 -1.1875 -0.46875q-0.765625 0 -1.21875 0.484375q-0.453125 0.484375 -0.453125 1.390625l0 3.234375l-0.96875 0l0 -5.84375l0.96875 0l0 0.828125q0.28125 -0.4375 0.765625 -0.6875q0.5 -0.25 1.109375 -0.25z" fill-rule="nonzero"/><path fill="#a4c2f4" d="m44.004105 220.86801l50.83465 0l0 25.826767l-50.83465 0z" fill-rule="evenodd"/><path stroke="#a4c2f4" stroke-width="1.0" stroke-linejoin="round" stroke-linecap="butt" d="m44.004105 220.86801l50.83465 0l0 25.826767l-50.83465 0z" fill-rule="evenodd"/><path fill="#fcfcfc" d="m59.651867 225.09952q1.203125 0 2.09375 0.453125q0.890625 0.453125 1.359375 1.296875q0.484375 0.828125 0.484375 1.96875q0 1.140625 -0.484375 1.984375q-0.46875 0.828125 -1.359375 1.28125q-0.890625 0.4375 -2.09375 0.4375l-2.3125 0l0 -7.421875l2.3125 0zm0 6.625q1.4375 0 2.1875 -0.765625q0.75 -0.765625 0.75 -2.140625q0 -1.375 -0.765625 -2.15625q-0.75 -0.78125 -2.171875 -0.78125l-1.34375 0l0 5.84375l1.34375 0zm4.8465385 -2.140625q0 -0.90625 0.359375 -1.578125q0.375 -0.671875 1.0 -1.046875q0.640625 -0.375 1.421875 -0.375q0.765625 0 1.328125 0.328125q0.5625 0.328125 0.84375 0.828125l0 -1.0625l0.984375 0l0 5.84375l-0.984375 0l0 -1.09375q-0.296875 0.515625 -0.875 0.859375q-0.5625 0.328125 -1.3125 0.328125q-0.78125 0 -1.40625 -0.375q-0.625 -0.390625 -1.0 -1.078125q-0.359375 -0.703125 -0.359375 -1.578125zm4.953125 0q0 -0.65625 -0.265625 -1.140625q-0.265625 -0.5 -0.71875 -0.75q-0.453125 -0.265625 -1.0 -0.265625q-0.546875 0 -1.0 0.265625q-0.4375 0.25 -0.703125 0.734375q-0.265625 0.484375 -0.265625 1.15625q0 0.671875 0.265625 1.171875q0.265625 0.484375 0.703125 0.75q0.453125 0.265625 1.0 0.265625q0.546875 0 1.0 -0.265625q0.453125 -0.265625 0.71875 -0.75q0.265625 -0.5 0.265625 -1.171875zm3.7974548 -2.109375l0 3.453125q0 0.421875 0.171875 0.59375q0.1875 0.171875 0.640625 0.171875l0.71875 0l0 0.828125l-0.875 0q-0.8125 0 -1.21875 -0.375q-0.40625 -0.375 -0.40625 -1.21875l0 -3.453125l-0.75 0l0 -0.796875l0.75 0l0 -1.46875l0.96875 0l0 1.46875l1.53125 0l0 0.796875l-1.53125 0zm2.3320465 2.109375q0 -0.90625 0.359375 -1.578125q0.375 -0.671875 1.0 -1.046875q0.640625 -0.375 1.421875 -0.375q0.765625 0 1.328125 0.328125q0.5625 0.328125 0.84375 0.828125l0 -1.0625l0.984375 0l0 5.84375l-0.984375 0l0 -1.09375q-0.296875 0.515625 -0.875 0.859375q-0.5625 0.328125 -1.3125 0.328125q-0.78125 0 -1.40625 -0.375q-0.625 -0.390625 -1.0 -1.078125q-0.359375 -0.703125 -0.359375 -1.578125zm4.953125 0q0 -0.65625 -0.265625 -1.140625q-0.265625 -0.5 -0.71875 -0.75q-0.453125 -0.265625 -1.0 -0.265625q-0.546875 0 -1.0 0.265625q-0.4375 0.25 -0.703125 0.734375q-0.265625 0.484375 -0.265625 1.15625q0 0.671875 0.265625 1.171875q0.265625 0.484375 0.703125 0.75q0.453125 0.265625 1.0 0.265625q0.546875 0 1.0 -0.265625q0.453125 -0.265625 0.71875 -0.75q0.265625 -0.5 0.265625 -1.171875z" fill-rule="nonzero"/><path fill="#fcfcfc" d="m58.34244 237.8364l0 -0.65625l1.515625 0l0 5.78125l-0.734375 0l0 -5.125l-0.78125 0zm2.763092 2.171875q0 -1.375 0.4375 -2.140625q0.453125 -0.78125 1.578125 -0.78125q1.1093712 0 1.5468712 0.78125q0.453125 0.765625 0.453125 2.140625q0 1.40625 -0.453125 2.1875q-0.4375 0.765625 -1.5468712 0.765625q-1.125 0 -1.578125 -0.765625q-0.4375 -0.78125 -0.4375 -2.1875zm3.2968712 0q0 -0.6875 -0.09375 -1.171875q-0.09375 -0.484375 -0.3749962 -0.78125q-0.28125 -0.296875 -0.8125 -0.296875q-0.546875 0 -0.828125 0.296875q-0.28125 0.296875 -0.375 0.78125q-0.09375 0.484375 -0.09375 1.171875q0 0.71875 0.09375 1.21875q0.09375 0.484375 0.375 0.78125q0.28125 0.296875 0.828125 0.296875q0.53125 0 0.8125 -0.296875q0.2812462 -0.296875 0.3749962 -0.78125q0.09375 -0.5 0.09375 -1.21875zm1.523941 -2.171875l0 -0.65625l1.515625 0l0 5.78125l-0.734375 0l0 -5.125l-0.78125 0zm2.763092 2.171875q0 -1.375 0.4375 -2.140625q0.453125 -0.78125 1.578125 -0.78125q1.109375 0 1.546875 0.78125q0.453125 0.765625 0.453125 2.140625q0 1.40625 -0.453125 2.1875q-0.4375 0.765625 -1.546875 0.765625q-1.125 0 -1.578125 -0.765625q-0.4375 -0.78125 -0.4375 -2.1875zm3.296875 0q0 -0.6875 -0.09375 -1.171875q-0.09375 -0.484375 -0.375 -0.78125q-0.28125 -0.296875 -0.8125 -0.296875q-0.546875 0 -0.828125 0.296875q-0.28125 0.296875 -0.375 0.78125q-0.09375 0.484375 -0.09375 1.171875q0 0.71875 0.09375 1.21875q0.09375 0.484375 0.375 0.78125q0.28125 0.296875 0.828125 0.296875q0.53125 0 0.8125 -0.296875q0.28125 -0.296875 0.375 -0.78125q0.09375 -0.5 0.09375 -1.21875zm1.523941 -2.171875l0 -0.65625l1.515625 0l0 5.78125l-0.734375 0l0 -5.125l-0.78125 0zm2.763092 2.171875q0 -1.375 0.4375 -2.140625q0.453125 -0.78125 1.578125 -0.78125q1.109375 0 1.546875 0.78125q0.453125 0.765625 0.453125 2.140625q0 1.40625 -0.453125 2.1875q-0.4375 0.765625 -1.546875 0.765625q-1.125 0 -1.578125 -0.765625q-0.4375 -0.78125 -0.4375 -2.1875zm3.296875 0q0 -0.6875 -0.09375 -1.171875q-0.09375 -0.484375 -0.375 -0.78125q-0.28125 -0.296875 -0.8125 -0.296875q-0.546875 0 -0.828125 0.296875q-0.28125 0.296875 -0.375 0.78125q-0.09375 0.484375 -0.09375 1.171875q0 0.71875 0.09375 1.21875q0.09375 0.484375 0.375 0.78125q0.28125 0.296875 0.828125 0.296875q0.53125 0 0.8125 -0.296875q0.28125 -0.296875 0.375 -0.78125q0.09375 -0.5 0.09375 -1.21875z" fill-rule="nonzero"/><path fill="#000000" fill-opacity="0.0" d="m189.58267 259.82547l0 -93.29135" fill-rule="evenodd"/><path stroke="#d63384" stroke-width="2.0" stroke-linejoin="round" stroke-linecap="butt" d="m189.58267 259.82547l0 -81.29135" fill-rule="evenodd"/><path fill="#d63384" stroke="#d63384" stroke-width="2.0" stroke-linecap="butt" d="m192.88614 178.53412l-3.3034668 -9.076187l-3.3034668 9.076187z" fill-rule="evenodd"/><path fill="#d63384" d="m138.74797 201.3812l50.834656 0l0 18.141739l-50.834656 0z" fill-rule="evenodd"/><path stroke="#d63384" stroke-width="1.0" stroke-linejoin="round" stroke-linecap="butt" d="m138.74797 201.3812l50.834656 0l0 18.141739l-50.834656 0z" fill-rule="evenodd"/><path fill="#fcfcfc" d="m153.80582 206.77019l0 0.78125l-2.015625 0l0 6.640625l-0.984375 0l0 -6.640625l-2.03125 0l0 -0.78125l5.03125 0zm3.749466 7.515625q-0.828125 0 -1.5 -0.375q-0.65625 -0.375 -1.046875 -1.0625q-0.375 -0.6875 -0.375 -1.59375q0 -0.890625 0.390625 -1.578125q0.390625 -0.6875 1.0625 -1.046875q0.671875 -0.375 1.5 -0.375q0.828125 0 1.5 0.375q0.671875 0.359375 1.0625 1.046875q0.390625 0.671875 0.390625 1.578125q0 0.90625 -0.40625 1.59375q-0.390625 0.6875 -1.078125 1.0625q-0.671875 0.375 -1.5 0.375zm0 -0.84375q0.515625 0 0.96875 -0.25q0.46875 -0.25 0.75 -0.734375q0.28125 -0.5 0.28125 -1.203125q0 -0.703125 -0.28125 -1.1875q-0.28125 -0.484375 -0.734375 -0.71875q-0.4375 -0.25 -0.953125 -0.25q-0.546875 0 -0.984375 0.25q-0.4375 0.234375 -0.703125 0.71875q-0.265625 0.484375 -0.265625 1.1875q0 0.71875 0.25 1.21875q0.265625 0.484375 0.703125 0.734375q0.4375 0.234375 0.96875 0.234375zm7.5231934 0.75l-2.28125 -2.578125l0 2.578125l-0.96875 0l0 -7.890625l0.96875 0l0 4.640625l2.234375 -2.59375l1.359375 0l-2.75 2.90625l2.765625 2.9375l-1.328125 0zm7.566147 -3.140625q0 0.28125 -0.046875 0.578125l-4.65625 0q0.046875 0.875 0.578125 1.359375q0.546875 0.484375 1.3125 0.484375q0.625 0 1.046875 -0.296875q0.421875 -0.296875 0.59375 -0.78125l1.046875 0q-0.234375 0.84375 -0.9375 1.375q-0.703125 0.515625 -1.75 0.515625q-0.828125 0 -1.484375 -0.375q-0.65625 -0.375 -1.03125 -1.0625q-0.375 -0.6875 -0.375 -1.59375q0 -0.90625 0.359375 -1.578125q0.375 -0.6875 1.03125 -1.046875q0.65625 -0.375 1.5 -0.375q0.828125 0 1.46875 0.359375q0.640625 0.359375 0.984375 1.0q0.359375 0.640625 0.359375 1.4375zm-1.015625 -0.203125q0 -0.5625 -0.25 -0.953125q-0.234375 -0.40625 -0.65625 -0.609375q-0.421875 -0.203125 -0.9375 -0.203125q-0.734375 0 -1.25 0.46875q-0.515625 0.46875 -0.59375 1.296875l3.6875 0zm5.138199 -2.609375q1.0625 0 1.71875 0.65625q0.65625 0.640625 0.65625 1.859375l0 3.4375l-0.953125 0l0 -3.296875q0 -0.875 -0.4375 -1.34375q-0.4375 -0.46875 -1.1875 -0.46875q-0.765625 0 -1.21875 0.484375q-0.453125 0.484375 -0.453125 1.390625l0 3.234375l-0.96875 0l0 -5.84375l0.96875 0l0 0.828125q0.28125 -0.4375 0.765625 -0.6875q0.5 -0.25 1.109375 -0.25z" fill-rule="nonzero"/><path fill="#000000" fill-opacity="0.0" d="m208.21523 259.82416l0 -93.29135" fill-rule="evenodd"/><path stroke="#d63384" stroke-width="2.0" stroke-linejoin="round" stroke-linecap="butt" d="m208.21523 247.82414l0 -81.291336" fill-rule="evenodd"/><path fill="#d63384" stroke="#d63384" stroke-width="2.0" stroke-linecap="butt" d="m204.91176 247.82414l3.3034668 9.076187l3.3034668 -9.076187z" fill-rule="evenodd"/><path fill="#a4c2f4" d="m209.39891 167.02325l50.83464 0l0 25.826782l-50.83464 0z" fill-rule="evenodd"/><path stroke="#a4c2f4" stroke-width="1.0" stroke-linejoin="round" stroke-linecap="butt" d="m209.39891 167.02325l50.83464 0l0 25.826782l-50.83464 0z" fill-rule="evenodd"/><path fill="#fcfcfc" d="m225.04668 171.25478q1.203125 0 2.09375 0.453125q0.890625 0.453125 1.359375 1.296875q0.484375 0.828125 0.484375 1.96875q0 1.140625 -0.484375 1.984375q-0.46875 0.828125 -1.359375 1.28125q-0.890625 0.4375 -2.09375 0.4375l-2.3125 0l0 -7.421875l2.3125 0zm0 6.625q1.4375 0 2.1875 -0.765625q0.75 -0.765625 0.75 -2.140625q0 -1.375 -0.765625 -2.15625q-0.75 -0.78125 -2.171875 -0.78125l-1.34375 0l0 5.84375l1.34375 0zm4.8465424 -2.140625q0 -0.90625 0.359375 -1.578125q0.375 -0.671875 1.0 -1.046875q0.640625 -0.375 1.421875 -0.375q0.765625 0 1.328125 0.328125q0.5625 0.328125 0.84375 0.828125l0 -1.0625l0.984375 0l0 5.84375l-0.984375 0l0 -1.09375q-0.296875 0.515625 -0.875 0.859375q-0.5625 0.328125 -1.3125 0.328125q-0.78125 0 -1.40625 -0.375q-0.625 -0.390625 -1.0 -1.078125q-0.359375 -0.703125 -0.359375 -1.578125zm4.953125 0q0 -0.65625 -0.265625 -1.140625q-0.265625 -0.5 -0.71875 -0.75q-0.453125 -0.265625 -1.0 -0.265625q-0.546875 0 -1.0 0.265625q-0.4375 0.25 -0.703125 0.734375q-0.265625 0.484375 -0.265625 1.15625q0 0.671875 0.265625 1.171875q0.265625 0.484375 0.703125 0.75q0.453125 0.265625 1.0 0.265625q0.546875 0 1.0 -0.265625q0.453125 -0.265625 0.71875 -0.75q0.265625 -0.5 0.265625 -1.171875zm3.7974548 -2.109375l0 3.453125q0 0.421875 0.171875 0.59375q0.1875 0.171875 0.640625 0.171875l0.71875 0l0 0.828125l-0.875 0q-0.8125 0 -1.21875 -0.375q-0.40625 -0.375 -0.40625 -1.21875l0 -3.453125l-0.75 0l0 -0.796875l0.75 0l0 -1.46875l0.96875 0l0 1.46875l1.53125 0l0 0.796875l-1.53125 0zm2.3320465 2.109375q0 -0.90625 0.359375 -1.578125q0.375 -0.671875 1.0 -1.046875q0.640625 -0.375 1.421875 -0.375q0.765625 0 1.328125 0.328125q0.5625 0.328125 0.84375 0.828125l0 -1.0625l0.984375 0l0 5.84375l-0.984375 0l0 -1.09375q-0.296875 0.515625 -0.875 0.859375q-0.5625 0.328125 -1.3125 0.328125q-0.78125 0 -1.40625 -0.375q-0.625 -0.390625 -1.0 -1.078125q-0.359375 -0.703125 -0.359375 -1.578125zm4.953125 0q0 -0.65625 -0.265625 -1.140625q-0.265625 -0.5 -0.71875 -0.75q-0.453125 -0.265625 -1.0 -0.265625q-0.546875 0 -1.0 0.265625q-0.4375 0.25 -0.703125 0.734375q-0.265625 0.484375 -0.265625 1.15625q0 0.671875 0.265625 1.171875q0.265625 0.484375 0.703125 0.75q0.453125 0.265625 1.0 0.265625q0.546875 0 1.0 -0.265625q0.453125 -0.265625 0.71875 -0.75q0.265625 -0.5 0.265625 -1.171875z" fill-rule="nonzero"/><path fill="#fcfcfc" d="m223.73724 183.99164l0 -0.65625l1.515625 0l0 5.78125l-0.734375 0l0 -5.125l-0.78125 0zm2.763092 2.171875q0 -1.375 0.4375 -2.140625q0.453125 -0.78125 1.578125 -0.78125q1.109375 0 1.546875 0.78125q0.453125 0.765625 0.453125 2.140625q0 1.40625 -0.453125 2.1875q-0.4375 0.765625 -1.546875 0.765625q-1.125 0 -1.578125 -0.765625q-0.4375 -0.78125 -0.4375 -2.1875zm3.296875 0q0 -0.6875 -0.09375 -1.171875q-0.09375 -0.484375 -0.375 -0.78125q-0.28125 -0.296875 -0.8125 -0.296875q-0.546875 0 -0.828125 0.296875q-0.28125 0.296875 -0.375 0.78125q-0.09375 0.484375 -0.09375 1.171875q0 0.71875 0.09375 1.21875q0.09375 0.484375 0.375 0.78125q0.28125 0.296875 0.828125 0.296875q0.53125 0 0.8125 -0.296875q0.28125 -0.296875 0.375 -0.78125q0.09375 -0.5 0.09375 -1.21875zm1.523941 -2.171875l0 -0.65625l1.515625 0l0 5.78125l-0.734375 0l0 -5.125l-0.78125 0zm2.763092 2.171875q0 -1.375 0.4375 -2.140625q0.453125 -0.78125 1.578125 -0.78125q1.109375 0 1.546875 0.78125q0.453125 0.765625 0.453125 2.140625q0 1.40625 -0.453125 2.1875q-0.4375 0.765625 -1.546875 0.765625q-1.125 0 -1.578125 -0.765625q-0.4375 -0.78125 -0.4375 -2.1875zm3.296875 0q0 -0.6875 -0.09375 -1.171875q-0.09375 -0.484375 -0.375 -0.78125q-0.28125 -0.296875 -0.8125 -0.296875q-0.546875 0 -0.828125 0.296875q-0.28125 0.296875 -0.375 0.78125q-0.09375 0.484375 -0.09375 1.171875q0 0.71875 0.09375 1.21875q0.09375 0.484375 0.375 0.78125q0.28125 0.296875 0.828125 0.296875q0.53125 0 0.8125 -0.296875q0.28125 -0.296875 0.375 -0.78125q0.09375 -0.5 0.09375 -1.21875zm1.523941 -2.171875l0 -0.65625l1.515625 0l0 5.78125l-0.734375 0l0 -5.125l-0.78125 0zm2.763092 2.171875q0 -1.375 0.4375 -2.140625q0.453125 -0.78125 1.578125 -0.78125q1.109375 0 1.546875 0.78125q0.453125 0.765625 0.453125 2.140625q0 1.40625 -0.453125 2.1875q-0.4375 0.765625 -1.546875 0.765625q-1.125 0 -1.578125 -0.765625q-0.4375 -0.78125 -0.4375 -2.1875zm3.296875 0q0 -0.6875 -0.09375 -1.171875q-0.09375 -0.484375 -0.375 -0.78125q-0.28125 -0.296875 -0.8125 -0.296875q-0.546875 0 -0.828125 0.296875q-0.28125 0.296875 -0.375 0.78125q-0.09375 0.484375 -0.09375 1.171875q0 0.71875 0.09375 1.21875q0.09375 0.484375 0.375 0.78125q0.28125 0.296875 0.828125 0.296875q0.53125 0 0.8125 -0.296875q0.28125 -0.296875 0.375 -0.78125q0.09375 -0.5 0.09375 -1.21875z" fill-rule="nonzero"/><path fill="#d63384" d="m182.34978 320.22256l86.866135 0l0 18.141754l-86.866135 0z" fill-rule="evenodd"/><path stroke="#d63384" stroke-width="1.0" stroke-linejoin="round" stroke-linecap="butt" d="m182.34978 320.22256l86.866135 0l0 18.141754l-86.866135 0z" fill-rule="evenodd"/><path fill="#fcfcfc" d="m215.42337 325.61157l0 0.78125l-2.015625 0l0 6.640625l-0.984375 0l0 -6.640625l-2.03125 0l0 -0.78125l5.03125 0zm3.749466 7.515625q-0.828125 0 -1.5 -0.375q-0.65625 -0.375 -1.046875 -1.0625q-0.375 -0.6875 -0.375 -1.59375q0 -0.890625 0.390625 -1.578125q0.390625 -0.6875 1.0625 -1.046875q0.671875 -0.375 1.5 -0.375q0.828125 0 1.5 0.375q0.671875 0.359375 1.0625 1.046875q0.390625 0.671875 0.390625 1.578125q0 0.90625 -0.40625 1.59375q-0.390625 0.6875 -1.078125 1.0625q-0.671875 0.375 -1.5 0.375zm0 -0.84375q0.515625 0 0.96875 -0.25q0.46875 -0.25 0.75 -0.734375q0.28125 -0.5 0.28125 -1.203125q0 -0.703125 -0.28125 -1.1875q-0.28125 -0.484375 -0.734375 -0.71875q-0.4375 -0.25 -0.953125 -0.25q-0.546875 0 -0.984375 0.25q-0.4375 0.234375 -0.703125 0.71875q-0.265625 0.484375 -0.265625 1.1875q0 0.71875 0.25 1.21875q0.265625 0.484375 0.703125 0.734375q0.4375 0.234375 0.96875 0.234375zm7.5231934 0.75l-2.28125 -2.578125l0 2.578125l-0.96875 0l0 -7.890625l0.96875 0l0 4.640625l2.234375 -2.59375l1.359375 0l-2.75 2.90625l2.765625 2.9375l-1.328125 0zm7.566147 -3.140625q0 0.28125 -0.046875 0.578125l-4.65625 0q0.046875 0.875 0.578125 1.359375q0.546875 0.484375 1.3125 0.484375q0.625 0 1.046875 -0.296875q0.421875 -0.296875 0.59375 -0.78125l1.046875 0q-0.234375 0.84375 -0.9375 1.375q-0.703125 0.515625 -1.75 0.515625q-0.828125 0 -1.484375 -0.375q-0.65625 -0.375 -1.03125 -1.0625q-0.375 -0.6875 -0.375 -1.59375q0 -0.90625 0.359375 -1.578125q0.375 -0.6875 1.03125 -1.046875q0.65625 -0.375 1.5 -0.375q0.828125 0 1.46875 0.359375q0.640625 0.359375 0.984375 1.0q0.359375 0.640625 0.359375 1.4375zm-1.015625 -0.203125q0 -0.5625 -0.25 -0.953125q-0.234375 -0.40625 -0.65625 -0.609375q-0.421875 -0.203125 -0.9375 -0.203125q-0.734375 0 -1.25 0.46875q-0.515625 0.46875 -0.59375 1.296875l3.6875 0zm5.138199 -2.609375q1.0625 0 1.71875 0.65625q0.65625 0.640625 0.65625 1.859375l0 3.4375l-0.953125 0l0 -3.296875q0 -0.875 -0.4375 -1.34375q-0.4375 -0.46875 -1.1875 -0.46875q-0.765625 0 -1.21875 0.484375q-0.453125 0.484375 -0.453125 1.390625l0 3.234375l-0.96875 0l0 -5.84375l0.96875 0l0 0.828125q0.28125 -0.4375 0.765625 -0.6875q0.5 -0.25 1.109375 -0.25z" fill-rule="nonzero"/><path fill="#d63384" d="m18.077543 320.22256l86.86614 0l0 18.141754l-86.86614 0z" fill-rule="evenodd"/><path stroke="#d63384" stroke-width="1.0" stroke-linejoin="round" stroke-linecap="butt" d="m18.077543 320.22256l86.86614 0l0 18.141754l-86.86614 0z" fill-rule="evenodd"/><path fill="#fcfcfc" d="m51.151142 325.61157l0 0.78125l-2.015625 0l0 6.640625l-0.984375 0l0 -6.640625l-2.03125 0l0 -0.78125l5.03125 0zm3.749466 7.515625q-0.828125 0 -1.5 -0.375q-0.65625 -0.375 -1.046875 -1.0625q-0.375 -0.6875 -0.375 -1.59375q0 -0.890625 0.390625 -1.578125q0.390625 -0.6875 1.0625 -1.046875q0.671875 -0.375 1.5 -0.375q0.828125 0 1.5 0.375q0.671875 0.359375 1.0625 1.046875q0.390625 0.671875 0.390625 1.578125q0 0.90625 -0.40625 1.59375q-0.390625 0.6875 -1.078125 1.0625q-0.671875 0.375 -1.5 0.375zm0 -0.84375q0.515625 0 0.96875 -0.25q0.46875 -0.25 0.75 -0.734375q0.28125 -0.5 0.28125 -1.203125q0 -0.703125 -0.28125 -1.1875q-0.28125 -0.484375 -0.734375 -0.71875q-0.4375 -0.25 -0.953125 -0.25q-0.546875 0 -0.984375 0.25q-0.4375 0.234375 -0.703125 0.71875q-0.265625 0.484375 -0.265625 1.1875q0 0.71875 0.25 1.21875q0.265625 0.484375 0.703125 0.734375q0.4375 0.234375 0.96875 0.234375zm7.5231934 0.75l-2.28125 -2.578125l0 2.578125l-0.96875 0l0 -7.890625l0.96875 0l0 4.640625l2.234375 -2.59375l1.359375 0l-2.75 2.90625l2.765625 2.9375l-1.328125 0zm7.566143 -3.140625q0 0.28125 -0.046875 0.578125l-4.65625 0q0.046875 0.875 0.578125 1.359375q0.546875 0.484375 1.3125 0.484375q0.625 0 1.046875 -0.296875q0.421875 -0.296875 0.59375 -0.78125l1.046875 0q-0.234375 0.84375 -0.9375 1.375q-0.703125 0.515625 -1.75 0.515625q-0.828125 0 -1.484375 -0.375q-0.65625 -0.375 -1.03125 -1.0625q-0.375 -0.6875 -0.375 -1.59375q0 -0.90625 0.359375 -1.578125q0.375 -0.6875 1.03125 -1.046875q0.65625 -0.375 1.5 -0.375q0.828125 0 1.46875 0.359375q0.640625 0.359375 0.984375 1.0q0.359375 0.640625 0.359375 1.4375zm-1.015625 -0.203125q0 -0.5625 -0.25 -0.953125q-0.234375 -0.40625 -0.65625 -0.609375q-0.421875 -0.203125 -0.9375 -0.203125q-0.734375 0 -1.25 0.46875q-0.515625 0.46875 -0.59375 1.296875l3.6875 0zm5.138199 -2.609375q1.0625 0 1.71875 0.65625q0.65625 0.640625 0.65625 1.859375l0 3.4375l-0.953125 0l0 -3.296875q0 -0.875 -0.4375 -1.34375q-0.4375 -0.46875 -1.1875 -0.46875q-0.765625 0 -1.21875 0.484375q-0.453125 0.484375 -0.453125 1.390625l0 3.234375l-0.96875 0l0 -5.84375l0.96875 0l0 0.828125q0.28125 -0.4375 0.765625 -0.6875q0.5 -0.25 1.109375 -0.25z" fill-rule="nonzero"/><path fill="#d63384" d="m277.8064 43.66135l84.0 0l0 18.141731l-84.0 0z" fill-rule="evenodd"/><path stroke="#d63384" stroke-width="1.0" stroke-linejoin="round" stroke-linecap="butt" d="m277.8064 43.66135l84.0 0l0 18.141731l-84.0 0z" fill-rule="evenodd"/><path fill="#fcfcfc" d="m294.82968 49.05034l0 0.78125l-3.21875 0l0 2.5l2.609375 0l0 0.796875l-2.609375 0l0 3.34375l-0.96875 0l0 -7.421875l4.1875 0zm6.511444 4.28125q0 0.28125 -0.046875 0.578125l-4.65625 0q0.046875 0.875 0.578125 1.359375q0.546875 0.484375 1.3125 0.484375q0.625 0 1.046875 -0.296875q0.421875 -0.296875 0.59375 -0.78125l1.046875 0q-0.234375 0.84375 -0.9375 1.375q-0.703125 0.515625 -1.75 0.515625q-0.828125 0 -1.484375 -0.375q-0.65625 -0.375 -1.03125 -1.0625q-0.375 -0.6875 -0.375 -1.59375q0 -0.90625 0.359375 -1.578125q0.375 -0.6875 1.03125 -1.046875q0.65625 -0.375 1.5 -0.375q0.828125 0 1.46875 0.359375q0.640625 0.359375 0.984375 1.0q0.359375 0.640625 0.359375 1.4375zm-1.015625 -0.203125q0 -0.5625 -0.25 -0.953125q-0.234375 -0.40625 -0.65625 -0.609375q-0.421875 -0.203125 -0.9375 -0.203125q-0.734375 0 -1.25 0.46875q-0.515625 0.46875 -0.59375 1.296875l3.6875 0zm3.4663086 -1.703125l0 3.453125q0 0.421875 0.171875 0.59375q0.1875 0.171875 0.640625 0.171875l0.71875 0l0 0.828125l-0.875 0q-0.8125 0 -1.21875 -0.375q-0.40625 -0.375 -0.40625 -1.21875l0 -3.453125l-0.75 0l0 -0.796875l0.75 0l0 -1.46875l0.96875 0l0 1.46875l1.53125 0l0 0.796875l-1.53125 0zm2.3320618 2.109375q0 -0.90625 0.359375 -1.578125q0.375 -0.671875 1.015625 -1.046875q0.640625 -0.375 1.46875 -0.375q1.078125 0 1.78125 0.53125q0.703125 0.515625 0.921875 1.4375l-1.046875 0q-0.140625 -0.53125 -0.578125 -0.828125q-0.4375 -0.3125 -1.078125 -0.3125q-0.828125 0 -1.34375 0.578125q-0.5 0.5625 -0.5 1.59375q0 1.0625 0.5 1.640625q0.515625 0.578125 1.34375 0.578125q0.640625 0 1.0625 -0.296875q0.4375 -0.3125 0.59375 -0.859375l1.046875 0q-0.234375 0.890625 -0.9375 1.4375q-0.703125 0.53125 -1.765625 0.53125q-0.828125 0 -1.46875 -0.375q-0.640625 -0.375 -1.015625 -1.046875q-0.359375 -0.6875 -0.359375 -1.609375zm9.734039 -3.015625q0.65625 0 1.1875 0.296875q0.546875 0.28125 0.84375 0.84375q0.296875 0.5625 0.296875 1.375l0 3.4375l-0.953125 0l0 -3.296875q0 -0.875 -0.4375 -1.34375q-0.4375 -0.46875 -1.1875 -0.46875q-0.765625 0 -1.21875 0.484375q-0.453125 0.484375 -0.453125 1.390625l0 3.234375l-0.96875 0l0 -7.890625l0.96875 0l0 2.875q0.28125 -0.4375 0.78125 -0.6875q0.515625 -0.25 1.140625 -0.25zm10.509064 -1.46875l0 5.484375q0 0.921875 -0.5625 1.46875q-0.5625 0.546875 -1.5 0.546875q-0.9375 0 -1.5 -0.5625q-0.5625 -0.5625 -0.5625 -1.53125l0.96875 0q0.015625 0.546875 0.28125 0.890625q0.265625 0.34375 0.8125 0.34375q0.546875 0 0.8125 -0.328125q0.265625 -0.328125 0.265625 -0.828125l0 -5.484375l0.984375 0zm11.241608 0l-2.15625 7.421875l-1.078125 0l-1.734375 -5.984375l-1.78125 5.984375l-1.078125 0.015625l-2.078125 -7.4375l1.03125 0l1.625 6.296875l1.78125 -6.296875l1.09375 0l1.703125 6.265625l1.625 -6.265625l1.046875 0zm5.0881042 7.421875l-3.046875 -3.390625l0 3.390625l-0.96875 0l0 -7.421875l0.96875 0l0 3.4375l3.0625 -3.4375l1.21875 0l-3.359375 3.71875l3.390625 3.703125l-1.265625 0zm4.4300537 0.09375q-0.671875 0 -1.203125 -0.21875q-0.53125 -0.234375 -0.84375 -0.640625q-0.3125 -0.421875 -0.34375 -0.953125l1.0 0q0.046875 0.4375 0.40625 0.71875q0.375 0.28125 0.96875 0.28125q0.5625 0 0.875 -0.25q0.328125 -0.25 0.328125 -0.625q0 -0.375 -0.34375 -0.5625q-0.34375 -0.1875 -1.0625 -0.375q-0.640625 -0.171875 -1.0625 -0.34375q-0.40625 -0.171875 -0.703125 -0.515625q-0.28125 -0.34375 -0.28125 -0.921875q0 -0.4375 0.265625 -0.8125q0.265625 -0.375 0.75 -0.59375q0.484375 -0.21875 1.125 -0.21875q0.96875 0 1.5625 0.5q0.59375 0.484375 0.640625 1.328125l-0.96875 0q-0.03125 -0.453125 -0.375 -0.71875q-0.328125 -0.28125 -0.890625 -0.28125q-0.53125 0 -0.84375 0.21875q-0.296875 0.21875 -0.296875 0.578125q0 0.296875 0.171875 0.484375q0.1875 0.1875 0.46875 0.296875q0.296875 0.109375 0.796875 0.25q0.625 0.171875 1.015625 0.34375q0.390625 0.15625 0.671875 0.484375q0.296875 0.328125 0.296875 0.859375q0 0.484375 -0.265625 0.875q-0.265625 0.375 -0.75 0.59375q-0.484375 0.21875 -1.109375 0.21875z" fill-rule="nonzero"/><path fill="#000000" fill-opacity="0.0" d="m241.00787 62.472443l159.05511 0" fill-rule="evenodd"/><path stroke="#d63384" stroke-width="2.0" stroke-linejoin="round" stroke-linecap="butt" d="m253.00787 62.472443l135.05511 0" fill-rule="evenodd"/><path fill="#d63384" stroke="#d63384" stroke-width="2.0" stroke-linecap="butt" d="m253.00787 59.168976l-9.076202 3.3034668l9.076202 3.3034668z" fill-rule="evenodd"/><path fill="#d63384" stroke="#d63384" stroke-width="2.0" stroke-linecap="butt" d="m388.063 65.77591l9.076202 -3.3034668l-9.076202 -3.3034668z" fill-rule="evenodd"/><path fill="#000000" fill-opacity="0.0" d="m62.782154 355.71127l0 39.338593" fill-rule="evenodd"/><path stroke="#d63384" stroke-width="2.0" stroke-linejoin="round" stroke-linecap="butt" d="m62.782154 367.71127l0 27.338593" fill-rule="evenodd"/><path fill="#d63384" stroke="#d63384" stroke-width="2.0" stroke-linecap="butt" d="m66.08562 367.71127l-3.303463 -9.076172l-3.3034668 9.076172z" fill-rule="evenodd"/><path fill="#000000" fill-opacity="0.0" d="m536.174 395.98813l0 -229.5433" fill-rule="evenodd"/><path stroke="#d63384" stroke-width="2.0" stroke-linejoin="round" stroke-linecap="butt" d="m536.174 395.9881l0 -217.54327" fill-rule="evenodd"/><path fill="#d63384" stroke="#d63384" stroke-width="2.0" stroke-linecap="butt" d="m539.4775 178.44482l-3.3034668 -9.076202l-3.3034668 9.076202z" fill-rule="evenodd"/><path fill="#000000" fill-opacity="0.0" d="m61.67609 395.3165l474.48822 0" fill-rule="evenodd"/><path stroke="#d63384" stroke-width="2.0" stroke-linejoin="round" stroke-linecap="butt" d="m61.67609 395.3165l474.48822 0" fill-rule="evenodd"/><path fill="#000000" fill-opacity="0.0" d="m227.51926 354.73813l0 21.039368" fill-rule="evenodd"/><path stroke="#d63384" stroke-width="2.0" stroke-linejoin="round" stroke-linecap="butt" d="m227.51926 366.73816l0 9.039368" fill-rule="evenodd"/><path fill="#d63384" stroke="#d63384" stroke-width="2.0" stroke-linecap="butt" d="m230.82272 366.73816l-3.3034668 -9.076202l-3.3034668 9.076202z" fill-rule="evenodd"/><path fill="#000000" fill-opacity="0.0" d="m459.22046 375.08398l0 -208.62991" fill-rule="evenodd"/><path stroke="#d63384" stroke-width="2.0" stroke-linejoin="round" stroke-linecap="butt" d="m459.22046 375.08398l0 -196.62991" fill-rule="evenodd"/><path fill="#d63384" stroke="#d63384" stroke-width="2.0" stroke-linecap="butt" d="m462.52393 178.45407l-3.3034668 -9.076202l-3.3034363 9.076202z" fill-rule="evenodd"/><path fill="#000000" fill-opacity="0.0" d="m226.84889 375.34073l233.03938 0" fill-rule="evenodd"/><path stroke="#d63384" stroke-width="2.0" stroke-linejoin="round" stroke-linecap="butt" d="m226.84889 375.34073l233.03938 0" fill-rule="evenodd"/><path fill="#d63384" d="m374.72308 209.25502l84.0 0l0 18.141739l-84.0 0z" fill-rule="evenodd"/><path stroke="#d63384" stroke-width="1.0" stroke-linejoin="round" stroke-linecap="butt" d="m374.72308 209.25502l84.0 0l0 18.141739l-84.0 0z" fill-rule="evenodd"/><path fill="#fcfcfc" d="m389.9934 214.64401l0 0.78125l-3.21875 0l0 2.5l2.609375 0l0 0.796875l-2.609375 0l0 3.34375l-0.96875 0l0 -7.421875l4.1875 0zm6.511444 4.28125q0 0.28125 -0.046875 0.578125l-4.65625 0q0.046875 0.875 0.578125 1.359375q0.546875 0.484375 1.3125 0.484375q0.625 0 1.046875 -0.296875q0.421875 -0.296875 0.59375 -0.78125l1.046875 0q-0.234375 0.84375 -0.9375 1.375q-0.703125 0.515625 -1.75 0.515625q-0.828125 0 -1.484375 -0.375q-0.65625 -0.375 -1.03125 -1.0625q-0.375 -0.6875 -0.375 -1.59375q0 -0.90625 0.359375 -1.578125q0.375 -0.6875 1.03125 -1.046875q0.65625 -0.375 1.5 -0.375q0.828125 0 1.46875 0.359375q0.640625 0.359375 0.984375 1.0q0.359375 0.640625 0.359375 1.4375zm-1.015625 -0.203125q0 -0.5625 -0.25 -0.953125q-0.234375 -0.40625 -0.65625 -0.609375q-0.421875 -0.203125 -0.9375 -0.203125q-0.734375 0 -1.25 0.46875q-0.515625 0.46875 -0.59375 1.296875l3.6875 0zm3.4663086 -1.703125l0 3.453125q0 0.421875 0.171875 0.59375q0.1875 0.171875 0.640625 0.171875l0.71875 0l0 0.828125l-0.875 0q-0.8125 0 -1.21875 -0.375q-0.40625 -0.375 -0.40625 -1.21875l0 -3.453125l-0.75 0l0 -0.796875l0.75 0l0 -1.46875l0.96875 0l0 1.46875l1.53125 0l0 0.796875l-1.53125 0zm2.3320618 2.109375q0 -0.90625 0.359375 -1.578125q0.375 -0.671875 1.015625 -1.046875q0.640625 -0.375 1.46875 -0.375q1.078125 0 1.78125 0.53125q0.703125 0.515625 0.921875 1.4375l-1.046875 0q-0.140625 -0.53125 -0.578125 -0.828125q-0.4375 -0.3125 -1.078125 -0.3125q-0.828125 0 -1.34375 0.578125q-0.5 0.5625 -0.5 1.59375q0 1.0625 0.5 1.640625q0.515625 0.578125 1.34375 0.578125q0.640625 0 1.0625 -0.296875q0.4375 -0.3125 0.59375 -0.859375l1.046875 0q-0.234375 0.890625 -0.9375 1.4375q-0.703125 0.53125 -1.765625 0.53125q-0.828125 0 -1.46875 -0.375q-0.640625 -0.375 -1.015625 -1.046875q-0.359375 -0.6875 -0.359375 -1.609375zm9.734039 -3.015625q0.65625 0 1.1875 0.296875q0.546875 0.28125 0.84375 0.84375q0.296875 0.5625 0.296875 1.375l0 3.4375l-0.953125 0l0 -3.296875q0 -0.875 -0.4375 -1.34375q-0.4375 -0.46875 -1.1875 -0.46875q-0.765625 0 -1.21875 0.484375q-0.453125 0.484375 -0.453125 1.390625l0 3.234375l-0.96875 0l0 -7.890625l0.96875 0l0 2.875q0.28125 -0.4375 0.78125 -0.6875q0.515625 -0.25 1.140625 -0.25zm11.337189 -1.46875l0 0.78125l-2.015625 0l0 6.640625l-0.984375 0l0 -6.640625l-2.03125 0l0 -0.78125l5.03125 0zm3.7494507 7.515625q-0.828125 0 -1.5 -0.375q-0.65625 -0.375 -1.046875 -1.0625q-0.375 -0.6875 -0.375 -1.59375q0 -0.890625 0.390625 -1.578125q0.390625 -0.6875 1.0625 -1.046875q0.671875 -0.375 1.5 -0.375q0.828125 0 1.5 0.375q0.671875 0.359375 1.0625 1.046875q0.390625 0.671875 0.390625 1.578125q0 0.90625 -0.40625 1.59375q-0.390625 0.6875 -1.078125 1.0625q-0.671875 0.375 -1.5 0.375zm0 -0.84375q0.515625 0 0.96875 -0.25q0.46875 -0.25 0.75 -0.734375q0.28125 -0.5 0.28125 -1.203125q0 -0.703125 -0.28125 -1.1875q-0.28125 -0.484375 -0.734375 -0.71875q-0.4375 -0.25 -0.953125 -0.25q-0.546875 0 -0.984375 0.25q-0.4375 0.234375 -0.703125 0.71875q-0.265625 0.484375 -0.265625 1.1875q0 0.71875 0.25 1.21875q0.265625 0.484375 0.703125 0.734375q0.4375 0.234375 0.96875 0.234375zm7.5231934 0.75l-2.28125 -2.578125l0 2.578125l-0.96875 0l0 -7.890625l0.96875 0l0 4.640625l2.234375 -2.59375l1.359375 0l-2.75 2.90625l2.765625 2.9375l-1.328125 0zm7.566162 -3.140625q0 0.28125 -0.046875 0.578125l-4.65625 0q0.046875 0.875 0.578125 1.359375q0.546875 0.484375 1.3125 0.484375q0.625 0 1.046875 -0.296875q0.421875 -0.296875 0.59375 -0.78125l1.046875 0q-0.234375 0.84375 -0.9375 1.375q-0.703125 0.515625 -1.75 0.515625q-0.828125 0 -1.484375 -0.375q-0.65625 -0.375 -1.03125 -1.0625q-0.375 -0.6875 -0.375 -1.59375q0 -0.90625 0.359375 -1.578125q0.375 -0.6875 1.03125 -1.046875q0.65625 -0.375 1.5 -0.375q0.828125 0 1.46875 0.359375q0.640625 0.359375 0.984375 1.0q0.359375 0.640625 0.359375 1.4375zm-1.015625 -0.203125q0 -0.5625 -0.25 -0.953125q-0.234375 -0.40625 -0.65625 -0.609375q-0.421875 -0.203125 -0.9375 -0.203125q-0.734375 0 -1.25 0.46875q-0.515625 0.46875 -0.59375 1.296875l3.6875 0zm5.1381836 -2.609375q1.0625 0 1.71875 0.65625q0.65625 0.640625 0.65625 1.859375l0 3.4375l-0.953125 0l0 -3.296875q0 -0.875 -0.4375 -1.34375q-0.4375 -0.46875 -1.1875 -0.46875q-0.765625 0 -1.21875 0.484375q-0.453125 0.484375 -0.453125 1.390625l0 3.234375l-0.96875 0l0 -5.84375l0.96875 0l0 0.828125q0.28125 -0.4375 0.765625 -0.6875q0.5 -0.25 1.109375 -0.25z" fill-rule="nonzero"/><path fill="#d63384" d="m535.559 207.76912l84.0 0l0 18.141724l-84.0 0z" fill-rule="evenodd"/><path stroke="#d63384" stroke-width="1.0" stroke-linejoin="round" stroke-linecap="butt" d="m535.559 207.76912l84.0 0l0 18.141724l-84.0 0z" fill-rule="evenodd"/><path fill="#fcfcfc" d="m550.82935 213.15811l0 0.78125l-3.21875 0l0 2.5l2.609375 0l0 0.796875l-2.609375 0l0 3.34375l-0.96875 0l0 -7.421875l4.1875 0zm6.5114746 4.28125q0 0.28125 -0.046875 0.578125l-4.65625 0q0.046875 0.875 0.578125 1.359375q0.546875 0.484375 1.3125 0.484375q0.625 0 1.046875 -0.296875q0.421875 -0.296875 0.59375 -0.78125l1.046875 0q-0.234375 0.84375 -0.9375 1.375q-0.703125 0.515625 -1.75 0.515625q-0.828125 0 -1.484375 -0.375q-0.65625 -0.375 -1.03125 -1.0625q-0.375 -0.6875 -0.375 -1.59375q0 -0.90625 0.359375 -1.578125q0.375 -0.6875 1.03125 -1.046875q0.65625 -0.375 1.5 -0.375q0.828125 0 1.46875 0.359375q0.640625 0.359375 0.984375 1.0q0.359375 0.640625 0.359375 1.4375zm-1.015625 -0.203125q0 -0.5625 -0.25 -0.953125q-0.234375 -0.40625 -0.65625 -0.609375q-0.421875 -0.203125 -0.9375 -0.203125q-0.734375 0 -1.25 0.46875q-0.515625 0.46875 -0.59375 1.296875l3.6875 0zm3.4663086 -1.703125l0 3.453125q0 0.421875 0.171875 0.59375q0.1875 0.171875 0.640625 0.171875l0.71875 0l0 0.828125l-0.875 0q-0.8125 0 -1.21875 -0.375q-0.40625 -0.375 -0.40625 -1.21875l0 -3.453125l-0.75 0l0 -0.796875l0.75 0l0 -1.46875l0.96875 0l0 1.46875l1.53125 0l0 0.796875l-1.53125 0zm2.3320312 2.109375q0 -0.90625 0.359375 -1.578125q0.375 -0.671875 1.015625 -1.046875q0.640625 -0.375 1.46875 -0.375q1.078125 0 1.78125 0.53125q0.703125 0.515625 0.921875 1.4375l-1.046875 0q-0.140625 -0.53125 -0.578125 -0.828125q-0.4375 -0.3125 -1.078125 -0.3125q-0.828125 0 -1.34375 0.578125q-0.5 0.5625 -0.5 1.59375q0 1.0625 0.5 1.640625q0.515625 0.578125 1.34375 0.578125q0.640625 0 1.0625 -0.296875q0.4375 -0.3125 0.59375 -0.859375l1.046875 0q-0.234375 0.890625 -0.9375 1.4375q-0.703125 0.53125 -1.765625 0.53125q-0.828125 0 -1.46875 -0.375q-0.640625 -0.375 -1.015625 -1.046875q-0.359375 -0.6875 -0.359375 -1.609375zm9.73407 -3.015625q0.65625 0 1.1875 0.296875q0.546875 0.28125 0.84375 0.84375q0.296875 0.5625 0.296875 1.375l0 3.4375l-0.953125 0l0 -3.296875q0 -0.875 -0.4375 -1.34375q-0.4375 -0.46875 -1.1875 -0.46875q-0.765625 0 -1.21875 0.484375q-0.453125 0.484375 -0.453125 1.390625l0 3.234375l-0.96875 0l0 -7.890625l0.96875 0l0 2.875q0.28125 -0.4375 0.78125 -0.6875q0.515625 -0.25 1.140625 -0.25zm11.337158 -1.46875l0 0.78125l-2.015625 0l0 6.640625l-0.984375 0l0 -6.640625l-2.03125 0l0 -0.78125l5.03125 0zm3.7494507 7.515625q-0.828125 0 -1.5 -0.375q-0.65625 -0.375 -1.046875 -1.0625q-0.375 -0.6875 -0.375 -1.59375q0 -0.890625 0.390625 -1.578125q0.390625 -0.6875 1.0625 -1.046875q0.671875 -0.375 1.5 -0.375q0.828125 0 1.5 0.375q0.671875 0.359375 1.0625 1.046875q0.390625 0.671875 0.390625 1.578125q0 0.90625 -0.40625 1.59375q-0.390625 0.6875 -1.078125 1.0625q-0.671875 0.375 -1.5 0.375zm0 -0.84375q0.515625 0 0.96875 -0.25q0.46875 -0.25 0.75 -0.734375q0.28125 -0.5 0.28125 -1.203125q0 -0.703125 -0.28125 -1.1875q-0.28125 -0.484375 -0.734375 -0.71875q-0.4375 -0.25 -0.953125 -0.25q-0.546875 0 -0.984375 0.25q-0.4375 0.234375 -0.703125 0.71875q-0.265625 0.484375 -0.265625 1.1875q0 0.71875 0.25 1.21875q0.265625 0.484375 0.703125 0.734375q0.4375 0.234375 0.96875 0.234375zm7.5231934 0.75l-2.28125 -2.578125l0 2.578125l-0.96875 0l0 -7.890625l0.96875 0l0 4.640625l2.234375 -2.59375l1.359375 0l-2.75 2.90625l2.765625 2.9375l-1.328125 0zm7.566162 -3.140625q0 0.28125 -0.046875 0.578125l-4.65625 0q0.046875 0.875 0.578125 1.359375q0.546875 0.484375 1.3125 0.484375q0.625 0 1.046875 -0.296875q0.421875 -0.296875 0.59375 -0.78125l1.046875 0q-0.234375 0.84375 -0.9375 1.375q-0.703125 0.515625 -1.75 0.515625q-0.828125 0 -1.484375 -0.375q-0.65625 -0.375 -1.03125 -1.0625q-0.375 -0.6875 -0.375 -1.59375q0 -0.90625 0.359375 -1.578125q0.375 -0.6875 1.03125 -1.046875q0.65625 -0.375 1.5 -0.375q0.828125 0 1.46875 0.359375q0.640625 0.359375 0.984375 1.0q0.359375 0.640625 0.359375 1.4375zm-1.015625 -0.203125q0 -0.5625 -0.25 -0.953125q-0.234375 -0.40625 -0.65625 -0.609375q-0.421875 -0.203125 -0.9375 -0.203125q-0.734375 0 -1.25 0.46875q-0.515625 0.46875 -0.59375 1.296875l3.6875 0zm5.1381836 -2.609375q1.0625 0 1.71875 0.65625q0.65625 0.640625 0.65625 1.859375l0 3.4375l-0.953125 0l0 -3.296875q0 -0.875 -0.4375 -1.34375q-0.4375 -0.46875 -1.1875 -0.46875q-0.765625 0 -1.21875 0.484375q-0.453125 0.484375 -0.453125 1.390625l0 3.234375l-0.96875 0l0 -5.84375l0.96875 0l0 0.828125q0.28125 -0.4375 0.765625 -0.6875q0.5 -0.25 1.109375 -0.25z" fill-rule="nonzero"/><path fill="#ffffff" d="m69.16798 46.224148l153.32285 0l0 32.7559l-153.32285 0z" fill-rule="evenodd"/><path stroke="#1c4587" stroke-width="1.0" stroke-linejoin="round" stroke-linecap="butt" d="m69.16798 46.224148l153.32285 0l0 32.7559l-153.32285 0z" fill-rule="evenodd"/><path fill="#1c4587" d="m107.56091 54.220226l0 0.78125l-2.015625 0l0 6.640625l-0.984375 0l0 -6.640625l-2.03125 0l0 -0.78125l5.03125 0zm3.749466 7.515625q-0.828125 0 -1.5 -0.375q-0.65625 -0.375 -1.046875 -1.0625q-0.375 -0.6875 -0.375 -1.59375q0 -0.890625 0.390625 -1.578125q0.390625 -0.6875 1.0625 -1.046875q0.671875 -0.375 1.5 -0.375q0.828125 0 1.5 0.375q0.671875 0.359375 1.0625 1.046875q0.390625 0.671875 0.390625 1.578125q0 0.90625 -0.40625 1.59375q-0.390625 0.6875 -1.078125 1.0625q-0.671875 0.375 -1.5 0.375zm0 -0.84375q0.515625 0 0.96875 -0.25q0.46875 -0.25 0.75 -0.734375q0.28125 -0.5 0.28125 -1.203125q0 -0.703125 -0.28125 -1.1875q-0.28125 -0.484375 -0.734375 -0.71875q-0.4375 -0.25 -0.953125 -0.25q-0.546875 0 -0.984375 0.25q-0.4375 0.234375 -0.703125 0.71875q-0.265625 0.484375 -0.265625 1.1875q0 0.71875 0.25 1.21875q0.265625 0.484375 0.703125 0.734375q0.4375 0.234375 0.96875 0.234375zm7.5231934 0.75l-2.28125 -2.578125l0 2.578125l-0.96875 0l0 -7.890625l0.96875 0l0 4.640625l2.234375 -2.59375l1.359375 0l-2.75 2.90625l2.765625 2.9375l-1.328125 0zm7.566147 -3.140625q0 0.28125 -0.046875 0.578125l-4.65625 0q0.046875 0.875 0.578125 1.359375q0.546875 0.484375 1.3125 0.484375q0.625 0 1.046875 -0.296875q0.421875 -0.296875 0.59375 -0.78125l1.046875 0q-0.234375 0.84375 -0.9375 1.375q-0.703125 0.515625 -1.75 0.515625q-0.828125 0 -1.484375 -0.375q-0.65625 -0.375 -1.03125 -1.0625q-0.375 -0.6875 -0.375 -1.59375q0 -0.90625 0.359375 -1.578125q0.375 -0.6875 1.03125 -1.046875q0.65625 -0.375 1.5 -0.375q0.828125 0 1.46875 0.359375q0.640625 0.359375 0.984375 1.0q0.359375 0.640625 0.359375 1.4375zm-1.015625 -0.203125q0 -0.5625 -0.25 -0.953125q-0.234375 -0.40625 -0.65625 -0.609375q-0.421875 -0.203125 -0.9375 -0.203125q-0.734375 0 -1.25 0.46875q-0.515625 0.46875 -0.59375 1.296875l3.6875 0zm5.138199 -2.609375q1.0625 0 1.71875 0.65625q0.65625 0.640625 0.65625 1.859375l0 3.4375l-0.953125 0l0 -3.296875q0 -0.875 -0.4375 -1.34375q-0.4375 -0.46875 -1.1875 -0.46875q-0.765625 0 -1.21875 0.484375q-0.453125 0.484375 -0.453125 1.390625l0 3.234375l-0.96875 0l0 -5.84375l0.96875 0l0 0.828125q0.28125 -0.4375 0.765625 -0.6875q0.5 -0.25 1.109375 -0.25zm8.993439 5.0625l1.8125 -4.953125l1.03125 0l-2.296875 5.84375l-1.125 0l-2.296875 -5.84375l1.046875 0l1.828125 4.953125zm3.4313354 -2.046875q0 -0.90625 0.359375 -1.578125q0.375 -0.671875 1.0 -1.046875q0.640625 -0.375 1.421875 -0.375q0.765625 0 1.328125 0.328125q0.5625 0.328125 0.84375 0.828125l0 -1.0625l0.984375 0l0 5.84375l-0.984375 0l0 -1.09375q-0.296875 0.515625 -0.875 0.859375q-0.5625 0.328125 -1.3125 0.328125q-0.78125 0 -1.40625 -0.375q-0.625 -0.390625 -1.0 -1.078125q-0.359375 -0.703125 -0.359375 -1.578125zm4.953125 0q0 -0.65625 -0.265625 -1.140625q-0.265625 -0.5 -0.71875 -0.75q-0.453125 -0.265625 -1.0 -0.265625q-0.546875 0 -1.0 0.265625q-0.4375 0.25 -0.703125 0.734375q-0.265625 0.484375 -0.265625 1.15625q0 0.671875 0.265625 1.171875q0.265625 0.484375 0.703125 0.75q0.453125 0.265625 1.0 0.265625q0.546875 0 1.0 -0.265625q0.453125 -0.265625 0.71875 -0.75q0.265625 -0.5 0.265625 -1.171875zm3.5943298 -4.953125l0 7.890625l-0.96875 0l0 -7.890625l0.96875 0zm2.15271 1.109375q-0.28125 0 -0.484375 -0.1875q-0.1875 -0.203125 -0.1875 -0.484375q0 -0.265625 0.1875 -0.453125q0.203125 -0.203125 0.484375 -0.203125q0.265625 0 0.4375 0.203125q0.1875 0.1875 0.1875 0.453125q0 0.28125 -0.1875 0.484375q-0.171875 0.1875 -0.4375 0.1875zm0.46875 0.9375l0 5.84375l-0.96875 0l0 -5.84375l0.96875 0zm1.27771 2.90625q0 -0.90625 0.359375 -1.578125q0.375 -0.671875 1.0 -1.046875q0.640625 -0.375 1.421875 -0.375q0.6875 0 1.265625 0.3125q0.59375 0.3125 0.90625 0.828125l0 -3.09375l0.984375 0l0 7.890625l-0.984375 0l0 -1.09375q-0.296875 0.515625 -0.859375 0.859375q-0.5625 0.328125 -1.3125 0.328125q-0.78125 0 -1.421875 -0.375q-0.625 -0.390625 -1.0 -1.078125q-0.359375 -0.703125 -0.359375 -1.578125zm4.953125 0q0 -0.65625 -0.265625 -1.140625q-0.265625 -0.5 -0.71875 -0.75q-0.453125 -0.265625 -1.0 -0.265625q-0.546875 0 -1.0 0.265625q-0.4375 0.25 -0.703125 0.734375q-0.265625 0.484375 -0.265625 1.15625q0 0.671875 0.265625 1.171875q0.265625 0.484375 0.703125 0.75q0.453125 0.265625 1.0 0.265625q0.546875 0 1.0 -0.265625q0.453125 -0.265625 0.71875 -0.75q0.265625 -0.5 0.265625 -1.171875zm2.2505798 0q0 -0.90625 0.359375 -1.578125q0.375 -0.671875 1.0 -1.046875q0.640625 -0.375 1.421875 -0.375q0.765625 0 1.328125 0.328125q0.5625 0.328125 0.84375 0.828125l0 -1.0625l0.984375 0l0 5.84375l-0.984375 0l0 -1.09375q-0.296875 0.515625 -0.875 0.859375q-0.5625 0.328125 -1.3125 0.328125q-0.78125 0 -1.40625 -0.375q-0.625 -0.390625 -1.0 -1.078125q-0.359375 -0.703125 -0.359375 -1.578125zm4.953125 0q0 -0.65625 -0.265625 -1.140625q-0.265625 -0.5 -0.71875 -0.75q-0.453125 -0.265625 -1.0 -0.265625q-0.546875 0 -1.0 0.265625q-0.4375 0.25 -0.703125 0.734375q-0.265625 0.484375 -0.265625 1.15625q0 0.671875 0.265625 1.171875q0.265625 0.484375 0.703125 0.75q0.453125 0.265625 1.0 0.265625q0.546875 0 1.0 -0.265625q0.453125 -0.265625 0.71875 -0.75q0.265625 -0.5 0.265625 -1.171875zm3.7974548 -2.109375l0 3.453125q0 0.421875 0.171875 0.59375q0.1875 0.171875 0.640625 0.171875l0.71875 0l0 0.828125l-0.875 0q-0.8125 0 -1.21875 -0.375q-0.40625 -0.375 -0.40625 -1.21875l0 -3.453125l-0.75 0l0 -0.796875l0.75 0l0 -1.46875l0.96875 0l0 1.46875l1.53125 0l0 0.796875l-1.53125 0zm3.2070465 -1.734375q-0.28125 0 -0.484375 -0.1875q-0.1875 -0.203125 -0.1875 -0.484375q0 -0.265625 0.1875 -0.453125q0.203125 -0.203125 0.484375 -0.203125q0.265625 0 0.4375 0.203125q0.1875 0.1875 0.1875 0.453125q0 0.28125 -0.1875 0.484375q-0.171875 0.1875 -0.4375 0.1875zm0.46875 0.9375l0 5.84375l-0.96875 0l0 -5.84375l0.96875 0zm4.199585 5.9375q-0.828125 0 -1.5 -0.375q-0.65625 -0.375 -1.046875 -1.0625q-0.375 -0.6875 -0.375 -1.59375q0 -0.890625 0.390625 -1.578125q0.390625 -0.6875 1.0625 -1.046875q0.671875 -0.375 1.5 -0.375q0.828125 0 1.5 0.375q0.671875 0.359375 1.0625 1.046875q0.390625 0.671875 0.390625 1.578125q0 0.90625 -0.40625 1.59375q-0.390625 0.6875 -1.078125 1.0625q-0.671875 0.375 -1.5 0.375zm0 -0.84375q0.515625 0 0.96875 -0.25q0.46875 -0.25 0.75 -0.734375q0.28125 -0.5 0.28125 -1.203125q0 -0.703125 -0.28125 -1.1875q-0.28125 -0.484375 -0.734375 -0.71875q-0.4375 -0.25 -0.953125 -0.25q-0.546875 0 -0.984375 0.25q-0.4375 0.234375 -0.703125 0.71875q-0.265625 0.484375 -0.265625 1.1875q0 0.71875 0.25 1.21875q0.265625 0.484375 0.703125 0.734375q0.4375 0.234375 0.96875 0.234375zm7.1169434 -5.203125q1.0625 0 1.71875 0.65625q0.65625 0.640625 0.65625 1.859375l0 3.4375l-0.953125 0l0 -3.296875q0 -0.875 -0.4375 -1.34375q-0.4375 -0.46875 -1.1875 -0.46875q-0.765625 0 -1.21875 0.484375q-0.453125 0.484375 -0.453125 1.390625l0 3.234375l-0.96875 0l0 -5.84375l0.96875 0l0 0.828125q0.28125 -0.4375 0.765625 -0.6875q0.5 -0.25 1.109375 -0.25z" fill-rule="nonzero"/><path fill="#1c4587" d="m99.8799 66.3821q-0.484375 0 -0.71875 0.1875q-0.234375 0.1875 -0.296875 0.609375l-0.0625 0.3125l0.921875 0l-0.109375 0.609375l-0.90625 0l-0.671875 3.78125l-0.734375 0l0.671875 -3.78125l-0.5625 0l0.09375 -0.609375l0.5625 0l0.0625 -0.3125q0.125 -0.734375 0.5625 -1.0625q0.453125 -0.34375 1.296875 -0.34375l-0.109375 0.609375zm0.022598267 3.296875q0.125 -0.671875 0.484375 -1.171875q0.375 -0.515625 0.890625 -0.796875q0.53125 -0.28125 1.125 -0.28125q0.578125 0 0.953125 0.25q0.375 0.25 0.515625 0.625l0.140625 -0.8125l0.734375 0l-0.765625 4.390625l-0.75 0l0.15625 -0.8125q-0.28125 0.375 -0.765625 0.640625q-0.46875 0.25 -1.03125 0.25q-0.515625 0 -0.90625 -0.21875q-0.390625 -0.234375 -0.609375 -0.640625q-0.21875 -0.40625 -0.21875 -0.9375q0 -0.234375 0.046875 -0.484375zm3.734375 0q0.03125 -0.171875 0.03125 -0.359375q0 -0.578125 -0.359375 -0.921875q-0.34375 -0.34375 -0.875 -0.34375q-0.40625 0 -0.78125 0.203125q-0.375 0.1875 -0.640625 0.5625q-0.265625 0.359375 -0.34375 0.859375q-0.03125 0.15625 -0.03125 0.359375q0 0.59375 0.34375 0.9375q0.34375 0.34375 0.875 0.34375q0.40625 0 0.78125 -0.1875q0.375 -0.203125 0.640625 -0.578125q0.265625 -0.375 0.359375 -0.875zm3.1110535 2.28125q-0.6875 0 -1.125 -0.328125q-0.4375 -0.328125 -0.4375 -0.890625q0 -0.09375 0 -0.140625l0.71875 0q-0.03125 0.34375 0.203125 0.5625q0.234375 0.203125 0.6875 0.203125q0.4375 0 0.71875 -0.171875q0.28125 -0.171875 0.28125 -0.484375q0 -0.265625 -0.234375 -0.40625q-0.21875 -0.15625 -0.6875 -0.328125q-0.40625 -0.15625 -0.671875 -0.296875q-0.265625 -0.140625 -0.453125 -0.375q-0.171875 -0.25 -0.171875 -0.625q0 -0.359375 0.203125 -0.640625q0.21875 -0.296875 0.59375 -0.453125q0.390625 -0.15625 0.875 -0.15625q0.671875 0 1.09375 0.34375q0.4375 0.328125 0.4375 0.875q0 0.09375 0 0.15625l-0.703125 0l0.015625 -0.09375q0 -0.328125 -0.25 -0.515625q-0.25 -0.1875 -0.640625 -0.1875q-0.390625 0 -0.65625 0.1875q-0.25 0.171875 -0.25 0.46875q0 0.28125 0.234375 0.4375q0.234375 0.15625 0.71875 0.34375q0.40625 0.171875 0.65625 0.296875q0.25 0.125 0.421875 0.359375q0.1875 0.234375 0.1875 0.59375q0 0.375 -0.234375 0.671875q-0.21875 0.28125 -0.625 0.4375q-0.40625 0.15625 -0.90625 0.15625zm3.738449 -1.28125q-0.03125 0.125 -0.03125 0.21875q0 0.1875 0.125 0.28125q0.125 0.09375 0.40625 0.09375l0.546875 0l-0.125 0.609375l-0.65625 0q-0.515625 0 -0.78125 -0.203125q-0.25 -0.203125 -0.25 -0.65625q0 -0.171875 0.03125 -0.34375l0.453125 -2.578125l-0.5625 0l0.109375 -0.609375l0.5625 0l0.203125 -1.09375l0.734375 0l-0.203125 1.09375l1.140625 0l-0.109375 0.609375l-1.140625 0l-0.453125 2.578125zm5.967804 -4.71875l-1.046875 5.921875l-0.734375 0l1.046875 -5.921875l0.734375 0zm2.1242218 6.0q-0.5625 0 -0.984375 -0.234375q-0.40625 -0.234375 -0.640625 -0.640625q-0.234375 -0.40625 -0.234375 -0.953125q0 -0.75 0.34375 -1.359375q0.34375 -0.625 0.9375 -0.984375q0.609375 -0.359375 1.359375 -0.359375q0.546875 0 0.96875 0.234375q0.4375 0.21875 0.671875 0.640625q0.234375 0.40625 0.234375 0.953125q0 0.75 -0.359375 1.375q-0.34375 0.609375 -0.953125 0.96875q-0.609375 0.359375 -1.34375 0.359375zm0.078125 -0.625q0.53125 0 0.9375 -0.28125q0.421875 -0.28125 0.65625 -0.75q0.234375 -0.46875 0.234375 -1.0q0 -0.609375 -0.359375 -0.9375q-0.34375 -0.328125 -0.875 -0.328125q-0.515625 0 -0.921875 0.296875q-0.40625 0.28125 -0.640625 0.75q-0.21875 0.46875 -0.21875 1.015625q0 0.59375 0.328125 0.921875q0.34375 0.3125 0.859375 0.3125zm3.213684 -1.65625q0.125 -0.671875 0.484375 -1.171875q0.375 -0.515625 0.90625 -0.796875q0.53125 -0.28125 1.15625 -0.28125q0.8125 0 1.265625 0.390625q0.453125 0.390625 0.5 1.09375l-0.78125 0q-0.046875 -0.40625 -0.328125 -0.640625q-0.28125 -0.234375 -0.765625 -0.234375q-0.625 0 -1.09375 0.4375q-0.453125 0.421875 -0.578125 1.203125q-0.046875 0.265625 -0.046875 0.4375q0 0.59375 0.3125 0.90625q0.3125 0.3125 0.828125 0.3125q0.484375 0 0.84375 -0.21875q0.359375 -0.21875 0.546875 -0.640625l0.78125 0q-0.28125 0.671875 -0.890625 1.078125q-0.59375 0.40625 -1.390625 0.40625q-0.828125 0 -1.3125 -0.46875q-0.484375 -0.484375 -0.484375 -1.296875q0 -0.25 0.046875 -0.515625zm4.855942 0q0.125 -0.671875 0.484375 -1.171875q0.375 -0.515625 0.890625 -0.796875q0.53125 -0.28125 1.125 -0.28125q0.578125 0 0.953125 0.25q0.375 0.25 0.515625 0.625l0.140625 -0.8125l0.734375 0l-0.765625 4.390625l-0.75 0l0.15625 -0.8125q-0.28125 0.375 -0.765625 0.640625q-0.46875 0.25 -1.03125 0.25q-0.515625 0 -0.90625 -0.21875q-0.390625 -0.234375 -0.609375 -0.640625q-0.21875 -0.40625 -0.21875 -0.9375q0 -0.234375 0.046875 -0.484375zm3.734375 0q0.03125 -0.171875 0.03125 -0.359375q0 -0.578125 -0.359375 -0.921875q-0.34375 -0.34375 -0.875 -0.34375q-0.40625 0 -0.78125 0.203125q-0.375 0.1875 -0.640625 0.5625q-0.265625 0.359375 -0.34375 0.859375q-0.03125 0.15625 -0.03125 0.359375q0 0.59375 0.34375 0.9375q0.34375 0.34375 0.875 0.34375q0.40625 0 0.78125 -0.1875q0.375 -0.203125 0.640625 -0.578125q0.265625 -0.375 0.359375 -0.875zm3.3454285 -3.71875l-1.046875 5.921875l-0.734375 0l1.046875 -5.921875l0.734375 0zm6.367569 0.34375l-0.734375 4.125q-0.125 0.6875 -0.625 1.109375q-0.484375 0.40625 -1.171875 0.40625q-0.609375 0 -0.96875 -0.3125q-0.34375 -0.328125 -0.34375 -0.90625q0 -0.1875 0.03125 -0.359375l0.734375 0q-0.03125 0.125 -0.03125 0.25q0 0.3125 0.171875 0.5q0.171875 0.171875 0.515625 0.171875q0.40625 0 0.640625 -0.234375q0.25 -0.25 0.328125 -0.625l0.71875 -4.125l0.734375 0zm8.443069 0l-2.609375 5.578125l-0.8125 0l-0.5 -4.484375l-2.125 4.484375l-0.8125 0.015625l-0.578125 -5.59375l0.78125 0l0.375 4.71875l2.171875 -4.71875l0.828125 0l0.453125 4.703125l2.046875 -4.703125l0.78125 0zm4.229782 0l-0.109375 0.5625l-1.515625 0l-0.875 5.015625l-0.734375 0l0.875 -5.015625l-1.515625 0l0.109375 -0.5625l3.765625 0zm4.040039 4.890625l2.015625 -3.703125l0.796875 0l-2.5 4.390625l-0.859375 0l-0.9375 -4.390625l0.78125 0l0.703125 3.703125zm2.8473206 -1.515625q0.125 -0.671875 0.484375 -1.171875q0.375 -0.515625 0.890625 -0.796875q0.53125 -0.28125 1.125 -0.28125q0.578125 0 0.953125 0.25q0.375 0.25 0.515625 0.625l0.140625 -0.8125l0.734375 0l-0.765625 4.390625l-0.75 0l0.15625 -0.8125q-0.28125 0.375 -0.765625 0.640625q-0.46875 0.25 -1.03125 0.25q-0.515625 0 -0.90625 -0.21875q-0.390625 -0.234375 -0.609375 -0.640625q-0.21875 -0.40625 -0.21875 -0.9375q0 -0.234375 0.046875 -0.484375zm3.734375 0q0.03125 -0.171875 0.03125 -0.359375q0 -0.578125 -0.359375 -0.921875q-0.34375 -0.34375 -0.875 -0.34375q-0.40625 0 -0.78125 0.203125q-0.375 0.1875 -0.640625 0.5625q-0.265625 0.359375 -0.34375 0.859375q-0.03125 0.15625 -0.03125 0.359375q0 0.59375 0.34375 0.9375q0.34375 0.34375 0.875 0.34375q0.40625 0 0.78125 -0.1875q0.375 -0.203125 0.640625 -0.578125q0.265625 -0.375 0.359375 -0.875zm3.3454285 -3.71875l-1.046875 5.921875l-0.734375 0l1.046875 -5.921875l0.734375 0zm1.4679718 0.828125q-0.1875 0 -0.296875 -0.109375q-0.109375 -0.125 -0.109375 -0.296875q0 -0.25 0.171875 -0.421875q0.171875 -0.171875 0.40625 -0.171875q0.1875 0 0.296875 0.125q0.109375 0.109375 0.109375 0.28125q0 0.25 -0.171875 0.421875q-0.171875 0.171875 -0.40625 0.171875zm0.234375 0.703125l-0.78125 4.390625l-0.734375 0l0.78125 -4.390625l0.734375 0zm0.5617218 2.1875q0.125 -0.671875 0.484375 -1.171875q0.375 -0.515625 0.890625 -0.796875q0.53125 -0.28125 1.125 -0.28125q0.5 0 0.90625 0.234375q0.40625 0.234375 0.5625 0.625l0.421875 -2.328125l0.734375 0l-1.046875 5.921875l-0.75 0l0.15625 -0.828125q-0.28125 0.390625 -0.75 0.65625q-0.46875 0.25 -1.03125 0.25q-0.515625 0 -0.90625 -0.21875q-0.390625 -0.234375 -0.625 -0.640625q-0.21875 -0.40625 -0.21875 -0.9375q0 -0.234375 0.046875 -0.484375zm3.734375 0q0.03125 -0.171875 0.03125 -0.359375q0 -0.578125 -0.359375 -0.921875q-0.34375 -0.34375 -0.875 -0.34375q-0.40625 0 -0.78125 0.203125q-0.375 0.1875 -0.640625 0.5625q-0.265625 0.359375 -0.34375 0.859375q-0.03125 0.15625 -0.03125 0.359375q0 0.59375 0.34375 0.9375q0.34375 0.34375 0.875 0.34375q0.40625 0 0.78125 -0.1875q0.375 -0.203125 0.640625 -0.578125q0.265625 -0.375 0.359375 -0.875zm1.6735535 0q0.125 -0.671875 0.484375 -1.171875q0.375 -0.515625 0.890625 -0.796875q0.53125 -0.28125 1.125 -0.28125q0.578125 0 0.953125 0.25q0.375 0.25 0.515625 0.625l0.140625 -0.8125l0.734375 0l-0.765625 4.390625l-0.75 0l0.15625 -0.8125q-0.28125 0.375 -0.765625 0.640625q-0.46875 0.25 -1.03125 0.25q-0.515625 0 -0.90625 -0.21875q-0.390625 -0.234375 -0.609375 -0.640625q-0.21875 -0.40625 -0.21875 -0.9375q0 -0.234375 0.046875 -0.484375zm3.734375 0q0.03125 -0.171875 0.03125 -0.359375q0 -0.578125 -0.359375 -0.921875q-0.34375 -0.34375 -0.875 -0.34375q-0.40625 0 -0.78125 0.203125q-0.375 0.1875 -0.640625 0.5625q-0.265625 0.359375 -0.34375 0.859375q-0.03125 0.15625 -0.03125 0.359375q0 0.59375 0.34375 0.9375q0.34375 0.34375 0.875 0.34375q0.40625 0 0.78125 -0.1875q0.375 -0.203125 0.640625 -0.578125q0.265625 -0.375 0.359375 -0.875zm2.6735535 1.0q-0.03125 0.125 -0.03125 0.21875q0 0.1875 0.125 0.28125q0.125 0.09375 0.40625 0.09375l0.546875 0l-0.125 0.609375l-0.65625 0q-0.515625 0 -0.78125 -0.203125q-0.25 -0.203125 -0.25 -0.65625q0 -0.171875 0.03125 -0.34375l0.453125 -2.578125l-0.5625 0l0.109375 -0.609375l0.5625 0l0.203125 -1.09375l0.734375 0l-0.203125 1.09375l1.140625 0l-0.109375 0.609375l-1.140625 0l-0.453125 2.578125zm3.0838318 -3.890625q-0.1875 0 -0.296875 -0.109375q-0.109375 -0.125 -0.109375 -0.296875q0 -0.25 0.171875 -0.421875q0.171875 -0.171875 0.40625 -0.171875q0.1875 0 0.296875 0.125q0.109375 0.109375 0.109375 0.28125q0 0.25 -0.171875 0.421875q-0.171875 0.171875 -0.40625 0.171875zm0.234375 0.703125l-0.78125 4.390625l-0.734375 0l0.78125 -4.390625l0.734375 0zm2.3898468 4.46875q-0.5625 0 -0.984375 -0.234375q-0.40625 -0.234375 -0.640625 -0.640625q-0.234375 -0.40625 -0.234375 -0.953125q0 -0.75 0.34375 -1.359375q0.34375 -0.625 0.9375 -0.984375q0.609375 -0.359375 1.359375 -0.359375q0.546875 0 0.96875 0.234375q0.4375 0.21875 0.671875 0.640625q0.234375 0.40625 0.234375 0.953125q0 0.75 -0.359375 1.375q-0.34375 0.609375 -0.953125 0.96875q-0.609375 0.359375 -1.34375 0.359375zm0.078125 -0.625q0.53125 0 0.9375 -0.28125q0.421875 -0.28125 0.65625 -0.75q0.234375 -0.46875 0.234375 -1.0q0 -0.609375 -0.359375 -0.9375q-0.34375 -0.328125 -0.875 -0.328125q-0.515625 0 -0.921875 0.296875q-0.40625 0.28125 -0.640625 0.75q-0.21875 0.46875 -0.21875 1.015625q0 0.59375 0.328125 0.921875q0.34375 0.3125 0.859375 0.3125zm6.041809 -3.921875q0.671875 0 1.078125 0.375q0.40625 0.359375 0.40625 1.046875q0 0.265625 -0.03125 0.46875l-0.453125 2.578125l-0.71875 0l0.4375 -2.484375q0.03125 -0.15625 0.03125 -0.34375q0 -0.484375 -0.265625 -0.734375q-0.265625 -0.265625 -0.75 -0.265625q-0.578125 0 -0.984375 0.359375q-0.40625 0.359375 -0.515625 1.046875l0 -0.015625l-0.4375 2.4375l-0.734375 0l0.78125 -4.390625l0.734375 0l-0.125 0.640625q0.28125 -0.34375 0.6875 -0.53125q0.40625 -0.1875 0.859375 -0.1875z" fill-rule="nonzero"/></g></svg>
