<svg version="1.1" viewBox="0.0 0.0 460.0 350.0" width="520" fill="none" stroke="none" stroke-linecap="square" stroke-miterlimit="10" xmlns:xlink="http://www.w3.org/1999/xlink" xmlns="http://www.w3.org/2000/svg"><clipPath id="g2dc23f9602b_0_144.0"><path d="m0 0l960.0 0l0 540.0l-960.0 0l0 -540.0z" clip-rule="nonzero"/></clipPath><g clip-path="url(#g2dc23f9602b_0_144.0)"><path fill="#000000" fill-opacity="0.0" d="m0 0l960.0 0l0 540.0l-960.0 0z" fill-rule="evenodd"/><path fill="#000000" fill-opacity="0.0" d="m95.31824 55.95868l0 0c-4.4677734 -4.4677773 -4.4677734 -11.711472 0 -16.179249l32.35753 -32.357525l0 0c2.1455078 -2.145502 5.05542 -3.3508325 8.08963 -3.3508325c3.034195 0 5.9441223 1.2053304 8.089615 3.3508325l32.35753 32.357525c4.4677734 4.4677773 4.4677734 11.711472 0 16.179249l-32.35753 32.35753c-4.4677734 4.4677734 -11.711472 4.4677734 -16.179245 0z" fill-rule="evenodd"/><path stroke="#99e0bb" stroke-width="2.0" stroke-linejoin="round" stroke-linecap="butt" d="m95.31824 55.95868l0 0c-4.4677734 -4.4677773 -4.4677734 -11.711472 0 -16.179249l32.35753 -32.357525l0 0c2.1455078 -2.145502 5.05542 -3.3508325 8.08963 -3.3508325c3.034195 0 5.9441223 1.2053304 8.089615 3.3508325l32.35753 32.357525c4.4677734 4.4677773 4.4677734 11.711472 0 16.179249l-32.35753 32.35753c-4.4677734 4.4677734 -11.711472 4.4677734 -16.179245 0z" fill-rule="evenodd"/><path fill="#000000" fill-opacity="0.0" d="m82.172676 27.796423l108.53632 0l0 45.247795l-108.53632 0z" fill-rule="evenodd"/><path fill="#99e0bb" d="m109.61238 45.552048l3.21875 0l0 1.484375l-5.28125 0l0 -1.390625l3.203125 -4.59375l-3.203125 0l0 -1.5l5.28125 0l0 1.390625l-3.21875 4.609375zm7.1324463 1.5625q-0.875 0 -1.578125 -0.359375q-0.703125 -0.375 -1.109375 -1.0625q-0.390625 -0.703125 -0.390625 -1.625q0 -0.921875 0.40625 -1.609375q0.40625 -0.703125 1.109375 -1.078125q0.703125 -0.375 1.578125 -0.375q0.875 0 1.578125 0.375q0.703125 0.375 1.109375 1.078125q0.40625 0.6875 0.40625 1.609375q0 0.90625 -0.421875 1.609375q-0.40625 0.703125 -1.125 1.078125q-0.703125 0.359375 -1.5625 0.359375zm0 -1.5625q0.515625 0 0.875 -0.390625q0.375 -0.390625 0.375 -1.09375q0 -0.71875 -0.359375 -1.09375q-0.359375 -0.390625 -0.875 -0.390625q-0.53125 0 -0.890625 0.375q-0.34375 0.375 -0.34375 1.109375q0 0.703125 0.34375 1.09375q0.34375 0.390625 0.875 0.390625zm6.788101 1.5625q-0.875 0 -1.578125 -0.359375q-0.703125 -0.375 -1.109375 -1.0625q-0.390625 -0.703125 -0.390625 -1.625q0 -0.921875 0.40625 -1.609375q0.40625 -0.703125 1.109375 -1.078125q0.703125 -0.375 1.578125 -0.375q0.875 0 1.578125 0.375q0.703125 0.375 1.109375 1.078125q0.40625 0.6875 0.40625 1.609375q0 0.90625 -0.421875 1.609375q-0.40625 0.703125 -1.125 1.078125q-0.703125 0.359375 -1.5625 0.359375zm0 -1.5625q0.515625 0 0.875 -0.390625q0.375 -0.390625 0.375 -1.09375q0 -0.71875 -0.359375 -1.09375q-0.359375 -0.390625 -0.875 -0.390625q-0.53125 0 -0.890625 0.375q-0.34375 0.375 -0.34375 1.109375q0 0.703125 0.34375 1.09375q0.34375 0.390625 0.875 0.390625zm8.413101 1.484375l-2.515625 -3.296875l0 3.296875l-1.828125 0l0 -7.484375l1.828125 0l0 3.28125l2.484375 -3.28125l2.15625 0l-2.90625 3.671875l3.0 3.8125l-2.21875 0zm8.6931 -3.0625q0 0.25 -0.03125 0.53125l-4.125 0q0.046875 0.546875 0.359375 0.84375q0.3125 0.296875 0.765625 0.296875q0.6875 0 0.953125 -0.578125l1.9375 0q-0.140625 0.578125 -0.53125 1.046875q-0.390625 0.46875 -0.984375 0.734375q-0.578125 0.265625 -1.3125 0.265625q-0.875 0 -1.5625 -0.359375q-0.671875 -0.375 -1.0625 -1.0625q-0.375 -0.703125 -0.375 -1.625q0 -0.9375 0.375 -1.625q0.390625 -0.6875 1.0625 -1.0625q0.6875 -0.375 1.5625 -0.375q0.875 0 1.546875 0.359375q0.671875 0.359375 1.046875 1.03125q0.375 0.671875 0.375 1.578125zm-1.859375 -0.484375q0 -0.46875 -0.328125 -0.75q-0.3125 -0.28125 -0.796875 -0.28125q-0.453125 0 -0.78125 0.28125q-0.3125 0.265625 -0.375 0.75l2.28125 0zm8.423691 0.484375q0 0.25 -0.03125 0.53125l-4.125 0q0.046875 0.546875 0.359375 0.84375q0.3125 0.296875 0.765625 0.296875q0.6875 0 0.953125 -0.578125l1.9375 0q-0.140625 0.578125 -0.53125 1.046875q-0.390625 0.46875 -0.984375 0.734375q-0.578125 0.265625 -1.3125 0.265625q-0.875 0 -1.5625 -0.359375q-0.671875 -0.375 -1.0625 -1.0625q-0.375 -0.703125 -0.375 -1.625q0 -0.9375 0.375 -1.625q0.390625 -0.6875 1.0625 -1.0625q0.6875 -0.375 1.5625 -0.375q0.875 0 1.546875 0.359375q0.671875 0.359375 1.046875 1.03125q0.375 0.671875 0.375 1.578125zm-1.859375 -0.484375q0 -0.46875 -0.328125 -0.75q-0.3125 -0.28125 -0.796875 -0.28125q-0.453125 0 -0.78125 0.28125q-0.3125 0.265625 -0.375 0.75l2.28125 0zm4.642441 -1.5625q0.265625 -0.40625 0.734375 -0.65625q0.46875 -0.265625 1.09375 -0.265625q0.734375 0 1.328125 0.375q0.609375 0.375 0.953125 1.0625q0.34375 0.6875 0.34375 1.609375q0 0.921875 -0.34375 1.625q-0.34375 0.6875 -0.953125 1.0625q-0.59375 0.375 -1.328125 0.375q-0.609375 0 -1.09375 -0.25q-0.46875 -0.25 -0.734375 -0.65625l0 3.65625l-1.828125 0l0 -8.78125l1.828125 0l0 0.84375zm2.59375 2.125q0 -0.6875 -0.375 -1.0625q-0.375 -0.390625 -0.9375 -0.390625q-0.53125 0 -0.921875 0.390625q-0.375 0.390625 -0.375 1.078125q0 0.671875 0.375 1.078125q0.390625 0.390625 0.921875 0.390625q0.546875 0 0.921875 -0.390625q0.390625 -0.40625 0.390625 -1.09375zm8.423172 -0.078125q0 0.25 -0.03125 0.53125l-4.125 0q0.046875 0.546875 0.359375 0.84375q0.3125 0.296875 0.765625 0.296875q0.6875 0 0.953125 -0.578125l1.9375 0q-0.140625 0.578125 -0.53125 1.046875q-0.390625 0.46875 -0.984375 0.734375q-0.578125 0.265625 -1.3125 0.265625q-0.875 0 -1.5625 -0.359375q-0.671875 -0.375 -1.0625 -1.0625q-0.375 -0.703125 -0.375 -1.625q0 -0.9375 0.375 -1.625q0.390625 -0.6875 1.0625 -1.0625q0.6875 -0.375 1.5625 -0.375q0.875 0 1.546875 0.359375q0.671875 0.359375 1.046875 1.03125q0.375 0.671875 0.375 1.578125zm-1.859375 -0.484375q0 -0.46875 -0.328125 -0.75q-0.3125 -0.28125 -0.796875 -0.28125q-0.453125 0 -0.78125 0.28125q-0.3125 0.265625 -0.375 0.75l2.28125 0zm4.642441 -1.40625q0.3125 -0.5 0.796875 -0.78125q0.484375 -0.28125 1.0625 -0.28125l0 1.9375l-0.5 0q-0.671875 0 -1.015625 0.296875q-0.34375 0.28125 -0.34375 1.015625l0 2.765625l-1.828125 0l0 -5.953125l1.828125 0l0 1.0z" fill-rule="nonzero"/><path fill="#99e0bb" d="m118.94902 52.35205l0 1.46875l-3.046875 0l0 1.578125l2.28125 0l0 1.40625l-2.28125 0l0 3.03125l-1.828125 0l0 -7.484375l4.875 0zm3.6727753 7.5625q-0.875 0 -1.578125 -0.359375q-0.703125 -0.375 -1.109375 -1.0625q-0.390625 -0.703125 -0.390625 -1.625q0 -0.921875 0.40625 -1.609375q0.40625 -0.703125 1.109375 -1.078125q0.703125 -0.375 1.578125 -0.375q0.875 0 1.578125 0.375q0.703125 0.375 1.109375 1.078125q0.40625 0.6875 0.40625 1.609375q0 0.90625 -0.421875 1.609375q-0.40625 0.703125 -1.125 1.078125q-0.703125 0.359375 -1.5625 0.359375zm0 -1.5625q0.515625 0 0.875 -0.390625q0.375 -0.390625 0.375 -1.09375q0 -0.71875 -0.359375 -1.09375q-0.359375 -0.390625 -0.875 -0.390625q-0.53125 0 -0.890625 0.375q-0.34375 0.375 -0.34375 1.109375q0 0.703125 0.34375 1.09375q0.34375 0.390625 0.875 0.390625zm5.897476 -6.40625l0 7.890625l-1.828125 0l0 -7.890625l1.828125 0zm3.143631 0l0 7.890625l-1.828125 0l0 -7.890625l1.828125 0zm4.034256 7.96875q-0.875 0 -1.578125 -0.359375q-0.703125 -0.375 -1.109375 -1.0625q-0.390625 -0.703125 -0.390625 -1.625q0 -0.921875 0.40625 -1.609375q0.40625 -0.703125 1.109375 -1.078125q0.703125 -0.375 1.578125 -0.375q0.875 0 1.578125 0.375q0.703125 0.375 1.109375 1.078125q0.40625 0.6875 0.40625 1.609375q0 0.90625 -0.421875 1.609375q-0.40625 0.703125 -1.125 1.078125q-0.703125 0.359375 -1.5625 0.359375zm0 -1.5625q0.515625 0 0.875 -0.390625q0.375 -0.390625 0.375 -1.09375q0 -0.71875 -0.359375 -1.09375q-0.359375 -0.390625 -0.875 -0.390625q-0.53125 0 -0.890625 0.375q-0.34375 0.375 -0.34375 1.109375q0 0.703125 0.34375 1.09375q0.34375 0.390625 0.875 0.390625zm12.616226 -4.46875l-1.609375 5.953125l-2.015625 0l-0.9375 -3.859375l-0.96875 3.859375l-2.015625 0l-1.609375 -5.953125l1.8125 0l0.84375 4.265625l1.0 -4.265625l1.9375 0l1.015625 4.234375l0.828125 -4.234375l1.71875 0zm6.290909 2.890625q0 0.25 -0.03125 0.53125l-4.125 0q0.046875 0.546875 0.359375 0.84375q0.3125 0.296875 0.765625 0.296875q0.6875 0 0.953125 -0.578125l1.9375 0q-0.140625 0.578125 -0.53125 1.046875q-0.390625 0.46875 -0.984375 0.734375q-0.578125 0.265625 -1.3125 0.265625q-0.875 0 -1.5625 -0.359375q-0.671875 -0.375 -1.0625 -1.0625q-0.375 -0.703125 -0.375 -1.625q0 -0.9375 0.375 -1.625q0.390625 -0.6875 1.0625 -1.0625q0.6875 -0.375 1.5625 -0.375q0.875 0 1.546875 0.359375q0.671875 0.359375 1.046875 1.03125q0.375 0.671875 0.375 1.578125zm-1.859375 -0.484375q0 -0.46875 -0.328125 -0.75q-0.3125 -0.28125 -0.796875 -0.28125q-0.453125 0 -0.78125 0.28125q-0.3125 0.265625 -0.375 0.75l2.28125 0zm4.642441 -1.40625q0.3125 -0.5 0.796875 -0.78125q0.484375 -0.28125 1.0625 -0.28125l0 1.9375l-0.5 0q-0.671875 0 -1.015625 0.296875q-0.34375 0.28125 -0.34375 1.015625l0 2.765625l-1.828125 0l0 -5.953125l1.828125 0l0 1.0z" fill-rule="nonzero"/><path fill="#000000" fill-opacity="0.0" d="m165.69554 243.24147l62.015747 -35.81102" fill-rule="evenodd"/><path stroke="#99e0bb" stroke-width="2.0" stroke-linejoin="round" stroke-linecap="butt" d="m165.69554 243.24147l51.623886 -29.810242" fill-rule="evenodd"/><path fill="#99e0bb" stroke="#99e0bb" stroke-width="2.0" stroke-linecap="butt" d="m218.97137 216.29199l6.2079315 -7.39946l-9.511826 1.6779327z" fill-rule="evenodd"/><path fill="#000000" fill-opacity="0.0" d="m362.90552 244.55118l-64.37796 -37.165344" fill-rule="evenodd"/><path stroke="#99e0bb" stroke-width="2.0" stroke-linejoin="round" stroke-linecap="butt" d="m362.90552 244.55118l-53.985413 -31.165741" fill-rule="evenodd"/><path fill="#99e0bb" stroke="#99e0bb" stroke-width="2.0" stroke-linecap="butt" d="m310.57172 210.52448l-9.512024 -1.6768494l6.2087708 7.398758z" fill-rule="evenodd"/><path fill="#000000" fill-opacity="0.0" d="m263.56168 236.03848l0 -20.094498" fill-rule="evenodd"/><path stroke="#99e0bb" stroke-width="2.0" stroke-linejoin="round" stroke-linecap="butt" d="m263.56168 236.03848l0 -8.094482" fill-rule="evenodd"/><path fill="#99e0bb" stroke="#99e0bb" stroke-width="2.0" stroke-linecap="butt" d="m266.86514 227.944l-3.3034668 -9.076202l-3.3034668 9.076202z" fill-rule="evenodd"/><path fill="#000000" fill-opacity="0.0" d="m264.42258 121.622l0 -21.291344" fill-rule="evenodd"/><path stroke="#ffffff" stroke-width="2.0" stroke-linejoin="round" stroke-linecap="butt" d="m264.42258 121.621994l0 -9.291336" fill-rule="evenodd"/><path fill="#ffffff" stroke="#ffffff" stroke-width="2.0" stroke-linecap="butt" d="m267.72604 112.33066l-3.3034668 -9.076195l-3.3034668 9.076195z" fill-rule="evenodd"/><path fill="#0a1432" d="m225.54755 169.43753l0 0c0 -21.415009 17.36029 -38.7753 38.7753 -38.7753l0 0c10.283844 0 20.146484 4.0852356 27.418274 11.35701c7.2717896 7.2717896 11.357025 17.13443 11.357025 27.41829l0 0c0 21.415009 -17.36029 38.7753 -38.7753 38.7753l0 0c-21.415009 0 -38.7753 -17.36029 -38.7753 -38.7753z" fill-rule="evenodd"/><path stroke="#ffffff" stroke-width="2.0" stroke-linejoin="round" stroke-linecap="butt" d="m225.54755 169.43753l0 0c0 -21.415009 17.36029 -38.7753 38.7753 -38.7753l0 0c10.283844 0 20.146484 4.0852356 27.418274 11.35701c7.2717896 7.2717896 11.357025 17.13443 11.357025 27.41829l0 0c0 21.415009 -17.36029 38.7753 -38.7753 38.7753l0 0c-21.415009 0 -38.7753 -17.36029 -38.7753 -38.7753z" fill-rule="evenodd"/><path fill="#ffffff" d="m262.21277 168.88591c1.225708 0 2.2152405 0.9895325 2.2152405 2.2152405c0 1.225708 -0.9895325 2.2154083 -2.2152405 2.2154083c-1.225708 0 -2.2266235 -0.9897003 -2.2266235 -2.2154083c0 -1.225708 1.0009155 -2.2152405 2.2266235 -2.2152405zm11.132568 6.3872986c1.225708 0 2.2152405 0.9895325 2.2152405 2.2152405c0 1.225708 -0.9895325 2.2152405 -2.2152405 2.2152405c-1.225708 0 -2.2152405 -0.9895325 -2.2152405 -2.2152405c0 -1.225708 0.9895325 -2.2152405 2.2152405 -2.2152405zm-11.132568 5.633606c1.6979065 0 3.0923767 1.3832703 3.0923767 3.0925446c0 1.7090912 -1.3944702 3.0923615 -3.0923767 3.0923615c-1.709259 0 -3.1035767 -1.3832703 -3.1035767 -3.0923615c0 -1.7092743 1.3943176 -3.0925446 3.1035767 -3.0925446zm11.132568 7.421829c1.225708 0 2.2152405 1.0007324 2.2152405 2.2152405c0 1.225708 -0.9895325 2.2266083 -2.2152405 2.2266083c-1.225708 0 -2.2152405 -1.0009003 -2.2152405 -2.2266083c0 -1.214508 0.9895325 -2.2152405 2.2152405 -2.2152405zm-11.132568 6.51091c1.225708 0 2.2152405 1.0007324 2.2152405 2.2152405c0 1.225708 -0.9895325 2.2264404 -2.2152405 2.2264404c-1.225708 0 -2.2266235 -1.0007324 -2.2266235 -2.2264404c0 -1.214508 1.0009155 -2.2152405 2.2266235 -2.2152405zm0 -28.315063c-2.5302124 0 -4.57666 2.057846 -4.57666 4.57666c0 2.1704102 1.5179138 3.9920807 3.5533447 4.453064l0 2.6313934c-2.777588 0.48355103 -4.891632 2.901184 -4.891632 5.813751c0 2.9235992 2.1366272 5.3526 4.925415 5.8247833l0 2.7663727c-2.0466309 0.44978333 -3.5871277 2.2826538 -3.5871277 4.464279c0 2.5301971 2.0464478 4.57666 4.57666 4.57666c2.5188293 0 4.57666 -2.046463 4.57666 -4.57666c0 -2.1816254 -1.5404968 -4.014496 -3.5983276 -4.464279l0 -2.7663727c1.4168701 -0.23600769 2.6987915 -0.9895325 3.5983276 -2.0914612l2.1702576 1.5292969c-0.12359619 0.4047699 -0.19100952 0.843338 -0.19100952 1.2819061c0 2.5301971 2.0578308 4.576828 4.57666 4.576828c2.5188293 0 4.57666 -2.0466309 4.57666 -4.576828c0 -2.5188293 -2.0578308 -4.5766754 -4.57666 -4.5766754c-1.3718872 0 -2.5975952 0.60717773 -3.4297485 1.5630798l-2.159027 -1.5180817c0.23617554 -0.6297455 0.35977173 -1.3044891 0.35977173 -2.012848c0 -0.69732666 -0.12359619 -1.3606873 -0.33737183 -1.9792328l2.1366272 -1.5068817c0.8433533 0.94470215 2.0690613 1.5518799 3.4297485 1.5518799c2.5188293 0 4.57666 -2.057846 4.57666 -4.5766754c0 -2.5189972 -2.0578308 -4.576828 -4.57666 -4.576828c-2.5188293 0 -4.57666 2.0578308 -4.57666 4.576828c0 0.44976807 0.06741333 0.8883362 0.19100952 1.3043213l-2.1476746 1.5068817c-0.89971924 -1.1133118 -2.19281 -1.8890686 -3.665924 -2.1366272l0 -2.5862274c2.0802612 -0.42736816 3.643341 -2.2716064 3.643341 -4.475647c0 -2.518814 -2.0578308 -4.57666 -4.57666 -4.57666z" fill-rule="evenodd"/><path fill="#000000" fill-opacity="0.0" d="m225.5019 130.15028l77.55058 0l0 35.119553l-77.55058 0z" fill-rule="evenodd"/><path fill="#ffffff" d="m255.49113 148.11028l-2.6875 -2.96875l0 2.96875l-0.84375 0l0 -6.5l0.84375 0l0 3.015625l2.6875 -3.015625l1.0781403 0l-2.9531403 3.25l2.9843903 3.25l-1.1093903 0zm1.7438202 -2.578125q0 -0.78125 0.3125 -1.375q0.3125 -0.59375 0.859375 -0.921875q0.5625 -0.328125 1.25 -0.328125q0.671875 0 1.15625 0.296875q0.5 0.28125 0.75 0.734375l0 -0.9375l0.859375 0l0 5.109375l-0.859375 0l0 -0.953125q-0.25 0.453125 -0.75 0.75q-0.5 0.28125 -1.171875 0.28125q-0.671875 0 -1.234375 -0.328125q-0.546875 -0.34375 -0.859375 -0.9375q-0.3125 -0.609375 -0.3125 -1.390625zm4.328125 0.015625q0 -0.578125 -0.234375 -1.0q-0.234375 -0.4375 -0.640625 -0.65625q-0.390625 -0.234375 -0.859375 -0.234375q-0.484375 0 -0.875 0.21875q-0.390625 0.21875 -0.625 0.65625q-0.234375 0.421875 -0.234375 1.0q0 0.59375 0.234375 1.03125q0.234375 0.421875 0.625 0.65625q0.390625 0.234375 0.875 0.234375q0.46875 0 0.859375 -0.234375q0.40625 -0.234375 0.640625 -0.65625q0.234375 -0.4375 0.234375 -1.015625zm4.3683167 -1.84375l-1.078125 0l0 4.40625l-0.84375 0l0 -4.40625l-0.65625 0l0 -0.703125l0.65625 0l0 -0.359375q0 -0.859375 0.4375 -1.25q0.453125 -0.40625 1.4375 -0.40625l0 0.703125q-0.5625 0 -0.796875 0.21875q-0.234375 0.21875 -0.234375 0.734375l0 0.359375l1.078125 0l0 0.703125zm3.8501892 4.40625l-2.015625 -2.25l0 2.25l-0.84375 0l0 -6.90625l0.84375 0l0 4.0625l1.96875 -2.265625l1.1875 0l-2.40625 2.546875l2.421875 2.5625l-1.15625 0zm1.6321106 -2.578125q0 -0.78125 0.3125 -1.375q0.3125 -0.59375 0.859375 -0.921875q0.5625 -0.328125 1.25 -0.328125q0.671875 0 1.15625 0.296875q0.5 0.28125 0.75 0.734375l0 -0.9375l0.859375 0l0 5.109375l-0.859375 0l0 -0.953125q-0.25 0.453125 -0.75 0.75q-0.5 0.28125 -1.171875 0.28125q-0.671875 0 -1.234375 -0.328125q-0.546875 -0.34375 -0.859375 -0.9375q-0.3125 -0.609375 -0.3125 -1.390625zm4.328125 0.015625q0 -0.578125 -0.234375 -1.0q-0.234375 -0.4375 -0.640625 -0.65625q-0.390625 -0.234375 -0.859375 -0.234375q-0.484375 0 -0.875 0.21875q-0.390625 0.21875 -0.625 0.65625q-0.234375 0.421875 -0.234375 1.0q0 0.59375 0.234375 1.03125q0.234375 0.421875 0.625 0.65625q0.390625 0.234375 0.875 0.234375q0.46875 0 0.859375 -0.234375q0.40625 -0.234375 0.640625 -0.65625q0.234375 -0.4375 0.234375 -1.015625z" fill-rule="nonzero"/><path fill="#ffffff" d="m241.76425 156.06027q0 -0.953125 0.421875 -1.71875q0.4375 -0.765625 1.171875 -1.1875q0.75 -0.421875 1.640625 -0.421875q1.0625 0 1.859375 0.515625q0.796875 0.5 1.15625 1.4375l-1.015625 0q-0.265625 -0.578125 -0.78125 -0.890625q-0.5 -0.328125 -1.21875 -0.328125q-0.671875 0 -1.21875 0.328125q-0.53125 0.3125 -0.84375 0.890625q-0.3125 0.578125 -0.3125 1.375q0 0.765625 0.3125 1.359375q0.3125 0.578125 0.84375 0.890625q0.546875 0.3125 1.21875 0.3125q0.71875 0 1.21875 -0.3125q0.515625 -0.3125 0.78125 -0.890625l1.015625 0q-0.359375 0.9375 -1.15625 1.453125q-0.796875 0.5 -1.859375 0.5q-0.890625 0 -1.640625 -0.421875q-0.734375 -0.4375 -1.171875 -1.1875q-0.421875 -0.75 -0.421875 -1.703125zm9.748184 3.328125q-0.71875 0 -1.3125 -0.3125q-0.578125 -0.328125 -0.90625 -0.921875q-0.328125 -0.609375 -0.328125 -1.40625q0 -0.78125 0.328125 -1.375q0.34375 -0.609375 0.921875 -0.9375q0.59375 -0.328125 1.328125 -0.328125q0.734375 0 1.3125 0.328125q0.59375 0.328125 0.921875 0.921875q0.34375 0.59375 0.34375 1.390625q0 0.796875 -0.34375 1.40625q-0.34375 0.59375 -0.953125 0.921875q-0.59375 0.3125 -1.3125 0.3125zm0 -0.734375q0.453125 0 0.84375 -0.21875q0.40625 -0.21875 0.65625 -0.640625q0.25 -0.4375 0.25 -1.046875q0 -0.625 -0.25 -1.046875q-0.234375 -0.4375 -0.625 -0.640625q-0.390625 -0.203125 -0.859375 -0.203125q-0.453125 0 -0.84375 0.203125q-0.390625 0.203125 -0.625 0.640625q-0.234375 0.421875 -0.234375 1.046875q0 0.625 0.21875 1.0625q0.234375 0.421875 0.609375 0.640625q0.390625 0.203125 0.859375 0.203125zm6.2200165 -4.546875q0.9375 0 1.515625 0.5625q0.578125 0.5625 0.578125 1.625l0 3.015625l-0.84375 0l0 -2.890625q0 -0.765625 -0.390625 -1.171875q-0.375 -0.40625 -1.03125 -0.40625q-0.671875 0 -1.078125 0.421875q-0.390625 0.421875 -0.390625 1.21875l0 2.828125l-0.84376526 0l0 -5.109375l0.84376526 0l0 0.71875q0.25 -0.390625 0.6875 -0.59375q0.4375 -0.21875 0.953125 -0.21875zm4.516876 0.796875l0 3.0q0 0.375 0.15625 0.53125q0.171875 0.15625 0.5625 0.15625l0.625 0l0 0.71875l-0.765625 0q-0.71875 0 -1.078125 -0.328125q-0.34375 -0.328125 -0.34375 -1.078125l0 -3.0l-0.65625 0l0 -0.703125l0.65625 0l0 -1.296875l0.84375 0l0 1.296875l1.34375 0l0 0.703125l-1.34375 0zm3.2079163 0.125q0.234375 -0.4375 0.640625 -0.671875q0.421875 -0.25 1.015625 -0.25l0 0.875l-0.21875 0q-1.4375 0 -1.4375 1.546875l0 2.78125l-0.84375 0l0 -5.109375l0.84375 0l0 0.828125zm4.8700256 4.359375q-0.71875 0 -1.3125 -0.3125q-0.578125 -0.328125 -0.90625 -0.921875q-0.328125 -0.609375 -0.328125 -1.40625q0 -0.78125 0.328125 -1.375q0.34375 -0.609375 0.921875 -0.9375q0.59375 -0.328125 1.328125 -0.328125q0.734375 0 1.3125 0.328125q0.59375 0.328125 0.921875 0.921875q0.34375 0.59375 0.34375 1.390625q0 0.796875 -0.34375 1.40625q-0.34375 0.59375 -0.953125 0.921875q-0.59375 0.3125 -1.3125 0.3125zm0 -0.734375q0.453125 0 0.84375 -0.21875q0.40625 -0.21875 0.65625 -0.640625q0.25 -0.4375 0.25 -1.046875q0 -0.625 -0.25 -1.046875q-0.234375 -0.4375 -0.625 -0.640625q-0.390625 -0.203125 -0.859375 -0.203125q-0.453125 0 -0.84375 0.203125q-0.390625 0.203125 -0.625 0.640625q-0.234375 0.421875 -0.234375 1.046875q0 0.625 0.21875 1.0625q0.234375 0.421875 0.609375 0.640625q0.390625 0.203125 0.859375 0.203125zm4.579376 -6.25l0 6.90625l-0.84375 0l0 -6.90625l0.84375 0zm2.2947083 0l0 6.90625l-0.84375 0l0 -6.90625l0.84375 0zm6.107239 4.15625q0 0.234375 -0.015625 0.515625l-4.09375 0q0.046875 0.75 0.515625 1.171875q0.46875 0.421875 1.140625 0.421875q0.5625 0 0.921875 -0.25q0.375 -0.25 0.515625 -0.6875l0.921875 0q-0.203125 0.734375 -0.828125 1.203125q-0.609375 0.453125 -1.53125 0.453125q-0.71875 0 -1.296875 -0.3125q-0.578125 -0.328125 -0.90625 -0.921875q-0.3125 -0.609375 -0.3125 -1.40625q0 -0.796875 0.3125 -1.390625q0.3125 -0.59375 0.890625 -0.921875q0.578125 -0.328125 1.3125 -0.328125q0.734375 0 1.296875 0.328125q0.5625 0.3125 0.859375 0.875q0.296875 0.546875 0.296875 1.25zm-0.875 -0.171875q0 -0.5 -0.21875 -0.84375q-0.203125 -0.34375 -0.578125 -0.53125q-0.359375 -0.1875 -0.8125 -0.1875q-0.640625 0 -1.09375 0.421875q-0.453125 0.40625 -0.515625 1.140625l3.21875 0zm2.8459167 -1.359375q0.234375 -0.4375 0.640625 -0.671875q0.421875 -0.25 1.015625 -0.25l0 0.875l-0.21875 0q-1.4375 0 -1.4375 1.546875l0 2.78125l-0.84375 0l0 -5.109375l0.84375 0l0 0.828125z" fill-rule="nonzero"/><path fill="#0a1432" d="m97.68828 285.76547l0 0c0 -21.415009 17.36029 -38.775314 38.7753 -38.775314l0 0c10.283844 0 20.1465 4.085251 27.418274 11.35704c7.2717896 7.271759 11.357025 17.13443 11.357025 27.418274l0 0c0 21.415009 -17.36029 38.7753 -38.7753 38.7753l0 0c-21.415009 0 -38.7753 -17.36029 -38.7753 -38.7753z" fill-rule="evenodd"/><path stroke="#99e0bb" stroke-width="2.0" stroke-linejoin="round" stroke-linecap="butt" d="m97.68828 285.76547l0 0c0 -21.415009 17.36029 -38.775314 38.7753 -38.775314l0 0c10.283844 0 20.1465 4.085251 27.418274 11.35704c7.2717896 7.271759 11.357025 17.13443 11.357025 27.418274l0 0c0 21.415009 -17.36029 38.7753 -38.7753 38.7753l0 0c-21.415009 0 -38.7753 -17.36029 -38.7753 -38.7753z" fill-rule="evenodd"/><path fill="#99e0bb" d="m134.3535 281.47552c1.225708 0 2.2152405 0.9895325 2.2152405 2.2152405c0 1.225708 -0.9895325 2.2154236 -2.2152405 2.2154236c-1.225708 0 -2.2266083 -0.9897156 -2.2266083 -2.2154236c0 -1.225708 1.0009003 -2.2152405 2.2266083 -2.2152405zm11.132568 6.3872986c1.225708 0 2.2152405 0.9895325 2.2152405 2.2152405c0 1.225708 -0.9895325 2.2152405 -2.2152405 2.2152405c-1.225708 0 -2.2152405 -0.9895325 -2.2152405 -2.2152405c0 -1.225708 0.9895325 -2.2152405 2.2152405 -2.2152405zm-11.132568 5.633606c1.6978912 0 3.0923767 1.3832703 3.0923767 3.0925598c0 1.7090759 -1.3944855 3.0923462 -3.0923767 3.0923462c-1.709259 0 -3.1035767 -1.3832703 -3.1035767 -3.0923462c0 -1.7092896 1.3943176 -3.0925598 3.1035767 -3.0925598zm11.132568 7.4218445c1.225708 0 2.2152405 1.0007324 2.2152405 2.2152405c0 1.225708 -0.9895325 2.226593 -2.2152405 2.226593c-1.225708 0 -2.2152405 -1.000885 -2.2152405 -2.226593c0 -1.214508 0.9895325 -2.2152405 2.2152405 -2.2152405zm-11.132568 6.510895c1.225708 0 2.2152405 1.0007324 2.2152405 2.2152405c0 1.225708 -0.9895325 2.2264404 -2.2152405 2.2264404c-1.225708 0 -2.2266083 -1.0007324 -2.2266083 -2.2264404c0 -1.214508 1.0009003 -2.2152405 2.2266083 -2.2152405zm0 -28.315063c-2.5301971 0 -4.57666 2.0578308 -4.57666 4.57666c0 2.1704102 1.5179138 3.992096 3.5533447 4.453064l0 2.6314087c-2.777588 0.48355103 -4.891632 2.901184 -4.891632 5.813751c0 2.923584 2.1366272 5.3526 4.925415 5.824768l0 2.766388c-2.0466309 0.44976807 -3.5871277 2.2826538 -3.5871277 4.464264c0 2.530182 2.046463 4.57666 4.57666 4.57666c2.5188293 0 4.5766754 -2.0464783 4.5766754 -4.57666c0 -2.18161 -1.5404968 -4.014496 -3.598343 -4.464264l0 -2.766388c1.4168854 -0.23599243 2.6987915 -0.9895325 3.598343 -2.0914612l2.1702423 1.5292969c-0.12361145 0.40478516 -0.19100952 0.8433533 -0.19100952 1.2819214c0 2.530182 2.057846 4.5768127 4.57666 4.5768127c2.5188293 0 4.5766754 -2.0466309 4.5766754 -4.5768127c0 -2.5188293 -2.057846 -4.5766907 -4.5766754 -4.5766907c-1.3718872 0 -2.5975952 0.60717773 -3.4297333 1.5630798l-2.1590424 -1.5180664c0.23617554 -0.62976074 0.359787 -1.3045044 0.359787 -2.012848c0 -0.69732666 -0.12361145 -1.3607178 -0.33737183 -1.979248l2.1366272 -1.5068665c0.843338 0.94470215 2.069046 1.5518494 3.4297333 1.5518494c2.5188293 0 4.5766754 -2.0578308 4.5766754 -4.57666c0 -2.518982 -2.057846 -4.5768433 -4.5766754 -4.5768433c-2.518814 0 -4.57666 2.0578613 -4.57666 4.5768433c0 0.44976807 0.06739807 0.8883362 0.19100952 1.3043213l-2.1476593 1.506897c-0.89971924 -1.1133118 -2.1928406 -1.8890991 -3.665924 -2.1366272l0 -2.5862427c2.0802612 -0.42736816 3.643341 -2.2716064 3.643341 -4.475647c0 -2.5188293 -2.057846 -4.57666 -4.5766754 -4.57666z" fill-rule="evenodd"/><path fill="#000000" fill-opacity="0.0" d="m97.64264 246.47821l77.5506 0l0 35.119568l-77.5506 0z" fill-rule="evenodd"/><path fill="#99e0bb" d="m125.76952 261.09445q0.359375 0.046875 0.65625 0.28125q0.296875 0.234375 0.46875 0.578125q0.171875 0.34375 0.171875 0.734375q0 0.5 -0.265625 0.90625q-0.25 0.390625 -0.734375 0.625q-0.46875 0.21875 -1.125 0.21875l-2.421875 0l0 -6.5l2.328125 0q0.671875 0 1.125 0.21875q0.46875 0.21875 0.703125 0.59375q0.234375 0.375 0.234375 0.84375q0 0.578125 -0.3125 0.953125q-0.3125 0.375 -0.828125 0.546875zm-2.40625 -0.34375l1.4375 0q0.59375 0 0.921875 -0.28125q0.328125 -0.28125 0.328125 -0.78125q0 -0.5 -0.328125 -0.765625q-0.328125 -0.28125 -0.953125 -0.28125l-1.40625 0l0 2.109375zm1.5 2.984375q0.640625 0 0.984375 -0.296875q0.359375 -0.296875 0.359375 -0.828125q0 -0.546875 -0.375 -0.859375q-0.359375 -0.3125 -0.984375 -0.3125l-1.484375 0l0 2.296875l1.5 0zm4.218132 -3.578125q0.234375 -0.4375 0.640625 -0.671875q0.421875 -0.25 1.015625 -0.25l0 0.875l-0.21875 0q-1.4375 0 -1.4375 1.546875l0 2.78125l-0.84375 0l0 -5.109375l0.84375 0l0 0.828125zm4.8700104 4.359375q-0.71875 0 -1.3125 -0.3125q-0.578125 -0.328125 -0.90625 -0.921875q-0.328125 -0.609375 -0.328125 -1.40625q0 -0.78125 0.328125 -1.375q0.34375 -0.609375 0.921875 -0.9375q0.59375 -0.328125 1.328125 -0.328125q0.734375 0 1.3125 0.328125q0.59375 0.328125 0.921875 0.921875q0.34375 0.59375 0.34375 1.390625q0 0.796875 -0.34375 1.40625q-0.34375 0.59375 -0.953125 0.921875q-0.59375 0.3125 -1.3125 0.3125zm0 -0.734375q0.453125 0 0.84375 -0.21875q0.40625 -0.21875 0.65625 -0.640625q0.25 -0.4375 0.25 -1.046875q0 -0.625 -0.25 -1.046875q-0.234375 -0.4375 -0.625 -0.640625q-0.390625 -0.203125 -0.859375 -0.203125q-0.453125 0 -0.84375 0.203125q-0.390625 0.203125 -0.625 0.640625q-0.234375 0.421875 -0.234375 1.046875q0 0.625 0.21875 1.0625q0.234375 0.421875 0.609375 0.640625q0.390625 0.203125 0.859375 0.203125zm6.595001 0.65625l-2.015625 -2.25l0 2.25l-0.84375 0l0 -6.90625l0.84375 0l0 4.0625l1.96875 -2.265625l1.1875 0l-2.40625 2.546875l2.421875 2.5625l-1.15625 0zm6.6008606 -2.75q0 0.234375 -0.015625 0.515625l-4.09375 0q0.046875 0.75 0.515625 1.171875q0.46875 0.421875 1.140625 0.421875q0.5625 0 0.921875 -0.25q0.375 -0.25 0.515625 -0.6875l0.921875 0q-0.203125 0.734375 -0.828125 1.203125q-0.609375 0.453125 -1.53125 0.453125q-0.71875 0 -1.296875 -0.3125q-0.578125 -0.328125 -0.90625 -0.921875q-0.3125 -0.609375 -0.3125 -1.40625q0 -0.796875 0.3125 -1.390625q0.3125 -0.59375 0.890625 -0.921875q0.578125 -0.328125 1.3125 -0.328125q0.734375 0 1.296875 0.328125q0.5625 0.3125 0.859375 0.875q0.296875 0.546875 0.296875 1.25zm-0.875 -0.171875q0 -0.5 -0.21875 -0.84375q-0.203125 -0.34375 -0.578125 -0.53125q-0.359375 -0.1875 -0.8125 -0.1875q-0.640625 0 -1.09375 0.421875q-0.453125 0.40625 -0.515625 1.140625l3.21875 0zm2.845932 -1.359375q0.234375 -0.4375 0.640625 -0.671875q0.421875 -0.25 1.015625 -0.25l0 0.875l-0.21875 0q-1.4375 0 -1.4375 1.546875l0 2.78125l-0.84375 0l0 -5.109375l0.84375 0l0 0.828125z" fill-rule="nonzero"/><path fill="#0a1432" d="m224.17778 285.76547l0 0c0 -21.415009 17.36029 -38.775314 38.775314 -38.775314l0 0c10.283844 0 20.146484 4.085251 27.418274 11.35704c7.271759 7.271759 11.357025 17.13443 11.357025 27.418274l0 0c0 21.415009 -17.360321 38.7753 -38.7753 38.7753l0 0c-21.415024 0 -38.775314 -17.36029 -38.775314 -38.7753z" fill-rule="evenodd"/><path stroke="#99e0bb" stroke-width="2.0" stroke-linejoin="round" stroke-linecap="butt" d="m224.17778 285.76547l0 0c0 -21.415009 17.36029 -38.775314 38.775314 -38.775314l0 0c10.283844 0 20.146484 4.085251 27.418274 11.35704c7.271759 7.271759 11.357025 17.13443 11.357025 27.418274l0 0c0 21.415009 -17.360321 38.7753 -38.7753 38.7753l0 0c-21.415024 0 -38.775314 -17.36029 -38.775314 -38.7753z" fill-rule="evenodd"/><path fill="#99e0bb" d="m260.84302 281.47552c1.225708 0 2.2152405 0.9895325 2.2152405 2.2152405c0 1.225708 -0.9895325 2.2154236 -2.2152405 2.2154236c-1.225708 0 -2.2266235 -0.9897156 -2.2266235 -2.2154236c0 -1.225708 1.0009155 -2.2152405 2.2266235 -2.2152405zm11.132568 6.3872986c1.225708 0 2.2152405 0.9895325 2.2152405 2.2152405c0 1.225708 -0.9895325 2.2152405 -2.2152405 2.2152405c-1.225708 0 -2.2152405 -0.9895325 -2.2152405 -2.2152405c0 -1.225708 0.9895325 -2.2152405 2.2152405 -2.2152405zm-11.132568 5.633606c1.697876 0 3.0923462 1.3832703 3.0923462 3.0925598c0 1.7090759 -1.3944702 3.0923462 -3.0923462 3.0923462c-1.7092896 0 -3.1035767 -1.3832703 -3.1035767 -3.0923462c0 -1.7092896 1.3942871 -3.0925598 3.1035767 -3.0925598zm11.132568 7.4218445c1.225708 0 2.2152405 1.0007324 2.2152405 2.2152405c0 1.225708 -0.9895325 2.226593 -2.2152405 2.226593c-1.225708 0 -2.2152405 -1.000885 -2.2152405 -2.226593c0 -1.214508 0.9895325 -2.2152405 2.2152405 -2.2152405zm-11.132568 6.510895c1.225708 0 2.2152405 1.0007324 2.2152405 2.2152405c0 1.225708 -0.9895325 2.2264404 -2.2152405 2.2264404c-1.225708 0 -2.2266235 -1.0007324 -2.2266235 -2.2264404c0 -1.214508 1.0009155 -2.2152405 2.2266235 -2.2152405zm0 -28.315063c-2.5302124 0 -4.5766907 2.0578308 -4.5766907 4.57666c0 2.1704102 1.5179138 3.992096 3.5533447 4.453064l0 2.6314087c-2.7775574 0.48355103 -4.891617 2.901184 -4.891617 5.813751c0 2.923584 2.1366425 5.3526 4.9254303 5.824768l0 2.766388c-2.0466614 0.44976807 -3.5871582 2.2826538 -3.5871582 4.464264c0 2.530182 2.0464783 4.57666 4.5766907 4.57666c2.5187988 0 4.57666 -2.0464783 4.57666 -4.57666c0 -2.18161 -1.5404968 -4.014496 -3.5983582 -4.464264l0 -2.766388c1.4169006 -0.23599243 2.698822 -0.9895325 3.5983582 -2.0914612l2.170227 1.5292969c-0.12359619 0.40478516 -0.19100952 0.8433533 -0.19100952 1.2819214c0 2.530182 2.0578613 4.5768127 4.5766907 4.5768127c2.5187988 0 4.57666 -2.0466309 4.57666 -4.5768127c0 -2.5188293 -2.0578613 -4.5766907 -4.57666 -4.5766907c-1.3719177 0 -2.5976257 0.60717773 -3.4297485 1.5630798l-2.1590576 -1.5180664c0.23617554 -0.62976074 0.35980225 -1.3045044 0.35980225 -2.012848c0 -0.69732666 -0.12362671 -1.3607178 -0.33737183 -1.979248l2.1366272 -1.5068665c0.84332275 0.94470215 2.0690308 1.5518494 3.4297485 1.5518494c2.5187988 0 4.57666 -2.0578308 4.57666 -4.57666c0 -2.518982 -2.0578613 -4.5768433 -4.57666 -4.5768433c-2.5188293 0 -4.5766907 2.0578613 -4.5766907 4.5768433c0 0.44976807 0.06741333 0.8883362 0.19100952 1.3043213l-2.147644 1.506897c-0.89971924 -1.1133118 -2.1928406 -1.8890991 -3.665924 -2.1366272l0 -2.5862427c2.0802612 -0.42736816 3.643341 -2.2716064 3.643341 -4.475647c0 -2.5188293 -2.0578613 -4.57666 -4.57666 -4.57666z" fill-rule="evenodd"/><path fill="#000000" fill-opacity="0.0" d="m224.13214 246.47821l77.5506 0l0 35.119568l-77.5506 0z" fill-rule="evenodd"/><path fill="#99e0bb" d="m252.25902 261.09445q0.359375 0.046875 0.65625 0.28125q0.296875 0.234375 0.46875 0.578125q0.171875 0.34375 0.171875 0.734375q0 0.5 -0.265625 0.90625q-0.25 0.390625 -0.734375 0.625q-0.46875 0.21875 -1.125 0.21875l-2.421875 0l0 -6.5l2.328125 0q0.671875 0 1.125 0.21875q0.46875 0.21875 0.703125 0.59375q0.234375 0.375 0.234375 0.84375q0 0.578125 -0.3125 0.953125q-0.3125 0.375 -0.828125 0.546875zm-2.40625 -0.34375l1.4375 0q0.59375 0 0.921875 -0.28125q0.328125 -0.28125 0.328125 -0.78125q0 -0.5 -0.328125 -0.765625q-0.328125 -0.28125 -0.953125 -0.28125l-1.40625 0l0 2.109375zm1.5 2.984375q0.640625 0 0.984375 -0.296875q0.359375 -0.296875 0.359375 -0.828125q0 -0.546875 -0.375 -0.859375q-0.359375 -0.3125 -0.984375 -0.3125l-1.484375 0l0 2.296875l1.5 0zm4.2181396 -3.578125q0.234375 -0.4375 0.64064026 -0.671875q0.421875 -0.25 1.015625 -0.25l0 0.875l-0.21875 0q-1.4375153 0 -1.4375153 1.546875l0 2.78125l-0.84375 0l0 -5.109375l0.84375 0l0 0.828125zm4.8700104 4.359375q-0.71875 0 -1.3125 -0.3125q-0.578125 -0.328125 -0.90625 -0.921875q-0.328125 -0.609375 -0.328125 -1.40625q0 -0.78125 0.328125 -1.375q0.34375 -0.609375 0.921875 -0.9375q0.59375 -0.328125 1.328125 -0.328125q0.734375 0 1.3125 0.328125q0.59375 0.328125 0.921875 0.921875q0.34375 0.59375 0.34375 1.390625q0 0.796875 -0.34375 1.40625q-0.34375 0.59375 -0.953125 0.921875q-0.59375 0.3125 -1.3125 0.3125zm0 -0.734375q0.453125 0 0.84375 -0.21875q0.40625 -0.21875 0.65625 -0.640625q0.25 -0.4375 0.25 -1.046875q0 -0.625 -0.25 -1.046875q-0.234375 -0.4375 -0.625 -0.640625q-0.390625 -0.203125 -0.859375 -0.203125q-0.453125 0 -0.84375 0.203125q-0.390625 0.203125 -0.625 0.640625q-0.234375 0.421875 -0.234375 1.046875q0 0.625 0.21875 1.0625q0.234375 0.421875 0.609375 0.640625q0.390625 0.203125 0.859375 0.203125zm6.595001 0.65625l-2.015625 -2.25l0 2.25l-0.84375 0l0 -6.90625l0.84375 0l0 4.0625l1.96875 -2.265625l1.1875 0l-2.40625 2.546875l2.421875 2.5625l-1.15625 0zm6.6008606 -2.75q0 0.234375 -0.015625 0.515625l-4.09375 0q0.046875 0.75 0.515625 1.171875q0.46875 0.421875 1.140625 0.421875q0.5625 0 0.921875 -0.25q0.375 -0.25 0.515625 -0.6875l0.921875 0q-0.203125 0.734375 -0.828125 1.203125q-0.609375 0.453125 -1.53125 0.453125q-0.71875 0 -1.296875 -0.3125q-0.578125 -0.328125 -0.90625 -0.921875q-0.3125 -0.609375 -0.3125 -1.40625q0 -0.796875 0.3125 -1.390625q0.3125 -0.59375 0.890625 -0.921875q0.578125 -0.328125 1.3125 -0.328125q0.734375 0 1.296875 0.328125q0.5625 0.3125 0.859375 0.875q0.296875 0.546875 0.296875 1.25zm-0.875 -0.171875q0 -0.5 -0.21875 -0.84375q-0.203125 -0.34375 -0.578125 -0.53125q-0.359375 -0.1875 -0.8125 -0.1875q-0.640625 0 -1.09375 0.421875q-0.453125 0.40625 -0.515625 1.140625l3.21875 0zm2.8459473 -1.359375q0.234375 -0.4375 0.640625 -0.671875q0.421875 -0.25 1.015625 -0.25l0 0.875l-0.21875 0q-1.4375 0 -1.4375 1.546875l0 2.78125l-0.84375 0l0 -5.109375l0.84375 0l0 0.828125z" fill-rule="nonzero"/><path fill="#0a1432" d="m353.0216 285.76547l0 0c0 -21.415009 17.36029 -38.775314 38.7753 -38.775314l0 0c10.283844 0 20.146515 4.085251 27.418274 11.35704c7.2717896 7.271759 11.357025 17.13443 11.357025 27.418274l0 0c0 21.415009 -17.36029 38.7753 -38.7753 38.7753l0 0c-21.415009 0 -38.7753 -17.36029 -38.7753 -38.7753z" fill-rule="evenodd"/><path stroke="#99e0bb" stroke-width="2.0" stroke-linejoin="round" stroke-linecap="butt" d="m353.0216 285.76547l0 0c0 -21.415009 17.36029 -38.775314 38.7753 -38.775314l0 0c10.283844 0 20.146515 4.085251 27.418274 11.35704c7.2717896 7.271759 11.357025 17.13443 11.357025 27.418274l0 0c0 21.415009 -17.36029 38.7753 -38.7753 38.7753l0 0c-21.415009 0 -38.7753 -17.36029 -38.7753 -38.7753z" fill-rule="evenodd"/><path fill="#99e0bb" d="m389.68683 281.47552c1.225708 0 2.2152405 0.9895325 2.2152405 2.2152405c0 1.225708 -0.9895325 2.2154236 -2.2152405 2.2154236c-1.225708 0 -2.226593 -0.9897156 -2.226593 -2.2154236c0 -1.225708 1.000885 -2.2152405 2.226593 -2.2152405zm11.132568 6.3872986c1.225708 0 2.2152405 0.9895325 2.2152405 2.2152405c0 1.225708 -0.9895325 2.2152405 -2.2152405 2.2152405c-1.225708 0 -2.2152405 -0.9895325 -2.2152405 -2.2152405c0 -1.225708 0.9895325 -2.2152405 2.2152405 -2.2152405zm-11.132568 5.633606c1.6979065 0 3.0923767 1.3832703 3.0923767 3.0925598c0 1.7090759 -1.3944702 3.0923462 -3.0923767 3.0923462c-1.709259 0 -3.1035767 -1.3832703 -3.1035767 -3.0923462c0 -1.7092896 1.3943176 -3.0925598 3.1035767 -3.0925598zm11.132568 7.4218445c1.225708 0 2.2152405 1.0007324 2.2152405 2.2152405c0 1.225708 -0.9895325 2.226593 -2.2152405 2.226593c-1.225708 0 -2.2152405 -1.000885 -2.2152405 -2.226593c0 -1.214508 0.9895325 -2.2152405 2.2152405 -2.2152405zm-11.132568 6.510895c1.225708 0 2.2152405 1.0007324 2.2152405 2.2152405c0 1.225708 -0.9895325 2.2264404 -2.2152405 2.2264404c-1.225708 0 -2.226593 -1.0007324 -2.226593 -2.2264404c0 -1.214508 1.000885 -2.2152405 2.226593 -2.2152405zm0 -28.315063c-2.530182 0 -4.57666 2.0578308 -4.57666 4.57666c0 2.1704102 1.5179138 3.992096 3.5533447 4.453064l0 2.6314087c-2.777588 0.48355103 -4.891632 2.901184 -4.891632 5.813751c0 2.923584 2.1366272 5.3526 4.925415 5.824768l0 2.766388c-2.0466309 0.44976807 -3.5871277 2.2826538 -3.5871277 4.464264c0 2.530182 2.0464783 4.57666 4.57666 4.57666c2.5188293 0 4.5766907 -2.0464783 4.5766907 -4.57666c0 -2.18161 -1.5405273 -4.014496 -3.5983582 -4.464264l0 -2.766388c1.4169006 -0.23599243 2.6987915 -0.9895325 3.5983582 -2.0914612l2.170227 1.5292969c-0.12359619 0.40478516 -0.19100952 0.8433533 -0.19100952 1.2819214c0 2.530182 2.0578308 4.5768127 4.57666 4.5768127c2.5188293 0 4.57666 -2.0466309 4.57666 -4.5768127c0 -2.5188293 -2.0578308 -4.5766907 -4.57666 -4.5766907c-1.3718872 0 -2.5975952 0.60717773 -3.4297485 1.5630798l-2.159027 -1.5180664c0.23617554 -0.62976074 0.35977173 -1.3045044 0.35977173 -2.012848c0 -0.69732666 -0.12359619 -1.3607178 -0.33737183 -1.979248l2.1366272 -1.5068665c0.8433533 0.94470215 2.0690613 1.5518494 3.4297485 1.5518494c2.5188293 0 4.57666 -2.0578308 4.57666 -4.57666c0 -2.518982 -2.0578308 -4.5768433 -4.57666 -4.5768433c-2.5188293 0 -4.57666 2.0578613 -4.57666 4.5768433c0 0.44976807 0.06741333 0.8883362 0.19100952 1.3043213l-2.1476746 1.506897c-0.8996887 -1.1133118 -2.19281 -1.8890991 -3.6658936 -2.1366272l0 -2.5862427c2.0802612 -0.42736816 3.643341 -2.2716064 3.643341 -4.475647c0 -2.5188293 -2.0578613 -4.57666 -4.5766907 -4.57666z" fill-rule="evenodd"/><path fill="#000000" fill-opacity="0.0" d="m352.97598 246.47821l77.5506 0l0 35.119568l-77.5506 0z" fill-rule="evenodd"/><path fill="#99e0bb" d="m381.10284 261.09445q0.359375 0.046875 0.65625 0.28125q0.296875 0.234375 0.46875 0.578125q0.171875 0.34375 0.171875 0.734375q0 0.5 -0.265625 0.90625q-0.25 0.390625 -0.734375 0.625q-0.46875 0.21875 -1.125 0.21875l-2.421875 0l0 -6.5l2.328125 0q0.671875 0 1.125 0.21875q0.46875 0.21875 0.703125 0.59375q0.234375 0.375 0.234375 0.84375q0 0.578125 -0.3125 0.953125q-0.3125 0.375 -0.828125 0.546875zm-2.40625 -0.34375l1.4375 0q0.59375 0 0.921875 -0.28125q0.328125 -0.28125 0.328125 -0.78125q0 -0.5 -0.328125 -0.765625q-0.328125 -0.28125 -0.953125 -0.28125l-1.40625 0l0 2.109375zm1.5 2.984375q0.640625 0 0.984375 -0.296875q0.359375 -0.296875 0.359375 -0.828125q0 -0.546875 -0.375 -0.859375q-0.359375 -0.3125 -0.984375 -0.3125l-1.484375 0l0 2.296875l1.5 0zm4.2181396 -3.578125q0.234375 -0.4375 0.640625 -0.671875q0.421875 -0.25 1.015625 -0.25l0 0.875l-0.21875 0q-1.4375 0 -1.4375 1.546875l0 2.78125l-0.84375 0l0 -5.109375l0.84375 0l0 0.828125zm4.8700256 4.359375q-0.71875 0 -1.3125 -0.3125q-0.578125 -0.328125 -0.90625 -0.921875q-0.328125 -0.609375 -0.328125 -1.40625q0 -0.78125 0.328125 -1.375q0.34375 -0.609375 0.921875 -0.9375q0.59375 -0.328125 1.328125 -0.328125q0.734375 0 1.3125 0.328125q0.59375 0.328125 0.921875 0.921875q0.34375 0.59375 0.34375 1.390625q0 0.796875 -0.34375 1.40625q-0.34375 0.59375 -0.953125 0.921875q-0.59375 0.3125 -1.3125 0.3125zm0 -0.734375q0.453125 0 0.84375 -0.21875q0.40625 -0.21875 0.65625 -0.640625q0.25 -0.4375 0.25 -1.046875q0 -0.625 -0.25 -1.046875q-0.234375 -0.4375 -0.625 -0.640625q-0.390625 -0.203125 -0.859375 -0.203125q-0.453125 0 -0.84375 0.203125q-0.390625 0.203125 -0.625 0.640625q-0.234375 0.421875 -0.234375 1.046875q0 0.625 0.21875 1.0625q0.234375 0.421875 0.609375 0.640625q0.390625 0.203125 0.859375 0.203125zm6.595001 0.65625l-2.015625 -2.25l0 2.25l-0.84375 0l0 -6.90625l0.84375 0l0 4.0625l1.96875 -2.265625l1.1875 0l-2.40625 2.546875l2.421875 2.5625l-1.15625 0zm6.6008606 -2.75q0 0.234375 -0.015625 0.515625l-4.09375 0q0.046875 0.75 0.515625 1.171875q0.46875 0.421875 1.140625 0.421875q0.5625 0 0.921875 -0.25q0.375 -0.25 0.515625 -0.6875l0.921875 0q-0.203125 0.734375 -0.828125 1.203125q-0.609375 0.453125 -1.53125 0.453125q-0.71875 0 -1.296875 -0.3125q-0.578125 -0.328125 -0.90625 -0.921875q-0.3125 -0.609375 -0.3125 -1.40625q0 -0.796875 0.3125 -1.390625q0.3125 -0.59375 0.890625 -0.921875q0.578125 -0.328125 1.3125 -0.328125q0.734375 0 1.296875 0.328125q0.5625 0.3125 0.859375 0.875q0.296875 0.546875 0.296875 1.25zm-0.875 -0.171875q0 -0.5 -0.21875 -0.84375q-0.203125 -0.34375 -0.578125 -0.53125q-0.359375 -0.1875 -0.8125 -0.1875q-0.640625 0 -1.09375 0.421875q-0.453125 0.40625 -0.515625 1.140625l3.21875 0zm2.8459167 -1.359375q0.234375 -0.4375 0.640625 -0.671875q0.421875 -0.25 1.015625 -0.25l0 0.875l-0.21875 0q-1.4375 0 -1.4375 1.546875l0 2.78125l-0.84375 0l0 -5.109375l0.84375 0l0 0.828125z" fill-rule="nonzero"/><path fill="#000000" fill-opacity="0.0" d="m224.31036 55.95868l0 0c-4.4677734 -4.4677773 -4.4677734 -11.711472 0 -16.179249l32.357544 -32.357525l0 0c2.1454773 -2.145502 5.05542 -3.3508325 8.0896 -3.3508325c3.0342102 0 5.9441223 1.2053304 8.08963 3.3508325l32.357544 32.357525c4.4677734 4.4677773 4.4677734 11.711472 0 16.179249l-32.357544 32.35753c-4.4677734 4.4677734 -11.711456 4.4677734 -16.17923 0z" fill-rule="evenodd"/><path stroke="#ffffff" stroke-width="2.0" stroke-linejoin="round" stroke-linecap="butt" d="m224.31036 55.95868l0 0c-4.4677734 -4.4677773 -4.4677734 -11.711472 0 -16.179249l32.357544 -32.357525l0 0c2.1454773 -2.145502 5.05542 -3.3508325 8.0896 -3.3508325c3.0342102 0 5.9441223 1.2053304 8.08963 3.3508325l32.357544 32.357525c4.4677734 4.4677773 4.4677734 11.711472 0 16.179249l-32.357544 32.35753c-4.4677734 4.4677734 -11.711456 4.4677734 -16.17923 0z" fill-rule="evenodd"/><path fill="#000000" fill-opacity="0.0" d="m211.16481 27.796423l108.53633 0l0 45.247795l-108.53633 0z" fill-rule="evenodd"/><path fill="#ffffff" d="m238.6045 45.552048l3.21875 0l0 1.484375l-5.28125 0l0 -1.390625l3.203125 -4.59375l-3.203125 0l0 -1.5l5.28125 0l0 1.390625l-3.21875 4.609375zm7.1324463 1.5625q-0.875 0 -1.578125 -0.359375q-0.703125 -0.375 -1.109375 -1.0625q-0.390625 -0.703125 -0.390625 -1.625q0 -0.921875 0.40625 -1.609375q0.40625 -0.703125 1.109375 -1.078125q0.703125 -0.375 1.578125 -0.375q0.875 0 1.578125 0.375q0.703125 0.375 1.109375 1.078125q0.40625 0.6875 0.40625 1.609375q0 0.90625 -0.421875 1.609375q-0.40625 0.703125 -1.125 1.078125q-0.703125 0.359375 -1.5625 0.359375zm0 -1.5625q0.515625 0 0.875 -0.390625q0.375 -0.390625 0.375 -1.09375q0 -0.71875 -0.359375 -1.09375q-0.359375 -0.390625 -0.875 -0.390625q-0.53125 0 -0.890625 0.375q-0.34375 0.375 -0.34375 1.109375q0 0.703125 0.34375 1.09375q0.34375 0.390625 0.875 0.390625zm6.788101 1.5625q-0.875 0 -1.578125 -0.359375q-0.703125 -0.375 -1.109375 -1.0625q-0.390625 -0.703125 -0.390625 -1.625q0 -0.921875 0.40625 -1.609375q0.40625 -0.703125 1.109375 -1.078125q0.703125 -0.375 1.578125 -0.375q0.875 0 1.578125 0.375q0.703125 0.375 1.109375 1.078125q0.40625 0.6875 0.40625 1.609375q0 0.90625 -0.421875 1.609375q-0.40625 0.703125 -1.125 1.078125q-0.703125 0.359375 -1.5625 0.359375zm0 -1.5625q0.515625 0 0.875 -0.390625q0.375 -0.390625 0.375 -1.09375q0 -0.71875 -0.359375 -1.09375q-0.359375 -0.390625 -0.875 -0.390625q-0.53125 0 -0.890625 0.375q-0.34375 0.375 -0.34375 1.109375q0 0.703125 0.34375 1.09375q0.34375 0.390625 0.875 0.390625zm8.413086 1.484375l-2.515625 -3.296875l0 3.296875l-1.828125 0l0 -7.484375l1.828125 0l0 3.28125l2.484375 -3.28125l2.15625 0l-2.90625 3.671875l3.0 3.8125l-2.21875 0zm8.693115 -3.0625q0 0.25 -0.03125 0.53125l-4.125 0q0.046875 0.546875 0.359375 0.84375q0.3125 0.296875 0.765625 0.296875q0.6875 0 0.953125 -0.578125l1.9375 0q-0.140625 0.578125 -0.53125 1.046875q-0.390625 0.46875 -0.984375 0.734375q-0.578125 0.265625 -1.3125 0.265625q-0.875 0 -1.5625 -0.359375q-0.671875 -0.375 -1.0625 -1.0625q-0.375 -0.703125 -0.375 -1.625q0 -0.9375 0.375 -1.625q0.390625 -0.6875 1.0625 -1.0625q0.6875 -0.375 1.5625 -0.375q0.875 0 1.546875 0.359375q0.671875 0.359375 1.046875 1.03125q0.375 0.671875 0.375 1.578125zm-1.859375 -0.484375q0 -0.46875 -0.328125 -0.75q-0.3125 -0.28125 -0.796875 -0.28125q-0.453125 0 -0.78125 0.28125q-0.3125 0.265625 -0.375 0.75l2.28125 0zm8.423676 0.484375q0 0.25 -0.03125 0.53125l-4.125 0q0.046875 0.546875 0.359375 0.84375q0.3125 0.296875 0.765625 0.296875q0.6875 0 0.953125 -0.578125l1.9375 0q-0.140625 0.578125 -0.53125 1.046875q-0.390625 0.46875 -0.984375 0.734375q-0.578125 0.265625 -1.3125 0.265625q-0.875 0 -1.5625 -0.359375q-0.671875 -0.375 -1.0625 -1.0625q-0.375 -0.703125 -0.375 -1.625q0 -0.9375 0.375 -1.625q0.390625 -0.6875 1.0625 -1.0625q0.6875 -0.375 1.5625 -0.375q0.875 0 1.546875 0.359375q0.671875 0.359375 1.046875 1.03125q0.375 0.671875 0.375 1.578125zm-1.859375 -0.484375q0 -0.46875 -0.328125 -0.75q-0.3125 -0.28125 -0.796875 -0.28125q-0.453125 0 -0.78125 0.28125q-0.3125 0.265625 -0.375 0.75l2.28125 0zm4.642456 -1.5625q0.265625 -0.40625 0.734375 -0.65625q0.46875 -0.265625 1.09375 -0.265625q0.734375 0 1.328125 0.375q0.609375 0.375 0.953125 1.0625q0.34375 0.6875 0.34375 1.609375q0 0.921875 -0.34375 1.625q-0.34375 0.6875 -0.953125 1.0625q-0.59375 0.375 -1.328125 0.375q-0.609375 0 -1.09375 -0.25q-0.46875 -0.25 -0.734375 -0.65625l0 3.65625l-1.828125 0l0 -8.78125l1.828125 0l0 0.84375zm2.59375 2.125q0 -0.6875 -0.375 -1.0625q-0.375 -0.390625 -0.9375 -0.390625q-0.53125 0 -0.921875 0.390625q-0.375 0.390625 -0.375 1.078125q0 0.671875 0.375 1.078125q0.390625 0.390625 0.921875 0.390625q0.546875 0 0.921875 -0.390625q0.390625 -0.40625 0.390625 -1.09375zm8.423157 -0.078125q0 0.25 -0.03125 0.53125l-4.125 0q0.046875 0.546875 0.359375 0.84375q0.3125 0.296875 0.765625 0.296875q0.6875 0 0.953125 -0.578125l1.9375 0q-0.140625 0.578125 -0.53125 1.046875q-0.390625 0.46875 -0.984375 0.734375q-0.578125 0.265625 -1.3125 0.265625q-0.875 0 -1.5625 -0.359375q-0.671875 -0.375 -1.0625 -1.0625q-0.375 -0.703125 -0.375 -1.625q0 -0.9375 0.375 -1.625q0.390625 -0.6875 1.0625 -1.0625q0.6875 -0.375 1.5625 -0.375q0.875 0 1.546875 0.359375q0.671875 0.359375 1.046875 1.03125q0.375 0.671875 0.375 1.578125zm-1.859375 -0.484375q0 -0.46875 -0.328125 -0.75q-0.3125 -0.28125 -0.796875 -0.28125q-0.453125 0 -0.78125 0.28125q-0.3125 0.265625 -0.375 0.75l2.28125 0zm4.642456 -1.40625q0.3125 -0.5 0.796875 -0.78125q0.484375 -0.28125 1.0625 -0.28125l0 1.9375l-0.5 0q-0.671875 0 -1.015625 0.296875q-0.34375 0.28125 -0.34375 1.015625l0 2.765625l-1.828125 0l0 -5.953125l1.828125 0l0 1.0z" fill-rule="nonzero"/><path fill="#ffffff" d="m249.29535 58.430176l2.390625 0l0 1.40625l-4.21875 0l0 -7.484375l1.828125 0l0 6.078125zm8.864319 -1.65625q0 0.25 -0.03125 0.53125l-4.1249847 0q0.046875 0.546875 0.359375 0.84375q0.3125 0.296875 0.765625 0.296875q0.6875 0 0.95310974 -0.578125l1.9375 0q-0.140625 0.578125 -0.53125 1.046875q-0.390625 0.46875 -0.984375 0.734375q-0.57810974 0.265625 -1.3124847 0.265625q-0.875 0 -1.5625 -0.359375q-0.671875 -0.375 -1.0625 -1.0625q-0.375 -0.703125 -0.375 -1.625q0 -0.9375 0.375 -1.625q0.390625 -0.6875 1.0625 -1.0625q0.6875 -0.375 1.5625 -0.375q0.87498474 0 1.5468597 0.359375q0.671875 0.359375 1.046875 1.03125q0.375 0.671875 0.375 1.578125zm-1.859375 -0.484375q0 -0.46875 -0.32810974 -0.75q-0.3125 -0.28125 -0.796875 -0.28125q-0.453125 0 -0.78125 0.28125q-0.3125 0.265625 -0.375 0.75l2.2812347 0zm2.454956 0.5625q0 -0.921875 0.34375 -1.609375q0.34375 -0.6875 0.9375 -1.0625q0.609375 -0.375 1.34375 -0.375q0.625 0 1.09375 0.265625q0.484375 0.25 0.734375 0.65625l0 -0.84375l1.828125 0l0 5.953125l-1.828125 0l0 -0.84375q-0.265625 0.421875 -0.75 0.671875q-0.46875 0.25 -1.09375 0.25q-0.71875 0 -1.328125 -0.375q-0.59375 -0.375 -0.9375 -1.0625q-0.34375 -0.703125 -0.34375 -1.625zm4.453125 0.015625q0 -0.6875 -0.375 -1.078125q-0.375 -0.390625 -0.921875 -0.390625q-0.546875 0 -0.921875 0.390625q-0.375 0.375 -0.375 1.0625q0 0.6875 0.375 1.09375q0.375 0.390625 0.921875 0.390625q0.546875 0 0.921875 -0.390625q0.375 -0.40625 0.375 -1.078125zm2.7825317 -0.015625q0 -0.921875 0.34375 -1.609375q0.34375 -0.6875 0.9375 -1.0625q0.609375 -0.375 1.34375 -0.375q0.578125 0 1.0625 0.25q0.484375 0.234375 0.765625 0.65625l0 -2.765625l1.828125 0l0 7.890625l-1.828125 0l0 -0.859375q-0.25 0.4375 -0.734375 0.6875q-0.46875 0.25 -1.09375 0.25q-0.734375 0 -1.34375 -0.375q-0.59375 -0.375 -0.9375 -1.0625q-0.34375 -0.703125 -0.34375 -1.625zm4.453125 0.015625q0 -0.6875 -0.375 -1.078125q-0.375 -0.390625 -0.921875 -0.390625q-0.546875 0 -0.921875 0.390625q-0.375 0.375 -0.375 1.0625q0 0.6875 0.375 1.09375q0.375 0.390625 0.921875 0.390625q0.546875 0 0.921875 -0.390625q0.375 -0.40625 0.375 -1.078125zm8.751312 -0.09375q0 0.25 -0.03125 0.53125l-4.125 0q0.046875 0.546875 0.359375 0.84375q0.3125 0.296875 0.765625 0.296875q0.6875 0 0.953125 -0.578125l1.9375 0q-0.140625 0.578125 -0.53125 1.046875q-0.390625 0.46875 -0.984375 0.734375q-0.578125 0.265625 -1.3125 0.265625q-0.875 0 -1.5625 -0.359375q-0.671875 -0.375 -1.0625 -1.0625q-0.375 -0.703125 -0.375 -1.625q0 -0.9375 0.375 -1.625q0.390625 -0.6875 1.0625 -1.0625q0.6875 -0.375 1.5625 -0.375q0.875 0 1.546875 0.359375q0.671875 0.359375 1.046875 1.03125q0.375 0.671875 0.375 1.578125zm-1.859375 -0.484375q0 -0.46875 -0.328125 -0.75q-0.3125 -0.28125 -0.796875 -0.28125q-0.453125 0 -0.78125 0.28125q-0.3125 0.265625 -0.375 0.75l2.28125 0zm4.6424255 -1.40625q0.3125 -0.5 0.796875 -0.78125q0.484375 -0.28125 1.0625 -0.28125l0 1.9375l-0.5 0q-0.671875 0 -1.015625 0.296875q-0.34375 0.28125 -0.34375 1.015625l0 2.765625l-1.828125 0l0 -5.953125l1.828125 0l0 1.0z" fill-rule="nonzero"/><path fill="#000000" fill-opacity="0.0" d="m350.65158 55.95868l0 0c-4.4677734 -4.4677773 -4.4677734 -11.711472 0 -16.179249l32.357513 -32.357525l0 0c2.1455078 -2.145502 5.05542 -3.3508325 8.08963 -3.3508325c3.0342102 0 5.9441223 1.2053304 8.08963 3.3508325l32.357513 32.357525c4.4677734 4.4677773 4.4677734 11.711472 0 16.179249l-32.357513 32.35753c-4.4677734 4.4677734 -11.711487 4.4677734 -16.17926 0z" fill-rule="evenodd"/><path stroke="#99e0bb" stroke-width="2.0" stroke-linejoin="round" stroke-linecap="butt" d="m350.65158 55.95868l0 0c-4.4677734 -4.4677773 -4.4677734 -11.711472 0 -16.179249l32.357513 -32.357525l0 0c2.1455078 -2.145502 5.05542 -3.3508325 8.08963 -3.3508325c3.0342102 0 5.9441223 1.2053304 8.08963 3.3508325l32.357513 32.357525c4.4677734 4.4677773 4.4677734 11.711472 0 16.179249l-32.357513 32.35753c-4.4677734 4.4677734 -11.711487 4.4677734 -16.17926 0z" fill-rule="evenodd"/><path fill="#000000" fill-opacity="0.0" d="m337.506 27.796423l108.536316 0l0 45.247795l-108.536316 0z" fill-rule="evenodd"/><path fill="#99e0bb" d="m364.9457 45.552048l3.21875 0l0 1.484375l-5.28125 0l0 -1.390625l3.203125 -4.59375l-3.203125 0l0 -1.5l5.28125 0l0 1.390625l-3.21875 4.609375zm7.1324463 1.5625q-0.875 0 -1.578125 -0.359375q-0.703125 -0.375 -1.109375 -1.0625q-0.390625 -0.703125 -0.390625 -1.625q0 -0.921875 0.40625 -1.609375q0.40625 -0.703125 1.109375 -1.078125q0.703125 -0.375 1.578125 -0.375q0.875 0 1.578125 0.375q0.703125 0.375 1.109375 1.078125q0.40625 0.6875 0.40625 1.609375q0 0.90625 -0.421875 1.609375q-0.40625 0.703125 -1.125 1.078125q-0.703125 0.359375 -1.5625 0.359375zm0 -1.5625q0.515625 0 0.875 -0.390625q0.375 -0.390625 0.375 -1.09375q0 -0.71875 -0.359375 -1.09375q-0.359375 -0.390625 -0.875 -0.390625q-0.53125 0 -0.890625 0.375q-0.34375 0.375 -0.34375 1.109375q0 0.703125 0.34375 1.09375q0.34375 0.390625 0.875 0.390625zm6.7881165 1.5625q-0.875 0 -1.578125 -0.359375q-0.703125 -0.375 -1.109375 -1.0625q-0.390625 -0.703125 -0.390625 -1.625q0 -0.921875 0.40625 -1.609375q0.40625 -0.703125 1.109375 -1.078125q0.703125 -0.375 1.578125 -0.375q0.875 0 1.578125 0.375q0.703125 0.375 1.109375 1.078125q0.40625 0.6875 0.40625 1.609375q0 0.90625 -0.421875 1.609375q-0.40625 0.703125 -1.125 1.078125q-0.703125 0.359375 -1.5625 0.359375zm0 -1.5625q0.515625 0 0.875 -0.390625q0.375 -0.390625 0.375 -1.09375q0 -0.71875 -0.359375 -1.09375q-0.359375 -0.390625 -0.875 -0.390625q-0.53125 0 -0.890625 0.375q-0.34375 0.375 -0.34375 1.109375q0 0.703125 0.34375 1.09375q0.34375 0.390625 0.875 0.390625zm8.413086 1.484375l-2.515625 -3.296875l0 3.296875l-1.828125 0l0 -7.484375l1.828125 0l0 3.28125l2.484375 -3.28125l2.15625 0l-2.90625 3.671875l3.0 3.8125l-2.21875 0zm8.693115 -3.0625q0 0.25 -0.03125 0.53125l-4.125 0q0.046875 0.546875 0.359375 0.84375q0.3125 0.296875 0.765625 0.296875q0.6875 0 0.953125 -0.578125l1.9375 0q-0.140625 0.578125 -0.53125 1.046875q-0.390625 0.46875 -0.984375 0.734375q-0.578125 0.265625 -1.3125 0.265625q-0.875 0 -1.5625 -0.359375q-0.671875 -0.375 -1.0625 -1.0625q-0.375 -0.703125 -0.375 -1.625q0 -0.9375 0.375 -1.625q0.390625 -0.6875 1.0625 -1.0625q0.6875 -0.375 1.5625 -0.375q0.875 0 1.546875 0.359375q0.671875 0.359375 1.046875 1.03125q0.375 0.671875 0.375 1.578125zm-1.859375 -0.484375q0 -0.46875 -0.328125 -0.75q-0.3125 -0.28125 -0.796875 -0.28125q-0.453125 0 -0.78125 0.28125q-0.3125 0.265625 -0.375 0.75l2.28125 0zm8.423676 0.484375q0 0.25 -0.03125 0.53125l-4.125 0q0.046875 0.546875 0.359375 0.84375q0.3125 0.296875 0.765625 0.296875q0.6875 0 0.953125 -0.578125l1.9375 0q-0.140625 0.578125 -0.53125 1.046875q-0.390625 0.46875 -0.984375 0.734375q-0.578125 0.265625 -1.3125 0.265625q-0.875 0 -1.5625 -0.359375q-0.671875 -0.375 -1.0625 -1.0625q-0.375 -0.703125 -0.375 -1.625q0 -0.9375 0.375 -1.625q0.390625 -0.6875 1.0625 -1.0625q0.6875 -0.375 1.5625 -0.375q0.875 0 1.546875 0.359375q0.671875 0.359375 1.046875 1.03125q0.375 0.671875 0.375 1.578125zm-1.859375 -0.484375q0 -0.46875 -0.328125 -0.75q-0.3125 -0.28125 -0.796875 -0.28125q-0.453125 0 -0.78125 0.28125q-0.3125 0.265625 -0.375 0.75l2.28125 0zm4.6424255 -1.5625q0.265625 -0.40625 0.734375 -0.65625q0.46875 -0.265625 1.09375 -0.265625q0.734375 0 1.328125 0.375q0.609375 0.375 0.953125 1.0625q0.34375 0.6875 0.34375 1.609375q0 0.921875 -0.34375 1.625q-0.34375 0.6875 -0.953125 1.0625q-0.59375 0.375 -1.328125 0.375q-0.609375 0 -1.09375 -0.25q-0.46875 -0.25 -0.734375 -0.65625l0 3.65625l-1.828125 0l0 -8.78125l1.828125 0l0 0.84375zm2.59375 2.125q0 -0.6875 -0.375 -1.0625q-0.375 -0.390625 -0.9375 -0.390625q-0.53125 0 -0.921875 0.390625q-0.375 0.390625 -0.375 1.078125q0 0.671875 0.375 1.078125q0.390625 0.390625 0.921875 0.390625q0.546875 0 0.921875 -0.390625q0.390625 -0.40625 0.390625 -1.09375zm8.423187 -0.078125q0 0.25 -0.03125 0.53125l-4.125 0q0.046875 0.546875 0.359375 0.84375q0.3125 0.296875 0.765625 0.296875q0.6875 0 0.953125 -0.578125l1.9375 0q-0.140625 0.578125 -0.53125 1.046875q-0.390625 0.46875 -0.984375 0.734375q-0.578125 0.265625 -1.3125 0.265625q-0.875 0 -1.5625 -0.359375q-0.671875 -0.375 -1.0625 -1.0625q-0.375 -0.703125 -0.375 -1.625q0 -0.9375 0.375 -1.625q0.390625 -0.6875 1.0625 -1.0625q0.6875 -0.375 1.5625 -0.375q0.875 0 1.546875 0.359375q0.671875 0.359375 1.046875 1.03125q0.375 0.671875 0.375 1.578125zm-1.859375 -0.484375q0 -0.46875 -0.328125 -0.75q-0.3125 -0.28125 -0.796875 -0.28125q-0.453125 0 -0.78125 0.28125q-0.3125 0.265625 -0.375 0.75l2.28125 0zm4.6424255 -1.40625q0.3125 -0.5 0.796875 -0.78125q0.484375 -0.28125 1.0625 -0.28125l0 1.9375l-0.5 0q-0.671875 0 -1.015625 0.296875q-0.34375 0.28125 -0.34375 1.015625l0 2.765625l-1.828125 0l0 -5.953125l1.828125 0l0 1.0z" fill-rule="nonzero"/><path fill="#99e0bb" d="m374.28235 52.35205l0 1.46875l-3.046875 0l0 1.578125l2.28125 0l0 1.40625l-2.28125 0l0 3.03125l-1.828125 0l0 -7.484375l4.875 0zm3.6727905 7.5625q-0.875 0 -1.578125 -0.359375q-0.703125 -0.375 -1.109375 -1.0625q-0.390625 -0.703125 -0.390625 -1.625q0 -0.921875 0.40625 -1.609375q0.40625 -0.703125 1.109375 -1.078125q0.703125 -0.375 1.578125 -0.375q0.875 0 1.578125 0.375q0.703125 0.375 1.109375 1.078125q0.40625 0.6875 0.40625 1.609375q0 0.90625 -0.421875 1.609375q-0.40625 0.703125 -1.125 1.078125q-0.703125 0.359375 -1.5625 0.359375zm0 -1.5625q0.515625 0 0.875 -0.390625q0.375 -0.390625 0.375 -1.09375q0 -0.71875 -0.359375 -1.09375q-0.359375 -0.390625 -0.875 -0.390625q-0.53125 0 -0.890625 0.375q-0.34375 0.375 -0.34375 1.109375q0 0.703125 0.34375 1.09375q0.34375 0.390625 0.875 0.390625zm5.897461 -6.40625l0 7.890625l-1.828125 0l0 -7.890625l1.828125 0zm3.1436462 0l0 7.890625l-1.828125 0l0 -7.890625l1.828125 0zm4.0342407 7.96875q-0.875 0 -1.578125 -0.359375q-0.703125 -0.375 -1.109375 -1.0625q-0.390625 -0.703125 -0.390625 -1.625q0 -0.921875 0.40625 -1.609375q0.40625 -0.703125 1.109375 -1.078125q0.703125 -0.375 1.578125 -0.375q0.875 0 1.578125 0.375q0.703125 0.375 1.109375 1.078125q0.40625 0.6875 0.40625 1.609375q0 0.90625 -0.421875 1.609375q-0.40625 0.703125 -1.125 1.078125q-0.703125 0.359375 -1.5625 0.359375zm0 -1.5625q0.515625 0 0.875 -0.390625q0.375 -0.390625 0.375 -1.09375q0 -0.71875 -0.359375 -1.09375q-0.359375 -0.390625 -0.875 -0.390625q-0.53125 0 -0.890625 0.375q-0.34375 0.375 -0.34375 1.109375q0 0.703125 0.34375 1.09375q0.34375 0.390625 0.875 0.390625zm12.616211 -4.46875l-1.609375 5.953125l-2.0155945 0l-0.9375 -3.859375l-0.96875 3.859375l-2.015625 0l-1.609375 -5.953125l1.8125 0l0.84375 4.265625l1.0 -4.265625l1.9375 0l1.015625 4.234375l0.8280945 -4.234375l1.71875 0zm6.290924 2.890625q0 0.25 -0.03125 0.53125l-4.125 0q0.046875 0.546875 0.359375 0.84375q0.3125 0.296875 0.765625 0.296875q0.6875 0 0.953125 -0.578125l1.9375 0q-0.140625 0.578125 -0.53125 1.046875q-0.390625 0.46875 -0.984375 0.734375q-0.578125 0.265625 -1.3125 0.265625q-0.875 0 -1.5625 -0.359375q-0.671875 -0.375 -1.0625 -1.0625q-0.375 -0.703125 -0.375 -1.625q0 -0.9375 0.375 -1.625q0.390625 -0.6875 1.0625 -1.0625q0.6875 -0.375 1.5625 -0.375q0.875 0 1.546875 0.359375q0.671875 0.359375 1.046875 1.03125q0.375 0.671875 0.375 1.578125zm-1.859375 -0.484375q0 -0.46875 -0.328125 -0.75q-0.3125 -0.28125 -0.796875 -0.28125q-0.453125 0 -0.78125 0.28125q-0.3125 0.265625 -0.375 0.75l2.28125 0zm4.6424255 -1.40625q0.3125 -0.5 0.796875 -0.78125q0.484375 -0.28125 1.0625 -0.28125l0 1.9375l-0.5 0q-0.671875 0 -1.015625 0.296875q-0.34375 0.28125 -0.34375 1.015625l0 2.765625l-1.828125 0l0 -5.953125l1.828125 0l0 1.0z" fill-rule="nonzero"/></g></svg>
