<svg version="1.1" viewBox="0.0 0.0 690.0 270.0" fill="none" stroke="none" stroke-linecap="square" stroke-miterlimit="10" xmlns:xlink="http://www.w3.org/1999/xlink" xmlns="http://www.w3.org/2000/svg"><clipPath id="g2dc23f9602b_0_39.0"><path d="m0 0l960.0 0l0 540.0l-960.0 0l0 -540.0z" clip-rule="nonzero"/></clipPath><g clip-path="url(#g2dc23f9602b_0_39.0)"><path fill="#000000" fill-opacity="0.0" d="m0 0l960.0 0l0 540.0l-960.0 0z" fill-rule="evenodd"/><path fill="#99e0bb" d="m51.501774 158.00679l597.74805 0l0 -16.32283l32.64563 32.64566l-32.64563 32.645676l0 -16.32283l-597.74805 0z" fill-rule="evenodd"/><path fill="#ccf0dd" d="m51.50241 158.04616l89.85826 0l0 32.56694l-89.85826 0z" fill-rule="evenodd"/><path fill="#c9daf8" d="m202.73883 92.20364l365.63782 0l0 32.566925l-365.63782 0z" fill-rule="evenodd"/><path fill="#6d9eeb" d="m273.549 92.20364l294.83466 0l0 32.566925l-294.83466 0z" fill-rule="evenodd"/><path fill="#9da1ad" d="m2.7406204 28.006792l532.9921 0l0 -16.322834l32.64569 32.645668l-32.64569 32.645668l0 -16.322834l-532.9921 0z" fill-rule="evenodd"/><path fill="#000000" fill-opacity="0.0" d="m51.501774 5.442488l0 206.99213" fill-rule="evenodd"/><path stroke="#ffffff" stroke-width="2.0" stroke-linejoin="round" stroke-linecap="butt" d="m51.501774 5.442488l0 206.99213" fill-rule="evenodd"/><path fill="#000000" fill-opacity="0.0" d="m201.717 5.442488l0 206.99213" fill-rule="evenodd"/><path stroke="#ffffff" stroke-width="2.0" stroke-linejoin="round" stroke-linecap="butt" d="m201.717 5.442488l0 206.99213" fill-rule="evenodd"/><path fill="#000000" fill-opacity="0.0" d="m141.3548 5.442488l0 206.99213" fill-rule="evenodd"/><path stroke="#ffffff" stroke-width="2.0" stroke-linejoin="round" stroke-linecap="butt" d="m141.3548 5.442488l0 206.99213" fill-rule="evenodd"/><path fill="#000000" fill-opacity="0.0" d="m273.549 5.442488l0 206.99213" fill-rule="evenodd"/><path stroke="#ffffff" stroke-width="2.0" stroke-linejoin="round" stroke-linecap="butt" d="m273.549 5.442488l0 206.99213" fill-rule="evenodd"/><path fill="#000000" fill-opacity="0.0" d="m568.39417 5.442488l0 206.99213" fill-rule="evenodd"/><path stroke="#ffffff" stroke-width="2.0" stroke-linejoin="round" stroke-linecap="butt" d="m568.39417 5.442488l0 206.99213" fill-rule="evenodd"/><path fill="#000000" fill-opacity="0.0" d="m273.5595 23.345375l294.80316 0l0 38.582676l-294.80316 0z" fill-rule="evenodd"/><path fill="#000000" d="m345.54514 48.796623l6.34375 0l0 1.46875l-8.359375 0l0 -1.34375l6.296875 -10.1875l-6.21875 0l0 -1.46875l8.234375 0l0 1.34375l-6.296875 10.1875zm13.108643 1.640625q-1.4375 0 -2.609375 -0.65625q-1.15625 -0.65625 -1.828125 -1.859375q-0.65625 -1.203125 -0.65625 -2.78125q0 -1.578125 0.6875 -2.78125q0.6875 -1.203125 1.859375 -1.84375q1.171875 -0.640625 2.625 -0.640625q1.453125 0 2.625 0.640625q1.1875 0.640625 1.859375 1.84375q0.6875 1.1875 0.6875 2.78125q0 1.578125 -0.703125 2.78125q-0.703125 1.203125 -1.90625 1.859375q-1.1875 0.65625 -2.640625 0.65625zm0 -1.5q0.921875 0 1.71875 -0.421875q0.796875 -0.4375 1.296875 -1.296875q0.5 -0.859375 0.5 -2.078125q0 -1.234375 -0.484375 -2.09375q-0.484375 -0.859375 -1.28125 -1.28125q-0.78125 -0.421875 -1.6875 -0.421875q-0.9375 0 -1.71875 0.421875q-0.765625 0.421875 -1.234375 1.28125q-0.46875 0.859375 -0.46875 2.09375q0 1.25 0.453125 2.109375q0.46875 0.84375 1.234375 1.265625q0.765625 0.421875 1.671875 0.421875zm11.940002 1.5q-1.4375 0 -2.609375 -0.65625q-1.15625 -0.65625 -1.828125 -1.859375q-0.65625 -1.203125 -0.65625 -2.78125q0 -1.578125 0.6875 -2.78125q0.6875 -1.203125 1.859375 -1.84375q1.171875 -0.640625 2.625 -0.640625q1.453125 0 2.625 0.640625q1.1875 0.640625 1.859375 1.84375q0.6875 1.1875 0.6875 2.78125q0 1.578125 -0.703125 2.78125q-0.703125 1.203125 -1.90625 1.859375q-1.1875 0.65625 -2.640625 0.65625zm0 -1.5q0.921875 0 1.71875 -0.421875q0.796875 -0.4375 1.296875 -1.296875q0.5 -0.859375 0.5 -2.078125q0 -1.234375 -0.484375 -2.09375q-0.484375 -0.859375 -1.28125 -1.28125q-0.78125 -0.421875 -1.6875 -0.421875q-0.9375 0 -1.71875 0.421875q-0.765625 0.421875 -1.234375 1.28125q-0.46875 0.859375 -0.46875 2.09375q0 1.25 0.453125 2.109375q0.46875 0.84375 1.234375 1.265625q0.765625 0.421875 1.671875 0.421875zm14.533752 1.328125l-5.34375 -5.9375l0 5.9375l-1.703125 0l0 -13.0l1.703125 0l0 6.015625l5.359375 -6.015625l2.15625 0l-5.90625 6.5l5.953125 6.5l-2.21875 0zm13.45636 -5.5q0 0.484375 -0.0625 1.015625l-8.171875 0q0.09375 1.515625 1.03125 2.375q0.953125 0.84375 2.296875 0.84375q1.09375 0 1.828125 -0.515625q0.75 -0.515625 1.046875 -1.375l1.828125 0q-0.40625 1.484375 -1.640625 2.40625q-1.234375 0.921875 -3.0625 0.921875q-1.453125 0 -2.609375 -0.65625q-1.140625 -0.65625 -1.796875 -1.859375q-0.65625 -1.203125 -0.65625 -2.78125q0 -1.59375 0.640625 -2.78125q0.640625 -1.203125 1.78125 -1.84375q1.140625 -0.640625 2.640625 -0.640625q1.453125 0 2.5625 0.640625q1.125 0.625 1.734375 1.734375q0.609375 1.109375 0.609375 2.515625zm-1.75 -0.359375q0 -0.96875 -0.4375 -1.671875q-0.421875 -0.703125 -1.171875 -1.0625q-0.734375 -0.359375 -1.625 -0.359375q-1.28125 0 -2.1875 0.828125q-0.90625 0.8125 -1.03125 2.265625l6.453125 0zm13.316864 0.359375q0 0.484375 -0.0625 1.015625l-8.171875 0q0.09375 1.515625 1.03125 2.375q0.953125 0.84375 2.296875 0.84375q1.09375 0 1.828125 -0.515625q0.75 -0.515625 1.046875 -1.375l1.828125 0q-0.40625 1.484375 -1.640625 2.40625q-1.234375 0.921875 -3.0625 0.921875q-1.453125 0 -2.609375 -0.65625q-1.140625 -0.65625 -1.796875 -1.859375q-0.65625 -1.203125 -0.65625 -2.78125q0 -1.59375 0.640625 -2.78125q0.640625 -1.203125 1.78125 -1.84375q1.140625 -0.640625 2.640625 -0.640625q1.453125 0 2.5625 0.640625q1.125 0.625 1.734375 1.734375q0.609375 1.109375 0.609375 2.515625zm-1.75 -0.359375q0 -0.96875 -0.4375 -1.671875q-0.421875 -0.703125 -1.171875 -1.0625q-0.734375 -0.359375 -1.625 -0.359375q-1.28125 0 -2.1875 0.828125q-0.90625 0.8125 -1.03125 2.265625l6.453125 0zm5.691864 -2.484375q0.5 -0.875 1.5 -1.453125q1.0 -0.59375 2.3125 -0.59375q1.375 0 2.484375 0.65625q1.109375 0.65625 1.734375 1.84375q0.640625 1.171875 0.640625 2.734375q0 1.5625 -0.640625 2.78125q-0.625 1.203125 -1.734375 1.875q-1.109375 0.671875 -2.484375 0.671875q-1.296875 0 -2.296875 -0.578125q-1.0 -0.59375 -1.515625 -1.484375l0 6.734375l-1.703125 0l0 -15.0625l1.703125 0l0 1.875zm6.9375 3.1875q0 -1.15625 -0.46875 -2.0q-0.46875 -0.859375 -1.265625 -1.3125q-0.78125 -0.453125 -1.734375 -0.453125q-0.9375 0 -1.734375 0.46875q-0.796875 0.453125 -1.265625 1.328125q-0.46875 0.859375 -0.46875 2.0q0 1.15625 0.46875 2.03125q0.46875 0.859375 1.265625 1.3125q0.796875 0.453125 1.734375 0.453125q0.953125 0 1.734375 -0.453125q0.796875 -0.453125 1.265625 -1.3125q0.46875 -0.875 0.46875 -2.0625zm13.299133 -0.34375q0 0.484375 -0.0625 1.015625l-8.171875 0q0.09375 1.515625 1.03125 2.375q0.953125 0.84375 2.296875 0.84375q1.09375 0 1.828125 -0.515625q0.75 -0.515625 1.046875 -1.375l1.828125 0q-0.40625 1.484375 -1.640625 2.40625q-1.234375 0.921875 -3.0625 0.921875q-1.453125 0 -2.609375 -0.65625q-1.140625 -0.65625 -1.796875 -1.859375q-0.65625 -1.203125 -0.65625 -2.78125q0 -1.59375 0.640625 -2.78125q0.640625 -1.203125 1.78125 -1.84375q1.140625 -0.640625 2.640625 -0.640625q1.453125 0 2.5625 0.640625q1.125 0.625 1.734375 1.734375q0.609375 1.109375 0.609375 2.515625zm-1.75 -0.359375q0 -0.96875 -0.4375 -1.671875q-0.421875 -0.703125 -1.171875 -1.0625q-0.734375 -0.359375 -1.625 -0.359375q-1.28125 0 -2.1875 0.828125q-0.90625 0.8125 -1.03125 2.265625l6.453125 0zm5.6918945 -2.703125q0.4375 -0.875 1.265625 -1.359375q0.84375 -0.484375 2.03125 -0.484375l0 1.75l-0.453125 0q-2.84375 0 -2.84375 3.09375l0 5.5625l-1.703125 0l0 -10.21875l1.703125 0l0 1.65625zm23.424377 -4.34375l0 12.90625l-1.703125 0l0 -9.625l-4.28125 9.625l-1.203125 0l-4.296875 -9.640625l0 9.640625l-1.703125 0l0 -12.90625l1.828125 0l4.78125 10.671875l4.765625 -10.671875l1.8125 0zm7.328644 13.078125q-1.4375 0 -2.609375 -0.65625q-1.15625 -0.65625 -1.828125 -1.859375q-0.65625 -1.203125 -0.65625 -2.78125q0 -1.578125 0.6875 -2.78125q0.6875 -1.203125 1.859375 -1.84375q1.171875 -0.640625 2.625 -0.640625q1.453125 0 2.625 0.640625q1.1875 0.640625 1.859375 1.84375q0.6875 1.1875 0.6875 2.78125q0 1.578125 -0.703125 2.78125q-0.703125 1.203125 -1.90625 1.859375q-1.1875 0.65625 -2.640625 0.65625zm0 -1.5q0.921875 0 1.71875 -0.421875q0.796875 -0.4375 1.296875 -1.296875q0.5 -0.859375 0.5 -2.078125q0 -1.234375 -0.484375 -2.09375q-0.484375 -0.859375 -1.28125 -1.28125q-0.78125 -0.421875 -1.6875 -0.421875q-0.9375 0 -1.71875 0.421875q-0.765625 0.421875 -1.234375 1.28125q-0.46875 0.859375 -0.46875 2.09375q0 1.25 0.453125 2.109375q0.46875 0.84375 1.234375 1.265625q0.765625 0.421875 1.671875 0.421875zm6.8462524 -3.828125q0 -1.5625 0.640625 -2.734375q0.640625 -1.1875 1.75 -1.84375q1.109375 -0.65625 2.484375 -0.65625q1.1875 0 2.21875 0.546875q1.03125 0.546875 1.5625 1.453125l0 -5.421875l1.71875 0l0 13.8125l-1.71875 0l0 -1.921875q-0.5 0.921875 -1.484375 1.515625q-0.984375 0.578125 -2.3125 0.578125q-1.359375 0 -2.46875 -0.671875q-1.109375 -0.671875 -1.75 -1.875q-0.640625 -1.21875 -0.640625 -2.78125zm8.65625 0.03125q0 -1.15625 -0.46875 -2.015625q-0.453125 -0.859375 -1.25 -1.3125q-0.796875 -0.46875 -1.75 -0.46875q-0.953125 0 -1.734375 0.453125q-0.78125 0.453125 -1.25 1.3125q-0.46875 0.84375 -0.46875 2.0q0 1.1875 0.46875 2.0625q0.46875 0.859375 1.25 1.3125q0.78125 0.453125 1.734375 0.453125q0.953125 0 1.75 -0.453125q0.796875 -0.453125 1.25 -1.3125q0.46875 -0.875 0.46875 -2.03125zm13.924133 -0.375q0 0.484375 -0.0625 1.015625l-8.171875 0q0.09375 1.515625 1.03125 2.375q0.953125 0.84375 2.296875 0.84375q1.09375 0 1.828125 -0.515625q0.75 -0.515625 1.046875 -1.375l1.828125 0q-0.40625 1.484375 -1.640625 2.40625q-1.234375 0.921875 -3.0625 0.921875q-1.453125 0 -2.609375 -0.65625q-1.140625 -0.65625 -1.796875 -1.859375q-0.65625 -1.203125 -0.65625 -2.78125q0 -1.59375 0.640625 -2.78125q0.640625 -1.203125 1.78125 -1.84375q1.140625 -0.640625 2.640625 -0.640625q1.453125 0 2.5625 0.640625q1.125 0.625 1.734375 1.734375q0.609375 1.109375 0.609375 2.515625zm-1.75 -0.359375q0 -0.96875 -0.4375 -1.671875q-0.421875 -0.703125 -1.171875 -1.0625q-0.734375 -0.359375 -1.625 -0.359375q-1.28125 0 -2.1875 0.828125q-0.90625 0.8125 -1.03125 2.265625l6.453125 0z" fill-rule="nonzero"/><path fill="#000000" fill-opacity="0.0" d="m273.5595 87.96742l294.83466 0l0 38.58268l-294.83466 0z" fill-rule="evenodd"/><path fill="#000000" d="m306.855 101.98117l0 12.90625l-1.703125 0l0 -9.625l-4.28125 9.625l-1.203125 0l-4.296875 -9.640625l0 9.640625l-1.703125 0l0 -12.90625l1.828125 0l4.78125 10.671875l4.765625 -10.671875l1.8125 0zm3.7505493 1.015625q-0.484375 0 -0.828125 -0.328125q-0.328125 -0.34375 -0.328125 -0.828125q0 -0.484375 0.328125 -0.8125q0.34375 -0.34375 0.828125 -0.34375q0.46875 0 0.796875 0.34375q0.328125 0.328125 0.328125 0.8125q0 0.484375 -0.328125 0.828125q-0.328125 0.328125 -0.796875 0.328125zm0.828125 1.671875l0 10.21875l-1.703125 0l0 -10.21875l1.703125 0zm7.1050415 -0.171875q1.328125 0 2.3125 0.578125q1.0 0.578125 1.484375 1.453125l0 -1.859375l1.71875 0l0 10.4375q0 1.40625 -0.59375 2.5q-0.59375 1.09375 -1.703125 1.703125q-1.109375 0.609375 -2.59375 0.609375q-2.015625 0 -3.359375 -0.953125q-1.34375 -0.9375 -1.578125 -2.578125l1.671875 0q0.28125 0.921875 1.15625 1.484375q0.890625 0.578125 2.109375 0.578125q1.40625 0 2.28125 -0.875q0.890625 -0.875 0.890625 -2.46875l0 -2.140625q-0.5 0.890625 -1.484375 1.5q-0.984375 0.59375 -2.3125 0.59375q-1.359375 0 -2.46875 -0.671875q-1.109375 -0.671875 -1.75 -1.875q-0.640625 -1.21875 -0.640625 -2.78125q0 -1.5625 0.640625 -2.734375q0.640625 -1.1875 1.75 -1.84375q1.109375 -0.65625 2.46875 -0.65625zm3.796875 5.265625q0 -1.15625 -0.46875 -2.015625q-0.453125 -0.859375 -1.25 -1.3125q-0.796875 -0.46875 -1.75 -0.46875q-0.953125 0 -1.734375 0.453125q-0.78125 0.453125 -1.25 1.3125q-0.46875 0.84375 -0.46875 2.0q0 1.1875 0.46875 2.0625q0.46875 0.859375 1.25 1.3125q0.78125 0.453125 1.734375 0.453125q0.953125 0 1.75 -0.453125q0.796875 -0.453125 1.25 -1.3125q0.46875 -0.875 0.46875 -2.03125zm6.2991333 -3.4375q0.4375 -0.875 1.265625 -1.359375q0.84375 -0.484375 2.03125 -0.484375l0 1.75l-0.453125 0q-2.84375 0 -2.84375 3.09375l0 5.5625l-1.703125 0l0 -10.21875l1.703125 0l0 1.65625zm4.6150513 3.40625q0 -1.5625 0.640625 -2.734375q0.640625 -1.1875 1.75 -1.84375q1.109375 -0.65625 2.46875 -0.65625q1.34375 0 2.328125 0.578125q0.984375 0.578125 1.46875 1.453125l0 -1.859375l1.71875 0l0 10.21875l-1.71875 0l0 -1.90625q-0.5 0.90625 -1.5 1.5q-1.0 0.578125 -2.3125 0.578125q-1.375 0 -2.46875 -0.671875q-1.09375 -0.671875 -1.734375 -1.875q-0.640625 -1.21875 -0.640625 -2.78125zm8.65625 0.03125q0 -1.15625 -0.46875 -2.015625q-0.453125 -0.859375 -1.25 -1.3125q-0.796875 -0.46875 -1.75 -0.46875q-0.953125 0 -1.734375 0.453125q-0.78125 0.453125 -1.25 1.3125q-0.46875 0.84375 -0.46875 2.0q0 1.1875 0.46875 2.0625q0.46875 0.859375 1.25 1.3125q0.78125 0.453125 1.734375 0.453125q0.953125 0 1.75 -0.453125q0.796875 -0.453125 1.25 -1.3125q0.46875 -0.875 0.46875 -2.03125zm6.6585083 -3.703125l0 6.03125q0 0.75 0.3125 1.0625q0.328125 0.296875 1.109375 0.296875l1.25 0l0 1.4375l-1.53125 0q-1.40625 0 -2.125 -0.65625q-0.703125 -0.65625 -0.703125 -2.140625l0 -6.03125l-1.328125 0l0 -1.390625l1.328125 0l0 -2.578125l1.6875 0l0 2.578125l2.671875 0l0 1.390625l-2.671875 0zm5.603363 -3.0625q-0.484375 0 -0.828125 -0.328125q-0.328125 -0.34375 -0.328125 -0.828125q0 -0.484375 0.328125 -0.8125q0.34375 -0.34375 0.828125 -0.34375q0.46875 0 0.796875 0.34375q0.328125 0.328125 0.328125 0.8125q0 0.484375 -0.328125 0.828125q-0.328125 0.328125 -0.796875 0.328125zm0.828125 1.671875l0 10.21875l-1.703125 0l0 -10.21875l1.703125 0zm7.339447 10.390625q-1.4375 0 -2.609375 -0.65625q-1.15625 -0.65625 -1.828125 -1.859375q-0.65625 -1.203125 -0.65625 -2.78125q0 -1.578125 0.6875 -2.78125q0.6875 -1.203125 1.859375 -1.84375q1.171875 -0.640625 2.625 -0.640625q1.453125 0 2.625 0.640625q1.1875 0.640625 1.859375 1.84375q0.6875 1.1875 0.6875 2.78125q0 1.578125 -0.703125 2.78125q-0.703125 1.203125 -1.90625 1.859375q-1.1875 0.65625 -2.640625 0.65625zm0 -1.5q0.921875 0 1.71875 -0.421875q0.796875 -0.4375 1.296875 -1.296875q0.5 -0.859375 0.5 -2.078125q0 -1.234375 -0.484375 -2.09375q-0.484375 -0.859375 -1.28125 -1.28125q-0.78125 -0.421875 -1.6875 -0.421875q-0.9375 0 -1.71875 0.421875q-0.765625 0.421875 -1.234375 1.28125q-0.46875 0.859375 -0.46875 2.09375q0 1.25 0.453125 2.109375q0.46875 0.84375 1.234375 1.265625q0.765625 0.421875 1.671875 0.421875zm12.471252 -9.078125q1.859375 0 3.015625 1.125q1.15625 1.125 1.15625 3.25l0 6.03125l-1.671875 0l0 -5.78125q0 -1.53125 -0.765625 -2.34375q-0.765625 -0.8125 -2.09375 -0.8125q-1.34375 0 -2.140625 0.84375q-0.78125 0.84375 -0.78125 2.4375l0 5.65625l-1.703125 0l0 -10.21875l1.703125 0l0 1.453125q0.5 -0.78125 1.359375 -1.203125q0.875 -0.4375 1.921875 -0.4375zm16.296204 13.875q-1.78125 -1.75 -2.78125 -4.453125q-1.0 -2.703125 -1.0 -5.84375q0 -3.203125 1.046875 -5.984375q1.0625 -2.796875 3.015625 -4.609375l1.78125 0l0 0.171875q-2.09375 1.953125 -3.15625 4.703125q-1.046875 2.75 -1.046875 5.71875q0 2.890625 1.0 5.53125q1.0 2.625 2.921875 4.59375l0 0.171875l-1.78125 0zm10.62619 -10.171875q0.703125 0.125 1.28125 0.59375q0.59375 0.453125 0.9375 1.15625q0.34375 0.6875 0.34375 1.46875q0 0.984375 -0.5 1.78125q-0.5 0.78125 -1.46875 1.25q-0.953125 0.453125 -2.265625 0.453125l-4.84375 0l0 -13.0l4.65625 0q1.328125 0 2.265625 0.4375q0.9375 0.4375 1.390625 1.1875q0.46875 0.734375 0.46875 1.671875q0 1.15625 -0.625 1.921875q-0.625 0.75 -1.640625 1.078125zm-4.8125 -0.6875l2.84375 0q1.203125 0 1.84375 -0.546875q0.65625 -0.5625 0.65625 -1.5625q0 -0.984375 -0.65625 -1.546875q-0.640625 -0.5625 -1.875 -0.5625l-2.8125 0l0 4.21875zm3.0 5.984375q1.265625 0 1.96875 -0.59375q0.71875 -0.59375 0.71875 -1.65625q0 -1.078125 -0.75 -1.703125q-0.75 -0.625 -2.0 -0.625l-2.9375 0l0 4.578125l3.0 0zm8.436279 -7.15625q0.4375 -0.875 1.265625 -1.359375q0.84375 -0.484375 2.03125 -0.484375l0 1.75l-0.453125 0q-2.84375 0 -2.84375 3.09375l0 5.5625l-1.703125 0l0 -10.21875l1.703125 0l0 1.65625zm6.1306763 -3.328125q-0.484375 0 -0.828125 -0.328125q-0.328125 -0.34375 -0.328125 -0.828125q0 -0.484375 0.328125 -0.8125q0.34375 -0.34375 0.828125 -0.34375q0.46875 0 0.796875 0.34375q0.328125 0.328125 0.328125 0.8125q0 0.484375 -0.328125 0.828125q-0.328125 0.328125 -0.796875 0.328125zm0.828125 1.671875l0 10.21875l-1.703125 0l0 -10.21875l1.703125 0zm2.2456665 5.0625q0 -1.5625 0.640625 -2.734375q0.640625 -1.1875 1.75 -1.84375q1.109375 -0.65625 2.484375 -0.65625q1.1875 0 2.21875 0.546875q1.03125 0.546875 1.5625 1.453125l0 -5.421875l1.71875 0l0 13.8125l-1.71875 0l0 -1.921875q-0.5 0.921875 -1.484375 1.515625q-0.984375 0.578125 -2.3125 0.578125q-1.359375 0 -2.46875 -0.671875q-1.109375 -0.671875 -1.75 -1.875q-0.640625 -1.21875 -0.640625 -2.78125zm8.65625 0.03125q0 -1.15625 -0.46875 -2.015625q-0.453125 -0.859375 -1.25 -1.3125q-0.796875 -0.46875 -1.75 -0.46875q-0.953125 0 -1.734375 0.453125q-0.78125 0.453125 -1.25 1.3125q-0.46875 0.84375 -0.46875 2.0q0 1.1875 0.46875 2.0625q0.46875 0.859375 1.25 1.3125q0.78125 0.453125 1.734375 0.453125q0.953125 0 1.75 -0.453125q0.796875 -0.453125 1.25 -1.3125q0.46875 -0.875 0.46875 -2.03125zm8.814758 -5.265625q1.328125 0 2.3125 0.578125q1.0 0.578125 1.484375 1.453125l0 -1.859375l1.71875 0l0 10.4375q0 1.40625 -0.59375 2.5q-0.59375 1.09375 -1.703125 1.703125q-1.109375 0.609375 -2.59375 0.609375q-2.015625 0 -3.359375 -0.953125q-1.34375 -0.9375 -1.578125 -2.578125l1.671875 0q0.28125 0.921875 1.15625 1.484375q0.890625 0.578125 2.109375 0.578125q1.40625 0 2.28125 -0.875q0.890625 -0.875 0.890625 -2.46875l0 -2.140625q-0.5 0.890625 -1.484375 1.5q-0.984375 0.59375 -2.3125 0.59375q-1.359375 0 -2.46875 -0.671875q-1.109375 -0.671875 -1.75 -1.875q-0.640625 -1.21875 -0.640625 -2.78125q0 -1.5625 0.640625 -2.734375q0.640625 -1.1875 1.75 -1.84375q1.109375 -0.65625 2.46875 -0.65625zm3.796875 5.265625q0 -1.15625 -0.46875 -2.015625q-0.453125 -0.859375 -1.25 -1.3125q-0.796875 -0.46875 -1.75 -0.46875q-0.953125 0 -1.734375 0.453125q-0.78125 0.453125 -1.25 1.3125q-0.46875 0.84375 -0.46875 2.0q0 1.1875 0.46875 2.0625q0.46875 0.859375 1.25 1.3125q0.78125 0.453125 1.734375 0.453125q0.953125 0 1.75 -0.453125q0.796875 -0.453125 1.25 -1.3125q0.46875 -0.875 0.46875 -2.03125zm13.924133 -0.375q0 0.484375 -0.0625 1.015625l-8.171875 0q0.09375 1.515625 1.03125 2.375q0.953125 0.84375 2.296875 0.84375q1.09375 0 1.828125 -0.515625q0.75 -0.515625 1.046875 -1.375l1.828125 0q-0.40625 1.484375 -1.640625 2.40625q-1.234375 0.921875 -3.0625 0.921875q-1.453125 0 -2.609375 -0.65625q-1.140625 -0.65625 -1.796875 -1.859375q-0.65625 -1.203125 -0.65625 -2.78125q0 -1.59375 0.640625 -2.78125q0.640625 -1.203125 1.78125 -1.84375q1.140625 -0.640625 2.640625 -0.640625q1.453125 0 2.5625 0.640625q1.125 0.625 1.734375 1.734375q0.609375 1.109375 0.609375 2.515625zm-1.75 -0.359375q0 -0.96875 -0.4375 -1.671875q-0.421875 -0.703125 -1.171875 -1.0625q-0.734375 -0.359375 -1.625 -0.359375q-1.28125 0 -2.1875 0.828125q-0.90625 0.8125 -1.03125 2.265625l6.453125 0zm15.813721 5.859375l-3.09375 -5.3125l-2.046875 0l0 5.3125l-1.703125 0l0 -13.0l4.203125 0q1.46875 0 2.484375 0.5q1.015625 0.5 1.515625 1.359375q0.515625 0.859375 0.515625 1.96875q0 1.34375 -0.78125 2.375q-0.78125 1.015625 -2.328125 1.34375l3.265625 5.453125l-2.03125 0zm-5.140625 -6.671875l2.5 0q1.375 0 2.0625 -0.6875q0.6875 -0.6875 0.6875 -1.8125q0 -1.15625 -0.6875 -1.796875q-0.671875 -0.640625 -2.0625 -0.640625l-2.5 0l0 4.9375zm18.968018 1.171875q0 0.484375 -0.0625 1.015625l-8.171875 0q0.09375 1.515625 1.03125 2.375q0.953125 0.84375 2.296875 0.84375q1.09375 0 1.828125 -0.515625q0.75 -0.515625 1.046875 -1.375l1.828125 0q-0.40625 1.484375 -1.640625 2.40625q-1.234375 0.921875 -3.0625 0.921875q-1.453125 0 -2.609375 -0.65625q-1.140625 -0.65625 -1.796875 -1.859375q-0.65625 -1.203125 -0.65625 -2.78125q0 -1.59375 0.640625 -2.78125q0.640625 -1.203125 1.78125 -1.84375q1.140625 -0.640625 2.640625 -0.640625q1.453125 0 2.5625 0.640625q1.125 0.625 1.734375 1.734375q0.609375 1.109375 0.609375 2.515625zm-1.75 -0.359375q0 -0.96875 -0.4375 -1.671875q-0.421875 -0.703125 -1.171875 -1.0625q-0.734375 -0.359375 -1.625 -0.359375q-1.28125 0 -2.1875 0.828125q-0.90625 0.8125 -1.03125 2.265625l6.453125 0zm5.691864 -7.953125l0 13.8125l-1.703125 0l0 -13.8125l1.703125 0zm12.214447 8.3125q0 0.484375 -0.0625 1.015625l-8.171875 0q0.09375 1.515625 1.03125 2.375q0.953125 0.84375 2.296875 0.84375q1.09375 0 1.828125 -0.515625q0.75 -0.515625 1.046875 -1.375l1.828125 0q-0.40625 1.484375 -1.640625 2.40625q-1.234375 0.921875 -3.0625 0.921875q-1.453125 0 -2.609375 -0.65625q-1.140625 -0.65625 -1.796875 -1.859375q-0.65625 -1.203125 -0.65625 -2.78125q0 -1.59375 0.640625 -2.78125q0.640625 -1.203125 1.78125 -1.84375q1.140625 -0.640625 2.640625 -0.640625q1.453125 0 2.5625 0.640625q1.125 0.625 1.734375 1.734375q0.609375 1.109375 0.609375 2.515625zm-1.75 -0.359375q0 -0.96875 -0.4375 -1.671875q-0.421875 -0.703125 -1.171875 -1.0625q-0.734375 -0.359375 -1.625 -0.359375q-1.28125 0 -2.1875 0.828125q-0.90625 0.8125 -1.03125 2.265625l6.453125 0zm3.348114 0.703125q0 -1.5625 0.640625 -2.734375q0.640625 -1.1875 1.75 -1.84375q1.109375 -0.65625 2.46875 -0.65625q1.34375 0 2.328125 0.578125q0.984375 0.578125 1.46875 1.453125l0 -1.859375l1.71875 0l0 10.21875l-1.71875 0l0 -1.90625q-0.5 0.90625 -1.5 1.5q-1.0 0.578125 -2.3125 0.578125q-1.375 0 -2.46875 -0.671875q-1.09375 -0.671875 -1.734375 -1.875q-0.640625 -1.21875 -0.640625 -2.78125zm8.65625 0.03125q0 -1.15625 -0.46875 -2.015625q-0.453125 -0.859375 -1.25 -1.3125q-0.796875 -0.46875 -1.75 -0.46875q-0.953125 0 -1.734375 0.453125q-0.78125 0.453125 -1.25 1.3125q-0.46875 0.84375 -0.46875 2.0q0 1.1875 0.46875 2.0625q0.46875 0.859375 1.25 1.3125q0.78125 0.453125 1.734375 0.453125q0.953125 0 1.75 -0.453125q0.796875 -0.453125 1.25 -1.3125q0.46875 -0.875 0.46875 -2.03125zm8.221039 5.296875q-1.1875 0 -2.125 -0.40625q-0.921875 -0.40625 -1.4687805 -1.125q-0.53125 -0.71875 -0.59375 -1.640625l1.7500305 0q0.078125 0.765625 0.71875 1.25q0.65625 0.484375 1.6875 0.484375q0.96875 0 1.53125 -0.421875q0.5625 -0.4375 0.5625 -1.09375q0 -0.671875 -0.59375 -1.0q-0.59375 -0.328125 -1.84375 -0.640625q-1.140625 -0.296875 -1.859375 -0.59375q-0.71875 -0.3125 -1.2344055 -0.921875q-0.515625 -0.609375 -0.515625 -1.59375q0 -0.796875 0.46875 -1.4375q0.46878052 -0.65625 1.3281555 -1.03125q0.859375 -0.390625 1.953125 -0.390625q1.703125 0 2.75 0.859375q1.046875 0.859375 1.109375 2.34375l-1.6875 0q-0.0625 -0.796875 -0.65625 -1.28125q-0.578125 -0.484375 -1.5625 -0.484375q-0.921875 0 -1.46875 0.390625q-0.53125 0.390625 -0.53125 1.03125q0 0.5 0.328125 0.828125q0.328125 0.328125 0.8125 0.53125q0.5 0.1875 1.375 0.421875q1.109375 0.296875 1.796875 0.59375q0.6875 0.28125 1.171875 0.859375q0.5 0.578125 0.515625 1.515625q0 0.84375 -0.46875 1.515625q-0.453125 0.671875 -1.3125 1.0625q-0.84375 0.375 -1.9375 0.375zm15.44165 -5.671875q0 0.484375 -0.0625 1.015625l-8.171875 0q0.09375 1.515625 1.03125 2.375q0.953125 0.84375 2.296875 0.84375q1.09375 0 1.828125 -0.515625q0.75 -0.515625 1.046875 -1.375l1.828125 0q-0.40625 1.484375 -1.640625 2.40625q-1.234375 0.921875 -3.0625 0.921875q-1.453125 0 -2.609375 -0.65625q-1.140625 -0.65625 -1.796875 -1.859375q-0.65625 -1.203125 -0.65625 -2.78125q0 -1.59375 0.640625 -2.78125q0.640625 -1.203125 1.78125 -1.84375q1.140625 -0.640625 2.640625 -0.640625q1.453125 0 2.5625 0.640625q1.125 0.625 1.734375 1.734375q0.609375 1.109375 0.609375 2.515625zm-1.75 -0.359375q0 -0.96875 -0.4375 -1.671875q-0.421875 -0.703125 -1.171875 -1.0625q-0.734375 -0.359375 -1.625 -0.359375q-1.28125 0 -2.1875 0.828125q-0.90625 0.8125 -1.03125 2.265625l6.453125 0zm7.6137695 6.03125q-1.1875 0 -2.125 -0.40625q-0.921875 -0.40625 -1.46875 -1.125q-0.53125 -0.71875 -0.59375 -1.640625l1.75 0q0.078125 0.765625 0.71875 1.25q0.65625 0.484375 1.6875 0.484375q0.96875 0 1.53125 -0.421875q0.5625 -0.4375 0.5625 -1.09375q0 -0.671875 -0.59375 -1.0q-0.59375 -0.328125 -1.84375 -0.640625q-1.140625 -0.296875 -1.859375 -0.59375q-0.71875 -0.3125 -1.234375 -0.921875q-0.515625 -0.609375 -0.515625 -1.59375q0 -0.796875 0.46875 -1.4375q0.46875 -0.65625 1.328125 -1.03125q0.859375 -0.390625 1.953125 -0.390625q1.703125 0 2.75 0.859375q1.046875 0.859375 1.109375 2.34375l-1.6875 0q-0.0625 -0.796875 -0.65625 -1.28125q-0.578125 -0.484375 -1.5625 -0.484375q-0.921875 0 -1.46875 0.390625q-0.53125 0.390625 -0.53125 1.03125q0 0.5 0.328125 0.828125q0.328125 0.328125 0.8125 0.53125q0.5 0.1875 1.375 0.421875q1.109375 0.296875 1.796875 0.59375q0.6875 0.28125 1.171875 0.859375q0.5 0.578125 0.515625 1.515625q0 0.84375 -0.46875 1.515625q-0.453125 0.671875 -1.3125 1.0625q-0.84375 0.375 -1.9375 0.375zm5.5667114 3.296875l0 -0.171875q1.921875 -1.96875 2.921875 -4.59375q1.0 -2.640625 1.0 -5.53125q0 -2.96875 -1.0625 -5.71875q-1.046875 -2.75 -3.140625 -4.703125l0 -0.171875l1.78125 0q1.953125 1.8125 3.0 4.609375q1.0625 2.78125 1.0625 5.984375q0 3.140625 -1.0 5.84375q-1.0 2.703125 -2.78125 4.453125l-1.78125 0z" fill-rule="nonzero"/><path fill="#000000" fill-opacity="0.0" d="m273.549 153.58946l294.83466 0l0 38.582687l-294.83466 0z" fill-rule="evenodd"/><path fill="#000000" d="m376.8401 180.50946l-5.34375 -5.9375l0 5.9375l-1.703125 0l0 -13.0l1.703125 0l0 6.015625l5.359375 -6.015625l2.15625 0l-5.90625 6.5l5.953125 6.5l-2.21875 0zm10.971954 0l-3.09375 -5.3125l-2.046875 0l0 5.3125l-1.703125 0l0 -13.0l4.203125 0q1.46875 0 2.484375 0.5q1.015625 0.5 1.515625 1.359375q0.515625 0.859375 0.515625 1.96875q0 1.34375 -0.78125 2.375q-0.78125 1.015625 -2.328125 1.34375l3.265625 5.453125l-2.03125 0zm-5.140625 -6.671875l2.5 0q1.375 0 2.0625 -0.6875q0.6875 -0.6875 0.6875 -1.8125q0 -1.15625 -0.6875 -1.796875q-0.671875 -0.640625 -2.0625 -0.640625l-2.5 0l0 4.9375zm8.999268 1.515625q0 -1.5625 0.640625 -2.734375q0.640625 -1.1875 1.75 -1.84375q1.109375 -0.65625 2.46875 -0.65625q1.34375 0 2.328125 0.578125q0.984375 0.578125 1.46875 1.453125l0 -1.859375l1.71875 0l0 10.21875l-1.71875 0l0 -1.90625q-0.5 0.90625 -1.5 1.5q-1.0 0.578125 -2.3125 0.578125q-1.375 0 -2.46875 -0.671875q-1.09375 -0.671875 -1.734375 -1.875q-0.640625 -1.21875 -0.640625 -2.78125zm8.65625 0.03125q0 -1.15625 -0.46875 -2.015625q-0.453125 -0.859375 -1.25 -1.3125q-0.796875 -0.46875 -1.75 -0.46875q-0.953125 0 -1.734375 0.453125q-0.78125 0.453125 -1.25 1.3125q-0.46875 0.84375 -0.46875 2.0q0 1.1875 0.46875 2.0625q0.46875 0.859375 1.25 1.3125q0.78125 0.453125 1.734375 0.453125q0.953125 0 1.75 -0.453125q0.796875 -0.453125 1.25 -1.3125q0.46875 -0.875 0.46875 -2.03125zm8.752258 -3.703125l-2.140625 0l0 8.828125l-1.703125 0l0 -8.828125l-1.328125 0l0 -1.390625l1.328125 0l0 -0.734375q0 -1.71875 0.890625 -2.5q0.890625 -0.796875 2.84375 -0.796875l0 1.421875q-1.125 0 -1.578125 0.4375q-0.453125 0.4375 -0.453125 1.4375l0 0.734375l2.140625 0l0 1.390625zm4.044159 0l0 6.03125q0 0.75 0.3125 1.0625q0.328125 0.296875 1.109375 0.296875l1.25 0l0 1.4375l-1.53125 0q-1.40625 0 -2.125 -0.65625q-0.703125 -0.65625 -0.703125 -2.140625l0 -6.03125l-1.328125 0l0 -1.390625l1.328125 0l0 -2.578125l1.6875 0l0 2.578125l2.671875 0l0 1.390625l-2.671875 0zm22.897095 -4.078125l0 12.90625l-1.703125 0l0 -9.625l-4.28125 9.625l-1.203125 0l-4.296875 -9.640625l0 9.640625l-1.703125 0l0 -12.90625l1.828125 0l4.78125 10.671875l4.765625 -10.671875l1.8125 0zm7.328644 13.078125q-1.4375 0 -2.609375 -0.65625q-1.15625 -0.65625 -1.828125 -1.859375q-0.65625 -1.203125 -0.65625 -2.78125q0 -1.578125 0.6875 -2.78125q0.6875 -1.203125 1.859375 -1.84375q1.171875 -0.640625 2.625 -0.640625q1.453125 0 2.625 0.640625q1.1875 0.640625 1.859375 1.84375q0.6875 1.1875 0.6875 2.78125q0 1.578125 -0.703125 2.78125q-0.703125 1.203125 -1.90625 1.859375q-1.1875 0.65625 -2.640625 0.65625zm0 -1.5q0.921875 0 1.71875 -0.421875q0.796875 -0.4375 1.296875 -1.296875q0.5 -0.859375 0.5 -2.078125q0 -1.234375 -0.484375 -2.09375q-0.484375 -0.859375 -1.28125 -1.28125q-0.78125 -0.421875 -1.6875 -0.421875q-0.9375 0 -1.71875 0.421875q-0.765625 0.421875 -1.234375 1.28125q-0.46875 0.859375 -0.46875 2.09375q0 1.25 0.453125 2.109375q0.46875 0.84375 1.234375 1.265625q0.765625 0.421875 1.671875 0.421875zm6.8462524 -3.828125q0 -1.5625 0.640625 -2.734375q0.640625 -1.1875 1.75 -1.84375q1.109375 -0.65625 2.484375 -0.65625q1.1875 0 2.21875 0.546875q1.03125 0.546875 1.5625 1.453125l0 -5.421875l1.71875 0l0 13.8125l-1.71875 0l0 -1.921875q-0.5 0.921875 -1.484375 1.515625q-0.984375 0.578125 -2.3125 0.578125q-1.359375 0 -2.46875 -0.671875q-1.109375 -0.671875 -1.75 -1.875q-0.640625 -1.21875 -0.640625 -2.78125zm8.65625 0.03125q0 -1.15625 -0.46875 -2.015625q-0.453125 -0.859375 -1.25 -1.3125q-0.796875 -0.46875 -1.75 -0.46875q-0.953125 0 -1.734375 0.453125q-0.78125 0.453125 -1.25 1.3125q-0.46875 0.84375 -0.46875 2.0q0 1.1875 0.46875 2.0625q0.46875 0.859375 1.25 1.3125q0.78125 0.453125 1.734375 0.453125q0.953125 0 1.75 -0.453125q0.796875 -0.453125 1.25 -1.3125q0.46875 -0.875 0.46875 -2.03125zm13.924133 -0.375q0 0.484375 -0.0625 1.015625l-8.171875 0q0.09375 1.515625 1.03125 2.375q0.953125 0.84375 2.296875 0.84375q1.09375 0 1.828125 -0.515625q0.75 -0.515625 1.046875 -1.375l1.828125 0q-0.40625 1.484375 -1.640625 2.40625q-1.234375 0.921875 -3.0625 0.921875q-1.453125 0 -2.609375 -0.65625q-1.140625 -0.65625 -1.796875 -1.859375q-0.65625 -1.203125 -0.65625 -2.78125q0 -1.59375 0.640625 -2.78125q0.640625 -1.203125 1.78125 -1.84375q1.140625 -0.640625 2.640625 -0.640625q1.453125 0 2.5625 0.640625q1.125 0.625 1.734375 1.734375q0.609375 1.109375 0.609375 2.515625zm-1.75 -0.359375q0 -0.96875 -0.4375 -1.671875q-0.421875 -0.703125 -1.171875 -1.0625q-0.734375 -0.359375 -1.625 -0.359375q-1.28125 0 -2.1875 0.828125q-0.90625 0.8125 -1.03125 2.265625l6.453125 0z" fill-rule="nonzero"/><path fill="#6d9eeb" d="m403.21625 132.0186l7.0 0l0 -9.748032l14.0 0l0 9.748032l7.0 0l-14.0 9.748032z" fill-rule="evenodd"/><path fill="#000000" fill-opacity="0.0" d="m28.383665 207.94249l46.614174 0l0 34.992126l-46.614174 0z" fill-rule="evenodd"/><path fill="#ffffff" d="m42.0641 229.95999q1.859375 -1.5 2.90625 -2.453125q1.0625 -0.96875 1.78125 -2.015625q0.734375 -1.046875 0.734375 -2.0625q0 -0.953125 -0.46875 -1.5q-0.453125 -0.546875 -1.484375 -0.546875q-1.0 0 -1.546875 0.625q-0.546875 0.625 -0.59375 1.65625l-1.28125 0q0.046875 -1.640625 0.984375 -2.53125q0.9375 -0.890625 2.421875 -0.890625q1.515625 0 2.390625 0.84375q0.890625 0.828125 0.890625 2.28125q0 1.21875 -0.734375 2.375q-0.71875 1.140625 -1.640625 2.015625q-0.921875 0.875 -2.359375 2.03125l5.046875 0l0 1.109375l-7.046875 0l0 -0.9375zm9.224243 1.15625q-0.375 0 -0.640625 -0.265625q-0.265625 -0.265625 -0.265625 -0.65625q0 -0.375 0.265625 -0.640625q0.265625 -0.265625 0.640625 -0.265625q0.375 0 0.625 0.265625q0.265625 0.265625 0.265625 0.640625q0 0.390625 -0.265625 0.65625q-0.25 0.265625 -0.625 0.265625zm4.374695 -5.609375q-0.828125 -0.3125 -1.265625 -0.921875q-0.4375 -0.625 -0.4375 -1.5q0 -0.796875 0.390625 -1.4375q0.40625 -0.640625 1.1875 -1.0q0.78125 -0.375 1.890625 -0.375q1.125 0 1.90625 0.375q0.78125 0.359375 1.1875 1.0q0.40625 0.640625 0.40625 1.4375q0 0.84375 -0.453125 1.484375q-0.453125 0.640625 -1.25 0.9375q0.90625 0.28125 1.4375 0.984375q0.546875 0.6875 0.546875 1.671875q0 0.953125 -0.46875 1.671875q-0.46875 0.703125 -1.328125 1.09375q-0.859375 0.390625 -1.984375 0.390625q-1.109375 0 -1.953125 -0.390625q-0.84375 -0.390625 -1.3125 -1.09375q-0.46875 -0.71875 -0.46875 -1.671875q0 -0.984375 0.53125 -1.6875q0.53125 -0.703125 1.4375 -0.96875zm3.96875 -2.265625q0 -0.890625 -0.59375 -1.375q-0.578125 -0.484375 -1.609375 -0.484375q-1.0 0 -1.59375 0.484375q-0.578125 0.484375 -0.578125 1.390625q0 0.8125 0.609375 1.3125q0.609375 0.5 1.5625 0.5q0.984375 0 1.59375 -0.5q0.609375 -0.515625 0.609375 -1.328125zm-2.203125 2.859375q-1.078125 0 -1.765625 0.515625q-0.6875 0.5 -0.6875 1.5q0 0.9375 0.65625 1.515625q0.671875 0.5625 1.796875 0.5625q1.140625 0 1.796875 -0.5625q0.65625 -0.578125 0.65625 -1.515625q0 -0.984375 -0.671875 -1.5q-0.671875 -0.515625 -1.78125 -0.515625z" fill-rule="nonzero"/><path fill="#000000" fill-opacity="0.0" d="m117.88367 207.94249l46.614166 0l0 34.992126l-46.614166 0z" fill-rule="evenodd"/><path fill="#ffffff" d="m131.89427 223.10062q0.109375 -1.359375 1.046875 -2.109375q0.9375 -0.765625 2.4375 -0.765625q0.984375 0 1.703125 0.359375q0.734375 0.359375 1.109375 0.96875q0.375 0.609375 0.375 1.390625q0 0.90625 -0.53125 1.578125q-0.515625 0.65625 -1.34375 0.84375l0 0.078125q0.953125 0.234375 1.5 0.921875q0.5625 0.6875 0.5625 1.796875q0 0.84375 -0.390625 1.515625q-0.375 0.65625 -1.140625 1.046875q-0.75 0.375 -1.828125 0.375q-1.546875 0 -2.546875 -0.8125q-1.0 -0.8125 -1.109375 -2.3125l1.296875 0q0.09375 0.875 0.703125 1.4375q0.625 0.546875 1.65625 0.546875q1.015625 0 1.546875 -0.53125q0.546875 -0.53125 0.546875 -1.375q0 -1.109375 -0.734375 -1.59375q-0.734375 -0.484375 -2.21875 -0.484375l-0.328125 0l0 -1.109375l0.34375 0q1.34375 -0.015625 2.03125 -0.4375q0.703125 -0.4375 0.703125 -1.34375q0 -0.78125 -0.515625 -1.25q-0.5 -0.46875 -1.4375 -0.46875q-0.90625 0 -1.46875 0.46875q-0.5625 0.46875 -0.65625 1.265625l-1.3125 0zm9.304443 8.015625q-0.375 0 -0.640625 -0.265625q-0.265625 -0.265625 -0.265625 -0.65625q0 -0.375 0.265625 -0.640625q0.265625 -0.265625 0.640625 -0.265625q0.375 0 0.625 0.265625q0.265625 0.265625 0.265625 0.640625q0 0.390625 -0.265625 0.65625q-0.25 0.265625 -0.625 0.265625zm2.4059448 -8.015625q0.109375 -1.359375 1.046875 -2.109375q0.9375 -0.765625 2.4375 -0.765625q0.984375 0 1.703125 0.359375q0.734375 0.359375 1.109375 0.96875q0.375 0.609375 0.375 1.390625q0 0.90625 -0.53125 1.578125q-0.515625 0.65625 -1.34375 0.84375l0 0.078125q0.953125 0.234375 1.5 0.921875q0.5625 0.6875 0.5625 1.796875q0 0.84375 -0.390625 1.515625q-0.375 0.65625 -1.140625 1.046875q-0.75 0.375 -1.828125 0.375q-1.546875 0 -2.546875 -0.8125q-1.0 -0.8125 -1.109375 -2.3125l1.296875 0q0.09375 0.875 0.703125 1.4375q0.625 0.546875 1.65625 0.546875q1.015625 0 1.546875 -0.53125q0.546875 -0.53125 0.546875 -1.375q0 -1.109375 -0.734375 -1.59375q-0.734375 -0.484375 -2.21875 -0.484375l-0.328125 0l0 -1.109375l0.34375 0q1.34375 -0.015625 2.03125 -0.4375q0.703125 -0.4375 0.703125 -1.34375q0 -0.78125 -0.515625 -1.25q-0.5 -0.46875 -1.4375 -0.46875q-0.90625 0 -1.46875 0.46875q-0.5625 0.46875 -0.65625 1.265625l-1.3125 0z" fill-rule="nonzero"/><path fill="#000000" fill-opacity="0.0" d="m178.88367 207.94249l46.614166 0l0 34.992126l-46.614166 0z" fill-rule="evenodd"/><path fill="#ffffff" d="m192.60115 223.10062q0.109375 -1.359375 1.046875 -2.109375q0.9375 -0.765625 2.4375 -0.765625q0.984375 0 1.703125 0.359375q0.734375 0.359375 1.109375 0.96875q0.375 0.609375 0.375 1.390625q0 0.90625 -0.53125 1.578125q-0.515625 0.65625 -1.34375 0.84375l0 0.078125q0.953125 0.234375 1.5 0.921875q0.5625 0.6875 0.5625 1.796875q0 0.84375 -0.390625 1.515625q-0.375 0.65625 -1.140625 1.046875q-0.75 0.375 -1.828125 0.375q-1.546875 0 -2.546875 -0.8125q-1.0 -0.8125 -1.109375 -2.3125l1.296875 0q0.09375 0.875 0.703125 1.4375q0.625 0.546875 1.65625 0.546875q1.015625 0 1.546875 -0.53125q0.546875 -0.53125 0.546875 -1.375q0 -1.109375 -0.734375 -1.59375q-0.734375 -0.484375 -2.21875 -0.484375l-0.328125 0l0 -1.109375l0.34375 0q1.34375 -0.015625 2.03125 -0.4375q0.703125 -0.4375 0.703125 -1.34375q0 -0.78125 -0.515625 -1.25q-0.5 -0.46875 -1.4375 -0.46875q-0.90625 0 -1.46875 0.46875q-0.5625 0.46875 -0.65625 1.265625l-1.3125 0zm9.304443 8.015625q-0.375 0 -0.640625 -0.265625q-0.265625 -0.265625 -0.265625 -0.65625q0 -0.375 0.265625 -0.640625q0.265625 -0.265625 0.640625 -0.265625q0.375 0 0.625 0.265625q0.265625 0.265625 0.265625 0.640625q0 0.390625 -0.265625 0.65625q-0.25 0.265625 -0.625 0.265625zm2.1246948 -2.453125l0 -1.015625l5.140625 -7.125l1.59375 0l0 6.984375l1.46875 0l0 1.15625l-1.46875 0l0 2.359375l-1.3125 0l0 -2.359375l-5.421875 0zm5.46875 -6.75l-3.9375 5.59375l3.9375 0l0 -5.59375z" fill-rule="nonzero"/><path fill="#000000" fill-opacity="0.0" d="m242.88498 207.94249l61.51181 0l0 50.488174l-61.51181 0z" fill-rule="evenodd"/><path fill="#ffffff" d="m258.25473 223.10062q0.109375 -1.359375 1.046875 -2.109375q0.9375 -0.765625 2.4375 -0.765625q0.984375 0 1.703125 0.359375q0.734375 0.359375 1.109375 0.96875q0.375 0.609375 0.375 1.390625q0 0.90625 -0.53125 1.578125q-0.515625 0.65625 -1.34375 0.84375l0 0.078125q0.953125 0.234375 1.5 0.921875q0.5625 0.6875 0.5625 1.796875q0 0.84375 -0.390625 1.515625q-0.375 0.65625 -1.140625 1.046875q-0.75 0.375 -1.828125 0.375q-1.546875 0 -2.546875 -0.8125q-1.0 -0.8125 -1.109375 -2.3125l1.296875 0q0.09375 0.875 0.703125 1.4375q0.625 0.546875 1.65625 0.546875q1.015625 0 1.546875 -0.53125q0.546875 -0.53125 0.546875 -1.375q0 -1.109375 -0.734375 -1.59375q-0.734375 -0.484375 -2.21875 -0.484375l-0.328125 0l0 -1.109375l0.34375 0q1.34375 -0.015625 2.03125 -0.4375q0.703125 -0.4375 0.703125 -1.34375q0 -0.78125 -0.515625 -1.25q-0.5 -0.46875 -1.4375 -0.46875q-0.90625 0 -1.46875 0.46875q-0.5625 0.46875 -0.65625 1.265625l-1.3125 0zm9.304443 8.015625q-0.375 0 -0.640625 -0.265625q-0.265625 -0.265625 -0.265625 -0.65625q0 -0.375 0.265625 -0.640625q0.265625 -0.265625 0.640625 -0.265625q0.375 0 0.625 0.265625q0.265625 0.265625 0.265625 0.640625q0 0.390625 -0.265625 0.65625q-0.25 0.265625 -0.625 0.265625zm8.343445 -8.171875q-0.3125 -1.625 -2.0 -1.625q-1.3125 0 -1.953125 1.015625q-0.640625 1.0 -0.625 3.296875q0.328125 -0.765625 1.109375 -1.1875q0.796875 -0.4375 1.75 -0.4375q1.515625 0 2.40625 0.9375q0.90625 0.9375 0.90625 2.59375q0 1.0 -0.390625 1.796875q-0.375 0.78125 -1.171875 1.25q-0.78125 0.46875 -1.890625 0.46875q-1.515625 0 -2.359375 -0.671875q-0.84375 -0.671875 -1.1875 -1.859375q-0.34375 -1.1875 -0.34375 -2.9375q0 -5.375 3.765625 -5.375q1.4375 0 2.25 0.78125q0.828125 0.765625 0.96875 1.953125l-1.234375 0zm-1.984375 2.1875q-0.640625 0 -1.203125 0.265625q-0.546875 0.25 -0.890625 0.765625q-0.34375 0.515625 -0.34375 1.265625q0 1.109375 0.640625 1.8125q0.640625 0.703125 1.84375 0.703125q1.03125 0 1.640625 -0.640625q0.609375 -0.640625 0.609375 -1.71875q0 -1.15625 -0.59375 -1.796875q-0.578125 -0.65625 -1.703125 -0.65625zm6.025482 5.984375q-0.375 0 -0.640625 -0.265625q-0.265625 -0.265625 -0.265625 -0.65625q0 -0.375 0.265625 -0.640625q0.265625 -0.265625 0.640625 -0.265625q0.375 0 0.625 0.265625q0.265625 0.265625 0.265625 0.640625q0 0.390625 -0.265625 0.65625q-0.25 0.265625 -0.625 0.265625zm2.2809448 -1.15625q1.859375 -1.5 2.90625 -2.453125q1.0625 -0.96875 1.78125 -2.015625q0.734375 -1.046875 0.734375 -2.0625q0 -0.953125 -0.46875 -1.5q-0.453125 -0.546875 -1.484375 -0.546875q-1.0 0 -1.546875 0.625q-0.546875 0.625 -0.59375 1.65625l-1.28125 0q0.046875 -1.640625 0.984375 -2.53125q0.9375 -0.890625 2.421875 -0.890625q1.515625 0 2.390625 0.84375q0.890625 0.828125 0.890625 2.28125q0 1.21875 -0.734375 2.375q-0.71875 1.140625 -1.640625 2.015625q-0.921875 0.875 -2.359375 2.03125l5.046875 0l0 1.109375l-7.046875 0l0 -0.9375z" fill-rule="nonzero"/><path fill="#ffffff" d="m258.51852 240.7006q0.109375 -1.359375 1.046875 -2.109375q0.9375 -0.765625 2.4375 -0.765625q0.984375 0 1.703125 0.359375q0.734375 0.359375 1.109375 0.96875q0.375 0.609375 0.375 1.390625q0 0.90625 -0.53125 1.578125q-0.515625 0.65625 -1.34375 0.84375l0 0.078125q0.953125 0.234375 1.5 0.921875q0.5625 0.6875 0.5625 1.796875q0 0.84375 -0.390625 1.515625q-0.375 0.65625 -1.140625 1.046875q-0.75 0.375 -1.828125 0.375q-1.546875 0 -2.546875 -0.8125q-1.0 -0.8125 -1.109375 -2.3125l1.296875 0q0.09375 0.875 0.703125 1.4375q0.625 0.546875 1.65625 0.546875q1.015625 0 1.546875 -0.53125q0.546875 -0.53125 0.546875 -1.375q0 -1.109375 -0.734375 -1.59375q-0.734375 -0.484375 -2.21875 -0.484375l-0.328125 0l0 -1.109375l0.34375 0q1.34375 -0.015625 2.03125 -0.4375q0.703125 -0.4375 0.703125 -1.34375q0 -0.78125 -0.515625 -1.25q-0.5 -0.46875 -1.4375 -0.46875q-0.90625 0 -1.46875 0.46875q-0.5625 0.46875 -0.65625 1.265625l-1.3125 0zm9.304443 8.015625q-0.375 0 -0.640625 -0.265625q-0.265625 -0.265625 -0.265625 -0.65625q0 -0.375 0.265625 -0.640625q0.265625 -0.265625 0.640625 -0.265625q0.375 0 0.625 0.265625q0.265625 0.265625 0.265625 0.640625q0 0.390625 -0.265625 0.65625q-0.25 0.265625 -0.625 0.265625zm8.968445 -9.65625l-4.078125 9.5625l-1.34375 0l4.125 -9.421875l-5.65625 0l0 -1.140625l6.953125 0l0 1.0zm2.1117249 9.65625q-0.375 0 -0.640625 -0.265625q-0.265625 -0.265625 -0.265625 -0.65625q0 -0.375 0.265625 -0.640625q0.265625 -0.265625 0.640625 -0.265625q0.375 0 0.625 0.265625q0.265625 0.265625 0.265625 0.640625q0 0.390625 -0.265625 0.65625q-0.25 0.265625 -0.625 0.265625zm2.4371948 -5.5q0 -2.515625 0.8125 -3.921875q0.828125 -1.421875 2.890625 -1.421875q2.03125 0 2.84375 1.421875q0.828125 1.40625 0.828125 3.921875q0 2.5625 -0.828125 3.984375q-0.8125 1.421875 -2.84375 1.421875q-2.0625 0 -2.890625 -1.421875q-0.8125 -1.421875 -0.8125 -3.984375zm6.0625 0q0 -1.28125 -0.171875 -2.15625q-0.171875 -0.890625 -0.703125 -1.4375q-0.515625 -0.546875 -1.484375 -0.546875q-1.0 0 -1.53125 0.546875q-0.515625 0.546875 -0.6875 1.4375q-0.15625 0.875 -0.15625 2.15625q0 1.3125 0.15625 2.21875q0.171875 0.890625 0.6875 1.4375q0.53125 0.53125 1.53125 0.53125q0.96875 0 1.484375 -0.53125q0.53125 -0.546875 0.703125 -1.4375q0.171875 -0.90625 0.171875 -2.21875z" fill-rule="nonzero"/><path fill="#000000" fill-opacity="0.0" d="m537.88495 207.94249l61.51184 0l0 32.566925l-61.51184 0z" fill-rule="evenodd"/><path fill="#ffffff" d="m559.04395 223.10062q0.109375 -1.359375 1.046875 -2.109375q0.9375 -0.765625 2.4375 -0.765625q0.984375 0 1.703125 0.359375q0.734375 0.359375 1.109375 0.96875q0.375 0.609375 0.375 1.390625q0 0.90625 -0.53125 1.578125q-0.515625 0.65625 -1.34375 0.84375l0 0.078125q0.953125 0.234375 1.5 0.921875q0.5625 0.6875 0.5625 1.796875q0 0.84375 -0.390625 1.515625q-0.375 0.65625 -1.140625 1.046875q-0.75 0.375 -1.828125 0.375q-1.546875 0 -2.546875 -0.8125q-1.0 -0.8125 -1.109375 -2.3125l1.296875 0q0.09375 0.875 0.703125 1.4375q0.625 0.546875 1.65625 0.546875q1.015625 0 1.546875 -0.53125q0.546875 -0.53125 0.546875 -1.375q0 -1.109375 -0.734375 -1.59375q-0.734375 -0.484375 -2.21875 -0.484375l-0.328125 0l0 -1.109375l0.34375 0q1.34375 -0.015625 2.03125 -0.4375q0.703125 -0.4375 0.703125 -1.34375q0 -0.78125 -0.515625 -1.25q-0.5 -0.46875 -1.4375 -0.46875q-0.90625 0 -1.46875 0.46875q-0.5625 0.46875 -0.65625 1.265625l-1.3125 0zm9.304443 8.015625q-0.375 0 -0.640625 -0.265625q-0.265625 -0.265625 -0.265625 -0.65625q0 -0.375 0.265625 -0.640625q0.265625 -0.265625 0.640625 -0.265625q0.375 0 0.625 0.265625q0.265625 0.265625 0.265625 0.640625q0 0.390625 -0.265625 0.65625q-0.25 0.265625 -0.625 0.265625zm4.155945 -2.9375q0.140625 0.828125 0.671875 1.296875q0.546875 0.453125 1.453125 0.453125q1.21875 0 1.796875 -0.953125q0.578125 -0.953125 0.546875 -3.21875q-0.3125 0.65625 -1.03125 1.03125q-0.71875 0.375 -1.59375 0.375q-0.984375 0 -1.75 -0.390625q-0.765625 -0.40625 -1.21875 -1.1875q-0.4375 -0.78125 -0.4375 -1.875q0 -1.5625 0.90625 -2.515625q0.921875 -0.96875 2.59375 -0.96875q2.046875 0 2.875 1.328125q0.828125 1.328125 0.828125 3.96875q0 1.84375 -0.328125 3.046875q-0.328125 1.203125 -1.125 1.84375q-0.78125 0.625 -2.140625 0.625q-1.484375 0 -2.328125 -0.796875q-0.828125 -0.8125 -0.953125 -2.0625l1.234375 0zm2.0625 -2.140625q0.984375 0 1.609375 -0.609375q0.640625 -0.609375 0.640625 -1.640625q0 -1.109375 -0.625 -1.78125q-0.609375 -0.671875 -1.71875 -0.671875q-1.03125 0 -1.640625 0.65625q-0.609375 0.640625 -0.609375 1.6875q0 1.078125 0.59375 1.71875q0.609375 0.640625 1.75 0.640625z" fill-rule="nonzero"/></g></svg>
