<svg width="143" height="75" viewBox="0 0 143 75" fill="none" xmlns="http://www.w3.org/2000/svg">
<path d="M37.9164 51.2957H40.0972V45.8266H40.1282L44.0369 51.2957H46.8873L42.2303 45.0683L46.699 39.5129H44.0226L40.0972 44.5784V39.5129H37.9164V51.2957Z" fill="white"/>
<path fill-rule="evenodd" clip-rule="evenodd" d="M48.8583 45.0007C49.5476 44.4152 50.4225 44.0814 51.3346 44.0557C52.5644 44.0557 53.1412 44.5224 53.1412 45.9223H51.9877C51.1154 45.9223 50.081 46.0063 49.2921 46.4286C48.5032 46.8509 47.9217 47.6092 47.9217 48.9088C47.9217 50.5631 49.3088 51.4917 50.7245 51.4917C51.2379 51.486 51.74 51.343 52.1764 51.0781C52.6129 50.8133 52.9671 50.4367 53.2008 49.9891H53.2318C53.2381 50.4237 53.2691 50.8576 53.3247 51.2887H55.1622C55.1146 50.6144 55.0836 50.0055 55.0693 49.3475C55.055 48.6895 55.0383 48.0479 55.0383 47.1706V46.0623C55.0383 43.4957 54.0254 42.3991 51.5801 42.3991C50.6126 42.4157 49.6606 42.6403 48.7916 43.0571L48.8536 44.9983L48.8583 45.0007ZM49.9165 48.7828C49.9165 47.4482 51.3036 47.2802 52.2379 47.2802H53.1483C53.1483 47.9545 53.0554 48.5799 52.7122 49.0698C52.5553 49.31 52.3388 49.5072 52.0829 49.6431C51.8269 49.779 51.54 49.8491 51.2488 49.8468C50.5004 49.8468 49.9237 49.5271 49.9237 48.7828H49.9165Z" fill="white"/>
<path d="M57.424 51.2957H59.5118V47.0423C59.5118 45.9293 59.8383 44.1561 61.3494 44.1561C62.6888 44.1561 62.7055 45.591 62.7055 46.6549V51.2981H64.7933V45.8103C64.7933 43.8527 63.9687 42.4015 62.0668 42.4015C61.5429 42.379 61.0226 42.4958 60.5611 42.7394C60.0995 42.983 59.7139 43.3443 59.4451 43.7851H59.4141V42.6021H57.436V51.2957H57.424Z" fill="white"/>
<path d="M67.9441 48.6802C67.9441 50.4021 68.8474 51.4987 70.4823 51.4987C71.004 51.5104 71.5243 51.4419 72.0243 51.2957L71.9624 49.5061C71.6745 49.673 71.3432 49.7541 71.009 49.7395C70.2154 49.7395 70.0271 49.0395 70.0271 48.3045V44.2657H71.8813V42.6021H70.0271V40.1382L67.9393 40.8639V42.6021H66.3973V44.2657H67.9393V48.6988L67.9441 48.6802Z" fill="white"/>
<path fill-rule="evenodd" clip-rule="evenodd" d="M73.0945 47.0096C73.0945 49.5085 74.6365 51.4987 77.2843 51.4987C79.9322 51.4987 81.4885 49.5061 81.4885 47.0096C81.4885 44.1397 79.6653 42.4015 77.2843 42.4015C74.9034 42.4015 73.0945 44.1397 73.0945 47.0096ZM75.2752 46.7389C75.2752 45.4393 75.9282 44.1561 77.2843 44.1561C78.6405 44.1561 79.3102 45.4043 79.3102 46.7389C79.3102 48.1902 78.8883 49.7441 77.2843 49.7441C75.6804 49.7441 75.2752 48.1739 75.2752 46.7389Z" fill="white"/>
<path d="M83.4429 51.2957H85.5307V47.0423C85.5307 45.9293 85.8572 44.1561 87.3682 44.1561C88.7077 44.1561 88.7243 45.591 88.7243 46.6549V51.2981H90.805V45.8103C90.805 43.8527 89.9851 42.3991 88.0856 42.3991C87.5618 42.3767 87.0415 42.4934 86.5799 42.737C86.1183 42.9806 85.7327 43.342 85.464 43.7827H85.433V42.6021H83.4548V51.2957H83.4429Z" fill="white"/>
<path fill-rule="evenodd" clip-rule="evenodd" d="M93.6984 45.0007C94.3875 44.4151 95.2625 44.0812 96.1747 44.0557C97.4045 44.0557 97.9812 44.5224 97.9812 45.9223H96.8277C95.9554 45.9223 94.921 46.0063 94.1321 46.4286C93.3433 46.8509 92.7617 47.6092 92.7617 48.9088C92.7641 50.5654 94.1417 51.4987 95.5717 51.4987C96.0851 51.493 96.5872 51.35 97.0236 51.0851C97.4601 50.8203 97.8143 50.4437 98.048 49.9961H98.0789C98.0855 50.4307 98.1165 50.8645 98.1719 51.2957H100.009C99.9618 50.6214 99.9308 50.0125 99.9165 49.3545C99.9022 48.6965 99.8855 48.0549 99.8855 47.1776V46.0623C99.8855 43.4957 98.8726 42.3991 96.4273 42.3991C95.4598 42.4157 94.5078 42.6403 93.6388 43.0571L93.7007 44.9983L93.6984 45.0007ZM94.7566 48.7828C94.7566 47.4482 96.1437 47.2802 97.0779 47.2802H97.9812C97.9812 47.9545 97.8883 48.5799 97.5451 49.0698C97.3882 49.31 97.1717 49.5072 96.9157 49.6431C96.6598 49.779 96.3728 49.8491 96.0817 49.8468C95.3333 49.8468 94.759 49.5271 94.759 48.7828H94.7566Z" fill="white"/>
<path d="M102.302 51.2957H104.388V38.6356H102.302V51.2957Z" fill="white"/>
<path fill-rule="evenodd" clip-rule="evenodd" d="M108.966 46.9233C108.966 45.7076 109.495 44.1537 110.835 44.1537C112.174 44.1537 112.562 45.7566 112.562 46.9233C112.562 48.0899 112.174 49.7418 110.801 49.7418C109.428 49.7418 108.964 48.1552 108.964 46.9233H108.966ZM106.864 51.2957H108.89V50.2318H108.918C109.183 50.6325 109.548 50.9597 109.979 51.1816C110.411 51.4035 110.893 51.5128 111.38 51.4987C113.842 51.4987 114.746 49.3055 114.746 46.9233C114.746 44.541 113.84 42.3991 111.38 42.3991C110.291 42.3991 109.557 42.8891 108.983 43.7151H108.952V38.6356H106.864V51.2957Z" fill="white"/>
<path fill-rule="evenodd" clip-rule="evenodd" d="M117.117 45.0007C117.806 44.4151 118.681 44.0812 119.593 44.0557C120.823 44.0557 121.4 44.5224 121.4 45.9223H120.246C119.374 45.9223 118.34 46.0063 117.551 46.4286C116.762 46.8509 116.18 47.6092 116.18 48.9088C116.18 50.5631 117.567 51.4917 118.983 51.4917C119.497 51.486 119.999 51.343 120.435 51.0781C120.872 50.8133 121.226 50.4367 121.459 49.9891H121.49C121.497 50.4237 121.528 50.8575 121.583 51.2887H123.421C123.373 50.6144 123.342 50.0055 123.328 49.3475C123.314 48.6895 123.297 48.0479 123.297 47.1706V46.0623C123.297 43.4957 122.284 42.3991 119.839 42.3991C118.871 42.4157 117.919 42.6403 117.05 43.0571L117.112 44.9983L117.117 45.0007ZM118.175 48.7828C118.175 47.4482 119.56 47.2802 120.497 47.2802H121.4C121.4 47.9545 121.307 48.5799 120.964 49.0698C120.807 49.31 120.59 49.5072 120.334 49.6431C120.078 49.779 119.791 49.8491 119.5 49.8468C118.752 49.8468 118.178 49.5271 118.178 48.7828H118.175Z" fill="white"/>
<path d="M125.673 51.2957H127.761V47.0423C127.761 45.9293 128.087 44.1561 129.599 44.1561C130.938 44.1561 130.955 45.591 130.955 46.6549V51.2981H133.042V45.8103C133.042 43.8527 132.218 42.4015 130.316 42.4015C129.792 42.379 129.272 42.4958 128.81 42.7394C128.349 42.983 127.963 43.3443 127.694 43.7851H127.663V42.6021H125.685V51.2957H125.673Z" fill="white"/>
<path d="M135.554 51.2957H137.642V47.0773H137.673L140.352 51.2957H143L139.635 46.4846L142.626 42.6021H140.166L137.673 46.081H137.642V38.6356H135.554V51.2957Z" fill="white"/>
<path fill-rule="evenodd" clip-rule="evenodd" d="M43.5912 29.9817H41.0505L42.3089 26.0922H42.3328L43.5912 29.9817ZM37.9856 33.6285H39.8017L40.562 31.468H44.0869L44.8353 33.6285H46.7658L43.3433 24.2H41.3747L37.9856 33.6262V33.6285Z" fill="white"/>
<path fill-rule="evenodd" clip-rule="evenodd" d="M48.4651 28.5911C49.0163 28.1228 49.7161 27.8557 50.4456 27.8351C51.4299 27.8351 51.8899 28.2131 51.8899 29.3331H50.9676C50.2693 29.3331 49.447 29.4007 48.8226 29.739C48.1982 30.0774 47.7263 30.684 47.7263 31.7246C47.7263 33.0476 48.8345 33.7895 49.969 33.7895C50.3772 33.7849 50.7764 33.6717 51.124 33.4621C51.4716 33.2525 51.7545 32.9544 51.9424 32.5996H51.9662C51.9708 32.9475 51.9955 33.295 52.0401 33.6402H53.5106C53.4725 33.0989 53.4486 32.6136 53.4367 32.0863C53.4248 31.559 53.4129 31.0457 53.4129 30.3434V29.4427C53.4129 27.3895 52.6026 26.5122 50.6458 26.5122C49.8717 26.5257 49.1101 26.7057 48.415 27.0395L48.4651 28.5934V28.5911ZM49.3112 31.6243C49.3112 30.558 50.4194 30.4227 51.1678 30.4227H51.8828C51.9162 30.9228 51.795 31.4213 51.5348 31.853C51.4094 32.0449 51.2362 32.2025 51.0315 32.3111C50.8268 32.4196 50.5974 32.4756 50.3646 32.4736C49.7664 32.4736 49.3064 32.2169 49.3064 31.622L49.3112 31.6243Z" fill="white"/>
<path d="M55.4769 33.6285H57.1452V31.076C57.1452 30.0774 57.1452 28.2411 58.5037 28.2411C58.7619 28.2295 59.0191 28.2808 59.252 28.3904V26.5659C59.0859 26.5221 58.9138 26.504 58.742 26.5122C57.7458 26.5122 57.0594 27.6065 56.9855 28.2551H56.9617V26.6732H55.4792V33.6285H55.4769Z" fill="white"/>
<path fill-rule="evenodd" clip-rule="evenodd" d="M63.3967 32.2239C62.4433 32.2239 61.9667 31.0573 61.9667 30.124C61.9667 29.0577 62.3289 27.9238 63.461 27.9238C64.4334 27.9238 64.8553 28.8968 64.8553 30.0844C64.8553 31.272 64.431 32.2309 63.3848 32.2309L63.3967 32.2239ZM64.9458 26.6732V27.6181H64.922C64.7388 27.2666 64.4552 26.9746 64.1058 26.7779C63.7563 26.5811 63.3559 26.488 62.9534 26.5099C61.0348 26.5099 60.2364 28.4418 60.2364 30.1147C60.2364 31.9813 60.9514 33.6145 62.858 33.6145C63.2612 33.6223 63.6591 33.5234 64.0098 33.3283C64.3604 33.1333 64.6509 32.8493 64.8505 32.5063H64.8743C64.8743 33.7079 64.7885 35.2081 62.9438 35.2081C62.4219 35.2081 61.5853 34.8978 61.0753 34.6015L60.9371 36.1414C61.6323 36.456 62.3901 36.6153 63.1559 36.6081C65.8467 36.6081 66.5451 34.8255 66.5451 32.9356V26.6732H64.9458Z" fill="white"/>
<path fill-rule="evenodd" clip-rule="evenodd" d="M68.9808 28.5911C69.532 28.1228 70.2318 27.8557 70.9614 27.8351C71.9457 27.8351 72.4057 28.2131 72.4057 29.3331H71.4833C70.785 29.3331 69.9628 29.4007 69.3383 29.739C68.7139 30.0774 68.242 30.684 68.242 31.7246C68.242 33.0476 69.3502 33.7895 70.4847 33.7895C70.8921 33.7841 71.2903 33.6705 71.637 33.4609C71.9837 33.2514 72.2658 32.9537 72.4533 32.5996H72.4772C72.4819 32.9475 72.5066 33.295 72.5511 33.6402H74.0216C73.9858 33.0989 73.9596 32.6136 73.9477 32.0863C73.9358 31.559 73.9239 31.0457 73.9239 30.3434V29.4427C73.9239 27.3895 73.1135 26.5122 71.1568 26.5122C70.3827 26.5257 69.6211 26.7057 68.926 27.0395L68.9761 28.5934L68.9808 28.5911ZM69.8293 31.6243C69.8293 30.558 70.9375 30.4227 71.6859 30.4227H72.4009C72.4345 30.9228 72.3132 31.4213 72.0529 31.853C71.9275 32.0449 71.7543 32.2025 71.5496 32.3111C71.345 32.4196 71.1155 32.4756 70.8827 32.4736C70.2845 32.4736 69.8245 32.2169 69.8245 31.622L69.8293 31.6243Z" fill="white"/>
<path d="M80.1801 26.6732V30.0774C80.1801 30.9687 79.9179 32.3873 78.7096 32.3873C77.6371 32.3873 77.6252 31.2393 77.6252 30.3877V26.6732H75.9568V31.062C75.9568 32.6276 76.617 33.7895 78.1376 33.7895C78.5539 33.7839 78.9626 33.6803 79.3293 33.4874C79.696 33.2945 80.0099 33.018 80.2445 32.6812H80.2683V33.6262H81.8508V26.6732H80.1801Z" fill="white"/>
<path fill-rule="evenodd" clip-rule="evenodd" d="M83.9887 33.6285H85.657V26.6732H83.9887V33.6285ZM83.9887 25.4039H85.657V23.675H83.9887V25.4039Z" fill="white"/>
<path d="M91.6916 26.7665C91.0996 26.6031 90.4882 26.5168 89.8731 26.5099C88.5647 26.5099 87.3563 27.1725 87.3563 28.6704C87.3563 31.181 90.2592 30.25 90.2592 31.615C90.2592 32.2893 89.5871 32.4666 89.1629 32.4666C88.583 32.4513 88.0168 32.2906 87.5184 31.9999L87.4183 33.4862C88.0324 33.6719 88.6703 33.7717 89.313 33.7825C90.6715 33.7825 92.0038 33.1339 92.0038 31.5146C92.0038 29.0041 89.1009 29.704 89.1009 28.5981C89.1009 28.0031 89.6372 27.8281 90.0852 27.8281C90.5988 27.8257 91.1074 27.9266 91.5796 28.1245L91.6916 26.7595V26.7665Z" fill="white"/>
<path d="M97.9812 26.7409C97.458 26.5755 96.9103 26.4967 96.3605 26.5075C94.3538 26.5075 93.2622 28.1011 93.2622 30.1124C93.2622 32.2333 94.3204 33.7849 96.4273 33.7849C96.9929 33.8009 97.5572 33.722 98.0956 33.5515L98.0217 32.0513C97.6215 32.2442 97.1851 32.3546 96.7395 32.3756C95.5693 32.3756 95.0068 31.391 95.0068 30.1077C95.0068 28.8244 95.667 27.9075 96.7014 27.9075C97.0957 27.8972 97.4861 27.9855 97.8358 28.1641L97.986 26.7339L97.9812 26.7409Z" fill="white"/>
<path d="M99.5709 33.6285H101.239V30.2244C101.239 29.3331 101.501 27.9145 102.71 27.9145C103.782 27.9145 103.794 29.0624 103.794 29.914V33.6285H105.463V29.2397C105.463 27.6741 104.802 26.5122 103.282 26.5122C102.876 26.5084 102.476 26.6087 102.122 26.8031C101.767 26.9975 101.471 27.2793 101.263 27.6205H101.239V23.5H99.5709V33.6285Z" fill="white"/>
<path fill-rule="evenodd" clip-rule="evenodd" d="M108.752 29.4684C108.825 28.5351 109.3 27.8351 110.234 27.8351C111.168 27.8351 111.542 28.5911 111.592 29.4684H108.752ZM112.713 31.7643C112.084 32.1904 111.346 32.4332 110.582 32.4643C109.548 32.4643 108.825 31.8296 108.749 30.7097H113.184C113.184 28.2784 112.512 26.5099 110.131 26.5099C108.137 26.5099 107.152 28.1711 107.152 30.1824C107.152 32.4643 108.387 33.7872 110.503 33.7872C111.277 33.8119 112.042 33.6201 112.708 33.2342V31.7643H112.713Z" fill="white"/>
<path d="M27.8135 51.2934H0V24.1673H27.8135V51.2934ZM0.931883 50.3858H26.8816V25.0749H0.931883V50.3858Z" fill="white"/>
<path d="M25.0584 26.5379H12.4863L5.4483 37.7443L12.4863 48.8972H25.0584L18.0228 37.7443L25.0584 26.5379Z" fill="white"/>
<path d="M25.6208 49.2028H12.3099L5.07888 37.7327L12.3099 26.2322H25.6208L18.3898 37.7327L25.6208 49.2028ZM12.6603 48.5915H24.4983L17.6534 37.7327L24.4983 26.8342H12.6603L5.81772 37.7327L12.6603 48.5915Z" fill="white"/>
</svg>
