<svg width="143" height="28" viewBox="0 0 143 28" fill="none" xmlns="http://www.w3.org/2000/svg">
<path d="M37.9164 27.7957H40.0972V22.3266H40.1282L44.0369 27.7957H46.8873L42.2303 21.5683L46.699 16.0129H44.0226L40.0972 21.0784V16.0129H37.9164V27.7957Z" fill="white"/>
<path fill-rule="evenodd" clip-rule="evenodd" d="M48.8583 21.5007C49.5476 20.9152 50.4225 20.5814 51.3346 20.5557C52.5644 20.5557 53.1412 21.0224 53.1412 22.4223H51.9877C51.1154 22.4223 50.081 22.5063 49.2921 22.9286C48.5032 23.3509 47.9217 24.1092 47.9217 25.4088C47.9217 27.0631 49.3088 27.9917 50.7245 27.9917C51.2379 27.986 51.74 27.843 52.1764 27.5781C52.6129 27.3133 52.9671 26.9367 53.2008 26.4891H53.2318C53.2381 26.9237 53.2691 27.3576 53.3247 27.7887H55.1622C55.1146 27.1144 55.0836 26.5055 55.0693 25.8475C55.055 25.1895 55.0383 24.5479 55.0383 23.6706V22.5623C55.0383 19.9957 54.0254 18.8991 51.5801 18.8991C50.6126 18.9157 49.6606 19.1403 48.7916 19.5571L48.8536 21.4983L48.8583 21.5007ZM49.9165 25.2828C49.9165 23.9482 51.3036 23.7802 52.2379 23.7802H53.1483C53.1483 24.4545 53.0554 25.0799 52.7122 25.5698C52.5553 25.81 52.3388 26.0072 52.0829 26.1431C51.8269 26.279 51.54 26.3491 51.2488 26.3468C50.5004 26.3468 49.9237 26.0271 49.9237 25.2828H49.9165Z" fill="white"/>
<path d="M57.424 27.7957H59.5118V23.5423C59.5118 22.4293 59.8383 20.6561 61.3494 20.6561C62.6888 20.6561 62.7055 22.091 62.7055 23.1549V27.7981H64.7933V22.3103C64.7933 20.3527 63.9687 18.9015 62.0668 18.9015C61.5429 18.879 61.0226 18.9958 60.5611 19.2394C60.0995 19.483 59.7139 19.8443 59.4451 20.2851H59.4141V19.1021H57.436V27.7957H57.424Z" fill="white"/>
<path d="M67.9441 25.1802C67.9441 26.9021 68.8474 27.9987 70.4823 27.9987C71.004 28.0104 71.5243 27.9419 72.0243 27.7957L71.9624 26.0061C71.6745 26.173 71.3432 26.2541 71.009 26.2395C70.2154 26.2395 70.0271 25.5395 70.0271 24.8045V20.7657H71.8813V19.1021H70.0271V16.6382L67.9393 17.3639V19.1021H66.3973V20.7657H67.9393V25.1988L67.9441 25.1802Z" fill="white"/>
<path fill-rule="evenodd" clip-rule="evenodd" d="M73.0945 23.5096C73.0945 26.0085 74.6365 27.9987 77.2843 27.9987C79.9322 27.9987 81.4885 26.0061 81.4885 23.5096C81.4885 20.6397 79.6653 18.9015 77.2843 18.9015C74.9034 18.9015 73.0945 20.6397 73.0945 23.5096ZM75.2752 23.2389C75.2752 21.9393 75.9282 20.6561 77.2843 20.6561C78.6405 20.6561 79.3102 21.9043 79.3102 23.2389C79.3102 24.6902 78.8883 26.2441 77.2843 26.2441C75.6804 26.2441 75.2752 24.6739 75.2752 23.2389Z" fill="white"/>
<path d="M83.4429 27.7957H85.5307V23.5423C85.5307 22.4293 85.8572 20.6561 87.3682 20.6561C88.7077 20.6561 88.7243 22.091 88.7243 23.1549V27.7981H90.805V22.3103C90.805 20.3527 89.9851 18.8991 88.0856 18.8991C87.5618 18.8767 87.0415 18.9934 86.5799 19.237C86.1183 19.4806 85.7327 19.842 85.464 20.2827H85.433V19.1021H83.4548V27.7957H83.4429Z" fill="white"/>
<path fill-rule="evenodd" clip-rule="evenodd" d="M93.6984 21.5007C94.3875 20.9151 95.2625 20.5812 96.1747 20.5557C97.4045 20.5557 97.9812 21.0224 97.9812 22.4223H96.8277C95.9554 22.4223 94.921 22.5063 94.1321 22.9286C93.3433 23.3509 92.7617 24.1092 92.7617 25.4088C92.7641 27.0654 94.1417 27.9987 95.5717 27.9987C96.0851 27.993 96.5872 27.85 97.0236 27.5851C97.4601 27.3203 97.8143 26.9437 98.048 26.4961H98.0789C98.0855 26.9307 98.1165 27.3645 98.1719 27.7957H100.009C99.9618 27.1214 99.9308 26.5125 99.9165 25.8545C99.9022 25.1965 99.8855 24.5549 99.8855 23.6776V22.5623C99.8855 19.9957 98.8726 18.8991 96.4273 18.8991C95.4598 18.9157 94.5078 19.1403 93.6388 19.5571L93.7007 21.4983L93.6984 21.5007ZM94.7566 25.2828C94.7566 23.9482 96.1437 23.7802 97.0779 23.7802H97.9812C97.9812 24.4545 97.8883 25.0799 97.5451 25.5698C97.3882 25.81 97.1717 26.0072 96.9157 26.1431C96.6598 26.279 96.3728 26.3491 96.0817 26.3468C95.3333 26.3468 94.759 26.0271 94.759 25.2828H94.7566Z" fill="white"/>
<path d="M102.302 27.7957H104.388V15.1356H102.302V27.7957Z" fill="white"/>
<path fill-rule="evenodd" clip-rule="evenodd" d="M108.966 23.4233C108.966 22.2076 109.495 20.6537 110.835 20.6537C112.174 20.6537 112.562 22.2566 112.562 23.4233C112.562 24.5899 112.174 26.2418 110.801 26.2418C109.428 26.2418 108.964 24.6552 108.964 23.4233H108.966ZM106.864 27.7957H108.89V26.7318H108.918C109.183 27.1325 109.548 27.4597 109.979 27.6816C110.411 27.9035 110.893 28.0128 111.38 27.9987C113.842 27.9987 114.746 25.8055 114.746 23.4233C114.746 21.041 113.84 18.8991 111.38 18.8991C110.291 18.8991 109.557 19.3891 108.983 20.2151H108.952V15.1356H106.864V27.7957Z" fill="white"/>
<path fill-rule="evenodd" clip-rule="evenodd" d="M117.117 21.5007C117.806 20.9151 118.681 20.5812 119.593 20.5557C120.823 20.5557 121.4 21.0224 121.4 22.4223H120.246C119.374 22.4223 118.34 22.5063 117.551 22.9286C116.762 23.3509 116.18 24.1092 116.18 25.4088C116.18 27.0631 117.567 27.9917 118.983 27.9917C119.497 27.986 119.999 27.843 120.435 27.5781C120.872 27.3133 121.226 26.9367 121.459 26.4891H121.49C121.497 26.9237 121.528 27.3575 121.583 27.7887H123.421C123.373 27.1144 123.342 26.5055 123.328 25.8475C123.314 25.1895 123.297 24.5479 123.297 23.6706V22.5623C123.297 19.9957 122.284 18.8991 119.839 18.8991C118.871 18.9157 117.919 19.1403 117.05 19.5571L117.112 21.4983L117.117 21.5007ZM118.175 25.2828C118.175 23.9482 119.56 23.7802 120.497 23.7802H121.4C121.4 24.4545 121.307 25.0799 120.964 25.5698C120.807 25.81 120.59 26.0072 120.334 26.1431C120.078 26.279 119.791 26.3491 119.5 26.3468C118.752 26.3468 118.178 26.0271 118.178 25.2828H118.175Z" fill="white"/>
<path d="M125.673 27.7957H127.761V23.5423C127.761 22.4293 128.087 20.6561 129.599 20.6561C130.938 20.6561 130.955 22.091 130.955 23.1549V27.7981H133.042V22.3103C133.042 20.3527 132.218 18.9015 130.316 18.9015C129.792 18.879 129.272 18.9958 128.81 19.2394C128.349 19.483 127.963 19.8443 127.694 20.2851H127.663V19.1021H125.685V27.7957H125.673Z" fill="white"/>
<path d="M135.554 27.7957H137.642V23.5773H137.673L140.352 27.7957H143L139.635 22.9846L142.626 19.1021H140.166L137.673 22.581H137.642V15.1356H135.554V27.7957Z" fill="white"/>
<path fill-rule="evenodd" clip-rule="evenodd" d="M43.5912 6.4817H41.0505L42.3089 2.59221H42.3328L43.5912 6.4817ZM37.9856 10.1285H39.8017L40.562 7.96797H44.0869L44.8353 10.1285H46.7658L43.3433 0.699968H41.3747L37.9856 10.1262V10.1285Z" fill="white"/>
<path fill-rule="evenodd" clip-rule="evenodd" d="M48.4651 5.0911C49.0163 4.62278 49.7161 4.35568 50.4456 4.33513C51.4299 4.33513 51.8899 4.71312 51.8899 5.83307H50.9676C50.2693 5.83307 49.447 5.90073 48.8226 6.23905C48.1982 6.57737 47.7263 7.184 47.7263 8.22462C47.7263 9.54756 48.8345 10.2895 49.969 10.2895C50.3772 10.2849 50.7764 10.1717 51.124 9.96213C51.4716 9.75254 51.7545 9.45439 51.9424 9.09958H51.9662C51.9708 9.44754 51.9955 9.79497 52.0401 10.1402H53.5106C53.4725 9.59889 53.4486 9.11358 53.4367 8.58627C53.4248 8.05896 53.4129 7.54565 53.4129 6.84335V5.94273C53.4129 3.88949 52.6026 3.0122 50.6458 3.0122C49.8717 3.02569 49.1101 3.20572 48.415 3.5395L48.4651 5.09343V5.0911ZM49.3112 8.12429C49.3112 7.05801 50.4194 6.92268 51.1678 6.92268H51.8828C51.9162 7.42284 51.795 7.92125 51.5348 8.35295C51.4094 8.5449 51.2362 8.70254 51.0315 8.81109C50.8268 8.91964 50.5974 8.97555 50.3646 8.97359C49.7664 8.97359 49.3064 8.71693 49.3064 8.12196L49.3112 8.12429Z" fill="white"/>
<path d="M55.4769 10.1285H57.1452V7.57599C57.1452 6.57737 57.1452 4.74112 58.5037 4.74112C58.7619 4.72946 59.0191 4.78077 59.252 4.89044V3.06586C59.0859 3.02208 58.9138 3.00397 58.742 3.0122C57.7458 3.0122 57.0594 4.10648 56.9855 4.75512H56.9617V3.17319H55.4792V10.1285H55.4769Z" fill="white"/>
<path fill-rule="evenodd" clip-rule="evenodd" d="M63.3967 8.72393C62.4433 8.72393 61.9667 7.55732 61.9667 6.62403C61.9667 5.55775 62.3289 4.4238 63.461 4.4238C64.4334 4.4238 64.8553 5.39675 64.8553 6.58437C64.8553 7.77198 64.431 8.73093 63.3848 8.73093L63.3967 8.72393ZM64.9458 3.17319V4.11814H64.922C64.7388 3.76656 64.4552 3.47464 64.1058 3.27789C63.7563 3.08113 63.3559 2.98802 62.9534 3.00986C61.0348 3.00986 60.2364 4.94177 60.2364 6.6147C60.2364 8.48128 60.9514 10.1145 62.858 10.1145C63.2612 10.1223 63.6591 10.0234 64.0098 9.82834C64.3604 9.6333 64.6509 9.3493 64.8505 9.00625H64.8743C64.8743 10.2079 64.7885 11.7081 62.9438 11.7081C62.4219 11.7081 61.5853 11.3978 61.0753 11.1015L60.9371 12.6414C61.6323 12.956 62.3901 13.1153 63.1559 13.1081C65.8467 13.1081 66.5451 11.3255 66.5451 9.43557V3.17319H64.9458Z" fill="white"/>
<path fill-rule="evenodd" clip-rule="evenodd" d="M68.9808 5.0911C69.532 4.62278 70.2318 4.35568 70.9614 4.33513C71.9457 4.33513 72.4057 4.71312 72.4057 5.83307H71.4833C70.785 5.83307 69.9628 5.90073 69.3383 6.23905C68.7139 6.57737 68.242 7.184 68.242 8.22462C68.242 9.54756 69.3502 10.2895 70.4847 10.2895C70.8921 10.2841 71.2903 10.1705 71.637 9.96094C71.9837 9.75139 72.2658 9.4537 72.4533 9.09958H72.4772C72.4819 9.44754 72.5066 9.79495 72.5511 10.1402H74.0216C73.9858 9.59889 73.9596 9.11358 73.9477 8.58627C73.9358 8.05896 73.9239 7.54565 73.9239 6.84335V5.94273C73.9239 3.88949 73.1135 3.0122 71.1568 3.0122C70.3827 3.02569 69.6211 3.20572 68.926 3.5395L68.9761 5.09343L68.9808 5.0911ZM69.8293 8.12429C69.8293 7.05801 70.9375 6.92268 71.6859 6.92268H72.4009C72.4345 7.42285 72.3132 7.92131 72.0529 8.35295C71.9275 8.5449 71.7543 8.70254 71.5496 8.81109C71.345 8.91964 71.1155 8.97555 70.8827 8.97359C70.2845 8.97359 69.8245 8.71693 69.8245 8.12196L69.8293 8.12429Z" fill="white"/>
<path d="M80.1801 3.17319V6.57737C80.1801 7.46866 79.9179 8.88726 78.7096 8.88726C77.6371 8.88726 77.6252 7.73931 77.6252 6.88769V3.17319H75.9568V7.56199C75.9568 9.12758 76.617 10.2895 78.1376 10.2895C78.5539 10.2839 78.9626 10.1803 79.3293 9.98739C79.696 9.79449 80.0099 9.51798 80.2445 9.18125H80.2683V10.1262H81.8508V3.17319H80.1801Z" fill="white"/>
<path fill-rule="evenodd" clip-rule="evenodd" d="M83.9887 10.1285H85.657V3.17319H83.9887V10.1285ZM83.9887 1.90391H85.657V0.174992H83.9887V1.90391Z" fill="white"/>
<path d="M91.6916 3.26652C91.0996 3.10307 90.4882 3.01677 89.8731 3.00986C88.5647 3.00986 87.3563 3.6725 87.3563 5.17043C87.3563 7.68098 90.2592 6.75002 90.2592 8.11496C90.2592 8.78926 89.5871 8.96659 89.1629 8.96659C88.583 8.95129 88.0168 8.79062 87.5184 8.49994L87.4183 9.98621C88.0324 10.1719 88.6703 10.2717 89.313 10.2825C90.6715 10.2825 92.0038 9.63389 92.0038 8.01463C92.0038 5.50408 89.1009 6.20405 89.1009 5.0981C89.1009 4.50313 89.6372 4.32813 90.0852 4.32813C90.5988 4.32572 91.1074 4.42658 91.5796 4.62446L91.6916 3.25952V3.26652Z" fill="white"/>
<path d="M97.9812 3.24085C97.458 3.07551 96.9103 2.99665 96.3605 3.00753C94.3538 3.00753 93.2622 4.60112 93.2622 6.61236C93.2622 8.73327 94.3204 10.2849 96.4273 10.2849C96.9929 10.3009 97.5572 10.222 98.0956 10.0515L98.0217 8.55128C97.6215 8.74418 97.1851 8.85457 96.7395 8.87559C95.5693 8.87559 95.0068 7.89097 95.0068 6.6077C95.0068 5.32442 95.667 4.40746 96.7014 4.40746C97.0957 4.39717 97.4861 4.48551 97.8358 4.66412L97.986 3.23385L97.9812 3.24085Z" fill="white"/>
<path d="M99.5709 10.1285H101.239V6.72436C101.239 5.83307 101.501 4.41446 102.71 4.41446C103.782 4.41446 103.794 5.56241 103.794 6.41404V10.1285H105.463V5.73974C105.463 4.17414 104.802 3.0122 103.282 3.0122C102.876 3.00838 102.476 3.10867 102.122 3.3031C101.767 3.49754 101.471 3.77933 101.263 4.12048H101.239V0H99.5709V10.1285Z" fill="white"/>
<path fill-rule="evenodd" clip-rule="evenodd" d="M108.752 5.96839C108.825 5.0351 109.3 4.33513 110.234 4.33513C111.168 4.33513 111.542 5.0911 111.592 5.96839H108.752ZM112.713 8.26429C112.084 8.69045 111.346 8.93319 110.582 8.96426C109.548 8.96426 108.825 8.32962 108.749 7.20967H113.184C113.184 4.77845 112.512 3.00986 110.131 3.00986C108.137 3.00986 107.152 4.67112 107.152 6.68236C107.152 8.96426 108.387 10.2872 110.503 10.2872C111.277 10.3119 112.042 10.1201 112.708 9.73422V8.26429H112.713Z" fill="white"/>
<path d="M27.8135 27.7934H0V0.667303H27.8135V27.7934ZM0.931883 26.8858H26.8816V1.57493H0.931883V26.8858Z" fill="white"/>
<path d="M25.0584 3.03786H12.4863L5.4483 14.2443L12.4863 25.3972H25.0584L18.0228 14.2443L25.0584 3.03786Z" fill="white"/>
<path d="M25.6208 25.7028H12.3099L5.07888 14.2327L12.3099 2.73221H25.6208L18.3898 14.2327L25.6208 25.7028ZM12.6603 25.0915H24.4983L17.6534 14.2327L24.4983 3.33418H12.6603L5.81772 14.2327L12.6603 25.0915Z" fill="white"/>
</svg>
