<svg width="151" height="31" viewBox="0 0 151 31" fill="none" xmlns="http://www.w3.org/2000/svg">
<g clip-path="url(#clip0_1891_8309)">
<path fill-rule="evenodd" clip-rule="evenodd" d="M108.63 5.17532C108.63 3.42247 107.13 2 105.281 2C103.431 2 101.94 3.42247 101.94 5.17532C101.94 6.92816 103.431 8.35063 105.281 8.35063C107.13 8.35063 108.63 6.92816 108.63 5.17532ZM102.732 26.8794H107.94V10.5532H102.732V26.8794ZM74.9324 26.8794H80.1407V4.23006H74.9324V26.8794ZM43.8662 27.2832C48.6421 27.2832 52.0376 23.6215 52.0376 18.7301C52.0376 13.8294 48.7341 10.1769 43.995 10.1769C42.219 10.1769 40.7191 10.7092 39.532 11.7003V4.23006H34.3237V26.8794H39.1272V25.4845C40.3142 26.6316 41.9062 27.2832 43.8662 27.2832ZM43.0932 22.7222C40.986 22.7222 39.2836 20.9326 39.2836 18.7117C39.2836 16.5 40.986 14.7013 43.0932 14.7013C45.1913 14.7013 46.8937 16.5 46.8937 18.7117C46.8937 20.9326 45.1913 22.7222 43.0932 22.7222ZM71.5 26.8794V10.5532H66.6965V12.2509C65.5463 11.1038 63.9819 10.4889 61.9575 10.4889C57.1816 10.4889 53.7492 13.8386 53.7492 18.7301C53.7492 23.6215 57.1816 27.2832 61.9575 27.2832C63.9819 27.2832 65.5463 26.5949 66.6965 25.3927V26.8794H71.5ZM62.7212 22.7222C60.6232 22.7222 58.93 20.9326 58.93 18.7117C58.93 16.5 60.6232 14.7013 62.7212 14.7013C64.8193 14.7013 66.5125 16.5 66.5125 18.7117C66.5125 20.9326 64.8193 22.7222 62.7212 22.7222ZM100.413 18.7301C100.413 14.0038 96.3916 10.1769 91.4225 10.1769C86.4441 10.1769 82.4228 14.0038 82.4228 18.7301C82.4228 23.4563 86.4441 27.2832 91.4225 27.2832C96.3916 27.2832 100.413 23.4563 100.413 18.7301ZM91.4225 22.6946C89.3428 22.6946 87.6588 20.9234 87.6588 18.7301C87.6588 16.5367 89.3428 14.7655 91.4225 14.7655C93.4929 14.7655 95.1769 16.5367 95.1769 18.7301C95.1769 20.9234 93.4929 22.6946 91.4225 22.6946ZM114.372 21.2722L110.066 22.9149C111.032 25.769 113.682 27.2832 117.391 27.2741C121.725 27.2741 124.467 25.2367 124.467 21.8595C124.467 18.1519 121.21 17.2984 118.707 16.6377C117.151 16.2339 115.891 15.9035 115.891 15.0041C115.891 14.325 116.424 13.9212 117.483 13.9212C118.578 13.9212 119.36 14.4535 119.728 15.4722L124.035 13.8019C123.381 11.5076 120.952 10.1769 117.584 10.1769C113.434 10.1769 110.811 12.0949 110.811 15.2611C110.811 18.6016 113.866 19.5101 116.323 20.2443C117.989 20.7399 119.388 21.162 119.388 22.1991C119.388 22.9424 118.762 23.4104 117.584 23.4104C115.9 23.4104 114.805 22.6304 114.372 21.2722ZM143 18.3905C143 14.3617 139.816 10.1494 134.451 10.1494C129.712 10.1494 125.903 14.0222 125.903 18.7301C125.903 23.594 129.335 27.2832 134.764 27.2832C138.344 27.2832 140.46 25.9066 141.73 24.3465L138.73 21.3639C137.801 22.5111 136.761 23.0709 134.921 23.0709C132.951 23.0709 131.488 22.0797 130.955 20.2443H142.871C142.957 19.6325 143 19.0146 143 18.3905ZM130.899 17.0231C131.332 15.0408 132.675 14.0222 134.58 14.0222C136.476 14.0222 137.727 15.1693 138.16 17.0231H130.899ZM14.7693 2.66076C14.6221 2.59652 14.4656 2.56899 14.3 2.56899C14.1436 2.56899 13.9779 2.59652 13.8307 2.66076C13.6835 2.725 13.5454 2.80759 13.435 2.9269L0.35888 15.9218C0.128829 16.1513 0 16.4541 0 16.7845C0 17.1057 0.128829 17.4177 0.35888 17.6472L13.435 30.6421C13.5454 30.7522 13.6835 30.844 13.8307 30.9082C13.9871 30.9633 14.1436 31 14.3 31C14.4656 31 14.6221 30.9633 14.7785 30.9082C14.9257 30.844 15.0638 30.7522 15.1742 30.6421L22.4254 23.4288L18.0084 19.0421L14.3 22.7222L8.31866 16.7845L14.3 10.8377L24.6983 21.1712L28.2503 17.6472C28.3607 17.537 28.4528 17.3994 28.5172 17.2525C28.5816 17.1057 28.6092 16.9405 28.6092 16.7845C28.6092 16.6193 28.5816 16.4633 28.5172 16.3165C28.4528 16.1696 28.3607 16.032 28.2503 15.9218L15.1742 2.9269C15.0546 2.80759 14.9257 2.725 14.7693 2.66076Z" fill="white"/>
</g>
<defs>
<clipPath id="clip0_1891_8309">
<rect width="151" height="31" fill="white"/>
</clipPath>
</defs>
</svg>
