<svg width="151" height="75" viewBox="0 0 151 75" fill="none" xmlns="http://www.w3.org/2000/svg">
<g clip-path="url(#clip0_901_9810)">
<path fill-rule="evenodd" clip-rule="evenodd" d="M114.644 25.3943C114.644 23.5206 113.061 22 111.109 22C109.157 22 107.584 23.5206 107.584 25.3943C107.584 27.268 109.157 28.7886 111.109 28.7886C113.061 28.7886 114.644 27.268 114.644 25.3943ZM108.419 48.5953H113.915V31.143H108.419V48.5953ZM79.0833 48.5953H84.5795V24.3839H79.0833V48.5953ZM46.3002 49.0269C51.3401 49.0269 54.9233 45.1127 54.9233 39.8839C54.9233 34.6453 51.4372 30.7408 46.4362 30.7408C44.562 30.7408 42.9792 31.3098 41.7266 32.3693V24.3839H36.2303V48.5953H41.2993V47.1041C42.5519 48.3304 44.2319 49.0269 46.3002 49.0269ZM45.4846 44.1513C43.2608 44.1513 41.4644 42.2383 41.4644 39.8642C41.4644 37.5 43.2608 35.5772 45.4846 35.5772C47.6986 35.5772 49.495 37.5 49.495 39.8642C49.495 42.2383 47.6986 44.1513 45.4846 44.1513ZM75.4612 48.5953V31.143H70.3923V32.9579C69.1785 31.7316 67.5276 31.0744 65.3913 31.0744C60.3515 31.0744 56.7294 34.6551 56.7294 39.8839C56.7294 45.1127 60.3515 49.0269 65.3913 49.0269C67.5276 49.0269 69.1785 48.2911 70.3923 47.006V48.5953H75.4612ZM66.1973 44.1513C63.9833 44.1513 62.1965 42.2383 62.1965 39.8642C62.1965 37.5 63.9833 35.5772 66.1973 35.5772C68.4113 35.5772 70.1981 37.5 70.1981 39.8642C70.1981 42.2383 68.4113 44.1513 66.1973 44.1513ZM105.972 39.8839C105.972 34.8316 101.728 30.7408 96.4847 30.7408C91.2312 30.7408 86.9877 34.8316 86.9877 39.8839C86.9877 44.9361 91.2312 49.0269 96.4847 49.0269C101.728 49.0269 105.972 44.9361 105.972 39.8839ZM96.4847 44.1218C94.2901 44.1218 92.513 42.2285 92.513 39.8839C92.513 37.5392 94.2901 35.6459 96.4847 35.6459C98.6696 35.6459 100.447 37.5392 100.447 39.8839C100.447 42.2285 98.6696 44.1218 96.4847 44.1218ZM120.703 42.6013L116.158 44.3573C117.178 47.4082 119.975 49.0269 123.888 49.0171C128.462 49.0171 131.355 46.8392 131.355 43.2291C131.355 39.2658 127.918 38.3535 125.277 37.6472C123.636 37.2155 122.305 36.8623 122.305 35.9009C122.305 35.175 122.868 34.7434 123.985 34.7434C125.141 34.7434 125.966 35.3123 126.355 36.4013L130.899 34.6158C130.21 32.1633 127.646 30.7408 124.092 30.7408C119.712 30.7408 116.945 32.7911 116.945 36.1756C116.945 39.7465 120.169 40.7177 122.762 41.5025C124.519 42.0323 125.995 42.4835 125.995 43.5921C125.995 44.3867 125.335 44.887 124.092 44.887C122.315 44.887 121.159 44.0532 120.703 42.6013ZM150.913 39.5209C150.913 35.2142 147.553 30.7114 141.891 30.7114C136.891 30.7114 132.87 34.8513 132.87 39.8839C132.87 45.0832 136.492 49.0269 142.222 49.0269C145.999 49.0269 148.233 47.5554 149.573 45.8877L146.407 42.6994C145.426 43.9256 144.329 44.5241 142.387 44.5241C140.309 44.5241 138.765 43.4646 138.201 41.5025H150.777C150.867 40.8485 150.913 40.188 150.913 39.5209ZM138.143 38.0592C138.6 35.9402 140.017 34.8513 142.027 34.8513C144.028 34.8513 145.348 36.0775 145.805 38.0592H138.143ZM15.5953 22.7063C15.4399 22.6377 15.2748 22.6082 15.1001 22.6082C14.935 22.6082 14.7602 22.6377 14.6048 22.7063C14.4494 22.775 14.3038 22.8633 14.1873 22.9908L0.388479 36.882C0.145714 37.1272 0.00976562 37.4509 0.00976562 37.8041C0.00976562 38.1475 0.145714 38.481 0.388479 38.7263L14.1873 52.6174C14.3038 52.7351 14.4494 52.8332 14.6048 52.9019C14.7699 52.9608 14.935 53 15.1001 53C15.2748 53 15.4399 52.9608 15.605 52.9019C15.7604 52.8332 15.906 52.7351 16.0226 52.6174L23.6745 44.9066L19.0134 40.2174L15.1001 44.1513L8.78816 37.8041L15.1001 31.4472L26.073 42.4934L29.8213 38.7263C29.9379 38.6085 30.035 38.4614 30.1029 38.3044C30.1709 38.1475 30.2001 37.9709 30.2001 37.8041C30.2001 37.6275 30.1709 37.4608 30.1029 37.3038C30.035 37.1468 29.9379 36.9997 29.8213 36.882L16.0226 22.9908C15.8963 22.8633 15.7604 22.775 15.5953 22.7063Z" fill="white"/>
</g>
<defs>
<clipPath id="clip0_901_9810">
<rect width="151" height="31" fill="white" transform="translate(0 22)"/>
</clipPath>
</defs>
</svg>
