<svg width="151" height="75" viewBox="0 0 151 75" fill="none" xmlns="http://www.w3.org/2000/svg">
<path fill-rule="evenodd" clip-rule="evenodd" d="M108.63 27.1753C108.63 25.4225 107.13 24 105.281 24C103.431 24 101.94 25.4225 101.94 27.1753C101.94 28.9282 103.431 30.3506 105.281 30.3506C107.13 30.3506 108.63 28.9282 108.63 27.1753ZM102.732 48.8794H107.94V32.5532H102.732V48.8794ZM74.9324 48.8794H80.1407V26.2301H74.9324V48.8794ZM43.8662 49.2832C48.6421 49.2832 52.0376 45.6215 52.0376 40.7301C52.0376 35.8294 48.7341 32.1769 43.995 32.1769C42.219 32.1769 40.7191 32.7092 39.532 33.7003V26.2301H34.3237V48.8794H39.1272V47.4845C40.3142 48.6316 41.9062 49.2832 43.8662 49.2832ZM43.0932 44.7222C40.986 44.7222 39.2836 42.9326 39.2836 40.7117C39.2836 38.5 40.986 36.7013 43.0932 36.7013C45.1913 36.7013 46.8937 38.5 46.8937 40.7117C46.8937 42.9326 45.1913 44.7222 43.0932 44.7222ZM71.5 48.8794V32.5532H66.6965V34.2509C65.5463 33.1038 63.9819 32.4889 61.9575 32.4889C57.1816 32.4889 53.7492 35.8386 53.7492 40.7301C53.7492 45.6215 57.1816 49.2832 61.9575 49.2832C63.9819 49.2832 65.5463 48.5949 66.6965 47.3927V48.8794H71.5ZM62.7212 44.7222C60.6232 44.7222 58.93 42.9326 58.93 40.7117C58.93 38.5 60.6232 36.7013 62.7212 36.7013C64.8193 36.7013 66.5125 38.5 66.5125 40.7117C66.5125 42.9326 64.8193 44.7222 62.7212 44.7222ZM100.413 40.7301C100.413 36.0038 96.3916 32.1769 91.4225 32.1769C86.4441 32.1769 82.4228 36.0038 82.4228 40.7301C82.4228 45.4563 86.4441 49.2832 91.4225 49.2832C96.3916 49.2832 100.413 45.4563 100.413 40.7301ZM91.4225 44.6946C89.3428 44.6946 87.6588 42.9234 87.6588 40.7301C87.6588 38.5367 89.3428 36.7655 91.4225 36.7655C93.4929 36.7655 95.1769 38.5367 95.1769 40.7301C95.1769 42.9234 93.4929 44.6946 91.4225 44.6946ZM114.372 43.2722L110.066 44.9149C111.032 47.769 113.682 49.2832 117.391 49.2741C121.725 49.2741 124.467 47.2367 124.467 43.8595C124.467 40.1519 121.21 39.2984 118.707 38.6377C117.151 38.2339 115.891 37.9035 115.891 37.0041C115.891 36.325 116.424 35.9212 117.483 35.9212C118.578 35.9212 119.36 36.4535 119.728 37.4722L124.035 35.8019C123.381 33.5076 120.952 32.1769 117.584 32.1769C113.434 32.1769 110.811 34.0949 110.811 37.2611C110.811 40.6016 113.866 41.5101 116.323 42.2443C117.989 42.7399 119.388 43.162 119.388 44.1991C119.388 44.9424 118.762 45.4104 117.584 45.4104C115.9 45.4104 114.805 44.6304 114.372 43.2722ZM143 40.3905C143 36.3617 139.816 32.1494 134.451 32.1494C129.712 32.1494 125.903 36.0222 125.903 40.7301C125.903 45.594 129.335 49.2832 134.764 49.2832C138.344 49.2832 140.46 47.9066 141.73 46.3465L138.73 43.3639C137.801 44.5111 136.761 45.0709 134.921 45.0709C132.951 45.0709 131.488 44.0797 130.955 42.2443H142.871C142.957 41.6325 143 41.0146 143 40.3905ZM130.899 39.0231C131.332 37.0408 132.675 36.0222 134.58 36.0222C136.476 36.0222 137.727 37.1693 138.16 39.0231H130.899ZM14.7693 24.6608C14.6221 24.5965 14.4656 24.569 14.3 24.569C14.1436 24.569 13.9779 24.5965 13.8307 24.6608C13.6835 24.725 13.5454 24.8076 13.435 24.9269L0.35888 37.9218C0.128829 38.1513 0 38.4541 0 38.7845C0 39.1057 0.128829 39.4177 0.35888 39.6472L13.435 52.6421C13.5454 52.7522 13.6835 52.844 13.8307 52.9082C13.9871 52.9633 14.1436 53 14.3 53C14.4656 53 14.6221 52.9633 14.7785 52.9082C14.9257 52.844 15.0638 52.7522 15.1742 52.6421L22.4254 45.4288L18.0084 41.0421L14.3 44.7222L8.31866 38.7845L14.3 32.8377L24.6983 43.1712L28.2503 39.6472C28.3607 39.537 28.4528 39.3994 28.5172 39.2525C28.5816 39.1057 28.6092 38.9405 28.6092 38.7845C28.6092 38.6193 28.5816 38.4633 28.5172 38.3165C28.4528 38.1696 28.3607 38.032 28.2503 37.9218L15.1742 24.9269C15.0546 24.8076 14.9257 24.725 14.7693 24.6608Z" fill="white"/>
</svg>
