<svg width="153" height="55" viewBox="0 0 153 55" fill="none" xmlns="http://www.w3.org/2000/svg">
<g clip-path="url(#clip0_1891_8311)">
<path d="M2.06961 36.4556H4.99422C7.19922 36.4556 7.98652 34.8743 7.98652 33.6769C7.98652 31.0797 6.38922 30.6279 4.27461 30.6279H2.06961V36.4556ZM2.06961 28.8208H5.08422C6.70422 28.798 7.49152 27.8044 7.49152 26.2236C7.49152 24.8682 6.72691 23.7612 4.99422 23.7612H2.06961V28.8208ZM0 38.2623V21.9544H5.28691C7.53691 21.9544 8.30152 22.7224 8.90883 23.6256C9.47152 24.5068 9.56152 25.4779 9.56152 25.7942C9.56152 27.8272 8.86422 29.1822 6.77152 29.6568V29.7695C9.08883 30.041 10.1015 31.4411 10.1015 33.6769C10.1015 37.8557 7.06422 38.2623 5.21961 38.2623H0Z" fill="white"/>
<path d="M15.6823 38.2623V21.9544H24.0515V23.7612H17.7519V29.0015H23.6015V30.8086H17.7519V36.4556H24.1865V38.2623H15.6823Z" fill="white"/>
<path d="M36.8538 26.3136C36.8538 24.3941 36.0665 23.3546 33.9742 23.3546C33.3219 23.3546 30.9823 23.4677 30.9823 26.8785V32.3895C30.9823 35.9586 32.0169 36.8622 33.9742 36.8622C35.4592 36.8622 36.4492 36.4556 36.8765 36.1393V31.2604H33.8842V29.4533H38.9465V37.3815C37.6188 38.1044 36.0665 38.6014 33.9742 38.6014C30.5319 38.6014 28.8673 36.817 28.8673 32.2995V26.9465C28.8673 23.6936 30.5319 21.6154 33.9742 21.6154C37.4838 21.6154 39.1492 22.9032 39.0138 26.3136H36.8538Z" fill="white"/>
<path d="M49.3192 23.8743H49.2742L46.7323 32.5706H51.9292L49.3192 23.8743ZM48.0596 21.9544H50.6919L55.9788 38.2623H53.6615L52.4915 34.3777H46.2146L44.9996 38.2623H42.9073L48.0596 21.9544Z" fill="white"/>
<path d="M61.4242 33.4062V33.8804C61.4242 36.0941 62.8192 36.7942 64.1465 36.7942C65.7888 36.7942 67.0488 36.0941 67.0488 34.1515C67.0488 30.5376 59.7596 30.9438 59.7596 26.0429C59.7596 23.1515 61.8069 21.6154 64.5288 21.6154C67.4988 21.6154 69.1638 23.0611 69.0284 26.3815H66.8688C66.8915 24.5972 66.3288 23.4225 64.3715 23.4225C63.1342 23.4225 61.8742 24.055 61.8742 25.817C61.8742 29.4081 69.1638 28.8887 69.1638 34.0611C69.1638 37.4943 66.8015 38.6014 64.1242 38.6014C59.3319 38.6465 59.3319 34.9647 59.3769 33.4062H61.4242Z" fill="white"/>
<path d="M81.943 32.3895V26.8785C81.943 23.4677 79.6038 23.3546 78.9511 23.3546C78.2984 23.3546 75.9588 23.4677 75.9588 26.8785V32.3895C75.9588 35.9586 76.9938 36.8622 78.9511 36.8622C80.9084 36.8622 81.943 35.9586 81.943 32.3895ZM73.8442 32.2995V26.9465C73.8442 23.6936 75.5088 21.6154 78.9511 21.6154C82.3934 21.6154 84.058 23.6936 84.058 26.9465V32.2995C84.058 36.817 82.3934 38.6014 78.9511 38.6014C75.5088 38.6014 73.8442 36.817 73.8442 32.2995Z" fill="white"/>
<path d="M89.1892 38.2623V21.9544H97.2438V23.7612H91.2588V29.0015H96.9288V30.8086H91.2588V38.2623H89.1892Z" fill="white"/>
<path d="M111.373 21.9544V23.7612H107.098V38.2623H105.028V23.7612H100.754V21.9544H111.373Z" fill="white"/>
<path d="M44.2221 51.4993H45.3416C46.9886 51.4993 47.5936 50.8785 47.5936 48.7084V46.8219C47.5936 44.9354 47.0144 44.2381 45.7791 44.2381H44.2221V51.4993ZM43.038 43.2045H45.8949C47.079 43.2045 47.9285 43.6307 48.3914 44.6254C48.7647 45.4135 48.8031 47.2737 48.8031 47.5711C48.8031 49.5613 48.6235 50.7108 48.2373 51.3307C47.7352 52.1321 46.7961 52.5325 45.1741 52.5325H43.038V43.2045Z" fill="white"/>
<path d="M52.4117 52.5325H51.3563V46.0083H52.4117V52.5325ZM51.2922 43.2045H52.4763V44.341H51.2922V43.2045Z" fill="white"/>
<path d="M57.1042 46.7575C55.9072 46.7575 55.8689 48.2044 55.8689 49.0702C55.8689 51.163 56.3451 51.654 57.13 51.654C58.4041 51.654 58.3654 50.1423 58.3654 49.238C58.3654 48.2692 58.43 46.7575 57.1042 46.7575ZM58.3396 46.0083H59.3949V53.1917C59.3949 54.6515 58.43 55 57.0013 55C55.9201 55 54.9423 54.4571 55.0323 53.2561H56.2164C56.2293 53.8635 56.628 54.1994 57.2071 54.1994C57.9408 54.1994 58.3396 53.7472 58.3396 53.0754V51.7192H58.3008C58.0308 52.2351 57.4388 52.5325 56.8726 52.5325C55.1097 52.5325 54.7623 51.0082 54.7623 49.0702C54.7623 46.0723 56.268 45.879 56.7955 45.879C57.4775 45.879 58.0179 46.1756 58.3137 46.8089H58.3396V46.0083Z" fill="white"/>
<path d="M62.9906 52.5325H61.9353V46.0083H62.9906V52.5325ZM61.8711 43.2045H63.0548V44.341H61.8711V43.2045Z" fill="white"/>
<path d="M65.7591 46.0083V44.7547L66.814 44.2766V46.0083H68.2298V46.8089H66.814V50.8015C66.814 51.2148 66.814 51.7448 67.7794 51.7448C67.8569 51.7448 68.024 51.7193 68.2556 51.6925V52.5069C67.9081 52.5325 67.5607 52.6099 67.2132 52.6099C66.2095 52.6099 65.7591 52.1966 65.7591 51.447V46.8089H64.6908V46.0083H65.7591Z" fill="white"/>
<path d="M70.8785 50.5945C70.8785 51.2282 71.1873 51.7962 71.8951 51.7962C72.5388 51.7962 73.3367 51.3959 73.2338 49.2894C72.2297 49.3024 70.8785 49.212 70.8785 50.5945ZM73.2592 51.5896H73.2338C72.9117 52.3388 72.4101 52.6617 71.5989 52.6617C70.2223 52.6617 69.8232 51.7703 69.8232 50.5171C69.8232 48.5402 71.7535 48.4495 73.2338 48.4884C73.2592 47.6229 73.2721 46.6801 72.1397 46.6801C71.4318 46.6801 71.0585 47.1578 71.1231 47.8425H69.9777C70.029 46.3827 70.8014 45.879 72.1781 45.879C73.8513 45.879 74.2887 46.7445 74.2887 47.8425V50.9819C74.2887 51.4992 74.3404 52.0284 74.4175 52.5325H73.2592V51.5896Z" fill="white"/>
<path d="M77.9322 43.2045H76.8768V52.5325H77.9322V43.2045Z" fill="white"/>
<path d="M83.9109 48.8113C83.9109 46.9122 83.3831 46.6801 82.6106 46.6801C81.9415 46.6801 81.3882 47.003 81.3753 48.8113H83.9109ZM81.3753 49.6127C81.3753 51.4348 81.8644 51.7962 82.6885 51.7962C83.4089 51.7962 83.7822 51.2148 83.8205 50.556H84.9788C84.9659 52.0029 84.078 52.6617 82.7139 52.6617C81.3369 52.6617 80.2432 52.248 80.2432 49.3672C80.2432 47.4548 80.462 45.879 82.7139 45.879C84.5668 45.879 85.0304 46.8993 85.0304 49.0569V49.6127H81.3753Z" fill="white"/>
<path d="M91.0342 52.5325V43.2045H92.2179V51.4993H95.6281V52.5325H91.0342Z" fill="white"/>
<path d="M101.247 44.9095H100.037V43.5663H101.247V44.9095ZM100.874 48.9146C100.874 47.1322 100.32 46.7445 99.5099 46.7445C98.6991 46.7445 98.1458 47.1322 98.1458 48.9146C98.1458 51.0337 98.4158 51.7962 99.5099 51.7962C100.603 51.7962 100.874 51.0337 100.874 48.9146ZM98.982 44.9095H97.7725V43.5663H98.982V44.9095ZM97.0392 49.3672C97.0392 47.4548 97.2579 45.879 99.5099 45.879C101.762 45.879 101.981 47.4548 101.981 49.3672C101.981 52.248 100.886 52.6617 99.5099 52.6617C98.1325 52.6617 97.0392 52.248 97.0392 49.3672Z" fill="white"/>
<path d="M106.215 52.6617C104.812 52.6617 103.937 52.0414 103.975 50.543H105.172C105.172 50.9174 105.185 51.7962 106.253 51.7962C106.884 51.7962 107.373 51.4737 107.373 50.8015C107.373 49.6383 104.13 49.6127 104.13 47.6618C104.13 46.9767 104.542 45.879 106.369 45.879C107.527 45.879 108.518 46.4341 108.428 47.7262H107.257C107.27 47.0419 106.909 46.6801 106.24 46.6801C105.674 46.6801 105.237 46.99 105.237 47.5581C105.237 48.7084 108.48 48.6821 108.48 50.6723C108.48 52.1058 107.502 52.6617 106.215 52.6617Z" fill="white"/>
<path d="M114.129 46.0083H115.185V51.1759C115.185 51.6281 115.211 52.0803 115.249 52.5324H114.129V51.7448H114.091C113.744 52.3388 113.126 52.6617 112.444 52.6617C111.312 52.6617 110.694 52.0932 110.694 50.9818V46.0083H111.749V50.5297C111.749 51.3177 112.109 51.8481 112.855 51.8481C113.422 51.8481 114.129 51.4215 114.129 50.336V46.0083Z" fill="white"/>
<path d="M121.259 52.5325V48.0103C121.259 47.3126 121.015 46.7445 120.114 46.7445C118.956 46.7445 118.789 47.7781 118.789 48.6691V52.5325H117.733V47.3644C117.733 46.9122 117.708 46.4601 117.669 46.0083H118.789V46.8474H118.84C119.252 46.1108 119.741 45.879 120.577 45.879C121.968 45.879 122.314 46.7186 122.314 48.0103V52.5325H121.259Z" fill="white"/>
<path d="M127.013 46.7575C125.816 46.7575 125.777 48.2044 125.777 49.0702C125.777 51.163 126.254 51.654 127.038 51.654C128.312 51.654 128.273 50.1423 128.273 49.238C128.273 48.2692 128.338 46.7575 127.013 46.7575ZM128.248 46.0083H129.303V53.1917C129.303 54.6515 128.338 55 126.91 55C125.829 55 124.851 54.4571 124.94 53.2561H126.125C126.137 53.8635 126.536 54.1994 127.116 54.1994C127.849 54.1994 128.248 53.7472 128.248 53.0754V51.7192H128.21C127.939 52.2351 127.347 52.5325 126.781 52.5325C125.018 52.5325 124.671 51.0082 124.671 49.0702C124.671 46.0723 126.176 45.879 126.704 45.879C127.386 45.879 127.926 46.1756 128.223 46.8089H128.248V46.0083Z" fill="white"/>
<path d="M135.455 48.8113C135.455 46.9122 134.928 46.6801 134.155 46.6801C133.486 46.6801 132.933 47.003 132.92 48.8113H135.455ZM132.92 49.6127C132.92 51.4348 133.409 51.7962 134.232 51.7962C134.953 51.7962 135.326 51.2148 135.365 50.556H136.523C136.51 52.0029 135.622 52.6617 134.258 52.6617C132.881 52.6617 131.787 52.248 131.787 49.3672C131.787 47.4548 132.006 45.879 134.258 45.879C136.111 45.879 136.575 46.8993 136.575 49.0569V49.6127H132.92Z" fill="white"/>
<path d="M142.495 52.5325V48.0103C142.495 47.3126 142.251 46.7445 141.35 46.7445C140.191 46.7445 140.024 47.7781 140.024 48.6691V52.5325H138.969V47.3644C138.969 46.9122 138.943 46.4601 138.905 46.0083H140.024V46.8474H140.076C140.488 46.1108 140.977 45.879 141.813 45.879C143.203 45.879 143.55 46.7186 143.55 48.0103V52.5325H142.495Z" fill="white"/>
<path d="M152.779 6.50845H149.704V9.59592H152.779V6.50845Z" fill="white"/>
<path d="M146.629 21.943H143.555V25.0305H146.629V21.943Z" fill="white"/>
<path d="M143.555 9.59592H140.479V12.6826H143.555V9.59592Z" fill="white"/>
<path d="M140.48 6.50845H137.405V9.59592H140.48V6.50845Z" fill="white"/>
<path d="M137.405 0.333923H134.33V3.42139H137.405V0.333923Z" fill="white"/>
<path d="M131.255 12.6822H128.181V15.7693H131.255V12.6822Z" fill="white"/>
<path d="M134.33 18.8564H131.255V21.9434H134.33V18.8564Z" fill="white"/>
<path d="M128.181 31.2039H125.106V34.2909H128.181V31.2039Z" fill="white"/>
<path d="M125.106 21.943H122.031V25.0305H125.106V21.943Z" fill="white"/>
<path d="M122.031 3.42139H118.957V6.50846H122.031V3.42139Z" fill="white"/>
</g>
<defs>
<clipPath id="clip0_1891_8311">
<rect width="153" height="55" fill="white"/>
</clipPath>
</defs>
</svg>
