<svg width="153" height="75" viewBox="0 0 153 75" fill="none" xmlns="http://www.w3.org/2000/svg">
<g clip-path="url(#clip0_1908_1162)">
<path d="M2.06961 46.4556H4.99422C7.19922 46.4556 7.98652 44.8743 7.98652 43.6769C7.98652 41.0797 6.38922 40.6279 4.27461 40.6279H2.06961V46.4556ZM2.06961 38.8208H5.08422C6.70422 38.798 7.49152 37.8045 7.49152 36.2236C7.49152 34.8682 6.72691 33.7612 4.99422 33.7612H2.06961V38.8208ZM0 48.2623V31.9544H5.28691C7.53691 31.9544 8.30152 32.7225 8.90883 33.6256C9.47152 34.5068 9.56152 35.478 9.56152 35.7942C9.56152 37.8272 8.86422 39.1822 6.77152 39.6568V39.7695C9.08883 40.041 10.1015 41.4411 10.1015 43.6769C10.1015 47.8557 7.06422 48.2623 5.21961 48.2623H0Z" fill="white"/>
<path d="M15.6823 48.2623V31.9544H24.0515V33.7612H17.7519V39.0015H23.6015V40.8086H17.7519V46.4556H24.1865V48.2623H15.6823Z" fill="white"/>
<path d="M36.8538 36.3136C36.8538 34.3941 36.0665 33.3546 33.9742 33.3546C33.3219 33.3546 30.9823 33.4677 30.9823 36.8785V42.3895C30.9823 45.9586 32.0169 46.8622 33.9742 46.8622C35.4592 46.8622 36.4492 46.4556 36.8765 46.1393V41.2604H33.8842V39.4533H38.9465V47.3815C37.6188 48.1044 36.0665 48.6014 33.9742 48.6014C30.5319 48.6014 28.8673 46.817 28.8673 42.2995V36.9465C28.8673 33.6936 30.5319 31.6154 33.9742 31.6154C37.4838 31.6154 39.1492 32.9032 39.0138 36.3136H36.8538Z" fill="white"/>
<path d="M49.3192 33.8743H49.2742L46.7323 42.5706H51.9292L49.3192 33.8743ZM48.0596 31.9544H50.6919L55.9788 48.2623H53.6615L52.4915 44.3777H46.2146L44.9996 48.2623H42.9073L48.0596 31.9544Z" fill="white"/>
<path d="M61.4242 43.4062V43.8804C61.4242 46.0941 62.8192 46.7942 64.1465 46.7942C65.7888 46.7942 67.0488 46.0941 67.0488 44.1515C67.0488 40.5376 59.7596 40.9438 59.7596 36.0429C59.7596 33.1515 61.8069 31.6154 64.5288 31.6154C67.4988 31.6154 69.1638 33.0611 69.0284 36.3815H66.8688C66.8915 34.5972 66.3288 33.4225 64.3715 33.4225C63.1342 33.4225 61.8742 34.055 61.8742 35.817C61.8742 39.4081 69.1638 38.8887 69.1638 44.0611C69.1638 47.4943 66.8015 48.6014 64.1242 48.6014C59.3319 48.6465 59.3319 44.9647 59.3769 43.4062H61.4242Z" fill="white"/>
<path d="M81.943 42.3895V36.8785C81.943 33.4677 79.6038 33.3546 78.9511 33.3546C78.2984 33.3546 75.9588 33.4677 75.9588 36.8785V42.3895C75.9588 45.9586 76.9938 46.8622 78.9511 46.8622C80.9084 46.8622 81.943 45.9586 81.943 42.3895ZM73.8442 42.2995V36.9465C73.8442 33.6936 75.5088 31.6154 78.9511 31.6154C82.3934 31.6154 84.058 33.6936 84.058 36.9465V42.2995C84.058 46.817 82.3934 48.6014 78.9511 48.6014C75.5088 48.6014 73.8442 46.817 73.8442 42.2995Z" fill="white"/>
<path d="M89.1892 48.2623V31.9544H97.2438V33.7612H91.2588V39.0015H96.9288V40.8086H91.2588V48.2623H89.1892Z" fill="white"/>
<path d="M111.373 31.9544V33.7612H107.098V48.2623H105.028V33.7612H100.754V31.9544H111.373Z" fill="white"/>
<path d="M44.2221 61.4992H45.3416C46.9886 61.4992 47.5936 60.8785 47.5936 58.7084V56.8219C47.5936 54.9354 47.0144 54.2381 45.7791 54.2381H44.2221V61.4992ZM43.038 53.2045H45.8949C47.079 53.2045 47.9285 53.6307 48.3914 54.6254C48.7647 55.4135 48.8031 57.2737 48.8031 57.5711C48.8031 59.5613 48.6235 60.7108 48.2373 61.3307C47.7352 62.1321 46.7961 62.5325 45.1741 62.5325H43.038V53.2045Z" fill="white"/>
<path d="M52.4117 62.5325H51.3563V56.0083H52.4117V62.5325ZM51.2922 53.2045H52.4763V54.341H51.2922V53.2045Z" fill="white"/>
<path d="M57.1042 56.7575C55.9072 56.7575 55.8689 58.2044 55.8689 59.0702C55.8689 61.163 56.3451 61.654 57.13 61.654C58.4041 61.654 58.3654 60.1423 58.3654 59.238C58.3654 58.2692 58.43 56.7575 57.1042 56.7575ZM58.3396 56.0083H59.3949V63.1917C59.3949 64.6515 58.43 65 57.0013 65C55.9201 65 54.9423 64.4571 55.0323 63.2561H56.2163C56.2293 63.8635 56.628 64.1994 57.2071 64.1994C57.9408 64.1994 58.3396 63.7472 58.3396 63.0754V61.7192H58.3008C58.0308 62.2351 57.4388 62.5325 56.8726 62.5325C55.1097 62.5325 54.7623 61.0082 54.7623 59.0702C54.7623 56.0723 56.268 55.879 56.7955 55.879C57.4775 55.879 58.0179 56.1756 58.3137 56.8089H58.3396V56.0083Z" fill="white"/>
<path d="M62.9906 62.5325H61.9353V56.0083H62.9906V62.5325ZM61.8711 53.2045H63.0548V54.341H61.8711V53.2045Z" fill="white"/>
<path d="M65.7591 56.0083V54.7547L66.814 54.2766V56.0083H68.2298V56.8089H66.814V60.8015C66.814 61.2148 66.814 61.7448 67.7794 61.7448C67.8569 61.7448 68.0239 61.7192 68.2556 61.6925V62.5069C67.9081 62.5325 67.5606 62.6099 67.2132 62.6099C66.2095 62.6099 65.7591 62.1966 65.7591 61.447V56.8089H64.6908V56.0083H65.7591Z" fill="white"/>
<path d="M70.8785 60.5945C70.8785 61.2282 71.1873 61.7962 71.8951 61.7962C72.5388 61.7962 73.3367 61.3959 73.2338 59.2894C72.2297 59.3024 70.8785 59.212 70.8785 60.5945ZM73.2592 61.5896H73.2338C72.9117 62.3388 72.4101 62.6617 71.5989 62.6617C70.2223 62.6617 69.8232 61.7703 69.8232 60.5171C69.8232 58.5402 71.7535 58.4495 73.2338 58.4884C73.2592 57.6229 73.2721 56.6801 72.1397 56.6801C71.4318 56.6801 71.0585 57.1578 71.1231 57.8425H69.9777C70.029 56.3827 70.8014 55.879 72.178 55.879C73.8513 55.879 74.2887 56.7445 74.2887 57.8425V60.9819C74.2887 61.4992 74.3404 62.0284 74.4175 62.5325H73.2592V61.5896Z" fill="white"/>
<path d="M77.9322 53.2045H76.8768V62.5325H77.9322V53.2045Z" fill="white"/>
<path d="M83.9109 58.8113C83.9109 56.9122 83.383 56.6801 82.6106 56.6801C81.9415 56.6801 81.3882 57.003 81.3753 58.8113H83.9109ZM81.3753 59.6127C81.3753 61.4348 81.8644 61.7962 82.6885 61.7962C83.4089 61.7962 83.7822 61.2148 83.8205 60.556H84.9788C84.9659 62.0029 84.078 62.6617 82.7139 62.6617C81.3369 62.6617 80.2432 62.248 80.2432 59.3672C80.2432 57.4548 80.462 55.879 82.7139 55.879C84.5667 55.879 85.0304 56.8993 85.0304 59.0569V59.6127H81.3753Z" fill="white"/>
<path d="M91.0342 62.5325V53.2045H92.2179V61.4992H95.6281V62.5325H91.0342Z" fill="white"/>
<path d="M101.247 54.9095H100.037V53.5663H101.247V54.9095ZM100.874 58.9146C100.874 57.1322 100.32 56.7445 99.5099 56.7445C98.6991 56.7445 98.1458 57.1322 98.1458 58.9146C98.1458 61.0337 98.4158 61.7962 99.5099 61.7962C100.603 61.7962 100.874 61.0337 100.874 58.9146ZM98.982 54.9095H97.7725V53.5663H98.982V54.9095ZM97.0392 59.3672C97.0392 57.4548 97.2579 55.879 99.5099 55.879C101.762 55.879 101.981 57.4548 101.981 59.3672C101.981 62.248 100.886 62.6617 99.5099 62.6617C98.1325 62.6617 97.0392 62.248 97.0392 59.3672Z" fill="white"/>
<path d="M106.215 62.6617C104.812 62.6617 103.937 62.0414 103.975 60.543H105.172C105.172 60.9174 105.185 61.7962 106.253 61.7962C106.884 61.7962 107.373 61.4737 107.373 60.8015C107.373 59.6383 104.13 59.6127 104.13 57.6618C104.13 56.9767 104.542 55.879 106.369 55.879C107.527 55.879 108.518 56.4341 108.428 57.7262H107.257C107.27 57.0419 106.909 56.6801 106.24 56.6801C105.674 56.6801 105.237 56.99 105.237 57.5581C105.237 58.7084 108.48 58.6821 108.48 60.6723C108.48 62.1058 107.502 62.6617 106.215 62.6617Z" fill="white"/>
<path d="M114.129 56.0083H115.185V61.1759C115.185 61.6281 115.211 62.0803 115.249 62.5325H114.129V61.7448H114.091C113.744 62.3388 113.126 62.6617 112.444 62.6617C111.312 62.6617 110.694 62.0932 110.694 60.9818V56.0083H111.749V60.5297C111.749 61.3177 112.109 61.8481 112.855 61.8481C113.422 61.8481 114.129 61.4215 114.129 60.336V56.0083Z" fill="white"/>
<path d="M121.259 62.5325V58.0103C121.259 57.3126 121.015 56.7445 120.114 56.7445C118.956 56.7445 118.789 57.7781 118.789 58.6691V62.5325H117.733V57.3644C117.733 56.9122 117.707 56.4601 117.669 56.0083H118.789V56.8474H118.84C119.252 56.1108 119.741 55.879 120.577 55.879C121.968 55.879 122.314 56.7186 122.314 58.0103V62.5325H121.259Z" fill="white"/>
<path d="M127.013 56.7575C125.816 56.7575 125.777 58.2044 125.777 59.0702C125.777 61.163 126.254 61.654 127.039 61.654C128.312 61.654 128.273 60.1423 128.273 59.238C128.273 58.2692 128.338 56.7575 127.013 56.7575ZM128.248 56.0083H129.303V63.1917C129.303 64.6515 128.338 65 126.91 65C125.829 65 124.851 64.4571 124.94 63.2561H126.125C126.137 63.8635 126.536 64.1994 127.116 64.1994C127.849 64.1994 128.248 63.7472 128.248 63.0754V61.7192H128.21C127.939 62.2351 127.347 62.5325 126.781 62.5325C125.018 62.5325 124.671 61.0082 124.671 59.0702C124.671 56.0723 126.176 55.879 126.704 55.879C127.386 55.879 127.926 56.1756 128.223 56.8089H128.248V56.0083Z" fill="white"/>
<path d="M135.455 58.8113C135.455 56.9122 134.928 56.6801 134.155 56.6801C133.486 56.6801 132.933 57.003 132.92 58.8113H135.455ZM132.92 59.6127C132.92 61.4348 133.409 61.7962 134.232 61.7962C134.953 61.7962 135.326 61.2148 135.365 60.556H136.523C136.51 62.0029 135.622 62.6617 134.258 62.6617C132.881 62.6617 131.787 62.248 131.787 59.3672C131.787 57.4548 132.006 55.879 134.258 55.879C136.111 55.879 136.575 56.8993 136.575 59.0569V59.6127H132.92Z" fill="white"/>
<path d="M142.495 62.5325V58.0103C142.495 57.3126 142.251 56.7445 141.35 56.7445C140.191 56.7445 140.024 57.7781 140.024 58.6691V62.5325H138.969V57.3644C138.969 56.9122 138.943 56.4601 138.905 56.0083H140.024V56.8474H140.076C140.488 56.1108 140.977 55.879 141.813 55.879C143.203 55.879 143.55 56.7186 143.55 58.0103V62.5325H142.495Z" fill="white"/>
<path d="M152.779 16.5085H149.704V19.5959H152.779V16.5085Z" fill="white"/>
<path d="M146.629 31.943H143.555V35.0305H146.629V31.943Z" fill="white"/>
<path d="M143.555 19.5959H140.479V22.6826H143.555V19.5959Z" fill="white"/>
<path d="M140.48 16.5085H137.405V19.5959L140.479 19.5959L140.48 16.5085Z" fill="white"/>
<path d="M137.405 10.3339H134.33V13.4214H137.405V10.3339Z" fill="white"/>
<path d="M131.255 22.6822H128.181V25.7693H131.255V22.6822Z" fill="white"/>
<path d="M134.33 28.8564H131.255V31.9434H134.33V28.8564Z" fill="white"/>
<path d="M128.181 41.2039H125.106V44.2909H128.181V41.2039Z" fill="white"/>
<path d="M125.106 31.943H122.031V35.0305H125.106V31.943Z" fill="white"/>
<path d="M122.031 13.4214H118.957V16.5085H122.031V13.4214Z" fill="white"/>
</g>
<defs>
<clipPath id="clip0_1908_1162">
<rect width="153" height="55" fill="white" transform="translate(0 10)"/>
</clipPath>
</defs>
</svg>
