<svg width="151" height="75" viewBox="0 0 151 75" fill="none" xmlns="http://www.w3.org/2000/svg">
<path d="M11.1592 55.8902C4.71848 55.8902 0 50.4922 0 41.1826C0 31.8731 4.9261 26.6025 11.2111 26.6025C14.6698 26.6025 16.7129 27.65 17.7604 28.5371L16.4014 32.1562C15.3258 31.3194 13.9882 30.8914 12.6267 30.9483C8.28094 30.9483 6.44545 34.8788 6.44545 41.0647C6.44545 47.2506 8.59236 51.2802 12.5229 51.2802C13.9085 51.3349 15.2674 50.8875 16.3495 50.0204L17.8123 53.9509C16.661 54.9984 14.566 55.8902 11.1592 55.8902Z" fill="white"/>
<path d="M33.3739 30.5332C29.6557 30.5332 27.0888 33.5719 27.2398 40.3288L38.9228 38.5452C38.9228 32.8358 36.8797 30.5238 33.3691 30.5238M27.6079 43.5656C28.1316 48.8079 30.6466 51.4266 35.3084 51.4266C37.775 51.4815 40.2186 50.9426 42.4333 49.8554L43.9527 53.8897C41.9615 54.9891 38.9228 55.8809 34.6243 55.8809C26.6028 55.8809 21.5258 50.6906 21.5258 41.1545C21.5258 31.9346 26.1923 26.5933 33.5815 26.5933C41.0697 26.5933 45.1606 31.5713 44.9058 41.0554L27.6079 43.5656Z" fill="white"/>
<path d="M67.3799 55.3664V35.3506C67.3799 33.048 66.3277 30.6321 62.2981 30.6321C60.7917 30.5787 59.2912 30.8457 57.8957 31.4154V55.3617H51.5022V28.6456C54.1729 27.3858 57.7872 26.6025 62.5576 26.6025C70.9943 26.6025 73.7687 30.6887 73.7687 35.2468V55.3664H67.3799Z" fill="white"/>
<path d="M90.5288 55.6781C84.9752 55.6781 82.7717 51.9599 82.7717 48.0294V31.2128H79.6292V27.1266H82.7717V20.8934L89.1794 19.1099V27.1313H93.7893V31.2175H89.1794V47.7322C89.1794 49.931 90.0712 51.3984 92.2747 51.3984C92.7901 51.392 93.3012 51.3044 93.7893 51.1389V55.1213C92.7557 55.5248 91.6522 55.7189 90.543 55.6923" fill="white"/>
<path d="M112.272 31.3162C110.125 30.5849 107.765 30.6887 106.298 31.5239V55.3663H99.9044V28.6456C102.839 27.23 106.402 26.442 113.531 26.6544L112.272 31.3162Z" fill="white"/>
<path d="M126.521 42.0225H118.349V55.3663H126.521V42.0225Z" fill="white"/>
<path d="M126.521 27.1265H118.349V40.0598H126.521V27.1265Z" fill="white"/>
<path d="M144.287 38.6535C142.088 37.7098 140.672 36.6576 140.672 34.775C140.672 33.1518 141.772 31.8401 143.919 31.8401C145.472 31.8536 146.98 32.3683 148.217 33.3075L150.204 28.6456C148.005 27.282 145.594 26.6025 142.088 26.6025C136.426 26.6025 132.651 30.4811 132.651 35.2987C132.585 37.0285 133.156 38.7222 134.255 40.0597H147.028C146.153 39.5139 145.234 39.0404 144.282 38.6441" fill="white"/>
<path d="M138.992 43.1596C141.611 44.2071 142.607 45.2546 142.607 47.142C142.607 48.9209 141.191 50.2326 139.101 50.2326C137.293 50.2337 135.531 49.664 134.066 48.6047L131.971 53.7951C133.703 54.9464 136.793 55.8382 140.252 55.8382C146.957 55.8382 150.991 51.8558 150.991 46.9297C151.079 45.1491 150.5 43.3998 149.368 42.0225H136.657C137.404 42.4628 138.185 42.8431 138.992 43.1596Z" fill="white"/>
</svg>
