<svg width="61" height="26" viewBox="0 0 61 26" fill="none" xmlns="http://www.w3.org/2000/svg">
<g clip-path="url(#clip0_1891_8347)">
<path d="M33.1284 21.2393C31.1279 21.2393 29.1006 19.9304 27.6832 18.989C26.4215 18.0448 24.899 17.5125 23.3235 17.4648C21.7088 17.5276 20.139 18.0655 18.8382 19.0248C17.2325 20.0021 15.6357 21.1676 12.5588 21.1676C7.32897 21.1676 4.35074 17.5814 4.35074 12.5966C4.30536 11.5462 4.46759 10.4972 4.82813 9.50956C5.18868 8.52191 5.74047 7.61497 6.45196 6.8406C7.16346 6.06622 8.02069 5.43961 8.97466 4.99657C9.92863 4.55354 10.9606 4.30278 12.0116 4.25863C12.1462 4.24967 12.2897 4.24967 12.4243 4.24967C14.8284 4.12415 17.1876 4.94898 18.9997 6.53588L21.3949 3.12001C18.8831 1.02208 15.6985 -0.0806759 12.4243 1.37925e-05C5.65147 -0.0896414 0.0897059 5.31657 0 12.0855V12.5966C0 20.0738 5.12221 25.4173 12.5588 25.4173C15.0437 25.3904 17.4657 24.6642 19.5469 23.3104C20.74 22.5483 21.8703 21.6338 23.1351 21.6338C24.4 21.6338 25.0549 22.0731 26.6516 23.131C28.2484 24.189 30.3565 25.4173 32.7606 25.4173C35.1557 25.3993 37.4612 24.5207 39.2643 22.9428L36.896 19.8945C35.842 20.7795 34.5049 21.2568 33.1284 21.2393Z" fill="white"/>
<path d="M54.308 11.2159L51.6168 10.0952C49.4728 9.19863 48.1003 8.6069 48.1003 6.97518C48.1003 5.34345 49.6253 4.02552 52.451 4.02552C54.2272 4.07035 55.9406 4.69793 57.3221 5.81862L59.6455 2.6269C57.5011 0.915965 54.836 -0.010917 52.0922 3.85967e-06C47.4096 3.85967e-06 43.8841 3.04828 43.8841 7.26207C43.8841 10.6779 46.7188 12.5248 49.2665 13.6545L50.8633 14.3448C54.3887 15.869 55.9855 16.4428 55.9855 18.3345C55.9855 19.9303 54.4963 21.2752 51.6258 21.2752C48.3605 21.2752 46.0371 19.3117 44.0008 16.8462C41.166 13.5828 39.2374 11.9779 35.0302 10.7855C30.5449 9.54828 29.289 8.71449 29.289 6.97518C29.289 5.37035 30.814 4.02552 33.6487 4.02552C35.4249 4.07035 37.1293 4.7069 38.5108 5.81862L40.8431 2.6269C38.6902 0.914487 36.0259 -0.00896166 33.2719 3.85967e-06C28.5893 3.85967e-06 25.0638 3.04828 25.0638 7.26207C25.0638 12.0497 29.4594 13.5828 33.1374 14.6317C36.8153 15.6807 38.6274 16.7386 41.2109 20.2262C43.624 23.5166 47.4813 25.4441 51.563 25.4172C56.7928 25.4172 60.39 22.7276 60.39 18.2448C60.3362 15.6807 59.0265 13.2152 54.308 11.2159Z" fill="white"/>
</g>
<defs>
<clipPath id="clip0_1891_8347">
<rect width="61" height="26" fill="white"/>
</clipPath>
</defs>
</svg>
