<svg width="61" height="75" viewBox="0 0 61 75" fill="none" xmlns="http://www.w3.org/2000/svg">
<g clip-path="url(#clip0_1908_1169)">
<path d="M33.1284 45.7393C31.1279 45.7393 29.1006 44.4303 27.6832 43.489C26.4215 42.5448 24.899 42.0125 23.3235 41.9648C21.7088 42.0276 20.139 42.5655 18.8382 43.5248C17.2325 44.5021 15.6357 45.6676 12.5588 45.6676C7.32897 45.6676 4.35074 42.0814 4.35074 37.0966C4.30536 36.0462 4.46759 34.9972 4.82813 34.0095C5.18868 33.0219 5.74047 32.115 6.45196 31.3406C7.16346 30.5662 8.02069 29.9396 8.97466 29.4966C9.92863 29.0535 10.9606 28.8028 12.0116 28.7586C12.1462 28.7497 12.2897 28.7497 12.4243 28.7497C14.8284 28.6241 17.1876 29.449 18.9997 31.0359L21.3949 27.62C18.8831 25.5221 15.6985 24.4193 12.4243 24.5C5.65147 24.4103 0.0897059 29.8166 0 36.5855V37.0966C0 44.5738 5.12221 49.9172 12.5588 49.9172C15.0437 49.8903 17.4657 49.1641 19.5469 47.8103C20.74 47.0483 21.8703 46.1338 23.1351 46.1338C24.4 46.1338 25.0549 46.5731 26.6516 47.631C28.2484 48.689 30.3565 49.9172 32.7606 49.9172C35.1557 49.8993 37.4612 49.0207 39.2643 47.4428L36.896 44.3945C35.842 45.2795 34.5049 45.7568 33.1284 45.7393Z" fill="white"/>
<path d="M54.3079 35.7159L51.6168 34.5952C49.4728 33.6986 48.1003 33.1069 48.1003 31.4752C48.1003 29.8434 49.6253 28.5255 52.451 28.5255C54.2272 28.5703 55.9406 29.1979 57.3221 30.3186L59.6454 27.1269C57.5011 25.416 54.836 24.4891 52.0922 24.5C47.4096 24.5 43.8841 27.5483 43.8841 31.7621C43.8841 35.1779 46.7188 37.0248 49.2665 38.1545L50.8632 38.8448C54.3887 40.369 55.9854 40.9428 55.9854 42.8345C55.9854 44.4303 54.4963 45.7752 51.6257 45.7752C48.3604 45.7752 46.0371 43.8117 44.0007 41.3462C41.166 38.0828 39.2374 36.4779 35.0301 35.2855C30.5449 34.0483 29.289 33.2145 29.289 31.4752C29.289 29.8703 30.814 28.5255 33.6487 28.5255C35.4249 28.5703 37.1293 29.2069 38.5107 30.3186L40.8431 27.1269C38.6901 25.4145 36.0259 24.491 33.2719 24.5C28.5893 24.5 25.0638 27.5483 25.0638 31.7621C25.0638 36.5497 29.4594 38.0828 33.1374 39.1317C36.8153 40.1807 38.6274 41.2386 41.2109 44.7262C43.624 48.0166 47.4813 49.9441 51.5629 49.9172C56.7928 49.9172 60.39 47.2276 60.39 42.7448C60.3362 40.1807 59.0265 37.7152 54.3079 35.7159Z" fill="white"/>
</g>
<defs>
<clipPath id="clip0_1908_1169">
<rect width="61" height="26" fill="white" transform="translate(0 24.5)"/>
</clipPath>
</defs>
</svg>
