<svg width="106" height="75" viewBox="0 0 106 75" fill="none" xmlns="http://www.w3.org/2000/svg">
<g clip-path="url(#clip0_1908_1191)">
<path d="M39.4158 50.6961H34.2878V39.2446H31.1684V53.2559H39.4158V50.6961ZM52.3717 39.2446H49.2523V47.4911C49.2523 49.6799 48.3928 50.7742 46.6738 50.7742C44.9223 50.7742 44.0468 49.6408 44.0468 47.3739V39.2446H40.9179V47.3348C40.9179 51.445 42.7978 53.5003 46.5579 53.5003C50.4336 53.5003 52.3717 51.3962 52.3717 47.1881V39.2446ZM65.7693 50.6961H58.8064L65.75 41.0132V39.2446H55.1269V41.8144H61.7133L54.6149 51.4386V53.2559H65.7693V50.6961ZM76.8811 50.6961H71.6951V47.4911H76.2244V44.9313H71.6951V41.8144H76.5623V39.2446H68.5757V53.2559H76.8811V50.6961ZM89.0921 49.113C88.9568 48.8982 88.8071 48.6784 88.6429 48.4536C88.4787 48.2288 88.3063 48.0186 88.1263 47.8234C87.9459 47.6279 87.7593 47.4569 87.5661 47.3103C87.3729 47.1637 87.1733 47.058 86.9674 46.9929V46.9539C87.4372 46.817 87.8637 46.6283 88.2468 46.3871C88.6299 46.1463 88.9568 45.8595 89.2271 45.5272C89.4976 45.1949 89.7068 44.8222 89.855 44.4084C90.0029 43.9948 90.0769 43.5437 90.0769 43.0553C90.0769 40.5148 88.3966 39.2446 85.0359 39.2446H80.0912V53.2559H83.2106V47.8919H84.0508C84.244 47.8919 84.4227 47.9325 84.5867 48.0138C84.7509 48.0955 84.9085 48.2125 85.06 48.3656C85.2113 48.5186 85.3608 48.7028 85.509 48.9178C85.6572 49.1326 85.8115 49.3769 85.9726 49.6506L88.1263 53.2559H91.7092L89.0921 49.113ZM84.6205 41.6092C86.0692 41.6092 86.7935 42.2215 86.7935 43.446C86.7935 44.0324 86.5873 44.5242 86.1755 44.9215C85.7698 45.3122 85.2321 45.5077 84.5625 45.5077H83.2106V41.6092H84.6205ZM105.946 39.2446H103.001V46.9929C103.001 47.9504 103.026 48.592 103.078 48.9178H103.039C102.827 48.54 102.595 48.1588 102.344 47.7746L96.8491 39.2446H93.4881V53.2559H96.4337V45.5565C96.4337 44.5404 96.408 43.7849 96.3564 43.2898H96.3951C96.5239 43.5503 96.7555 43.938 97.0905 44.4524L102.798 53.2559H105.946V39.2446Z" fill="white"/>
<path d="M34.452 28.4577L40.3914 21.7354H38.373L33.1965 27.8422C33.0419 28.0182 32.9196 28.1779 32.8296 28.3209H32.791V21.7354H31.1684V35.7467H32.791V28.8486H32.8296C32.8744 28.9333 32.9969 29.0963 33.1965 29.3371L38.5466 35.7467H40.8066L34.452 28.4577ZM48.2621 21.7354H46.5818L41.2702 35.7467H43.0762L44.4571 31.8189H50.3289L51.7967 35.7467H53.593L48.2621 21.7354ZM44.998 30.3435L47.1515 24.3737C47.2351 24.1456 47.3091 23.8331 47.3737 23.4357H47.4123C47.483 23.8655 47.5539 24.178 47.6248 24.3737L49.7976 30.3435H44.998ZM66.7948 21.7354H65.1724V31.604C65.1724 32.5746 65.2044 33.2617 65.269 33.6656H65.2303C65.1465 33.4963 64.9599 33.1836 64.6701 32.7275L57.7361 21.7354H55.6308V35.7467H57.2531V25.6242C57.2531 24.6407 57.2275 23.999 57.1759 23.6994H57.2338C57.3497 24.0057 57.4979 24.2989 57.6782 24.5787L64.8053 35.7467H66.7948V21.7354ZM78.4402 21.7354H68.8312V23.2207H72.8196V35.7467H74.4422V23.2207H78.4402V21.7354ZM90.2624 33.988C91.46 32.6592 92.0587 30.8515 92.0587 28.5652C92.0587 26.4614 91.4745 24.758 90.3059 23.455C89.1373 22.1523 87.597 21.5009 85.6848 21.5009C83.6117 21.5009 81.9731 22.1719 80.7691 23.5137C79.5652 24.8557 78.9632 26.6535 78.9632 28.9073C78.9632 31.0047 79.5537 32.708 80.7353 34.0173C81.9166 35.3266 83.4892 35.9812 85.453 35.9812C87.4618 35.9812 89.0648 35.3168 90.2624 33.988ZM89.0842 24.5005C89.934 25.5105 90.359 26.94 90.359 28.79C90.359 30.5945 89.9211 31.9981 89.0455 33.0011C88.17 34.0044 86.9724 34.5059 85.453 34.5059C84.0302 34.5059 82.876 33.9799 81.9908 32.9279C81.1054 31.876 80.6629 30.487 80.6629 28.7607C80.6629 27.0346 81.1169 25.6407 82.0246 24.5787C82.9324 23.517 84.1138 22.9862 85.5689 22.9862C87.0624 22.9862 88.2343 23.491 89.0842 24.5005ZM105.946 21.7354H104.324V31.604C104.324 32.5746 104.356 33.2617 104.42 33.6656H104.382C104.298 33.4963 104.111 33.1836 103.822 32.7275L96.8875 21.7354H94.7821V35.7467H96.4045V25.6242C96.4045 24.6407 96.3788 23.999 96.3274 23.6994H96.3854C96.5011 24.0057 96.6493 24.2989 96.8295 24.5787L103.957 35.7467H105.946V21.7354Z" fill="white"/>
<path d="M0.0526123 21.7459V53.2268H15.6107V21.7459H0.0526123Z" fill="white"/>
</g>
<defs>
<clipPath id="clip0_1908_1191">
<rect width="106" height="32" fill="white" transform="translate(0 21.5)"/>
</clipPath>
</defs>
</svg>
