<svg width="106" height="32" viewBox="0 0 106 32" fill="none" xmlns="http://www.w3.org/2000/svg">
<g clip-path="url(#clip0_1891_8358)">
<path d="M39.4158 29.1961H34.2878V17.7446H31.1684V31.7559H39.4158V29.1961ZM52.3717 17.7446H49.2523V25.9911C49.2523 28.1799 48.3928 29.2742 46.6738 29.2742C44.9223 29.2742 44.0468 28.1408 44.0468 25.8739V17.7446H40.9179V25.8348C40.9179 29.945 42.7978 32.0003 46.5579 32.0003C50.4336 32.0003 52.3717 29.8962 52.3717 25.6881V17.7446ZM65.7693 29.1961H58.8064L65.75 19.5132V17.7446H55.1269V20.3144H61.7133L54.6149 29.9386V31.7559H65.7693V29.1961ZM76.8811 29.1961H71.6951V25.9911H76.2244V23.4313H71.6951V20.3144H76.5623V17.7446H68.5757V31.7559H76.8811V29.1961ZM89.0921 27.613C88.9568 27.3982 88.8071 27.1784 88.6429 26.9536C88.4787 26.7288 88.3063 26.5186 88.1263 26.3234C87.9459 26.1279 87.7593 25.9569 87.5661 25.8103C87.3729 25.6637 87.1733 25.558 86.9674 25.4929V25.4539C87.4372 25.317 87.8637 25.1283 88.2468 24.8871C88.6299 24.6463 88.9568 24.3595 89.2271 24.0272C89.4976 23.6949 89.7068 23.3222 89.855 22.9084C90.0029 22.4948 90.0769 22.0437 90.0769 21.5553C90.0769 19.0148 88.3966 17.7446 85.0359 17.7446H80.0912V31.7559H83.2106V26.3919H84.0508C84.244 26.3919 84.4227 26.4325 84.5867 26.5138C84.7509 26.5955 84.9085 26.7125 85.06 26.8656C85.2113 27.0186 85.3608 27.2028 85.509 27.4178C85.6572 27.6326 85.8115 27.8769 85.9726 28.1506L88.1263 31.7559H91.7092L89.0921 27.613ZM84.6205 20.1092C86.0692 20.1092 86.7935 20.7215 86.7935 21.946C86.7935 22.5324 86.5873 23.0242 86.1755 23.4215C85.7698 23.8122 85.2321 24.0077 84.5625 24.0077H83.2106V20.1092H84.6205ZM105.946 17.7446H103.001V25.4929C103.001 26.4504 103.026 27.092 103.078 27.4178H103.039C102.827 27.04 102.595 26.6588 102.344 26.2746L96.8491 17.7446H93.4881V31.7559H96.4337V24.0565C96.4337 23.0404 96.408 22.2849 96.3564 21.7898H96.3951C96.5239 22.0503 96.7555 22.438 97.0905 22.9524L102.798 31.7559H105.946V17.7446Z" fill="white"/>
<path d="M34.452 6.95773L40.3914 0.235439H38.373L33.1965 6.34225C33.0419 6.51816 32.9196 6.67786 32.8296 6.82091H32.791V0.235439H31.1684V14.2467H32.791V7.34865H32.8296C32.8744 7.43327 32.9969 7.59631 33.1965 7.83708L38.5466 14.2467H40.8066L34.452 6.95773ZM48.2621 0.235439H46.5818L41.2702 14.2467H43.0762L44.4571 10.3189H50.3289L51.7967 14.2467H53.593L48.2621 0.235439ZM44.998 8.84348L47.1515 2.87371C47.2351 2.6456 47.3091 2.33308 47.3737 1.93572H47.4123C47.483 2.36551 47.5539 2.67803 47.6248 2.87371L49.7976 8.84348H44.998ZM66.7948 0.235439H65.1724V10.104C65.1724 11.0746 65.2044 11.7617 65.269 12.1656H65.2303C65.1465 11.9963 64.9599 11.6836 64.6701 11.2275L57.7361 0.235439H55.6308V14.2467H57.2531V4.12421C57.2531 3.14069 57.2275 2.499 57.1759 2.19937H57.2338C57.3497 2.50567 57.4979 2.79886 57.6782 3.07872L64.8053 14.2467H66.7948V0.235439ZM78.4402 0.235439H68.8312V1.72072H72.8196V14.2467H74.4422V1.72072H78.4402V0.235439ZM90.2624 12.488C91.46 11.1592 92.0587 9.35145 92.0587 7.06523C92.0587 4.96136 91.4745 3.25797 90.3059 1.95505C89.1373 0.652346 87.597 0.00088501 85.6848 0.00088501C83.6117 0.00088501 81.9731 0.671892 80.7691 2.01368C79.5652 3.3557 78.9632 5.15349 78.9632 7.40729C78.9632 9.50471 79.5537 11.208 80.7353 12.5173C81.9166 13.8266 83.4892 14.4812 85.453 14.4812C87.4618 14.4812 89.0648 13.8168 90.2624 12.488ZM89.0842 3.00054C89.934 4.01049 90.359 5.44002 90.359 7.29001C90.359 9.09447 89.9211 10.4981 89.0455 11.5011C88.17 12.5044 86.9724 13.0059 85.453 13.0059C84.0302 13.0059 82.876 12.4799 81.9908 11.4279C81.1054 10.376 80.6629 8.98696 80.6629 7.26069C80.6629 5.53464 81.1169 4.14065 82.0246 3.07872C82.9324 2.01702 84.1138 1.48616 85.5689 1.48616C87.0624 1.48616 88.2343 1.99103 89.0842 3.00054ZM105.946 0.235439H104.324V10.104C104.324 11.0746 104.356 11.7617 104.42 12.1656H104.382C104.298 11.9963 104.111 11.6836 103.822 11.2275L96.8875 0.235439H94.7821V14.2467H96.4045V4.12421C96.4045 3.14069 96.3788 2.499 96.3274 2.19937H96.3854C96.5011 2.50567 96.6493 2.79886 96.8295 3.07872L103.957 14.2467H105.946V0.235439Z" fill="white"/>
<path d="M0.0526123 0.245876V31.7268H15.6107V0.245876H0.0526123Z" fill="white"/>
</g>
<defs>
<clipPath id="clip0_1891_8358">
<rect width="106" height="32" fill="white"/>
</clipPath>
</defs>
</svg>
