<svg width="136" height="75" viewBox="0 0 136 75" fill="none" xmlns="http://www.w3.org/2000/svg">
<g clip-path="url(#clip0_1908_1209)">
<path d="M28.1855 32.7671C28.1561 32.0004 28.0975 31.3812 28.0095 30.9094C27.9215 30.4081 27.7749 30.0247 27.5695 29.7298C27.3642 29.435 27.1589 29.2285 26.8656 29.1106C26.6017 28.9926 26.2791 28.9337 25.9271 28.9337C25.0766 28.9337 24.4606 29.2285 24.1087 29.7888C23.7567 30.3491 23.5221 31.3517 23.4634 32.7671H28.1855ZM23.4634 35.3031C23.5221 35.9814 23.6394 36.5121 23.8447 36.925C24.05 37.3378 24.2847 37.6327 24.578 37.8686C24.8713 38.1045 25.1645 38.252 25.5165 38.3109C25.8391 38.3994 26.1911 38.4289 26.5137 38.4289C27.0123 38.4289 27.5402 38.3994 28.0975 38.3109C28.6547 38.2225 29.1533 38.134 29.6226 38.0455C30.1505 37.9276 30.6785 37.7801 31.1771 37.6327V40.8469C30.7371 40.9944 30.2678 41.1418 29.7692 41.2598C29.3293 41.3482 28.8307 41.4367 28.2735 41.5252C27.7162 41.6136 27.1296 41.6431 26.5137 41.6431C25.7218 41.6431 24.9006 41.5546 24.0794 41.3777C23.2288 41.2008 22.4956 40.8469 21.7917 40.3161C21.1171 39.7853 20.5598 39.0186 20.0906 37.9866C19.6506 36.984 19.416 35.6275 19.416 33.9467C19.416 32.4428 19.6213 31.1748 20.0026 30.2016C20.3839 29.199 20.8825 28.4323 21.5277 27.8426C22.1436 27.2528 22.8475 26.8695 23.6101 26.6336C24.3727 26.3977 25.1352 26.2797 25.9271 26.2797C26.631 26.2797 27.3642 26.3682 28.0975 26.5746C28.8307 26.781 29.5053 27.1644 30.0919 27.7246C30.6785 28.2849 31.1477 29.0811 31.529 30.0837C31.9103 31.0863 32.0863 32.3838 32.0863 33.9761V35.3031H23.4634Z" fill="white"/>
<path d="M44.7858 41.3777L41.9409 36.4532L39.1546 41.3777H33.7287V38.6353H35.9577L39.1546 33.5338L36.3683 29.317H34.022V26.5746H39.5652L41.9409 30.9389L44.3752 26.5746H49.8305V29.317H47.5135L44.7272 33.5338L47.8948 38.6353H50.1238V41.3777H44.7858Z" fill="white"/>
<path d="M63.6739 33.8877C63.6739 32.8261 63.6153 32.0004 63.4979 31.3812C63.3806 30.7619 63.2047 30.3196 62.9407 29.9952C62.7061 29.7003 62.4128 29.4939 62.0608 29.4055C61.7382 29.317 61.3569 29.2875 60.917 29.2875C60.653 29.2875 60.3597 29.3465 60.0664 29.435C59.7731 29.5234 59.5092 29.6414 59.2745 29.7298C58.9812 29.8773 58.7173 30.0247 58.4533 30.1722V38.3109C58.7173 38.3994 59.0106 38.4584 59.3039 38.5173C59.5678 38.5763 59.8318 38.6353 60.0957 38.6648C60.3597 38.6943 60.653 38.7238 60.8876 38.7238C61.2103 38.7238 61.5329 38.6648 61.8848 38.5763C62.2075 38.4879 62.5301 38.2814 62.7647 37.9276C63.0287 37.6032 63.234 37.1019 63.41 36.4827C63.5859 35.8634 63.6739 35.0082 63.6739 33.8877ZM67.7214 33.8877C67.7214 35.0377 67.6041 36.0403 67.3987 36.8955C67.1934 37.7506 66.9001 38.4584 66.5482 39.0186C66.1962 39.6084 65.7856 40.0507 65.3164 40.4046C64.8764 40.7585 64.3778 41.0238 63.8792 41.2008C63.3806 41.3777 62.882 41.4957 62.4128 41.5546C61.9435 41.6136 61.5036 41.6431 61.0929 41.6431C60.7703 41.6431 60.4477 41.6136 60.1544 41.5841C59.8611 41.5252 59.5972 41.4957 59.3332 41.4367C59.0399 41.3482 58.7759 41.2892 58.4826 41.2008V44.1496H61.0636V46.8625H51.8249V44.1496H54.4059V29.317H51.8249V26.6041H58.16L58.4533 27.7246C58.7173 27.4887 59.0106 27.2528 59.3332 27.0169C59.6265 26.84 59.9784 26.6925 60.3597 26.5156C60.7703 26.3682 61.2396 26.2797 61.7382 26.2797C62.3834 26.2797 63.0287 26.3387 63.7326 26.4861C64.4365 26.6336 65.0524 26.9579 65.639 27.4592C66.2256 27.9605 66.6948 28.7272 67.0761 29.7298C67.5161 30.7914 67.7214 32.1479 67.7214 33.8877Z" fill="white"/>
<path d="M68.7772 41.3777V38.6353H71.3582V23.2129H68.7772V20.5H75.4056V38.6353H77.9866V41.3777H68.7772Z" fill="white"/>
<path d="M88.8385 33.9761C88.8385 32.8851 88.7505 32.0004 88.6038 31.3812C88.4572 30.7324 88.2519 30.2606 87.9586 29.9363C87.6946 29.6119 87.372 29.4055 87.0201 29.317C86.6681 29.2285 86.2868 29.199 85.8762 29.199C85.4656 29.199 85.0843 29.258 84.7324 29.3465C84.3804 29.4644 84.0578 29.6709 83.7938 30.0247C83.5299 30.3491 83.3246 30.8504 83.1486 31.4696C83.0019 32.0889 82.914 32.9441 82.914 34.0056C82.914 35.0377 83.0019 35.8929 83.1779 36.5121C83.3539 37.1314 83.5885 37.6327 83.8818 37.9571C84.1751 38.2814 84.4977 38.5173 84.8204 38.6353C85.1723 38.7533 85.4949 38.7827 85.8176 38.7827C86.1402 38.7827 86.4921 38.7238 86.8147 38.6353C87.1667 38.5468 87.4893 38.3109 87.7533 37.9866C88.0466 37.6622 88.2812 37.1609 88.4572 36.5416C88.7505 35.8929 88.8385 35.0377 88.8385 33.9761ZM92.8566 33.9761C92.8566 35.6275 92.6219 36.984 92.182 37.9866C91.7421 38.9892 91.1848 39.7559 90.4809 40.3161C89.8063 40.8764 89.0438 41.2303 88.2225 41.4072C87.4013 41.5841 86.6094 41.6726 85.8469 41.6726C85.0843 41.6726 84.2924 41.5841 83.4419 41.3777C82.6207 41.1713 81.8581 40.8174 81.1835 40.2572C80.5089 39.6969 79.9517 38.9302 79.5118 37.9276C79.0718 36.925 78.8372 35.598 78.8372 33.9761C78.8372 32.3838 79.0425 31.1158 79.4824 30.1132C79.893 29.1106 80.4503 28.3439 81.1249 27.7836C81.7994 27.2233 82.5327 26.84 83.3832 26.6336C84.2044 26.4271 85.0257 26.3092 85.8469 26.3092C86.6388 26.3092 87.4307 26.3977 88.2812 26.6041C89.1024 26.8105 89.865 27.1644 90.5396 27.7246C91.2141 28.2849 91.7714 29.0516 92.2113 30.0542C92.6513 31.0568 92.8566 32.3543 92.8566 33.9761Z" fill="white"/>
<path d="M105.204 30.2606C104.999 30.2311 104.823 30.1722 104.588 30.1427C104.412 30.1132 104.236 30.0837 104.031 30.0542C103.826 30.0247 103.62 30.0247 103.444 30.0247C102.858 30.0247 102.33 30.1427 101.919 30.4081C101.509 30.6735 101.157 30.8799 100.951 31.1158V38.6648H104.119V41.3777H94.323V38.6648H96.904V29.317H94.323V26.6041H100.658L100.951 28.3144C101.039 28.108 101.127 27.9016 101.274 27.6657C101.421 27.4297 101.567 27.2233 101.802 27.0169C102.007 26.8105 102.271 26.6336 102.594 26.5156C102.887 26.3682 103.268 26.3092 103.679 26.3092C103.914 26.3092 104.119 26.3092 104.324 26.3387C104.53 26.3682 104.676 26.3977 104.823 26.4271C104.97 26.4566 105.116 26.5156 105.263 26.5451V30.2606H105.204Z" fill="white"/>
<path d="M115.763 32.7671C115.733 32.0004 115.675 31.3812 115.587 30.9094C115.499 30.4081 115.352 30.0247 115.147 29.7298C114.942 29.435 114.736 29.2285 114.443 29.1106C114.179 28.9926 113.856 28.9337 113.504 28.9337C112.654 28.9337 112.038 29.2285 111.686 29.7888C111.334 30.3491 111.099 31.3517 111.041 32.7671H115.763ZM111.011 35.3031C111.07 35.9814 111.187 36.5121 111.393 36.925C111.598 37.3378 111.833 37.6327 112.126 37.8686C112.419 38.1045 112.713 38.252 113.064 38.3109C113.387 38.3994 113.739 38.4289 114.062 38.4289C114.56 38.4289 115.088 38.3994 115.645 38.3109C116.203 38.2225 116.701 38.134 117.171 38.0455C117.699 37.9276 118.226 37.7801 118.725 37.6327V40.8469C118.285 40.9944 117.816 41.1418 117.317 41.2598C116.877 41.3482 116.379 41.4367 115.821 41.5252C115.264 41.6136 114.678 41.6431 114.062 41.6431C113.27 41.6431 112.449 41.5546 111.627 41.3777C110.777 41.2008 110.044 40.8469 109.34 40.3161C108.665 39.7853 108.108 39.0186 107.639 37.9866C107.199 36.984 106.964 35.6275 106.964 33.9467C106.964 32.4428 107.169 31.1748 107.551 30.2016C107.932 29.199 108.43 28.4323 109.076 27.8426C109.692 27.2528 110.396 26.8695 111.158 26.6336C111.921 26.3977 112.683 26.2797 113.475 26.2797C114.179 26.2797 114.912 26.3682 115.645 26.5746C116.379 26.781 117.053 27.1644 117.64 27.7246C118.226 28.2849 118.696 29.0811 119.077 30.0837C119.458 31.0863 119.634 32.3838 119.634 33.9761V35.3031H111.011Z" fill="white"/>
<path d="M74.9364 49.1626L74.3205 52.7307H73.4992L74.1445 49.1331C74.1738 49.0447 74.1738 48.9562 74.1738 48.8677C74.1738 48.6023 74.0858 48.4549 73.7925 48.4549C73.2059 48.4549 72.6194 49.1921 72.2967 49.6344C72.2674 49.6639 72.1501 49.8703 72.1501 49.8998L71.6515 52.7602H70.8303L71.4755 49.0447C71.4755 48.9857 71.5048 48.9267 71.5048 48.8382C71.5048 48.5729 71.3875 48.4549 71.1236 48.4549C70.5077 48.4549 69.9504 49.1626 69.6278 49.6344C69.5984 49.6639 69.4811 49.8703 69.4811 49.8998L68.9825 52.7602H68.1613L69.0119 47.8062H69.7158L69.6571 48.9857C69.9797 48.3369 70.6543 47.7177 71.3875 47.7177C72.0328 47.7177 72.3554 48.0715 72.3554 48.7203C72.3554 48.8088 72.3554 48.8972 72.3261 48.9857C72.678 48.3369 73.2646 47.7177 74.0565 47.7177C74.7017 47.7177 75.0244 48.101 75.0244 48.7203C74.995 48.8677 74.9657 49.0152 74.9364 49.1626Z" fill="white"/>
<path d="M77.6347 47.0395C77.3414 47.0395 77.0774 46.7741 77.0774 46.4792C77.0774 46.1843 77.3121 45.9189 77.6347 45.9189C77.928 45.9189 78.1919 46.1843 78.1919 46.4792C78.1919 46.8036 77.928 47.0395 77.6347 47.0395ZM76.9601 52.7307H76.1389L76.9894 47.7767H77.8106L76.9601 52.7307Z" fill="white"/>
<path d="M81.7701 48.7203C81.5061 48.6023 81.0369 48.4254 80.6263 48.4254C80.1863 48.4254 79.7757 48.6023 79.7757 49.1036C79.7757 49.5165 80.069 49.6934 80.2743 49.7819L80.7729 50.0768C81.1835 50.3127 81.5355 50.6665 81.5355 51.2858C81.5355 52.3768 80.8609 52.8192 79.9517 52.8192C79.3944 52.8192 78.8665 52.6422 78.4559 52.4653L78.5732 51.7576C78.9838 51.9345 79.5411 52.1114 79.9224 52.1114C80.421 52.1114 80.7143 51.8755 80.7143 51.4332C80.7143 51.0204 80.5676 50.8435 80.2743 50.696L79.805 50.4306C79.4238 50.1947 78.9252 49.8114 78.9252 49.1331C78.9252 48.0716 79.8344 47.7177 80.6263 47.7177C81.0955 47.7177 81.5355 47.8651 81.8288 48.0716L81.7701 48.7203Z" fill="white"/>
<path d="M85.6122 48.7203C85.3483 48.6023 84.879 48.4254 84.4684 48.4254C84.0285 48.4254 83.6179 48.6023 83.6179 49.1036C83.6179 49.5165 83.9111 49.6934 84.1164 49.7819L84.615 50.0768C85.0257 50.3127 85.3776 50.6665 85.3776 51.2858C85.3776 52.3768 84.703 52.8192 83.7938 52.8192C83.2366 52.8192 82.7086 52.6422 82.298 52.4653L82.4153 51.7576C82.826 51.9345 83.3832 52.1114 83.7645 52.1114C84.2631 52.1114 84.5564 51.8755 84.5564 51.4332C84.5564 51.0204 84.4097 50.8435 84.1164 50.696L83.6472 50.4306C83.2659 50.1947 82.7673 49.8114 82.7673 49.1331C82.7673 48.0716 83.6765 47.7177 84.4684 47.7177C84.9377 47.7177 85.3776 47.8651 85.6709 48.0716L85.6122 48.7203Z" fill="white"/>
<path d="M87.9879 47.0395C87.6946 47.0395 87.4307 46.7741 87.4307 46.4792C87.4307 46.1843 87.6653 45.9189 87.9879 45.9189C88.2812 45.9189 88.5452 46.1843 88.5452 46.4792C88.5452 46.8036 88.3105 47.0395 87.9879 47.0395ZM87.3133 52.7307H86.4921L87.3427 47.7767H88.1639L87.3133 52.7307Z" fill="white"/>
<path d="M91.5368 48.3369C90.7155 48.3369 90.0116 49.3985 90.0116 50.9319C90.0116 51.8166 90.3636 52.1704 90.8915 52.1704C91.7127 52.1704 92.446 50.9909 92.446 49.5165C92.4166 48.6613 92.1527 48.3369 91.5368 48.3369ZM90.8329 52.8192C89.953 52.8192 89.1318 52.4063 89.1318 50.9319C89.1318 49.0152 90.1583 47.6882 91.5368 47.6882C92.358 47.6882 93.2379 48.101 93.2379 49.5755C93.2672 51.4627 92.27 52.8192 90.8329 52.8192Z" fill="white"/>
<path d="M98.6931 49.1626L98.0772 52.7307H97.256L97.9012 49.1331C97.9305 49.0447 97.9306 48.9857 97.9306 48.8972C97.9306 48.5729 97.7253 48.4549 97.432 48.4549C96.7574 48.4549 95.9948 49.3395 95.6429 49.8703L95.1443 52.7307H94.323L95.1736 47.7767H95.8775L95.8188 48.9562C96.2001 48.3369 96.9627 47.6882 97.6959 47.6882C98.3998 47.6882 98.7811 48.0421 98.7811 48.7498C98.7224 48.9267 98.7224 49.0447 98.6931 49.1626Z" fill="white"/>
<path d="M105.38 48.3959C104.852 48.3959 104.266 49.1626 103.943 49.7524L103.562 51.9345C103.796 52.023 104.207 52.1704 104.5 52.1704C105.527 52.1704 106.113 50.755 106.113 49.487C106.055 48.7498 105.879 48.3959 105.38 48.3959ZM104.559 52.8192C104.031 52.8192 103.679 52.6717 103.415 52.5538L103.063 54.5H102.242L103.415 47.7767H104.119L104.09 48.7203C104.295 48.2485 104.794 47.6882 105.586 47.6882C106.289 47.6882 106.905 48.16 106.905 49.428C106.905 51.2563 106.025 52.8192 104.559 52.8192Z" fill="white"/>
<path d="M110.308 48.3369C109.486 48.3369 108.782 49.3985 108.782 50.9319C108.782 51.8166 109.134 52.1704 109.662 52.1704C110.483 52.1704 111.217 50.9909 111.217 49.5165C111.187 48.6613 110.923 48.3369 110.308 48.3369ZM109.604 52.8192C108.724 52.8192 107.903 52.4063 107.903 50.9319C107.903 49.0152 108.929 47.6882 110.308 47.6882C111.129 47.6882 112.009 48.101 112.009 49.5755C112.038 51.4627 111.041 52.8192 109.604 52.8192Z" fill="white"/>
<path d="M116.056 48.7203C115.792 48.6023 115.323 48.4254 114.912 48.4254C114.472 48.4254 114.062 48.6023 114.062 49.1036C114.062 49.5165 114.355 49.6934 114.56 49.7819L115.059 50.0768C115.469 50.3127 115.821 50.6665 115.821 51.2858C115.821 52.3768 115.147 52.8192 114.238 52.8192C113.68 52.8192 113.152 52.6422 112.742 52.4653L112.859 51.7576C113.27 51.9345 113.827 52.1114 114.208 52.1114C114.707 52.1114 115 51.8755 115 51.4332C115 51.0204 114.854 50.8435 114.56 50.696L114.091 50.4306C113.71 50.1947 113.211 49.8114 113.211 49.1331C113.211 48.0716 114.12 47.7177 114.912 47.7177C115.381 47.7177 115.821 47.8651 116.115 48.0716L116.056 48.7203Z" fill="white"/>
<path d="M119.898 48.7203C119.634 48.6023 119.165 48.4254 118.754 48.4254C118.314 48.4254 117.904 48.6023 117.904 49.1036C117.904 49.5165 118.197 49.6934 118.402 49.7819L118.901 50.0768C119.312 50.3127 119.664 50.6665 119.664 51.2858C119.664 52.3768 118.989 52.8192 118.08 52.8192C117.523 52.8192 116.995 52.6422 116.584 52.4653L116.701 51.7576C117.112 51.9345 117.669 52.1114 118.05 52.1114C118.549 52.1114 118.842 51.8755 118.842 51.4332C118.842 51.0204 118.696 50.8435 118.402 50.696L117.933 50.4306C117.552 50.1947 117.053 49.8114 117.053 49.1331C117.053 48.0716 117.962 47.7177 118.784 47.7177C119.253 47.7177 119.693 47.8651 119.986 48.0716L119.898 48.7203Z" fill="white"/>
<path d="M122.274 47.0395C121.981 47.0395 121.717 46.7741 121.717 46.4792C121.717 46.1843 121.951 45.9189 122.274 45.9189C122.567 45.9189 122.831 46.1843 122.831 46.4792C122.831 46.8036 122.567 47.0395 122.274 47.0395ZM121.599 52.7307H120.778L121.629 47.7767H122.45L121.599 52.7307Z" fill="white"/>
<path d="M126.204 48.3959C125.735 48.3959 125.148 49.0447 124.767 49.7524L124.356 52.0525C124.562 52.1114 124.767 52.1409 125.06 52.1409C126.439 52.1409 126.908 50.6075 126.908 49.4575C126.908 48.7498 126.703 48.3959 126.204 48.3959ZM125.089 52.8192C124.474 52.8192 123.887 52.6717 123.447 52.5243L124.591 46.0074H125.412L124.943 48.7203C125.177 48.2485 125.676 47.6882 126.409 47.6882C127.113 47.6882 127.729 48.16 127.729 49.428C127.729 51.1678 126.908 52.8192 125.089 52.8192Z" fill="white"/>
<path d="M129.577 52.7307H128.726L129.929 46.0369H130.75L129.577 52.7307Z" fill="white"/>
<path d="M133.654 48.3369C133.008 48.3369 132.451 49.1921 132.305 50.3421C133.184 50.3127 134.358 50.2537 134.358 49.1331C134.358 48.5729 134.182 48.3369 133.654 48.3369ZM132.275 50.9319C132.275 51.8166 132.48 52.1114 133.155 52.1114C133.536 52.1114 134.064 51.9345 134.563 51.6691L134.416 52.4948C134.035 52.6717 133.478 52.8192 133.038 52.8192C132.246 52.8192 131.454 52.4653 131.454 51.0794C131.454 49.0447 132.451 47.7177 133.742 47.7177C134.592 47.7177 135.179 48.16 135.179 49.1036C135.179 50.637 133.566 50.9024 132.275 50.9319Z" fill="white"/>
<path d="M9.23873 38.6353H0V41.3482H9.23873V38.6353Z" fill="white"/>
<path d="M15.8672 38.6353V30.8799C15.8672 30.0247 15.7792 29.317 15.5739 28.7272C15.3686 28.1375 15.0753 27.6657 14.7233 27.3118C14.342 26.9579 13.9021 26.6925 13.3742 26.5156C12.8462 26.3682 12.289 26.2797 11.6437 26.2797C10.9398 26.2797 10.2946 26.3682 9.67867 26.5746C9.06276 26.781 8.53483 26.9874 8.09489 27.2233C7.56696 27.4887 7.09769 27.8131 6.65775 28.1375L6.36446 26.5451H0V29.258H2.58098V36.0993H6.62842V30.7619C6.98037 30.5555 7.33233 30.3786 7.71361 30.2016C8.03623 30.0542 8.41751 29.9363 8.82812 29.8183C9.23873 29.7003 9.64934 29.6414 10.0893 29.6414C10.7639 29.6414 11.2038 29.7298 11.4678 29.9363C11.7024 30.1427 11.8197 30.526 11.8197 31.0863V41.3482H18.4481V38.6353H15.8672Z" fill="white"/>
</g>
<defs>
<clipPath id="clip0_1908_1209">
<rect width="136" height="34" fill="white" transform="translate(0 20.5)"/>
</clipPath>
</defs>
</svg>
