<svg width="136" height="34" viewBox="0 0 136 34" fill="none" xmlns="http://www.w3.org/2000/svg">
<g clip-path="url(#clip0_1891_8364)">
<path d="M28.1855 12.2671C28.1561 11.5004 28.0975 10.8812 28.0095 10.4094C27.9215 9.90806 27.7749 9.52472 27.5695 9.22983C27.3642 8.93495 27.1589 8.72853 26.8656 8.61058C26.6017 8.49263 26.2791 8.43365 25.9271 8.43365C25.0766 8.43365 24.4606 8.72853 24.1087 9.28881C23.7567 9.84909 23.5221 10.8517 23.4634 12.2671H28.1855ZM23.4634 14.8031C23.5221 15.4814 23.6394 16.0121 23.8447 16.425C24.05 16.8378 24.2847 17.1327 24.578 17.3686C24.8713 17.6045 25.1645 17.752 25.5165 17.8109C25.8391 17.8994 26.1911 17.9289 26.5137 17.9289C27.0123 17.9289 27.5402 17.8994 28.0975 17.8109C28.6547 17.7225 29.1533 17.634 29.6226 17.5455C30.1505 17.4276 30.6785 17.2801 31.1771 17.1327V20.3469C30.7371 20.4944 30.2678 20.6418 29.7692 20.7598C29.3293 20.8482 28.8307 20.9367 28.2735 21.0252C27.7162 21.1136 27.1296 21.1431 26.5137 21.1431C25.7218 21.1431 24.9006 21.0546 24.0794 20.8777C23.2288 20.7008 22.4956 20.3469 21.7917 19.8161C21.1171 19.2853 20.5598 18.5186 20.0906 17.4866C19.6506 16.484 19.416 15.1275 19.416 13.4467C19.416 11.9428 19.6213 10.6748 20.0026 9.70165C20.3839 8.69905 20.8825 7.93235 21.5277 7.34258C22.1436 6.75282 22.8475 6.36947 23.6101 6.13356C24.3727 5.89766 25.1352 5.7797 25.9271 5.7797C26.631 5.7797 27.3642 5.86817 28.0975 6.07459C28.8307 6.28101 29.5053 6.66435 30.0919 7.22463C30.6785 7.78491 31.1477 8.58109 31.529 9.58369C31.9103 10.5863 32.0863 11.8838 32.0863 13.4761V14.8031H23.4634Z" fill="white"/>
<path d="M44.7858 20.8777L41.9409 15.9532L39.1546 20.8777H33.7287V18.1353H35.9577L39.1546 13.0338L36.3683 8.817H34.022V6.07459H39.5652L41.9409 10.4389L44.3752 6.07459H49.8305V8.817H47.5135L44.7272 13.0338L47.8948 18.1353H50.1238V20.8777H44.7858Z" fill="white"/>
<path d="M63.6739 13.3877C63.6739 12.3261 63.6153 11.5004 63.4979 10.8812C63.3806 10.2619 63.2047 9.8196 62.9407 9.49523C62.7061 9.20035 62.4128 8.99393 62.0608 8.90546C61.7382 8.817 61.3569 8.78751 60.917 8.78751C60.653 8.78751 60.3597 8.84649 60.0664 8.93495C59.7731 9.02342 59.5092 9.14137 59.2745 9.22983C58.9812 9.37728 58.7173 9.52472 58.4533 9.67216V17.8109C58.7173 17.8994 59.0106 17.9584 59.3039 18.0173C59.5678 18.0763 59.8318 18.1353 60.0957 18.1648C60.3597 18.1943 60.653 18.2238 60.8876 18.2238C61.2103 18.2238 61.5329 18.1648 61.8848 18.0763C62.2075 17.9879 62.5301 17.7814 62.7647 17.4276C63.0287 17.1032 63.234 16.6019 63.41 15.9827C63.5859 15.3634 63.6739 14.5082 63.6739 13.3877ZM67.7214 13.3877C67.7214 14.5377 67.6041 15.5403 67.3987 16.3955C67.1934 17.2506 66.9001 17.9584 66.5482 18.5186C66.1962 19.1084 65.7856 19.5507 65.3164 19.9046C64.8764 20.2585 64.3778 20.5238 63.8792 20.7008C63.3806 20.8777 62.882 20.9957 62.4128 21.0546C61.9435 21.1136 61.5036 21.1431 61.0929 21.1431C60.7703 21.1431 60.4477 21.1136 60.1544 21.0841C59.8611 21.0252 59.5972 20.9957 59.3332 20.9367C59.0399 20.8482 58.7759 20.7892 58.4826 20.7008V23.6496H61.0636V26.3625H51.8249V23.6496H54.4059V8.817H51.8249V6.10408H58.16L58.4533 7.22463C58.7173 6.98872 59.0106 6.75282 59.3332 6.51691C59.6265 6.33998 59.9784 6.19254 60.3597 6.01561C60.7703 5.86817 61.2396 5.7797 61.7382 5.7797C62.3834 5.7797 63.0287 5.83868 63.7326 5.98612C64.4365 6.13356 65.0524 6.45794 65.639 6.95924C66.2256 7.46054 66.6948 8.22723 67.0761 9.22983C67.5161 10.2914 67.7214 11.6479 67.7214 13.3877Z" fill="white"/>
<path d="M68.7772 20.8777V18.1353H71.3582V2.71292H68.7772V0H75.4056V18.1353H77.9866V20.8777H68.7772Z" fill="white"/>
<path d="M88.8385 13.4761C88.8385 12.3851 88.7505 11.5004 88.6038 10.8812C88.4572 10.2324 88.2519 9.76062 87.9586 9.43625C87.6946 9.11188 87.372 8.90546 87.0201 8.817C86.6681 8.72853 86.2868 8.69905 85.8762 8.69905C85.4656 8.69905 85.0843 8.75802 84.7324 8.84649C84.3804 8.96444 84.0578 9.17086 83.7938 9.52472C83.5299 9.84909 83.3246 10.3504 83.1486 10.9696C83.0019 11.5889 82.914 12.4441 82.914 13.5056C82.914 14.5377 83.0019 15.3929 83.1779 16.0121C83.3539 16.6314 83.5885 17.1327 83.8818 17.4571C84.1751 17.7814 84.4977 18.0173 84.8204 18.1353C85.1723 18.2533 85.4949 18.2827 85.8176 18.2827C86.1402 18.2827 86.4921 18.2238 86.8147 18.1353C87.1667 18.0468 87.4893 17.8109 87.7533 17.4866C88.0466 17.1622 88.2812 16.6609 88.4572 16.0416C88.7505 15.3929 88.8385 14.5377 88.8385 13.4761ZM92.8566 13.4761C92.8566 15.1275 92.6219 16.484 92.182 17.4866C91.7421 18.4892 91.1848 19.2559 90.4809 19.8161C89.8063 20.3764 89.0438 20.7303 88.2225 20.9072C87.4013 21.0841 86.6094 21.1726 85.8469 21.1726C85.0843 21.1726 84.2924 21.0841 83.4419 20.8777C82.6207 20.6713 81.8581 20.3174 81.1835 19.7572C80.5089 19.1969 79.9517 18.4302 79.5118 17.4276C79.0718 16.425 78.8372 15.098 78.8372 13.4761C78.8372 11.8838 79.0425 10.6158 79.4824 9.61318C79.893 8.61058 80.4503 7.84389 81.1249 7.28361C81.7994 6.72333 82.5327 6.33998 83.3832 6.13356C84.2044 5.92715 85.0257 5.80919 85.8469 5.80919C86.6388 5.80919 87.4307 5.89766 88.2812 6.10408C89.1024 6.31049 89.865 6.66435 90.5396 7.22463C91.2141 7.78491 91.7714 8.5516 92.2113 9.55421C92.6513 10.5568 92.8566 11.8543 92.8566 13.4761Z" fill="white"/>
<path d="M105.204 9.76062C104.999 9.73114 104.823 9.67216 104.588 9.64267C104.412 9.61318 104.236 9.58369 104.031 9.55421C103.826 9.52472 103.62 9.52472 103.444 9.52472C102.858 9.52472 102.33 9.64267 101.919 9.90806C101.509 10.1735 101.157 10.3799 100.951 10.6158V18.1648H104.119V20.8777H94.323V18.1648H96.904V8.817H94.323V6.10408H100.658L100.951 7.8144C101.039 7.60798 101.127 7.40156 101.274 7.16565C101.421 6.92975 101.567 6.72333 101.802 6.51691C102.007 6.31049 102.271 6.13356 102.594 6.01561C102.887 5.86817 103.268 5.80919 103.679 5.80919C103.914 5.80919 104.119 5.80919 104.324 5.83868C104.53 5.86817 104.676 5.89766 104.823 5.92715C104.97 5.95663 105.116 6.01561 105.263 6.0451V9.76062H105.204Z" fill="white"/>
<path d="M115.763 12.2671C115.733 11.5004 115.675 10.8812 115.587 10.4094C115.499 9.90806 115.352 9.52472 115.147 9.22983C114.942 8.93495 114.736 8.72853 114.443 8.61058C114.179 8.49263 113.856 8.43365 113.504 8.43365C112.654 8.43365 112.038 8.72853 111.686 9.28881C111.334 9.84909 111.099 10.8517 111.041 12.2671H115.763ZM111.011 14.8031C111.07 15.4814 111.187 16.0121 111.393 16.425C111.598 16.8378 111.833 17.1327 112.126 17.3686C112.419 17.6045 112.713 17.752 113.064 17.8109C113.387 17.8994 113.739 17.9289 114.062 17.9289C114.56 17.9289 115.088 17.8994 115.645 17.8109C116.203 17.7225 116.701 17.634 117.171 17.5455C117.699 17.4276 118.226 17.2801 118.725 17.1327V20.3469C118.285 20.4944 117.816 20.6418 117.317 20.7598C116.877 20.8482 116.379 20.9367 115.821 21.0252C115.264 21.1136 114.678 21.1431 114.062 21.1431C113.27 21.1431 112.449 21.0546 111.627 20.8777C110.777 20.7008 110.044 20.3469 109.34 19.8161C108.665 19.2853 108.108 18.5186 107.639 17.4866C107.199 16.484 106.964 15.1275 106.964 13.4467C106.964 11.9428 107.169 10.6748 107.551 9.70165C107.932 8.69905 108.43 7.93235 109.076 7.34258C109.692 6.75282 110.396 6.36947 111.158 6.13356C111.921 5.89766 112.683 5.7797 113.475 5.7797C114.179 5.7797 114.912 5.86817 115.645 6.07459C116.379 6.28101 117.053 6.66435 117.64 7.22463C118.226 7.78491 118.696 8.58109 119.077 9.58369C119.458 10.5863 119.634 11.8838 119.634 13.4761V14.8031H111.011Z" fill="white"/>
<path d="M74.9364 28.6626L74.3205 32.2307H73.4992L74.1445 28.6331C74.1738 28.5447 74.1738 28.4562 74.1738 28.3677C74.1738 28.1023 74.0858 27.9549 73.7925 27.9549C73.2059 27.9549 72.6194 28.6921 72.2967 29.1344C72.2674 29.1639 72.1501 29.3703 72.1501 29.3998L71.6515 32.2602H70.8303L71.4755 28.5447C71.4755 28.4857 71.5048 28.4267 71.5048 28.3382C71.5048 28.0729 71.3875 27.9549 71.1236 27.9549C70.5077 27.9549 69.9504 28.6626 69.6278 29.1344C69.5984 29.1639 69.4811 29.3703 69.4811 29.3998L68.9825 32.2602H68.1613L69.0119 27.3062H69.7158L69.6571 28.4857C69.9797 27.8369 70.6543 27.2177 71.3875 27.2177C72.0328 27.2177 72.3554 27.5715 72.3554 28.2203C72.3554 28.3088 72.3554 28.3972 72.3261 28.4857C72.678 27.8369 73.2646 27.2177 74.0565 27.2177C74.7017 27.2177 75.0244 27.601 75.0244 28.2203C74.995 28.3677 74.9657 28.5152 74.9364 28.6626Z" fill="white"/>
<path d="M77.6347 26.5395C77.3414 26.5395 77.0774 26.2741 77.0774 25.9792C77.0774 25.6843 77.3121 25.4189 77.6347 25.4189C77.928 25.4189 78.1919 25.6843 78.1919 25.9792C78.1919 26.3036 77.928 26.5395 77.6347 26.5395ZM76.9601 32.2307H76.1389L76.9894 27.2767H77.8106L76.9601 32.2307Z" fill="white"/>
<path d="M81.7701 28.2203C81.5061 28.1023 81.0369 27.9254 80.6263 27.9254C80.1863 27.9254 79.7757 28.1023 79.7757 28.6036C79.7757 29.0165 80.069 29.1934 80.2743 29.2819L80.7729 29.5768C81.1835 29.8127 81.5355 30.1665 81.5355 30.7858C81.5355 31.8768 80.8609 32.3192 79.9517 32.3192C79.3944 32.3192 78.8665 32.1422 78.4559 31.9653L78.5732 31.2576C78.9838 31.4345 79.5411 31.6114 79.9224 31.6114C80.421 31.6114 80.7143 31.3755 80.7143 30.9332C80.7143 30.5204 80.5676 30.3435 80.2743 30.196L79.805 29.9306C79.4238 29.6947 78.9252 29.3114 78.9252 28.6331C78.9252 27.5716 79.8344 27.2177 80.6263 27.2177C81.0955 27.2177 81.5355 27.3651 81.8288 27.5716L81.7701 28.2203Z" fill="white"/>
<path d="M85.6122 28.2203C85.3483 28.1023 84.879 27.9254 84.4684 27.9254C84.0285 27.9254 83.6179 28.1023 83.6179 28.6036C83.6179 29.0165 83.9111 29.1934 84.1164 29.2819L84.615 29.5768C85.0257 29.8127 85.3776 30.1665 85.3776 30.7858C85.3776 31.8768 84.703 32.3192 83.7938 32.3192C83.2366 32.3192 82.7086 32.1422 82.298 31.9653L82.4153 31.2576C82.826 31.4345 83.3832 31.6114 83.7645 31.6114C84.2631 31.6114 84.5564 31.3755 84.5564 30.9332C84.5564 30.5204 84.4097 30.3435 84.1164 30.196L83.6472 29.9306C83.2659 29.6947 82.7673 29.3114 82.7673 28.6331C82.7673 27.5716 83.6765 27.2177 84.4684 27.2177C84.9377 27.2177 85.3776 27.3651 85.6709 27.5716L85.6122 28.2203Z" fill="white"/>
<path d="M87.9879 26.5395C87.6946 26.5395 87.4307 26.2741 87.4307 25.9792C87.4307 25.6843 87.6653 25.4189 87.9879 25.4189C88.2812 25.4189 88.5452 25.6843 88.5452 25.9792C88.5452 26.3036 88.3105 26.5395 87.9879 26.5395ZM87.3133 32.2307H86.4921L87.3427 27.2767H88.1639L87.3133 32.2307Z" fill="white"/>
<path d="M91.5368 27.8369C90.7155 27.8369 90.0116 28.8985 90.0116 30.4319C90.0116 31.3166 90.3636 31.6704 90.8915 31.6704C91.7127 31.6704 92.446 30.4909 92.446 29.0165C92.4166 28.1613 92.1527 27.8369 91.5368 27.8369ZM90.8329 32.3192C89.953 32.3192 89.1318 31.9063 89.1318 30.4319C89.1318 28.5152 90.1583 27.1882 91.5368 27.1882C92.358 27.1882 93.2379 27.601 93.2379 29.0755C93.2672 30.9627 92.27 32.3192 90.8329 32.3192Z" fill="white"/>
<path d="M98.6931 28.6626L98.0772 32.2307H97.256L97.9012 28.6331C97.9305 28.5447 97.9306 28.4857 97.9306 28.3972C97.9306 28.0729 97.7253 27.9549 97.432 27.9549C96.7574 27.9549 95.9948 28.8395 95.6429 29.3703L95.1443 32.2307H94.323L95.1736 27.2767H95.8775L95.8188 28.4562C96.2001 27.8369 96.9627 27.1882 97.6959 27.1882C98.3998 27.1882 98.7811 27.5421 98.7811 28.2498C98.7224 28.4267 98.7224 28.5447 98.6931 28.6626Z" fill="white"/>
<path d="M105.38 27.8959C104.852 27.8959 104.266 28.6626 103.943 29.2524L103.562 31.4345C103.796 31.523 104.207 31.6704 104.5 31.6704C105.527 31.6704 106.113 30.255 106.113 28.987C106.055 28.2498 105.879 27.8959 105.38 27.8959ZM104.559 32.3192C104.031 32.3192 103.679 32.1717 103.415 32.0538L103.063 34H102.242L103.415 27.2767H104.119L104.09 28.2203C104.295 27.7485 104.794 27.1882 105.586 27.1882C106.289 27.1882 106.905 27.66 106.905 28.928C106.905 30.7563 106.025 32.3192 104.559 32.3192Z" fill="white"/>
<path d="M110.308 27.8369C109.486 27.8369 108.782 28.8985 108.782 30.4319C108.782 31.3166 109.134 31.6704 109.662 31.6704C110.483 31.6704 111.217 30.4909 111.217 29.0165C111.187 28.1613 110.923 27.8369 110.308 27.8369ZM109.604 32.3192C108.724 32.3192 107.903 31.9063 107.903 30.4319C107.903 28.5152 108.929 27.1882 110.308 27.1882C111.129 27.1882 112.009 27.601 112.009 29.0755C112.038 30.9627 111.041 32.3192 109.604 32.3192Z" fill="white"/>
<path d="M116.056 28.2203C115.792 28.1023 115.323 27.9254 114.912 27.9254C114.472 27.9254 114.062 28.1023 114.062 28.6036C114.062 29.0165 114.355 29.1934 114.56 29.2819L115.059 29.5768C115.469 29.8127 115.821 30.1665 115.821 30.7858C115.821 31.8768 115.147 32.3192 114.238 32.3192C113.68 32.3192 113.152 32.1422 112.742 31.9653L112.859 31.2576C113.27 31.4345 113.827 31.6114 114.208 31.6114C114.707 31.6114 115 31.3755 115 30.9332C115 30.5204 114.854 30.3435 114.56 30.196L114.091 29.9306C113.71 29.6947 113.211 29.3114 113.211 28.6331C113.211 27.5716 114.12 27.2177 114.912 27.2177C115.381 27.2177 115.821 27.3651 116.115 27.5716L116.056 28.2203Z" fill="white"/>
<path d="M119.898 28.2203C119.634 28.1023 119.165 27.9254 118.754 27.9254C118.314 27.9254 117.904 28.1023 117.904 28.6036C117.904 29.0165 118.197 29.1934 118.402 29.2819L118.901 29.5768C119.312 29.8127 119.664 30.1665 119.664 30.7858C119.664 31.8768 118.989 32.3192 118.08 32.3192C117.523 32.3192 116.995 32.1422 116.584 31.9653L116.701 31.2576C117.112 31.4345 117.669 31.6114 118.05 31.6114C118.549 31.6114 118.842 31.3755 118.842 30.9332C118.842 30.5204 118.696 30.3435 118.402 30.196L117.933 29.9306C117.552 29.6947 117.053 29.3114 117.053 28.6331C117.053 27.5716 117.962 27.2177 118.784 27.2177C119.253 27.2177 119.693 27.3651 119.986 27.5716L119.898 28.2203Z" fill="white"/>
<path d="M122.274 26.5395C121.981 26.5395 121.717 26.2741 121.717 25.9792C121.717 25.6843 121.951 25.4189 122.274 25.4189C122.567 25.4189 122.831 25.6843 122.831 25.9792C122.831 26.3036 122.567 26.5395 122.274 26.5395ZM121.599 32.2307H120.778L121.629 27.2767H122.45L121.599 32.2307Z" fill="white"/>
<path d="M126.204 27.8959C125.735 27.8959 125.148 28.5447 124.767 29.2524L124.356 31.5525C124.562 31.6114 124.767 31.6409 125.06 31.6409C126.439 31.6409 126.908 30.1075 126.908 28.9575C126.908 28.2498 126.703 27.8959 126.204 27.8959ZM125.089 32.3192C124.474 32.3192 123.887 32.1717 123.447 32.0243L124.591 25.5074H125.412L124.943 28.2203C125.177 27.7485 125.676 27.1882 126.409 27.1882C127.113 27.1882 127.729 27.66 127.729 28.928C127.729 30.6678 126.908 32.3192 125.089 32.3192Z" fill="white"/>
<path d="M129.577 32.2307H128.726L129.929 25.5369H130.75L129.577 32.2307Z" fill="white"/>
<path d="M133.654 27.8369C133.008 27.8369 132.451 28.6921 132.305 29.8421C133.184 29.8127 134.358 29.7537 134.358 28.6331C134.358 28.0729 134.182 27.8369 133.654 27.8369ZM132.275 30.4319C132.275 31.3166 132.48 31.6114 133.155 31.6114C133.536 31.6114 134.064 31.4345 134.563 31.1691L134.416 31.9948C134.035 32.1717 133.478 32.3192 133.038 32.3192C132.246 32.3192 131.454 31.9653 131.454 30.5794C131.454 28.5447 132.451 27.2177 133.742 27.2177C134.592 27.2177 135.179 27.66 135.179 28.6036C135.179 30.137 133.566 30.4024 132.275 30.4319Z" fill="white"/>
<path d="M9.23873 18.1353H0V20.8482H9.23873V18.1353Z" fill="white"/>
<path d="M15.8672 18.1353V10.3799C15.8672 9.52472 15.7792 8.817 15.5739 8.22723C15.3686 7.63747 15.0753 7.16565 14.7233 6.81179C14.342 6.45794 13.9021 6.19254 13.3742 6.01561C12.8462 5.86817 12.289 5.7797 11.6437 5.7797C10.9398 5.7797 10.2946 5.86817 9.67867 6.07459C9.06276 6.28101 8.53483 6.48742 8.09489 6.72333C7.56696 6.98872 7.09769 7.3131 6.65775 7.63747L6.36446 6.0451H0V8.75802H2.58098V15.5993H6.62842V10.2619C6.98037 10.0555 7.33233 9.87858 7.71361 9.70165C8.03623 9.55421 8.41751 9.43625 8.82812 9.3183C9.23873 9.20035 9.64934 9.14137 10.0893 9.14137C10.7639 9.14137 11.2038 9.22983 11.4678 9.43625C11.7024 9.64267 11.8197 10.026 11.8197 10.5863V20.8482H18.4481V18.1353H15.8672Z" fill="white"/>
</g>
<defs>
<clipPath id="clip0_1891_8364">
<rect width="136" height="34" fill="white"/>
</clipPath>
</defs>
</svg>
