<svg width="56" height="75" viewBox="0 0 56 75" fill="none" xmlns="http://www.w3.org/2000/svg">
<g clip-path="url(#clip0_1908_1185)">
<path d="M26.4448 34.6219V24.2775H15.3226V32.133H7.77814V42.8664H15.3226V50.7219H26.4448V40.3775H23.8004V48.233H17.967V40.3775H10.4226V34.6219H17.967V26.7664H23.8004V34.6219H26.4448Z" fill="white"/>
<path d="M41.66 33.6927C41.66 35.5693 40.111 37.0331 38.1466 37.0331H35.1559V30.5775H38.1466C40.1866 30.5775 41.66 31.8911 41.66 33.6927ZM39.4311 24.2775H28.0004V50.7219H35.1559V42.8664H39.4311C44.6821 42.8664 48.7622 38.8598 48.7622 33.6842C48.7622 28.4708 44.6067 24.2775 39.4311 24.2775Z" fill="white"/>
</g>
<defs>
<clipPath id="clip0_1908_1185">
<rect width="56" height="31" fill="white" transform="translate(0 22)"/>
</clipPath>
</defs>
</svg>
