<svg width="56" height="56" viewBox="0 0 56 56" fill="none" xmlns="http://www.w3.org/2000/svg">
<g clip-path="url(#clip0_1891_8353)">
<path d="M26.4448 25.1219V14.7775H15.3226V22.6331H7.77814V33.3664H15.3226V41.222H26.4448V30.8775H23.8004V38.7331H17.967V30.8775H10.4226V25.1219H17.967V17.2664H23.8004V25.1219H26.4448Z" fill="white"/>
<path d="M41.66 24.1927C41.66 26.0693 40.111 27.5331 38.1466 27.5331H35.1559V21.0775H38.1466C40.1866 21.0775 41.66 22.3911 41.66 24.1927ZM39.4311 14.7775H28.0004V41.222H35.1559V33.3664H39.4311C44.6821 33.3664 48.7622 29.3598 48.7622 24.1842C48.7622 18.9708 44.6067 14.7775 39.4311 14.7775Z" fill="white"/>
</g>
<defs>
<clipPath id="clip0_1891_8353">
<rect width="56" height="56" fill="white"/>
</clipPath>
</defs>
</svg>
