<svg width="104" height="75" viewBox="0 0 104 75" fill="none" xmlns="http://www.w3.org/2000/svg">
<g clip-path="url(#clip0_1908_1218)">
<path d="M67.4544 30.7945H69.7732V42.247H75.5323V44.4764H67.4544V30.7945Z" fill="white"/>
<path d="M77.3897 30.7945H79.7086V44.4764H77.3897V30.7945Z" fill="white"/>
<path d="M84.494 30.7945L91.2572 40.2113V30.7945H93.5761V44.4764H91.4896L84.7247 35.0802V44.4764H82.4143V30.7945H84.494Z" fill="white"/>
<path d="M98.5887 36.3424H104V38.5719H98.5887V42.247H103.988V44.4764H96.2698V30.7945H103.988V33.024H98.5887V36.3424Z" fill="white"/>
<path d="M24.8088 30.7945H27.1276V39.5031C27.1276 42.5111 25.092 44.6994 21.9097 44.6994C18.7274 44.6994 16.6918 42.5111 16.6918 39.5031V30.7945H19.0107V39.215C19.0107 41.1683 19.9759 42.4734 21.9097 42.4734C23.8435 42.4734 24.8088 41.1649 24.8088 39.215V30.7945Z" fill="white"/>
<path d="M45.4479 40.8356L46.9933 42.3791C46.3434 43.1219 45.5427 43.7142 44.6457 44.1155C43.7487 44.5168 42.7766 44.7178 41.7958 44.7045C37.8942 44.7045 34.9358 41.6759 34.9358 37.6321C34.9358 33.5882 37.8925 30.5596 41.7958 30.5596C42.7316 30.5494 43.6595 30.735 44.5209 31.1048C45.3824 31.4746 46.1589 32.0206 46.8016 32.7084L45.2359 34.2519C44.797 33.7737 44.2645 33.3931 43.6722 33.1342C43.08 32.8753 42.441 32.7437 41.7958 32.7479C39.1291 32.7479 37.2937 34.9945 37.2937 37.6321C37.2937 40.2697 39.1291 42.5163 41.7958 42.5163C42.4883 42.5182 43.173 42.369 43.8033 42.079C44.4336 41.7889 44.9946 41.3648 45.4479 40.8356Z" fill="white"/>
<path d="M51.0916 36.9306L55.9244 30.7962H58.8218L53.5275 37.5172L59.4799 44.4764H56.4062L51.0916 38.3026V44.4764H48.7727V30.7945H51.0916V36.9306Z" fill="white"/>
<path d="M16.3237 43.2057C16.2955 43.2059 16.2675 43.2105 16.2406 43.2194L16.0879 43.264C15.7046 43.3789 15.6639 43.3909 15.3229 43.4732C14.8467 43.5821 14.3536 43.5927 13.8732 43.5043C13.3928 43.4159 12.9351 43.2303 12.5274 42.9587C12.3234 42.8232 12.1285 42.6742 11.9438 42.5128C13.0905 41.2523 13.7691 39.5305 13.7691 37.5686C13.7691 33.499 10.8514 30.4515 6.88538 30.4515C2.91938 30.4515 0 33.5007 0 37.5772C0 41.6536 2.91598 44.696 6.88538 44.696C8.11369 44.7059 9.32295 44.3889 10.3917 43.7767C10.7445 43.9774 11.0024 44.1197 11.3026 44.2604C11.9424 44.5527 12.6361 44.7052 13.3382 44.708C13.7976 44.7082 14.2546 44.6418 14.6953 44.5107C15.3092 44.3441 15.9027 44.1083 16.4645 43.8076L16.4951 43.7887C16.5395 43.7599 16.5761 43.7204 16.6015 43.6737C16.627 43.627 16.6406 43.5746 16.6409 43.5212C16.641 43.4793 16.6327 43.4379 16.6167 43.3993C16.6007 43.3606 16.5773 43.3256 16.5477 43.2962C16.5182 43.2669 16.4832 43.2437 16.4447 43.2282C16.4063 43.2126 16.3652 43.205 16.3237 43.2057ZM2.37146 37.5772C2.37146 34.9224 4.14243 32.7016 6.88538 32.7016C9.62834 32.7016 11.3959 34.9224 11.3959 37.5772C11.3959 40.2319 9.62664 42.4545 6.88538 42.4545C4.14412 42.4545 2.37146 40.2319 2.37146 37.5772Z" fill="white"/>
<path d="M29.9978 30.7945H32.3167V44.4764H29.9978V30.7945Z" fill="white"/>
<path d="M66.9573 54.5775C66.9592 54.4984 66.9425 54.4199 66.9084 54.3486C66.8744 54.2772 66.824 54.2151 66.7615 54.1674C66.6991 54.1196 66.6262 54.0876 66.5491 54.0739C66.4719 54.0603 66.3927 54.0653 66.3178 54.0888L66.0685 54.1608C65.4476 54.3477 65.3899 54.3666 64.8318 54.5038C64.0608 54.6822 63.2621 54.7014 62.4835 54.5603C61.705 54.4191 60.9626 54.1205 60.301 53.6823C59.8646 53.394 59.4537 53.0681 59.0728 52.7082C58.9405 52.5882 58.7997 52.4596 58.6284 52.3104C58.5741 52.2641 58.5096 52.1989 58.4384 52.1269C60.509 50.3982 62.1887 48.2406 63.3642 45.7998C64.5397 43.3589 65.1837 40.6916 65.2528 37.9776C65.3218 35.2637 64.8142 32.5664 63.7643 30.0677C62.7143 27.569 61.1465 25.3271 59.1665 23.4931C57.1865 21.6592 54.8405 20.2759 52.2867 19.4367C49.7329 18.5975 47.0308 18.3218 44.3626 18.6283C41.6945 18.9348 39.1224 19.8163 36.8199 21.2133C34.5175 22.6103 32.5382 24.4904 31.0156 26.7266L33.0512 27.9134C35.0621 25.0293 37.9286 22.8668 41.2359 21.7392C44.5432 20.6115 48.1196 20.5771 51.4475 21.6409C54.7754 22.7046 57.6822 24.8115 59.747 27.6564C61.8119 30.5013 62.9277 33.9367 62.933 37.4653C62.9383 40.9939 61.8328 44.4327 59.7765 47.284C57.7202 50.1352 54.8198 52.2509 51.4951 53.3249C48.1704 54.3989 44.5939 54.3755 41.2832 53.258C37.9726 52.1404 35.0996 49.9869 33.08 47.1089L31.0444 48.2957C33.6769 52.1466 37.6249 54.8775 42.129 55.9627C46.6331 57.048 51.3751 56.4111 55.4427 54.1745C55.6547 54.3066 55.8617 54.4335 56.1212 54.5793L56.832 54.9823C57.4121 55.3133 57.8311 55.5533 58.3231 55.7746C59.3588 56.2486 60.4821 56.4958 61.619 56.5C62.3608 56.4992 63.0988 56.3918 63.8107 56.181C64.8051 55.9112 65.7663 55.5286 66.6758 55.0406L66.7249 55.0097C66.7963 54.963 66.8549 54.899 66.8955 54.8235C66.9361 54.748 66.9574 54.6635 66.9573 54.5775Z" fill="white"/>
</g>
<defs>
<clipPath id="clip0_1908_1218">
<rect width="104" height="38" fill="white" transform="translate(0 18.5)"/>
</clipPath>
</defs>
</svg>
