<svg width="104" height="38" viewBox="0 0 104 38" fill="none" xmlns="http://www.w3.org/2000/svg">
<g clip-path="url(#clip0_1891_8366)">
<path d="M67.4544 12.2945H69.7732V23.747H75.5323V25.9764H67.4544V12.2945Z" fill="white"/>
<path d="M77.3897 12.2945H79.7086V25.9764H77.3897V12.2945Z" fill="white"/>
<path d="M84.494 12.2945L91.2572 21.7113V12.2945H93.5761V25.9764H91.4896L84.7247 16.5802V25.9764H82.4143V12.2945H84.494Z" fill="white"/>
<path d="M98.5887 17.8424H104V20.0718H98.5887V23.747H103.988V25.9764H96.2698V12.2945H103.988V14.524H98.5887V17.8424Z" fill="white"/>
<path d="M24.8088 12.2945H27.1276V21.0031C27.1276 24.0111 25.092 26.1994 21.9097 26.1994C18.7274 26.1994 16.6918 24.0111 16.6918 21.0031V12.2945H19.0107V20.7149C19.0107 22.6683 19.9759 23.9734 21.9097 23.9734C23.8435 23.9734 24.8088 22.6648 24.8088 20.7149V12.2945Z" fill="white"/>
<path d="M45.4479 22.3356L46.9933 23.879C46.3434 24.6219 45.5427 25.2142 44.6457 25.6155C43.7487 26.0168 42.7766 26.2177 41.7958 26.2045C37.8942 26.2045 34.9358 23.1759 34.9358 19.132C34.9358 15.0882 37.8925 12.0596 41.7958 12.0596C42.7316 12.0493 43.6595 12.235 44.5209 12.6048C45.3824 12.9746 46.1589 13.5206 46.8016 14.2084L45.2359 15.7519C44.797 15.2737 44.2645 14.8931 43.6722 14.6342C43.08 14.3753 42.441 14.2437 41.7958 14.2478C39.1291 14.2478 37.2937 16.4944 37.2937 19.132C37.2937 21.7696 39.1291 24.0162 41.7958 24.0162C42.4883 24.0181 43.173 23.869 43.8033 23.5789C44.4336 23.2889 44.9946 22.8648 45.4479 22.3356Z" fill="white"/>
<path d="M51.0916 18.4306L55.9244 12.2962H58.8218L53.5275 19.0171L59.4799 25.9764H56.4062L51.0916 19.8026V25.9764H48.7727V12.2945H51.0916V18.4306Z" fill="white"/>
<path d="M16.3237 24.7056C16.2955 24.7059 16.2675 24.7105 16.2406 24.7194L16.0879 24.764C15.7046 24.8789 15.6639 24.8909 15.3229 24.9732C14.8467 25.0821 14.3536 25.0927 13.8732 25.0042C13.3928 24.9158 12.9351 24.7303 12.5274 24.4587C12.3234 24.3231 12.1285 24.1742 11.9438 24.0128C13.0905 22.7523 13.7691 21.0305 13.7691 19.0686C13.7691 14.999 10.8514 11.9515 6.88538 11.9515C2.91938 11.9515 0 15.0007 0 19.0772C0 23.1536 2.91598 26.1959 6.88538 26.1959C8.11369 26.2059 9.32295 25.8889 10.3917 25.2767C10.7445 25.4774 11.0024 25.6197 11.3026 25.7603C11.9424 26.0527 12.6361 26.2052 13.3382 26.2079C13.7976 26.2082 14.2546 26.1417 14.6953 26.0107C15.3092 25.8441 15.9027 25.6083 16.4645 25.3076L16.4951 25.2887C16.5395 25.2599 16.5761 25.2204 16.6015 25.1737C16.627 25.1269 16.6406 25.0745 16.6409 25.0212C16.641 24.9793 16.6327 24.9379 16.6167 24.8992C16.6007 24.8606 16.5773 24.8256 16.5477 24.7962C16.5182 24.7669 16.4832 24.7437 16.4447 24.7282C16.4063 24.7126 16.3652 24.705 16.3237 24.7056ZM2.37146 19.0772C2.37146 16.4224 4.14243 14.2015 6.88538 14.2015C9.62834 14.2015 11.3959 16.4224 11.3959 19.0772C11.3959 21.7319 9.62664 23.9545 6.88538 23.9545C4.14412 23.9545 2.37146 21.7319 2.37146 19.0772Z" fill="white"/>
<path d="M29.9978 12.2945H32.3167V25.9764H29.9978V12.2945Z" fill="white"/>
<path d="M66.9573 36.0775C66.9592 35.9984 66.9425 35.9199 66.9084 35.8485C66.8744 35.7772 66.824 35.7151 66.7615 35.6674C66.6991 35.6196 66.6262 35.5876 66.5491 35.5739C66.4719 35.5602 66.3927 35.5653 66.3178 35.5888L66.0685 35.6608C65.4476 35.8477 65.3899 35.8666 64.8318 36.0038C64.0608 36.1822 63.2621 36.2014 62.4835 36.0603C61.705 35.9191 60.9626 35.6205 60.301 35.1823C59.8646 34.894 59.4537 34.5681 59.0728 34.2082C58.9405 34.0882 58.7997 33.9595 58.6284 33.8103C58.5741 33.764 58.5096 33.6989 58.4384 33.6268C60.509 31.8982 62.1887 29.7406 63.3642 27.2998C64.5397 24.8589 65.1837 22.1915 65.2528 19.4776C65.3218 16.7637 64.8142 14.0664 63.7643 11.5677C62.7143 9.06901 61.1465 6.82705 59.1665 4.99312C57.1865 3.15918 54.8405 1.77593 52.2867 0.936705C49.7329 0.0974798 47.0308 -0.178197 44.3626 0.128276C41.6945 0.43475 39.1224 1.31624 36.8199 2.71328C34.5175 4.11031 32.5382 5.99038 31.0156 8.22663L33.0512 9.41338C35.0621 6.52924 37.9286 4.36683 41.2359 3.23916C44.5432 2.11149 48.1196 2.07706 51.4475 3.14084C54.7754 4.20463 57.6822 6.31145 59.747 9.15635C61.8119 12.0013 62.9277 15.4366 62.933 18.9653C62.9383 22.4939 61.8328 25.9327 59.7765 28.7839C57.7202 31.6352 54.8198 33.7509 51.4951 34.8249C48.1704 35.8989 44.5939 35.8755 41.2832 34.7579C37.9726 33.6404 35.0996 31.4868 33.08 28.6089L31.0444 29.7956C33.6769 33.6466 37.6249 36.3774 42.129 37.4627C46.6331 38.548 51.3751 37.9111 55.4427 35.6745C55.6547 35.8066 55.8617 35.9335 56.1212 36.0792L56.832 36.4823C57.4121 36.8132 57.8311 37.0533 58.3231 37.2746C59.3588 37.7486 60.4821 37.9958 61.619 38C62.3608 37.9992 63.0988 37.8918 63.8107 37.681C64.8051 37.4112 65.7663 37.0286 66.6758 36.5406L66.7249 36.5097C66.7963 36.463 66.8549 36.399 66.8955 36.3235C66.9361 36.248 66.9574 36.1634 66.9573 36.0775Z" fill="white"/>
</g>
<defs>
<clipPath id="clip0_1891_8366">
<rect width="104" height="38" fill="white"/>
</clipPath>
</defs>
</svg>
