<svg width="151" height="75" viewBox="0 0 151 75" fill="none" xmlns="http://www.w3.org/2000/svg">
<g clip-path="url(#clip0_901_9814)">
<path fill-rule="evenodd" clip-rule="evenodd" d="M151 48.2123H149.294L142.344 37.9322C141.033 35.9868 139.691 33.8274 139.691 33.8274C139.691 33.8274 139.752 35.9868 139.752 37.9322V48.2123H136.216V30.3919C136.216 29.4802 136.126 28.9628 135.851 28.3254C135.454 27.4737 134.843 26.886 134.843 26.886H139.781L144.782 34.1316C146.123 36.0479 147.557 38.2965 147.557 38.2965C147.557 38.2965 147.465 36.0479 147.465 34.1316V26.886H151V48.2123ZM4.23701 48.2123H0V26.6832C3.41421 26.6832 5.45656 26.5 7.07153 26.5C11.4613 26.5 14.6624 28.3854 14.6624 33.0378C14.6624 35.8347 12.9553 38.0233 10.4554 38.6924C10.4554 38.6924 11.0955 39.4527 11.4916 40.3344L15.18 48.2123H10.425L6.34009 39.4527C5.30384 37.2327 4.63317 36.7774 4.63317 36.7774C5.06018 36.8074 5.45656 36.8074 5.79157 36.8074C8.87039 36.8074 10.3332 35.4084 10.3332 33.1589C10.3332 30.9093 8.71809 29.9055 6.34009 29.9055C5.09054 29.9055 4.23701 29.9966 4.23701 29.9966V48.2123ZM94.2919 26.886H98.5295L98.5279 48.2123H94.2919V26.886ZM131.4 44.6528L130.546 48.2123H119.846V26.8953H131.156L130.332 30.3919H124.053V35.7126H130.059L129.236 39.1485H124.053V44.6528H131.4ZM51.5852 39.1485V48.2123H47.3785V26.886H58.6876L57.8955 30.3919H51.5852V35.7126H57.5902L56.7976 39.1485H51.5852ZM66.9188 39.1485V48.2123H62.6503V26.886H73.96L73.1673 30.3919H66.9188V35.7126H72.893L72.1003 39.1485H66.9188ZM37.3492 26.886H41.5865V48.2123H37.3492V26.886ZM89.5978 44.6528L88.7444 48.2123H78.0447V26.886H89.3543L88.501 30.3919H82.2524V35.7126H88.2575L87.4334 39.1485H82.2524V44.6528H89.5978ZM34.4081 48.2123H29.7134L28.5856 44.2263H22.0694L20.9722 48.2123H17.0398L22.7095 29.6023C22.8622 29.0849 22.9537 28.7807 22.9537 28.4765C22.9537 27.6248 22.3441 26.886 22.3441 26.886H27.5262L34.4081 48.2123ZM27.8387 41.1563L25.9069 34.4452C25.6324 33.5025 25.327 32.0279 25.327 32.0279C25.327 32.0279 25.0227 33.5025 24.7485 34.4452L22.8318 41.1563H27.8387ZM103.996 43.9283C103.996 43.9283 105.329 45.0864 107.974 45.0864C110.101 45.0864 111.135 43.8385 111.135 42.3152C111.135 40.852 109.836 39.996 108.655 39.3577L106.99 38.4585C104.314 37.0123 103.173 35.221 103.173 32.9799C103.173 28.9876 105.872 26.5 109.742 26.5C112.888 26.5 114.732 27.5669 114.732 27.5669L113.915 31.0707C112.888 30.187 111.64 29.8828 110.279 29.8828C108.434 29.8828 107.371 31.0417 107.371 32.5049C107.371 33.6856 108.018 34.3603 109.076 34.9088L111.134 35.9755C114.376 37.6549 115.487 39.4188 115.487 41.9166C115.487 45.9834 112.557 48.5 108.125 48.5C104.843 48.5 103.137 47.5304 103.137 47.5304L103.996 43.9283Z" fill="white"/>
</g>
<defs>
<clipPath id="clip0_901_9814">
<rect width="151" height="22" fill="white" transform="translate(0 26.5)"/>
</clipPath>
</defs>
</svg>
