<svg width="140" height="20" viewBox="0 0 140 20" fill="none" xmlns="http://www.w3.org/2000/svg">
<g clip-path="url(#clip0_1891_8362)">
<path fill-rule="evenodd" clip-rule="evenodd" d="M140 19.7385H138.418L131.974 10.3929C130.759 8.62435 129.515 6.66129 129.515 6.66129C129.515 6.66129 129.572 8.62435 129.572 10.3929V19.7385H126.293V3.53807C126.293 2.70929 126.209 2.23891 125.954 1.65943C125.587 0.885226 125.02 0.350883 125.02 0.350883H129.599L134.235 6.93785C135.478 8.67989 136.808 10.7241 136.808 10.7241C136.808 10.7241 136.723 8.67989 136.723 6.93785V0.350883H140V19.7385ZM3.92835 19.7385H0V0.166505C3.16549 0.166505 5.05906 0 6.55639 0C10.6263 0 13.5943 1.714 13.5943 5.94348C13.5943 8.48607 12.0116 10.4757 9.69373 11.084C9.69373 11.084 10.2872 11.7752 10.6545 12.5767L14.0741 19.7385H9.66557L5.87823 11.7752C4.91746 9.75701 4.29566 9.34307 4.29566 9.34307C4.69156 9.37038 5.05906 9.37039 5.36967 9.37039C8.22421 9.37039 9.58048 8.09854 9.58048 6.05354C9.58048 4.00845 8.083 3.09591 5.87823 3.09591C4.71971 3.09591 3.92835 3.17871 3.92835 3.17871V19.7385ZM87.423 0.350883H91.3519L91.3504 19.7385H87.423V0.350883ZM121.828 16.5026L121.036 19.7385H111.115V0.359361H121.602L120.838 3.53807H115.016V8.3751H120.584L119.821 11.4987H115.016V16.5026H121.828ZM47.8273 11.4987V19.7385H43.9271V0.350883H54.4123L53.6779 3.53807H47.8273V8.3751H53.3949L52.66 11.4987H47.8273ZM62.0439 11.4987V19.7385H58.0864V0.350883H68.5722L67.8373 3.53807H62.0439V8.3751H67.5829L66.848 11.4987H62.0439ZM34.6284 0.350883H38.557V19.7385H34.6284V0.350883ZM83.0708 16.5026L82.2796 19.7385H72.3593V0.350883H82.8451L82.0539 3.53807H76.2605V8.3751H81.8282L81.0641 11.4987H76.2605V16.5026H83.0708ZM31.9016 19.7385H27.5488L26.5032 16.1148H20.4617L19.4444 19.7385H15.7985L21.0551 2.82031C21.1967 2.34993 21.2816 2.07336 21.2816 1.7968C21.2816 1.02255 20.7164 0.350883 20.7164 0.350883H25.521L31.9016 19.7385ZM25.8107 13.3239L24.0196 7.22289C23.7651 6.36589 23.4819 5.02536 23.4819 5.02536C23.4819 5.02536 23.1999 6.36589 22.9456 7.22289L21.1686 13.3239H25.8107ZM96.4202 15.8439C96.4202 15.8439 97.6559 16.8967 100.108 16.8967C102.081 16.8967 103.039 15.7622 103.039 14.3775C103.039 13.0473 101.835 12.2691 100.74 11.6889L99.1963 10.8714C96.7145 9.55664 95.6571 7.92822 95.6571 5.89084C95.6571 2.2615 98.1596 0 101.748 0C104.664 0 106.374 0.969903 106.374 0.969903L105.617 4.15516C104.664 3.35181 103.507 3.07525 102.246 3.07525C100.535 3.07525 99.5494 4.12886 99.5494 5.45904C99.5494 6.5324 100.15 7.14573 101.13 7.64434L103.038 8.61405C106.044 10.1408 107.074 11.7444 107.074 14.0151C107.074 17.7122 104.358 20 100.249 20C97.2054 20 95.6235 19.1185 95.6235 19.1185L96.4202 15.8439Z" fill="white"/>
</g>
<defs>
<clipPath id="clip0_1891_8362">
<rect width="140" height="20" fill="white"/>
</clipPath>
</defs>
</svg>
