<svg width="140" height="75" viewBox="0 0 140 75" fill="none" xmlns="http://www.w3.org/2000/svg">
<g clip-path="url(#clip0_1908_1203)">
<path fill-rule="evenodd" clip-rule="evenodd" d="M140 47.2385H138.418L131.974 37.8929C130.759 36.1244 129.515 34.1613 129.515 34.1613C129.515 34.1613 129.572 36.1244 129.572 37.8929V47.2385H126.293V31.0381C126.293 30.2093 126.209 29.7389 125.954 29.1594C125.587 28.3852 125.02 27.8509 125.02 27.8509H129.599L134.235 34.4379C135.478 36.1799 136.808 38.2241 136.808 38.2241C136.808 38.2241 136.723 36.1799 136.723 34.4379V27.8509H140V47.2385ZM3.92835 47.2385H0V27.6665C3.16549 27.6665 5.05906 27.5 6.55639 27.5C10.6263 27.5 13.5943 29.214 13.5943 33.4435C13.5943 35.9861 12.0116 37.9757 9.69373 38.584C9.69373 38.584 10.2872 39.2752 10.6545 40.0767L14.0741 47.2385H9.66557L5.87823 39.2752C4.91746 37.257 4.29566 36.8431 4.29566 36.8431C4.69156 36.8704 5.05906 36.8704 5.36967 36.8704C8.22421 36.8704 9.58048 35.5985 9.58048 33.5535C9.58048 31.5084 8.083 30.5959 5.87823 30.5959C4.71971 30.5959 3.92835 30.6787 3.92835 30.6787V47.2385ZM87.423 27.8509H91.3519L91.3504 47.2385H87.423V27.8509ZM121.828 44.0026L121.036 47.2385H111.115V27.8594H121.602L120.838 31.0381H115.016V35.8751H120.584L119.821 38.9987H115.016V44.0026H121.828ZM47.8273 38.9987V47.2385H43.9271V27.8509H54.4123L53.6779 31.0381H47.8273V35.8751H53.3949L52.66 38.9987H47.8273ZM62.0439 38.9987V47.2385H58.0864V27.8509H68.5722L67.8373 31.0381H62.0439V35.8751H67.5829L66.848 38.9987H62.0439ZM34.6284 27.8509H38.557V47.2385H34.6284V27.8509ZM83.0708 44.0026L82.2796 47.2385H72.3593V27.8509H82.8451L82.0539 31.0381H76.2605V35.8751H81.8282L81.0641 38.9987H76.2605V44.0026H83.0708ZM31.9016 47.2385H27.5488L26.5032 43.6148H20.4617L19.4444 47.2385H15.7985L21.0551 30.3203C21.1967 29.8499 21.2816 29.5734 21.2816 29.2968C21.2816 28.5225 20.7164 27.8509 20.7164 27.8509H25.521L31.9016 47.2385ZM25.8107 40.8239L24.0196 34.7229C23.7651 33.8659 23.4819 32.5254 23.4819 32.5254C23.4819 32.5254 23.1999 33.8659 22.9456 34.7229L21.1686 40.8239H25.8107ZM96.4202 43.3439C96.4202 43.3439 97.6559 44.3967 100.108 44.3967C102.081 44.3967 103.039 43.2622 103.039 41.8775C103.039 40.5473 101.835 39.7691 100.74 39.1889L99.1963 38.3714C96.7145 37.0566 95.6571 35.4282 95.6571 33.3908C95.6571 29.7615 98.1596 27.5 101.748 27.5C104.664 27.5 106.374 28.4699 106.374 28.4699L105.617 31.6552C104.664 30.8518 103.507 30.5752 102.246 30.5752C100.535 30.5752 99.5494 31.6289 99.5494 32.959C99.5494 34.0324 100.15 34.6457 101.13 35.1443L103.038 36.114C106.044 37.6408 107.074 39.2444 107.074 41.5151C107.074 45.2122 104.358 47.5 100.249 47.5C97.2054 47.5 95.6235 46.6185 95.6235 46.6185L96.4202 43.3439Z" fill="white"/>
</g>
<defs>
<clipPath id="clip0_1908_1203">
<rect width="140" height="20" fill="white" transform="translate(0 27.5)"/>
</clipPath>
</defs>
</svg>
