<svg width="213" height="75" viewBox="0 0 213 75" fill="none" xmlns="http://www.w3.org/2000/svg">
<g clip-path="url(#clip0_1908_1197)">
<path d="M118.331 29C117.081 29 116.055 30.0285 116.055 31.261H116.046C116.046 32.536 117.072 33.5475 118.366 33.5475C119.659 33.5475 120.668 32.5105 120.668 31.244C120.668 29.9775 119.582 29 118.331 29ZM120.315 34.559H116.365V45.0565H120.315V34.559ZM90.8829 45.0565V39.7525C90.8829 38.86 90.8398 38.2225 90.1585 38.2225C89.3738 38.2225 89.3306 39.0385 89.3306 40.016V45.065H85.3725V29.2125H89.3306L89.3134 34.916C89.3134 35.2552 89.2893 35.5875 89.2651 35.9207C89.2505 36.1145 89.2367 36.3092 89.2272 36.5055L89.2703 36.548C89.6497 35.409 90.6845 34.338 91.9953 34.338C94.2719 34.338 94.8411 36.2505 94.8411 38.1375V45.0565H90.8829ZM83.941 45.065L80.871 38.8175C82.5009 38.18 83.2338 36.7095 83.2338 35.0605C83.2338 31.0995 80.6554 30.071 77.0853 30.071H73.1099V45.065H77.2233V41.07C77.2233 40.6085 77.206 40.1512 77.1897 39.6922C77.1789 39.4148 77.17 39.1374 77.1629 38.86L77.1974 38.8175L79.474 45.065H83.941ZM77.2233 33.2925C78.353 33.233 79.1636 33.794 79.1636 35.103C79.1636 36.0805 78.5772 37.0155 77.4906 37.0155L77.2233 36.9985V33.2925ZM105.448 31.5415C105.448 32.4425 104.724 33.1565 103.792 33.1565V33.148C102.87 33.148 102.119 32.417 102.119 31.499C102.119 30.6405 102.835 29.9095 103.749 29.9095C104.663 29.9095 105.448 30.6405 105.448 31.5415ZM102.3 34.5675L102.464 36.174L102.43 36.2165C101.921 35.1795 101.136 34.3465 99.8685 34.3465C97.1435 34.3465 96.5226 37.6445 96.5226 39.7185C96.5226 41.7925 97.0487 45.286 99.7909 45.286C101.084 45.286 102.007 44.4105 102.516 43.297L102.559 43.3395L102.378 45.0735H106.336V34.576H102.318L102.3 34.5675ZM102.361 39.676C102.361 39.9735 102.361 40.5685 102.24 41.104C102.137 41.6225 101.895 42.056 101.395 42.056C101.015 42.056 100.809 41.7415 100.714 41.342C100.61 40.9255 100.593 40.4495 100.593 40.152C100.593 39.812 100.593 39.1575 100.696 38.605C100.817 38.027 101.041 37.551 101.524 37.551C102.007 37.551 102.188 37.9505 102.292 38.401C102.387 38.8345 102.378 39.302 102.369 39.591V39.676H102.361ZM101.05 31.5415C101.05 32.4425 100.326 33.1565 99.3943 33.1565V33.148C99.1742 33.1491 98.9562 33.1072 98.7527 33.0248C98.5492 32.9423 98.3643 32.8209 98.2088 32.6675C98.0532 32.5142 97.93 32.332 97.8463 32.1314C97.7626 31.9308 97.7202 31.7159 97.7213 31.499C97.7213 30.6405 98.437 29.9095 99.3511 29.9095C100.265 29.9095 101.05 30.6405 101.05 31.5415ZM109.354 45.065V37.687H108.225V34.5675H109.354V31.482H113.313V34.5675H114.623V37.687H113.313V45.065H109.354ZM123.454 41.2825C123.919 41.784 124.704 42.379 125.429 42.379C125.773 42.379 126.196 42.2175 126.196 41.8435C126.196 41.4695 125.851 41.2485 125.17 41.0105C123.618 40.475 122.384 39.676 122.384 37.891C122.384 35.7235 124.178 34.355 126.662 34.355C127.731 34.355 128.981 34.695 129.904 35.2135L128.55 38.0525L128.498 38.0049L128.453 37.965C128.011 37.5672 127.513 37.1175 126.895 37.1175C126.61 37.1175 126.308 37.296 126.308 37.636C126.308 38.1596 127.041 38.4393 127.469 38.6025L127.498 38.6135C128.93 39.149 130.077 39.9055 130.077 41.614C130.077 43.977 128.024 45.2945 125.825 45.2945C124.368 45.2945 123.247 44.878 121.996 44.198L123.445 41.291L123.454 41.2825ZM136.687 45.2418C136.839 45.2248 136.992 45.2078 137.148 45.201V41.6565H136.889C135.872 41.6565 135.371 40.543 135.371 39.71C135.371 38.588 135.975 37.857 137.148 37.7975V34.3975C136.863 34.372 136.605 34.355 136.32 34.355C133.259 34.355 131.301 36.973 131.301 39.778C131.301 42.583 133.017 45.286 136.079 45.286C136.285 45.286 136.486 45.2639 136.687 45.2418ZM144.65 45.065V39.7525C144.65 38.86 144.607 38.2225 143.926 38.2225C143.141 38.2225 143.098 39.0385 143.098 40.016V45.065H139.14V29.2125H143.098L143.072 34.916C143.072 35.2271 143.051 35.5331 143.032 35.8391V35.84C143.016 36.061 143.001 36.282 142.995 36.5055L143.038 36.548C143.417 35.409 144.452 34.338 145.763 34.338C148.039 34.338 148.608 36.2505 148.608 38.1375V45.0565H144.659L144.65 45.065ZM154.231 40.628C154.231 41.24 154.334 42.2345 155.162 42.2345L155.171 42.2515C155.611 42.2515 155.956 41.9285 156.033 41.512H159.905C159.465 43.9345 157.586 45.286 155.205 45.286C151.911 45.286 150.281 43.025 150.281 40.016C150.281 37.007 152.041 34.3465 155.309 34.3465C156.939 34.3465 158.129 35.018 158.896 36.055C159.922 37.4235 160.043 38.979 160.043 40.628H154.231ZM156.068 38.52C156.051 37.942 155.826 37.1855 155.119 37.1855C154.455 37.1855 154.214 37.9845 154.231 38.52H156.068ZM175.186 37.3895V37.347C176.919 37.347 178.032 36.038 178.032 34.3465C178.032 31.108 175.212 30.071 172.789 30.071H167.951V45.065H173.479C177.152 45.065 178.282 42.634 178.282 40.7895C178.282 38.7835 177.213 37.551 175.195 37.3895H175.186ZM172.401 41.818H172.064L172.047 41.206H172.064V38.9365H172.383C173.332 38.9365 174.117 39.353 174.117 40.3645C174.117 41.376 173.306 41.818 172.401 41.818ZM172.056 33.3095H172.461C173.306 33.3095 173.936 33.6835 173.936 34.5845C173.936 35.562 173.151 35.902 172.306 35.902H172.064V33.318L172.056 33.3095ZM185.586 36.174L185.431 34.5675L185.439 34.576H189.449V45.0735H185.5L185.681 43.3395L185.638 43.297C185.129 44.4105 184.206 45.286 182.913 45.286C180.17 45.286 179.644 41.7925 179.644 39.7185C179.644 37.6445 180.265 34.3465 182.99 34.3465C184.258 34.3465 185.051 35.1795 185.551 36.2165L185.586 36.174ZM185.37 41.104C185.491 40.5685 185.491 39.9735 185.491 39.676V39.591C185.5 39.302 185.508 38.8345 185.413 38.401C185.31 37.9505 185.129 37.551 184.646 37.551C184.163 37.551 183.939 38.027 183.818 38.605C183.723 39.1575 183.723 39.812 183.723 40.152C183.723 40.4495 183.741 40.9255 183.844 41.342C183.939 41.7415 184.137 42.056 184.525 42.056C185.025 42.056 185.267 41.6225 185.37 41.104ZM197.09 45.065V39.7525C197.09 38.86 197.047 38.2225 196.365 38.2225C195.581 38.2225 195.537 39.0385 195.537 40.016V45.065H191.588V29.2125H195.537L195.52 34.916C195.52 35.2271 195.5 35.5331 195.48 35.8391C195.465 36.0601 195.449 36.2811 195.443 36.5055L195.477 36.548C195.857 35.409 196.891 34.338 198.202 34.338C200.487 34.338 201.048 36.2505 201.048 38.1375V45.0565H197.098L197.09 45.065ZM207.076 36.5565L207.033 36.514L207.136 34.5675H203.186V45.065H207.136V40.016C207.136 38.9365 207.196 38.2225 207.964 38.2225C208.628 38.2225 208.688 38.86 208.688 39.7525V45.065H212.638V38.146C212.638 36.259 212.077 34.3465 209.801 34.3465C208.49 34.3465 207.455 35.4175 207.076 36.5565ZM32.2518 37.1005C32.683 36.225 36.6326 35.664 36.667 37.619V40.1775H33.9593V38.027C33.8644 37.1685 32.1742 37.5085 32.2346 38.18V40.186H29.5613V34.9415H32.2432V37.1005H32.2518ZM64.1242 34.933H47.2739V40.186H64.1242V34.933Z" fill="white"/>
<path d="M64.1328 33.4285H20.3255L16.2553 37.466L18.9803 40.1775H13.7545L12.0987 38.656C11.4779 38.0355 11.4779 37.0325 12.0987 36.412L17.109 31.3375C17.7385 30.5895 18.713 30.054 19.765 30.054H64.1242V33.42L64.1328 33.4285ZM48.4036 45.065C49.3867 45.0565 50.4043 44.6995 51.0683 43.8835L53.2931 41.6735H0V45.065H48.4036Z" fill="white"/>
<path d="M26.5862 38.01H26.6552C28.6731 38.0185 28.9059 34.9415 26.5345 34.933H21.093V40.186H23.6887V38.1205L25.2064 40.186H28.6127L26.5862 38.01ZM24.9822 37.415H23.706V36.14H24.9909C25.7756 36.14 25.8187 37.415 24.9822 37.415ZM42.2809 39.0895H40.8926V37.976H42.2723C42.9277 37.976 42.9277 39.0895 42.2809 39.0895ZM40.8926 35.885H42.2723C42.9277 35.885 42.9277 36.905 42.2723 36.905H40.8926V35.885ZM43.9108 37.432C45.8942 37.2195 45.6096 34.933 43.4796 34.933H38.2969V40.186H43.7987C46.1701 40.186 46.2046 37.5425 43.9194 37.432" fill="white"/>
</g>
<defs>
<clipPath id="clip0_1908_1197">
<rect width="213" height="17" fill="white" transform="translate(0 29)"/>
</clipPath>
</defs>
</svg>
