<svg width="213" height="17" viewBox="0 0 213 17" fill="none" xmlns="http://www.w3.org/2000/svg">
<g clip-path="url(#clip0_1891_8360)">
<path d="M118.331 0C117.081 0 116.055 1.0285 116.055 2.261H116.046C116.046 3.536 117.072 4.5475 118.366 4.5475C119.659 4.5475 120.668 3.5105 120.668 2.244C120.668 0.9775 119.582 0 118.331 0ZM120.315 5.559H116.365V16.0565H120.315V5.559ZM90.8829 16.0565V10.7525C90.8829 9.86 90.8398 9.2225 90.1585 9.2225C89.3738 9.2225 89.3306 10.0385 89.3306 11.016V16.065H85.3725V0.2125H89.3306L89.3134 5.916C89.3134 6.25515 89.2893 6.5875 89.2651 6.9207C89.2505 7.1145 89.2367 7.30915 89.2272 7.5055L89.2703 7.548C89.6497 6.409 90.6845 5.338 91.9953 5.338C94.2719 5.338 94.8411 7.2505 94.8411 9.1375V16.0565H90.8829ZM83.941 16.065L80.871 9.8175C82.5009 9.18 83.2338 7.7095 83.2338 6.0605C83.2338 2.0995 80.6554 1.071 77.0853 1.071H73.1099V16.065H77.2233V12.07C77.2233 11.6085 77.206 11.1512 77.1897 10.6922C77.1789 10.4148 77.17 10.1374 77.1629 9.86L77.1974 9.8175L79.474 16.065H83.941ZM77.2233 4.2925C78.353 4.233 79.1636 4.794 79.1636 6.103C79.1636 7.0805 78.5772 8.0155 77.4906 8.0155L77.2233 7.9985V4.2925ZM105.448 2.5415C105.448 3.4425 104.724 4.1565 103.792 4.1565V4.148C102.87 4.148 102.119 3.417 102.119 2.499C102.119 1.6405 102.835 0.9095 103.749 0.9095C104.663 0.9095 105.448 1.6405 105.448 2.5415ZM102.3 5.5675L102.464 7.174L102.43 7.2165C101.921 6.1795 101.136 5.3465 99.8685 5.3465C97.1435 5.3465 96.5226 8.6445 96.5226 10.7185C96.5226 12.7925 97.0487 16.286 99.7909 16.286C101.084 16.286 102.007 15.4105 102.516 14.297L102.559 14.3395L102.378 16.0735H106.336V5.576H102.318L102.3 5.5675ZM102.361 10.676C102.361 10.9735 102.361 11.5685 102.24 12.104C102.137 12.6225 101.895 13.056 101.395 13.056C101.015 13.056 100.809 12.7415 100.714 12.342C100.61 11.9255 100.593 11.4495 100.593 11.152C100.593 10.812 100.593 10.1575 100.696 9.605C100.817 9.027 101.041 8.551 101.524 8.551C102.007 8.551 102.188 8.9505 102.292 9.401C102.387 9.8345 102.378 10.302 102.369 10.591V10.676H102.361ZM101.05 2.5415C101.05 3.4425 100.326 4.1565 99.3943 4.1565V4.148C99.1742 4.14913 98.9562 4.10724 98.7527 4.02477C98.5492 3.9423 98.3643 3.82088 98.2088 3.66753C98.0532 3.51418 97.93 3.33195 97.8463 3.13138C97.7626 2.9308 97.7202 2.71586 97.7213 2.499C97.7213 1.6405 98.437 0.9095 99.3511 0.9095C100.265 0.9095 101.05 1.6405 101.05 2.5415ZM109.354 16.065V8.687H108.225V5.5675H109.354V2.482H113.313V5.5675H114.623V8.687H113.313V16.065H109.354ZM123.454 12.2825C123.919 12.784 124.704 13.379 125.429 13.379C125.773 13.379 126.196 13.2175 126.196 12.8435C126.196 12.4695 125.851 12.2485 125.17 12.0105C123.618 11.475 122.384 10.676 122.384 8.891C122.384 6.7235 124.178 5.355 126.662 5.355C127.731 5.355 128.981 5.695 129.904 6.2135L128.55 9.0525L128.498 9.0049L128.453 8.96495C128.011 8.56715 127.513 8.1175 126.895 8.1175C126.61 8.1175 126.308 8.296 126.308 8.636C126.308 9.1596 127.041 9.43925 127.469 9.60245L127.498 9.6135C128.93 10.149 130.077 10.9055 130.077 12.614C130.077 14.977 128.024 16.2945 125.825 16.2945C124.368 16.2945 123.247 15.878 121.996 15.198L123.445 12.291L123.454 12.2825ZM136.687 16.2418C136.839 16.2248 136.992 16.2078 137.148 16.201V12.6565H136.889C135.872 12.6565 135.371 11.543 135.371 10.71C135.371 9.588 135.975 8.857 137.148 8.7975V5.3975C136.863 5.372 136.605 5.355 136.32 5.355C133.259 5.355 131.301 7.973 131.301 10.778C131.301 13.583 133.017 16.286 136.079 16.286C136.285 16.286 136.486 16.2639 136.687 16.2418ZM144.65 16.065V10.7525C144.65 9.86 144.607 9.2225 143.926 9.2225C143.141 9.2225 143.098 10.0385 143.098 11.016V16.065H139.14V0.2125H143.098L143.072 5.916C143.072 6.2271 143.051 6.5331 143.032 6.8391V6.83995C143.016 7.06095 143.001 7.28195 142.995 7.5055L143.038 7.548C143.417 6.409 144.452 5.338 145.763 5.338C148.039 5.338 148.608 7.2505 148.608 9.1375V16.0565H144.659L144.65 16.065ZM154.231 11.628C154.231 12.24 154.334 13.2345 155.162 13.2345L155.171 13.2515C155.611 13.2515 155.956 12.9285 156.033 12.512H159.905C159.465 14.9345 157.586 16.286 155.205 16.286C151.911 16.286 150.281 14.025 150.281 11.016C150.281 8.007 152.041 5.3465 155.309 5.3465C156.939 5.3465 158.129 6.018 158.896 7.055C159.922 8.4235 160.043 9.979 160.043 11.628H154.231ZM156.068 9.52C156.051 8.942 155.826 8.1855 155.119 8.1855C154.455 8.1855 154.214 8.9845 154.231 9.52H156.068ZM175.186 8.3895V8.347C176.919 8.347 178.032 7.038 178.032 5.3465C178.032 2.108 175.212 1.071 172.789 1.071H167.951V16.065H173.479C177.152 16.065 178.282 13.634 178.282 11.7895C178.282 9.7835 177.213 8.551 175.195 8.3895H175.186ZM172.401 12.818H172.064L172.047 12.206H172.064V9.9365H172.383C173.332 9.9365 174.117 10.353 174.117 11.3645C174.117 12.376 173.306 12.818 172.401 12.818ZM172.056 4.3095H172.461C173.306 4.3095 173.936 4.6835 173.936 5.5845C173.936 6.562 173.151 6.902 172.306 6.902H172.064V4.318L172.056 4.3095ZM185.586 7.174L185.431 5.5675L185.439 5.576H189.449V16.0735H185.5L185.681 14.3395L185.638 14.297C185.129 15.4105 184.206 16.286 182.913 16.286C180.17 16.286 179.644 12.7925 179.644 10.7185C179.644 8.6445 180.265 5.3465 182.99 5.3465C184.258 5.3465 185.051 6.1795 185.551 7.2165L185.586 7.174ZM185.37 12.104C185.491 11.5685 185.491 10.9735 185.491 10.676V10.591C185.5 10.302 185.508 9.8345 185.413 9.401C185.31 8.9505 185.129 8.551 184.646 8.551C184.163 8.551 183.939 9.027 183.818 9.605C183.723 10.1575 183.723 10.812 183.723 11.152C183.723 11.4495 183.741 11.9255 183.844 12.342C183.939 12.7415 184.137 13.056 184.525 13.056C185.025 13.056 185.267 12.6225 185.37 12.104ZM197.09 16.065V10.7525C197.09 9.86 197.047 9.2225 196.365 9.2225C195.581 9.2225 195.537 10.0385 195.537 11.016V16.065H191.588V0.2125H195.537L195.52 5.916C195.52 6.2271 195.5 6.5331 195.48 6.8391C195.465 7.0601 195.449 7.2811 195.443 7.5055L195.477 7.548C195.857 6.409 196.891 5.338 198.202 5.338C200.487 5.338 201.048 7.2505 201.048 9.1375V16.0565H197.098L197.09 16.065ZM207.076 7.5565L207.033 7.514L207.136 5.5675H203.186V16.065H207.136V11.016C207.136 9.9365 207.196 9.2225 207.964 9.2225C208.628 9.2225 208.688 9.86 208.688 10.7525V16.065H212.638V9.146C212.638 7.259 212.077 5.3465 209.801 5.3465C208.49 5.3465 207.455 6.4175 207.076 7.5565ZM32.2518 8.1005C32.683 7.225 36.6326 6.664 36.667 8.619V11.1775H33.9593V9.027C33.8644 8.1685 32.1742 8.5085 32.2346 9.18V11.186H29.5613V5.9415H32.2432V8.1005H32.2518ZM64.1242 5.933H47.2739V11.186H64.1242V5.933Z" fill="white"/>
<path d="M64.1328 4.4285H20.3255L16.2553 8.466L18.9803 11.1775H13.7545L12.0987 9.656C11.4779 9.0355 11.4779 8.0325 12.0987 7.412L17.109 2.3375C17.7385 1.5895 18.713 1.054 19.765 1.054H64.1242V4.42L64.1328 4.4285ZM48.4036 16.065C49.3867 16.0565 50.4043 15.6995 51.0683 14.8835L53.2931 12.6735H0V16.065H48.4036Z" fill="white"/>
<path d="M26.5862 9.01H26.6552C28.6731 9.0185 28.9059 5.9415 26.5345 5.933H21.093V11.186H23.6887V9.1205L25.2064 11.186H28.6127L26.5862 9.01ZM24.9822 8.415H23.706V7.14H24.9909C25.7756 7.14 25.8187 8.415 24.9822 8.415ZM42.2809 10.0895H40.8926V8.976H42.2723C42.9277 8.976 42.9277 10.0895 42.2809 10.0895ZM40.8926 6.885H42.2723C42.9277 6.885 42.9277 7.905 42.2723 7.905H40.8926V6.885ZM43.9108 8.432C45.8942 8.2195 45.6096 5.933 43.4796 5.933H38.2969V11.186H43.7987C46.1701 11.186 46.2046 8.5425 43.9194 8.432" fill="white"/>
</g>
<defs>
<clipPath id="clip0_1891_8360">
<rect width="213" height="17" fill="white"/>
</clipPath>
</defs>
</svg>
