<svg id="Ebene_1" data-name="Ebene 1" xmlns="http://www.w3.org/2000/svg" viewBox="0 0 76 59"><defs><style>.cls-1{fill:#fff;}</style></defs><g id="Symbols"><g id="RT-icons_ROKT-Icon-Arrow-1-seafoamgreen-RGB" data-name="RT-icons/ROKT-Icon-Arrow-1-seafoamgreen-RGB"><path id="Path" class="cls-1" d="M74.9,46.81A116.9,116.9,0,0,1,51.28,59.39,2,2,0,0,1,48.82,58a2.06,2.06,0,0,1,1.4-2.46,110,110,0,0,0,11.55-5.37c1.85-1,3.67-2,5.46-3.13A67.91,67.91,0,0,1,35,42.81a68.06,68.06,0,0,1-16.64-9.67A48.82,48.82,0,0,1,7.24,20.28a62.26,62.26,0,0,1-4.68-9.12A36.84,36.84,0,0,1,0,2.51,2.05,2.05,0,0,1,1.43.05a2,2,0,0,1,2.46,1.4,35.07,35.07,0,0,0,2,7.44l.34.87.17.42c0,.06.08.19.1.24.29.68.6,1.35.92,2,.62,1.29,1.3,2.57,2,3.81S11,18.78,11.8,20c.38.56.76,1.12,1.16,1.68l.62.85c.09.13.19.25.29.38l.11.14.16.2a41.15,41.15,0,0,0,5.25,5.63c1.16,1,2,1.66,3.2,2.52s2.61,1.84,4,2.68a64.43,64.43,0,0,0,7.91,4.21c1.17.52,2.38,1,3.82,1.52s2.85,1,4.3,1.37,2.91.76,4.39,1.06c.66.13,1.31.26,2,.37l1.19.19.4.06.4.06c-.2,0-.18,0,.07,0a67.57,67.57,0,0,0,10.15.53,69.93,69.93,0,0,0,7.07-.52Q63,38.4,58.12,33.47A2,2,0,1,1,61,30.64a173.48,173.48,0,0,0,14.35,13c1.08.87.55,2.48-.4,3.14Z"/></g></g></svg>