<?xml version="1.0" encoding="UTF-8"?>
<svg width="53px" height="116px" viewBox="0 0 53 116" version="1.1" xmlns="http://www.w3.org/2000/svg" xmlns:xlink="http://www.w3.org/1999/xlink">
    <title>RT-icons/ROKT-Icon-Arrow-4-seafoamgreen-RGB@3x</title>
    <g id="Symbols" stroke="none" stroke-width="1" fill="none" fill-rule="evenodd">
        <g id="RT-icons/ROKT-Icon-Arrow-4-seafoamgreen-RGB" fill="#fff" fill-rule="nonzero">
            <path d="M50.63,33.6814761 C47.37,25.4814761 41.37,18.6114761 34,13.8114761 C26.92,9.2014761 18.56,6.5614761 10.13,6.2414761 C9.84,6.2314761 9.54,6.2414761 9.25,6.2414761 C10.63,5.4014761 12.01,4.5714761 13.39,3.7314761 C14.28,3.1914761 14.7,1.9114761 14.11,0.991476099 C13.53,0.0914760988 12.33,-0.308523901 11.37,0.271476099 C7.91,2.3714761 4.45,4.4614761 0.99,6.5614761 C0.38,6.9314761 0,7.5714761 0,8.2914761 C0,9.0714761 0.41,9.5714761 0.99,10.0214761 C4.45,12.6914761 7.91,15.3514761 11.37,18.0214761 C12.2,18.6614761 13.65,18.1714761 14.11,17.3014761 C14.67,16.2414761 14.28,15.2514761 13.39,14.5614761 C11.52,13.1214761 9.65,11.6714761 7.77,10.2314761 C8.52,10.2214761 9.28,10.2114761 10.03,10.2314761 C10.98,10.2614761 11.93,10.3314761 12.87,10.4314761 C13.1,10.4514761 13.33,10.4814761 13.55,10.5014761 C13.61,10.5014761 14,10.5614761 14.08,10.5714761 C14.54,10.6414761 15,10.7114761 15.45,10.7914761 C17.36,11.1214761 19.24,11.5814761 21.09,12.1514761 C22.03,12.4414761 22.96,12.7614761 23.88,13.1114761 C24.94,13.5114761 25.28,13.6614761 26.3,14.1314761 C28.06,14.9414761 29.76,15.8714761 31.4,16.9014761 C32.2,17.4114761 32.99,17.9414761 33.76,18.4914761 C33.97,18.6414761 34.18,18.8014761 34.39,18.9614761 C34.47,19.0214761 34.55,19.0814761 34.63,19.1414761 L34.67,19.1714761 L34.69,19.1714761 C35.08,19.4914761 35.46,19.8014761 35.84,20.1114761 C37.36,21.3814761 38.79,22.7614761 40.11,24.2314761 C41.53,25.8114761 42.48,27.0414761 43.64,28.8214761 C44.75,30.5214761 45.72,32.3114761 46.54,34.1714761 L46.59,34.2814761 C46.64,34.4014761 46.69,34.5214761 46.74,34.6414761 C46.82,34.8314761 46.89,35.0214761 46.96,35.2214761 C47.16,35.7314761 47.34,36.2514761 47.51,36.7714761 C47.83,37.7514761 48.1,38.7414761 48.32,39.7514761 C48.42,40.2214761 48.52,40.6914761 48.6,41.1714761 C48.64,41.4114761 48.68,41.6414761 48.71,41.8814761 L48.71,41.8814761 C48.73,42.0514761 48.75,42.2014761 48.77,42.3614761 C48.88,43.3814761 48.93,44.4014761 48.93,45.4314761 C48.93,46.4614761 48.87,47.4814761 48.76,48.5014761 C48.76,48.5714761 48.7,48.9414761 48.7,48.9814761 C48.67,49.1914761 48.64,49.3914761 48.6,49.6014761 C48.51,50.1014761 48.42,50.6114761 48.3,51.1114761 C47.42,54.9714761 45.71,58.4514761 43.11,61.2814761 C42.84,61.5814761 42.56,61.8514761 42.29,62.1314761 C42.1,61.6114761 41.89,61.1014761 41.64,60.6014761 C40.71,58.6714761 39.4,56.8914761 37.91,55.3514761 C34.71,52.0314761 30.54,49.8114761 26.18,48.4114761 C23.99,47.7114761 21.72,47.2014761 19.44,46.8814761 C17.08,46.5514761 14.71,46.4314761 12.36,46.9814761 C7.91,48.0314761 5.07,51.6514761 3.79,55.8614761 C3.18,57.8614761 2.89,59.9714761 2.78,62.0514761 C2.66,64.4514761 2.93,66.8614761 3.93,69.0614761 C5.63,72.8114761 9.6,74.8214761 13.49,75.4414761 C17.93,76.1514761 22.54,75.6514761 26.89,74.6314761 C31.28,73.5914761 35.73,71.8314761 39.65,69.3314761 C39.65,69.4614761 39.67,69.5814761 39.67,69.7214761 C39.73,71.8314761 39.6,73.9514761 39.33,76.0514761 L39.33,76.1414761 C39.3,76.2414761 39.29,76.3514761 39.27,76.4514761 C39.23,76.7214761 39.18,77.0014761 39.14,77.2714761 C39.05,77.7814761 38.96,78.3014761 38.85,78.8114761 C38.64,79.8314761 38.39,80.8414761 38.11,81.8514761 C37.84,82.8214761 37.53,83.7814761 37.19,84.7314761 C37.03,85.1914761 36.86,85.6414761 36.68,86.1014761 C36.58,86.3614761 36.47,86.6214761 36.37,86.8714761 C36.39,86.8314761 36.46,86.6614761 36.37,86.8714761 C36.3,87.0314761 36.23,87.1914761 36.16,87.3514761 C35.33,89.2314761 34.37,91.0414761 33.29,92.7914761 C32.74,93.6814761 32.16,94.5414761 31.55,95.3914761 C30.94,96.2314761 30.55,96.7314761 29.8,97.6014761 C28.52,99.1014761 27.14,100.511476 25.68,101.821476 C24.94,102.481476 24.18,103.121476 23.4,103.721476 L23.38,103.721476 C23.27,103.811476 23.17,103.891476 23.06,103.971476 C22.87,104.111476 22.68,104.251476 22.49,104.381476 C22.08,104.671476 21.67,104.961476 21.26,105.241476 C19.6,106.361476 17.86,107.361476 16.06,108.241476 C15.64,108.451476 15.22,108.651476 14.79,108.841476 C14.58,108.941476 14.36,109.031476 14.15,109.121476 C14.13,109.121476 14.03,109.171476 13.99,109.191476 C13.9,109.231476 13.8,109.271476 13.71,109.311476 C12.78,109.691476 11.84,110.031476 10.89,110.351476 C9.05,110.961476 7.17,111.441476 5.27,111.791476 C4.24,111.981476 3.56,113.281476 3.87,114.251476 C4.23,115.351476 5.23,115.851476 6.33,115.651476 C14.77,114.061476 22.71,109.991476 29.02,104.171476 C35.53,98.1714761 40.18,90.1814761 42.31,81.6014761 C43.41,77.1614761 43.98,72.4114761 43.55,67.8414761 C43.51,67.4114761 43.44,66.9814761 43.38,66.5614761 C45.74,64.5414761 47.78,62.1914761 49.31,59.4914761 C53.74,51.6714761 53.89,41.9614761 50.6,33.7014761 L50.63,33.6814761 Z M38.74,65.0914761 C36.99,66.3114761 35.12,67.3614761 33.18,68.2514761 C32.23,68.6914761 31.52,68.9914761 30.45,69.3714761 C29.4,69.7514761 28.33,70.0914761 27.25,70.3914761 C26.17,70.6914761 25.08,70.9414761 23.98,71.1414761 C22.83,71.3614761 22.13,71.4614761 21.08,71.5614761 C19.13,71.7614761 17.15,71.8314761 15.19,71.6414761 C15.12,71.6414761 14.8,71.5914761 14.72,71.5914761 L14.65,71.5914761 C14.53,71.5614761 14.41,71.5414761 14.3,71.5214761 C13.83,71.4414761 13.37,71.3414761 12.91,71.2214761 C12.51,71.1214761 12.12,71.0014761 11.73,70.8614761 C11.67,70.8414761 11.41,70.7414761 11.31,70.7114761 C11.28,70.7014761 11.25,70.6814761 11.24,70.6814761 C11.11,70.6214761 10.98,70.5614761 10.85,70.5014761 C10.49,70.3214761 10.15,70.1314761 9.81,69.9114761 C9.64,69.8014761 9.49,69.6914761 9.32,69.5714761 C9.66,69.8114761 9.09,69.3714761 9.01,69.3014761 C8.72,69.0414761 8.47,68.7514761 8.21,68.4614761 C8.16,68.3814761 8.1,68.3114761 8.05,68.2314761 C7.91,68.0214761 7.78,67.8014761 7.66,67.5814761 C7.59,67.4614761 7.54,67.3414761 7.47,67.2114761 C7.47,67.1914761 7.43,67.1114761 7.41,67.0614761 C7.33,66.8614761 7.26,66.6514761 7.2,66.4414761 C7.06,65.9814761 6.95,65.5014761 6.87,65.0214761 C6.87,64.9714761 6.82,64.6014761 6.81,64.5414761 C6.79,64.3014761 6.77,64.0514761 6.76,63.8114761 C6.74,63.2514761 6.74,62.6914761 6.77,62.1314761 C6.79,61.6514761 6.83,61.1814761 6.88,60.7014761 C6.9,60.4914761 6.93,60.2814761 6.95,60.0714761 L6.95,60.0714761 C6.97,59.9014761 7,59.7514761 7.02,59.6014761 C7.16,58.7214761 7.36,57.8414761 7.62,56.9914761 C7.74,56.5814761 7.88,56.1714761 8.03,55.7814761 C8.04,55.7514761 8.08,55.6414761 8.11,55.5814761 L8.14,55.5114761 C8.25,55.2614761 8.37,55.0214761 8.5,54.7814761 C8.69,54.4114761 8.91,54.0514761 9.14,53.7114761 C9.18,53.6514761 9.33,53.4414761 9.36,53.3914761 C9.48,53.2314761 9.61,53.0814761 9.75,52.9414761 C10.04,52.6214761 10.36,52.3314761 10.69,52.0514761 C10.78,51.9914761 10.86,51.9314761 10.95,51.8714761 C11.16,51.7314761 11.39,51.5914761 11.61,51.4714761 C11.73,51.4014761 11.85,51.3414761 11.98,51.2814761 C11.98,51.2814761 12.05,51.2514761 12.11,51.2214761 C12.18,51.1914761 12.33,51.1414761 12.35,51.1314761 C12.45,51.1014761 12.54,51.0614761 12.64,51.0314761 C13.13,50.8714761 13.64,50.7614761 14.15,50.6714761 C14.19,50.6714761 14.55,50.6214761 14.62,50.6114761 C14.86,50.5914761 15.1,50.5714761 15.35,50.5714761 C15.91,50.5514761 16.47,50.5714761 17.03,50.5914761 C17.52,50.6214761 18.01,50.6714761 18.5,50.7314761 L18.64,50.7514761 C18.72,50.7614761 18.88,50.7914761 18.9,50.7914761 C19.18,50.8314761 19.45,50.8814761 19.73,50.9314761 C21.88,51.3114761 24.01,51.8414761 26.07,52.5614761 C28.02,53.2514761 29.86,54.1214761 31.72,55.3414761 C32.1,55.5914761 32.47,55.8614761 32.84,56.1314761 C32.86,56.1414761 32.93,56.2014761 32.97,56.2314761 C33.02,56.2714761 33.08,56.3114761 33.13,56.3614761 C33.36,56.5514761 33.58,56.7414761 33.81,56.9314761 C34.52,57.5614761 35.19,58.2314761 35.81,58.9514761 C35.96,59.1214761 36.1,59.3014761 36.25,59.4714761 L36.32,59.5614761 C36.39,59.6514761 36.46,59.7514761 36.53,59.8414761 C36.82,60.2314761 37.09,60.6414761 37.34,61.0514761 C37.58,61.4414761 37.8,61.8314761 38.01,62.2414761 C38.11,62.4414761 38.21,62.6514761 38.31,62.8514761 C38.35,62.9514761 38.4,63.0414761 38.44,63.1414761 C38.45,63.1714761 38.47,63.2214761 38.49,63.2714761 C38.7,63.8114761 38.87,64.3414761 39.01,64.8714761 C38.91,64.9414761 38.82,65.0114761 38.73,65.0814761 L38.74,65.0914761 Z" id="Shape"></path>
        </g>
    </g>
</svg>