<?xml version="1.0" encoding="UTF-8"?>
<svg width="112px" height="69px" viewBox="0 0 112 69" version="1.1" xmlns="http://www.w3.org/2000/svg" xmlns:xlink="http://www.w3.org/1999/xlink">
    <title>RT-icons/ROKT-Icon-Cloud-seafoamgreen-RGB@3x</title>
    <g id="Symbols" stroke="none" stroke-width="1" fill="none" fill-rule="evenodd">
        <g id="RT-icons/ROKT-Icon-Cloud-seafoamgreen-RGB" fill="#99E0BB" fill-rule="nonzero">
            <path d="M108.19659,21.6656015 C106.20659,17.8156015 103.23659,14.4656015 99.5965901,12.1056015 C95.5665901,9.48560149 90.7965901,8.08560149 86.1065901,7.22560149 C81.2565901,6.33560149 76.1265901,6.02560149 71.3465901,7.50560149 C68.0365901,8.52560149 64.9265901,10.4956015 62.7565901,13.2156015 C62.2165901,11.2956015 61.4565901,9.43560149 60.3865901,7.73560149 C58.3965901,4.58560149 55.5065901,2.17560149 51.9965901,0.905601493 C45.5665901,-1.42439851 38.0365901,0.905601493 33.6265901,6.01560149 C31.6165901,8.34560149 30.2865901,11.0656015 29.5365901,13.9756015 C27.3065901,12.4456015 24.4365901,11.8056015 21.6965901,11.9456015 C19.7665901,12.0456015 17.9265901,12.4056015 16.1865901,13.2456015 C14.7065901,13.9556015 13.3665901,15.0056015 12.1865901,16.1356015 C9.26659009,18.9056015 7.04659009,22.4556015 5.31659009,26.0656015 C3.24659009,30.3856015 1.75659009,34.9856015 0.896590087,39.6956015 C0.376590087,42.5356015 0.0565900871,45.4256015 0.00659008712,48.3156015 C-0.0234099129,49.8456015 0.0465900871,51.3456015 0.266590087,52.8656015 C0.496590087,54.4056015 0.876590087,55.9056015 1.23659009,57.4156015 C1.95659009,60.3656015 3.96659009,62.7456015 6.74659009,63.9656015 C9.78659009,65.3056015 13.1665901,65.5956015 16.4665901,65.5856015 C20.1765901,65.5856015 23.8865901,65.1856015 27.5765901,64.8156015 C30.5165901,64.5256015 33.4765901,64.1256015 36.4265901,64.1656015 C41.9065901,64.2356015 47.3765901,65.0456015 52.8065901,65.7356015 C59.5565901,66.5956015 66.2965901,67.4956015 73.0765901,68.0556015 C79.3665901,68.5756015 85.7265901,68.8556015 91.9965901,67.9956015 C94.4965901,67.6556015 96.9265901,67.0656015 99.2365901,66.0256015 C100.16659,65.6056015 101.02659,65.0656015 101.87659,64.4956015 C103.32659,63.5356015 104.74659,62.5056015 106.06659,61.3656015 C107.20659,60.3756015 108.21659,59.2556015 108.87659,57.8856015 C109.55659,56.4756015 110.03659,54.9856015 110.38659,53.4656015 C111.19659,49.9556015 111.50659,46.3056015 111.61659,42.7156015 C111.83659,35.5856015 111.52659,28.1256015 108.19659,21.6656015 L108.19659,21.6656015 Z M64.4465901,18.0256015 C64.5765901,17.6856015 64.4765901,17.9556015 64.4465901,18.0256015 L64.4465901,18.0256015 Z M56.2765901,8.79560149 L56.1365901,8.60560149 C56.1965901,8.66560149 56.2565901,8.73560149 56.2765901,8.79560149 Z M107.53659,44.5156015 C107.48659,45.3656015 107.42659,46.2156015 107.34659,47.0656015 C107.30659,47.4856015 107.26659,47.9056015 107.21659,48.3156015 C107.19659,48.5056015 107.16659,48.6956015 107.14659,48.8956015 C107.14659,48.9356015 107.13659,48.9756015 107.12659,49.0156015 C107.12659,49.0556015 107.09659,49.1956015 107.09659,49.2556015 C106.86659,50.7856015 106.58659,52.3156015 106.15659,53.7956015 C106.05659,54.1256015 105.95659,54.4456015 105.84659,54.7756015 C105.79659,54.9156015 105.74659,55.0656015 105.69659,55.2056015 C105.67659,55.2456015 105.62659,55.3756015 105.58659,55.4856015 C105.55659,55.5556015 105.48659,55.7256015 105.46659,55.7656015 C105.39659,55.9056015 105.32659,56.0456015 105.25659,56.1856015 C105.11659,56.4456015 104.96659,56.7056015 104.80659,56.9556015 L104.78659,56.9956015 C104.68659,57.1056015 104.59659,57.2156015 104.49659,57.3256015 C104.23659,57.6056015 103.96659,57.8756015 103.68659,58.1356015 C103.39659,58.3956015 103.10659,58.6556015 102.80659,58.9056015 C102.66659,59.0256015 102.51659,59.1456015 102.36659,59.2556015 C102.28659,59.3256015 102.19659,59.3856015 102.11659,59.4556015 C102.45659,59.1856015 102.14659,59.4356015 102.07659,59.4856015 C100.96659,60.3156015 99.8265901,61.1056015 98.6465901,61.8256015 C98.2965901,62.0356015 97.9465901,62.2356015 97.5765901,62.4156015 C97.4765901,62.4656015 97.3665901,62.5156015 97.2665901,62.5656015 L97.1965901,62.5956015 C96.9665901,62.6756015 96.7465901,62.7756015 96.5165901,62.8556015 C95.4565901,63.2356015 94.3665901,63.5256015 93.2665901,63.7556015 C92.6565901,63.8856015 92.0465901,63.9856015 91.4265901,64.0756015 C91.3365901,64.0856015 90.8665901,64.1456015 91.1965901,64.1056015 C91.5465901,64.0656015 91.0465901,64.1256015 90.9565901,64.1356015 C90.6165901,64.1756015 90.2765901,64.2156015 89.9365901,64.2456015 C88.5365901,64.3856015 87.1265901,64.4656015 85.7265901,64.5056015 C82.6765901,64.5956015 79.6165901,64.4956015 76.5665901,64.3056015 C69.9565901,63.9056015 63.3865901,63.0856015 56.8165901,62.2556015 C51.1365901,61.5356015 45.4465901,60.7056015 39.7265901,60.3156015 C37.6365901,60.1756015 35.5365901,60.1056015 33.4465901,60.2756015 C29.7765901,60.5656015 26.1265901,61.0056015 22.4565901,61.3056015 C19.0965901,61.5756015 15.6865901,61.7756015 12.3365901,61.3856015 C12.2965901,61.3856015 12.2465901,61.3756015 12.2065901,61.3656015 C12.0465901,61.3356015 11.8865901,61.3156015 11.7265901,61.2856015 C11.3565901,61.2256015 10.9965901,61.1556015 10.6365901,61.0656015 C9.97659009,60.9156015 9.32659009,60.7156015 8.69659009,60.4756015 L8.66659009,60.4756015 L8.66659009,60.4556015 C8.51659009,60.3856015 8.36659009,60.3156015 8.21659009,60.2456015 C7.93659009,60.1056015 7.65659009,59.9456015 7.38659009,59.7656015 C7.27659009,59.6956015 7.15659009,59.6056015 7.04659009,59.5356015 L7.04659009,59.5356015 C6.81659009,59.3156015 6.58659009,59.1156015 6.37659009,58.8956015 C6.27659009,58.7956015 6.18659009,58.6756015 6.09659009,58.5756015 L6.07659009,58.5356015 C5.91659009,58.2856015 5.75659009,58.0356015 5.61659009,57.7756015 C5.56659009,57.6856015 5.52659009,57.5856015 5.47659009,57.4956015 C5.45659009,57.4356015 5.42659009,57.3756015 5.41659009,57.3556015 C5.29659009,57.0256015 5.19659009,56.6956015 5.11659009,56.3556015 C4.52659009,53.8556015 4.02659009,51.7656015 4.01659009,49.2856015 C4.01659009,48.1056015 4.05659009,46.9256015 4.14659009,45.7456015 C4.18659009,45.2056015 4.23659009,44.6756015 4.28659009,44.1456015 C4.35659009,43.4856015 4.40659009,43.0956015 4.46659009,42.6556015 C4.79659009,40.3956015 5.26659009,38.1456015 5.88659009,35.9456015 C6.18659009,34.8556015 6.52659009,33.7756015 6.89659009,32.7156015 C7.06659009,32.2356015 7.23659009,31.7656015 7.41659009,31.2956015 C7.50659009,31.0456015 7.60659009,30.7956015 7.70659009,30.5556015 C7.75659009,30.4356015 7.80659009,30.3156015 7.85659009,30.1856015 C7.87659009,30.1356015 7.90659009,30.0556015 7.93659009,29.9956015 C8.72659009,28.1356015 9.63659009,26.3156015 10.6765901,24.5856015 C11.1565901,23.7956015 11.6565901,23.0156015 12.1965901,22.2656015 C12.3265901,22.0856015 12.4565901,21.9056015 12.5865901,21.7256015 C12.6465901,21.6456015 12.7065901,21.5656015 12.7665901,21.4856015 L12.7665901,21.4856015 C13.0565901,21.1356015 13.3365901,20.7756015 13.6265901,20.4356015 C14.1565901,19.8356015 14.7065901,19.2556015 15.2965901,18.7256015 C15.5765901,18.4756015 15.8565901,18.2356015 16.1465901,17.9956015 C16.1565901,17.9856015 16.1765901,17.9756015 16.1865901,17.9556015 C16.1565901,17.9856015 16.1265901,18.0056015 16.0565901,18.0556015 C16.0965901,18.0256015 16.1465901,17.9856015 16.1865901,17.9556015 C16.2365901,17.9156015 16.2865901,17.8756015 16.2465901,17.9056015 L16.2665901,17.9056015 C16.4265901,17.7756015 16.5865901,17.6556015 16.7465901,17.5456015 C17.2965901,17.1756015 17.8765901,16.8956015 18.4465901,16.5856015 C18.4765901,16.5756015 18.5065901,16.5556015 18.5465901,16.5456015 C18.6865901,16.4956015 18.8365901,16.4456015 18.9765901,16.3956015 C19.3265901,16.2856015 19.6765901,16.2056015 20.0265901,16.1356015 C20.1465901,16.1156015 20.2565901,16.0956015 20.3765901,16.0756015 C20.4065901,16.0756015 20.5865901,16.0456015 20.6665901,16.0256015 L20.7265901,16.0256015 C20.9065901,15.9956015 21.0765901,15.9856015 21.2565901,15.9656015 C21.7765901,15.9256015 22.3065901,15.9056015 22.8365901,15.9256015 C23.0965901,15.9256015 23.3565901,15.9456015 23.6165901,15.9756015 C23.7265901,15.9756015 23.8465901,15.9956015 23.9565901,16.0056015 L24.0165901,16.0056015 C24.5065901,16.1056015 24.9965901,16.2056015 25.4765901,16.3556015 C25.6965901,16.4256015 25.9065901,16.5056015 26.1165901,16.5856015 C26.1565901,16.6056015 26.4165901,16.7256015 26.5065901,16.7656015 C26.7465901,16.8856015 26.9765901,17.0256015 27.1965901,17.1656015 C27.2865901,17.2256015 27.3665901,17.2856015 27.4565901,17.3456015 L27.4865901,17.3656015 L27.4865901,17.3656015 C27.6465901,17.5456015 27.8465901,17.6856015 28.0165901,17.8556015 C28.0965901,17.9356015 28.1665901,18.0056015 28.2365901,18.0856015 C28.2565901,18.1056015 28.3265901,18.1856015 28.3765901,18.2556015 C28.4165901,18.3056015 28.4565901,18.3656015 28.4765901,18.3856015 C28.5565901,18.5056015 28.6265901,18.6156015 28.7065901,18.7356015 C28.8565901,18.9756015 28.9865901,19.2256015 29.1065901,19.4856015 C29.4665901,20.2456015 30.5765901,20.6556015 31.3665901,20.4056015 C32.2365901,20.1256015 32.7865901,19.3956015 32.8365901,18.4756015 C32.8665901,18.0056015 32.9065901,17.5356015 32.9565901,17.0656015 L32.9565901,17.0656015 C32.9565901,17.0656015 32.9565901,17.0556015 32.9565901,17.0456015 C32.9565901,17.0156015 32.9565901,16.9956015 32.9665901,16.9656015 C32.9765901,16.8756015 32.9865901,16.7856015 33.0065901,16.7056015 C33.0465901,16.4556015 33.0865901,16.2156015 33.1365901,15.9756015 C33.3065901,15.1156015 33.5365901,14.2656015 33.8265901,13.4456015 C33.9065901,13.2256015 33.9865901,13.0156015 34.0665901,12.7956015 C34.0865901,12.7456015 34.1065901,12.6856015 34.1365901,12.6356015 C34.3265901,12.2356015 34.5065901,11.8356015 34.7165901,11.4456015 C35.0965901,10.7356015 35.5365901,10.0456015 36.0165901,9.39560149 C36.0465901,9.35560149 36.0565901,9.33560149 36.0765901,9.31560149 C36.0965901,9.29560149 36.1065901,9.28560149 36.1265901,9.25560149 C36.2365901,9.12560149 36.3465901,8.98560149 36.4665901,8.85560149 C36.7365901,8.54560149 37.0165901,8.23560149 37.3165901,7.94560149 C37.5865901,7.68560149 37.8565901,7.42560149 38.1465901,7.18560149 C38.2565901,7.09560149 38.3565901,7.00560149 38.4665901,6.91560149 C38.4665901,6.91560149 38.4565901,6.91560149 38.4465901,6.91560149 C38.4465901,6.91560149 38.4565901,6.91560149 38.4665901,6.91560149 L38.5365901,6.86560149 C38.6065901,6.81560149 38.6365901,6.79560149 38.6565901,6.78560149 C38.6865901,6.75560149 38.7165901,6.73560149 38.7365901,6.71560149 C39.3365901,6.27560149 39.9765901,5.87560149 40.6365901,5.52560149 C40.9565901,5.35560149 41.2765901,5.20560149 41.6065901,5.05560149 L41.6365901,5.05560149 L41.6765901,5.02560149 C41.8765901,4.94560149 42.0665901,4.87560149 42.2665901,4.80560149 C42.9565901,4.56560149 43.6565901,4.37560149 44.3665901,4.23560149 C44.5265901,4.20560149 44.6865901,4.17560149 44.8365901,4.14560149 C44.8865901,4.14560149 44.9465901,4.12560149 44.9965901,4.11560149 C45.3565901,4.08560149 45.7065901,4.04560149 46.0665901,4.02560149 C46.7765901,3.99560149 47.4965901,4.02560149 48.2065901,4.09560149 C48.2365901,4.09560149 48.2665901,4.09560149 48.2965901,4.09560149 L48.3365901,4.09560149 C48.3865901,4.11560149 48.4465901,4.12560149 48.4965901,4.12560149 C48.4765901,4.12560149 48.4665901,4.12560149 48.4465901,4.12560149 C48.5665901,4.14560149 48.6965901,4.16560149 48.8165901,4.18560149 C49.1965901,4.25560149 49.5665901,4.34560149 49.9365901,4.44560149 C50.2465901,4.53560149 50.5565901,4.62560149 50.8565901,4.73560149 C51.0265901,4.79560149 51.1965901,4.86560149 51.3665901,4.92560149 C51.4265901,4.95560149 51.4865901,4.97560149 51.5465901,5.00560149 C52.2365901,5.32560149 52.8965901,5.69560149 53.5165901,6.12560149 C53.6565901,6.21560149 53.7865901,6.31560149 53.9265901,6.41560149 L53.9665901,6.44560149 L53.9965901,6.47560149 C54.3165901,6.73560149 54.6265901,7.00560149 54.9265901,7.29560149 C55.2065901,7.56560149 55.4765901,7.84560149 55.7265901,8.13560149 C55.8465901,8.26560149 55.9665901,8.40560149 56.0765901,8.54560149 C56.0865901,8.56560149 56.1165901,8.58560149 56.1365901,8.60560149 L56.1765901,8.65560149 C56.2165901,8.71560149 56.2665901,8.77560149 56.3065901,8.83560149 C56.8765901,9.60560149 57.3665901,10.4356015 57.7965901,11.2956015 C57.9065901,11.5156015 58.0065901,11.7356015 58.1065901,11.9556015 C58.1465901,12.0456015 58.1865901,12.1356015 58.2265901,12.2256015 C58.2465901,12.2656015 58.2565901,12.3056015 58.2665901,12.3356015 C58.4665901,12.8356015 58.6365901,13.3456015 58.7965901,13.8556015 C59.1365901,14.9656015 59.3865901,16.1056015 59.5665901,17.2456015 C59.5765901,17.3256015 59.5865901,17.4056015 59.6065901,17.4856015 C59.5865901,17.3656015 59.6465901,17.8056015 59.6565901,17.8956015 C59.6865901,18.2056015 59.7165901,18.5056015 59.7465901,18.8156015 C59.8065901,19.5156015 59.8365901,20.2056015 59.8465901,20.9056015 C59.8665901,21.9556015 60.7565901,22.9556015 61.8465901,22.9056015 C62.9465901,22.8556015 63.8165901,22.0256015 63.8465901,20.9056015 C63.8465901,20.6756015 63.8665901,20.4356015 63.8865901,20.2056015 L63.8865901,20.1556015 C63.8965901,20.0856015 63.9165901,19.9856015 63.9165901,19.9556015 C63.9965901,19.4956015 64.1065901,19.0456015 64.2565901,18.6056015 C64.3165901,18.4156015 64.3865901,18.2256015 64.4665901,18.0356015 L64.4665901,18.0356015 C64.5165901,17.9256015 64.5665901,17.8156015 64.6165901,17.7156015 C64.8265901,17.2956015 65.0565901,16.8856015 65.3165901,16.4956015 C65.4265901,16.3256015 65.5465901,16.1556015 65.6665901,15.9856015 C65.6865901,15.9656015 65.7565901,15.8656015 65.7965901,15.8156015 L65.8465901,15.7556015 C66.1565901,15.3856015 66.4765901,15.0256015 66.8265901,14.6856015 C67.1565901,14.3656015 67.4965901,14.0556015 67.8465901,13.7656015 C67.8665901,13.7456015 67.9665901,13.6656015 68.0265901,13.6256015 L68.1065901,13.5656015 C68.3365901,13.4056015 68.5565901,13.2456015 68.7865901,13.0956015 C69.1765901,12.8456015 69.5765901,12.6056015 69.9865901,12.3856015 C70.1765901,12.2856015 70.3665901,12.1856015 70.5665901,12.0856015 C70.6765901,12.0356015 70.7865901,11.9756015 70.9065901,11.9256015 C70.9365901,11.9156015 71.0265901,11.8756015 71.0965901,11.8456015 C72.0565901,11.4556015 73.0665901,11.1556015 74.0765901,10.9356015 C75.2665901,10.6756015 75.9565901,10.5856015 77.1965901,10.5156015 C78.3565901,10.4456015 79.5265901,10.4556015 80.6865901,10.5256015 C84.9165901,10.7856015 89.5065901,11.7956015 93.6365901,13.4556015 C93.8665901,13.5456015 93.8165901,13.5256015 94.1665901,13.6856015 C94.3965901,13.7856015 94.6365901,13.8956015 94.8665901,14.0056015 C95.3965901,14.2556015 95.9065901,14.5256015 96.4165901,14.8156015 C96.8865901,15.0856015 97.3565901,15.3656015 97.8065901,15.6756015 C98.0065901,15.8056015 98.1965901,15.9456015 98.3965901,16.0756015 C98.5065901,16.1556015 98.6065901,16.2256015 98.7165901,16.3056015 C98.7365901,16.3256015 98.8465901,16.4056015 98.8965901,16.4456015 C99.6465901,17.0456015 100.35659,17.6856015 101.01659,18.3656015 C101.35659,18.7156015 101.67659,19.0756015 101.99659,19.4356015 C102.14659,19.6056015 102.28659,19.7856015 102.42659,19.9556015 L102.50659,20.0556015 C102.59659,20.1656015 102.67659,20.2856015 102.75659,20.3956015 C103.34659,21.1956015 103.88659,22.0356015 104.37659,22.9056015 C104.59659,23.2956015 104.80659,23.6956015 105.00659,24.0956015 C105.11659,24.3256015 105.22659,24.5556015 105.33659,24.7956015 C105.38659,24.9156015 105.44659,25.0256015 105.49659,25.1456015 L105.52659,25.2156015 C106.27659,27.0456015 106.81659,28.9556015 107.13659,30.9056015 C107.16659,31.0856015 107.19659,31.2656015 107.21659,31.4456015 L107.21659,31.4656015 C107.25659,31.7756015 107.29659,32.0856015 107.32659,32.3856015 C107.39659,33.0856015 107.45659,33.7856015 107.50659,34.4856015 C107.61659,36.0656015 107.67659,37.6556015 107.69659,39.2356015 C107.71659,40.9856015 107.67659,42.7456015 107.58659,44.4956015 L107.53659,44.5156015 Z" id="Shape"></path>
            <path d="M32.9665901,16.9756015 C32.9665901,16.9756015 32.9665901,17.0256015 32.9565901,17.0556015 L32.9565901,17.0556015 L32.9565901,17.0756015 C33.0865901,16.6756015 33.0165901,16.8056015 32.9765901,16.9756015 L32.9665901,16.9756015 Z" id="Path"></path>
            <path d="M38.6365901,6.77560149 C38.5765901,6.83560149 38.4965901,6.89560149 38.4565901,6.91560149 L38.4565901,6.91560149 C38.5765901,6.91560149 38.7165901,6.75560149 38.6465901,6.77560149 L38.6365901,6.77560149 Z" id="Path"></path>
            <path d="M48.4365901,4.12560149 C48.4365901,4.12560149 48.3665901,4.11560149 48.3265901,4.10560149 C48.2865901,4.10560149 48.2465901,4.09560149 48.2065901,4.09560149 L48.1965901,4.09560149 C48.0765901,4.09560149 48.0465901,4.12560149 48.4365901,4.12560149 L48.4365901,4.12560149 Z" id="Path"></path>
            <polygon id="Path" points="16.1765901 17.9556015 16.1765901 17.9556015 16.2465901 17.9056015 16.1865901 17.9556015"></polygon>
        </g>
    </g>
</svg>