<?xml version="1.0" encoding="UTF-8"?>
<svg width="99px" height="68px" viewBox="0 0 99 68" version="1.1" xmlns="http://www.w3.org/2000/svg" xmlns:xlink="http://www.w3.org/1999/xlink">
    <title>RT-icons/ROKT-Icon-Email-seafoamgreen-RGB@3x</title>
    <g id="Symbols" stroke="none" stroke-width="1" fill="none" fill-rule="evenodd">
        <g id="RT-icons/ROKT-Icon-Email-seafoamgreen-RGB" fill="#99E0BB" fill-rule="nonzero">
            <path d="M98.4562851,62.2524024 C98.3562851,59.5724024 98.1162851,56.8924024 97.9462851,54.2224024 C97.7762851,51.5724024 97.6962851,48.9224024 97.6662851,46.2724024 C97.5962851,41.0424024 97.7762851,35.8024024 97.5962851,30.5724024 C97.5062851,28.0824024 97.3462851,25.5924024 97.1662851,23.1124024 C97.0662851,21.6024024 96.9262851,20.1024024 96.9062851,18.5924024 C96.8862851,15.8824024 96.9062851,13.1824024 96.8062851,10.4724024 C96.7562851,9.04240245 96.6662851,7.61240245 96.4662851,6.19240245 C96.3162851,5.12240245 96.0362851,3.90240245 95.0262851,3.31240245 C94.4162851,2.95240245 93.5962851,2.96240245 92.9062851,2.90240245 C92.2262851,2.84240245 91.5462851,2.80240245 90.8662851,2.79240245 C89.5962851,2.76240245 88.3162851,2.79240245 87.0462851,2.84240245 C84.4562851,2.93240245 81.8762851,2.99240245 79.2862851,2.96240245 C73.8462851,2.90240245 68.4262851,2.60240245 62.9862851,2.36240245 C57.5562851,2.12240245 52.1262851,1.92240245 46.7062851,1.48240245 C41.2362851,1.04240245 35.7762851,0.572402448 30.2962851,0.262402448 C24.8562851,-0.0475975524 19.4162851,-0.0375975524 13.9662851,0.0624024476 C11.3262851,0.112402448 8.68628512,0.162402448 6.04628512,0.162402448 C4.99628512,0.162402448 3.99628512,1.08240245 4.04628512,2.16240245 C4.09628512,3.24240245 4.92628512,4.16240245 6.04628512,4.16240245 C10.4262851,4.16240245 14.7962851,4.02240245 19.1762851,3.99240245 C23.5462851,3.96240245 27.9062851,4.11240245 32.2762851,4.38240245 C40.9562851,4.92240245 49.6062851,5.77240245 58.2962851,6.15240245 C66.8962851,6.53240245 75.5462851,7.19240245 84.1662851,6.94240245 C85.4962851,6.90240245 86.8262851,6.85240245 88.1562851,6.81240245 C85.7562851,9.06240245 83.2562851,11.2224024 80.7162851,13.3024024 C80.2862851,13.6524024 79.8562851,14.0024024 79.4162851,14.3424024 C79.3362851,14.4024024 78.9462851,14.7024024 79.3662851,14.3824024 C79.2562851,14.4624024 79.1462851,14.5524024 79.0362851,14.6324024 C78.8262851,14.7924024 78.6162851,14.9424024 78.4062851,15.1024024 C77.5962851,15.6924024 76.7562851,16.2224024 75.8762851,16.7224024 C72.6962851,18.5424024 69.4362851,20.2124024 66.1762851,21.8724024 C62.8962851,23.5424024 59.6562851,25.2524024 56.3962851,26.9624024 C54.7962851,27.8024024 53.1462851,28.5624024 51.5362851,29.3824024 C50.8062851,29.7524024 50.1162851,30.2124024 49.3762851,30.5724024 C48.7362851,30.8824024 48.0862851,31.1624024 47.4662851,31.5124024 C47.4262851,31.4724024 47.3762851,31.4324024 47.3362851,31.3924024 C46.6262851,30.7824024 45.9262851,30.1624024 45.2062851,29.5524024 C43.7662851,28.3224024 42.2862851,27.1324024 40.7462851,26.0424024 C37.8062851,23.9624024 34.6262851,22.2524024 31.6762851,20.2024024 C28.3762851,17.9024024 25.0062851,15.7124024 21.5362851,13.6724024 C19.7662851,12.6224024 17.9662851,11.6224024 16.1362851,10.6624024 C14.3362851,9.72240245 12.5162851,8.81240245 10.8062851,7.70240245 C9.92628512,7.13240245 8.55628512,7.49240245 8.06628512,8.42240245 C7.53628512,9.41240245 7.84628512,10.5524024 8.78628512,11.1624024 C11.8862851,13.1624024 15.2962851,14.6824024 18.4862851,16.5224024 C21.7062851,18.3824024 24.8762851,20.3524024 27.9362851,22.4624024 C29.4762851,23.5224024 30.9862851,24.6224024 32.5762851,25.5824024 C34.1162851,26.5124024 35.6662851,27.4324024 37.1662851,28.4324024 C38.6962851,29.4524024 40.0362851,30.4324024 41.3962851,31.5624024 C42.7962851,32.7224024 44.1162851,33.9724024 45.5362851,35.1024024 C46.4462851,35.8224024 47.4962851,36.1224024 48.5762851,35.5424024 C49.2662851,35.1724024 49.8962851,34.7324024 50.6162851,34.4024024 C52.2462851,33.6524024 53.7962851,32.7324024 55.4162851,31.9524024 C58.8062851,30.3124024 62.0862851,28.4524024 65.4362851,26.7424024 C68.7662851,25.0424024 72.1162851,23.3724024 75.3962851,21.5824024 C77.7062851,20.3224024 79.8762851,19.0224024 81.9562851,17.4124024 C85.6862851,14.5124024 89.2962851,11.3524024 92.6762851,8.03240245 C92.7662851,9.12240245 92.8062851,10.2124024 92.8362851,11.3024024 C92.8962851,13.5124024 92.8962851,15.7224024 92.9062851,17.9324024 C92.9162851,20.6224024 93.1862851,23.3024024 93.3562851,25.9824024 C93.8862851,34.3024024 93.4562851,42.6324024 93.7762851,50.9624024 C93.9362851,55.2324024 94.4162851,59.4824024 94.4862851,63.7424024 C94.4862851,63.8024024 94.4862851,63.8624024 94.4862851,63.9124024 C94.0462851,64.0024024 93.7262851,64.0524024 93.3962851,64.0824024 C91.3762851,64.2724024 89.3362851,64.1324024 87.3162851,64.0324024 C82.9662851,63.8024024 78.6362851,63.4324024 74.2962851,63.1024024 C70.0062851,62.7824024 65.7262851,62.8124024 61.4262851,62.8324024 C57.0562851,62.8524024 52.6762851,62.6324024 48.3062851,62.5624024 C43.9062851,62.4924024 39.5062851,62.4624024 35.1062851,62.4624024 C26.3462851,62.4624024 17.5962851,62.8924024 8.83628512,62.8824024 C7.75628512,62.8824024 6.67628512,62.8824024 5.59628512,62.8824024 C5.34628512,62.8824024 5.09628512,62.8724024 4.84628512,62.8824024 C4.62628512,62.9024024 4.41628512,62.9524024 4.20628512,62.9724024 L4.17628512,62.9724024 L4.17628512,62.9424024 C4.13628512,62.7324024 4.10628512,62.5324024 4.05628512,62.3324024 C4.03628512,62.2424024 4.01628512,62.2024024 4.00628512,62.1724024 C4.00628512,62.1424024 4.00628512,62.1024024 4.00628512,62.0324024 C3.98628512,61.1424024 4.02628512,60.2524024 4.03628512,59.3724024 C4.05628512,57.5224024 4.18628512,55.6724024 4.32628512,53.8324024 C4.60628512,50.1224024 4.43628512,46.3924024 4.43628512,42.6724024 C4.43628512,35.0024024 4.50628512,27.3324024 4.43628512,19.6724024 C4.39628512,15.3124024 4.05628512,10.9724024 4.03628512,6.61240245 C4.03628512,5.56240245 3.11628512,4.56240245 2.03628512,4.61240245 C0.956285121,4.66240245 0.0362851213,5.49240245 0.0362851213,6.61240245 C0.0562851213,12.0424024 0.436285121,17.4524024 0.436285121,22.8824024 C0.436285121,28.3224024 0.436285121,33.7624024 0.436285121,39.2124024 C0.436285121,41.9424024 0.436285121,44.6824024 0.476285121,47.4124024 C0.506285121,50.0924024 0.396285121,52.7324024 0.206285121,55.4024024 C0.116285121,56.7224024 0.0462851213,58.0524024 0.0362851213,59.3724024 C0.0262851213,60.6824024 -0.0937148787,62.0024024 0.166285121,63.3024024 C0.276285121,63.8524024 0.326285121,64.4224024 0.456285121,64.9624024 C0.726285121,66.0624024 1.50628512,66.6024024 2.56628512,66.8324024 C3.40628512,67.0124024 4.08628512,66.9324024 4.92628512,66.8924024 C5.33628512,66.8724024 6.10628512,66.8924024 6.70628512,66.8924024 C17.6662851,66.8624024 28.6162851,66.4324024 39.5762851,66.4824024 C45.0962851,66.5124024 50.6162851,66.5824024 56.1362851,66.7624024 C61.5262851,66.9424024 66.9262851,66.6324024 72.3062851,66.9824024 C77.6862851,67.3224024 83.0462851,67.8324024 88.4362851,68.1124024 C90.9862851,68.2424024 93.6262851,68.3224024 96.1262851,67.6624024 C97.1862851,67.3824024 98.1062851,66.7424024 98.3862851,65.6324024 C98.6462851,64.5924024 98.4762851,63.3624024 98.4362851,62.3124024 L98.4562851,62.2524024 Z" id="Path"></path>
        </g>
    </g>
</svg>