<?xml version="1.0" encoding="UTF-8"?>
<svg width="80px" height="110px" viewBox="0 0 80 110" version="1.1" xmlns="http://www.w3.org/2000/svg" xmlns:xlink="http://www.w3.org/1999/xlink">
    <title>RT-icons/ROKT-Icon-Rocket-seafoamgreen-RGB@3x</title>
    <g id="Symbols" stroke="none" stroke-width="1" fill="none" fill-rule="evenodd">
        <g id="RT-icons/ROKT-Icon-Rocket-seafoamgreen-RGB" fill="#99E0BB" fill-rule="nonzero">
            <path d="M35.7617642,46.1857158 C39.4617642,46.2857158 43.1717642,46.3857158 46.8717642,46.4857158 C47.9217642,46.5157158 48.9217642,45.5457158 48.8717642,44.4857158 C48.8217642,43.3757158 47.9917642,42.5157158 46.8717642,42.4857158 C43.1717642,42.3857158 39.4617642,42.2857158 35.7617642,42.1857158 C34.7117642,42.1557158 33.7117642,43.1257158 33.7617642,44.1857158 C33.8117642,45.2957158 34.6417642,46.1557158 35.7617642,46.1857158 Z" id="Path"></path>
            <path d="M79.8417642,90.1257158 C79.7717642,87.9357158 79.7117642,85.7557158 79.6417642,83.5657158 C79.5717642,81.3857158 79.7017642,78.9657158 78.4717642,77.0457158 C77.3617642,75.3157158 75.5617642,74.1557158 74.0717642,72.7757158 C72.6617642,71.4657158 71.3517642,70.0557158 70.0817642,68.6057158 C67.3417642,65.4857158 64.7117642,62.3057158 61.5617642,59.5857158 C61.5617642,57.1257158 61.5617642,54.6757158 61.5617642,52.2157158 C61.5617642,48.5957158 61.6217642,44.9757158 61.3217642,41.3657158 C61.0517642,38.1557158 60.3817642,35.0257158 59.7617642,31.8657158 C58.6417642,26.1957158 57.5017642,20.3557158 54.7117642,15.2257158 C51.5117642,9.3357158 46.5417642,4.9657158 41.6017642,0.565715801 C40.6117642,-0.324284199 39.1917642,-0.144284199 38.4617642,0.965715801 C37.6317642,2.2257158 36.8317642,3.1457158 35.7017642,4.3157158 C34.6217642,5.4457158 33.4917642,6.5157158 32.4017642,7.6357158 C30.2817642,9.8257158 28.4217642,12.2557158 26.9317642,14.9257158 C24.0317642,20.1257158 22.4517642,25.9557158 21.5717642,31.8157158 C20.6017642,38.3057158 20.3617642,44.8757158 20.2417642,51.4257158 C20.2017642,53.9157158 20.1817642,56.4057158 20.1817642,58.8957158 C20.0917642,58.9557158 20.0017642,59.0157158 19.9117642,59.0857158 C16.8017642,61.6557158 14.0517642,64.5757158 11.2917642,67.4957158 C9.95176419,68.9157158 8.60176419,70.3157158 7.19176419,71.6657158 C6.43176419,72.3957158 5.64176419,73.1057158 4.84176419,73.7857158 C4.09176419,74.4257158 3.28176419,75.0257158 2.60176419,75.7457158 C1.82176419,76.5657158 1.23176419,77.4957158 0.881764194,78.5757158 C0.541764194,79.6157158 0.491764194,80.7557158 0.461764194,81.8357158 C0.391764194,84.0557158 0.331764194,86.2857158 0.261764194,88.5057158 C0.191764194,90.6957158 0.131764194,92.8757158 0.0617641942,95.0657158 C0.0317641942,96.1857158 -0.148235806,97.4157158 0.291764194,98.4857158 C0.841764194,99.7957158 2.12176419,100.245716 3.46176419,100.255716 C7.52176419,100.255716 11.5817642,100.245716 15.6417642,100.235716 C16.6917642,100.235716 17.6917642,99.3157158 17.6417642,98.2357158 C17.5917642,97.1557158 16.7617642,96.2357158 15.6417642,96.2357158 C12.3717642,96.2357158 9.10176419,96.2457158 5.83176419,96.2557158 C5.25176419,96.2557158 4.63176419,96.2157158 4.03176419,96.2157158 C4.04176419,95.8357158 4.05176419,95.4557158 4.06176419,95.0757158 C4.12176419,93.0157158 4.18176419,90.9457158 4.24176419,88.8857158 C4.30176419,86.8257158 4.36176419,84.7557158 4.42176419,82.6957158 C4.43176419,82.2257158 4.44176419,81.7557158 4.47176419,81.2857158 C4.48176419,81.0657158 4.50176419,80.8457158 4.51176419,80.6157158 C4.51176419,80.5257158 4.51176419,80.4657158 4.52176419,80.4357158 C4.53176419,80.3957158 4.54176419,80.3457158 4.56176419,80.2757158 C4.61176419,80.0657158 4.66176419,79.8557158 4.72176419,79.6357158 C4.75176419,79.5357158 4.76176419,79.4857158 4.76176419,79.4557158 C4.78176419,79.4357158 4.80176419,79.4057158 4.86176419,79.3157158 C5.17176419,78.8157158 5.14176419,78.8357158 5.56176419,78.4257158 C6.90176419,77.0857158 8.46176419,75.9557158 9.84176419,74.6457158 C11.1817642,73.3757158 12.4617642,72.0557158 13.7317642,70.7157158 C15.8417642,68.4857158 17.9317642,66.2457158 20.1717642,64.1557158 C20.1917642,67.1757158 20.2117642,70.1957158 20.2317642,73.2157158 C20.2917642,81.4357158 20.3417642,89.6457158 20.4017642,97.8657158 C20.4017642,98.5957158 20.8517642,99.2957158 21.4917642,99.6457158 C21.8417642,100.205716 22.4417642,100.605716 23.1517642,100.585716 C25.0017642,100.515716 26.8417642,100.435716 28.6917642,100.355716 C28.0617642,101.115716 27.5017642,101.935716 27.0017642,102.805716 C26.6717642,103.385716 26.3417642,103.955716 25.9617642,104.505716 C25.9617642,104.505716 25.7917642,104.735716 25.7617642,104.785716 C25.6517642,104.915716 25.5517642,105.045716 25.4317642,105.175716 C25.1317642,105.515716 24.8017642,105.825716 24.4717642,106.125716 C23.1517642,107.315716 24.2217642,109.525716 25.8817642,109.535716 C36.4417642,109.595716 47.0017642,109.285716 57.5317642,108.605716 C58.9117642,108.515716 60.2017642,106.925716 59.2617642,105.595716 C57.7617642,103.485716 56.3317642,101.325716 54.9417642,99.1257158 C56.1517642,99.0557158 57.3517642,98.9957158 58.5617642,98.9257158 C58.8417642,99.0757158 59.1417642,99.1657158 59.4717642,99.1457158 C60.5517642,99.0957158 61.4717642,98.2657158 61.4717642,97.1457158 C61.4817642,86.4557158 61.5017642,75.7657158 61.5117642,65.0757158 C62.9917642,66.5857158 64.4017642,68.1657158 65.7817642,69.7757158 C68.1817642,72.5757158 70.6617642,75.2157158 73.4917642,77.5857158 C73.8117642,77.8557158 74.1317642,78.1257158 74.4217642,78.4257158 C74.5417642,78.5457158 74.6617642,78.6757158 74.7817642,78.8157158 C74.8017642,78.8457158 75.0217642,79.1457158 75.0217642,79.1457158 C75.2417642,79.5057158 75.2617642,79.5657158 75.3817642,80.0657158 C75.3817642,80.0457158 75.4417642,80.4157158 75.4617642,80.4857158 C75.4917642,80.7557158 75.5117642,81.0257158 75.5217642,81.2857158 C75.6217642,83.3157158 75.6517642,85.3657158 75.7117642,87.3957158 C75.7717642,89.4557158 75.8317642,91.5257158 75.8917642,93.5857158 C75.9217642,94.4757158 75.9417642,95.3657158 75.9717642,96.2557158 C75.8117642,96.2557158 75.6517642,96.2557158 75.4817642,96.2557158 C72.0517642,96.2557158 68.6317642,96.2457158 65.2017642,96.2357158 C64.1517642,96.2357158 63.1517642,97.1557158 63.2017642,98.2357158 C63.2517642,99.3157158 64.0817642,100.235716 65.2017642,100.235716 C68.4517642,100.235716 71.6917642,100.245716 74.9417642,100.255716 C76.0617642,100.255716 77.3417642,100.415716 78.3717642,99.9057158 C79.5717642,99.3157158 80.0017642,98.0757158 79.9824274,96.8057158 C79.9517642,94.5757158 79.8517642,92.3457158 79.7817642,90.1257158 L79.8417642,90.1257158 Z M24.2217642,54.4057158 C24.2817642,47.8557158 24.4117642,41.2757158 25.1917642,34.7657158 C25.2317642,34.4657158 25.2617642,34.1657158 25.3017642,33.8657158 C25.3117642,33.7757158 25.3517642,33.5057158 25.3517642,33.4957158 C25.3717642,33.3657158 25.3917642,33.2257158 25.4117642,33.0957158 C25.5217642,32.3257158 25.6517642,31.5657158 25.7817642,30.8057158 C26.0317642,29.3857158 26.3317642,27.9857158 26.6917642,26.5857158 C27.0517642,25.1757158 27.4717642,23.7757158 27.9517642,22.3957158 C28.1917642,21.7157158 28.4517642,21.0357158 28.7217642,20.3657158 C28.7217642,20.3457158 28.7517642,20.3057158 28.7617642,20.2657158 C28.8317642,20.0957158 28.9117642,19.9257158 28.9817642,19.7657158 C29.1417642,19.4057158 29.3117642,19.0557158 29.4817642,18.6957158 C30.1717642,17.2857158 30.9417642,15.9157158 31.8217642,14.6157158 C32.2917642,13.9157158 32.7317642,13.3157158 33.0917642,12.8757158 C33.6317642,12.2057158 34.2017642,11.5657158 34.7917642,10.9357158 C36.6917642,8.9257158 38.7417642,7.0557158 40.4917642,4.9157158 C42.1317642,6.3657158 43.7517642,7.8357158 45.2917642,9.3857158 C46.2517642,10.3457158 47.1617642,11.3457158 48.0317642,12.3957158 C48.2017642,12.6057158 48.3817642,12.8257158 48.5517642,13.0357158 C48.6017642,13.1057158 48.7517642,13.2957158 48.7617642,13.3057158 C48.8717642,13.4557158 48.9817642,13.6057158 49.0917642,13.7657158 C49.5017642,14.3357158 49.8917642,14.9257158 50.2617642,15.5157158 C51.0317642,16.7557158 51.7217642,18.0457158 52.3317642,19.3757158 C52.3517642,19.4057158 52.3717642,19.4757158 52.3917642,19.5257158 C52.4417642,19.6557158 52.4917642,19.7857158 52.5517642,19.9157158 C52.6617642,20.1857158 52.7617642,20.4657158 52.8617642,20.7357158 C53.1117642,21.4257158 53.3417642,22.1257158 53.5517642,22.8357158 C54.3817642,25.5957158 55.0017642,28.4157158 55.5817642,31.2357158 C55.8517642,32.5657158 56.1117642,33.9057158 56.3717642,35.2357158 C56.6517642,36.6557158 57.0117642,38.3157158 57.1517642,39.5657158 C57.5617642,43.0657158 57.5817642,46.5757158 57.5817642,50.0957158 C57.5817642,57.4757158 57.5617642,64.8557158 57.5517642,72.2457158 C57.5517642,79.8257158 57.5317642,87.3957158 57.5217642,94.9757158 C48.7417642,95.4657158 39.9617642,95.8957158 31.1717642,96.2657158 C28.9217642,96.3557158 26.6817642,96.4457158 24.4317642,96.5257158 C24.3217642,82.4857158 24.0817642,68.4257158 24.2217642,54.3857158 L24.2217642,54.4057158 Z M50.4817642,99.3757158 C50.5217642,99.5057158 50.5817642,99.6457158 50.6617642,99.7657158 C51.7117642,101.475716 52.8117642,103.145716 53.9317642,104.815716 C45.9917642,105.265716 38.0417642,105.505716 30.0917642,105.535716 C30.1717642,105.395716 30.2617642,105.265716 30.3417642,105.135716 C30.6717642,104.555716 31.0017642,103.985716 31.3817642,103.435716 C31.3817642,103.435716 31.5517642,103.205716 31.5817642,103.155716 C31.6917642,103.025716 31.7917642,102.895716 31.9117642,102.775716 C32.2117642,102.435716 32.5417642,102.125716 32.8717642,101.825716 C33.3117642,101.425716 33.4917642,100.795716 33.4317642,100.185716 C39.1117642,99.9457158 44.8017642,99.6857158 50.4817642,99.3857158 L50.4817642,99.3757158 Z M76.8517642,96.2257158 C76.9317642,96.2057158 77.0117642,96.2057158 77.0717642,96.2357158 C77.0417642,96.2157158 76.9517642,96.2157158 76.8517642,96.2257158 Z" id="Shape"></path>
        </g>
    </g>
</svg>