<?xml version="1.0" encoding="UTF-8"?>
<svg width="283px" height="187px" viewBox="0 0 283 187" version="1.1" xmlns="http://www.w3.org/2000/svg" xmlns:xlink="http://www.w3.org/1999/xlink">
    <title>ROKT</title>
    <g id="Symbols" stroke="none" stroke-width="1" fill="none" fill-rule="evenodd">
        <g id="RT-logo/ROKT-Logo-seafoamgreen-RGB" fill="#99E0BB" fill-rule="nonzero">
            <path d="M0,45.71 L42.38,45.71 C60.62,45.71 71.29,57.5 71.29,73.07 C71.29,86.82 63.29,97.21 49.4,99.87 L76.11,155.13 L66.15,155.13 L40.14,100.43 L9.12,100.43 L9.12,127.81 L0,127.81 L0,45.71 Z M42.1,91.73 C55.15,91.73 62.17,84.29 62.17,73.07 C62.17,61.85 55.15,54.41 42.1,54.41 L9.12,54.41 L9.12,91.74 L42.1,91.74 L42.1,91.73 Z" id="Shape"></path>
            <path d="M159.07,151.77 C159.07,171.83 145.18,187.27 124.83,187.27 C104.48,187.27 90.31,171.84 90.31,151.77 L90.31,53.77 C90.31,33.85 104.34,18.13 124.83,18.13 C145.32,18.13 159.07,33.85 159.07,53.77 L159.07,151.77 Z M99.43,151.77 C99.43,167.2 109.95,178.57 124.83,178.57 C139.71,178.57 149.95,167.34 149.95,151.77 L149.95,53.77 C149.95,38.34 139.43,26.83 124.83,26.83 C110.23,26.83 99.43,38.34 99.43,53.77 L99.43,151.77 L99.43,151.77 Z" id="Shape"></path>
            <polygon id="Path" points="256.11 187.11 256.11 54.45 237.88 54.45 237.88 45.72 283.46 45.72 283.46 54.45 265.22 54.45 265.22 187.11"></polygon>
            <polygon id="Path" points="177.31 0 186.43 0 186.43 100.43 216.73 71.02 228.66 71.02 201.02 98.05 245.12 155.11 233.94 155.11 194.57 104.37 186.43 112.23 186.43 137.02 177.31 137.02"></polygon>
        </g>
    </g>
</svg>