<?xml version="1.0" encoding="UTF-8"?>
<svg width="94px" height="92px" viewBox="0 0 94 92" version="1.1" xmlns="http://www.w3.org/2000/svg" xmlns:xlink="http://www.w3.org/1999/xlink">
    <title>RT-icons/ROKT-Icon-Smile-seafoamgreen-RGB@3x</title>
    <g id="Symbols" stroke="none" stroke-width="1" fill="none" fill-rule="evenodd">
        <g id="RT-icons/ROKT-Icon-Smile-seafoamgreen-RGB" fill="#99E0BB" fill-rule="nonzero">
            <path d="M92.3561137,26.9782832 C90.2661137,17.2782832 84.6461137,7.87828319 75.6961137,3.10828319 C70.7161137,0.458283186 65.1661137,-0.241716814 59.5861137,0.0682831856 C54.2161137,0.368283186 48.8061137,1.13828319 43.4961137,2.00828319 C33.7761137,3.59828319 23.8461137,6.22828319 15.6361137,11.8882832 C13.6061137,13.2882832 11.6961137,14.8482832 9.93611368,16.5782832 C9.54611368,16.9682832 9.34611368,17.5282832 9.36611368,18.0882832 C7.28611368,20.5482832 5.51611368,23.2682832 4.13611368,26.1582832 C-0.843886316,36.5982832 -0.863886316,48.5782832 1.63611368,59.6882832 C2.84611368,65.0682832 4.56611368,70.4782832 7.20611368,75.3482832 C9.66611368,79.8882832 13.1161137,83.7882832 17.4661137,86.5782832 C25.5261137,91.7382832 35.6861137,92.7982832 45.0261137,91.9082832 C54.5261137,90.9982832 64.0761137,88.3182832 72.3661137,83.5282832 C76.3861137,81.2082832 80.1661137,78.3182832 83.2661137,74.8382832 C86.6661137,71.0282832 89.1861137,66.5982832 90.7361137,61.7282832 C92.4961137,56.1982832 93.1361137,50.2882832 93.4761137,44.5082832 C93.8161137,38.6582832 93.5961137,32.7382832 92.3661137,26.9882832 L92.3561137,26.9782832 Z M86.3361137,20.9982832 C86.4161137,21.1882832 86.3761137,21.0782832 86.3361137,20.9982832 L86.3361137,20.9982832 Z M89.4661137,44.4882832 C89.3861137,45.8682832 89.2761137,47.2382832 89.1461137,48.6082832 C89.0761137,49.2882832 89.0061137,49.9782832 88.9261137,50.6582832 C88.8461137,51.3382832 88.7761137,51.9082832 88.7061137,52.3982832 C87.9461137,57.6382832 86.6261137,62.6882832 83.9661137,67.1582832 C83.4161137,68.0882832 82.8061137,68.9982832 82.1661137,69.8682832 C82.1361137,69.9182832 81.9161137,70.1982832 81.8761137,70.2582832 C81.7161137,70.4682832 81.5461137,70.6782832 81.3761137,70.8882832 C81.0361137,71.3082832 80.6761137,71.7182832 80.3161137,72.1182832 C78.8461137,73.7582832 77.2161137,75.2582832 75.4861137,76.6182832 C75.4661137,76.6282832 75.3961137,76.6882832 75.3461137,76.7282832 C75.2561137,76.7882832 75.0861137,76.9282832 75.0961137,76.9182832 C74.9061137,77.0682832 74.7061137,77.2082832 74.5061137,77.3482832 C74.0361137,77.6882832 73.5561137,78.0182832 73.0761137,78.3382832 C72.1361137,78.9682832 71.1661137,79.5682832 70.1761137,80.1282832 C69.2061137,80.6782832 68.2261137,81.2082832 67.2261137,81.6982832 C66.7561137,81.9282832 66.2761137,82.1582832 65.7961137,82.3782832 C65.5461137,82.4982832 65.2861137,82.6082832 65.0261137,82.7182832 C64.9161137,82.7682832 64.7961137,82.8182832 64.6861137,82.8682832 C64.6761137,82.8682832 64.5261137,82.9382832 64.4261137,82.9782832 C60.2461137,84.7282832 55.8761137,86.0182832 51.4361137,86.9082832 C50.3361137,87.1282832 49.2461137,87.3182832 48.1361137,87.4882832 C47.8861137,87.5282832 47.6361137,87.5582832 47.3961137,87.5982832 L47.3061137,87.5982832 L47.2761137,87.6182832 C47.1561137,87.6382832 47.0261137,87.6482832 46.9061137,87.6682832 C46.3161137,87.7382832 45.7161137,87.8082832 45.1261137,87.8682832 C42.8661137,88.0882832 40.5861137,88.1882832 38.3161137,88.1482832 C37.1561137,88.1282832 35.9961137,88.0682832 34.8361137,87.9682832 C34.3061137,87.9182832 33.7761137,87.8682832 33.2561137,87.8082832 C33.1861137,87.8082832 33.1161137,87.7882832 33.0361137,87.7782832 C32.9961137,87.7782832 32.8261137,87.7482832 32.7661137,87.7382832 C32.4561137,87.6982832 32.1561137,87.6482832 31.8461137,87.5982832 C29.6361137,87.2382832 27.4561137,86.6982832 25.3461137,85.9582832 C24.8661137,85.7882832 24.3761137,85.6082832 23.9061137,85.4082832 C23.8561137,85.3882832 23.7161137,85.3282832 23.6661137,85.3082832 C23.5961137,85.2782832 23.5361137,85.2482832 23.4661137,85.2182832 C23.1861137,85.0982832 22.9161137,84.9682832 22.6461137,84.8382832 C21.6661137,84.3682832 20.7161137,83.8582832 19.8061137,83.2782832 C19.3461137,82.9882832 18.8961137,82.6882832 18.4561137,82.3782832 C18.2561137,82.2382832 18.0661137,82.0982832 17.8661137,81.9482832 L17.7961137,81.8982832 L17.7661137,81.8782832 C17.6261137,81.7682832 17.4861137,81.6482832 17.3461137,81.5382832 C16.4961137,80.8382832 15.6761137,80.0782832 14.9161137,79.2782832 C13.9761137,78.2782832 13.3561137,77.5182832 12.6461137,76.5082832 C11.9261137,75.4782832 11.2661137,74.3982832 10.6661137,73.2882832 C9.40611368,70.9682832 8.61611368,69.0482832 7.76611368,66.5882832 C4.19611368,56.2382832 2.59611368,44.9082832 5.36611368,34.3382832 C5.67611368,33.1682832 6.02611368,32.0182832 6.43611368,30.8882832 C6.60611368,30.4282832 6.78611368,29.9682832 6.97611368,29.5082832 C7.00611368,29.4282832 7.17611368,29.0382832 7.20611368,28.9782832 C7.34611368,28.6682832 7.48611368,28.3582832 7.63611368,28.0582832 C8.59611368,26.0582832 9.72611368,24.1482832 11.0361137,22.3582832 C11.1961137,22.1382832 11.3661137,21.9182832 11.5261137,21.6982832 L11.5561137,21.6582832 C11.6561137,21.5382832 11.7461137,21.4182832 11.8461137,21.2982832 C12.1961137,20.8682832 12.5461137,20.4482832 12.9161137,20.0382832 C13.6461137,19.2182832 14.4161137,18.4382832 15.2261137,17.6882832 C15.6261137,17.3182832 16.0361137,16.9582832 16.4661137,16.6082832 C16.6761137,16.4382832 16.8861137,16.2682832 17.1061137,16.0982832 L17.1061137,16.0982832 L17.1361137,16.0782832 C17.2861137,15.9682832 17.4261137,15.8582832 17.5761137,15.7582832 C18.4761137,15.0982832 19.4161137,14.4882832 20.3961137,13.9382832 C21.2661137,13.4482832 22.1661137,12.9982832 23.0861137,12.6082832 C23.1661137,12.5782832 23.5361137,12.4282832 23.6061137,12.3982832 C23.8661137,12.2982832 24.1161137,12.2082832 24.3761137,12.1182832 C24.8961137,11.9382832 25.4161137,11.7782832 25.9461137,11.6282832 C26.5961137,11.4482832 27.1261137,10.8982832 27.3261137,10.2682832 C28.3161137,9.88828319 29.3061137,9.52828319 30.3161137,9.18828319 C32.5961137,8.43828319 34.9161137,7.80828319 37.2561137,7.26828319 C39.6161137,6.71828319 41.9961137,6.26828319 44.3861137,5.86828319 C45.5661137,5.67828319 46.7461137,5.49828319 47.9261137,5.32828319 C49.1861137,5.14828319 49.7561137,5.07828319 51.1261137,4.89828319 C53.8261137,4.55828319 56.5361137,4.22828319 59.2461137,4.05828319 C60.6561137,3.96828319 62.0761137,3.92828319 63.4961137,3.97828319 C64.9461137,4.02828319 66.2161137,4.13828319 67.5161137,4.38828319 C68.7061137,4.60828319 69.8661137,4.92828319 71.0061137,5.32828319 C71.2361137,5.40828319 71.4661137,5.49828319 71.6861137,5.58828319 C71.6761137,5.58828319 71.8761137,5.66828319 71.9661137,5.70828319 C72.0261137,5.73828319 72.1061137,5.76828319 72.1261137,5.77828319 C72.6561137,6.00828319 73.1761137,6.26828319 73.6861137,6.53828319 C74.6561137,7.04828319 75.5861137,7.62828319 76.4761137,8.26828319 C76.6961137,8.42828319 76.9161137,8.58828319 77.1361137,8.75828319 L77.1761137,8.78828319 L77.2361137,8.83828319 C77.3361137,8.91828319 77.4261137,8.98828319 77.5261137,9.06828319 C77.9561137,9.41828319 78.3661137,9.77828319 78.7761137,10.1482832 C79.6161137,10.9182832 80.4061137,11.7382832 81.1561137,12.5982832 C81.5061137,12.9982832 81.8361137,13.3982832 82.1661137,13.8182832 L82.2061137,13.8682832 C82.2061137,13.8682832 82.2261137,13.8982832 82.2561137,13.9282832 C82.3261137,14.0282832 82.4061137,14.1282832 82.4761137,14.2282832 C82.6761137,14.4982832 82.8761137,14.7782832 83.0661137,15.0582832 C84.3361137,16.8982832 85.4161137,18.8582832 86.3061137,20.9082832 L86.3261137,20.9682832 C86.3661137,21.0782832 86.4161137,21.1782832 86.4561137,21.2882832 C86.5861137,21.5982832 86.7061137,21.9182832 86.8161137,22.2282832 C87.0561137,22.8682832 87.2761137,23.5182832 87.4761137,24.1682832 C87.8861137,25.4682832 88.2261137,26.7982832 88.5161137,28.1282832 C88.6561137,28.7982832 88.7861137,29.4682832 88.8961137,30.1382832 C88.9461137,30.4382832 88.9961137,30.7382832 89.0361137,31.0382832 C89.1061137,31.5282832 89.1261137,31.6382832 89.1661137,31.9782832 C89.3361137,33.3382832 89.4461137,34.7082832 89.5161137,36.0782832 C89.6561137,38.8682832 89.6161137,41.6782832 89.4561137,44.4682832 L89.4661137,44.4882832 Z" id="Shape"></path>
            <path d="M73.4861137,44.4182832 C72.3961137,44.4682832 71.4861137,45.2982832 71.4861137,46.4182832 C71.4861137,48.9782832 71.2961137,51.0182832 70.6661137,53.4282832 C70.0661137,55.7082832 69.2761137,57.4882832 67.8761137,59.4482832 L67.8161137,59.5382832 C67.7461137,59.6282832 67.6761137,59.7082832 67.6061137,59.7982832 C67.4461137,59.9982832 67.2761137,60.1882832 67.1061137,60.3782832 C66.7261137,60.7982832 66.3161137,61.2082832 65.8861137,61.5782832 C65.7161137,61.7282832 65.5461137,61.8682832 65.3761137,62.0082832 C65.3761137,61.9982832 64.9961137,62.2882832 64.9561137,62.3182832 C64.5161137,62.6282832 64.0661137,62.9082832 63.5861137,63.1582832 C63.3661137,63.2782832 63.1361137,63.3882832 62.9161137,63.4882832 C62.8961137,63.4982832 62.7761137,63.5482832 62.7161137,63.5782832 C62.6461137,63.6082832 62.5561137,63.6382832 62.5261137,63.6482832 C62.0061137,63.8382832 61.4761137,63.9982832 60.9461137,64.1182832 C60.2861137,64.2682832 60.0161137,64.2982832 59.3861137,64.3482832 C58.6761137,64.3982832 57.9761137,64.4182832 57.2661137,64.4182832 C54.7261137,64.4182832 52.1761137,64.3282832 49.6361137,64.1582832 C48.3361137,64.0682832 47.0361137,63.9582832 45.7361137,63.7982832 C45.1161137,63.7282832 44.8861137,63.6882832 44.2261137,63.5882832 C43.5461137,63.4782832 42.8661137,63.3582832 42.1961137,63.2282832 C39.7761137,62.7482832 37.4061137,62.0682832 35.1161137,61.1382832 C35.0361137,61.0982832 34.7461137,60.9782832 34.6761137,60.9482832 C34.4461137,60.8482832 34.2261137,60.7382832 33.9961137,60.6282832 C33.4861137,60.3882832 32.9961137,60.1282832 32.4961137,59.8482832 C31.5961137,59.3482832 30.7161137,58.7982832 29.8761137,58.1982832 C29.6561137,58.0482832 29.4461137,57.8882832 29.2361137,57.7282832 C29.2061137,57.7082832 29.1761137,57.6782832 29.1661137,57.6682832 C29.0161137,57.5482832 28.8761137,57.4382832 28.7261137,57.3182832 C28.2761137,56.9382832 27.8361137,56.5482832 27.4061137,56.1382832 C26.9861137,55.7282832 26.5761137,55.3082832 26.1761137,54.8782832 C25.9861137,54.6682832 25.8061137,54.4582832 25.6361137,54.2482832 C25.5961137,54.1982832 25.3361137,53.8682832 25.2761137,53.7982832 C24.5961137,52.8882832 23.9861137,51.9282832 23.4661137,50.9182832 C23.3361137,50.6782832 23.2161137,50.4282832 23.1061137,50.1782832 L23.0361137,50.0282832 C23.0061137,49.9582832 22.9261137,49.7582832 22.9161137,49.7282832 C22.6961137,49.1582832 22.4961137,48.5682832 22.3361137,47.9782832 C22.0561137,46.9682832 20.9061137,46.2482832 19.8761137,46.5782832 C18.8461137,46.9082832 18.1761137,47.9582832 18.4761137,49.0382832 C21.1661137,58.5882832 30.2561137,64.5082832 39.4561137,66.7082832 C44.8861137,68.0082832 50.5161137,68.2982832 56.0861137,68.3982832 C58.7661137,68.4482832 61.5161137,68.3582832 64.0261137,67.3282832 C66.3361137,66.3882832 68.4061137,64.9282832 70.0661137,63.0582832 C74.1061137,58.4982832 75.4761137,52.3782832 75.4961137,46.4182832 C75.4961137,45.3682832 74.5761137,44.3682832 73.4961137,44.4182832 L73.4861137,44.4182832 Z" id="Path"></path>
            <path d="M34.8561137,33.2982832 C35.1261137,33.4682832 35.4461137,33.5882832 35.7361137,33.6982832 C35.8761137,33.7582832 36.0261137,33.7982832 36.1761137,33.8282832 C36.4761137,33.8882832 36.7961137,33.9482832 37.1161137,33.9282832 C37.3461137,33.9182832 37.5861137,33.8782832 37.8161137,33.8382832 C37.8861137,33.8282832 37.9661137,33.8082832 38.0361137,33.7782832 C38.3261137,33.6682832 38.6461137,33.5582832 38.8961137,33.3682832 C39.0761137,33.2382832 39.2761137,33.0982832 39.4361137,32.9382832 C39.5961137,32.7782832 39.7361137,32.5782832 39.8661137,32.3882832 C40.2261137,31.8882832 40.3561137,31.2582832 40.3961137,30.6582832 C40.4161137,30.3582832 40.3561137,30.0282832 40.3061137,29.7382832 C40.2861137,29.5982832 40.2361137,29.4582832 40.1861137,29.3182832 C40.0661137,29.0182832 39.9561137,28.7182832 39.7661137,28.4582832 C39.5761137,28.1982832 39.3861137,27.9282832 39.1361137,27.7282832 C38.6961137,27.3782832 38.4161137,27.1982832 37.8861137,26.9982832 C37.5661137,26.8782832 37.2161137,26.8382832 36.8761137,26.8282832 C36.3761137,26.8082832 35.8061137,27.0682832 35.4661137,27.4182832 C35.3561137,27.5282832 35.2661137,27.6582832 35.1861137,27.7982832 C35.0061137,27.8382832 34.8361137,27.8982832 34.6861137,27.9982832 C34.0161137,28.4382832 33.4261137,29.0382832 33.2261137,29.8382832 C33.0461137,30.5682832 33.1461137,31.3782832 33.5561137,32.0182832 C33.8861137,32.5382832 34.3261137,32.9582832 34.8561137,33.2782832 L34.8561137,33.2982832 Z" id="Path"></path>
            <path d="M55.3361137,31.9182832 C55.4061137,32.1082832 55.4761137,32.3182832 55.5861137,32.4982832 C55.6961137,32.6682832 55.8261137,32.8382832 55.9561137,32.9882832 C55.9861137,33.0182832 56.0161137,33.0482832 56.0461137,33.0782832 C56.2061137,33.2182832 56.4361137,33.4182832 56.6561137,33.5182832 C56.8861137,33.6282832 57.1261137,33.7382832 57.3661137,33.8082832 C57.6261137,33.8782832 57.9061137,33.8982832 58.1761137,33.9282832 C58.2761137,33.9282832 58.3761137,33.9282832 58.4761137,33.9282832 C58.7461137,33.9082832 59.0261137,33.8782832 59.2861137,33.8182832 C59.3861137,33.7982832 59.4861137,33.7682832 59.5861137,33.7282832 C59.8261137,33.6382832 60.0861137,33.5482832 60.3061137,33.4082832 C60.4161137,33.3382832 60.5161137,33.2582832 60.6161137,33.1782832 C60.7161137,33.0982832 60.8261137,33.0182832 60.9261137,32.9282832 C60.9561137,32.8982832 60.9861137,32.8682832 61.0061137,32.8382832 C61.1361137,32.6782832 61.2861137,32.5082832 61.3861137,32.3282832 C61.5161137,32.0982832 61.6361137,31.8282832 61.6861137,31.5582832 C61.7261137,31.3582832 61.7761137,31.0782832 61.7661137,30.8382832 C61.7561137,30.6482832 61.7261137,30.4282832 61.6861137,30.2482832 C61.6861137,30.2082832 61.6661137,30.1682832 61.6561137,30.1282832 C61.5961137,29.9582832 61.5161137,29.7582832 61.4261137,29.5982832 C61.4161137,29.5682832 61.3961137,29.5482832 61.3861137,29.5182832 C61.2861137,29.3582832 61.1561137,29.1982832 61.0261137,29.0482832 C61.0061137,29.0182832 60.9761137,28.9882832 60.9561137,28.9682832 C60.7961137,28.8082832 60.5961137,28.6682832 60.4161137,28.5382832 C60.3561137,28.4882832 60.2861137,28.4482832 60.2161137,28.4082832 C59.9261137,28.2482832 59.6061137,28.0982832 59.2761137,28.0082832 C59.2261137,27.9982832 59.1861137,27.9882832 59.1361137,27.9782832 C58.9361137,27.9482832 58.7261137,27.9082832 58.5261137,27.8982832 C58.2861137,27.8882832 58.0261137,27.9382832 57.7861137,27.9782832 C57.7061137,27.9882832 57.6361137,28.0082832 57.5561137,28.0382832 C57.3361137,28.1182832 57.1061137,28.2082832 56.9061137,28.3282832 C56.6961137,28.4582832 56.5061137,28.6182832 56.3161137,28.7782832 C56.2361137,28.8482832 56.1561137,28.9282832 56.0861137,29.0082832 C55.8661137,29.2482832 55.6961137,29.5382832 55.5961137,29.8482832 L55.4761137,30.0082832 C55.2961137,30.3182832 55.2061137,30.6582832 55.2061137,31.0182832 C55.2061137,31.0682832 55.2061137,31.1082832 55.2061137,31.1582832 C55.2061137,31.3682832 55.2461137,31.5982832 55.2861137,31.7982832 C55.2861137,31.8382832 55.3061137,31.8782832 55.3161137,31.9182832 L55.3361137,31.9182832 Z" id="Path"></path>
        </g>
    </g>
</svg>