<?xml version="1.0" encoding="UTF-8"?>
<svg id="rokt-icons-Outline" xmlns="http://www.w3.org/2000/svg" viewBox="0 0 128 128">
  <defs>
    <style>
      .cls-1 {
        fill: #fff;
      }
    </style>
  </defs>
  <path class="cls-1" d="M113.23,93.16c-.07-2.89-.32-5.76-.51-8.64-.19-2.85-.27-5.7-.31-8.55-.07-5.61,.14-11.22-.12-16.83-.18-3.89-.62-7.77-.64-11.66,0-3.05,.02-6.11-.2-9.15-.08-1.16-.12-2.43-.52-3.53-.13-.37-.26-.65-.5-.95-.49-.64-1.1-.82-1.9-.93-1.31-.17-2.64-.22-3.96-.22-2.73,0-5.46,.2-8.19,.2-2.96,0-5.93-.06-8.89-.17-5.84-.21-11.69-.51-17.53-.79-5.85-.28-11.67-.84-17.51-1.26-5.07-.37-10.15-.69-15.23-.78-4.74-.08-9.49-.04-14.23-.01-2.08,.01-4.17,.03-6.25,.03-1.05,0-2.05,.92-2,2,0,4.06,.19,8.13,.31,12.19,.14,4.67,.12,9.33,.12,14,0,5.88-.05,11.76,.03,17.63,.04,2.83,.05,5.65-.17,8.48-.11,1.44-.2,2.88-.24,4.33-.04,1.43-.17,2.93,.06,4.35,.1,.59,.19,1.18,.31,1.76,.22,1.14,.93,1.79,2.05,2.05,.85,.2,1.61,.18,2.47,.08,.48-.05,1.36,0,2.03,0,2.95,0,5.9,.01,8.85-.04,5.89-.11,11.78-.34,17.67-.37,5.89-.03,11.79,.02,17.68,.15,2.97,.07,5.94,.21,8.91,.22,2.9,0,5.79-.07,8.69-.01,5.86,.11,11.68,.89,17.53,1.16,2.82,.13,5.61,.35,8.42-.07,1.2-.18,2.62-.41,3.33-1.53,.58-.92,.45-2.1,.42-3.14Zm-4.91-56.26c-.25,.02-.44,0-.59-.03,.2,.02,.41,.04,.59,.03Zm-1.09-.46c.01,.07,.03,.13,.04,.2,0,0,0,0,0,.01-.06-.08-.07-.16-.05-.21Zm1.25,57.52s-.05,0-.1,0c-.11,.01-.23,.02-.34,.03-.27,.02-.53,.04-.8,.05-.54,.03-1.08,.03-1.62,.03-4.45-.04-8.92-.45-13.36-.82-4.51-.37-8.99-.58-13.52-.55-4.53,.04-9.05-.12-13.57-.22-4.61-.1-9.21-.13-13.82-.14-9.17-.02-18.34,.44-27.51,.42-1.08,0-2.16,0-3.24,0-.29,0-.58,0-.87,0-.22,.01-.44,.04-.66,.07-.06,0-.11,.02-.15,.02,0,0,0,0,0,0,0,0,.01,0,.01,0,0,0,0,0-.01,0-.01-.08-.02-.16-.04-.24-.02-.1-.04-.2-.06-.3,0-.02-.04-.17-.05-.25,0-.06-.02-.15-.02-.15,0-.18,0-.36,0-.54,.01-1.11,.03-2.22,.07-3.33,.08-2.29,.33-4.58,.4-6.87,.07-2.3,0-4.61-.02-6.91-.02-2.34,0-4.68,0-7.03,0-8.15,.09-16.3-.16-24.44-.09-2.97-.19-5.94-.24-8.91,6.43-.02,12.86-.12,19.3,0,8.43,.17,16.82,1.04,25.23,1.64,4.56,.33,9.13,.5,13.69,.7,4.53,.2,9.05,.46,13.58,.57,2.26,.05,4.51,.09,6.77,.07,2.14-.02,4.28-.16,6.42-.19,1.03-.02,2.07,0,3.1,.06,.14,0,.29,.03,.44,.05,0,.02,0,.04,0,.06,0,.2,.05,.42,.07,.62,.4,4.19,.04,8.39,.32,12.58,.28,4.25,.63,8.51,.69,12.77,.06,4.37-.05,8.75,0,13.12,.06,4.45,.35,8.86,.64,13.3,.07,1.14,.14,2.27,.17,3.41,.01,.38,.02,.75,.02,1.13-.24,.05-.48,.11-.72,.15-.02,0-.03,0-.04,0Zm1.55-.34c.21-.12,.13-.06,0,0h0Z"/>
  <path class="cls-1" d="M102.86,41.85c-1.06-.56-2.05-.17-2.74,.72-.34,.44-.98,1.25-1.47,1.85-.46,.56-.92,1.1-1.4,1.64-.81,.9-1.65,1.78-2.55,2.59-.38,.34-.76,.67-1.16,.99-.09,.07-.19,.15-.28,.22-.04,.03-.07,.06-.09,.08-.17,.15-.37,.28-.55,.41-.89,.66-1.8,1.29-2.7,1.92-2.86,2.01-5.61,4.16-8.36,6.31-1.63,1.28-3.27,2.55-4.9,3.82-1.55,1.21-2.81,2.26-4.47,3.28-2.83,1.73-5.91,3-8.79,4.62-2.05-1.68-4.07-3.41-6.14-5.07-2.51-2.02-4.96-3.55-7.21-5.75-1.07-1.05-2.09-2.15-3.14-3.22-1.14-1.17-2.35-2.26-3.57-3.35-2.58-2.33-5.16-4.66-7.75-6.99-2.89-2.61-5.78-5.22-8.67-7.83-.78-.7-2.07-.82-2.83,0-.7,.76-.83,2.08,0,2.83,5.16,4.66,10.33,9.32,15.49,13.99,1.25,1.12,2.51,2.23,3.71,3.41,1.08,1.06,2.11,2.17,3.17,3.25,1.06,1.08,2.16,2.12,3.35,3.05,1.18,.93,2.71,1.96,3.73,2.75,2.34,1.83,4.58,3.78,6.88,5.66-.07,.42,0,.85,.25,1.24,.56,.86,1.81,1.34,2.74,.72,3.06-2.05,6.5-3.4,9.69-5.2,1.77-.99,3.35-2.18,4.94-3.43,1.67-1.3,3.33-2.6,5-3.9,.83-.65,1.67-1.3,2.5-1.95,.42-.33,.83-.65,1.25-.98,.19-.15,.38-.3,.57-.44,.07-.06,.14-.11,.21-.17,.02-.02,.11-.09,.14-.11,1.21-.93,2.45-1.83,3.69-2.72,1.9-1.35,3.85-2.65,5.62-4.18,2.5-2.14,4.57-4.73,6.57-7.34,.64-.83,.16-2.28-.72-2.74Z"/>
</svg>