<?xml version="1.0" encoding="UTF-8"?>
<svg id="rokt-icons-Outline" xmlns="http://www.w3.org/2000/svg" viewBox="0 0 128 128">
  <defs>
    <style>
      .cls-1 {
        fill: #fff;
      }
    </style>
  </defs>
  <path class="cls-1" d="M39.2,51.08c-1.2-.08-2.4-.03-3.59,.04-2.5,.14-5.02,.46-7.52,.22-.6-.06-1.18,.28-1.56,.77-.09-.01-.18-.02-.27-.02-1.11,.05-1.97,.88-2,2-.35,12.38-.4,24.77-.15,37.16,.07,3.49,.17,6.98,.28,10.47,.04,1.09,.89,1.99,2,2,2.68,.03,5.36,.06,8.05,.09,1.36,.02,2.72,.05,4.09,.05,1.62,0,3.04-.75,3.47-2.41,.33-1.26,.25-2.69,.33-3.98,.08-1.36,.15-2.73,.23-4.1,.14-2.69,.27-5.38,.38-8.07,.22-5.38,.39-10.76,.5-16.15,.05-2.69,.09-5.38,.12-8.08,.01-1.33,.02-2.65,.03-3.98,0-1.33,.19-2.85-.43-4.08-.77-1.53-2.38-1.83-3.94-1.93Zm.36,3.66s0-.04,0,0h0Zm-.78,45.08s.09,0,.12,.03c-.02-.02-.08-.02-.12-.03Zm.76-39.49c-.02,2.49-.05,4.97-.1,7.46-.18,9.98-.56,19.96-1.15,29.93-.04,.7-.08,1.41-.13,2.11,0,0,0,.01,0,.02-.06,0-.11,0-.15,0-.37,0-.74,0-1.11-.01-.7,0-1.4-.02-2.1-.02-2.16-.02-4.32-.05-6.47-.07-.37-11.72-.47-23.45-.3-35.18,.05-3.07,.12-6.14,.2-9.21,1.96,.17,3.94,0,5.9-.13,1.04-.07,2.08-.14,3.12-.17,.49-.01,.98-.01,1.47,0,.22,0,.44,.02,.65,.04,.06,0,.12,.01,.18,.02,0,.49,.01,.99,0,1.48,0,1.24-.01,2.49-.02,3.73Zm.32-5.17s0,0,0,0c.11,.12,.05,.05,0,0Z"/>
  <path class="cls-1" d="M30.55,43.29c2.2,.51,4.64,.7,6.79-.13,1.94-.75,3.52-2.09,4.63-3.84,2.64-4.17,1.73-9.52-.89-13.45-.22-.33-.54-.61-.9-.78,.02-.89-.49-1.88-1.44-2.04-4.05-.68-8.34,.13-11.69,2.57-3.33,2.42-5.99,6.48-4.94,10.76,.95,3.86,4.82,6.08,8.44,6.92Zm-4.28-10.72c.02-.06,.03-.09,.04-.12,.02-.03,.03-.06,.06-.12,.09-.17,.17-.35,.27-.52,.19-.34,.41-.67,.64-.99,.03-.05,.05-.08,.07-.1,.02-.02,.05-.06,.1-.11,.09-.1,.17-.2,.26-.29,.31-.34,.64-.65,.99-.95,0,0,.23-.19,.29-.24,.19-.14,.38-.27,.57-.4,.39-.25,.79-.49,1.2-.7,.71-.37,1.16-.55,2.1-.81,.45-.13,.9-.23,1.35-.31,.02,0,.3-.04,.37-.05,.22-.02,.45-.04,.67-.06,.46-.03,.92-.03,1.39,0,.2,.01,.39,.03,.59,.04,.06,0,.1,.01,.13,.01-.02,.35,.06,.71,.27,1.03,1.01,1.51,1.56,2.75,1.87,4.53,0,.08,.05,.39,.05,.39,.01,.18,.02,.35,.03,.53,.01,.39,0,.77-.03,1.16,0,.06,0,.1,0,.13,0,.03-.02,.06-.03,.11-.04,.18-.07,.36-.12,.53-.04,.18-.09,.35-.15,.52-.02,.05-.14,.38-.17,.47-.14,.3-.29,.59-.46,.88-.09,.16-.2,.3-.3,.46-.03,.04-.04,.07-.06,.09-.02,.02-.04,.04-.07,.08-.2,.22-.4,.45-.62,.65-.1,.09-.21,.18-.31,.27-.01,0-.37,.26-.42,.29-.15,.09-.31,.18-.47,.26-.03,.02-.26,.11-.31,.13-.33,.11-.67,.21-1.01,.27-.05,0-.44,.05-.43,.05-.22,.01-.44,.02-.66,.02-.42,0-.84-.03-1.26-.08-.07-.02-.45-.08-.43-.08-.22-.04-.44-.09-.65-.14-.36-.08-.72-.18-1.08-.29-.31-.1-.62-.21-.92-.32-.08-.03-.28-.11-.3-.13-.22-.1-.44-.21-.65-.33-.26-.14-.52-.3-.77-.47-.02-.02-.22-.16-.28-.2-.1-.08-.2-.16-.3-.25-.23-.21-.44-.44-.64-.67-.05-.07-.16-.21-.17-.24-.13-.2-.23-.4-.34-.6-.02-.04-.03-.06-.05-.08,0-.03-.01-.05-.02-.1-.05-.19-.11-.36-.16-.55-.01-.04-.05-.42-.05-.36,0-.08-.01-.15-.01-.23,0-.19,.01-.37,.01-.56,0-.05,0-.08,0-.11,0-.03,.01-.05,.02-.1,.09-.44,.21-.86,.36-1.28Z"/>
  <path class="cls-1" d="M103.91,84.07c-.07-3.02-.16-6.05-.26-9.07-.1-2.94-.13-5.91-.4-8.84-.25-2.76-.81-5.57-2.36-7.92-1.29-1.95-3.07-3.53-5.11-4.66-4.21-2.34-9.38-3.07-14.13-2.55-3.13,.34-6.22,1.22-8.74,3.17-.97,.75-1.82,1.61-2.64,2.52-.04-1.17-.08-2.34-.12-3.51-.05-1.11-.88-1.95-2-2-4.21-.17-8.42-.16-12.63,.05-1.1,.05-1.97,.87-2,2-.37,12.67-.54,25.34-.53,38.02,0,3.51,.02,7.03,.05,10.54,0,1.05,.91,2.05,2,2,.55-.02,1.06-.25,1.43-.62,.16,.04,.33,.06,.5,.05,4.27-.33,8.55-.42,12.83-.28,1.09,.04,1.99-.95,2-2,.03-5.45,.06-10.91,.09-16.36,.02-2.73,.03-5.45,.05-8.18,0-1.26-.04-2.54,.07-3.8,0-.11,.02-.22,.03-.33,0-.03,.01-.06,.02-.1,.05-.25,.12-.49,.19-.74,0-.03,.03-.09,.05-.14,.04-.08,.08-.17,.13-.25,.05-.09,.11-.17,.16-.25,.02-.02,.05-.05,.09-.08,.07-.06,.14-.13,.21-.19,.03-.02,.05-.04,.07-.05,.17-.1,.35-.2,.52-.29,.04,0,.37-.15,.46-.18,.29-.09,.59-.17,.89-.23,.48-.1,.97-.18,1.46-.24,.04,0,.08-.01,.13-.02,.16-.02,.32-.04,.48-.06,.36-.05,.72-.09,1.08-.12,.6-.06,1.2-.11,1.8-.12,.32,0,.64,0,.96,0,.16,0,.32,.01,.48,.02,0,0,.41,.03,.44,.03,.51,.06,1.02,.19,1.51,.35,.09,.03,.41,.15,.46,.17,.22,.1,.44,.21,.65,.33,.21,.12,.41,.25,.61,.39,0,0,0,0,0,0,0,0,0,0,.01,.01,.09,.08,.18,.16,.27,.24,.15,.14,.29,.3,.43,.45,.01,.02,.01,.02,.03,.03,.1,.14,.19,.29,.28,.44,.06,.1,.11,.21,.17,.32-.04-.08-.11-.33,.03,.08,.09,.27,.17,.54,.22,.82,.09,.44,.12,.83,.14,1.5,.1,2.69,.12,5.38,.18,8.07,.13,6.16,.26,12.31,.39,18.47,0,.23,.06,.46,.14,.68-.16,.28-.26,.61-.25,.95,.05,1.07,.88,2.02,2,2,4.39-.08,8.78-.15,13.18-.23,1.08-.02,2-.9,2-2,0-6.09-.07-12.18-.21-18.27Zm-16.29-28.99s.04,0,0,0h0Zm-11.35,14.45c-.09,.01-.21,.03,0,0h0Zm9.39,1.73c.13,.15,.06,.07,0,0h0Zm-5.64-6.06c-1.54,.02-3.07,.24-4.6,.45-1.07,.15-2.13,.31-3.14,.72-1.32,.53-2.43,1.3-3.21,2.51-.75,1.16-.99,2.58-1.08,3.94-.18,2.75-.06,5.55-.08,8.31-.03,5.93-.07,11.86-.1,17.79-3.6-.06-7.19,.04-10.78,.31-.08-11.82,0-23.63,.23-35.45,.06-2.87,.13-5.74,.21-8.61,2.92-.1,5.83-.11,8.75-.03,.08,2.27,.15,4.54,.24,6.81,0,.07,.02,.14,.03,.21,.03,.44,.19,.87,.56,1.21,.04,.04,.09,.07,.14,.1,.34,.31,.78,.5,1.28,.48,.04,0,.07-.01,.11-.02,.49,0,.97-.17,1.3-.57,.08-.09,.16-.19,.23-.28,0,0,.01-.01,.02-.02,1.47-1.76,2.86-3.62,4.56-5.17,.18-.17,.37-.33,.56-.49,.03-.02,.04-.03,.06-.05,.01,0,.02-.02,.05-.03,.1-.07,.2-.14,.3-.21,.47-.33,.97-.61,1.49-.86,.91-.44,2.19-.82,3.39-1.05,1.08-.21,2.24-.3,3.55-.31,1.12-.01,2.24,.05,3.36,.18,.03,0,.1,.01,.15,.02,.07,.01,.14,.02,.21,.03,.24,.04,.48,.08,.71,.12,.53,.1,1.06,.22,1.59,.36,.52,.14,1.04,.3,1.55,.48,.22,.08,.45,.17,.67,.25,.02,0,.06,.03,.1,.04,.13,.06,.27,.12,.4,.18,.87,.41,1.67,.9,2.45,1.45,.03,.03,.36,.29,.43,.35,.17,.15,.34,.31,.51,.47,.18,.18,.36,.37,.54,.56,.08,.09,.15,.17,.23,.26,.03,.04,.13,.16,.18,.23,.6,.84,1.07,1.72,1.34,2.52,.2,.59,.35,1.19,.48,1.8,.07,.32,.12,.65,.17,.98,0,.01,.02,.12,.02,.18,.02,.17,.04,.33,.06,.5,.28,2.75,.3,5.54,.4,8.3,.1,2.86,.19,5.71,.26,8.57,.15,5.89,.22,11.78,.23,17.67-3.02,.05-6.04,.11-9.07,.16-.12-5.73-.24-11.46-.37-17.19-.06-2.87-.1-5.74-.18-8.61-.08-2.76-.7-5.42-2.96-7.21-2.16-1.7-4.79-2.36-7.51-2.32Z"/>
</svg>