<?xml version="1.0" encoding="utf-8"?>
<!-- Generator: Adobe Illustrator 27.0.0, SVG Export Plug-In . SVG Version: 6.00 Build 0)  -->
<svg version="1.1" id="tk-icons-4px" xmlns="http://www.w3.org/2000/svg" xmlns:xlink="http://www.w3.org/1999/xlink" x="0px"
	 y="0px" viewBox="0 0 128 128" style="enable-background:new 0 0 128 128;" xml:space="preserve">
<style type="text/css">
	.st0{fill:none;stroke:#0A1432;stroke-width:4;stroke-linecap:round;stroke-linejoin:round;}
</style>
<path class="st0" d="M58.5,44.7c-2.4,0.3-4.2,1.6-5.9,2.8c-5.3,4-9.6,9.8-10.2,16.5c-0.3,3.4-0.2,5.7,0.5,9c0.2,0.9,4.7,8.4,9.5,9.8
	c11.3,3.4,16.5,0.7,18.4-0.1c1.6-0.8,2.9-2.2,4.1-3.6c2.2-2.7,4.2-5.7,5.1-9.1c0.6-2.4,0.6-4.8,0.5-7.3c-0.1-2.6-0.3-5.3-1.3-7.7
	c-1.5-3.6-4.8-6.3-8.4-7.8s-6.9-2.5-11.4-2.5"/>
<path class="st0" d="M85.8,37.7c-0.9-0.2-1.8,0.4-2.3,1.2s-0.5,1.8-0.3,2.7c0,0.3,0.1,0.7,0.3,0.9c0.2,0.3,0.5,0.4,0.8,0.6
	c0.9,0.3,1.9,0.4,2.7-0.1s1.4-1.3,1.5-2.2s-0.7-3.3-2.7-2.7"/>
<path class="st0" d="M40.5,26.2c17.2,0,31.4,0.1,48.6,0.1c1.1,0,5.8,1.1,8.9,4.7c5.4,6.4,5.4,14.3,5.5,16.4
	c0.5,10.7-0.4,21,0.1,31.7c0.3,6.7,0.4,14.1-4.2,19c-4.2,4.4-10.9,5.1-16.9,5.3c-15.9,0.6-26.4,1.8-42.2,0.6c-2.3-0.2-7.3-2.6-9.2-4
	c-5.8-4.3-7.5-8.8-7.6-12.8c-0.6-16.5-1.3-30.9,0.2-47.4c0.2-2.1,1.8-6.3,5.2-9.3c3.9-3.5,6-4,10.1-4.3"/>
</svg>
