<?xml version="1.0" encoding="UTF-8"?>
<svg id="tk-icons-Outline" xmlns="http://www.w3.org/2000/svg" viewBox="0 0 128 128">
  <defs>
    <style>
      .cls-1 {
        fill: #fff;
      }
    </style>
  </defs>
  <path class="cls-1" d="M29.09,51.72s.04,.06,.07,.09c.04,.05,.05,.07,.06,.08,0,0,0,0,0,0,0,0-.09-.14-.13-.18Z"/>
  <path class="cls-1" d="M30.25,67.56c.07,.05,.14,.1,.15,.14,0,0,0,0,0,0-.03-.07-.11-.13-.16-.14Z"/>
  <path class="cls-1" d="M112.41,36.89c-.36-1.12-1.35-1.59-2.46-1.4-3.18,.54-6.22,1.6-9.36,2.32-.02-.05-.04-.1-.06-.15,.05-.05,.1-.11,.16-.16,0,0,0,0,.01,0,.07-.05,.15-.11,.22-.16,.19-.13,.39-.26,.58-.39,.75-.49,1.48-1,2.2-1.53,1.35-.99,2.69-2,4.09-2.92,.87-.58,1.32-1.79,.72-2.74-.56-.87-1.8-1.33-2.74-.72-1.47,.97-2.86,2.03-4.29,3.06-.78,.56-1.57,1.1-2.37,1.63-.15,.1-.3,.21-.44,.31-.72-1.18-1.53-2.31-2.48-3.37-.75-.85-1.57-1.62-2.46-2.33-.19-.15-.4-.27-.62-.37-2.04-1.41-4.38-2.29-6.84-2.74-2.87-.53-5.87-.72-8.79-.7-1.58,.01-3.23,.16-4.72,.68-1.64,.58-3.02,1.54-4.28,2.74-1.03,.99-1.97,2.07-3.07,3-1.21,1.01-2.4,1.99-3.11,3.44-.86,1.78-1.1,3.75-1.32,5.69-.19,1.69-.27,3.4-.26,5.1-.04,.02-.08,.04-.12,.06-.05,.02-.4,.16-.38,.16-.33,.12-.66,.23-1,.32-.34,.09-.68,.17-1.02,.24-.21,.04-.41,.08-.62,.11-.08,.01-.12,.02-.14,.03-.02,0-.07,0-.16,.01-1.57,.13-3.13,.11-4.7-.06-1.2-.13-2.85-.44-4.31-.76-1.44-.31-2.87-.65-4.3-1-1.42-.35-2.83-.73-4.23-1.17-.63-.2-1.26-.41-1.88-.64-.34-.13-.68-.26-1.01-.39-.04-.02-.17-.07-.23-.1-.18-.08-.37-.16-.55-.25-1.26-.58-2.48-1.26-3.62-2.06-.16-.11-.31-.22-.47-.34-.32-.24-.12-.09-.05-.04-.3-.24-.6-.49-.89-.75-.55-.5-1.06-1.03-1.54-1.6-.11-.13-.23-.27-.34-.41-.01-.01,0-.01-.02-.02-.08-.11-.16-.22-.25-.33-.25-.34-.48-.7-.71-1.06-.46-.72-.87-1.46-1.26-2.22-.83-1.63-1.43-3.08-2.06-4.61-.38-.93-1.13-1.58-2.19-1.43-1,.13-1.7,.96-1.73,1.96-.17,4.44-.18,8.89,.64,13.27,.37,2,1.01,3.92,1.6,5.86,.45,1.46,.91,2.91,1.57,4.29,.02,.03,.04,.06,.05,.1-.24,0-.48,0-.72-.01-.47-.02-.93-.05-1.4-.09-.28-.03-.56-.06-.84-.09-.06,0-.1-.01-.13-.02-.14-.02-.28-.04-.42-.06-1.16-.19-2.3-.46-3.43-.82-1.43-.45-2.91,1.03-2.46,2.46,.47,1.5,1.23,2.94,1.97,4.32,.78,1.47,1.61,2.93,2.56,4.3,1.19,1.72,2.62,3.32,4.04,4.85,.88,.94,1.82,1.84,2.8,2.68-.05,0-.09,.01-.1,.01-.24,.03-.48,.05-.72,.07-.98,.08-1.96,.11-2.94,.03-.13-.01-.26-.02-.39-.04,.21,.03,.19,.03-.05,0-.19-.03-.38-.07-.56-.11-.49-.11-.96-.25-1.43-.44-.73-.29-1.66,.15-2.1,.72-.49,.64-.56,1.52-.16,2.22,1.37,2.41,3.43,4.51,5.46,6.37,2.11,1.93,4.46,3.66,7.11,4.76,.91,.38,1.86,.64,2.81,.9,.85,.23,1.69,.54,2.56,.67,2.35,.34,4.75,.11,7.1-.08,.53-.04,1.06-.08,1.6-.12-.23,.16-.45,.32-.68,.48-2.09,1.4-4.29,2.65-6.55,3.76-.59,.29-1.19,.57-1.79,.85-.27,.13-.55,.25-.83,.37-.17,.07-.33,.14-.5,.22-.05,.02-.08,.04-.11,.05-.02,.01-.04,.02-.08,.03-1.25,.52-2.52,1-3.8,1.44-2.41,.83-4.87,1.52-7.38,1.96-.32,.06-.63,.11-.95,.16-.05,0-.24,.03-.3,.04-.08,.01-.17,.02-.25,.03-.65,.08-1.29,.13-1.94,.16-1.14,.05-2.28,.02-3.41-.13-.98-.13-1.85,.86-1.96,1.73-.14,1,.48,1.88,1.43,2.19,9.27,3,19,5.01,28.71,5.81,9.89,.81,20-.42,29.29-4,4.97-1.92,9.61-4.47,13.79-7.78,3.3-2.62,5.93-5.95,8-9.61,4.4-7.79,6.56-16.84,7.25-25.71,.39-5.05,.22-10.34-1.08-15.27,3.06-.72,6.04-1.74,9.15-2.27,1.03-.18,1.71-1.5,1.4-2.46ZM28.09,49.92c.04,.09,.04,.08,0,0h0Zm8.85,31.19s.1,.02,.18,.03c-.08,0-.15,0-.18-.03Zm62.15-26.87c-.07,2.02-.24,4.04-.5,6.04,0,0-.03,.23-.04,.32,0,.05-.01,.1-.02,.12-.04,.27-.08,.53-.12,.8-.08,.53-.17,1.07-.26,1.6-.19,1.07-.4,2.14-.64,3.2-.48,2.1-1.05,4.18-1.74,6.22-.34,1-.7,1.98-1.09,2.96-.06,.14-.11,.28-.17,.41,0,.02-.03,.08-.05,.13-.04,.08-.13,.3-.13,.29-.05,.11-.09,.22-.14,.33-.21,.48-.44,.97-.67,1.44-.9,1.86-1.92,3.66-3.09,5.35-.25,.37-.51,.73-.78,1.08,0,0-.15,.19-.19,.24-.02,.03-.05,.06-.05,.07-.17,.21-.34,.42-.52,.63-.61,.72-1.25,1.41-1.92,2.06-3.28,3.16-7.47,5.65-11.8,7.61-1.07,.48-1.87,.81-3.12,1.27-1.19,.44-2.38,.83-3.6,1.19-2.43,.72-4.9,1.29-7.4,1.73-.55,.1-1.11,.19-1.67,.27-.17,.03-.35,.05-.52,.08-.02,0-.15,.02-.23,.03-.11,.01-.43,.06-.38,.05-.17,.02-.35,.04-.52,.06-1.17,.14-2.35,.26-3.52,.33-2.18,.13-4.37,.12-6.55,.02-2.36-.11-4.72-.32-7.07-.61-1.17-.14-1.99-.26-3.35-.47-1.19-.19-2.39-.39-3.58-.61-2.1-.39-4.19-.83-6.27-1.31,1.18-.3,2.34-.64,3.49-1.02,5.19-1.7,10.26-4.03,14.84-7,2.21-1.44,4.37-3.04,6.2-4.94,.98-1.02,.64-3.03-.88-3.34-2.05-.42-4.2-.19-6.26-.03-2.28,.17-4.58,.43-6.87,.34-.21,0-.42-.02-.62-.04-.02,0-.07,0-.12,0,0,0-.01,0-.02,0-.45-.09-.87-.22-1.31-.35-.9-.27-1.82-.48-2.72-.77-.21-.07-.41-.14-.61-.21-.08-.03-.16-.06-.24-.1-.04-.02-.09-.04-.12-.06-.59-.29-1.17-.59-1.73-.93-.63-.38-1.24-.79-1.83-1.23-.04-.03-.08-.06-.12-.09,.03,.02-.2-.16-.25-.19-.26-.21-.51-.42-.77-.64-.92-.79-1.79-1.64-2.64-2.52,2.63-.07,5.32-.67,7.79-1.12,.77-.14,1.34-.95,1.43-1.66,.1-.71-.23-1.68-.95-1.99-.92-.39-1.77-.92-2.57-1.51-.03-.02-.06-.04-.08-.06,0,0,0,0,0,0,0,0,0,0,0,0-.03-.03-.07-.05-.11-.08-.09-.06-.08-.08-.05-.06-.08-.05-.16-.11-.19-.13-.29-.23-.57-.48-.84-.72-.62-.56-1.23-1.15-1.81-1.75-.71-.73-1.39-1.49-2.06-2.26-.37-.43-.74-.86-1.1-1.3-.18-.22-.36-.44-.54-.66-.02-.02-.02-.02-.03-.04-.01-.02-.02-.02-.03-.05-.88-1.25-1.66-2.56-2.4-3.9-.13-.24-.25-.49-.38-.73,1.01,.15,2.02,.26,3.04,.31,1.66,.09,3.32,0,4.98,.06,1.68,.05,2.71-2.26,1.41-3.41-.07-.07-.78-.75-1.09-1.08,0,0,0,0,0,0-.09-.1-.15-.17-.14-.18,0,0,0,0,.01,0-.01-.02-.03-.04-.04-.06-.07-.1-.14-.21-.21-.31-.16-.25-.3-.5-.44-.76-.12-.23-.22-.46-.32-.69-.01-.03-.03-.07-.04-.11-.06-.16-.12-.31-.18-.47-.25-.68-.47-1.38-.68-2.07-.56-1.83-1.18-3.65-1.57-5.52-.2-.96-.35-1.89-.44-2.69-.06-.5-.1-.99-.14-1.49,.21,.31,.42,.62,.64,.92,1.98,2.66,4.5,4.76,7.45,6.26,2.8,1.43,5.81,2.39,8.85,3.18,3.22,.83,6.48,1.61,9.78,2.04,3.9,.51,7.83,.3,11.4-1.48,.41-.21,.7-.6,.86-1.05,.45-.36,.75-.89,.74-1.52-.03-1.62,.03-3.24,.18-4.85,.13-1.38,.23-2.56,.63-3.94,.05-.17,.1-.33,.16-.5,.01-.04,.08-.18,.11-.25,.13-.26,.27-.52,.44-.76,.02-.03,.03-.05,.04-.06,.03-.03,.05-.05,.1-.1,.1-.1,.19-.2,.29-.3,.3-.29,.62-.56,.94-.83,1.01-.84,1.94-1.73,2.85-2.66,.45-.46,.9-.92,1.39-1.34,.4-.35,.75-.62,1.41-.97,.46-.24,.9-.39,1.6-.55,.14-.03,.28-.06,.41-.09-.04,0,.25-.04,.37-.06,.13-.01,.4-.04,.36-.04,.21-.02,.43-.03,.64-.04,1.36-.07,2.73,0,4.09,.07,.63,.03,1.25,.07,1.88,.13,.3,.03,.59,.05,.89,.08,.16,.02,.33,.04,.49,.06,.07,0,.1,.01,.12,.01,.03,0,.07,.01,.13,.02,1.42,.21,2.82,.51,4.17,1.01,.12,.04,.24,.09,.36,.14,.05,.02,.08,.03,.11,.04,.03,.01,.06,.03,.12,.06,.32,.15,.63,.3,.94,.48,.31,.17,.61,.36,.9,.55,.11,.07,.21,.15,.31,.22-.28-.2,.3,.25,.35,.29,.09,.08,.18,.14,.28,.21,.55,.5,1.09,1.01,1.58,1.57,.17,.19,.33,.38,.49,.57-.01-.02,.13,.16,.2,.25,.05,.06,.11,.14,.12,.16,.35,.48,.69,.97,1,1.47,.58,.93,1.09,1.91,1.54,2.91,.02,.05,.09,.2,.11,.24,.03,.08,.07,.16,.1,.24,.09,.24,.19,.47,.27,.71,.21,.57,.4,1.14,.57,1.72,.32,1.07,.58,2.16,.79,3.27,.1,.54,.19,1.08,.27,1.63,.01,.11,.05,.45,.06,.5,.04,.32,.07,.64,.09,.95,.17,2.03,.18,4.08,.1,6.11Z"/>
</svg>