<svg version="1.1" viewBox="0.0 0.0 670.0 160.0" fill="none" stroke="none" stroke-linecap="square" stroke-miterlimit="10" xmlns:xlink="http://www.w3.org/1999/xlink" xmlns="http://www.w3.org/2000/svg"><clipPath id="g31c282024fa_0_23.0"><path d="m0 0l960.0 0l0 540.0l-960.0 0l0 -540.0z" clip-rule="nonzero"/></clipPath><g clip-path="url(#g31c282024fa_0_23.0)"><path fill="#000000" fill-opacity="0.0" d="m0 0l960.0 0l0 540.0l-960.0 0z" fill-rule="evenodd"/><path fill="#89a395" d="m483.61905 23.836107l152.47244 0l0 92.09449l-152.47244 0z" fill-rule="evenodd"/><path stroke="#89a395" stroke-width="1.0" stroke-linejoin="round" stroke-linecap="butt" d="m483.61905 23.836107l152.47244 0l0 92.09449l-152.47244 0z" fill-rule="evenodd"/><path fill="#89a395" d="m636.0915 69.65238l0 -66.99213l26.64569 66.99213z" fill-rule="evenodd"/><path stroke="#89a395" stroke-width="1.0" stroke-linejoin="round" stroke-linecap="butt" d="m636.0915 69.65238l0 -66.99213l26.64569 66.99213z" fill-rule="evenodd"/><path fill="#89a395" d="m635.9111 69.49284l0 66.99213l26.64569 -66.99213z" fill-rule="evenodd"/><path stroke="#89a395" stroke-width="1.0" stroke-linejoin="round" stroke-linecap="butt" d="m635.9111 69.49284l0 66.99213l26.64569 -66.99213z" fill-rule="evenodd"/><path fill="#99e0bb" d="m323.61905 23.836107l152.47244 0l0 92.09449l-152.47244 0z" fill-rule="evenodd"/><path stroke="#99e0bb" stroke-width="1.0" stroke-linejoin="round" stroke-linecap="butt" d="m323.61905 23.836107l152.47244 0l0 92.09449l-152.47244 0z" fill-rule="evenodd"/><path fill="#99e0bb" d="m476.0915 69.65238l0 -66.99213l26.64569 66.99213z" fill-rule="evenodd"/><path stroke="#99e0bb" stroke-width="1.0" stroke-linejoin="round" stroke-linecap="butt" d="m476.0915 69.65238l0 -66.99213l26.64569 66.99213z" fill-rule="evenodd"/><path fill="#99e0bb" d="m475.9111 69.49284l0 66.99213l26.64566 -66.99213z" fill-rule="evenodd"/><path stroke="#99e0bb" stroke-width="1.0" stroke-linejoin="round" stroke-linecap="butt" d="m475.9111 69.49284l0 66.99213l26.64566 -66.99213z" fill-rule="evenodd"/><path fill="#ccf0dd" d="m163.61906 23.836107l152.47243 0l0 92.09449l-152.47243 0z" fill-rule="evenodd"/><path stroke="#ccf0dd" stroke-width="1.0" stroke-linejoin="round" stroke-linecap="butt" d="m163.61906 23.836107l152.47243 0l0 92.09449l-152.47243 0z" fill-rule="evenodd"/><path fill="#ccf0dd" d="m316.0915 69.65238l0 -66.99213l26.64569 66.99213z" fill-rule="evenodd"/><path stroke="#ccf0dd" stroke-width="1.0" stroke-linejoin="round" stroke-linecap="butt" d="m316.0915 69.65238l0 -66.99213l26.64569 66.99213z" fill-rule="evenodd"/><path fill="#ccf0dd" d="m315.9111 69.49284l0 66.99213l26.64566 -66.99213z" fill-rule="evenodd"/><path stroke="#ccf0dd" stroke-width="1.0" stroke-linejoin="round" stroke-linecap="butt" d="m315.9111 69.49284l0 66.99213l26.64566 -66.99213z" fill-rule="evenodd"/><path fill="#000000" fill-opacity="0.0" d="m169.3671 31.796371l173.35431 0l0 77.57481l-173.35431 0z" fill-rule="evenodd"/><path fill="#0a1432" d="m241.247 52.394497q-0.921875 0 -1.65625 -0.296875q-0.734375 -0.296875 -1.171875 -0.875q-0.4375 -0.59375 -0.46875 -1.421875l2.1875 0q0.046875 0.46875 0.3125 0.71875q0.28125 0.234375 0.734375 0.234375q0.453125 0 0.71875 -0.203125q0.265625 -0.21875 0.265625 -0.59375q0 -0.296875 -0.21875 -0.5q-0.203125 -0.21875 -0.515625 -0.34375q-0.296875 -0.140625 -0.859375 -0.296875q-0.828125 -0.25 -1.34375 -0.5q-0.515625 -0.265625 -0.890625 -0.75q-0.359375 -0.5 -0.359375 -1.28125q0 -1.1875 0.84375 -1.84375q0.859375 -0.671875 2.21875 -0.671875q1.390625 0 2.25 0.671875q0.859375 0.65625 0.90625 1.84375l-2.21875 0q-0.015625 -0.40625 -0.296875 -0.640625q-0.28125 -0.234375 -0.703125 -0.234375q-0.375 0 -0.609375 0.203125q-0.21875 0.203125 -0.21875 0.578125q0 0.40625 0.375 0.640625q0.390625 0.21875 1.203125 0.484375q0.8125 0.265625 1.328125 0.53125q0.515625 0.25 0.875 0.734375q0.375 0.46875 0.375 1.21875q0 0.734375 -0.375 1.328125q-0.359375 0.578125 -1.0625 0.921875q-0.6875 0.34375 -1.625 0.34375zm8.051926 -1.8125l0 1.734375l-1.03125 0q-1.125 0 -1.75 -0.546875q-0.625 -0.546875 -0.625 -1.78125l0 -2.65625l-0.8125 0l0 -1.71875l0.8125 0l0 -1.625l2.0625 0l0 1.625l1.34375 0l0 1.71875l-1.34375 0l0 2.6875q0 0.296875 0.140625 0.4375q0.140625 0.125 0.484375 0.125l0.71875 0zm7.46579 -1.71875q0 0.28125 -0.046875 0.59375l-4.640625 0q0.046875 0.625 0.390625 0.953125q0.359375 0.328125 0.875 0.328125q0.78125 0 1.078125 -0.640625l2.1875 0q-0.171875 0.65625 -0.609375 1.1875q-0.4375 0.53125 -1.109375 0.828125q-0.65625 0.296875 -1.46875 0.296875q-0.984375 0 -1.75 -0.421875q-0.765625 -0.421875 -1.203125 -1.1875q-0.421875 -0.78125 -0.421875 -1.828125q0 -1.046875 0.421875 -1.828125q0.421875 -0.78125 1.1875 -1.203125q0.765625 -0.421875 1.765625 -0.421875q0.96875 0 1.71875 0.421875q0.765625 0.40625 1.1875 1.15625q0.4375 0.75 0.4375 1.765625zm-2.109375 -0.546875q0 -0.53125 -0.359375 -0.828125q-0.359375 -0.3125 -0.890625 -0.3125q-0.515625 0 -0.875 0.296875q-0.359375 0.296875 -0.4375 0.84375l2.5625 0zm5.2358093 -1.75q0.296875 -0.46875 0.828125 -0.75q0.53125 -0.296875 1.234375 -0.296875q0.828125 0 1.5 0.421875q0.671875 0.421875 1.0625 1.203125q0.390625 0.78125 0.390625 1.8125q0 1.03125 -0.390625 1.828125q-0.390625 0.78125 -1.0625 1.203125q-0.671875 0.421875 -1.5 0.421875q-0.703125 0 -1.234375 -0.28125q-0.53125 -0.296875 -0.828125 -0.75l0 4.125l-2.046875 0l0 -9.890625l2.046875 0l0 0.953125zm2.921875 2.390625q0 -0.765625 -0.421875 -1.203125q-0.421875 -0.4375 -1.046875 -0.4375q-0.609375 0 -1.046875 0.453125q-0.421875 0.4375 -0.421875 1.203125q0 0.765625 0.421875 1.21875q0.4375 0.4375 1.046875 0.4375q0.609375 0 1.03125 -0.453125q0.4375 -0.453125 0.4375 -1.21875zm5.4420776 1.71875q0.40625 -0.328125 0.375 -0.296875q1.171875 -0.984375 1.84375 -1.59375q0.6875 -0.625 1.15625 -1.3125q0.46875 -0.6875 0.46875 -1.34375q0 -0.484375 -0.234375 -0.75q-0.21875 -0.28125 -0.6875 -0.28125q-0.453125 0 -0.71875 0.34375q-0.25 0.328125 -0.25 0.953125l-1.984375 0q0.03125 -1.015625 0.4375 -1.6875q0.421875 -0.6875 1.09375 -1.015625q0.6875 -0.328125 1.515625 -0.328125q1.421875 0 2.140625 0.734375q0.734375 0.734375 0.734375 1.90625q0 1.28125 -0.875 2.390625q-0.875 1.09375 -2.234375 2.140625l3.234375 0l0 1.65625l-6.015625 0l0 -1.515625z" fill-rule="nonzero"/><path fill="#0a1432" d="m203.93947 75.1945q0 1.046875 -0.71875 1.75q-0.703125 0.6875 -2.171875 0.6875l-1.609375 0l0 3.484375l-1.09375 0l0 -8.359375l2.703125 0q1.421875 0 2.15625 0.6875q0.734375 0.671875 0.734375 1.75zm-2.890625 1.53125q0.90625 0 1.34375 -0.390625q0.4375 -0.40625 0.4375 -1.140625q0 -1.546875 -1.78125 -1.546875l-1.609375 0l0 3.078125l1.609375 0zm10.244919 0.84375q0 0.3125 -0.03125 0.671875l-5.265625 0q0.0625 0.96875 0.671875 1.515625q0.609375 0.546875 1.46875 0.546875q0.703125 0 1.171875 -0.328125q0.484375 -0.328125 0.671875 -0.890625l1.1875 0q-0.265625 0.953125 -1.0625 1.546875q-0.796875 0.59375 -1.96875 0.59375q-0.9375 0 -1.671875 -0.421875q-0.734375 -0.421875 -1.15625 -1.1875q-0.421875 -0.78125 -0.421875 -1.796875q0 -1.015625 0.40625 -1.78125q0.40625 -0.78125 1.140625 -1.1875q0.75 -0.421875 1.703125 -0.421875q0.9375 0 1.65625 0.40625q0.71875 0.40625 1.109375 1.125q0.390625 0.71875 0.390625 1.609375zm-1.125 -0.21875q0 -0.625 -0.28125 -1.078125q-0.265625 -0.453125 -0.75 -0.6875q-0.46875 -0.234375 -1.046875 -0.234375q-0.828125 0 -1.40625 0.53125q-0.578125 0.53125 -0.671875 1.46875l4.15625 0zm5.440048 3.875q-0.921875 0 -1.671875 -0.421875q-0.75 -0.421875 -1.1875 -1.1875q-0.421875 -0.78125 -0.421875 -1.796875q0 -1.015625 0.4375 -1.78125q0.4375 -0.78125 1.1875 -1.1875q0.765625 -0.421875 1.703125 -0.421875q0.9375 0 1.6875 0.421875q0.75 0.40625 1.1875 1.1875q0.4375 0.765625 0.4375 1.78125q0 1.015625 -0.453125 1.796875q-0.4375 0.765625 -1.203125 1.1875q-0.765625 0.421875 -1.703125 0.421875zm0 -0.96875q0.578125 0 1.09375 -0.265625q0.515625 -0.28125 0.828125 -0.828125q0.328125 -0.5625 0.328125 -1.34375q0 -0.796875 -0.3125 -1.34375q-0.3125 -0.5625 -0.8125 -0.828125q-0.5 -0.265625 -1.09375 -0.265625q-0.59375 0 -1.09375 0.265625q-0.5 0.265625 -0.8125 0.828125q-0.296875 0.546875 -0.296875 1.34375q0 0.796875 0.296875 1.359375q0.296875 0.546875 0.78125 0.8125q0.5 0.265625 1.09375 0.265625zm5.8988037 -4.5q0.328125 -0.5625 0.96875 -0.9375q0.640625 -0.390625 1.484375 -0.390625q0.890625 0 1.59375 0.421875q0.71875 0.421875 1.125 1.1875q0.40625 0.765625 0.40625 1.765625q0 1.0 -0.40625 1.78125q-0.40625 0.78125 -1.125 1.21875q-0.703125 0.421875 -1.59375 0.421875q-0.828125 0 -1.46875 -0.375q-0.640625 -0.375 -0.984375 -0.953125l0 4.34375l-1.09375 0l0 -9.703125l1.09375 0l0 1.21875zm4.46875 2.046875q0 -0.75 -0.3125 -1.296875q-0.296875 -0.546875 -0.8125 -0.828125q-0.5 -0.296875 -1.109375 -0.296875q-0.609375 0 -1.125 0.296875q-0.5 0.296875 -0.8125 0.859375q-0.296875 0.546875 -0.296875 1.28125q0 0.734375 0.296875 1.296875q0.3125 0.5625 0.8125 0.859375q0.515625 0.28125 1.125 0.28125q0.609375 0 1.109375 -0.28125q0.515625 -0.296875 0.8125 -0.859375q0.3125 -0.5625 0.3125 -1.3125zm3.6433105 -5.5625l0 8.875l-1.09375 0l0 -8.875l1.09375 0zm7.8582764 5.328125q0 0.3125 -0.03125 0.671875l-5.265625 0q0.0625 0.96875 0.671875 1.515625q0.609375 0.546875 1.46875 0.546875q0.703125 0 1.171875 -0.328125q0.484375 -0.328125 0.671875 -0.890625l1.1875 0q-0.265625 0.953125 -1.0625 1.546875q-0.796875 0.59375 -1.96875 0.59375q-0.9375 0 -1.671875 -0.421875q-0.734375 -0.421875 -1.15625 -1.1875q-0.421875 -0.78125 -0.421875 -1.796875q0 -1.015625 0.40625 -1.78125q0.40625 -0.78125 1.140625 -1.1875q0.75 -0.421875 1.703125 -0.421875q0.9375 0 1.65625 0.40625q0.71875 0.40625 1.109375 1.125q0.390625 0.71875 0.390625 1.609375zm-1.125 -0.21875q0 -0.625 -0.28125 -1.078125q-0.265625 -0.453125 -0.75 -0.6875q-0.46875 -0.234375 -1.046875 -0.234375q-0.828125 0 -1.40625 0.53125q-0.578125 0.53125 -0.671875 1.46875l4.15625 0zm5.3628235 0.453125q0 -1.0 0.40625 -1.765625q0.40625 -0.765625 1.125 -1.1875q0.71875 -0.421875 1.59375 -0.421875q0.859375 0 1.484375 0.375q0.640625 0.375 0.953125 0.9375l0 -1.203125l1.109375 0l0 6.578125l-1.109375 0l0 -1.21875q-0.3125 0.578125 -0.96875 0.953125q-0.640625 0.375 -1.484375 0.375q-0.875 0 -1.59375 -0.421875q-0.703125 -0.4375 -1.109375 -1.21875q-0.40625 -0.78125 -0.40625 -1.78125zm5.5625 0.015625q0 -0.75 -0.296875 -1.296875q-0.296875 -0.546875 -0.8125 -0.84375q-0.5 -0.296875 -1.109375 -0.296875q-0.625 0 -1.125 0.296875q-0.5 0.28125 -0.8125 0.828125q-0.296875 0.546875 -0.296875 1.296875q0 0.75 0.296875 1.3125q0.3125 0.5625 0.8125 0.859375q0.5 0.28125 1.125 0.28125q0.609375 0 1.109375 -0.28125q0.515625 -0.296875 0.8125 -0.859375q0.296875 -0.5625 0.296875 -1.296875zm6.1589355 -3.40625q1.203125 0 1.9375 0.734375q0.75001526 0.71875 0.75001526 2.09375l0 3.875l-1.0781403 0l0 -3.71875q0 -0.984375 -0.5 -1.5q-0.484375 -0.53125 -1.328125 -0.53125q-0.875 0 -1.390625 0.546875q-0.5 0.53125 -0.5 1.5625l0 3.640625l-1.09375 0l0 -6.578125l1.09375 0l0 0.9375q0.328125 -0.5 0.875 -0.78125q0.5625 -0.28125 1.234375 -0.28125zm4.070694 3.390625q0 -1.0 0.40625 -1.765625q0.40625 -0.765625 1.125 -1.1875q0.71875 -0.421875 1.59375 -0.421875q0.78125 0 1.4375 0.359375q0.65625 0.359375 1.0 0.921875l0 -3.46875l1.109375 0l0 8.875l-1.109375 0l0 -1.234375q-0.3125 0.59375 -0.953125 0.96875q-0.640625 0.375 -1.484375 0.375q-0.875 0 -1.59375 -0.421875q-0.71875 -0.4375 -1.125 -1.21875q-0.40625 -0.78125 -0.40625 -1.78125zm5.5625 0.015625q0 -0.75 -0.296875 -1.296875q-0.296875 -0.546875 -0.8125 -0.84375q-0.5 -0.296875 -1.109375 -0.296875q-0.625 0 -1.125 0.296875q-0.5 0.28125 -0.8125 0.828125q-0.296875 0.546875 -0.296875 1.296875q0 0.75 0.296875 1.3125q0.3125 0.5625 0.8125 0.859375q0.5 0.28125 1.125 0.28125q0.609375 0 1.109375 -0.28125q0.515625 -0.296875 0.8125 -0.859375q0.296875 -0.5625 0.296875 -1.296875zm11.753571 -2.625q0 1.046875 -0.71875 1.75q-0.703125 0.6875 -2.171875 0.6875l-1.609375 0l0 3.484375l-1.09375 0l0 -8.359375l2.703125 0q1.421875 0 2.15625 0.6875q0.734375 0.671875 0.734375 1.75zm-2.890625 1.53125q0.90625 0 1.34375 -0.390625q0.4375 -0.40625 0.4375 -1.140625q0 -1.546875 -1.78125 -1.546875l-1.609375 0l0 3.078125l1.609375 0zm5.338684 -1.125q0.28125 -0.5625 0.8125 -0.875q0.546875 -0.3125 1.3125 -0.3125l0 1.140625l-0.28125 0q-1.84375 0 -1.84375 1.984375l0 3.578125l-1.09375 0l0 -6.578125l1.09375 0l0 1.0625zm6.257263 5.625q-0.921875 0 -1.671875 -0.421875q-0.75 -0.421875 -1.1875 -1.1875q-0.421875 -0.78125 -0.421875 -1.796875q0 -1.015625 0.4375 -1.78125q0.4375 -0.78125 1.1875 -1.1875q0.765625 -0.421875 1.703125 -0.421875q0.9375 0 1.6875 0.421875q0.75 0.40625 1.1875 1.1875q0.4375 0.765625 0.4375 1.78125q0 1.015625 -0.453125 1.796875q-0.4375 0.765625 -1.203125 1.1875q-0.765625 0.421875 -1.703125 0.421875zm0 -0.96875q0.578125 0 1.09375 -0.265625q0.515625 -0.28125 0.828125 -0.828125q0.328125 -0.5625 0.328125 -1.34375q0 -0.796875 -0.3125 -1.34375q-0.3125 -0.5625 -0.8125 -0.828125q-0.5 -0.265625 -1.09375 -0.265625q-0.59375 0 -1.09375 0.265625q-0.5 0.265625 -0.8125 0.828125q-0.296875 0.546875 -0.296875 1.34375q0 0.796875 0.296875 1.359375q0.296875 0.546875 0.78125 0.8125q0.5 0.265625 1.09375 0.265625zm4.3988037 -2.4375q0 -1.015625 0.40625 -1.78125q0.40625 -0.765625 1.125 -1.1875q0.734375 -0.421875 1.671875 -0.421875q1.21875 0 2.0 0.59375q0.78125 0.578125 1.03125 1.625l-1.171875 0q-0.171875 -0.59375 -0.65625 -0.9375q-0.484375 -0.359375 -1.203125 -0.359375q-0.9375 0 -1.515625 0.65625q-0.578125 0.640625 -0.578125 1.8125q0 1.1875 0.578125 1.84375q0.578125 0.640625 1.515625 0.640625q0.71875 0 1.203125 -0.328125q0.484375 -0.34375 0.65625 -0.96875l1.171875 0q-0.265625 1.0 -1.0625 1.609375q-0.78125 0.609375 -1.96875 0.609375q-0.9375 0 -1.671875 -0.421875q-0.71875 -0.421875 -1.125 -1.1875q-0.40625 -0.765625 -0.40625 -1.796875zm13.690308 -0.25q0 0.3125 -0.03125 0.671875l-5.265625 0q0.0625 0.96875 0.671875 1.515625q0.609375 0.546875 1.46875 0.546875q0.703125 0 1.171875 -0.328125q0.484375 -0.328125 0.671875 -0.890625l1.1875 0q-0.265625 0.953125 -1.0625 1.546875q-0.796875 0.59375 -1.96875 0.59375q-0.9375 0 -1.671875 -0.421875q-0.734375 -0.421875 -1.15625 -1.1875q-0.421875 -0.78125 -0.421875 -1.796875q0 -1.015625 0.40625 -1.78125q0.40625 -0.78125 1.140625 -1.1875q0.75 -0.421875 1.703125 -0.421875q0.9375 0 1.65625 0.40625q0.71875 0.40625 1.109375 1.125q0.390625 0.71875 0.390625 1.609375zm-1.125 -0.21875q0 -0.625 -0.28125 -1.078125q-0.265625 -0.453125 -0.75 -0.6875q-0.46875 -0.234375 -1.046875 -0.234375q-0.828125 0 -1.40625 0.53125q-0.578125 0.53125 -0.671875 1.46875l4.15625 0zm4.8931885 3.875q-0.75 0 -1.359375 -0.25q-0.59375 -0.265625 -0.953125 -0.71875q-0.34375 -0.46875 -0.375 -1.078125l1.125 0q0.046875 0.5 0.453125 0.8125q0.421875 0.3125 1.09375 0.3125q0.625 0 0.984375 -0.28125q0.359375 -0.28125 0.359375 -0.6875q0 -0.4375 -0.390625 -0.640625q-0.375 -0.21875 -1.171875 -0.421875q-0.734375 -0.1875 -1.203125 -0.390625q-0.453125 -0.203125 -0.78125 -0.59375q-0.328125 -0.390625 -0.328125 -1.015625q0 -0.515625 0.296875 -0.921875q0.296875 -0.421875 0.84375 -0.671875q0.5625 -0.25 1.265625 -0.25q1.09375 0 1.765625 0.5625q0.671875 0.546875 0.71875 1.5l-1.09375 0q-0.03125 -0.515625 -0.421875 -0.828125q-0.375 -0.3125 -1.0 -0.3125q-0.59375 0 -0.953125 0.265625q-0.34375 0.25 -0.34375 0.65625q0 0.3125 0.203125 0.53125q0.21875 0.203125 0.53125 0.328125q0.328125 0.125 0.890625 0.28125q0.703125 0.203125 1.140625 0.390625q0.453125 0.1875 0.765625 0.5625q0.328125 0.359375 0.34375 0.96875q0 0.53125 -0.3125 0.96875q-0.296875 0.421875 -0.84375 0.671875q-0.546875 0.25 -1.25 0.25zm6.264038 0q-0.75 0 -1.359375 -0.25q-0.59375 -0.265625 -0.953125 -0.71875q-0.34375 -0.46875 -0.375 -1.078125l1.125 0q0.046875 0.5 0.453125 0.8125q0.421875 0.3125 1.09375 0.3125q0.625 0 0.984375 -0.28125q0.359375 -0.28125 0.359375 -0.6875q0 -0.4375 -0.390625 -0.640625q-0.375 -0.21875 -1.171875 -0.421875q-0.734375 -0.1875 -1.203125 -0.390625q-0.453125 -0.203125 -0.78125 -0.59375q-0.328125 -0.390625 -0.328125 -1.015625q0 -0.515625 0.296875 -0.921875q0.296875 -0.421875 0.84375 -0.671875q0.5625 -0.25 1.265625 -0.25q1.09375 0 1.765625 0.5625q0.671875 0.546875 0.71875 1.5l-1.09375 0q-0.03125 -0.515625 -0.421875 -0.828125q-0.375 -0.3125 -1.0 -0.3125q-0.59375 0 -0.953125 0.265625q-0.34375 0.25 -0.34375 0.65625q0 0.3125 0.203125 0.53125q0.21875 0.203125 0.53125 0.328125q0.328125 0.125 0.890625 0.28125q0.703125 0.203125 1.140625 0.390625q0.453125 0.1875 0.765625 0.5625q0.328125 0.359375 0.34375 0.96875q0 0.53125 -0.3125 0.96875q-0.296875 0.421875 -0.84375 0.671875q-0.546875 0.25 -1.25 0.25z" fill-rule="nonzero"/><path fill="#0a1432" d="m240.52223 95.51638l-1.984375 -3.421875l-1.328125 0l0 3.421875l-1.09375 0l0 -8.359375l2.703125 0q0.953125 0 1.59375 0.328125q0.65625 0.3125 0.984375 0.875q0.328125 0.546875 0.328125 1.25q0 0.859375 -0.5 1.53125q-0.5 0.65625 -1.5 0.875l2.109375 3.5l-1.3125 0zm-3.3125 -4.296875l1.609375 0q0.890625 0 1.328125 -0.4375q0.453125 -0.4375 0.453125 -1.171875q0 -0.734375 -0.4375 -1.140625q-0.4375 -0.421875 -1.34375 -0.421875l-1.609375 0l0 3.171875zm12.202301 0.75q0 0.3125 -0.03125 0.671875l-5.265625 0q0.0625 0.96875 0.671875 1.515625q0.609375 0.546875 1.46875 0.546875q0.703125 0 1.171875 -0.328125q0.484375 -0.328125 0.671875 -0.890625l1.1875 0q-0.265625 0.953125 -1.0625 1.546875q-0.796875 0.59375 -1.96875 0.59375q-0.9375 0 -1.671875 -0.421875q-0.734375 -0.421875 -1.15625 -1.1875q-0.421875 -0.78125 -0.421875 -1.796875q0 -1.015625 0.40625 -1.78125q0.40625 -0.78125 1.140625 -1.1875q0.75 -0.421875 1.703125 -0.421875q0.9375 0 1.65625 0.40625q0.71875 0.40625 1.109375 1.125q0.390625 0.71875 0.390625 1.609375zm-1.125 -0.21875q0 -0.625 -0.28125 -1.078125q-0.265625 -0.453125 -0.75 -0.6875q-0.46875 -0.234375 -1.046875 -0.234375q-0.828125 0 -1.40625 0.53125q-0.578125 0.53125 -0.671875 1.46875l4.15625 0zm5.018173 2.75l2.03125 -5.5625l1.171875 0l-2.578125 6.578125l-1.28125 0l-2.578125 -6.578125l1.171875 0l2.0625 5.5625zm4.8414307 -6.625q-0.3125 0 -0.53125 -0.21875q-0.203125 -0.21875 -0.203125 -0.53125q0 -0.3125 0.203125 -0.515625q0.21875 -0.21875 0.53125 -0.21875q0.296875 0 0.5 0.21875q0.21875 0.203125 0.21875 0.515625q0 0.3125 -0.21875 0.53125q-0.203125 0.21875 -0.5 0.21875zm0.53125 1.0625l0 6.578125l-1.09375 0l0 -6.578125l1.09375 0zm7.8582764 3.03125q0 0.3125 -0.03125 0.671875l-5.265625 0q0.0625 0.96875 0.671875 1.515625q0.609375 0.546875 1.46875 0.546875q0.703125 0 1.171875 -0.328125q0.484375 -0.328125 0.671875 -0.890625l1.1875 0q-0.265625 0.953125 -1.0625 1.546875q-0.796875 0.59375 -1.96875 0.59375q-0.9375 0 -1.671875 -0.421875q-0.734375 -0.421875 -1.15625 -1.1875q-0.421875 -0.78125 -0.421875 -1.796875q0 -1.015625 0.40625 -1.78125q0.40625 -0.78125 1.140625 -1.1875q0.75 -0.421875 1.703125 -0.421875q0.9375 0 1.65625 0.40625q0.71875 0.40625 1.109375 1.125q0.390625 0.71875 0.390625 1.609375zm-1.125 -0.21875q0 -0.625 -0.28125 -1.078125q-0.265625 -0.453125 -0.75 -0.6875q-0.46875 -0.234375 -1.046875 -0.234375q-0.828125 0 -1.40625 0.53125q-0.578125 0.53125 -0.671875 1.46875l4.15625 0zm11.330658 -2.8125l-2.0625 6.578125l-1.125 0l-1.578125 -5.21875l-1.578125 5.21875l-1.140625 0l-2.0625 -6.578125l1.125 0l1.5 5.515625l1.640625 -5.515625l1.109375 0l1.59375 5.53125l1.5 -5.53125l1.078125 0z" fill-rule="nonzero"/><path fill="#e3f7ed" d="m3.6190572 23.836107l152.47243 0l0 92.09449l-152.47243 0z" fill-rule="evenodd"/><path stroke="#e3f7ed" stroke-width="1.0" stroke-linejoin="round" stroke-linecap="butt" d="m3.6190572 23.836107l152.47243 0l0 92.09449l-152.47243 0z" fill-rule="evenodd"/><path fill="#e3f7ed" d="m156.09149 69.65238l0 -66.99213l26.645676 66.99213z" fill-rule="evenodd"/><path stroke="#e3f7ed" stroke-width="1.0" stroke-linejoin="round" stroke-linecap="butt" d="m156.09149 69.65238l0 -66.99213l26.645676 66.99213z" fill-rule="evenodd"/><path fill="#e3f7ed" d="m155.9111 69.49284l0 66.99213l26.64566 -66.99213z" fill-rule="evenodd"/><path stroke="#e3f7ed" stroke-width="1.0" stroke-linejoin="round" stroke-linecap="butt" d="m155.9111 69.49284l0 66.99213l26.64566 -66.99213z" fill-rule="evenodd"/><path fill="#000000" fill-opacity="0.0" d="m1.3670887 31.796371l173.35432 0l0 77.57481l-173.35432 0z" fill-rule="evenodd"/><path fill="#0a1432" d="m74.41699 52.394497q-0.921875 0 -1.65625 -0.296875q-0.734375 -0.296875 -1.171875 -0.875q-0.4375 -0.59375 -0.46875 -1.421875l2.1875 0q0.046875 0.46875 0.3125 0.71875q0.28125 0.234375 0.734375 0.234375q0.453125 0 0.71875 -0.203125q0.265625 -0.21875 0.265625 -0.59375q0 -0.296875 -0.21875 -0.5q-0.203125 -0.21875 -0.515625 -0.34375q-0.296875 -0.140625 -0.859375 -0.296875q-0.828125 -0.25 -1.34375 -0.5q-0.515625 -0.265625 -0.890625 -0.75q-0.359375 -0.5 -0.359375 -1.28125q0 -1.1875 0.84375 -1.84375q0.859375 -0.671875 2.21875 -0.671875q1.390625 0 2.25 0.671875q0.859375 0.65625 0.90625 1.84375l-2.21875 0q-0.015625 -0.40625 -0.296875 -0.640625q-0.28125 -0.234375 -0.703125 -0.234375q-0.375 0 -0.609375 0.203125q-0.21875 0.203125 -0.21875 0.578125q0 0.40625 0.375 0.640625q0.390625 0.21875 1.203125 0.484375q0.8125 0.265625 1.328125 0.53125q0.515625 0.25 0.875 0.734375q0.375 0.46875 0.375 1.21875q0 0.734375 -0.375 1.328125q-0.359375 0.578125 -1.0625 0.921875q-0.6875 0.34375 -1.625 0.34375zm8.051926 -1.8125l0 1.734375l-1.03125 0q-1.125 0 -1.75 -0.546875q-0.625 -0.546875 -0.625 -1.78125l0 -2.65625l-0.8125 0l0 -1.71875l0.8125 0l0 -1.625l2.0625 0l0 1.625l1.34375 0l0 1.71875l-1.34375 0l0 2.6875q0 0.296875 0.140625 0.4375q0.140625 0.125 0.484375 0.125l0.71875 0zm7.46579 -1.71875q0 0.28125 -0.046875 0.59375l-4.640625 0q0.046875 0.625 0.390625 0.953125q0.359375 0.328125 0.875 0.328125q0.78125 0 1.078125 -0.640625l2.1875 0q-0.171875 0.65625 -0.609375 1.1875q-0.4375 0.53125 -1.109375 0.828125q-0.65625 0.296875 -1.46875 0.296875q-0.984375 0 -1.75 -0.421875q-0.765625 -0.421875 -1.203125 -1.1875q-0.421875 -0.78125 -0.421875 -1.828125q0 -1.046875 0.421875 -1.828125q0.421875 -0.78125 1.1875 -1.203125q0.765625 -0.421875 1.765625 -0.421875q0.96875 0 1.71875 0.421875q0.765625 0.40625 1.1875 1.15625q0.4375 0.75 0.4375 1.765625zm-2.109375 -0.546875q0 -0.53125 -0.359375 -0.828125q-0.359375 -0.3125 -0.890625 -0.3125q-0.515625 0 -0.875 0.296875q-0.359375 0.296875 -0.4375 0.84375l2.5625 0zm5.2358093 -1.75q0.296875 -0.46875 0.828125 -0.75q0.53125 -0.296875 1.234375 -0.296875q0.828125 0 1.5 0.421875q0.671875 0.421875 1.0625 1.203125q0.390625 0.78125 0.390625 1.8125q0 1.03125 -0.390625 1.828125q-0.390625 0.78125 -1.0625 1.203125q-0.671875 0.421875 -1.5 0.421875q-0.703125 0 -1.234375 -0.28125q-0.53125 -0.296875 -0.828125 -0.75l0 4.125l-2.046875 0l0 -9.890625l2.046875 0l0 0.953125zm2.921875 2.390625q0 -0.765625 -0.421875 -1.203125q-0.421875 -0.4375 -1.046875 -0.4375q-0.609375 0 -1.046875 0.453125q-0.421875 0.4375 -0.421875 1.203125q0 0.765625 0.421875 1.21875q0.4375 0.4375 1.046875 0.4375q0.609375 0 1.03125 -0.453125q0.4375 -0.453125 0.4375 -1.21875zm5.3014526 -3.5l0 -1.90625l3.3125 0l0 8.765625l-2.125 0l0 -6.859375l-1.1875 0z" fill-rule="nonzero"/><path fill="#0a1432" d="m46.94359 76.92888q0 -1.21875 0.546875 -2.203125q0.5625 -0.984375 1.515625 -1.53125q0.953125 -0.546875 2.109375 -0.546875q1.375 0 2.390625 0.65625q1.015625 0.65625 1.484375 1.875l-1.296875 0q-0.359375 -0.765625 -1.015625 -1.171875q-0.640625 -0.40625 -1.5625 -0.40625q-0.875 0 -1.578125 0.40625q-0.6875 0.40625 -1.09375 1.15625q-0.390625 0.75 -0.390625 1.765625q0 1.0 0.390625 1.75q0.40625 0.75 1.09375 1.15625q0.703125 0.40625 1.578125 0.40625q0.921875 0 1.5625 -0.40625q0.65625 -0.40625 1.015625 -1.15625l1.296875 0q-0.46875 1.203125 -1.484375 1.859375q-1.015625 0.65625 -2.390625 0.65625q-1.15625 0 -2.109375 -0.546875q-0.953125 -0.546875 -1.515625 -1.515625q-0.546875 -0.984375 -0.546875 -2.203125zm15.498444 -2.390625l0 6.578125l-1.09375 0l0 -0.96875q-0.296875 0.5 -0.859375 0.78125q-0.5625 0.28125 -1.234375 0.28125q-0.765625 0 -1.375 -0.3125q-0.609375 -0.328125 -0.96875 -0.953125q-0.359375 -0.640625 -0.359375 -1.546875l0 -3.859375l1.078125 0l0 3.703125q0 0.984375 0.484375 1.5q0.5 0.515625 1.359375 0.515625q0.875 0 1.375 -0.53125q0.5 -0.546875 0.5 -1.578125l0 -3.609375l1.09375 0zm2.9456787 1.0625q0.28125 -0.5625 0.8125 -0.875q0.546875 -0.3125 1.3125 -0.3125l0 1.140625l-0.28125 0q-1.84375 0 -1.84375 1.984375l0 3.578125l-1.09375 0l0 -6.578125l1.09375 0l0 1.0625zm4.4760284 0q0.28125 -0.5625 0.8125 -0.875q0.546875 -0.3125 1.3125 -0.3125l0 1.140625l-0.28125 0q-1.84375 0 -1.84375 1.984375l0 3.578125l-1.09375 0l0 -6.578125l1.09375 0l0 1.0625zm9.382278 1.96875q0 0.3125 -0.03125 0.671875l-5.265625 0q0.0625 0.96875 0.671875 1.515625q0.609375 0.546875 1.46875 0.546875q0.703125 0 1.171875 -0.328125q0.484375 -0.328125 0.671875 -0.890625l1.1875 0q-0.265625 0.953125 -1.0625 1.546875q-0.796875 0.59375 -1.96875 0.59375q-0.9375 0 -1.671875 -0.421875q-0.734375 -0.421875 -1.15625 -1.1875q-0.421875 -0.78125 -0.421875 -1.796875q0 -1.015625 0.40625 -1.78125q0.40625 -0.78125 1.140625 -1.1875q0.75 -0.421875 1.703125 -0.421875q0.9375 0 1.65625 0.40625q0.71875 0.40625 1.109375 1.125q0.390625 0.71875 0.390625 1.609375zm-1.125 -0.21875q0 -0.625 -0.28125 -1.078125q-0.265625 -0.453125 -0.75 -0.6875q-0.46875 -0.234375 -1.046875 -0.234375q-0.828125 0 -1.40625 0.53125q-0.578125 0.53125 -0.671875 1.46875l4.15625 0zm5.768173 -2.9375q1.203125 0 1.9375 0.734375q0.75 0.71875 0.75 2.09375l0 3.875l-1.078125 0l0 -3.71875q0 -0.984375 -0.5 -1.5q-0.484375 -0.53125 -1.328125 -0.53125q-0.875 0 -1.390625 0.546875q-0.5 0.53125 -0.5 1.5625l0 3.640625l-1.09375 0l0 -6.578125l1.09375 0l0 0.9375q0.328125 -0.5 0.875 -0.78125q0.5625 -0.28125 1.234375 -0.28125zm5.8050537 1.03125l0 3.875q0 0.484375 0.203125 0.6875q0.203125 0.1875 0.71875 0.1875l0.796875 0l0 0.921875l-0.984375 0q-0.90625 0 -1.375 -0.421875q-0.453125 -0.421875 -0.453125 -1.375l0 -3.875l-0.84375 0l0 -0.90625l0.84375 0l0 -1.65625l1.09375 0l0 1.65625l1.71875 0l0 0.90625l-1.71875 0zm8.900177 5.75q-0.828125 0 -1.484375 -0.28125q-0.65625 -0.296875 -1.03125 -0.8125q-0.359375 -0.53125 -0.375 -1.21875l1.15625 0q0.0625 0.59375 0.484375 1.0q0.4375 0.390625 1.25 0.390625q0.78125 0 1.21875 -0.390625q0.453125 -0.390625 0.453125 -1.0q0 -0.484375 -0.265625 -0.78125q-0.25 -0.296875 -0.65625 -0.453125q-0.390625 -0.15625 -1.0625 -0.328125q-0.828125 -0.21875 -1.328125 -0.4375q-0.5 -0.21875 -0.859375 -0.671875q-0.34375 -0.46875 -0.34375 -1.25q0 -0.6875 0.34375 -1.203125q0.34375 -0.53125 0.96875 -0.8125q0.640625 -0.296875 1.453125 -0.296875q1.1875 0 1.9375 0.59375q0.75 0.578125 0.84375 1.546875l-1.203125 0q-0.0625 -0.46875 -0.515625 -0.828125q-0.4375 -0.375 -1.171875 -0.375q-0.671875 0 -1.109375 0.359375q-0.4375 0.34375 -0.4375 0.984375q0 0.453125 0.25 0.75q0.265625 0.28125 0.640625 0.4375q0.390625 0.140625 1.0625 0.328125q0.828125 0.234375 1.328125 0.453125q0.515625 0.21875 0.875 0.6875q0.359375 0.453125 0.359375 1.25q0 0.609375 -0.328125 1.15625q-0.3125 0.53125 -0.953125 0.875q-0.640625 0.328125 -1.5 0.328125zm10.387802 -3.625q0 0.3125 -0.03125 0.671875l-5.265625 0q0.0625 0.96875 0.671875 1.515625q0.609375 0.546875 1.46875 0.546875q0.703125 0 1.171875 -0.328125q0.484375 -0.328125 0.671875 -0.890625l1.1875 0q-0.265625 0.953125 -1.0625 1.546875q-0.796875 0.59375 -1.96875 0.59375q-0.9375 0 -1.671875 -0.421875q-0.734375 -0.421875 -1.15625 -1.1875q-0.421875 -0.78125 -0.421875 -1.796875q0 -1.015625 0.40625 -1.78125q0.40625 -0.78125 1.140625 -1.1875q0.75 -0.421875 1.703125 -0.421875q0.9375 0 1.65625 0.40625q0.71875 0.40625 1.109375 1.125q0.390625 0.71875 0.390625 1.609375zm-1.125 -0.21875q0 -0.625 -0.28125 -1.078125q-0.265625 -0.453125 -0.75 -0.6875q-0.46875 -0.234375 -1.046875 -0.234375q-0.828125 0 -1.40625 0.53125q-0.578125 0.53125 -0.671875 1.46875l4.15625 0zm3.8931732 -1.90625l0 3.875q0 0.484375 0.203125 0.6875q0.203125 0.1875 0.71875 0.1875l0.796875 0l0 0.921875l-0.984375 0q-0.90625 0 -1.375 -0.421875q-0.453125 -0.421875 -0.453125 -1.375l0 -3.875l-0.84375 0l0 -0.90625l0.84375 0l0 -1.65625l1.09375 0l0 1.65625l1.71875 0l0 0.90625l-1.71875 0zm8.868027 -0.90625l0 6.578125l-1.09375 0l0 -0.96875q-0.296875 0.5 -0.859375 0.78125q-0.5625 0.28125 -1.234375 0.28125q-0.765625 0 -1.375 -0.3125q-0.609375 -0.328125 -0.96875 -0.953125q-0.359375 -0.640625 -0.359375 -1.546875l0 -3.859375l1.078125 0l0 3.703125q0 0.984375 0.484375 1.5q0.5 0.515625 1.359375 0.515625q0.875 0 1.375 -0.53125q0.5 -0.546875 0.5 -1.578125l0 -3.609375l1.09375 0zm2.9456787 1.21875q0.328125 -0.5625 0.96875 -0.9375q0.640625 -0.390625 1.484375 -0.390625q0.890625 0 1.59375 0.421875q0.71875 0.421875 1.125 1.1875q0.40625 0.765625 0.40625 1.765625q0 1.0 -0.40625 1.78125q-0.40625 0.78125 -1.125 1.21875q-0.703125 0.421875 -1.59375 0.421875q-0.828125 0 -1.46875 -0.375q-0.640625 -0.375 -0.984375 -0.953125l0 4.34375l-1.09375 0l0 -9.703125l1.09375 0l0 1.21875zm4.46875 2.046875q0 -0.75 -0.3125 -1.296875q-0.296875 -0.546875 -0.8125 -0.828125q-0.5 -0.296875 -1.109375 -0.296875q-0.609375 0 -1.125 0.296875q-0.5 0.296875 -0.8125 0.859375q-0.296875 0.546875 -0.296875 1.28125q0 0.734375 0.296875 1.296875q0.3125 0.5625 0.8125 0.859375q0.515625 0.28125 1.125 0.28125q0.609375 0 1.109375 -0.28125q0.515625 -0.296875 0.8125 -0.859375q0.3125 -0.5625 0.3125 -1.3125z" fill-rule="nonzero"/><path fill="#0a1432" d="m57.70301 93.657005l-3.65625 0l-0.671875 1.859375l-1.15625 0l3.03125 -8.3125l1.265625 0l3.0 8.3125l-1.140625 0l-0.671875 -1.859375zm-0.3125 -0.890625l-1.515625 -4.21875l-1.515625 4.21875l3.03125 0zm5.7755585 2.859375q-0.75 0 -1.359375 -0.25q-0.59375 -0.265625 -0.953125 -0.71875q-0.34375 -0.46875 -0.375 -1.078125l1.125 0q0.046875 0.5 0.453125 0.8125q0.421875 0.3125 1.09375 0.3125q0.625 0 0.984375 -0.28125q0.359375 -0.28125 0.359375 -0.6875q0 -0.4375 -0.390625 -0.640625q-0.375 -0.21875 -1.171875 -0.421875q-0.734375 -0.1875 -1.203125 -0.390625q-0.453125 -0.203125 -0.78125 -0.59375q-0.328125 -0.390625 -0.328125 -1.015625q0 -0.515625 0.296875 -0.921875q0.296875 -0.421875 0.84375 -0.671875q0.5625 -0.25 1.265625 -0.25q1.09375 0 1.765625 0.5625q0.671875 0.546875 0.71875 1.5l-1.09375 0q-0.03125 -0.515625 -0.421875 -0.828125q-0.375 -0.3125 -1.0 -0.3125q-0.59375 0 -0.953125 0.265625q-0.34375 0.25 -0.34375 0.65625q0 0.3125 0.203125 0.53125q0.21875 0.203125 0.53125 0.328125q0.328125 0.125 0.890625 0.28125q0.703125 0.203125 1.140625 0.390625q0.453125 0.1875 0.765625 0.5625q0.328125 0.359375 0.34375 0.96875q0 0.53125 -0.3125 0.96875q-0.296875 0.421875 -0.84375 0.671875q-0.546875 0.25 -1.25 0.25zm6.264038 0q-0.75 0 -1.359375 -0.25q-0.59375 -0.265625 -0.953125 -0.71875q-0.34375 -0.46875 -0.375 -1.078125l1.125 0q0.046875 0.5 0.453125 0.8125q0.421875 0.3125 1.09375 0.3125q0.625 0 0.984375 -0.28125q0.359375 -0.28125 0.359375 -0.6875q0 -0.4375 -0.390625 -0.640625q-0.375 -0.21875 -1.171875 -0.421875q-0.734375 -0.1875 -1.203125 -0.390625q-0.453125 -0.203125 -0.78125 -0.59375q-0.328125 -0.390625 -0.328125 -1.015625q0 -0.515625 0.296875 -0.921875q0.296875 -0.421875 0.84375 -0.671875q0.5625 -0.25 1.265625 -0.25q1.09375 0 1.765625 0.5625q0.671875 0.546875 0.71875 1.5l-1.09375 0q-0.03125 -0.515625 -0.421875 -0.828125q-0.375 -0.3125 -1.0 -0.3125q-0.59375 0 -0.953125 0.265625q-0.34375 0.25 -0.34375 0.65625q0 0.3125 0.203125 0.53125q0.21875 0.203125 0.53125 0.328125q0.328125 0.125 0.890625 0.28125q0.703125 0.203125 1.140625 0.390625q0.453125 0.1875 0.765625 0.5625q0.328125 0.359375 0.34375 0.96875q0 0.53125 -0.3125 0.96875q-0.296875 0.421875 -0.84375 0.671875q-0.546875 0.25 -1.25 0.25zm9.935913 -3.65625q0 0.3125 -0.03125 0.671875l-5.265625 0q0.0625 0.96875 0.671875 1.515625q0.609375 0.546875 1.46875 0.546875q0.703125 0 1.171875 -0.328125q0.484375 -0.328125 0.671875 -0.890625l1.1875 0q-0.265625 0.953125 -1.0625 1.546875q-0.796875 0.59375 -1.96875 0.59375q-0.9375 0 -1.671875 -0.421875q-0.734375 -0.421875 -1.15625 -1.1875q-0.421875 -0.78125 -0.421875 -1.796875q0 -1.015625 0.40625 -1.78125q0.40625 -0.78125 1.140625 -1.1875q0.75 -0.421875 1.703125 -0.421875q0.9375 0 1.65625 0.40625q0.71875 0.40625 1.109375 1.125q0.390625 0.71875 0.390625 1.609375zm-1.125 -0.21875q0 -0.625 -0.28125 -1.078125q-0.265625 -0.453125 -0.75 -0.6875q-0.46875 -0.234375 -1.046875 -0.234375q-0.828125 0 -1.40625 0.53125q-0.578125 0.53125 -0.671875 1.46875l4.15625 0zm4.893173 3.875q-0.75 0 -1.359375 -0.25q-0.59375 -0.265625 -0.953125 -0.71875q-0.34375 -0.46875 -0.375 -1.078125l1.125 0q0.046875 0.5 0.453125 0.8125q0.421875 0.3125 1.09375 0.3125q0.625 0 0.984375 -0.28125q0.359375 -0.28125 0.359375 -0.6875q0 -0.4375 -0.390625 -0.640625q-0.375 -0.21875 -1.171875 -0.421875q-0.734375 -0.1875 -1.203125 -0.390625q-0.453125 -0.203125 -0.78125 -0.59375q-0.328125 -0.390625 -0.328125 -1.015625q0 -0.515625 0.296875 -0.921875q0.296875 -0.421875 0.84375 -0.671875q0.5625 -0.25 1.265625 -0.25q1.09375 0 1.765625 0.5625q0.671875 0.546875 0.71875 1.5l-1.09375 0q-0.03125 -0.515625 -0.421875 -0.828125q-0.375 -0.3125 -1.0 -0.3125q-0.59375 0 -0.953125 0.265625q-0.34375 0.25 -0.34375 0.65625q0 0.3125 0.203125 0.53125q0.21875 0.203125 0.53125 0.328125q0.328125 0.125 0.890625 0.28125q0.703125 0.203125 1.140625 0.390625q0.453125 0.1875 0.765625 0.5625q0.328125 0.359375 0.34375 0.96875q0 0.53125 -0.3125 0.96875q-0.296875 0.421875 -0.84375 0.671875q-0.546875 0.25 -1.25 0.25zm6.264038 0q-0.75 0 -1.359375 -0.25q-0.59375 -0.265625 -0.953125 -0.71875q-0.34375 -0.46875 -0.375 -1.078125l1.125 0q0.046875 0.5 0.453125 0.8125q0.421875 0.3125 1.09375 0.3125q0.625 0 0.984375 -0.28125q0.359375 -0.28125 0.359375 -0.6875q0 -0.4375 -0.390625 -0.640625q-0.375 -0.21875 -1.171875 -0.421875q-0.734375 -0.1875 -1.203125 -0.390625q-0.453125 -0.203125 -0.78125 -0.59375q-0.328125 -0.390625 -0.328125 -1.015625q0 -0.515625 0.296875 -0.921875q0.296875 -0.421875 0.84375 -0.671875q0.5625 -0.25 1.265625 -0.25q1.09375 0 1.765625 0.5625q0.671875 0.546875 0.71875 1.5l-1.09375 0q-0.03125 -0.515625 -0.421875 -0.828125q-0.375 -0.3125 -1.0 -0.3125q-0.59375 0 -0.953125 0.265625q-0.34375 0.25 -0.34375 0.65625q0 0.3125 0.203125 0.53125q0.21875 0.203125 0.53125 0.328125q0.328125 0.125 0.890625 0.28125q0.703125 0.203125 1.140625 0.390625q0.453125 0.1875 0.765625 0.5625q0.328125 0.359375 0.34375 0.96875q0 0.53125 -0.3125 0.96875q-0.296875 0.421875 -0.84375 0.671875q-0.546875 0.25 -1.25 0.25zm11.842163 -6.8125q0.765625 0 1.359375 0.328125q0.609375 0.3125 0.953125 0.953125q0.359375 0.640625 0.359375 1.546875l0 3.875l-1.078125 0l0 -3.71875q0 -0.984375 -0.5 -1.5q-0.484375 -0.53125 -1.3125 -0.53125q-0.84375 0 -1.359375 0.546875q-0.5 0.546875 -0.5 1.578125l0 3.625l-1.078125 0l0 -3.71875q0 -0.984375 -0.484375 -1.5q-0.484375 -0.53125 -1.3125 -0.53125q-0.84375 0 -1.359375 0.546875q-0.5 0.546875 -0.5 1.578125l0 3.625l-1.09375 0l0 -6.578125l1.09375 0l0 0.953125q0.328125 -0.515625 0.875 -0.796875q0.546875 -0.28125 1.203125 -0.28125q0.828125 0 1.453125 0.375q0.640625 0.375 0.953125 1.09375q0.28125 -0.6875 0.90625 -1.078125q0.640625 -0.390625 1.421875 -0.390625zm10.453842 3.15625q0 0.3125 -0.03125 0.671875l-5.265625 0q0.0625 0.96875 0.671875 1.515625q0.609375 0.546875 1.46875 0.546875q0.703125 0 1.171875 -0.328125q0.484375 -0.328125 0.671875 -0.890625l1.1875 0q-0.265625 0.953125 -1.0625 1.546875q-0.796875 0.59375 -1.96875 0.59375q-0.9375 0 -1.671875 -0.421875q-0.734375 -0.421875 -1.15625 -1.1875q-0.421875 -0.78125 -0.421875 -1.796875q0 -1.015625 0.40625 -1.78125q0.40625 -0.78125 1.140625 -1.1875q0.75 -0.421875 1.703125 -0.421875q0.9375 0 1.65625 0.40625q0.71875 0.40625 1.109375 1.125q0.390625 0.71875 0.390625 1.609375zm-1.125 -0.21875q0 -0.625 -0.28125 -1.078125q-0.265625 -0.453125 -0.75 -0.6875q-0.46875 -0.234375 -1.046875 -0.234375q-0.828125 0 -1.40625 0.53125q-0.578125 0.53125 -0.671875 1.46875l4.15625 0zm5.768173 -2.9375q1.203125 0 1.9375 0.734375q0.75 0.71875 0.75 2.09375l0 3.875l-1.078125 0l0 -3.71875q0 -0.984375 -0.5 -1.5q-0.484375 -0.53125 -1.328125 -0.53125q-0.875 0 -1.390625 0.546875q-0.5 0.53125 -0.5 1.5625l0 3.640625l-1.09375 0l0 -6.578125l1.09375 0l0 0.9375q0.328125 -0.5 0.875 -0.78125q0.5625 -0.28125 1.234375 -0.28125zm5.8050537 1.03125l0 3.875q0 0.484375 0.203125 0.6875q0.203125 0.1875 0.71875 0.1875l0.796875 0l0 0.921875l-0.984375 0q-0.90625 0 -1.375 -0.421875q-0.453125 -0.421875 -0.453125 -1.375l0 -3.875l-0.84375 0l0 -0.90625l0.84375 0l0 -1.65625l1.09375 0l0 1.65625l1.71875 0l0 0.90625l-1.71875 0z" fill-rule="nonzero"/><path fill="#000000" fill-opacity="0.0" d="m329.3671 31.796371l173.35431 0l0 77.57481l-173.35431 0z" fill-rule="evenodd"/><path fill="#0a1432" d="m401.043 52.394497q-0.921875 0 -1.65625 -0.296875q-0.734375 -0.296875 -1.171875 -0.875q-0.4375 -0.59375 -0.46875 -1.421875l2.1875 0q0.046875 0.46875 0.3125 0.71875q0.28125 0.234375 0.734375 0.234375q0.453125 0 0.71875 -0.203125q0.265625 -0.21875 0.265625 -0.59375q0 -0.296875 -0.21875 -0.5q-0.203125 -0.21875 -0.515625 -0.34375q-0.296875 -0.140625 -0.859375 -0.296875q-0.828125 -0.25 -1.34375 -0.5q-0.515625 -0.265625 -0.890625 -0.75q-0.359375 -0.5 -0.359375 -1.28125q0 -1.1875 0.84375 -1.84375q0.859375 -0.671875 2.21875 -0.671875q1.390625 0 2.25 0.671875q0.859375 0.65625 0.90625 1.84375l-2.21875 0q-0.015625 -0.40625 -0.296875 -0.640625q-0.28125 -0.234375 -0.703125 -0.234375q-0.375 0 -0.609375 0.203125q-0.21875 0.203125 -0.21875 0.578125q0 0.40625 0.375 0.640625q0.390625 0.21875 1.203125 0.484375q0.8125 0.265625 1.328125 0.53125q0.515625 0.25 0.875 0.734375q0.375 0.46875 0.375 1.21875q0 0.734375 -0.375 1.328125q-0.359375 0.578125 -1.0625 0.921875q-0.6875 0.34375 -1.625 0.34375zm8.05191 -1.8125l0 1.734375l-1.03125 0q-1.125 0 -1.75 -0.546875q-0.625 -0.546875 -0.625 -1.78125l0 -2.65625l-0.8125 0l0 -1.71875l0.8125 0l0 -1.625l2.0625 0l0 1.625l1.34375 0l0 1.71875l-1.34375 0l0 2.6875q0 0.296875 0.140625 0.4375q0.140625 0.125 0.484375 0.125l0.71875 0zm7.46579 -1.71875q0 0.28125 -0.046875 0.59375l-4.640625 0q0.046875 0.625 0.390625 0.953125q0.359375 0.328125 0.875 0.328125q0.78125 0 1.078125 -0.640625l2.1875 0q-0.171875 0.65625 -0.609375 1.1875q-0.4375 0.53125 -1.109375 0.828125q-0.65625 0.296875 -1.46875 0.296875q-0.984375 0 -1.75 -0.421875q-0.765625 -0.421875 -1.203125 -1.1875q-0.421875 -0.78125 -0.421875 -1.828125q0 -1.046875 0.421875 -1.828125q0.421875 -0.78125 1.1875 -1.203125q0.765625 -0.421875 1.765625 -0.421875q0.96875 0 1.71875 0.421875q0.765625 0.40625 1.1875 1.15625q0.4375 0.75 0.4375 1.765625zm-2.109375 -0.546875q0 -0.53125 -0.359375 -0.828125q-0.359375 -0.3125 -0.890625 -0.3125q-0.515625 0 -0.875 0.296875q-0.359375 0.296875 -0.4375 0.84375l2.5625 0zm5.2358093 -1.75q0.296875 -0.46875 0.828125 -0.75q0.53125 -0.296875 1.234375 -0.296875q0.828125 0 1.5 0.421875q0.671875 0.421875 1.0625 1.203125q0.390625 0.78125 0.390625 1.8125q0 1.03125 -0.390625 1.828125q-0.390625 0.78125 -1.0625 1.203125q-0.671875 0.421875 -1.5 0.421875q-0.703125 0 -1.234375 -0.28125q-0.53125 -0.296875 -0.828125 -0.75l0 4.125l-2.046875 0l0 -9.890625l2.046875 0l0 0.953125zm2.921875 2.390625q0 -0.765625 -0.421875 -1.203125q-0.421875 -0.4375 -1.046875 -0.4375q-0.609375 0 -1.046875 0.453125q-0.421875 0.4375 -0.421875 1.203125q0 0.765625 0.421875 1.21875q0.4375 0.4375 1.046875 0.4375q0.609375 0 1.03125 -0.453125q0.4375 -0.453125 0.4375 -1.21875zm5.5827026 -2.921875q0.046875 -1.296875 0.84375 -1.984375q0.796875 -0.703125 2.140625 -0.703125q0.90625 0 1.546875 0.3125q0.640625 0.3125 0.96875 0.859375q0.328125 0.53125 0.328125 1.203125q0 0.796875 -0.390625 1.296875q-0.390625 0.5 -0.921875 0.671875l0 0.046875q0.6875 0.234375 1.078125 0.765625q0.390625 0.53125 0.390625 1.359375q0 0.734375 -0.34375 1.3125q-0.328125 0.5625 -0.984375 0.890625q-0.65625 0.328125 -1.5625 0.328125q-1.4375 0 -2.296875 -0.703125q-0.859375 -0.71875 -0.90625 -2.140625l2.0 0q0.015625 0.515625 0.296875 0.828125q0.28125 0.3125 0.84375 0.3125q0.46875 0 0.71875 -0.265625q0.265625 -0.28125 0.265625 -0.71875q0 -0.578125 -0.375 -0.828125q-0.359375 -0.265625 -1.171875 -0.265625l-0.375 0l0 -1.671875l0.375 0q0.625 0 1.0 -0.203125q0.375 -0.21875 0.375 -0.765625q0 -0.421875 -0.25 -0.65625q-0.234375 -0.25 -0.65625 -0.25q-0.453125 0 -0.671875 0.28125q-0.21875 0.265625 -0.265625 0.6875l-2.0 0z" fill-rule="nonzero"/><path fill="#0a1432" d="m409.26978 75.17888q-0.359375 -0.734375 -1.015625 -1.125q-0.65625 -0.40625 -1.53125 -0.40625q-0.875 0 -1.578125 0.40625q-0.703125 0.390625 -1.109375 1.140625q-0.40625 0.75 -0.40625 1.734375q0 0.984375 0.40625 1.734375q0.40625 0.734375 1.109375 1.140625q0.703125 0.40625 1.578125 0.40625q1.21875 0 2.015625 -0.734375q0.796875 -0.734375 0.921875 -1.984375l-3.34375 0l0 -0.890625l4.5 0l0 0.84375q-0.09375 1.03125 -0.640625 1.890625q-0.546875 0.859375 -1.453125 1.359375q-0.90625 0.5 -2.0 0.5q-1.171875 0 -2.140625 -0.546875q-0.953125 -0.546875 -1.515625 -1.515625q-0.546875 -0.984375 -0.546875 -2.203125q0 -1.21875 0.546875 -2.203125q0.5625 -0.984375 1.515625 -1.515625q0.96875 -0.546875 2.140625 -0.546875q1.328125 0 2.34375 0.65625q1.03125 0.65625 1.5 1.859375l-1.296875 0zm5.8673096 6.046875q-0.921875 0 -1.671875 -0.421875q-0.75 -0.421875 -1.1875 -1.1875q-0.421875 -0.78125 -0.421875 -1.796875q0 -1.015625 0.4375 -1.78125q0.4375 -0.78125 1.1875 -1.1875q0.765625 -0.421875 1.703125 -0.421875q0.9375 0 1.6875 0.421875q0.75 0.40625 1.1875 1.1875q0.4375 0.765625 0.4375 1.78125q0 1.015625 -0.453125 1.796875q-0.4375 0.765625 -1.203125 1.1875q-0.765625 0.421875 -1.703125 0.421875zm0 -0.96875q0.578125 0 1.09375 -0.265625q0.515625 -0.28125 0.828125 -0.828125q0.328125 -0.5625 0.328125 -1.34375q0 -0.796875 -0.3125 -1.34375q-0.3125 -0.5625 -0.8125 -0.828125q-0.5 -0.265625 -1.09375 -0.265625q-0.59375 0 -1.09375 0.265625q-0.5 0.265625 -0.8125 0.828125q-0.296875 0.546875 -0.296875 1.34375q0 0.796875 0.296875 1.359375q0.296875 0.546875 0.78125 0.8125q0.5 0.265625 1.09375 0.265625zm4.3988037 -2.453125q0 -1.0 0.40625 -1.765625q0.40625 -0.765625 1.125 -1.1875q0.71875 -0.421875 1.59375 -0.421875q0.859375 0 1.484375 0.375q0.640625 0.375 0.953125 0.9375l0 -1.203125l1.109375 0l0 6.578125l-1.109375 0l0 -1.21875q-0.3125 0.578125 -0.96875 0.953125q-0.640625 0.375 -1.484375 0.375q-0.875 0 -1.59375 -0.421875q-0.703125 -0.4375 -1.109375 -1.21875q-0.40625 -0.78125 -0.40625 -1.78125zm5.5625 0.015625q0 -0.75 -0.296875 -1.296875q-0.296875 -0.546875 -0.8125 -0.84375q-0.5 -0.296875 -1.109375 -0.296875q-0.625 0 -1.125 0.296875q-0.5 0.28125 -0.8125 0.828125q-0.296875 0.546875 -0.296875 1.296875q0 0.75 0.296875 1.3125q0.3125 0.5625 0.8125 0.859375q0.5 0.28125 1.125 0.28125q0.609375 0 1.109375 -0.28125q0.515625 -0.296875 0.8125 -0.859375q0.296875 -0.5625 0.296875 -1.296875zm4.0495605 -5.578125l0 8.875l-1.09375 0l0 -8.875l1.09375 0z" fill-rule="nonzero"/><path fill="#0a1432" d="m391.10303 93.657005l-3.65625 0l-0.671875 1.859375l-1.15625 0l3.03125 -8.3125l1.265625 0l3.0 8.3125l-1.140625 0l-0.671875 -1.859375zm-0.3125 -0.890625l-1.515625 -4.21875l-1.515625 4.21875l3.03125 0zm4.5411987 -6.125l0 8.875l-1.09375 0l0 -8.875l1.09375 0zm2.4207764 1.234375q-0.3125 0 -0.53125 -0.21875q-0.203125 -0.21875 -0.203125 -0.53125q0 -0.3125 0.203125 -0.515625q0.21875 -0.21875 0.53125 -0.21875q0.296875 0 0.5 0.21875q0.21875 0.203125 0.21875 0.515625q0 0.3125 -0.21875 0.53125q-0.203125 0.21875 -0.5 0.21875zm0.53125 1.0625l0 6.578125l-1.09375 0l0 -6.578125l1.09375 0zm4.5770264 -0.109375q0.84375 0 1.484375 0.375q0.640625 0.375 0.953125 0.9375l0 -1.203125l1.109375 0l0 6.71875q0 0.9062424 -0.390625 1.6093674q-0.375 0.703125 -1.09375 1.09375q-0.71875 0.390625 -1.65625 0.390625q-1.296875 0 -2.171875 -0.609375q-0.859375 -0.609375 -1.015625 -1.671875l1.078125 0q0.1875 0.609375 0.75 0.96875q0.5625 0.375 1.359375 0.375q0.890625 0 1.453125 -0.578125q0.578125 -0.5625 0.578125 -1.5781174l0 -1.375q-0.3125 0.578125 -0.953125 0.96875q-0.640625 0.375 -1.484375 0.375q-0.875 0 -1.59375 -0.421875q-0.71875 -0.4375 -1.125 -1.21875q-0.40625 -0.78125 -0.40625 -1.78125q0 -1.0 0.40625 -1.765625q0.40625 -0.765625 1.125 -1.1875q0.71875 -0.421875 1.59375 -0.421875zm2.4375 3.390625q0 -0.75 -0.296875 -1.296875q-0.296875 -0.546875 -0.8125 -0.84375q-0.5 -0.296875 -1.109375 -0.296875q-0.625 0 -1.125 0.296875q-0.5 0.28125 -0.8125 0.828125q-0.296875 0.546875 -0.296875 1.296875q0 0.75 0.296875 1.3125q0.3125 0.5625 0.8125 0.859375q0.5 0.28125 1.125 0.28125q0.609375 0 1.109375 -0.28125q0.515625 -0.296875 0.8125 -0.859375q0.296875 -0.5625 0.296875 -1.296875zm6.1589355 -3.40625q1.203125 0 1.9375 0.734375q0.75 0.71875 0.75 2.09375l0 3.875l-1.078125 0l0 -3.71875q0 -0.984375 -0.5 -1.5q-0.484375 -0.53125 -1.328125 -0.53125q-0.875 0 -1.390625 0.546875q-0.5 0.53125 -0.5 1.5625l0 3.640625l-1.09375 0l0 -6.578125l1.09375 0l0 0.9375q0.328125 -0.5 0.875 -0.78125q0.5625 -0.28125 1.234375 -0.28125zm12.383179 0q0.765625 0 1.359375 0.328125q0.609375 0.3125 0.953125 0.953125q0.359375 0.640625 0.359375 1.546875l0 3.875l-1.078125 0l0 -3.71875q0 -0.984375 -0.5 -1.5q-0.484375 -0.53125 -1.3125 -0.53125q-0.84375 0 -1.359375 0.546875q-0.5 0.546875 -0.5 1.578125l0 3.625l-1.078125 0l0 -3.71875q0 -0.984375 -0.484375 -1.5q-0.484375 -0.53125 -1.3125 -0.53125q-0.84375 0 -1.359375 0.546875q-0.5 0.546875 -0.5 1.578125l0 3.625l-1.09375 0l0 -6.578125l1.09375 0l0 0.953125q0.328125 -0.515625 0.875 -0.796875q0.546875 -0.28125 1.203125 -0.28125q0.828125 0 1.453125 0.375q0.640625 0.375 0.953125 1.09375q0.28125 -0.6875 0.90625 -1.078125q0.640625 -0.390625 1.421875 -0.390625zm10.453827 3.15625q0 0.3125 -0.03125 0.671875l-5.265625 0q0.0625 0.96875 0.671875 1.515625q0.609375 0.546875 1.46875 0.546875q0.703125 0 1.171875 -0.328125q0.484375 -0.328125 0.671875 -0.890625l1.1875 0q-0.265625 0.953125 -1.0625 1.546875q-0.796875 0.59375 -1.96875 0.59375q-0.9375 0 -1.671875 -0.421875q-0.734375 -0.421875 -1.15625 -1.1875q-0.421875 -0.78125 -0.421875 -1.796875q0 -1.015625 0.40625 -1.78125q0.40625 -0.78125 1.140625 -1.1875q0.75 -0.421875 1.703125 -0.421875q0.9375 0 1.65625 0.40625q0.71875 0.40625 1.109375 1.125q0.390625 0.71875 0.390625 1.609375zm-1.125 -0.21875q0 -0.625 -0.28125 -1.078125q-0.265625 -0.453125 -0.75 -0.6875q-0.46875 -0.234375 -1.046875 -0.234375q-0.828125 0 -1.40625 0.53125q-0.578125 0.53125 -0.671875 1.46875l4.15625 0zm5.7681885 -2.9375q1.203125 0 1.9375 0.734375q0.75 0.71875 0.75 2.09375l0 3.875l-1.078125 0l0 -3.71875q0 -0.984375 -0.5 -1.5q-0.484375 -0.53125 -1.328125 -0.53125q-0.875 0 -1.390625 0.546875q-0.5 0.53125 -0.5 1.5625l0 3.640625l-1.09375 0l0 -6.578125l1.09375 0l0 0.9375q0.328125 -0.5 0.875 -0.78125q0.5625 -0.28125 1.234375 -0.28125zm5.8050537 1.03125l0 3.875q0 0.484375 0.203125 0.6875q0.203125 0.1875 0.71875 0.1875l0.796875 0l0 0.921875l-0.984375 0q-0.90625 0 -1.375 -0.421875q-0.453125 -0.421875 -0.453125 -1.375l0 -3.875l-0.84375 0l0 -0.90625l0.84375 0l0 -1.65625l1.09375 0l0 1.65625l1.71875 0l0 0.90625l-1.71875 0z" fill-rule="nonzero"/><path fill="#000000" fill-opacity="0.0" d="m489.3671 31.796371l173.35434 0l0 77.57481l-173.35434 0z" fill-rule="evenodd"/><path fill="#0a1432" d="m560.61096 52.394497q-0.921875 0 -1.65625 -0.296875q-0.734375 -0.296875 -1.171875 -0.875q-0.4375 -0.59375 -0.46875 -1.421875l2.1875 0q0.046875 0.46875 0.3125 0.71875q0.28125 0.234375 0.734375 0.234375q0.453125 0 0.71875 -0.203125q0.265625 -0.21875 0.265625 -0.59375q0 -0.296875 -0.21875 -0.5q-0.203125 -0.21875 -0.515625 -0.34375q-0.296875 -0.140625 -0.859375 -0.296875q-0.828125 -0.25 -1.34375 -0.5q-0.515625 -0.265625 -0.890625 -0.75q-0.359375 -0.5 -0.359375 -1.28125q0 -1.1875 0.84375 -1.84375q0.859375 -0.671875 2.21875 -0.671875q1.390625 0 2.25 0.671875q0.859375 0.65625 0.90625 1.84375l-2.21875 0q-0.015625 -0.40625 -0.296875 -0.640625q-0.28125 -0.234375 -0.703125 -0.234375q-0.375 0 -0.609375 0.203125q-0.21875 0.203125 -0.21875 0.578125q0 0.40625 0.375 0.640625q0.390625 0.21875 1.203125 0.484375q0.8125 0.265625 1.328125 0.53125q0.515625 0.25 0.875 0.734375q0.375 0.46875 0.375 1.21875q0 0.734375 -0.375 1.328125q-0.359375 0.578125 -1.0625 0.921875q-0.6875 0.34375 -1.625 0.34375zm8.051941 -1.8125l0 1.734375l-1.03125 0q-1.125 0 -1.75 -0.546875q-0.625 -0.546875 -0.625 -1.78125l0 -2.65625l-0.8125 0l0 -1.71875l0.8125 0l0 -1.625l2.0625 0l0 1.625l1.34375 0l0 1.71875l-1.34375 0l0 2.6875q0 0.296875 0.140625 0.4375q0.140625 0.125 0.484375 0.125l0.71875 0zm7.4658203 -1.71875q0 0.28125 -0.046875 0.59375l-4.640625 0q0.046875 0.625 0.390625 0.953125q0.359375 0.328125 0.875 0.328125q0.78125 0 1.078125 -0.640625l2.1875 0q-0.171875 0.65625 -0.609375 1.1875q-0.4375 0.53125 -1.109375 0.828125q-0.65625 0.296875 -1.46875 0.296875q-0.984375 0 -1.75 -0.421875q-0.765625 -0.421875 -1.203125 -1.1875q-0.421875 -0.78125 -0.421875 -1.828125q0 -1.046875 0.421875 -1.828125q0.421875 -0.78125 1.1875 -1.203125q0.765625 -0.421875 1.765625 -0.421875q0.96875 0 1.71875 0.421875q0.765625 0.40625 1.1875 1.15625q0.4375 0.75 0.4375 1.765625zm-2.109375 -0.546875q0 -0.53125 -0.359375 -0.828125q-0.359375 -0.3125 -0.890625 -0.3125q-0.515625 0 -0.875 0.296875q-0.359375 0.296875 -0.4375 0.84375l2.5625 0zm5.235779 -1.75q0.296875 -0.46875 0.828125 -0.75q0.53125 -0.296875 1.234375 -0.296875q0.828125 0 1.5 0.421875q0.671875 0.421875 1.0625 1.203125q0.390625 0.78125 0.390625 1.8125q0 1.03125 -0.390625 1.828125q-0.390625 0.78125 -1.0625 1.203125q-0.671875 0.421875 -1.5 0.421875q-0.703125 0 -1.234375 -0.28125q-0.53125 -0.296875 -0.828125 -0.75l0 4.125l-2.046875 0l0 -9.890625l2.046875 0l0 0.953125zm2.921875 2.390625q0 -0.765625 -0.421875 -1.203125q-0.421875 -0.4375 -1.046875 -0.4375q-0.609375 0 -1.046875 0.453125q-0.421875 0.4375 -0.421875 1.203125q0 0.765625 0.421875 1.21875q0.4375 0.4375 1.046875 0.4375q0.609375 0 1.03125 -0.453125q0.4375 -0.453125 0.4375 -1.21875zm5.5670776 1.796875l0 -1.65625l3.78125 -5.421875l2.296875 0l0 5.296875l0.984375 0l0 1.78125l-0.984375 0l0 1.5625l-2.046875 0l0 -1.5625l-4.03125 0zm4.171875 -4.828125l-2.015625 3.046875l2.015625 0l0 -3.046875z" fill-rule="nonzero"/><path fill="#0a1432" d="m545.151 79.257l-3.65625 0l-0.671875 1.859375l-1.15625 0l3.03125 -8.3125l1.265625 0l3.0 8.3125l-1.140625 0l-0.671875 -1.859375zm-0.3125 -0.890625l-1.515625 -4.21875l-1.515625 4.21875l3.03125 0zm4.5411987 -2.765625q0.28125 -0.5625 0.8125 -0.875q0.546875 -0.3125 1.3125 -0.3125l0 1.140625l-0.28125 0q-1.84375 0 -1.84375 1.984375l0 3.578125l-1.09375 0l0 -6.578125l1.09375 0l0 1.0625zm2.9760132 2.21875q0 -1.015625 0.40625 -1.78125q0.40625 -0.765625 1.125 -1.1875q0.734375 -0.421875 1.671875 -0.421875q1.21875 0 2.0 0.59375q0.78125 0.578125 1.03125 1.625l-1.171875 0q-0.171875 -0.59375 -0.65625 -0.9375q-0.484375 -0.359375 -1.203125 -0.359375q-0.9375 0 -1.515625 0.65625q-0.578125 0.640625 -0.578125 1.8125q0 1.1875 0.578125 1.84375q0.578125 0.640625 1.515625 0.640625q0.71875 0 1.203125 -0.328125q0.484375 -0.34375 0.65625 -0.96875l1.171875 0q-0.265625 1.0 -1.0625 1.609375q-0.78125 0.609375 -1.96875 0.609375q-0.9375 0 -1.671875 -0.421875q-0.71875 -0.421875 -1.125 -1.1875q-0.40625 -0.765625 -0.40625 -1.796875zm10.955933 -3.40625q0.75 0 1.34375 0.328125q0.59375 0.3125 0.9375 0.953125q0.34375 0.640625 0.34375 1.546875l0 3.875l-1.078125 0l0 -3.71875q0 -0.984375 -0.5 -1.5q-0.484375 -0.53125 -1.328125 -0.53125q-0.875 0 -1.390625 0.546875q-0.5 0.53125 -0.5 1.5625l0 3.640625l-1.09375 0l0 -8.875l1.09375 0l0 3.234375q0.328125 -0.5 0.890625 -0.78125q0.578125 -0.28125 1.28125 -0.28125zm4.9769287 -0.9375q-0.3125 0 -0.53125 -0.21875q-0.203125 -0.21875 -0.203125 -0.53125q0 -0.3125 0.203125 -0.515625q0.21875 -0.21875 0.53125 -0.21875q0.296875 0 0.5 0.21875q0.21875 0.203125 0.21875 0.515625q0 0.3125 -0.21875 0.53125q-0.203125 0.21875 -0.5 0.21875zm0.53125 1.0625l0 6.578125l-1.09375 0l0 -6.578125l1.09375 0zm3.1864014 0.90625l0 3.875q0 0.484375 0.203125 0.6875q0.203125 0.1875 0.71875 0.1875l0.796875 0l0 0.921875l-0.984375 0q-0.90625 0 -1.375 -0.421875q-0.453125 -0.421875 -0.453125 -1.375l0 -3.875l-0.84375 0l0 -0.90625l0.84375 0l0 -1.65625l1.09375 0l0 1.65625l1.71875 0l0 0.90625l-1.71875 0zm9.039917 2.125q0 0.3125 -0.03125 0.671875l-5.265625 0q0.0625 0.96875 0.671875 1.515625q0.609375 0.546875 1.46875 0.546875q0.703125 0 1.171875 -0.328125q0.484375 -0.328125 0.671875 -0.890625l1.1875 0q-0.265625 0.953125 -1.0625 1.546875q-0.796875 0.59375 -1.96875 0.59375q-0.9375 0 -1.671875 -0.421875q-0.734375 -0.421875 -1.15625 -1.1875q-0.421875 -0.78125 -0.421875 -1.796875q0 -1.015625 0.40625 -1.78125q0.40625 -0.78125 1.140625 -1.1875q0.75 -0.421875 1.703125 -0.421875q0.9375 0 1.65625 0.40625q0.71875 0.40625 1.109375 1.125q0.390625 0.71875 0.390625 1.609375zm-1.125 -0.21875q0 -0.625 -0.28125 -1.078125q-0.265625 -0.453125 -0.75 -0.6875q-0.46875 -0.234375 -1.046875 -0.234375q-0.828125 0 -1.40625 0.53125q-0.578125 0.53125 -0.671875 1.46875l4.15625 0zm2.1587524 0.46875q0 -1.015625 0.40625 -1.78125q0.40625 -0.765625 1.125 -1.1875q0.734375 -0.421875 1.671875 -0.421875q1.21875 0 2.0 0.59375q0.78125 0.578125 1.03125 1.625l-1.171875 0q-0.171875 -0.59375 -0.65625 -0.9375q-0.484375 -0.359375 -1.203125 -0.359375q-0.9375 0 -1.515625 0.65625q-0.578125 0.640625 -0.578125 1.8125q0 1.1875 0.578125 1.84375q0.578125 0.640625 1.515625 0.640625q0.71875 0 1.203125 -0.328125q0.484375 -0.34375 0.65625 -0.96875l1.171875 0q-0.265625 1.0 -1.0625 1.609375q-0.78125 0.609375 -1.96875 0.609375q-0.9375 0 -1.671875 -0.421875q-0.71875 -0.421875 -1.125 -1.1875q-0.40625 -0.765625 -0.40625 -1.796875zm9.018433 -2.375l0 3.875q0 0.484375 0.203125 0.6875q0.203125 0.1875 0.71875 0.1875l0.796875 0l0 0.921875l-0.984375 0q-0.90625 0 -1.375 -0.421875q-0.453125 -0.421875 -0.453125 -1.375l0 -3.875l-0.84375 0l0 -0.90625l0.84375 0l0 -1.65625l1.09375 0l0 1.65625l1.71875 0l0 0.90625l-1.71875 0zm8.868042 -0.90625l0 6.578125l-1.09375 0l0 -0.96875q-0.296875 0.5 -0.859375 0.78125q-0.5625 0.28125 -1.234375 0.28125q-0.765625 0 -1.375 -0.3125q-0.609375 -0.328125 -0.96875 -0.953125q-0.359375 -0.640625 -0.359375 -1.546875l0 -3.859375l1.078125 0l0 3.703125q0 0.984375 0.484375 1.5q0.5 0.515625 1.359375 0.515625q0.875 0 1.375 -0.53125q0.5 -0.546875 0.5 -1.578125l0 -3.609375l1.09375 0zm2.9456787 1.0625q0.28125 -0.5625 0.8125 -0.875q0.546875 -0.3125 1.3125 -0.3125l0 1.140625l-0.28125 0q-1.84375 0 -1.84375 1.984375l0 3.578125l-1.09375 0l0 -6.578125l1.09375 0l0 1.0625zm9.382263 1.96875q0 0.3125 -0.03125 0.671875l-5.265625 0q0.0625 0.96875 0.671875 1.515625q0.609375 0.546875 1.46875 0.546875q0.703125 0 1.171875 -0.328125q0.484375 -0.328125 0.671875 -0.890625l1.1875 0q-0.265625 0.953125 -1.0625 1.546875q-0.796875 0.59375 -1.96875 0.59375q-0.9375 0 -1.671875 -0.421875q-0.734375 -0.421875 -1.15625 -1.1875q-0.421875 -0.78125 -0.421875 -1.796875q0 -1.015625 0.40625 -1.78125q0.40625 -0.78125 1.140625 -1.1875q0.75 -0.421875 1.703125 -0.421875q0.9375 0 1.65625 0.40625q0.71875 0.40625 1.109375 1.125q0.390625 0.71875 0.390625 1.609375zm-1.125 -0.21875q0 -0.625 -0.28125 -1.078125q-0.265625 -0.453125 -0.75 -0.6875q-0.46875 -0.234375 -1.046875 -0.234375q-0.828125 0 -1.40625 0.53125q-0.578125 0.53125 -0.671875 1.46875l4.15625 0z" fill-rule="nonzero"/><path fill="#0a1432" d="m551.5073 87.157005q1.359375 0 2.359375 0.515625q1.015625 0.5 1.546875 1.453125q0.53125 0.9375 0.53125 2.234375q0 1.28125 -0.53125 2.21875q-0.53125 0.9375 -1.546875 1.4375q-1.0 0.5 -2.359375 0.5l-2.609375 0l0 -8.359375l2.609375 0zm0 7.453125q1.609375 0 2.46875 -0.84375q0.859375 -0.859375 0.859375 -2.40625q0 -1.5625 -0.859375 -2.4375q-0.859375 -0.875 -2.46875 -0.875l-1.515625 0l0 6.5625l1.515625 0zm11.874634 -2.640625q0 0.3125 -0.03125 0.671875l-5.265625 0q0.0625 0.96875 0.671875 1.515625q0.609375 0.546875 1.46875 0.546875q0.703125 0 1.171875 -0.328125q0.484375 -0.328125 0.671875 -0.890625l1.1875 0q-0.265625 0.953125 -1.0625 1.546875q-0.796875 0.59375 -1.96875 0.59375q-0.9375 0 -1.671875 -0.421875q-0.734375 -0.421875 -1.15625 -1.1875q-0.421875 -0.78125 -0.421875 -1.796875q0 -1.015625 0.40625 -1.78125q0.40625 -0.78125 1.140625 -1.1875q0.75 -0.421875 1.703125 -0.421875q0.9375 0 1.65625 0.40625q0.71875 0.40625 1.109375 1.125q0.390625 0.71875 0.390625 1.609375zm-1.125 -0.21875q0 -0.625 -0.28125 -1.078125q-0.265625 -0.453125 -0.75 -0.6875q-0.46875 -0.234375 -1.046875 -0.234375q-0.828125 0 -1.40625 0.53125q-0.578125 0.53125 -0.671875 1.46875l4.15625 0zm5.2369385 -1.90625l-1.375 0l0 5.671875l-1.09375 0l0 -5.671875l-0.84375 0l0 -0.90625l0.84375 0l0 -0.46875q0 -1.09375 0.5625 -1.609375q0.578125 -0.515625 1.84375 -0.515625l0 0.921875q-0.71875 0 -1.015625 0.28125q-0.296875 0.28125 -0.296875 0.921875l0 0.46875l1.375 0l0 0.90625zm1.8386841 -1.96875q-0.3125 0 -0.53125 -0.21875q-0.203125 -0.21875 -0.203125 -0.53125q0 -0.3125 0.203125 -0.515625q0.21875 -0.21875 0.53125 -0.21875q0.296875 0 0.5 0.21875q0.21875 0.203125 0.21875 0.515625q0 0.3125 -0.21875 0.53125q-0.203125 0.21875 -0.5 0.21875zm0.53125 1.0625l0 6.578125l-1.09375 0l0 -6.578125l1.09375 0zm5.0614014 -0.125q1.203125 0 1.9375 0.734375q0.75 0.71875 0.75 2.09375l0 3.875l-1.078125 0l0 -3.71875q0 -0.984375 -0.5 -1.5q-0.484375 -0.53125 -1.328125 -0.53125q-0.875 0 -1.390625 0.546875q-0.5 0.53125 -0.5 1.5625l0 3.640625l-1.09375 0l0 -6.578125l1.09375 0l0 0.9375q0.328125 -0.5 0.875 -0.78125q0.5625 -0.28125 1.234375 -0.28125zm5.0394287 -0.9375q-0.3125 0 -0.53125 -0.21875q-0.203125 -0.21875 -0.203125 -0.53125q0 -0.3125 0.203125 -0.515625q0.21875 -0.21875 0.53125 -0.21875q0.296875 0 0.5 0.21875q0.21875 0.203125 0.21875 0.515625q0 0.3125 -0.21875 0.53125q-0.203125 0.21875 -0.5 0.21875zm0.53125 1.0625l0 6.578125l-1.09375 0l0 -6.578125l1.09375 0zm3.1864014 0.90625l0 3.875q0 0.484375 0.203125 0.6875q0.203125 0.1875 0.71875 0.1875l0.796875 0l0 0.921875l-0.984375 0q-0.90625 0 -1.375 -0.421875q-0.453125 -0.421875 -0.453125 -1.375l0 -3.875l-0.84375 0l0 -0.90625l0.84375 0l0 -1.65625l1.09375 0l0 1.65625l1.71875 0l0 0.90625l-1.71875 0zm3.602356 -1.96875q-0.3125 0 -0.53125 -0.21875q-0.203125 -0.21875 -0.203125 -0.53125q0 -0.3125 0.203125 -0.515625q0.21875 -0.21875 0.53125 -0.21875q0.296875 0 0.5 0.21875q0.21875 0.203125 0.21875 0.515625q0 0.3125 -0.21875 0.53125q-0.203125 0.21875 -0.5 0.21875zm0.53125 1.0625l0 6.578125l-1.09375 0l0 -6.578125l1.09375 0zm4.7332764 6.6875q-0.921875 0 -1.671875 -0.421875q-0.75 -0.421875 -1.1875 -1.1875q-0.421875 -0.78125 -0.421875 -1.796875q0 -1.015625 0.4375 -1.78125q0.4375 -0.78125 1.1875 -1.1875q0.765625 -0.421875 1.703125 -0.421875q0.9375 0 1.6875 0.421875q0.75 0.40625 1.1875 1.1875q0.4375 0.765625 0.4375 1.78125q0 1.015625 -0.453125 1.796875q-0.4375 0.765625 -1.203125 1.1875q-0.765625 0.421875 -1.703125 0.421875zm0 -0.96875q0.578125 0 1.09375 -0.265625q0.515625 -0.28125 0.828125 -0.828125q0.328125 -0.5625 0.328125 -1.34375q0 -0.796875 -0.3125 -1.34375q-0.3125 -0.5625 -0.8125 -0.828125q-0.5 -0.265625 -1.09375 -0.265625q-0.59375 0 -1.09375 0.265625q-0.5 0.265625 -0.8125 0.828125q-0.296875 0.546875 -0.296875 1.34375q0 0.796875 0.296875 1.359375q0.296875 0.546875 0.78125 0.8125q0.5 0.265625 1.09375 0.265625zm8.008179 -5.84375q1.203125 0 1.9375 0.734375q0.75 0.71875 0.75 2.09375l0 3.875l-1.078125 0l0 -3.71875q0 -0.984375 -0.5 -1.5q-0.484375 -0.53125 -1.328125 -0.53125q-0.875 0 -1.390625 0.546875q-0.5 0.53125 -0.5 1.5625l0 3.640625l-1.09375 0l0 -6.578125l1.09375 0l0 0.9375q0.328125 -0.5 0.875 -0.78125q0.5625 -0.28125 1.234375 -0.28125z" fill-rule="nonzero"/></g></svg>
