<?xml version="1.0" standalone="no"?>
<!DOCTYPE svg PUBLIC "-//W3C//DTD SVG 20010904//EN"
 "http://www.w3.org/TR/2001/REC-SVG-20010904/DTD/svg10.dtd">
<svg version="1.0" xmlns="http://www.w3.org/2000/svg"
 width="700.000000pt" height="700.000000pt" viewBox="0 0 700.000000 700.000000"
 preserveAspectRatio="xMidYMid meet">
<metadata>
Created by potrace 1.14, written by Peter Selinger 2001-2017
</metadata>
<g transform="translate(0.000000,700.000000) scale(0.100000,-0.100000)"
fill="#000000" stroke="none">
<path d="M0 3500 l0 -3500 3500 0 3500 0 0 3500 0 3500 -3500 0 -3500 0 0
-3500z m4440 978 l0 -1213 553 553 552 552 428 0 c235 0 427 -3 427 -7 0 -5
-277 -285 -615 -623 l-615 -615 650 -854 c358 -469 650 -857 650 -862 0 -5
-175 -9 -403 -9 l-403 0 -480 630 -479 630 -132 -132 -133 -133 0 -497 0 -498
-335 0 -335 0 0 2145 0 2145 335 0 335 0 0 -1212z m-2730 322 l0 -430 725 0
725 0 0 -295 0 -295 -725 0 -725 0 0 -725 c0 -500 3 -740 11 -777 15 -67 50
-147 85 -194 144 -188 500 -213 671 -46 99 97 143 209 150 389 l6 123 36 -1
c20 0 162 -12 316 -27 l280 -27 -1 -145 c-1 -160 -18 -254 -74 -397 -89 -233
-286 -440 -515 -543 -369 -166 -913 -112 -1230 122 -201 149 -322 347 -386
634 -22 96 -22 119 -26 857 l-4 757 -255 0 -254 0 0 295 0 295 255 0 255 0 0
430 0 430 340 0 340 0 0 -430z"/>
</g>
</svg>
