<svg version="1.1" viewBox="0.0 0.0 960.0 540.0" fill="none" stroke="none" stroke-linecap="square" stroke-miterlimit="10" xmlns:xlink="http://www.w3.org/1999/xlink" xmlns="http://www.w3.org/2000/svg"><clipPath id="g33c9ca6a6d2_0_0.0"><path d="m0 0l960.0 0l0 540.0l-960.0 0l0 -540.0z" clip-rule="nonzero"/></clipPath><g clip-path="url(#g33c9ca6a6d2_0_0.0)"><path fill="#f0f0f0" fill-opacity="0.0" d="m0 0l960.0 0l0 540.0l-960.0 0z" fill-rule="evenodd"/><path fill="#0a1432" d="m644.8702 351.2492c-13.342468 13.613983 -32.96875 19.012878 -51.397095 14.13855c-18.428345 -4.8743286 -32.818726 -19.270721 -37.685425 -37.70108c-4.866699 -18.430328 0.54034424 -38.054413 14.159851 -51.391235z" fill-rule="evenodd"/><path stroke="#0a1432" stroke-width="1.0" stroke-linejoin="round" stroke-linecap="butt" d="m644.8702 351.2492c-13.342468 13.613983 -32.96875 19.012878 -51.397095 14.13855c-18.428345 -4.8743286 -32.818726 -19.270721 -37.685425 -37.70108c-4.866699 -18.430328 0.54034424 -38.054413 14.159851 -51.391235z" fill-rule="evenodd"/><path fill="#000000" fill-opacity="0.0" d="m60.500053 446.74014l120.8189 0l0 1.8897705l-120.8189 0z" fill-rule="evenodd"/><path fill="#99e0bb" d="m344.31754 255.50652l152.69293 0l0 55.87401l-152.69293 0z" fill-rule="evenodd"/><path stroke="#99e0bb" stroke-width="2.0026246719160103" stroke-linejoin="round" stroke-linecap="butt" d="m344.31754 255.50652l152.69293 0l0 55.87401l-152.69293 0z" fill-rule="evenodd"/><path fill="#0a1432" d="m356.32492 274.81415q0 -1.5 0.671875 -2.6875q0.6875 -1.203125 1.84375 -1.875q1.171875 -0.671875 2.59375 -0.671875q1.671875 0 2.90625 0.8125q1.25 0.796875 1.828125 2.28125l-1.609375 0q-0.421875 -0.921875 -1.21875 -1.421875q-0.796875 -0.5 -1.90625 -0.5q-1.078125 0 -1.9375 0.5q-0.84375 0.5 -1.328125 1.421875q-0.46875 0.90625 -0.46875 2.140625q0 1.203125 0.46875 2.125q0.484375 0.921875 1.328125 1.421875q0.859375 0.5 1.9375 0.5q1.109375 0 1.90625 -0.484375q0.796875 -0.5 1.21875 -1.421875l1.609375 0q-0.578125 1.453125 -1.828125 2.265625q-1.234375 0.796875 -2.90625 0.796875q-1.421875 0 -2.59375 -0.671875q-1.15625 -0.671875 -1.84375 -1.859375q-0.671875 -1.1875 -0.671875 -2.671875zm18.939667 -2.921875l0 8.03125l-1.328125 0l0 -1.1875q-0.390625 0.609375 -1.078125 0.96875q-0.671875 0.34375 -1.484375 0.34375q-0.9375 0 -1.6875 -0.390625q-0.75 -0.390625 -1.1875 -1.171875q-0.421875 -0.78125 -0.421875 -1.890625l0 -4.703125l1.3125 0l0 4.53125q0 1.1875 0.59375 1.828125q0.609375 0.625 1.640625 0.625q1.078125 0 1.6875 -0.65625q0.625 -0.65625 0.625 -1.921875l0 -4.40625l1.328125 0zm5.0987854 8.15625q-0.921875 0 -1.65625 -0.3125q-0.734375 -0.3125 -1.15625 -0.875q-0.421875 -0.5625 -0.46875 -1.296875l1.375 0q0.0625 0.59375 0.5625 0.984375q0.515625 0.375 1.328125 0.375q0.765625 0 1.203125 -0.328125q0.4375 -0.34375 0.4375 -0.859375q0 -0.53125 -0.46875 -0.78125q-0.46875 -0.25 -1.453125 -0.5q-0.890625 -0.234375 -1.453125 -0.46875q-0.5625 -0.25 -0.96875 -0.71875q-0.40625 -0.484375 -0.40625 -1.265625q0 -0.609375 0.359375 -1.125q0.375 -0.515625 1.046875 -0.8125q0.6875 -0.296875 1.546875 -0.296875q1.328125 0 2.140625 0.671875q0.828125 0.671875 0.890625 1.84375l-1.328125 0q-0.046875 -0.625 -0.515625 -1.0q-0.453125 -0.390625 -1.234375 -0.390625q-0.71875 0 -1.140625 0.3125q-0.421875 0.296875 -0.421875 0.796875q0 0.390625 0.25 0.65625q0.265625 0.25 0.640625 0.40625q0.390625 0.15625 1.078125 0.34375q0.875 0.234375 1.40625 0.46875q0.546875 0.21875 0.9375 0.671875q0.390625 0.453125 0.40625 1.1875q0 0.65625 -0.375 1.1875q-0.359375 0.53125 -1.03125 0.828125q-0.65625 0.296875 -1.53125 0.296875zm6.4318237 -7.0625l0 4.734375q0 0.59375 0.25 0.84375q0.25 0.234375 0.875 0.234375l0.96875 0l0 1.125l-1.1875 0q-1.125 0 -1.6875 -0.515625q-0.546875 -0.515625 -0.546875 -1.6875l0 -4.734375l-1.046875 0l0 -1.09375l1.046875 0l0 -2.015625l1.328125 0l0 2.015625l2.09375 0l0 1.09375l-2.09375 0zm7.2099 7.0625q-1.125 0 -2.046875 -0.5q-0.90625 -0.515625 -1.4375 -1.453125q-0.515625 -0.953125 -0.515625 -2.203125q0 -1.234375 0.53125 -2.171875q0.546875 -0.953125 1.46875 -1.453125q0.921875 -0.5 2.0625 -0.5q1.140625 0 2.0625 0.5q0.9375 0.5 1.46875 1.4375q0.53125 0.9375 0.53125 2.1875q0 1.25 -0.546875 2.203125q-0.546875 0.9375 -1.484375 1.453125q-0.9375 0.5 -2.09375 0.5zm0 -1.171875q0.71875 0 1.34375 -0.328125q0.640625 -0.34375 1.03125 -1.015625q0.390625 -0.671875 0.390625 -1.640625q0 -0.96875 -0.390625 -1.640625q-0.375 -0.671875 -1.0 -1.0q-0.609375 -0.328125 -1.328125 -0.328125q-0.734375 0 -1.34375 0.328125q-0.609375 0.328125 -0.96875 1.0q-0.359375 0.671875 -0.359375 1.640625q0 0.984375 0.359375 1.65625q0.359375 0.671875 0.953125 1.0q0.59375 0.328125 1.3125 0.328125zm15.536285 -7.125q0.9375 0 1.671875 0.390625q0.734375 0.375 1.15625 1.15625q0.4375 0.78125 0.4375 1.890625l0 4.734375l-1.328125 0l0 -4.546875q0 -1.203125 -0.59375 -1.828125q-0.59375 -0.640625 -1.609375 -0.640625q-1.03125 0 -1.65625 0.671875q-0.609375 0.65625 -0.609375 1.921875l0 4.421875l-1.3125 0l0 -4.546875q0 -1.203125 -0.59375 -1.828125q-0.59375 -0.640625 -1.609375 -0.640625q-1.046875 0 -1.65625 0.671875q-0.609375 0.65625 -0.609375 1.921875l0 4.421875l-1.34375 0l0 -8.03125l1.34375 0l0 1.15625q0.390625 -0.625 1.046875 -0.953125q0.671875 -0.34375 1.484375 -0.34375q1.015625 0 1.78125 0.453125q0.78125 0.453125 1.15625 1.328125q0.34375 -0.84375 1.109375 -1.3125q0.78125 -0.46875 1.734375 -0.46875zm14.727997 8.171875l-2.421875 -4.171875l-1.609375 0l0 4.171875l-1.34375 0l0 -10.21875l3.296875 0q1.15625 0 1.953125 0.40625q0.8125 0.390625 1.203125 1.0625q0.390625 0.671875 0.390625 1.546875q0 1.046875 -0.609375 1.859375q-0.609375 0.796875 -1.8125 1.0625l2.5625 4.28125l-1.609375 0zm-4.03125 -5.25l1.953125 0q1.09375 0 1.625 -0.53125q0.546875 -0.53125 0.546875 -1.421875q0 -0.921875 -0.53125 -1.40625q-0.53125 -0.5 -1.640625 -0.5l-1.953125 0l0 3.859375zm14.895416 0.921875q0 0.390625 -0.046875 0.8125l-6.40625 0q0.0625 1.1875 0.796875 1.859375q0.75 0.65625 1.8125 0.65625q0.859375 0 1.4375 -0.390625q0.578125 -0.40625 0.8125 -1.09375l1.4375 0q-0.328125 1.171875 -1.296875 1.890625q-0.96875 0.71875 -2.390625 0.71875q-1.15625 0 -2.0625 -0.5q-0.890625 -0.515625 -1.40625 -1.453125q-0.515625 -0.953125 -0.515625 -2.203125q0 -1.25 0.5 -2.1875q0.5 -0.9375 1.390625 -1.4375q0.90625 -0.5 2.09375 -0.5q1.140625 0 2.015625 0.5q0.875 0.484375 1.34375 1.359375q0.484375 0.875 0.484375 1.96875zm-1.375 -0.28125q0 -0.75 -0.34375 -1.296875q-0.328125 -0.5625 -0.90625 -0.84375q-0.578125 -0.28125 -1.28125 -0.28125q-1.015625 0 -1.734375 0.640625q-0.703125 0.640625 -0.796875 1.78125l5.0625 0zm5.977539 4.734375q-0.921875 0 -1.65625 -0.3125q-0.734375 -0.3125 -1.15625 -0.875q-0.421875 -0.5625 -0.46875 -1.296875l1.375 0q0.0625 0.59375 0.5625 0.984375q0.515625 0.375 1.328125 0.375q0.765625 0 1.203125 -0.328125q0.4375 -0.34375 0.4375 -0.859375q0 -0.53125 -0.46875 -0.78125q-0.46875 -0.25 -1.453125 -0.5q-0.890625 -0.234375 -1.453125 -0.46875q-0.5625 -0.25 -0.96875 -0.71875q-0.40625 -0.484375 -0.40625 -1.265625q0 -0.609375 0.359375 -1.125q0.375 -0.515625 1.046875 -0.8125q0.6875 -0.296875 1.546875 -0.296875q1.328125 0 2.140625 0.671875q0.828125 0.671875 0.890625 1.84375l-1.328125 0q-0.046875 -0.625 -0.515625 -1.0q-0.453125 -0.390625 -1.234375 -0.390625q-0.71875 0 -1.140625 0.3125q-0.421875 0.296875 -0.421875 0.796875q0 0.390625 0.25 0.65625q0.265625 0.25 0.640625 0.40625q0.390625 0.15625 1.078125 0.34375q0.875 0.234375 1.40625 0.46875q0.546875 0.21875 0.9375 0.671875q0.390625 0.453125 0.40625 1.1875q0 0.65625 -0.375 1.1875q-0.359375 0.53125 -1.03125 0.828125q-0.65625 0.296875 -1.53125 0.296875zm8.306824 0q-1.125 0 -2.046875 -0.5q-0.90625 -0.515625 -1.4375 -1.453125q-0.515625 -0.953125 -0.515625 -2.203125q0 -1.234375 0.53125 -2.171875q0.546875 -0.953125 1.46875 -1.453125q0.921875 -0.5 2.0625 -0.5q1.140625 0 2.0625 0.5q0.9375 0.5 1.46875 1.4375q0.53125 0.9375 0.53125 2.1875q0 1.25 -0.546875 2.203125q-0.546875 0.9375 -1.484375 1.453125q-0.9375 0.5 -2.09375 0.5zm0 -1.171875q0.71875 0 1.34375 -0.328125q0.640625 -0.34375 1.03125 -1.015625q0.390625 -0.671875 0.390625 -1.640625q0 -0.96875 -0.390625 -1.640625q-0.375 -0.671875 -1.0 -1.0q-0.609375 -0.328125 -1.328125 -0.328125q-0.734375 0 -1.34375 0.328125q-0.609375 0.328125 -0.96875 1.0q-0.359375 0.671875 -0.359375 1.640625q0 0.984375 0.359375 1.65625q0.359375 0.671875 0.953125 1.0q0.59375 0.328125 1.3125 0.328125zm13.005035 -6.984375l0 8.03125l-1.328125 0l0 -1.1875q-0.390625 0.609375 -1.078125 0.96875q-0.671875 0.34375 -1.484375 0.34375q-0.9375 0 -1.6875 -0.390625q-0.75 -0.390625 -1.1875 -1.171875q-0.421875 -0.78125 -0.421875 -1.890625l0 -4.703125l1.3125 0l0 4.53125q0 1.1875 0.59375 1.828125q0.609375 0.625 1.640625 0.625q1.078125 0 1.6875 -0.65625q0.625 -0.65625 0.625 -1.921875l0 -4.40625l1.328125 0zm3.5987854 1.296875q0.34375 -0.6875 1.0 -1.0625q0.65625 -0.375 1.59375 -0.375l0 1.375l-0.359375 0q-2.234375 0 -2.234375 2.421875l0 4.375l-1.34375 0l0 -8.03125l1.34375 0l0 1.296875zm3.6230469 2.703125q0 -1.25 0.5 -2.171875q0.5 -0.9375 1.390625 -1.4375q0.890625 -0.515625 2.03125 -0.515625q1.484375 0 2.4375 0.71875q0.953125 0.703125 1.265625 1.984375l-1.4375 0q-0.203125 -0.734375 -0.796875 -1.15625q-0.59375 -0.421875 -1.46875 -0.421875q-1.140625 0 -1.84375 0.78125q-0.703125 0.78125 -0.703125 2.21875q0 1.453125 0.703125 2.25q0.703125 0.78125 1.84375 0.78125q0.875 0 1.453125 -0.40625q0.59375 -0.40625 0.8125 -1.171875l1.4375 0q-0.328125 1.234375 -1.296875 1.96875q-0.953125 0.734375 -2.40625 0.734375q-1.140625 0 -2.03125 -0.5q-0.890625 -0.515625 -1.390625 -1.453125q-0.5 -0.9375 -0.5 -2.203125zm16.724518 -0.296875q0 0.390625 -0.046875 0.8125l-6.40625 0q0.0625 1.1875 0.796875 1.859375q0.75 0.65625 1.8125 0.65625q0.859375 0 1.4375 -0.390625q0.578125 -0.40625 0.8125 -1.09375l1.4375 0q-0.328125 1.171875 -1.296875 1.890625q-0.96875 0.71875 -2.390625 0.71875q-1.15625 0 -2.0625 -0.5q-0.890625 -0.515625 -1.40625 -1.453125q-0.515625 -0.953125 -0.515625 -2.203125q0 -1.25 0.5 -2.1875q0.5 -0.9375 1.390625 -1.4375q0.90625 -0.5 2.09375 -0.5q1.140625 0 2.015625 0.5q0.875 0.484375 1.34375 1.359375q0.484375 0.875 0.484375 1.96875zm-1.375 -0.28125q0 -0.75 -0.34375 -1.296875q-0.328125 -0.5625 -0.90625 -0.84375q-0.578125 -0.28125 -1.28125 -0.28125q-1.015625 0 -1.734375 0.640625q-0.703125 0.640625 -0.796875 1.78125l5.0625 0z" fill-rule="nonzero"/><path fill="#0a1432" d="m408.4597 300.24228q-1.40625 -1.375 -2.203125 -3.5q-0.78125 -2.125 -0.78125 -4.578125q0 -2.53125 0.828125 -4.71875q0.828125 -2.1875 2.375 -3.609375l1.390625 0l0 0.125q-1.640625 1.546875 -2.46875 3.71875q-0.828125 2.15625 -0.828125 4.484375q0 2.265625 0.78125 4.34375q0.78125 2.0625 2.296875 3.609375l0 0.125l-1.390625 0zm2.7164612 -7.828125q0 -1.5 0.671875 -2.6875q0.6875 -1.203125 1.84375 -1.875q1.171875 -0.671875 2.59375 -0.671875q1.671875 0 2.90625 0.8125q1.25 0.796875 1.828125 2.28125l-1.609375 0q-0.421875 -0.921875 -1.21875 -1.421875q-0.796875 -0.5 -1.90625 -0.5q-1.078125 0 -1.9375 0.5q-0.84375 0.5 -1.328125 1.421875q-0.46875 0.90625 -0.46875 2.140625q0 1.203125 0.46875 2.125q0.484375 0.921875 1.328125 1.421875q0.859375 0.5 1.9375 0.5q1.109375 0 1.90625 -0.484375q0.796875 -0.5 1.21875 -1.421875l1.609375 0q-0.578125 1.453125 -1.828125 2.265625q-1.234375 0.796875 -2.90625 0.796875q-1.421875 0 -2.59375 -0.671875q-1.15625 -0.671875 -1.84375 -1.859375q-0.671875 -1.1875 -0.671875 -2.671875zm17.189667 5.109375l-2.421875 -4.171875l-1.609375 0l0 4.171875l-1.34375 0l0 -10.21875l3.296875 0q1.15625 0 1.953125 0.40625q0.8125 0.390625 1.203125 1.0625q0.390625 0.671875 0.390625 1.546875q0 1.046875 -0.609375 1.859375q-0.609375 0.796875 -1.8125 1.0625l2.5625 4.28125l-1.609375 0zm-4.03125 -5.25l1.953125 0q1.09375 0 1.625 -0.53125q0.546875 -0.53125 0.546875 -1.421875q0 -0.921875 -0.53125 -1.40625q-0.53125 -0.5 -1.640625 -0.5l-1.953125 0l0 3.859375zm7.1454163 7.96875l0 -0.125q1.515625 -1.546875 2.296875 -3.609375q0.78125 -2.078125 0.78125 -4.34375q0 -2.328125 -0.828125 -4.484375q-0.828125 -2.171875 -2.46875 -3.71875l0 -0.125l1.390625 0q1.546875 1.421875 2.375 3.609375q0.828125 2.1875 0.828125 4.71875q0 2.453125 -0.796875 4.578125q-0.78125 2.125 -2.1875 3.5l-1.390625 0z" fill-rule="nonzero"/><path fill="#99e0bb" d="m344.31757 143.076l152.69293 0l0 53.732285l-152.69293 0z" fill-rule="evenodd"/><path stroke="#99e0bb" stroke-width="2.0026246719160103" stroke-linejoin="round" stroke-linecap="butt" d="m344.31757 143.076l152.69293 0l0 53.732285l-152.69293 0z" fill-rule="evenodd"/><path fill="#0a1432" d="m356.32495 161.31276q0 -1.5 0.671875 -2.6875q0.6875 -1.203125 1.84375 -1.875q1.171875 -0.671875 2.59375 -0.671875q1.671875 0 2.90625 0.8125q1.25 0.796875 1.828125 2.28125l-1.609375 0q-0.421875 -0.921875 -1.21875 -1.421875q-0.796875 -0.5 -1.90625 -0.5q-1.078125 0 -1.9375 0.5q-0.84375 0.5 -1.328125 1.421875q-0.46875 0.90625 -0.46875 2.140625q0 1.203125 0.46875 2.125q0.484375 0.921875 1.328125 1.421875q0.859375 0.5 1.9375 0.5q1.109375 0 1.90625 -0.484375q0.796875 -0.5 1.21875 -1.421875l1.609375 0q-0.578125 1.453125 -1.828125 2.265625q-1.234375 0.796875 -2.90625 0.796875q-1.421875 0 -2.59375 -0.671875q-1.15625 -0.671875 -1.84375 -1.859375q-0.671875 -1.1875 -0.671875 -2.671875zm18.939667 -2.921875l0 8.03125l-1.328125 0l0 -1.1875q-0.390625 0.609375 -1.078125 0.96875q-0.671875 0.34375 -1.484375 0.34375q-0.9375 0 -1.6875 -0.390625q-0.75 -0.390625 -1.1875 -1.171875q-0.421875 -0.78125 -0.421875 -1.890625l0 -4.703125l1.3125 0l0 4.53125q0 1.1875 0.59375 1.828125q0.609375 0.625 1.640625 0.625q1.078125 0 1.6875 -0.65625q0.625 -0.65625 0.625 -1.921875l0 -4.40625l1.328125 0zm5.0987854 8.15625q-0.921875 0 -1.65625 -0.3125q-0.734375 -0.3125 -1.15625 -0.875q-0.421875 -0.5625 -0.46875 -1.296875l1.375 0q0.0625 0.59375 0.5625 0.984375q0.515625 0.375 1.328125 0.375q0.765625 0 1.203125 -0.328125q0.4375 -0.34375 0.4375 -0.859375q0 -0.53125 -0.46875 -0.78125q-0.46875 -0.25 -1.453125 -0.5q-0.890625 -0.234375 -1.453125 -0.46875q-0.5625 -0.25 -0.96875 -0.71875q-0.40625 -0.484375 -0.40625 -1.265625q0 -0.609375 0.359375 -1.125q0.375 -0.515625 1.046875 -0.8125q0.6875 -0.296875 1.546875 -0.296875q1.328125 0 2.140625 0.671875q0.828125 0.671875 0.890625 1.84375l-1.328125 0q-0.046875 -0.625 -0.515625 -1.0q-0.453125 -0.390625 -1.234375 -0.390625q-0.71875 0 -1.140625 0.3125q-0.421875 0.296875 -0.421875 0.796875q0 0.390625 0.25 0.65625q0.265625 0.25 0.640625 0.40625q0.390625 0.15625 1.078125 0.34375q0.875 0.234375 1.40625 0.46875q0.546875 0.21875 0.9375 0.671875q0.390625 0.453125 0.40625 1.1875q0 0.65625 -0.375 1.1875q-0.359375 0.53125 -1.03125 0.828125q-0.65625 0.296875 -1.53125 0.296875zm6.4318542 -7.0625l0 4.734375q0 0.59375 0.25 0.84375q0.25 0.234375 0.875 0.234375l0.96875 0l0 1.125l-1.1875 0q-1.125 0 -1.6875 -0.515625q-0.546875 -0.515625 -0.546875 -1.6875l0 -4.734375l-1.046875 0l0 -1.09375l1.046875 0l0 -2.015625l1.328125 0l0 2.015625l2.09375 0l0 1.09375l-2.09375 0zm7.2099 7.0625q-1.125 0 -2.046875 -0.5q-0.90625 -0.515625 -1.4375 -1.453125q-0.515625 -0.953125 -0.515625 -2.203125q0 -1.234375 0.53125 -2.171875q0.546875 -0.953125 1.46875 -1.453125q0.921875 -0.5 2.0625 -0.5q1.140625 0 2.0625 0.5q0.9375 0.5 1.46875 1.4375q0.53125 0.9375 0.53125 2.1875q0 1.25 -0.546875 2.203125q-0.546875 0.9375 -1.484375 1.453125q-0.9375 0.5 -2.09375 0.5zm0 -1.171875q0.71875 0 1.34375 -0.328125q0.640625 -0.34375 1.03125 -1.015625q0.390625 -0.671875 0.390625 -1.640625q0 -0.96875 -0.390625 -1.640625q-0.375 -0.671875 -1.0 -1.0q-0.609375 -0.328125 -1.328125 -0.328125q-0.734375 0 -1.34375 0.328125q-0.609375 0.328125 -0.96875 1.0q-0.359375 0.671875 -0.359375 1.640625q0 0.984375 0.359375 1.65625q0.359375 0.671875 0.953125 1.0q0.59375 0.328125 1.3125 0.328125zm15.536285 -7.125q0.9375 0 1.671875 0.390625q0.734375 0.375 1.15625 1.15625q0.4375 0.78125 0.4375 1.890625l0 4.734375l-1.328125 0l0 -4.546875q0 -1.203125 -0.59375 -1.828125q-0.59375 -0.640625 -1.609375 -0.640625q-1.03125 0 -1.65625 0.671875q-0.609375 0.65625 -0.609375 1.921875l0 4.421875l-1.3125 0l0 -4.546875q0 -1.203125 -0.59375 -1.828125q-0.59375 -0.640625 -1.609375 -0.640625q-1.046875 0 -1.65625 0.671875q-0.609375 0.65625 -0.609375 1.921875l0 4.421875l-1.34375 0l0 -8.03125l1.34375 0l0 1.15625q0.390625 -0.625 1.046875 -0.953125q0.671875 -0.34375 1.484375 -0.34375q1.015625 0 1.78125 0.453125q0.78125 0.453125 1.15625 1.328125q0.34375 -0.84375 1.109375 -1.3125q0.78125 -0.46875 1.734375 -0.46875zm14.727966 8.171875l-2.421875 -4.171875l-1.609375 0l0 4.171875l-1.34375 0l0 -10.21875l3.296875 0q1.15625 0 1.953125 0.40625q0.8125 0.390625 1.203125 1.0625q0.390625 0.671875 0.390625 1.546875q0 1.046875 -0.609375 1.859375q-0.609375 0.796875 -1.8125 1.0625l2.5625 4.28125l-1.609375 0zm-4.03125 -5.25l1.953125 0q1.09375 0 1.625 -0.53125q0.546875 -0.53125 0.546875 -1.421875q0 -0.921875 -0.53125 -1.40625q-0.53125 -0.5 -1.640625 -0.5l-1.953125 0l0 3.859375zm14.895416 0.921875q0 0.390625 -0.046875 0.8125l-6.40625 0q0.0625 1.1875 0.796875 1.859375q0.75 0.65625 1.8125 0.65625q0.859375 0 1.4375 -0.390625q0.578125 -0.40625 0.8125 -1.09375l1.4375 0q-0.328125 1.171875 -1.296875 1.890625q-0.96875 0.71875 -2.390625 0.71875q-1.15625 0 -2.0625 -0.5q-0.890625 -0.515625 -1.40625 -1.453125q-0.515625 -0.953125 -0.515625 -2.203125q0 -1.25 0.5 -2.1875q0.5 -0.9375 1.390625 -1.4375q0.90625 -0.5 2.09375 -0.5q1.140625 0 2.015625 0.5q0.875 0.484375 1.34375 1.359375q0.484375 0.875 0.484375 1.96875zm-1.375 -0.28125q0 -0.75 -0.34375 -1.296875q-0.328125 -0.5625 -0.90625 -0.84375q-0.578125 -0.28125 -1.28125 -0.28125q-1.015625 0 -1.734375 0.640625q-0.703125 0.640625 -0.796875 1.78125l5.0625 0zm5.977539 4.734375q-0.921875 0 -1.65625 -0.3125q-0.734375 -0.3125 -1.15625 -0.875q-0.421875 -0.5625 -0.46875 -1.296875l1.375 0q0.0625 0.59375 0.5625 0.984375q0.515625 0.375 1.328125 0.375q0.765625 0 1.203125 -0.328125q0.4375 -0.34375 0.4375 -0.859375q0 -0.53125 -0.46875 -0.78125q-0.46875 -0.25 -1.453125 -0.5q-0.890625 -0.234375 -1.453125 -0.46875q-0.5625 -0.25 -0.96875 -0.71875q-0.40625 -0.484375 -0.40625 -1.265625q0 -0.609375 0.359375 -1.125q0.375 -0.515625 1.046875 -0.8125q0.6875 -0.296875 1.546875 -0.296875q1.328125 0 2.140625 0.671875q0.828125 0.671875 0.890625 1.84375l-1.328125 0q-0.046875 -0.625 -0.515625 -1.0q-0.453125 -0.390625 -1.234375 -0.390625q-0.71875 0 -1.140625 0.3125q-0.421875 0.296875 -0.421875 0.796875q0 0.390625 0.25 0.65625q0.265625 0.25 0.640625 0.40625q0.390625 0.15625 1.078125 0.34375q0.875 0.234375 1.40625 0.46875q0.546875 0.21875 0.9375 0.671875q0.390625 0.453125 0.40625 1.1875q0 0.65625 -0.375 1.1875q-0.359375 0.53125 -1.03125 0.828125q-0.65625 0.296875 -1.53125 0.296875zm8.306854 0q-1.125 0 -2.046875 -0.5q-0.90625 -0.515625 -1.4375 -1.453125q-0.515625 -0.953125 -0.515625 -2.203125q0 -1.234375 0.53125 -2.171875q0.546875 -0.953125 1.46875 -1.453125q0.921875 -0.5 2.0625 -0.5q1.140625 0 2.0625 0.5q0.9375 0.5 1.46875 1.4375q0.53125 0.9375 0.53125 2.1875q0 1.25 -0.546875 2.203125q-0.546875 0.9375 -1.484375 1.453125q-0.9375 0.5 -2.09375 0.5zm0 -1.171875q0.71875 0 1.34375 -0.328125q0.640625 -0.34375 1.03125 -1.015625q0.390625 -0.671875 0.390625 -1.640625q0 -0.96875 -0.390625 -1.640625q-0.375 -0.671875 -1.0 -1.0q-0.609375 -0.328125 -1.328125 -0.328125q-0.734375 0 -1.34375 0.328125q-0.609375 0.328125 -0.96875 1.0q-0.359375 0.671875 -0.359375 1.640625q0 0.984375 0.359375 1.65625q0.359375 0.671875 0.953125 1.0q0.59375 0.328125 1.3125 0.328125zm13.005035 -6.984375l0 8.03125l-1.328125 0l0 -1.1875q-0.390625 0.609375 -1.078125 0.96875q-0.671875 0.34375 -1.484375 0.34375q-0.9375 0 -1.6875 -0.390625q-0.75 -0.390625 -1.1875 -1.171875q-0.421875 -0.78125 -0.421875 -1.890625l0 -4.703125l1.3125 0l0 4.53125q0 1.1875 0.59375 1.828125q0.609375 0.625 1.640625 0.625q1.078125 0 1.6875 -0.65625q0.625 -0.65625 0.625 -1.921875l0 -4.40625l1.328125 0zm3.5987854 1.296875q0.34375 -0.6875 1.0 -1.0625q0.65625 -0.375 1.59375 -0.375l0 1.375l-0.359375 0q-2.234375 0 -2.234375 2.421875l0 4.375l-1.34375 0l0 -8.03125l1.34375 0l0 1.296875zm3.6230469 2.703125q0 -1.25 0.5 -2.171875q0.5 -0.9375 1.390625 -1.4375q0.890625 -0.515625 2.03125 -0.515625q1.4843445 0 2.4374695 0.71875q0.953125 0.703125 1.265625 1.984375l-1.4375 0q-0.203125 -0.734375 -0.796875 -1.15625q-0.59375 -0.421875 -1.4687195 -0.421875q-1.140625 0 -1.84375 0.78125q-0.703125 0.78125 -0.703125 2.21875q0 1.453125 0.703125 2.25q0.703125 0.78125 1.84375 0.78125q0.8749695 0 1.4530945 -0.40625q0.59375 -0.40625 0.8125 -1.171875l1.4375 0q-0.328125 1.234375 -1.296875 1.96875q-0.953125 0.734375 -2.4062195 0.734375q-1.140625 0 -2.03125 -0.5q-0.890625 -0.515625 -1.390625 -1.453125q-0.5 -0.9375 -0.5 -2.203125zm16.724487 -0.296875q0 0.390625 -0.046875 0.8125l-6.40625 0q0.0625 1.1875 0.796875 1.859375q0.75 0.65625 1.8125 0.65625q0.859375 0 1.4375 -0.390625q0.578125 -0.40625 0.8125 -1.09375l1.4375 0q-0.328125 1.171875 -1.296875 1.890625q-0.96875 0.71875 -2.390625 0.71875q-1.15625 0 -2.0625 -0.5q-0.890625 -0.515625 -1.40625 -1.453125q-0.515625 -0.953125 -0.515625 -2.203125q0 -1.25 0.5 -2.1875q0.5 -0.9375 1.390625 -1.4375q0.90625 -0.5 2.09375 -0.5q1.140625 0 2.015625 0.5q0.875 0.484375 1.34375 1.359375q0.484375 0.875 0.484375 1.96875zm-1.375 -0.28125q0 -0.75 -0.34375 -1.296875q-0.328125 -0.5625 -0.90625 -0.84375q-0.578125 -0.28125 -1.28125 -0.28125q-1.015625 0 -1.734375 0.640625q-0.703125 0.640625 -0.796875 1.78125l5.0625 0z" fill-rule="nonzero"/><path fill="#0a1432" d="m366.791 173.80339q1.671875 0 2.890625 0.625q1.21875 0.625 1.875 1.78125q0.65625 1.15625 0.65625 2.734375q0 1.5625 -0.65625 2.71875q-0.65625 1.140625 -1.875 1.75q-1.21875 0.609375 -2.890625 0.609375l-3.1875 0l0 -10.21875l3.1875 0zm0 9.125q1.96875 0 3.015625 -1.046875q1.046875 -1.046875 1.046875 -2.9375q0 -1.90625 -1.0625 -2.96875q-1.046875 -1.078125 -3.0 -1.078125l-1.84375 0l0 8.03125l1.84375 0zm14.5026245 -3.234375q0 0.390625 -0.046875 0.8125l-6.40625 0q0.0625 1.1875 0.796875 1.859375q0.75 0.65625 1.8125 0.65625q0.859375 0 1.4375 -0.390625q0.578125 -0.40625 0.8125 -1.09375l1.4375 0q-0.328125 1.171875 -1.296875 1.890625q-0.96875 0.71875 -2.390625 0.71875q-1.15625 0 -2.0625 -0.5q-0.890625 -0.515625 -1.40625 -1.453125q-0.515625 -0.953125 -0.515625 -2.203125q0 -1.25 0.5 -2.1875q0.5 -0.9375 1.390625 -1.4375q0.90625 -0.5 2.09375 -0.5q1.140625 0 2.015625 0.5q0.875 0.484375 1.34375 1.359375q0.484375 0.875 0.484375 1.96875zm-1.375 -0.28125q0 -0.75 -0.34375 -1.296875q-0.328125 -0.5625 -0.90625 -0.84375q-0.578125 -0.28125 -1.28125 -0.28125q-1.015625 0 -1.734375 0.640625q-0.703125 0.640625 -0.796875 1.78125l5.0625 0zm6.399414 -2.328125l-1.671875 0l0 6.9375l-1.34375 0l0 -6.9375l-1.03125 0l0 -1.09375l1.03125 0l0 -0.578125q0 -1.34375 0.6875 -1.96875q0.703125 -0.625 2.25 -0.625l0 1.125q-0.890625 0 -1.25 0.34375q-0.34375 0.34375 -0.34375 1.125l0 0.578125l1.671875 0l0 1.09375zm2.243805 -2.40625q-0.375 0 -0.640625 -0.25q-0.265625 -0.265625 -0.265625 -0.65625q0 -0.375 0.265625 -0.640625q0.265625 -0.265625 0.640625 -0.265625q0.375 0 0.625 0.265625q0.265625 0.265625 0.265625 0.640625q0 0.390625 -0.265625 0.65625q-0.25 0.25 -0.625 0.25zm0.65625 1.3125l0 8.03125l-1.34375 0l0 -8.03125l1.34375 0zm6.1835938 -0.140625q1.453125 0 2.359375 0.890625q0.921875 0.875 0.921875 2.546875l0 4.734375l-1.328125 0l0 -4.546875q0 -1.203125 -0.609375 -1.828125q-0.59375 -0.640625 -1.625 -0.640625q-1.0625 0 -1.6875 0.65625q-0.609375 0.65625 -0.609375 1.921875l0 4.4375l-1.34375 0l0 -8.03125l1.34375 0l0 1.140625q0.390625 -0.609375 1.0625 -0.9375q0.6875 -0.34375 1.515625 -0.34375zm6.1456604 -1.171875q-0.375 0 -0.640625 -0.25q-0.265625 -0.265625 -0.265625 -0.65625q0 -0.375 0.265625 -0.640625q0.265625 -0.265625 0.640625 -0.265625q0.375 0 0.625 0.265625q0.265625 0.265625 0.265625 0.640625q0 0.390625 -0.265625 0.65625q-0.25 0.25 -0.625 0.25zm0.65625 1.3125l0 8.03125l-1.34375 0l0 -8.03125l1.34375 0zm3.8866882 1.09375l0 4.734375q0 0.59375 0.25 0.84375q0.25 0.234375 0.875 0.234375l0.96875 0l0 1.125l-1.1875 0q-1.125 0 -1.6875 -0.515625q-0.546875 -0.515625 -0.546875 -1.6875l0 -4.734375l-1.046875 0l0 -1.09375l1.046875 0l0 -2.015625l1.328125 0l0 2.015625l2.09375 0l0 1.09375l-2.09375 0zm4.3974 -2.40625q-0.375 0 -0.640625 -0.25q-0.265625 -0.265625 -0.265625 -0.65625q0 -0.375 0.265625 -0.640625q0.265625 -0.265625 0.640625 -0.265625q0.375 0 0.625 0.265625q0.265625 0.265625 0.265625 0.640625q0 0.390625 -0.265625 0.65625q-0.25 0.25 -0.625 0.25zm0.65625 1.3125l0 8.03125l-1.34375 0l0 -8.03125l1.34375 0zm5.7617188 8.15625q-1.125 0 -2.046875 -0.5q-0.90625 -0.515625 -1.4375 -1.453125q-0.515625 -0.953125 -0.515625 -2.203125q0 -1.234375 0.53125 -2.171875q0.546875 -0.953125 1.46875 -1.453125q0.921875 -0.5 2.0625 -0.5q1.140625 0 2.0625 0.5q0.9375 0.5 1.46875 1.4375q0.53125 0.9375 0.53125 2.1875q0 1.25 -0.546875 2.203125q-0.546875 0.9375 -1.484375 1.453125q-0.9375 0.5 -2.09375 0.5zm0 -1.171875q0.71875 0 1.34375 -0.328125q0.640625 -0.34375 1.03125 -1.015625q0.390625 -0.671875 0.390625 -1.640625q0 -0.96875 -0.390625 -1.640625q-0.375 -0.671875 -1.0 -1.0q-0.609375 -0.328125 -1.328125 -0.328125q-0.734375 0 -1.34375 0.328125q-0.609375 0.328125 -0.96875 1.0q-0.359375 0.671875 -0.359375 1.640625q0 0.984375 0.359375 1.65625q0.359375 0.671875 0.953125 1.0q0.59375 0.328125 1.3125 0.328125zm9.80191 -7.125q1.453125 0 2.359375 0.890625q0.921875 0.875 0.921875 2.546875l0 4.734375l-1.328125 0l0 -4.546875q0 -1.203125 -0.609375 -1.828125q-0.59375 -0.640625 -1.625 -0.640625q-1.0625 0 -1.6875 0.65625q-0.609375 0.65625 -0.609375 1.921875l0 4.4375l-1.34375 0l0 -8.03125l1.34375 0l0 1.140625q0.390625 -0.609375 1.0625 -0.9375q0.6875 -0.34375 1.515625 -0.34375zm12.808899 10.890625q-1.40625 -1.375 -2.203125 -3.5q-0.78125 -2.125 -0.78125 -4.578125q0 -2.53125 0.828125 -4.71875q0.828125 -2.1875 2.375 -3.609375l1.390625 0l0 0.125q-1.640625 1.546875 -2.46875 3.71875q-0.828125 2.15625 -0.828125 4.484375q0 2.265625 0.78125 4.34375q0.78125 2.0625 2.296875 3.609375l0 0.125l-1.390625 0zm2.7164612 -7.828125q0 -1.5 0.671875 -2.6875q0.6875 -1.203125 1.84375 -1.875q1.171875 -0.671875 2.59375 -0.671875q1.671875 0 2.90625 0.8125q1.25 0.796875 1.828125 2.28125l-1.609375 0q-0.421875 -0.921875 -1.21875 -1.421875q-0.796875 -0.5 -1.90625 -0.5q-1.078125 0 -1.9375 0.5q-0.84375 0.5 -1.328125 1.421875q-0.46875 0.90625 -0.46875 2.140625q0 1.203125 0.46875 2.125q0.484375 0.921875 1.328125 1.421875q0.859375 0.5 1.9375 0.5q1.109375 0 1.90625 -0.484375q0.796875 -0.5 1.21875 -1.421875l1.609375 0q-0.578125 1.453125 -1.828125 2.265625q-1.234375 0.796875 -2.90625 0.796875q-1.421875 0 -2.59375 -0.671875q-1.15625 -0.671875 -1.84375 -1.859375q-0.671875 -1.1875 -0.671875 -2.671875zm17.189667 5.109375l-2.421875 -4.171875l-1.609375 0l0 4.171875l-1.34375 0l0 -10.21875l3.296875 0q1.15625 0 1.953125 0.40625q0.8125 0.390625 1.203125 1.0625q0.390625 0.671875 0.390625 1.546875q0 1.046875 -0.609375 1.859375q-0.609375 0.796875 -1.8125 1.0625l2.5625 4.28125l-1.609375 0zm-4.03125 -5.25l1.953125 0q1.09375 0 1.625 -0.53125q0.546875 -0.53125 0.546875 -1.421875q0 -0.921875 -0.53125 -1.40625q-0.53125 -0.5 -1.640625 -0.5l-1.953125 0l0 3.859375zm10.754791 -4.96875q1.671875 0 2.890625 0.625q1.21875 0.625 1.875 1.78125q0.65625 1.15625 0.65625 2.734375q0 1.5625 -0.65625 2.71875q-0.65625 1.140625 -1.875 1.75q-1.21875 0.609375 -2.890625 0.609375l-3.1875 0l0 -10.21875l3.1875 0zm0 9.125q1.96875 0 3.015625 -1.046875q1.046875 -1.046875 1.046875 -2.9375q0 -1.90625 -1.0625 -2.96875q-1.046875 -1.078125 -3.0 -1.078125l-1.84375 0l0 8.03125l1.84375 0zm6.7526245 3.8125l0 -0.125q1.515625 -1.546875 2.296875 -3.609375q0.78125 -2.078125 0.78125 -4.34375q0 -2.328125 -0.828125 -4.484375q-0.828125 -2.171875 -2.46875 -3.71875l0 -0.125l1.390625 0q1.546875 1.421875 2.375 3.609375q0.828125 2.1875 0.828125 4.71875q0 2.453125 -0.796875 4.578125q-0.78125 2.125 -2.1875 3.5l-1.390625 0z" fill-rule="nonzero"/><path fill="#ccf0dd" d="m384.75293 414.62515l0 0c0 -23.456879 19.008484 -42.472443 42.456696 -42.472443l0 0c11.260193 0 22.059235 4.474762 30.021393 12.43988c7.9621887 7.965149 12.435272 18.768158 12.435272 30.032562l0 0c0 23.456879 -19.008484 42.472443 -42.456665 42.472443l0 0c-23.448212 0 -42.456696 -19.015564 -42.456696 -42.472443z" fill-rule="evenodd"/><path stroke="#0a1432" stroke-width="2.0026246719160103" stroke-linejoin="round" stroke-linecap="butt" d="m384.75293 414.62515l0 0c0 -23.456879 19.008484 -42.472443 42.456696 -42.472443l0 0c11.260193 0 22.059235 4.474762 30.021393 12.43988c7.9621887 7.965149 12.435272 18.768158 12.435272 30.032562l0 0c0 23.456879 -19.008484 42.472443 -42.456665 42.472443l0 0c-23.448212 0 -42.456696 -19.015564 -42.456696 -42.472443z" fill-rule="evenodd"/><path fill="#000000" d="m403.91708 407.55765q0 -1.21875 0.546875 -2.203125q0.5625 -0.984375 1.515625 -1.53125q0.953125 -0.546875 2.109375 -0.546875q1.375 0 2.390625 0.65625q1.015625 0.65625 1.484375 1.875l-1.296875 0q-0.359375 -0.765625 -1.015625 -1.171875q-0.640625 -0.40625 -1.5625 -0.40625q-0.875 0 -1.578125 0.40625q-0.6875 0.40625 -1.09375 1.15625q-0.390625 0.75 -0.390625 1.765625q0 1.0 0.390625 1.75q0.40625 0.75 1.09375 1.15625q0.703125 0.40625 1.578125 0.40625q0.921875 0 1.5625 -0.40625q0.65625 -0.40625 1.015625 -1.15625l1.296875 0q-0.46875 1.203125 -1.484375 1.859375q-1.015625 0.65625 -2.390625 0.65625q-1.15625 0 -2.109375 -0.546875q-0.953125 -0.546875 -1.515625 -1.515625q-0.546875 -0.984375 -0.546875 -2.203125zm15.498444 -2.390625l0 6.578125l-1.09375 0l0 -0.96875q-0.296875 0.5 -0.859375 0.78125q-0.5625 0.28125 -1.234375 0.28125q-0.765625 0 -1.375 -0.3125q-0.609375 -0.328125 -0.96875 -0.953125q-0.359375 -0.640625 -0.359375 -1.546875l0 -3.859375l1.078125 0l0 3.703125q0 0.984375 0.484375 1.5q0.5 0.515625 1.359375 0.515625q0.875 0 1.375 -0.53125q0.5 -0.546875 0.5 -1.578125l0 -3.609375l1.09375 0zm4.1800537 6.6875q-0.75 0 -1.359375 -0.25q-0.59375 -0.265625 -0.953125 -0.71875q-0.34375 -0.46875 -0.375 -1.078125l1.125 0q0.046875 0.5 0.453125 0.8125q0.421875 0.3125 1.09375 0.3125q0.625 0 0.984375 -0.28125q0.359375 -0.28125 0.359375 -0.6875q0 -0.4375 -0.390625 -0.640625q-0.375 -0.21875 -1.171875 -0.421875q-0.734375 -0.1875 -1.203125 -0.390625q-0.453125 -0.203125 -0.78125 -0.59375q-0.328125 -0.390625 -0.328125 -1.015625q0 -0.515625 0.296875 -0.921875q0.296875 -0.421875 0.84375 -0.671875q0.5625 -0.25 1.265625 -0.25q1.09375 0 1.765625 0.5625q0.671875 0.546875 0.71875 1.5l-1.09375 0q-0.03125 -0.515625 -0.421875 -0.828125q-0.375 -0.3125 -1.0 -0.3125q-0.59375 0 -0.953125 0.265625q-0.34375 0.25 -0.34375 0.65625q0 0.3125 0.203125 0.53125q0.21875 0.203125 0.53125 0.328125q0.328125 0.125 0.890625 0.28125q0.703125 0.203125 1.140625 0.390625q0.453125 0.1875 0.765625 0.5625q0.328125 0.359375 0.34375 0.96875q0 0.53125 -0.3125 0.96875q-0.296875 0.421875 -0.84375 0.671875q-0.546875 0.25 -1.25 0.25zm5.264038 -5.78125l0 3.875q0 0.484375 0.203125 0.6875q0.203125 0.1875 0.71875 0.1875l0.796875 0l0 0.921875l-0.984375 0q-0.90625 0 -1.375 -0.421875q-0.453125 -0.421875 -0.453125 -1.375l0 -3.875l-0.84375 0l0 -0.90625l0.84375 0l0 -1.65625l1.09375 0l0 1.65625l1.71875 0l0 0.90625l-1.71875 0zm5.9148865 5.78125q-0.921875 0 -1.671875 -0.421875q-0.75 -0.421875 -1.1875 -1.1875q-0.421875 -0.78125 -0.421875 -1.796875q0 -1.015625 0.4375 -1.78125q0.4375 -0.78125 1.1875 -1.1875q0.765625 -0.421875 1.703125 -0.421875q0.9375 0 1.6875 0.421875q0.75 0.40625 1.1875 1.1875q0.4375 0.765625 0.4375 1.78125q0 1.015625 -0.453125 1.796875q-0.4375 0.765625 -1.203125 1.1875q-0.765625 0.421875 -1.703125 0.421875zm0 -0.96875q0.578125 0 1.09375 -0.265625q0.515625 -0.28125 0.828125 -0.828125q0.328125 -0.5625 0.328125 -1.34375q0 -0.796875 -0.3125 -1.34375q-0.3125 -0.5625 -0.8125 -0.828125q-0.5 -0.265625 -1.09375 -0.265625q-0.59375 0 -1.09375 0.265625q-0.5 0.265625 -0.8125 0.828125q-0.296875 0.546875 -0.296875 1.34375q0 0.796875 0.296875 1.359375q0.296875 0.546875 0.78125 0.8125q0.5 0.265625 1.09375 0.265625zm12.711304 -5.84375q0.765625 0 1.359375 0.328125q0.609375 0.3125 0.953125 0.953125q0.359375 0.640625 0.359375 1.546875l0 3.875l-1.078125 0l0 -3.71875q0 -0.984375 -0.5 -1.5q-0.484375 -0.53125 -1.3125 -0.53125q-0.84375 0 -1.359375 0.546875q-0.5 0.546875 -0.5 1.578125l0 3.625l-1.078125 0l0 -3.71875q0 -0.984375 -0.484375 -1.5q-0.484375 -0.53125 -1.3125 -0.53125q-0.84375 0 -1.359375 0.546875q-0.5 0.546875 -0.5 1.578125l0 3.625l-1.09375 0l0 -6.578125l1.09375 0l0 0.953125q0.328125 -0.515625 0.875 -0.796875q0.546875 -0.28125 1.203125 -0.28125q0.828125 0 1.453125 0.375q0.640625 0.375 0.953125 1.09375q0.28125 -0.6875 0.90625 -1.078125q0.640625 -0.390625 1.421875 -0.390625z" fill-rule="nonzero"/><path fill="#000000" d="m398.24103 421.95764q0 -1.21875 0.546875 -2.203125q0.5625 -0.984375 1.515625 -1.53125q0.953125 -0.546875 2.109375 -0.546875q1.375 0 2.390625 0.65625q1.015625 0.65625 1.484375 1.875l-1.296875 0q-0.359375 -0.765625 -1.015625 -1.171875q-0.640625 -0.40625 -1.5625 -0.40625q-0.875 0 -1.578125 0.40625q-0.6875 0.40625 -1.09375 1.15625q-0.390625 0.75 -0.390625 1.765625q0 1.0 0.390625 1.75q0.40625 0.75 1.09375 1.15625q0.703125 0.40625 1.578125 0.40625q0.921875 0 1.5625 -0.40625q0.65625 -0.40625 1.015625 -1.15625l1.296875 0q-0.46875 1.203125 -1.484375 1.859375q-1.015625 0.65625 -2.390625 0.65625q-1.15625 0 -2.109375 -0.546875q-0.953125 -0.546875 -1.515625 -1.515625q-0.546875 -0.984375 -0.546875 -2.203125zm12.545319 4.296875q-0.921875 0 -1.671875 -0.421875q-0.75 -0.421875 -1.1875 -1.1875q-0.421875 -0.78125 -0.421875 -1.796875q0 -1.015625 0.4375 -1.78125q0.4375 -0.78125 1.1875 -1.1875q0.765625 -0.421875 1.703125 -0.421875q0.9375 0 1.6875 0.421875q0.75 0.40625 1.1875 1.1875q0.4375 0.765625 0.4375 1.78125q0 1.015625 -0.453125 1.796875q-0.4375 0.765625 -1.203125 1.1875q-0.765625 0.421875 -1.703125 0.421875zm0 -0.96875q0.578125 0 1.09375 -0.265625q0.515625 -0.28125 0.828125 -0.828125q0.328125 -0.5625 0.328125 -1.34375q0 -0.796875 -0.3125 -1.34375q-0.3125 -0.5625 -0.8125 -0.828125q-0.5 -0.265625 -1.09375 -0.265625q-0.59375 0 -1.09375 0.265625q-0.5 0.265625 -0.8125 0.828125q-0.296875 0.546875 -0.296875 1.34375q0 0.796875 0.296875 1.359375q0.296875 0.546875 0.78125 0.8125q0.5 0.265625 1.09375 0.265625zm8.008179 -5.84375q1.203125 0 1.9375 0.734375q0.75 0.71875 0.75 2.09375l0 3.875l-1.078125 0l0 -3.71875q0 -0.984375 -0.5 -1.5q-0.484375 -0.53125 -1.328125 -0.53125q-0.875 0 -1.390625 0.546875q-0.5 0.53125 -0.5 1.5625l0 3.640625l-1.09375 0l0 -6.578125l1.09375 0l0 0.9375q0.328125 -0.5 0.875 -0.78125q0.5625 -0.28125 1.234375 -0.28125zm5.8050537 1.03125l0 3.875q0 0.484375 0.203125 0.6875q0.203125 0.1875 0.71875 0.1875l0.796875 0l0 0.921875l-0.984375 0q-0.90625 0 -1.375 -0.421875q-0.453125 -0.421875 -0.453125 -1.375l0 -3.875l-0.84375 0l0 -0.90625l0.84375 0l0 -1.65625l1.09375 0l0 1.65625l1.71875 0l0 0.90625l-1.71875 0zm4.133667 0.15625q0.28125 -0.5625 0.8125 -0.875q0.546875 -0.3125 1.3125 -0.3125l0 1.140625l-0.28125 0q-1.84375 0 -1.84375 1.984375l0 3.578125l-1.09375 0l0 -6.578125l1.09375 0l0 1.0625zm6.257263 5.625q-0.921875 0 -1.671875 -0.421875q-0.75 -0.421875 -1.1875 -1.1875q-0.421875 -0.78125 -0.421875 -1.796875q0 -1.015625 0.4375 -1.78125q0.4375 -0.78125 1.1875 -1.1875q0.765625 -0.421875 1.703125 -0.421875q0.9375 0 1.6875 0.421875q0.75 0.40625 1.1875 1.1875q0.4375 0.765625 0.4375 1.78125q0 1.015625 -0.453125 1.796875q-0.4375 0.765625 -1.203125 1.1875q-0.765625 0.421875 -1.703125 0.421875zm0 -0.96875q0.578125 0 1.09375 -0.265625q0.515625 -0.28125 0.828125 -0.828125q0.328125 -0.5625 0.328125 -1.34375q0 -0.796875 -0.3125 -1.34375q-0.3125 -0.5625 -0.8125 -0.828125q-0.5 -0.265625 -1.09375 -0.265625q-0.59375 0 -1.09375 0.265625q-0.5 0.265625 -0.8125 0.828125q-0.296875 0.546875 -0.296875 1.34375q0 0.796875 0.296875 1.359375q0.296875 0.546875 0.78125 0.8125q0.5 0.265625 1.09375 0.265625zm5.8988037 -8.015625l0 8.875l-1.09375 0l0 -8.875l1.09375 0zm2.9520264 0l0 8.875l-1.09375 0l0 -8.875l1.09375 0zm7.8582764 5.328125q0 0.3125 -0.03125 0.671875l-5.265625 0q0.0625 0.96875 0.671875 1.515625q0.609375 0.546875 1.46875 0.546875q0.703125 0 1.171875 -0.328125q0.484375 -0.328125 0.671875 -0.890625l1.1875 0q-0.265625 0.953125 -1.0625 1.546875q-0.796875 0.59375 -1.96875 0.59375q-0.9375 0 -1.671875 -0.421875q-0.734375 -0.421875 -1.15625 -1.1875q-0.421875 -0.78125 -0.421875 -1.796875q0 -1.015625 0.40625 -1.78125q0.40625 -0.78125 1.140625 -1.1875q0.75 -0.421875 1.703125 -0.421875q0.9375 0 1.65625 0.40625q0.71875 0.40625 1.109375 1.125q0.390625 0.71875 0.390625 1.609375zm-1.125 -0.21875q0 -0.625 -0.28125 -1.078125q-0.265625 -0.453125 -0.75 -0.6875q-0.46875 -0.234375 -1.046875 -0.234375q-0.828125 0 -1.40625 0.53125q-0.578125 0.53125 -0.671875 1.46875l4.15625 0zm3.6588135 -1.75q0.28125 -0.5625 0.8125 -0.875q0.546875 -0.3125 1.3125 -0.3125l0 1.140625l-0.28125 0q-1.84375 0 -1.84375 1.984375l0 3.578125l-1.09375 0l0 -6.578125l1.09375 0l0 1.0625z" fill-rule="nonzero"/><path fill="#ccf0dd" d="m564.5686 314.74057l0 0c0 -23.456879 19.008484 -42.472443 42.456665 -42.472443l0 0c11.260193 0 22.059265 4.474762 30.021423 12.43988c7.962158 7.9651184 12.435242 18.768158 12.435242 30.032562l0 0c0 23.456879 -19.008484 42.472443 -42.456665 42.472443l0 0c-23.448181 0 -42.456665 -19.015564 -42.456665 -42.472443z" fill-rule="evenodd"/><path fill="#000000" d="m585.4907 307.67307q0 -1.21875 0.546875 -2.203125q0.5625 -0.984375 1.515625 -1.53125q0.953125 -0.546875 2.109375 -0.546875q1.375 0 2.390625 0.65625q1.015625 0.65625 1.484375 1.875l-1.296875 0q-0.359375 -0.765625 -1.015625 -1.171875q-0.640625 -0.40625 -1.5625 -0.40625q-0.875 0 -1.578125 0.40625q-0.6875 0.40625 -1.09375 1.15625q-0.390625 0.75 -0.390625 1.765625q0 1.0 0.390625 1.75q0.40625 0.75 1.09375 1.15625q0.703125 0.40625 1.578125 0.40625q0.921875 0 1.5625 -0.40625q0.65625 -0.40625 1.015625 -1.15625l1.296875 0q-0.46875 1.203125 -1.484375 1.859375q-1.015625 0.65625 -2.390625 0.65625q-1.15625 0 -2.109375 -0.546875q-0.953125 -0.546875 -1.515625 -1.515625q-0.546875 -0.984375 -0.546875 -2.203125zm12.545349 4.296875q-0.921875 0 -1.671875 -0.421875q-0.75 -0.421875 -1.1875 -1.1875q-0.421875 -0.78125 -0.421875 -1.796875q0 -1.015625 0.4375 -1.78125q0.4375 -0.78125 1.1875 -1.1875q0.765625 -0.421875 1.703125 -0.421875q0.9375 0 1.6875 0.421875q0.75 0.40625 1.1875 1.1875q0.4375 0.765625 0.4375 1.78125q0 1.015625 -0.453125 1.796875q-0.4375 0.765625 -1.203125 1.1875q-0.765625 0.421875 -1.703125 0.421875zm0 -0.96875q0.578125 0 1.09375 -0.265625q0.515625 -0.28125 0.828125 -0.828125q0.328125 -0.5625 0.328125 -1.34375q0 -0.796875 -0.3125 -1.34375q-0.3125 -0.5625 -0.8125 -0.828125q-0.5 -0.265625 -1.09375 -0.265625q-0.59375 0 -1.09375 0.265625q-0.5 0.265625 -0.8125 0.828125q-0.296875 0.546875 -0.296875 1.34375q0 0.796875 0.296875 1.359375q0.296875 0.546875 0.78125 0.8125q0.5 0.265625 1.09375 0.265625zm8.008179 -5.84375q1.203125 0 1.9375 0.734375q0.75 0.71875 0.75 2.09375l0 3.875l-1.078125 0l0 -3.71875q0 -0.984375 -0.5 -1.5q-0.484375 -0.53125 -1.328125 -0.53125q-0.875 0 -1.390625 0.546875q-0.5 0.53125 -0.5 1.5625l0 3.640625l-1.09375 0l0 -6.578125l1.09375 0l0 0.9375q0.328125 -0.5 0.875 -0.78125q0.5625 -0.28125 1.234375 -0.28125zm5.8050537 1.03125l0 3.875q0 0.484375 0.203125 0.6875q0.203125 0.1875 0.71875 0.1875l0.796875 0l0 0.921875l-0.984375 0q-0.90625 0 -1.375 -0.421875q-0.453125 -0.421875 -0.453125 -1.375l0 -3.875l-0.84375 0l0 -0.90625l0.84375 0l0 -1.65625l1.09375 0l0 1.65625l1.71875 0l0 0.90625l-1.71875 0zm4.133667 0.15625q0.28125 -0.5625 0.8125 -0.875q0.546875 -0.3125 1.3125 -0.3125l0 1.140625l-0.28125 0q-1.84375 0 -1.84375 1.984375l0 3.578125l-1.09375 0l0 -6.578125l1.09375 0l0 1.0625zm6.257263 5.625q-0.921875 0 -1.671875 -0.421875q-0.75 -0.421875 -1.1875 -1.1875q-0.421875 -0.78125 -0.421875 -1.796875q0 -1.015625 0.4375 -1.78125q0.4375 -0.78125 1.1875 -1.1875q0.765625 -0.421875 1.703125 -0.421875q0.9375 0 1.6875 0.421875q0.75 0.40625 1.1875 1.1875q0.4375 0.765625 0.4375 1.78125q0 1.015625 -0.453125 1.796875q-0.4375 0.765625 -1.203125 1.1875q-0.765625 0.421875 -1.703125 0.421875zm0 -0.96875q0.578125 0 1.09375 -0.265625q0.515625 -0.28125 0.828125 -0.828125q0.328125 -0.5625 0.328125 -1.34375q0 -0.796875 -0.3125 -1.34375q-0.3125 -0.5625 -0.8125 -0.828125q-0.5 -0.265625 -1.09375 -0.265625q-0.59375 0 -1.09375 0.265625q-0.5 0.265625 -0.8125 0.828125q-0.296875 0.546875 -0.296875 1.34375q0 0.796875 0.296875 1.359375q0.296875 0.546875 0.78125 0.8125q0.5 0.265625 1.09375 0.265625zm5.8988037 -8.015625l0 8.875l-1.09375 0l0 -8.875l1.09375 0z" fill-rule="nonzero"/><path fill="#000000" d="m594.71277 325.36993l2.921875 0l0 0.890625l-4.015625 0l0 -8.359375l1.09375 0l0 7.46875zm6.965332 1.0q-0.921875 0 -1.671875 -0.421875q-0.75 -0.421875 -1.1875 -1.1875q-0.421875 -0.78125 -0.421875 -1.796875q0 -1.015625 0.4375 -1.78125q0.4375 -0.78125 1.1875 -1.1875q0.765625 -0.421875 1.703125 -0.421875q0.9375 0 1.6875 0.421875q0.75 0.40625 1.1875 1.1875q0.4375 0.765625 0.4375 1.78125q0 1.015625 -0.453125 1.796875q-0.4375 0.765625 -1.203125 1.1875q-0.765625 0.421875 -1.703125 0.421875zm0 -0.96875q0.578125 0 1.09375 -0.265625q0.515625 -0.28125 0.828125 -0.828125q0.328125 -0.5625 0.328125 -1.34375q0 -0.796875 -0.3125 -1.34375q-0.3125 -0.5625 -0.8125 -0.828125q-0.5 -0.265625 -1.09375 -0.265625q-0.59375 0 -1.09375 0.265625q-0.5 0.265625 -0.8125 0.828125q-0.296875 0.546875 -0.296875 1.34375q0 0.796875 0.296875 1.359375q0.296875 0.546875 0.78125 0.8125q0.5 0.265625 1.09375 0.265625zm7.6800537 0.96875q-0.921875 0 -1.671875 -0.421875q-0.75 -0.421875 -1.1875 -1.1875q-0.421875 -0.78125 -0.421875 -1.796875q0 -1.015625 0.4375 -1.78125q0.4375 -0.78125 1.1875 -1.1875q0.765625 -0.421875 1.703125 -0.421875q0.9375 0 1.6875 0.421875q0.75 0.40625 1.1875 1.1875q0.4375 0.765625 0.4375 1.78125q0 1.015625 -0.453125 1.796875q-0.4375 0.765625 -1.203125 1.1875q-0.765625 0.421875 -1.703125 0.421875zm0 -0.96875q0.578125 0 1.09375 -0.265625q0.515625 -0.28125 0.828125 -0.828125q0.328125 -0.5625 0.328125 -1.34375q0 -0.796875 -0.3125 -1.34375q-0.3125 -0.5625 -0.8125 -0.828125q-0.5 -0.265625 -1.09375 -0.265625q-0.59375 0 -1.09375 0.265625q-0.5 0.265625 -0.8125 0.828125q-0.296875 0.546875 -0.296875 1.34375q0 0.796875 0.296875 1.359375q0.296875 0.546875 0.78125 0.8125q0.5 0.265625 1.09375 0.265625zm5.8988037 -4.5q0.328125 -0.5625 0.96875 -0.9375q0.640625 -0.390625 1.484375 -0.390625q0.890625 0 1.59375 0.421875q0.71875 0.421875 1.125 1.1875q0.40625 0.765625 0.40625 1.765625q0 1.0 -0.40625 1.78125q-0.40625 0.78125 -1.125 1.21875q-0.703125 0.421875 -1.59375 0.421875q-0.828125 0 -1.46875 -0.375q-0.640625 -0.375 -0.984375 -0.953125l0 4.34375l-1.09375 0l0 -9.703125l1.09375 0l0 1.21875zm4.46875 2.046875q0 -0.75 -0.3125 -1.296875q-0.296875 -0.546875 -0.8125 -0.828125q-0.5 -0.296875 -1.109375 -0.296875q-0.609375 0 -1.125 0.296875q-0.5 0.296875 -0.8125 0.859375q-0.296875 0.546875 -0.296875 1.28125q0 0.734375 0.296875 1.296875q0.3125 0.5625 0.8125 0.859375q0.515625 0.28125 1.125 0.28125q0.609375 0 1.109375 -0.28125q0.515625 -0.296875 0.8125 -0.859375q0.3125 -0.5625 0.3125 -1.3125z" fill-rule="nonzero"/><path fill="#000000" fill-opacity="0.0" d="m498.0 417.0l162.01575 0" fill-rule="evenodd"/><path stroke="#99e0bb" stroke-width="3.0603674540682415" stroke-linejoin="round" stroke-linecap="butt" d="m498.0 417.0l143.65356 0" fill-rule="evenodd"/><path fill="#99e0bb" stroke="#99e0bb" stroke-width="3.0603674540682415" stroke-linecap="butt" d="m641.65356 422.0549l13.888245 -5.054901l-13.888245 -5.054901z" fill-rule="evenodd"/><path fill="#000000" fill-opacity="0.0" d="m187.58542 467.75067l211.49606 0l0 22.929108l-211.49606 0z" fill-rule="evenodd"/><path fill="#ffffff" d="m232.48657 487.22003q-1.546875 0 -2.828125 -0.71875q-1.28125 -0.734375 -2.03125 -2.03125q-0.734375 -1.3125 -0.734375 -2.9375q0 -1.640625 0.734375 -2.9375q0.75 -1.3125 2.03125 -2.03125q1.28125 -0.734375 2.828125 -0.734375q1.578125 0 2.859375 0.734375q1.28125 0.71875 2.015625 2.015625q0.734375 1.296875 0.734375 2.953125q0 1.640625 -0.734375 2.9375q-0.734375 1.296875 -2.015625 2.03125q-1.28125 0.71875 -2.859375 0.71875zm0 -1.265625q1.171875 0 2.109375 -0.53125q0.9375 -0.546875 1.46875 -1.546875q0.546875 -1.015625 0.546875 -2.34375q0 -1.34375 -0.546875 -2.34375q-0.53125 -1.0 -1.46875 -1.546875q-0.921875 -0.546875 -2.109375 -0.546875q-1.171875 0 -2.109375 0.546875q-0.921875 0.546875 -1.46875 1.546875q-0.53125 1.0 -0.53125 2.34375q0 1.328125 0.53125 2.34375q0.546875 1.0 1.484375 1.546875q0.9375 0.53125 2.09375 0.53125zm8.982269 -6.0q0.4375 -0.75 1.28125 -1.25q0.859375 -0.5 2.0 -0.5q1.171875 0 2.125 0.5625q0.953125 0.546875 1.484375 1.5625q0.546875 1.015625 0.546875 2.359375q0 1.328125 -0.546875 2.375q-0.53125 1.03125 -1.484375 1.609375q-0.953125 0.578125 -2.125 0.578125q-1.125 0 -1.984375 -0.5q-0.84375 -0.5 -1.296875 -1.25l0 5.765625l-1.453125 0l0 -12.921875l1.453125 0l0 1.609375zm5.953125 2.734375q0 -0.984375 -0.40625 -1.71875q-0.390625 -0.734375 -1.078125 -1.109375q-0.671875 -0.390625 -1.5 -0.390625q-0.796875 0 -1.484375 0.390625q-0.671875 0.390625 -1.078125 1.140625q-0.40625 0.734375 -0.40625 1.703125q0 1.0 0.40625 1.75q0.40625 0.734375 1.078125 1.125q0.6875 0.390625 1.484375 0.390625q0.828125 0 1.5 -0.390625q0.6875 -0.390625 1.078125 -1.125q0.40625 -0.75 0.40625 -1.765625zm11.4097595 -0.296875q0 0.421875 -0.046875 0.875l-7.0156097 0q0.078125 1.296875 0.890625 2.03125q0.8125 0.71875 1.96875 0.71875q0.9375 0 1.5624847 -0.4375q0.640625 -0.4375 0.890625 -1.171875l1.578125 0q-0.359375 1.265625 -1.421875 2.0625q-1.046875 0.78125 -2.6093597 0.78125q-1.25 0 -2.234375 -0.546875q-0.984375 -0.5625 -1.546875 -1.59375q-0.5625 -1.046875 -0.5625 -2.40625q0 -1.359375 0.546875 -2.375q0.546875 -1.03125 1.53125 -1.578125q0.984375 -0.546875 2.265625 -0.546875q1.234375 0 2.1874847 0.546875q0.96875 0.53125 1.484375 1.484375q0.53125 0.953125 0.53125 2.15625zm-1.5 -0.3125q0 -0.828125 -0.375 -1.421875q-0.375 -0.609375 -0.99998474 -0.921875q-0.625 -0.3125 -1.40625 -0.3125q-1.09375 0 -1.875 0.71875q-0.78125 0.703125 -0.890625 1.9375l5.5468597 0zm4.8731384 -2.3125q0.390625 -0.75 1.09375 -1.15625q0.71875 -0.421875 1.734375 -0.421875l0 1.5l-0.375 0q-2.453125 0 -2.453125 2.65625l0 4.765625l-1.453125 0l0 -8.765625l1.453125 0l0 1.421875zm3.9680176 2.921875q0 -1.34375 0.546875 -2.359375q0.546875 -1.015625 1.5 -1.5625q0.953125 -0.5625 2.109375 -0.5625q1.15625 0 2.0 0.5q0.859375 0.484375 1.265625 1.234375l0 -1.59375l1.46875 0l0 8.765625l-1.46875 0l0 -1.625q-0.421875 0.765625 -1.28125 1.265625q-0.859375 0.5 -2.0 0.5q-1.171875 0 -2.109375 -0.578125q-0.9375 -0.578125 -1.484375 -1.609375q-0.546875 -1.046875 -0.546875 -2.375zm7.421875 0.015625q0 -0.984375 -0.40625 -1.71875q-0.390625 -0.734375 -1.078125 -1.125q-0.671875 -0.390625 -1.484375 -0.390625q-0.828125 0 -1.5 0.390625q-0.671875 0.375 -1.078125 1.109375q-0.390625 0.734375 -0.390625 1.71875q0 1.015625 0.390625 1.765625q0.40625 0.734375 1.078125 1.125q0.671875 0.390625 1.5 0.390625q0.8125 0 1.484375 -0.390625q0.6875 -0.390625 1.078125 -1.125q0.40625 -0.75 0.40625 -1.75zm5.72229 -3.15625l0 5.15625q0 0.640625 0.265625 0.90625q0.265625 0.265625 0.9375 0.265625l1.078125 0l0 1.234375l-1.3125 0q-1.21875 0 -1.828125 -0.5625q-0.609375 -0.5625 -0.609375 -1.84375l0 -5.15625l-1.125 0l0 -1.203125l1.125 0l0 -2.203125l1.46875 0l0 2.203125l2.28125 0l0 1.203125l-2.28125 0zm7.87088 7.703125q-1.234375 0 -2.234375 -0.546875q-1.0 -0.5625 -1.578125 -1.59375q-0.5625 -1.046875 -0.5625 -2.40625q0 -1.34375 0.578125 -2.375q0.59375 -1.03125 1.59375 -1.578125q1.015625 -0.546875 2.265625 -0.546875q1.25 0 2.25 0.546875q1.015625 0.546875 1.59375 1.578125q0.578125 1.015625 0.578125 2.375q0 1.359375 -0.59375 2.40625q-0.59375 1.03125 -1.625 1.59375q-1.03125 0.546875 -2.265625 0.546875zm0 -1.28125q0.78125 0 1.46875 -0.359375q0.6875 -0.375 1.109375 -1.109375q0.421875 -0.734375 0.421875 -1.796875q0 -1.046875 -0.421875 -1.78125q-0.40625 -0.734375 -1.078125 -1.09375q-0.671875 -0.359375 -1.453125 -0.359375q-0.8125 0 -1.484375 0.359375q-0.65625 0.359375 -1.0625 1.09375q-0.390625 0.734375 -0.390625 1.78125q0 1.078125 0.390625 1.8125q0.390625 0.734375 1.046875 1.09375q0.65625 0.359375 1.453125 0.359375zm7.8650208 -6.203125q0.390625 -0.75 1.09375 -1.15625q0.71875 -0.421875 1.734375 -0.421875l0 1.5l-0.375 0q-2.453125 0 -2.453125 2.65625l0 4.765625l-1.453125 0l0 -8.765625l1.453125 0l0 1.421875zm16.24002 -0.546875q0 1.390625 -0.953125 2.3125q-0.953125 0.921875 -2.90625 0.921875l-2.140625 0l0 4.65625l-1.453125 0l0 -11.15625l3.59375 0q1.890625 0 2.875 0.921875q0.984375 0.90625 0.984375 2.34375zm-3.859375 2.03125q1.21875 0 1.796875 -0.515625q0.578125 -0.53125 0.578125 -1.515625q0 -2.0625 -2.375 -2.0625l-2.140625 0l0 4.09375l2.140625 0zm5.1233826 1.4375q0 -1.34375 0.546875 -2.359375q0.546875 -1.015625 1.5 -1.5625q0.953125 -0.5625 2.109375 -0.5625q1.15625 0 2.0 0.5q0.859375 0.484375 1.265625 1.234375l0 -1.59375l1.46875 0l0 8.765625l-1.46875 0l0 -1.625q-0.421875 0.765625 -1.28125 1.265625q-0.859375 0.5 -2.0 0.5q-1.171875 0 -2.109375 -0.578125q-0.9375 -0.578125 -1.484375 -1.609375q-0.546875 -1.046875 -0.546875 -2.375zm7.421875 0.015625q0 -0.984375 -0.40625 -1.71875q-0.390625 -0.734375 -1.078125 -1.125q-0.671875 -0.390625 -1.484375 -0.390625q-0.828125 0 -1.5 0.390625q-0.671875 0.375 -1.078125 1.109375q-0.390625 0.734375 -0.390625 1.71875q0 1.015625 0.390625 1.765625q0.40625 0.734375 1.078125 1.125q0.671875 0.390625 1.5 0.390625q0.8125 0 1.484375 -0.390625q0.6875 -0.390625 1.078125 -1.125q0.40625 -0.75 0.40625 -1.75zm5.72229 -3.15625l0 5.15625q0 0.640625 0.265625 0.90625q0.265625 0.265625 0.9375 0.265625l1.078125 0l0 1.234375l-1.3125 0q-1.21875 0 -1.828125 -0.5625q-0.609375 -0.5625 -0.609375 -1.84375l0 -5.15625l-1.125 0l0 -1.203125l1.125 0l0 -2.203125l1.46875 0l0 2.203125l2.28125 0l0 1.203125l-2.28125 0zm5.824005 0l0 5.15625q0 0.640625 0.265625 0.90625q0.265625 0.265625 0.9375 0.265625l1.078125 0l0 1.234375l-1.3125 0q-1.21875 0 -1.828125 -0.5625q-0.609375 -0.5625 -0.609375 -1.84375l0 -5.15625l-1.125 0l0 -1.203125l1.125 0l0 -2.203125l1.46875 0l0 2.203125l2.28125 0l0 1.203125l-2.28125 0zm12.042755 2.84375q0 0.421875 -0.046875 0.875l-7.015625 0q0.078125 1.296875 0.890625 2.03125q0.8125 0.71875 1.96875 0.71875q0.9375 0 1.5625 -0.4375q0.640625 -0.4375 0.890625 -1.171875l1.578125 0q-0.359375 1.265625 -1.421875 2.0625q-1.046875 0.78125 -2.609375 0.78125q-1.25 0 -2.234375 -0.546875q-0.984375 -0.5625 -1.546875 -1.59375q-0.5625 -1.046875 -0.5625 -2.40625q0 -1.359375 0.546875 -2.375q0.546875 -1.03125 1.53125 -1.578125q0.984375 -0.546875 2.265625 -0.546875q1.234375 0 2.1875 0.546875q0.96875 0.53125 1.484375 1.484375q0.53125 0.953125 0.53125 2.15625zm-1.5 -0.3125q0 -0.828125 -0.375 -1.421875q-0.375 -0.609375 -1.0 -0.921875q-0.625 -0.3125 -1.40625 -0.3125q-1.09375 0 -1.875 0.71875q-0.78125 0.703125 -0.890625 1.9375l5.546875 0zm4.8731384 -2.3125q0.390625 -0.75 1.09375 -1.15625q0.71875 -0.421875 1.734375 -0.421875l0 1.5l-0.375 0q-2.453125 0 -2.453125 2.65625l0 4.765625l-1.453125 0l0 -8.765625l1.453125 0l0 1.421875zm8.780518 -1.578125q1.609375 0 2.59375 0.96875q1.0 0.96875 1.0 2.78125l0 5.171875l-1.453125 0l0 -4.953125q0 -1.3125 -0.65625 -2.0q-0.640625 -0.703125 -1.78125 -0.703125q-1.15625 0 -1.84375 0.71875q-0.671875 0.71875 -0.671875 2.09375l0 4.84375l-1.453125 0l0 -8.765625l1.453125 0l0 1.25q0.4375 -0.671875 1.171875 -1.03125q0.75 -0.375 1.640625 -0.375z" fill-rule="nonzero"/><path fill="#000000" fill-opacity="0.0" d="m457.9528 330.30185l79.08664 0l0 22.929108l-79.08664 0z" fill-rule="evenodd"/><path fill="#99e0bb" d="m471.5309 339.66434q1.34375 0 2.171875 0.8125q0.828125 0.796875 0.828125 2.3125l0 4.3125l-1.203125 0l0 -4.125q0 -1.09375 -0.546875 -1.671875q-0.546875 -0.59375 -1.5 -0.59375q-0.953125 0 -1.53125 0.609375q-0.5625 0.59375 -0.5625 1.75l0 4.03125l-1.203125 0l0 -7.296875l1.203125 0l0 1.03125q0.359375 -0.5625 0.984375 -0.859375q0.625 -0.3125 1.359375 -0.3125zm8.170593 7.5625q-1.03125 0 -1.875 -0.46875q-0.828125 -0.46875 -1.296875 -1.328125q-0.46875 -0.859375 -0.46875 -2.0q0 -1.109375 0.484375 -1.96875q0.484375 -0.859375 1.3125 -1.3125q0.84375 -0.46875 1.890625 -0.46875q1.03125 0 1.875 0.46875q0.84375 0.453125 1.328125 1.3125q0.484375 0.84375 0.484375 1.96875q0 1.140625 -0.5 2.0q-0.5 0.859375 -1.359375 1.328125q-0.84375 0.46875 -1.875 0.46875zm0 -1.078125q0.640625 0 1.21875 -0.296875q0.578125 -0.3125 0.921875 -0.921875q0.359375 -0.609375 0.359375 -1.5q0 -0.875 -0.34375 -1.484375q-0.34375 -0.609375 -0.90625 -0.90625q-0.5625 -0.3125 -1.21875 -0.3125q-0.671875 0 -1.21875 0.3125q-0.546875 0.296875 -0.890625 0.90625q-0.328125 0.609375 -0.328125 1.484375q0 0.90625 0.328125 1.515625q0.328125 0.609375 0.875 0.90625q0.546875 0.296875 1.203125 0.296875zm6.8112183 -5.34375l0 4.296875q0 0.53125 0.21875 0.75q0.234375 0.21875 0.796875 0.21875l0.890625 0l0 1.03125l-1.09375 0q-1.0 0 -1.515625 -0.46875q-0.5 -0.46875 -0.5 -1.53125l0 -4.296875l-0.953125 0l0 -1.0l0.953125 0l0 -1.84375l1.203125 0l0 1.84375l1.90625 0l0 1.0l-1.90625 0zm4.0076904 -2.1875q-0.34375 0 -0.59375 -0.234375q-0.234375 -0.25 -0.234375 -0.59375q0 -0.34375 0.234375 -0.578125q0.25 -0.25 0.59375 -0.25q0.328125 0 0.5625 0.25q0.234375 0.234375 0.234375 0.578125q0 0.34375 -0.234375 0.59375q-0.234375 0.234375 -0.5625 0.234375zm0.578125 1.1875l0 7.296875l-1.203125 0l0 -7.296875l1.203125 0zm5.0443115 1.0l-1.53125 0l0 6.296875l-1.21875 0l0 -6.296875l-0.9375 0l0 -1.0l0.9375 0l0 -0.53125q0 -1.21875 0.625 -1.78125q0.640625 -0.578125 2.046875 -0.578125l0 1.015625q-0.796875 0 -1.125 0.3125q-0.328125 0.3125 -0.328125 1.03125l0 0.53125l1.53125 0l0 1.0zm7.6974487 -1.0l-4.390625 10.734375l-1.25 0l1.4375 -3.515625l-2.953125 -7.21875l1.34375 0l2.296875 5.90625l2.265625 -5.90625l1.25 0z" fill-rule="nonzero"/><path fill="#000000" fill-opacity="0.0" d="m323.83478 329.73227l63.18112 0l0 22.929138l-63.18112 0z" fill-rule="evenodd"/><path fill="#99e0bb" d="m343.58478 339.2354l-2.265625 7.296875l-1.265625 0l-1.75 -5.796875l-1.765625 5.796875l-1.25 0l-2.296875 -7.296875l1.25 0l1.671875 6.125l1.8125 -6.125l1.234375 0l1.78125 6.140625l1.65625 -6.140625l1.1875 0zm0.7571411 3.625q0 -1.125 0.453125 -1.96875q0.453125 -0.84375 1.234375 -1.3125q0.796875 -0.46875 1.765625 -0.46875q0.96875 0 1.671875 0.421875q0.703125 0.40625 1.046875 1.03125l0 -1.328125l1.234375 0l0 7.296875l-1.234375 0l0 -1.359375q-0.359375 0.640625 -1.078125 1.0625q-0.703125 0.421875 -1.640625 0.421875q-0.984375 0 -1.765625 -0.484375q-0.78125 -0.484375 -1.234375 -1.34375q-0.453125 -0.875 -0.453125 -1.96875zm6.171875 0q0 -0.8125 -0.328125 -1.421875q-0.328125 -0.625 -0.90625 -0.953125q-0.5625 -0.328125 -1.234375 -0.328125q-0.6875 0 -1.25 0.328125q-0.546875 0.3125 -0.890625 0.9375q-0.328125 0.609375 -0.328125 1.4375q0 0.828125 0.328125 1.453125q0.34375 0.625 0.890625 0.953125q0.5625 0.3125 1.25 0.3125q0.671875 0 1.234375 -0.3125q0.578125 -0.328125 0.90625 -0.953125q0.328125 -0.625 0.328125 -1.453125zm4.759796 -2.625l0 4.296875q0 0.53125 0.21875 0.75q0.234375 0.21875 0.796875 0.21875l0.890625 0l0 1.03125l-1.09375 0q-1.0 0 -1.515625 -0.46875q-0.5 -0.46875 -0.5 -1.53125l0 -4.296875l-0.953125 0l0 -1.0l0.953125 0l0 -1.84375l1.203125 0l0 1.84375l1.90625 0l0 1.0l-1.90625 0zm2.929535 2.625q0 -1.125 0.453125 -1.96875q0.453125 -0.84375 1.25 -1.3125q0.8125 -0.46875 1.84375 -0.46875q1.359375 0 2.21875 0.65625q0.875 0.640625 1.15625 1.8125l-1.296875 0q-0.1875 -0.671875 -0.734375 -1.046875q-0.53125 -0.390625 -1.34375 -0.390625q-1.03125 0 -1.671875 0.71875q-0.640625 0.703125 -0.640625 2.0q0 1.328125 0.640625 2.046875q0.640625 0.71875 1.671875 0.71875q0.8125 0 1.34375 -0.375q0.53125 -0.375 0.734375 -1.0625l1.296875 0q-0.296875 1.125 -1.171875 1.796875q-0.875 0.671875 -2.203125 0.671875q-1.03125 0 -1.84375 -0.46875q-0.796875 -0.46875 -1.25 -1.3125q-0.453125 -0.859375 -0.453125 -2.015625zm12.168274 -3.765625q0.828125 0 1.484375 0.359375q0.671875 0.34375 1.046875 1.0625q0.390625 0.703125 0.390625 1.703125l0 4.3125l-1.203125 0l0 -4.125q0 -1.09375 -0.546875 -1.671875q-0.546875 -0.59375 -1.5 -0.59375q-0.953125 0 -1.53125 0.609375q-0.5625 0.59375 -0.5625 1.75l0 4.03125l-1.203125 0l0 -9.859375l1.203125 0l0 3.59375q0.359375 -0.5625 0.984375 -0.859375q0.640625 -0.3125 1.4375 -0.3125z" fill-rule="nonzero"/><path fill="#0a1432" d="m77.33333 143.07607l152.69292 0l0 55.874023l-152.69292 0z" fill-rule="evenodd"/><path stroke="#0a1432" stroke-width="2.0026246719160103" stroke-linejoin="round" stroke-linecap="butt" d="m77.33333 143.07607l152.69292 0l0 55.874023l-152.69292 0z" fill-rule="evenodd"/><path fill="#ffffff" d="m105.830185 176.29308l-4.203125 -4.65625l0 4.65625l-1.34375 0l0 -10.21875l1.34375 0l0 4.734375l4.21875 -4.734375l1.6875 0l-4.640625 5.125l4.671875 5.09375l-1.734375 0zm10.357254 -8.03125l0 8.03125l-1.328125 0l0 -1.1875q-0.390625 0.609375 -1.078125 0.96875q-0.671875 0.34375 -1.484375 0.34375q-0.9375 0 -1.6875 -0.390625q-0.75 -0.390625 -1.1875 -1.171875q-0.421875 -0.78125 -0.421875 -1.890625l0 -4.703125l1.3125 0l0 4.53125q0 1.1875 0.59375 1.828125q0.609375 0.625 1.640625 0.625q1.078125 0 1.6875 -0.65625q0.625 -0.65625 0.625 -1.921875l0 -4.40625l1.328125 0zm3.5987854 1.5q0.40625 -0.71875 1.1875 -1.171875q0.796875 -0.453125 1.8125 -0.453125q1.078125 0 1.9375 0.515625q0.875 0.5 1.375 1.4375q0.5 0.921875 0.5 2.15625q0 1.21875 -0.5 2.171875q-0.5 0.953125 -1.375 1.484375q-0.875 0.515625 -1.9375 0.515625q-1.046875 0 -1.828125 -0.453125q-0.78125 -0.453125 -1.171875 -1.15625l0 1.484375l-1.34375 0l0 -10.84375l1.34375 0l0 4.3125zm5.453125 2.484375q0 -0.90625 -0.375 -1.578125q-0.359375 -0.671875 -0.984375 -1.015625q-0.625 -0.359375 -1.375 -0.359375q-0.734375 0 -1.359375 0.359375q-0.625 0.359375 -1.0 1.046875q-0.359375 0.671875 -0.359375 1.5625q0 0.90625 0.359375 1.59375q0.375 0.671875 1.0 1.03125q0.625 0.359375 1.359375 0.359375q0.75 0 1.375 -0.359375q0.625 -0.359375 0.984375 -1.03125q0.375 -0.6875 0.375 -1.609375zm10.438919 -0.28125q0 0.390625 -0.046875 0.8125l-6.40625 0q0.0625 1.1875 0.796875 1.859375q0.75 0.65625 1.8125 0.65625q0.859375 0 1.4375 -0.390625q0.578125 -0.40625 0.8125 -1.09375l1.4375 0q-0.328125 1.171875 -1.296875 1.890625q-0.96875 0.71875 -2.390625 0.71875q-1.15625 0 -2.0625 -0.5q-0.890625 -0.515625 -1.40625 -1.453125q-0.515625 -0.953125 -0.515625 -2.203125q0 -1.25 0.5 -2.1875q0.5 -0.9375 1.390625 -1.4375q0.90625 -0.5 2.09375 -0.5q1.140625 0 2.015625 0.5q0.875 0.484375 1.34375 1.359375q0.484375 0.875 0.484375 1.96875zm-1.375 -0.28125q0 -0.75 -0.34375 -1.296875q-0.328125 -0.5625 -0.90625 -0.84375q-0.578125 -0.28125 -1.28125 -0.28125q-1.015625 0 -1.734375 0.640625q-0.703125 0.640625 -0.796875 1.78125l5.0625 0zm4.477539 -2.125q0.34375 -0.6875 1.0 -1.0625q0.65625 -0.375 1.59375 -0.375l0 1.375l-0.359375 0q-2.234375 0 -2.234375 2.421875l0 4.375l-1.34375 0l0 -8.03125l1.34375 0l0 1.296875zm11.451172 2.40625q0 0.390625 -0.046875 0.8125l-6.40625 0q0.0625 1.1875 0.796875 1.859375q0.75 0.65625 1.8125 0.65625q0.859375 0 1.4375 -0.390625q0.578125 -0.40625 0.8125 -1.09375l1.4375 0q-0.328125 1.171875 -1.296875 1.890625q-0.96875 0.71875 -2.390625 0.71875q-1.15625 0 -2.0625 -0.5q-0.890625 -0.515625 -1.40625 -1.453125q-0.515625 -0.953125 -0.515625 -2.203125q0 -1.25 0.5 -2.1875q0.5 -0.9375 1.390625 -1.4375q0.90625 -0.5 2.09375 -0.5q1.140625 0 2.015625 0.5q0.875 0.484375 1.34375 1.359375q0.484375 0.875 0.484375 1.96875zm-1.375 -0.28125q0 -0.75 -0.34375 -1.296875q-0.328125 -0.5625 -0.90625 -0.84375q-0.578125 -0.28125 -1.28125 -0.28125q-1.015625 0 -1.734375 0.640625q-0.703125 0.640625 -0.796875 1.78125l5.0625 0zm7.055664 -3.5625q1.453125 0 2.359375 0.890625q0.921875 0.875 0.921875 2.546875l0 4.734375l-1.328125 0l0 -4.546875q0 -1.203125 -0.609375 -1.828125q-0.59375 -0.640625 -1.625 -0.640625q-1.0625 0 -1.6875 0.65625q-0.609375 0.65625 -0.609375 1.921875l0 4.4375l-1.34375 0l0 -8.03125l1.34375 0l0 1.140625q0.390625 -0.609375 1.0625 -0.9375q0.6875 -0.34375 1.515625 -0.34375zm7.0831604 1.234375l0 4.734375q0 0.59375 0.25 0.84375q0.25 0.234375 0.875 0.234375l0.96875 0l0 1.125l-1.1875 0q-1.125 0 -1.6875 -0.515625q-0.546875 -0.515625 -0.546875 -1.6875l0 -4.734375l-1.046875 0l0 -1.09375l1.046875 0l0 -2.015625l1.328125 0l0 2.015625l2.09375 0l0 1.09375l-2.09375 0zm11.038025 2.609375q0 0.390625 -0.046875 0.8125l-6.40625 0q0.0625 1.1875 0.796875 1.859375q0.75 0.65625 1.8125 0.65625q0.859375 0 1.4375 -0.390625q0.578125 -0.40625 0.8125 -1.09375l1.4375 0q-0.328125 1.171875 -1.296875 1.890625q-0.96875 0.71875 -2.390625 0.71875q-1.15625 0 -2.0625 -0.5q-0.890625 -0.515625 -1.40625 -1.453125q-0.515625 -0.953125 -0.515625 -2.203125q0 -1.25 0.5 -2.1875q0.5 -0.9375 1.390625 -1.4375q0.90625 -0.5 2.09375 -0.5q1.140625 0 2.015625 0.5q0.875 0.484375 1.34375 1.359375q0.484375 0.875 0.484375 1.96875zm-1.375 -0.28125q0 -0.75 -0.34375 -1.296875q-0.328125 -0.5625 -0.90625 -0.84375q-0.578125 -0.28125 -1.28125 -0.28125q-1.015625 0 -1.734375 0.640625q-0.703125 0.640625 -0.796875 1.78125l5.0625 0zm5.977539 4.734375q-0.921875 0 -1.65625 -0.3125q-0.734375 -0.3125 -1.15625 -0.875q-0.421875 -0.5625 -0.46875 -1.296875l1.375 0q0.0625 0.59375 0.5625 0.984375q0.515625 0.375 1.328125 0.375q0.765625 0 1.203125 -0.328125q0.4375 -0.34375 0.4375 -0.859375q0 -0.53125 -0.46875 -0.78125q-0.46875 -0.25 -1.453125 -0.5q-0.890625 -0.234375 -1.453125 -0.46875q-0.5625 -0.25 -0.96875 -0.71875q-0.40625 -0.484375 -0.40625 -1.265625q0 -0.609375 0.359375 -1.125q0.375 -0.515625 1.046875 -0.8125q0.6875 -0.296875 1.546875 -0.296875q1.328125 0 2.140625 0.671875q0.828125 0.671875 0.890625 1.84375l-1.328125 0q-0.046875 -0.625 -0.515625 -1.0q-0.453125 -0.390625 -1.234375 -0.390625q-0.71875 0 -1.140625 0.3125q-0.421875 0.296875 -0.421875 0.796875q0 0.390625 0.25 0.65625q0.265625 0.25 0.640625 0.40625q0.390625 0.15625 1.078125 0.34375q0.875 0.234375 1.40625 0.46875q0.546875 0.21875 0.9375 0.671875q0.390625 0.453125 0.40625 1.1875q0 0.65625 -0.375 1.1875q-0.359375 0.53125 -1.03125 0.828125q-0.65625 0.296875 -1.53125 0.296875zm14.7669525 -2.390625l-4.453125 0l-0.828125 2.265625l-1.40625 0l3.6875 -10.15625l1.546875 0l3.671875 10.15625l-1.40625 0l-0.8125 -2.265625zm-0.390625 -1.09375l-1.84375 -5.15625l-1.84375 5.15625l3.6875 0zm11.050232 -3.859375q0 1.265625 -0.875 2.109375q-0.859375 0.84375 -2.65625 0.84375l-1.953125 0l0 4.265625l-1.34375 0l0 -10.21875l3.296875 0q1.734375 0 2.625 0.84375q0.90625 0.828125 0.90625 2.15625zm-3.53125 1.859375q1.125 0 1.640625 -0.484375q0.53125 -0.484375 0.53125 -1.375q0 -1.890625 -2.171875 -1.890625l-1.953125 0l0 3.75l1.953125 0zm6.5328827 -4.859375l0 10.21875l-1.34375 0l0 -10.21875l1.34375 0z" fill-rule="nonzero"/><path fill="#000000" fill-opacity="0.0" d="m317.83728 172.15749l-49.007874 0" fill-rule="evenodd"/><path stroke="#99e0bb" stroke-width="3.0" stroke-linejoin="round" stroke-linecap="butt" d="m317.83728 172.15749l-31.007874 0" fill-rule="evenodd"/><path fill="#99e0bb" stroke="#99e0bb" stroke-width="3.0" stroke-linecap="butt" d="m286.8294 167.20229l-13.614288 4.9552l13.614288 4.955185z" fill-rule="evenodd"/><path fill="#000000" fill-opacity="0.0" d="m252.9817 180.87138l79.086624 0l0 22.929138l-79.086624 0z" fill-rule="evenodd"/><path fill="#99e0bb" d="m274.08282 193.73389q0 0.359375 -0.03125 0.734375l-5.84375 0q0.0625 1.078125 0.734375 1.6875q0.671875 0.609375 1.640625 0.609375q0.78125 0 1.3125 -0.359375q0.53125 -0.375 0.734375 -0.984375l1.3125 0q-0.296875 1.046875 -1.1875 1.71875q-0.875 0.65625 -2.171875 0.65625q-1.046875 0 -1.875 -0.46875q-0.8125 -0.46875 -1.28125 -1.328125q-0.453125 -0.859375 -0.453125 -2.0q0 -1.125 0.453125 -1.96875q0.453125 -0.859375 1.265625 -1.3125q0.828125 -0.46875 1.890625 -0.46875q1.03125 0 1.828125 0.453125q0.8125 0.453125 1.234375 1.25q0.4375 0.78125 0.4375 1.78125zm-1.25 -0.25q0 -0.6875 -0.3125 -1.1875q-0.296875 -0.5 -0.828125 -0.75q-0.53125 -0.265625 -1.171875 -0.265625q-0.90625 0 -1.5625 0.59375q-0.640625 0.578125 -0.734375 1.609375l4.609375 0zm6.669647 4.1875l-1.734375 -2.71875l-1.671875 2.71875l-1.265625 0l2.359375 -3.625l-2.359375 -3.671875l1.375 0l1.734375 2.703125l1.65625 -2.703125l1.265625 0l-2.34375 3.609375l2.34375 3.6875l-1.359375 0zm4.0404053 -6.296875l0 4.296875q0 0.53125 0.21875 0.75q0.234375 0.21875 0.796875 0.21875l0.890625 0l0 1.03125l-1.09375 0q-1.0 0 -1.515625 -0.46875q-0.5 -0.46875 -0.5 -1.53125l0 -4.296875l-0.953125 0l0 -1.0l0.953125 0l0 -1.84375l1.203125 0l0 1.84375l1.90625 0l0 1.0l-1.90625 0zm10.03891 2.359375q0 0.359375 -0.03125 0.734375l-5.84375 0q0.0625 1.078125 0.734375 1.6875q0.671875 0.609375 1.640625 0.609375q0.78125 0 1.3125 -0.359375q0.53125 -0.375 0.734375 -0.984375l1.3125 0q-0.296875 1.046875 -1.1875 1.71875q-0.875 0.65625 -2.171875 0.65625q-1.046875 0 -1.875 -0.46875q-0.8125 -0.46875 -1.28125 -1.328125q-0.453125 -0.859375 -0.453125 -2.0q0 -1.125 0.453125 -1.96875q0.453125 -0.859375 1.265625 -1.3125q0.828125 -0.46875 1.890625 -0.46875q1.03125 0 1.828125 0.453125q0.8125 0.453125 1.234375 1.25q0.4375 0.78125 0.4375 1.78125zm-1.25 -0.25q0 -0.6875 -0.3125 -1.1875q-0.296875 -0.5 -0.828125 -0.75q-0.53125 -0.265625 -1.171875 -0.265625q-0.90625 0 -1.5625 0.59375q-0.640625 0.578125 -0.734375 1.609375l4.609375 0zm6.4040527 -3.25q1.34375 0 2.171875 0.8125q0.828125 0.796875 0.828125 2.3125l0 4.3125l-1.203125 0l0 -4.125q0 -1.09375 -0.546875 -1.671875q-0.546875 -0.59375 -1.5 -0.59375q-0.953125 0 -1.53125 0.609375q-0.5625 0.59375 -0.5625 1.75l0 4.03125l-1.203125 0l0 -7.296875l1.203125 0l0 1.03125q0.359375 -0.5625 0.984375 -0.859375q0.625 -0.3125 1.359375 -0.3125zm4.5299683 3.765625q0 -1.125 0.453125 -1.96875q0.453125 -0.84375 1.234375 -1.3125q0.796875 -0.46875 1.78125 -0.46875q0.859375 0 1.59375 0.390625q0.734375 0.390625 1.109375 1.03125l0 -3.859375l1.234375 0l0 9.859375l-1.234375 0l0 -1.375q-0.359375 0.65625 -1.0625 1.078125q-0.703125 0.421875 -1.65625 0.421875q-0.96875 0 -1.765625 -0.484375q-0.78125 -0.484375 -1.234375 -1.34375q-0.453125 -0.875 -0.453125 -1.96875zm6.171875 0q0 -0.8125 -0.328125 -1.421875q-0.328125 -0.625 -0.90625 -0.953125q-0.5625 -0.328125 -1.234375 -0.328125q-0.6875 0 -1.25 0.328125q-0.546875 0.3125 -0.890625 0.9375q-0.328125 0.609375 -0.328125 1.4375q0 0.828125 0.328125 1.453125q0.34375 0.625 0.890625 0.953125q0.5625 0.3125 1.25 0.3125q0.671875 0 1.234375 -0.3125q0.578125 -0.328125 0.90625 -0.953125q0.328125 -0.625 0.328125 -1.453125zm5.8691406 3.796875q-0.84375 0 -1.515625 -0.28125q-0.65625 -0.296875 -1.046875 -0.8125q-0.375 -0.515625 -0.421875 -1.171875l1.25 0q0.0625 0.546875 0.515625 0.890625q0.46875 0.34375 1.203125 0.34375q0.703125 0 1.09375 -0.296875q0.40625 -0.3125 0.40625 -0.78125q0 -0.484375 -0.4375 -0.71875q-0.421875 -0.234375 -1.3125 -0.453125q-0.8125 -0.21875 -1.328125 -0.4375q-0.515625 -0.21875 -0.890625 -0.640625q-0.359375 -0.4375 -0.359375 -1.15625q0 -0.546875 0.328125 -1.015625q0.34375 -0.46875 0.953125 -0.734375q0.625 -0.28125 1.40625 -0.28125q1.21875 0 1.953125 0.609375q0.75 0.609375 0.796875 1.6875l-1.203125 0q-0.046875 -0.578125 -0.46875 -0.921875q-0.40625 -0.34375 -1.125 -0.34375q-0.640625 0 -1.03125 0.28125q-0.390625 0.265625 -0.390625 0.71875q0 0.359375 0.234375 0.59375q0.234375 0.234375 0.578125 0.375q0.359375 0.140625 0.984375 0.3125q0.796875 0.21875 1.28125 0.421875q0.5 0.203125 0.84375 0.625q0.359375 0.40625 0.375 1.078125q0 0.59375 -0.34375 1.078125q-0.328125 0.484375 -0.9375 0.765625q-0.609375 0.265625 -1.390625 0.265625z" fill-rule="nonzero"/><path fill="#000000" fill-opacity="0.0" d="m420.66403 202.44095l0 47.43306" fill-rule="evenodd"/><path stroke="#99e0bb" stroke-width="3.0" stroke-linejoin="round" stroke-linecap="butt" d="m420.66403 202.44095l0 29.43306" fill-rule="evenodd"/><path fill="#99e0bb" stroke="#99e0bb" stroke-width="3.0" stroke-linecap="butt" d="m415.70883 231.87402l4.9552 13.614288l4.9552 -13.614288z" fill-rule="evenodd"/><path fill="#000000" fill-opacity="0.0" d="m432.45416 214.69292l79.08661 0l0 22.929123l-79.08661 0z" fill-rule="evenodd"/><path fill="#99e0bb" d="m442.0323 227.82104q0 -1.125 0.453125 -1.96875q0.453125 -0.84375 1.234375 -1.3125q0.796875 -0.46875 1.78125 -0.46875q0.859375 0 1.59375 0.390625q0.734375 0.390625 1.109375 1.03125l0 -3.859375l1.234375 0l0 9.859375l-1.234375 0l0 -1.375q-0.359375 0.65625 -1.0625 1.078125q-0.703125 0.421875 -1.65625 0.421875q-0.96875 0 -1.765625 -0.484375q-0.78125 -0.484375 -1.234375 -1.34375q-0.453125 -0.875 -0.453125 -1.96875zm6.171875 0q0 -0.8125 -0.328125 -1.421875q-0.328125 -0.625 -0.90625 -0.953125q-0.5625 -0.328125 -1.234375 -0.328125q-0.6875 0 -1.25 0.328125q-0.546875 0.3125 -0.890625 0.9375q-0.328125 0.609375 -0.328125 1.4375q0 0.828125 0.328125 1.453125q0.34375 0.625 0.890625 0.953125q0.5625 0.3125 1.25 0.3125q0.671875 0 1.234375 -0.3125q0.578125 -0.328125 0.90625 -0.953125q0.328125 -0.625 0.328125 -1.453125zm9.947266 -0.265625q0 0.359375 -0.03125 0.734375l-5.84375 0q0.0625 1.078125 0.734375 1.6875q0.671875 0.609375 1.640625 0.609375q0.78125 0 1.3125 -0.359375q0.53125 -0.375 0.734375 -0.984375l1.3125 0q-0.296875 1.046875 -1.1875 1.71875q-0.875 0.65625 -2.171875 0.65625q-1.046875 0 -1.875 -0.46875q-0.8125 -0.46875 -1.28125 -1.328125q-0.453125 -0.859375 -0.453125 -2.0q0 -1.125 0.453125 -1.96875q0.453125 -0.859375 1.265625 -1.3125q0.828125 -0.46875 1.890625 -0.46875q1.03125 0 1.828125 0.453125q0.8125 0.453125 1.234375 1.25q0.4375 0.78125 0.4375 1.78125zm-1.25 -0.25q0 -0.6875 -0.3125 -1.1875q-0.296875 -0.5 -0.828125 -0.75q-0.53125 -0.265625 -1.171875 -0.265625q-0.90625 0 -1.5625 0.59375q-0.640625 0.578125 -0.734375 1.609375l4.609375 0zm5.8259277 -2.109375l-1.53125 0l0 6.296875l-1.21875 0l0 -6.296875l-0.9375 0l0 -1.0l0.9375 0l0 -0.53125q0 -1.21875 0.625 -1.78125q0.640625 -0.578125 2.046875 -0.578125l0 1.015625q-0.796875 0 -1.125 0.3125q-0.328125 0.3125 -0.328125 1.03125l0 0.53125l1.53125 0l0 1.0zm2.0411682 -2.1875q-0.34375 0 -0.59375 -0.234375q-0.234375 -0.25 -0.234375 -0.59375q0 -0.34375 0.234375 -0.578125q0.25 -0.25 0.59375 -0.25q0.328125 0 0.5625 0.25q0.234375 0.234375 0.234375 0.578125q0 0.34375 -0.234375 0.59375q-0.234375 0.234375 -0.5625 0.234375zm0.578125 1.1875l0 7.296875l-1.203125 0l0 -7.296875l1.203125 0zm5.622467 -0.140625q1.34375 0 2.171875 0.8125q0.828125 0.796875 0.828125 2.3125l0 4.3125l-1.203125 0l0 -4.125q0 -1.09375 -0.546875 -1.671875q-0.546875 -0.59375 -1.5 -0.59375q-0.953125 0 -1.53125 0.609375q-0.5625 0.59375 -0.5625 1.75l0 4.03125l-1.203125 0l0 -7.296875l1.203125 0l0 1.03125q0.359375 -0.5625 0.984375 -0.859375q0.625 -0.3125 1.359375 -0.3125zm11.639343 3.5q0 0.359375 -0.03125 0.734375l-5.84375 0q0.0625 1.078125 0.734375 1.6875q0.671875 0.609375 1.640625 0.609375q0.78125 0 1.3125 -0.359375q0.53125 -0.375 0.734375 -0.984375l1.3125 0q-0.296875 1.046875 -1.1875 1.71875q-0.875 0.65625 -2.171875 0.65625q-1.046875 0 -1.875 -0.46875q-0.8125 -0.46875 -1.28125 -1.328125q-0.453125 -0.859375 -0.453125 -2.0q0 -1.125 0.453125 -1.96875q0.453125 -0.859375 1.265625 -1.3125q0.828125 -0.46875 1.890625 -0.46875q1.03125 0 1.828125 0.453125q0.8125 0.453125 1.234375 1.25q0.4375 0.78125 0.4375 1.78125zm-1.25 -0.25q0 -0.6875 -0.3125 -1.1875q-0.296875 -0.5 -0.828125 -0.75q-0.53125 -0.265625 -1.171875 -0.265625q-0.90625 0 -1.5625 0.59375q-0.640625 0.578125 -0.734375 1.609375l4.609375 0zm5.435272 4.3125q-0.84375 0 -1.515625 -0.28125q-0.65625 -0.296875 -1.046875 -0.8125q-0.375 -0.515625 -0.421875 -1.171875l1.25 0q0.0625 0.546875 0.515625 0.890625q0.46875 0.34375 1.203125 0.34375q0.703125 0 1.09375 -0.296875q0.40625 -0.3125 0.40625 -0.78125q0 -0.484375 -0.4375 -0.71875q-0.421875 -0.234375 -1.3125 -0.453125q-0.8125 -0.21875 -1.328125 -0.4375q-0.515625 -0.21875 -0.890625 -0.640625q-0.359375 -0.4375 -0.359375 -1.15625q0 -0.546875 0.328125 -1.015625q0.34375 -0.46875 0.953125 -0.734375q0.625 -0.28125 1.40625 -0.28125q1.21875 0 1.953125 0.609375q0.75 0.609375 0.796875 1.6875l-1.203125 0q-0.046875 -0.578125 -0.46875 -0.921875q-0.40625 -0.34375 -1.125 -0.34375q-0.640625 0 -1.03125 0.28125q-0.390625 0.265625 -0.390625 0.71875q0 0.359375 0.234375 0.59375q0.234375 0.234375 0.578125 0.375q0.359375 0.140625 0.984375 0.3125q0.796875 0.21875 1.28125 0.421875q0.5 0.203125 0.84375 0.625q0.359375 0.40625 0.375 1.078125q0 0.59375 -0.34375 1.078125q-0.328125 0.484375 -0.9375 0.765625q-0.609375 0.265625 -1.390625 0.265625z" fill-rule="nonzero"/><path fill="#000000" fill-opacity="0.0" d="m447.94095 323.4987l0 36.53543" fill-rule="evenodd"/><path stroke="#99e0bb" stroke-width="3.0" stroke-linejoin="round" stroke-linecap="butt" d="m447.94095 323.4987l0 18.53543" fill-rule="evenodd"/><path fill="#99e0bb" stroke="#99e0bb" stroke-width="3.0" stroke-linecap="butt" d="m442.98575 342.03412l4.9552 13.614288l4.9552 -13.614288z" fill-rule="evenodd"/><path fill="#000000" fill-opacity="0.0" d="m397.8832 360.03412l0 -36.53543" fill-rule="evenodd"/><path stroke="#99e0bb" stroke-width="3.0" stroke-linejoin="round" stroke-linecap="butt" d="m397.8832 360.03412l0 -18.53543" fill-rule="evenodd"/><path fill="#99e0bb" stroke="#99e0bb" stroke-width="3.0" stroke-linecap="butt" d="m402.8384 341.4987l-4.9552 -13.614288l-4.9552 13.614288z" fill-rule="evenodd"/><path fill="#000000" fill-opacity="0.0" d="m529.03937 425.0971l137.35431 0l0 35.55905l-137.35431 0z" fill-rule="evenodd"/><path fill="#99e0bb" d="m540.27374 440.77213q0.328125 -0.625 0.921875 -0.96875q0.59375 -0.34375 1.4375 -0.34375l0 1.25l-0.3125 0q-2.046875 0 -2.046875 2.21875l0 3.96875l-1.203125 0l0 -7.296875l1.203125 0l0 1.171875zm10.4244995 2.1875q0 0.359375 -0.03125 0.734375l-5.84375 0q0.0625 1.078125 0.734375 1.6875q0.671875 0.609375 1.640625 0.609375q0.78125 0 1.3125 -0.359375q0.53125 -0.375 0.734375 -0.984375l1.3125 0q-0.296875 1.046875 -1.1875 1.71875q-0.875 0.65625 -2.171875 0.65625q-1.046875 0 -1.875 -0.46875q-0.8125 -0.46875 -1.28125 -1.328125q-0.453125 -0.859375 -0.453125 -2.0q0 -1.125 0.453125 -1.96875q0.453125 -0.859375 1.265625 -1.3125q0.828125 -0.46875 1.890625 -0.46875q1.03125 0 1.828125 0.453125q0.8125 0.453125 1.234375 1.25q0.4375 0.78125 0.4375 1.78125zm-1.25 -0.25q0 -0.6875 -0.3125 -1.1875q-0.296875 -0.5 -0.828125 -0.75q-0.53125 -0.265625 -1.171875 -0.265625q-0.90625 0 -1.5625 0.59375q-0.640625 0.578125 -0.734375 1.609375l4.609375 0zm2.4040527 0.515625q0 -1.125 0.453125 -1.96875q0.453125 -0.84375 1.25 -1.3125q0.8125 -0.46875 1.84375 -0.46875q1.359375 0 2.21875 0.65625q0.875 0.640625 1.15625 1.8125l-1.296875 0q-0.1875 -0.671875 -0.734375 -1.046875q-0.53125 -0.390625 -1.34375 -0.390625q-1.03125 0 -1.671875 0.71875q-0.640625 0.703125 -0.640625 2.0q0 1.328125 0.640625 2.046875q0.640625 0.71875 1.671875 0.71875q0.8125 0 1.34375 -0.375q0.53125 -0.375 0.734375 -1.0625l1.296875 0q-0.296875 1.125 -1.171875 1.796875q-0.875 0.671875 -2.203125 0.671875q-1.03125 0 -1.84375 -0.46875q-0.796875 -0.46875 -1.25 -1.3125q-0.453125 -0.859375 -0.453125 -2.015625zm11.730774 3.796875q-1.03125 0 -1.875 -0.46875q-0.828125 -0.46875 -1.296875 -1.328125q-0.46875 -0.859375 -0.46875 -2.0q0 -1.109375 0.484375 -1.96875q0.484375 -0.859375 1.3125 -1.3125q0.84375 -0.46875 1.890625 -0.46875q1.03125 0 1.875 0.46875q0.84375 0.453125 1.328125 1.3125q0.484375 0.84375 0.484375 1.96875q0 1.140625 -0.5 2.0q-0.5 0.859375 -1.359375 1.328125q-0.84375 0.46875 -1.875 0.46875zm0 -1.078125q0.640625 0 1.21875 -0.296875q0.578125 -0.3125 0.921875 -0.921875q0.359375 -0.609375 0.359375 -1.5q0 -0.875 -0.34375 -1.484375q-0.34375 -0.609375 -0.90625 -0.90625q-0.5625 -0.3125 -1.21875 -0.3125q-0.671875 0 -1.21875 0.3125q-0.546875 0.296875 -0.890625 0.90625q-0.328125 0.609375 -0.328125 1.484375q0 0.90625 0.328125 1.515625q0.328125 0.609375 0.875 0.90625q0.546875 0.296875 1.203125 0.296875zm8.889343 -6.484375q1.34375 0 2.171875 0.8125q0.828125 0.796875 0.828125 2.3125l0 4.3125l-1.203125 0l0 -4.125q0 -1.09375 -0.546875 -1.671875q-0.546875 -0.59375 -1.5 -0.59375q-0.953125 0 -1.53125 0.609375q-0.5625 0.59375 -0.5625 1.75l0 4.03125l-1.203125 0l0 -7.296875l1.203125 0l0 1.03125q0.359375 -0.5625 0.984375 -0.859375q0.625 -0.3125 1.359375 -0.3125zm4.5299683 3.765625q0 -1.125 0.453125 -1.96875q0.453125 -0.84375 1.25 -1.3125q0.8125 -0.46875 1.84375 -0.46875q1.359375 0 2.21875 0.65625q0.875 0.640625 1.15625 1.8125l-1.296875 0q-0.1875 -0.671875 -0.734375 -1.046875q-0.53125 -0.390625 -1.34375 -0.390625q-1.03125 0 -1.671875 0.71875q-0.640625 0.703125 -0.640625 2.0q0 1.328125 0.640625 2.046875q0.640625 0.71875 1.671875 0.71875q0.8125 0 1.34375 -0.375q0.53125 -0.375 0.734375 -1.0625l1.296875 0q-0.296875 1.125 -1.171875 1.796875q-0.875 0.671875 -2.203125 0.671875q-1.03125 0 -1.84375 -0.46875q-0.796875 -0.46875 -1.25 -1.3125q-0.453125 -0.859375 -0.453125 -2.015625zm9.168274 -4.8125q-0.34375 0 -0.59375 -0.234375q-0.234375 -0.25 -0.234375 -0.59375q0 -0.34375 0.234375 -0.578125q0.25 -0.25 0.59375 -0.25q0.328125 0 0.5625 0.25q0.234375 0.234375 0.234375 0.578125q0 0.34375 -0.234375 0.59375q-0.234375 0.234375 -0.5625 0.234375zm0.578125 1.1875l0 7.296875l-1.203125 0l0 -7.296875l1.203125 0zm3.2786865 -2.5625l0 9.859375l-1.203125 0l0 -9.859375l1.203125 0zm8.731812 5.921875q0 0.359375 -0.03125 0.734375l-5.84375 0q0.0625 1.078125 0.734375 1.6875q0.671875 0.609375 1.640625 0.609375q0.78125 0 1.3125 -0.359375q0.53125 -0.375 0.734375 -0.984375l1.3125 0q-0.296875 1.046875 -1.1875 1.71875q-0.875 0.65625 -2.171875 0.65625q-1.046875 0 -1.875 -0.46875q-0.8125 -0.46875 -1.28125 -1.328125q-0.453125 -0.859375 -0.453125 -2.0q0 -1.125 0.453125 -1.96875q0.453125 -0.859375 1.265625 -1.3125q0.828125 -0.46875 1.890625 -0.46875q1.03125 0 1.828125 0.453125q0.8125 0.453125 1.234375 1.25q0.4375 0.78125 0.4375 1.78125zm-1.25 -0.25q0 -0.6875 -0.3125 -1.1875q-0.296875 -0.5 -0.828125 -0.75q-0.53125 -0.265625 -1.171875 -0.265625q-0.90625 0 -1.5625 0.59375q-0.640625 0.578125 -0.734375 1.609375l4.609375 0z" fill-rule="nonzero"/><path fill="#0a1432" d="m688.34906 389.06296l152.69293 0l0 55.873993l-152.69293 0z" fill-rule="evenodd"/><path stroke="#0a1432" stroke-width="2.0026246719160103" stroke-linejoin="round" stroke-linecap="butt" d="m688.34906 389.06296l152.69293 0l0 55.873993l-152.69293 0z" fill-rule="evenodd"/><path fill="#ffffff" d="m716.84595 422.27997l-4.203125 -4.65625l0 4.65625l-1.34375 0l0 -10.21875l1.34375 0l0 4.734375l4.21875 -4.734375l1.6875 0l-4.640625 5.125l4.671875 5.09375l-1.734375 0zm10.357239 -8.03125l0 8.03125l-1.328125 0l0 -1.1875q-0.390625 0.609375 -1.078125 0.96875q-0.671875 0.34375 -1.484375 0.34375q-0.9375 0 -1.6875 -0.390625q-0.75 -0.390625 -1.1875 -1.171875q-0.421875 -0.78125 -0.421875 -1.890625l0 -4.703125l1.3125 0l0 4.53125q0 1.1875 0.59375 1.828125q0.609375 0.625 1.640625 0.625q1.078125 0 1.6875 -0.65625q0.625 -0.65625 0.625 -1.921875l0 -4.40625l1.328125 0zm3.598816 1.5q0.40625 -0.71875 1.1875 -1.171875q0.796875 -0.453125 1.8125 -0.453125q1.078125 0 1.9375 0.515625q0.875 0.5 1.375 1.4375q0.5 0.921875 0.5 2.15625q0 1.21875 -0.5 2.171875q-0.5 0.953125 -1.375 1.484375q-0.875 0.515625 -1.9375 0.515625q-1.046875 0 -1.828125 -0.453125q-0.78125 -0.453125 -1.171875 -1.15625l0 1.484375l-1.34375 0l0 -10.84375l1.34375 0l0 4.3125zm5.453125 2.484375q0 -0.90625 -0.375 -1.578125q-0.359375 -0.671875 -0.984375 -1.015625q-0.625 -0.359375 -1.375 -0.359375q-0.734375 0 -1.359375 0.359375q-0.625 0.359375 -1.0 1.046875q-0.359375 0.671875 -0.359375 1.5625q0 0.90625 0.359375 1.59375q0.375 0.671875 1.0 1.03125q0.625 0.359375 1.359375 0.359375q0.75 0 1.375 -0.359375q0.625 -0.359375 0.984375 -1.03125q0.375 -0.6875 0.375 -1.609375zm10.438904 -0.28125q0 0.390625 -0.046875 0.8125l-6.40625 0q0.0625 1.1875 0.796875 1.859375q0.75 0.65625 1.8125 0.65625q0.859375 0 1.4375 -0.390625q0.578125 -0.40625 0.8125 -1.09375l1.4375 0q-0.328125 1.171875 -1.296875 1.890625q-0.96875 0.71875 -2.390625 0.71875q-1.15625 0 -2.0625 -0.5q-0.890625 -0.515625 -1.40625 -1.453125q-0.515625 -0.953125 -0.515625 -2.203125q0 -1.25 0.5 -2.1875q0.5 -0.9375 1.390625 -1.4375q0.90625 -0.5 2.09375 -0.5q1.140625 0 2.015625 0.5q0.875 0.484375 1.34375 1.359375q0.484375 0.875 0.484375 1.96875zm-1.375 -0.28125q0 -0.75 -0.34375 -1.296875q-0.328125 -0.5625 -0.90625 -0.84375q-0.578125 -0.28125 -1.28125 -0.28125q-1.015625 0 -1.734375 0.640625q-0.703125 0.640625 -0.796875 1.78125l5.0625 0zm4.477539 -2.125q0.34375 -0.6875 1.0 -1.0625q0.65625 -0.375 1.59375 -0.375l0 1.375l-0.359375 0q-2.234375 0 -2.234375 2.421875l0 4.375l-1.34375 0l0 -8.03125l1.34375 0l0 1.296875zm11.451172 2.40625q0 0.390625 -0.046875 0.8125l-6.40625 0q0.0625 1.1875 0.796875 1.859375q0.75 0.65625 1.8125 0.65625q0.859375 0 1.4375 -0.390625q0.578125 -0.40625 0.8125 -1.09375l1.4375 0q-0.328125 1.171875 -1.296875 1.890625q-0.96875 0.71875 -2.390625 0.71875q-1.15625 0 -2.0625 -0.5q-0.890625 -0.515625 -1.40625 -1.453125q-0.515625 -0.953125 -0.515625 -2.203125q0 -1.25 0.5 -2.1875q0.5 -0.9375 1.390625 -1.4375q0.90625 -0.5 2.09375 -0.5q1.140625 0 2.015625 0.5q0.875 0.484375 1.34375 1.359375q0.484375 0.875 0.484375 1.96875zm-1.375 -0.28125q0 -0.75 -0.34375 -1.296875q-0.328125 -0.5625 -0.90625 -0.84375q-0.578125 -0.28125 -1.28125 -0.28125q-1.015625 0 -1.734375 0.640625q-0.703125 0.640625 -0.796875 1.78125l5.0625 0zm7.055664 -3.5625q1.453125 0 2.359375 0.890625q0.921875 0.875 0.921875 2.546875l0 4.734375l-1.328125 0l0 -4.546875q0 -1.203125 -0.609375 -1.828125q-0.59375 -0.640625 -1.625 -0.640625q-1.0625 0 -1.6875 0.65625q-0.609375 0.65625 -0.609375 1.921875l0 4.4375l-1.34375 0l0 -8.03125l1.34375 0l0 1.140625q0.390625 -0.609375 1.0625 -0.9375q0.6875 -0.34375 1.515625 -0.34375zm7.08313 1.234375l0 4.734375q0 0.59375 0.25 0.84375q0.25 0.234375 0.875 0.234375l0.96875 0l0 1.125l-1.1875 0q-1.125 0 -1.6875 -0.515625q-0.546875 -0.515625 -0.546875 -1.6875l0 -4.734375l-1.046875 0l0 -1.09375l1.046875 0l0 -2.015625l1.328125 0l0 2.015625l2.09375 0l0 1.09375l-2.09375 0zm11.038025 2.609375q0 0.390625 -0.046875 0.8125l-6.40625 0q0.0625 1.1875 0.796875 1.859375q0.75 0.65625 1.8125 0.65625q0.859375 0 1.4375 -0.390625q0.578125 -0.40625 0.8125 -1.09375l1.4375 0q-0.328125 1.171875 -1.296875 1.890625q-0.96875 0.71875 -2.390625 0.71875q-1.15625 0 -2.0625 -0.5q-0.890625 -0.515625 -1.40625 -1.453125q-0.515625 -0.953125 -0.515625 -2.203125q0 -1.25 0.5 -2.1875q0.5 -0.9375 1.390625 -1.4375q0.90625 -0.5 2.09375 -0.5q1.140625 0 2.015625 0.5q0.875 0.484375 1.34375 1.359375q0.484375 0.875 0.484375 1.96875zm-1.375 -0.28125q0 -0.75 -0.34375 -1.296875q-0.328125 -0.5625 -0.90625 -0.84375q-0.578125 -0.28125 -1.28125 -0.28125q-1.015625 0 -1.734375 0.640625q-0.703125 0.640625 -0.796875 1.78125l5.0625 0zm5.977539 4.734375q-0.921875 0 -1.65625 -0.3125q-0.734375 -0.3125 -1.15625 -0.875q-0.421875 -0.5625 -0.46875 -1.296875l1.375 0q0.0625 0.59375 0.5625 0.984375q0.515625 0.375 1.328125 0.375q0.765625 0 1.203125 -0.328125q0.4375 -0.34375 0.4375 -0.859375q0 -0.53125 -0.46875 -0.78125q-0.46875 -0.25 -1.453125 -0.5q-0.890625 -0.234375 -1.453125 -0.46875q-0.5625 -0.25 -0.96875 -0.71875q-0.40625 -0.484375 -0.40625 -1.265625q0 -0.609375 0.359375 -1.125q0.375 -0.515625 1.046875 -0.8125q0.6875 -0.296875 1.546875 -0.296875q1.328125 0 2.140625 0.671875q0.828125 0.671875 0.890625 1.84375l-1.328125 0q-0.046875 -0.625 -0.515625 -1.0q-0.453125 -0.390625 -1.234375 -0.390625q-0.71875 0 -1.140625 0.3125q-0.421875 0.296875 -0.421875 0.796875q0 0.390625 0.25 0.65625q0.265625 0.25 0.640625 0.40625q0.390625 0.15625 1.078125 0.34375q0.875 0.234375 1.40625 0.46875q0.546875 0.21875 0.9375 0.671875q0.390625 0.453125 0.40625 1.1875q0 0.65625 -0.375 1.1875q-0.359375 0.53125 -1.03125 0.828125q-0.65625 0.296875 -1.53125 0.296875zm14.766968 -2.390625l-4.453125 0l-0.828125 2.265625l-1.40625 0l3.6875 -10.15625l1.546875 0l3.671875 10.15625l-1.40625 0l-0.8125 -2.265625zm-0.390625 -1.09375l-1.84375 -5.15625l-1.84375 5.15625l3.6875 0zm11.050232 -3.859375q0 1.265625 -0.875 2.109375q-0.859375 0.84375 -2.65625 0.84375l-1.953125 0l0 4.265625l-1.34375 0l0 -10.21875l3.296875 0q1.734375 0 2.625 0.84375q0.90625 0.828125 0.90625 2.15625zm-3.53125 1.859375q1.125 0 1.640625 -0.484375q0.53125 -0.484375 0.53125 -1.375q0 -1.890625 -2.171875 -1.890625l-1.953125 0l0 3.75l1.953125 0zm6.532898 -4.859375l0 10.21875l-1.34375 0l0 -10.21875l1.34375 0z" fill-rule="nonzero"/></g></svg>